<?xml version="1.0" encoding="utf-8" standalone="no"?>
<!DOCTYPE svg PUBLIC "-//W3C//DTD SVG 1.1//EN"
  "http://www.w3.org/Graphics/SVG/1.1/DTD/svg11.dtd">
<!-- Created with matplotlib (https://matplotlib.org/) -->
<svg height="360pt" version="1.1" viewBox="0 0 1440 360" width="1440pt" xmlns="http://www.w3.org/2000/svg" xmlns:xlink="http://www.w3.org/1999/xlink">
 <defs>
  <style type="text/css">
*{stroke-linecap:butt;stroke-linejoin:round;}
  </style>
 </defs>
 <g id="figure_1">
  <g id="patch_1">
   <path d="M 0 360 
L 1440 360 
L 1440 0 
L 0 0 
z
" style="fill:#ffffff;"/>
  </g>
  <g id="axes_1">
   <g id="patch_2">
    <path d="M 180 315 
L 1296 315 
L 1296 43.2 
L 180 43.2 
z
" style="fill:#eaeaf2;"/>
   </g>
   <g id="matplotlib.axis_1">
    <g id="xtick_1">
     <g id="line2d_1">
      <path clip-path="url(#p59c2f2fe23)" d="M 306.22833 315 
L 306.22833 43.2 
" style="fill:none;stroke:#ffffff;stroke-linecap:round;"/>
     </g>
     <g id="text_1">
      <!-- 2020-04 -->
      <defs>
       <path d="M 19.1875 8.296875 
L 53.609375 8.296875 
L 53.609375 0 
L 7.328125 0 
L 7.328125 8.296875 
Q 12.9375 14.109375 22.625 23.890625 
Q 32.328125 33.6875 34.8125 36.53125 
Q 39.546875 41.84375 41.421875 45.53125 
Q 43.3125 49.21875 43.3125 52.78125 
Q 43.3125 58.59375 39.234375 62.25 
Q 35.15625 65.921875 28.609375 65.921875 
Q 23.96875 65.921875 18.8125 64.3125 
Q 13.671875 62.703125 7.8125 59.421875 
L 7.8125 69.390625 
Q 13.765625 71.78125 18.9375 73 
Q 24.125 74.21875 28.421875 74.21875 
Q 39.75 74.21875 46.484375 68.546875 
Q 53.21875 62.890625 53.21875 53.421875 
Q 53.21875 48.921875 51.53125 44.890625 
Q 49.859375 40.875 45.40625 35.40625 
Q 44.1875 33.984375 37.640625 27.21875 
Q 31.109375 20.453125 19.1875 8.296875 
z
" id="DejaVuSans-50"/>
       <path d="M 31.78125 66.40625 
Q 24.171875 66.40625 20.328125 58.90625 
Q 16.5 51.421875 16.5 36.375 
Q 16.5 21.390625 20.328125 13.890625 
Q 24.171875 6.390625 31.78125 6.390625 
Q 39.453125 6.390625 43.28125 13.890625 
Q 47.125 21.390625 47.125 36.375 
Q 47.125 51.421875 43.28125 58.90625 
Q 39.453125 66.40625 31.78125 66.40625 
z
M 31.78125 74.21875 
Q 44.046875 74.21875 50.515625 64.515625 
Q 56.984375 54.828125 56.984375 36.375 
Q 56.984375 17.96875 50.515625 8.265625 
Q 44.046875 -1.421875 31.78125 -1.421875 
Q 19.53125 -1.421875 13.0625 8.265625 
Q 6.59375 17.96875 6.59375 36.375 
Q 6.59375 54.828125 13.0625 64.515625 
Q 19.53125 74.21875 31.78125 74.21875 
z
" id="DejaVuSans-48"/>
       <path d="M 4.890625 31.390625 
L 31.203125 31.390625 
L 31.203125 23.390625 
L 4.890625 23.390625 
z
" id="DejaVuSans-45"/>
       <path d="M 37.796875 64.3125 
L 12.890625 25.390625 
L 37.796875 25.390625 
z
M 35.203125 72.90625 
L 47.609375 72.90625 
L 47.609375 25.390625 
L 58.015625 25.390625 
L 58.015625 17.1875 
L 47.609375 17.1875 
L 47.609375 0 
L 37.796875 0 
L 37.796875 17.1875 
L 4.890625 17.1875 
L 4.890625 26.703125 
z
" id="DejaVuSans-52"/>
      </defs>
      <g style="fill:#262626;" transform="translate(283.247783 332.858281)scale(0.11 -0.11)">
       <use xlink:href="#DejaVuSans-50"/>
       <use x="63.623047" xlink:href="#DejaVuSans-48"/>
       <use x="127.246094" xlink:href="#DejaVuSans-50"/>
       <use x="190.869141" xlink:href="#DejaVuSans-48"/>
       <use x="254.492188" xlink:href="#DejaVuSans-45"/>
       <use x="290.576172" xlink:href="#DejaVuSans-48"/>
       <use x="354.199219" xlink:href="#DejaVuSans-52"/>
      </g>
     </g>
    </g>
    <g id="xtick_2">
     <g id="line2d_2">
      <path clip-path="url(#p59c2f2fe23)" d="M 447.792812 315 
L 447.792812 43.2 
" style="fill:none;stroke:#ffffff;stroke-linecap:round;"/>
     </g>
     <g id="text_2">
      <!-- 2020-05 -->
      <defs>
       <path d="M 10.796875 72.90625 
L 49.515625 72.90625 
L 49.515625 64.59375 
L 19.828125 64.59375 
L 19.828125 46.734375 
Q 21.96875 47.46875 24.109375 47.828125 
Q 26.265625 48.1875 28.421875 48.1875 
Q 40.625 48.1875 47.75 41.5 
Q 54.890625 34.8125 54.890625 23.390625 
Q 54.890625 11.625 47.5625 5.09375 
Q 40.234375 -1.421875 26.90625 -1.421875 
Q 22.3125 -1.421875 17.546875 -0.640625 
Q 12.796875 0.140625 7.71875 1.703125 
L 7.71875 11.625 
Q 12.109375 9.234375 16.796875 8.0625 
Q 21.484375 6.890625 26.703125 6.890625 
Q 35.15625 6.890625 40.078125 11.328125 
Q 45.015625 15.765625 45.015625 23.390625 
Q 45.015625 31 40.078125 35.4375 
Q 35.15625 39.890625 26.703125 39.890625 
Q 22.75 39.890625 18.8125 39.015625 
Q 14.890625 38.140625 10.796875 36.28125 
z
" id="DejaVuSans-53"/>
      </defs>
      <g style="fill:#262626;" transform="translate(424.812265 332.858281)scale(0.11 -0.11)">
       <use xlink:href="#DejaVuSans-50"/>
       <use x="63.623047" xlink:href="#DejaVuSans-48"/>
       <use x="127.246094" xlink:href="#DejaVuSans-50"/>
       <use x="190.869141" xlink:href="#DejaVuSans-48"/>
       <use x="254.492188" xlink:href="#DejaVuSans-45"/>
       <use x="290.576172" xlink:href="#DejaVuSans-48"/>
       <use x="354.199219" xlink:href="#DejaVuSans-53"/>
      </g>
     </g>
    </g>
    <g id="xtick_3">
     <g id="line2d_3">
      <path clip-path="url(#p59c2f2fe23)" d="M 594.07611 315 
L 594.07611 43.2 
" style="fill:none;stroke:#ffffff;stroke-linecap:round;"/>
     </g>
     <g id="text_3">
      <!-- 2020-06 -->
      <defs>
       <path d="M 33.015625 40.375 
Q 26.375 40.375 22.484375 35.828125 
Q 18.609375 31.296875 18.609375 23.390625 
Q 18.609375 15.53125 22.484375 10.953125 
Q 26.375 6.390625 33.015625 6.390625 
Q 39.65625 6.390625 43.53125 10.953125 
Q 47.40625 15.53125 47.40625 23.390625 
Q 47.40625 31.296875 43.53125 35.828125 
Q 39.65625 40.375 33.015625 40.375 
z
M 52.59375 71.296875 
L 52.59375 62.3125 
Q 48.875 64.0625 45.09375 64.984375 
Q 41.3125 65.921875 37.59375 65.921875 
Q 27.828125 65.921875 22.671875 59.328125 
Q 17.53125 52.734375 16.796875 39.40625 
Q 19.671875 43.65625 24.015625 45.921875 
Q 28.375 48.1875 33.59375 48.1875 
Q 44.578125 48.1875 50.953125 41.515625 
Q 57.328125 34.859375 57.328125 23.390625 
Q 57.328125 12.15625 50.6875 5.359375 
Q 44.046875 -1.421875 33.015625 -1.421875 
Q 20.359375 -1.421875 13.671875 8.265625 
Q 6.984375 17.96875 6.984375 36.375 
Q 6.984375 53.65625 15.1875 63.9375 
Q 23.390625 74.21875 37.203125 74.21875 
Q 40.921875 74.21875 44.703125 73.484375 
Q 48.484375 72.75 52.59375 71.296875 
z
" id="DejaVuSans-54"/>
      </defs>
      <g style="fill:#262626;" transform="translate(571.095563 332.858281)scale(0.11 -0.11)">
       <use xlink:href="#DejaVuSans-50"/>
       <use x="63.623047" xlink:href="#DejaVuSans-48"/>
       <use x="127.246094" xlink:href="#DejaVuSans-50"/>
       <use x="190.869141" xlink:href="#DejaVuSans-48"/>
       <use x="254.492188" xlink:href="#DejaVuSans-45"/>
       <use x="290.576172" xlink:href="#DejaVuSans-48"/>
       <use x="354.199219" xlink:href="#DejaVuSans-54"/>
      </g>
     </g>
    </g>
    <g id="xtick_4">
     <g id="line2d_4">
      <path clip-path="url(#p59c2f2fe23)" d="M 735.640592 315 
L 735.640592 43.2 
" style="fill:none;stroke:#ffffff;stroke-linecap:round;"/>
     </g>
     <g id="text_4">
      <!-- 2020-07 -->
      <defs>
       <path d="M 8.203125 72.90625 
L 55.078125 72.90625 
L 55.078125 68.703125 
L 28.609375 0 
L 18.3125 0 
L 43.21875 64.59375 
L 8.203125 64.59375 
z
" id="DejaVuSans-55"/>
      </defs>
      <g style="fill:#262626;" transform="translate(712.660045 332.858281)scale(0.11 -0.11)">
       <use xlink:href="#DejaVuSans-50"/>
       <use x="63.623047" xlink:href="#DejaVuSans-48"/>
       <use x="127.246094" xlink:href="#DejaVuSans-50"/>
       <use x="190.869141" xlink:href="#DejaVuSans-48"/>
       <use x="254.492188" xlink:href="#DejaVuSans-45"/>
       <use x="290.576172" xlink:href="#DejaVuSans-48"/>
       <use x="354.199219" xlink:href="#DejaVuSans-55"/>
      </g>
     </g>
    </g>
    <g id="xtick_5">
     <g id="line2d_5">
      <path clip-path="url(#p59c2f2fe23)" d="M 881.92389 315 
L 881.92389 43.2 
" style="fill:none;stroke:#ffffff;stroke-linecap:round;"/>
     </g>
     <g id="text_5">
      <!-- 2020-08 -->
      <defs>
       <path d="M 31.78125 34.625 
Q 24.75 34.625 20.71875 30.859375 
Q 16.703125 27.09375 16.703125 20.515625 
Q 16.703125 13.921875 20.71875 10.15625 
Q 24.75 6.390625 31.78125 6.390625 
Q 38.8125 6.390625 42.859375 10.171875 
Q 46.921875 13.96875 46.921875 20.515625 
Q 46.921875 27.09375 42.890625 30.859375 
Q 38.875 34.625 31.78125 34.625 
z
M 21.921875 38.8125 
Q 15.578125 40.375 12.03125 44.71875 
Q 8.5 49.078125 8.5 55.328125 
Q 8.5 64.0625 14.71875 69.140625 
Q 20.953125 74.21875 31.78125 74.21875 
Q 42.671875 74.21875 48.875 69.140625 
Q 55.078125 64.0625 55.078125 55.328125 
Q 55.078125 49.078125 51.53125 44.71875 
Q 48 40.375 41.703125 38.8125 
Q 48.828125 37.15625 52.796875 32.3125 
Q 56.78125 27.484375 56.78125 20.515625 
Q 56.78125 9.90625 50.3125 4.234375 
Q 43.84375 -1.421875 31.78125 -1.421875 
Q 19.734375 -1.421875 13.25 4.234375 
Q 6.78125 9.90625 6.78125 20.515625 
Q 6.78125 27.484375 10.78125 32.3125 
Q 14.796875 37.15625 21.921875 38.8125 
z
M 18.3125 54.390625 
Q 18.3125 48.734375 21.84375 45.5625 
Q 25.390625 42.390625 31.78125 42.390625 
Q 38.140625 42.390625 41.71875 45.5625 
Q 45.3125 48.734375 45.3125 54.390625 
Q 45.3125 60.0625 41.71875 63.234375 
Q 38.140625 66.40625 31.78125 66.40625 
Q 25.390625 66.40625 21.84375 63.234375 
Q 18.3125 60.0625 18.3125 54.390625 
z
" id="DejaVuSans-56"/>
      </defs>
      <g style="fill:#262626;" transform="translate(858.943343 332.858281)scale(0.11 -0.11)">
       <use xlink:href="#DejaVuSans-50"/>
       <use x="63.623047" xlink:href="#DejaVuSans-48"/>
       <use x="127.246094" xlink:href="#DejaVuSans-50"/>
       <use x="190.869141" xlink:href="#DejaVuSans-48"/>
       <use x="254.492188" xlink:href="#DejaVuSans-45"/>
       <use x="290.576172" xlink:href="#DejaVuSans-48"/>
       <use x="354.199219" xlink:href="#DejaVuSans-56"/>
      </g>
     </g>
    </g>
    <g id="xtick_6">
     <g id="line2d_6">
      <path clip-path="url(#p59c2f2fe23)" d="M 1028.207188 315 
L 1028.207188 43.2 
" style="fill:none;stroke:#ffffff;stroke-linecap:round;"/>
     </g>
     <g id="text_6">
      <!-- 2020-09 -->
      <defs>
       <path d="M 10.984375 1.515625 
L 10.984375 10.5 
Q 14.703125 8.734375 18.5 7.8125 
Q 22.3125 6.890625 25.984375 6.890625 
Q 35.75 6.890625 40.890625 13.453125 
Q 46.046875 20.015625 46.78125 33.40625 
Q 43.953125 29.203125 39.59375 26.953125 
Q 35.25 24.703125 29.984375 24.703125 
Q 19.046875 24.703125 12.671875 31.3125 
Q 6.296875 37.9375 6.296875 49.421875 
Q 6.296875 60.640625 12.9375 67.421875 
Q 19.578125 74.21875 30.609375 74.21875 
Q 43.265625 74.21875 49.921875 64.515625 
Q 56.59375 54.828125 56.59375 36.375 
Q 56.59375 19.140625 48.40625 8.859375 
Q 40.234375 -1.421875 26.421875 -1.421875 
Q 22.703125 -1.421875 18.890625 -0.6875 
Q 15.09375 0.046875 10.984375 1.515625 
z
M 30.609375 32.421875 
Q 37.25 32.421875 41.125 36.953125 
Q 45.015625 41.5 45.015625 49.421875 
Q 45.015625 57.28125 41.125 61.84375 
Q 37.25 66.40625 30.609375 66.40625 
Q 23.96875 66.40625 20.09375 61.84375 
Q 16.21875 57.28125 16.21875 49.421875 
Q 16.21875 41.5 20.09375 36.953125 
Q 23.96875 32.421875 30.609375 32.421875 
z
" id="DejaVuSans-57"/>
      </defs>
      <g style="fill:#262626;" transform="translate(1005.226641 332.858281)scale(0.11 -0.11)">
       <use xlink:href="#DejaVuSans-50"/>
       <use x="63.623047" xlink:href="#DejaVuSans-48"/>
       <use x="127.246094" xlink:href="#DejaVuSans-50"/>
       <use x="190.869141" xlink:href="#DejaVuSans-48"/>
       <use x="254.492188" xlink:href="#DejaVuSans-45"/>
       <use x="290.576172" xlink:href="#DejaVuSans-48"/>
       <use x="354.199219" xlink:href="#DejaVuSans-57"/>
      </g>
     </g>
    </g>
    <g id="xtick_7">
     <g id="line2d_7">
      <path clip-path="url(#p59c2f2fe23)" d="M 1169.77167 315 
L 1169.77167 43.2 
" style="fill:none;stroke:#ffffff;stroke-linecap:round;"/>
     </g>
     <g id="text_7">
      <!-- 2020-10 -->
      <defs>
       <path d="M 12.40625 8.296875 
L 28.515625 8.296875 
L 28.515625 63.921875 
L 10.984375 60.40625 
L 10.984375 69.390625 
L 28.421875 72.90625 
L 38.28125 72.90625 
L 38.28125 8.296875 
L 54.390625 8.296875 
L 54.390625 0 
L 12.40625 0 
z
" id="DejaVuSans-49"/>
      </defs>
      <g style="fill:#262626;" transform="translate(1146.791123 332.858281)scale(0.11 -0.11)">
       <use xlink:href="#DejaVuSans-50"/>
       <use x="63.623047" xlink:href="#DejaVuSans-48"/>
       <use x="127.246094" xlink:href="#DejaVuSans-50"/>
       <use x="190.869141" xlink:href="#DejaVuSans-48"/>
       <use x="254.492188" xlink:href="#DejaVuSans-45"/>
       <use x="290.576172" xlink:href="#DejaVuSans-49"/>
       <use x="354.199219" xlink:href="#DejaVuSans-48"/>
      </g>
     </g>
    </g>
    <g id="text_8">
     <!-- Mid-March to Mid October -->
     <defs>
      <path d="M 9.8125 72.90625 
L 24.515625 72.90625 
L 43.109375 23.296875 
L 61.8125 72.90625 
L 76.515625 72.90625 
L 76.515625 0 
L 66.890625 0 
L 66.890625 64.015625 
L 48.09375 14.015625 
L 38.1875 14.015625 
L 19.390625 64.015625 
L 19.390625 0 
L 9.8125 0 
z
" id="DejaVuSans-77"/>
      <path d="M 9.421875 54.6875 
L 18.40625 54.6875 
L 18.40625 0 
L 9.421875 0 
z
M 9.421875 75.984375 
L 18.40625 75.984375 
L 18.40625 64.59375 
L 9.421875 64.59375 
z
" id="DejaVuSans-105"/>
      <path d="M 45.40625 46.390625 
L 45.40625 75.984375 
L 54.390625 75.984375 
L 54.390625 0 
L 45.40625 0 
L 45.40625 8.203125 
Q 42.578125 3.328125 38.25 0.953125 
Q 33.9375 -1.421875 27.875 -1.421875 
Q 17.96875 -1.421875 11.734375 6.484375 
Q 5.515625 14.40625 5.515625 27.296875 
Q 5.515625 40.1875 11.734375 48.09375 
Q 17.96875 56 27.875 56 
Q 33.9375 56 38.25 53.625 
Q 42.578125 51.265625 45.40625 46.390625 
z
M 14.796875 27.296875 
Q 14.796875 17.390625 18.875 11.75 
Q 22.953125 6.109375 30.078125 6.109375 
Q 37.203125 6.109375 41.296875 11.75 
Q 45.40625 17.390625 45.40625 27.296875 
Q 45.40625 37.203125 41.296875 42.84375 
Q 37.203125 48.484375 30.078125 48.484375 
Q 22.953125 48.484375 18.875 42.84375 
Q 14.796875 37.203125 14.796875 27.296875 
z
" id="DejaVuSans-100"/>
      <path d="M 34.28125 27.484375 
Q 23.390625 27.484375 19.1875 25 
Q 14.984375 22.515625 14.984375 16.5 
Q 14.984375 11.71875 18.140625 8.90625 
Q 21.296875 6.109375 26.703125 6.109375 
Q 34.1875 6.109375 38.703125 11.40625 
Q 43.21875 16.703125 43.21875 25.484375 
L 43.21875 27.484375 
z
M 52.203125 31.203125 
L 52.203125 0 
L 43.21875 0 
L 43.21875 8.296875 
Q 40.140625 3.328125 35.546875 0.953125 
Q 30.953125 -1.421875 24.3125 -1.421875 
Q 15.921875 -1.421875 10.953125 3.296875 
Q 6 8.015625 6 15.921875 
Q 6 25.140625 12.171875 29.828125 
Q 18.359375 34.515625 30.609375 34.515625 
L 43.21875 34.515625 
L 43.21875 35.40625 
Q 43.21875 41.609375 39.140625 45 
Q 35.0625 48.390625 27.6875 48.390625 
Q 23 48.390625 18.546875 47.265625 
Q 14.109375 46.140625 10.015625 43.890625 
L 10.015625 52.203125 
Q 14.9375 54.109375 19.578125 55.046875 
Q 24.21875 56 28.609375 56 
Q 40.484375 56 46.34375 49.84375 
Q 52.203125 43.703125 52.203125 31.203125 
z
" id="DejaVuSans-97"/>
      <path d="M 41.109375 46.296875 
Q 39.59375 47.171875 37.8125 47.578125 
Q 36.03125 48 33.890625 48 
Q 26.265625 48 22.1875 43.046875 
Q 18.109375 38.09375 18.109375 28.8125 
L 18.109375 0 
L 9.078125 0 
L 9.078125 54.6875 
L 18.109375 54.6875 
L 18.109375 46.1875 
Q 20.953125 51.171875 25.484375 53.578125 
Q 30.03125 56 36.53125 56 
Q 37.453125 56 38.578125 55.875 
Q 39.703125 55.765625 41.0625 55.515625 
z
" id="DejaVuSans-114"/>
      <path d="M 48.78125 52.59375 
L 48.78125 44.1875 
Q 44.96875 46.296875 41.140625 47.34375 
Q 37.3125 48.390625 33.40625 48.390625 
Q 24.65625 48.390625 19.8125 42.84375 
Q 14.984375 37.3125 14.984375 27.296875 
Q 14.984375 17.28125 19.8125 11.734375 
Q 24.65625 6.203125 33.40625 6.203125 
Q 37.3125 6.203125 41.140625 7.25 
Q 44.96875 8.296875 48.78125 10.40625 
L 48.78125 2.09375 
Q 45.015625 0.34375 40.984375 -0.53125 
Q 36.96875 -1.421875 32.421875 -1.421875 
Q 20.0625 -1.421875 12.78125 6.34375 
Q 5.515625 14.109375 5.515625 27.296875 
Q 5.515625 40.671875 12.859375 48.328125 
Q 20.21875 56 33.015625 56 
Q 37.15625 56 41.109375 55.140625 
Q 45.0625 54.296875 48.78125 52.59375 
z
" id="DejaVuSans-99"/>
      <path d="M 54.890625 33.015625 
L 54.890625 0 
L 45.90625 0 
L 45.90625 32.71875 
Q 45.90625 40.484375 42.875 44.328125 
Q 39.84375 48.1875 33.796875 48.1875 
Q 26.515625 48.1875 22.3125 43.546875 
Q 18.109375 38.921875 18.109375 30.90625 
L 18.109375 0 
L 9.078125 0 
L 9.078125 75.984375 
L 18.109375 75.984375 
L 18.109375 46.1875 
Q 21.34375 51.125 25.703125 53.5625 
Q 30.078125 56 35.796875 56 
Q 45.21875 56 50.046875 50.171875 
Q 54.890625 44.34375 54.890625 33.015625 
z
" id="DejaVuSans-104"/>
      <path id="DejaVuSans-32"/>
      <path d="M 18.3125 70.21875 
L 18.3125 54.6875 
L 36.8125 54.6875 
L 36.8125 47.703125 
L 18.3125 47.703125 
L 18.3125 18.015625 
Q 18.3125 11.328125 20.140625 9.421875 
Q 21.96875 7.515625 27.59375 7.515625 
L 36.8125 7.515625 
L 36.8125 0 
L 27.59375 0 
Q 17.1875 0 13.234375 3.875 
Q 9.28125 7.765625 9.28125 18.015625 
L 9.28125 47.703125 
L 2.6875 47.703125 
L 2.6875 54.6875 
L 9.28125 54.6875 
L 9.28125 70.21875 
z
" id="DejaVuSans-116"/>
      <path d="M 30.609375 48.390625 
Q 23.390625 48.390625 19.1875 42.75 
Q 14.984375 37.109375 14.984375 27.296875 
Q 14.984375 17.484375 19.15625 11.84375 
Q 23.34375 6.203125 30.609375 6.203125 
Q 37.796875 6.203125 41.984375 11.859375 
Q 46.1875 17.53125 46.1875 27.296875 
Q 46.1875 37.015625 41.984375 42.703125 
Q 37.796875 48.390625 30.609375 48.390625 
z
M 30.609375 56 
Q 42.328125 56 49.015625 48.375 
Q 55.71875 40.765625 55.71875 27.296875 
Q 55.71875 13.875 49.015625 6.21875 
Q 42.328125 -1.421875 30.609375 -1.421875 
Q 18.84375 -1.421875 12.171875 6.21875 
Q 5.515625 13.875 5.515625 27.296875 
Q 5.515625 40.765625 12.171875 48.375 
Q 18.84375 56 30.609375 56 
z
" id="DejaVuSans-111"/>
      <path d="M 39.40625 66.21875 
Q 28.65625 66.21875 22.328125 58.203125 
Q 16.015625 50.203125 16.015625 36.375 
Q 16.015625 22.609375 22.328125 14.59375 
Q 28.65625 6.59375 39.40625 6.59375 
Q 50.140625 6.59375 56.421875 14.59375 
Q 62.703125 22.609375 62.703125 36.375 
Q 62.703125 50.203125 56.421875 58.203125 
Q 50.140625 66.21875 39.40625 66.21875 
z
M 39.40625 74.21875 
Q 54.734375 74.21875 63.90625 63.9375 
Q 73.09375 53.65625 73.09375 36.375 
Q 73.09375 19.140625 63.90625 8.859375 
Q 54.734375 -1.421875 39.40625 -1.421875 
Q 24.03125 -1.421875 14.8125 8.828125 
Q 5.609375 19.09375 5.609375 36.375 
Q 5.609375 53.65625 14.8125 63.9375 
Q 24.03125 74.21875 39.40625 74.21875 
z
" id="DejaVuSans-79"/>
      <path d="M 48.6875 27.296875 
Q 48.6875 37.203125 44.609375 42.84375 
Q 40.53125 48.484375 33.40625 48.484375 
Q 26.265625 48.484375 22.1875 42.84375 
Q 18.109375 37.203125 18.109375 27.296875 
Q 18.109375 17.390625 22.1875 11.75 
Q 26.265625 6.109375 33.40625 6.109375 
Q 40.53125 6.109375 44.609375 11.75 
Q 48.6875 17.390625 48.6875 27.296875 
z
M 18.109375 46.390625 
Q 20.953125 51.265625 25.265625 53.625 
Q 29.59375 56 35.59375 56 
Q 45.5625 56 51.78125 48.09375 
Q 58.015625 40.1875 58.015625 27.296875 
Q 58.015625 14.40625 51.78125 6.484375 
Q 45.5625 -1.421875 35.59375 -1.421875 
Q 29.59375 -1.421875 25.265625 0.953125 
Q 20.953125 3.328125 18.109375 8.203125 
L 18.109375 0 
L 9.078125 0 
L 9.078125 75.984375 
L 18.109375 75.984375 
z
" id="DejaVuSans-98"/>
      <path d="M 56.203125 29.59375 
L 56.203125 25.203125 
L 14.890625 25.203125 
Q 15.484375 15.921875 20.484375 11.0625 
Q 25.484375 6.203125 34.421875 6.203125 
Q 39.59375 6.203125 44.453125 7.46875 
Q 49.3125 8.734375 54.109375 11.28125 
L 54.109375 2.78125 
Q 49.265625 0.734375 44.1875 -0.34375 
Q 39.109375 -1.421875 33.890625 -1.421875 
Q 20.796875 -1.421875 13.15625 6.1875 
Q 5.515625 13.8125 5.515625 26.8125 
Q 5.515625 40.234375 12.765625 48.109375 
Q 20.015625 56 32.328125 56 
Q 43.359375 56 49.78125 48.890625 
Q 56.203125 41.796875 56.203125 29.59375 
z
M 47.21875 32.234375 
Q 47.125 39.59375 43.09375 43.984375 
Q 39.0625 48.390625 32.421875 48.390625 
Q 24.90625 48.390625 20.390625 44.140625 
Q 15.875 39.890625 15.1875 32.171875 
z
" id="DejaVuSans-101"/>
     </defs>
     <g style="fill:#262626;" transform="translate(660.3525 348.264063)scale(0.12 -0.12)">
      <use xlink:href="#DejaVuSans-77"/>
      <use x="86.279297" xlink:href="#DejaVuSans-105"/>
      <use x="114.0625" xlink:href="#DejaVuSans-100"/>
      <use x="177.539062" xlink:href="#DejaVuSans-45"/>
      <use x="213.623047" xlink:href="#DejaVuSans-77"/>
      <use x="299.902344" xlink:href="#DejaVuSans-97"/>
      <use x="361.181641" xlink:href="#DejaVuSans-114"/>
      <use x="402.263672" xlink:href="#DejaVuSans-99"/>
      <use x="457.244141" xlink:href="#DejaVuSans-104"/>
      <use x="520.623047" xlink:href="#DejaVuSans-32"/>
      <use x="552.410156" xlink:href="#DejaVuSans-116"/>
      <use x="591.619141" xlink:href="#DejaVuSans-111"/>
      <use x="652.800781" xlink:href="#DejaVuSans-32"/>
      <use x="684.587891" xlink:href="#DejaVuSans-77"/>
      <use x="770.867188" xlink:href="#DejaVuSans-105"/>
      <use x="798.650391" xlink:href="#DejaVuSans-100"/>
      <use x="862.126953" xlink:href="#DejaVuSans-32"/>
      <use x="893.914062" xlink:href="#DejaVuSans-79"/>
      <use x="972.625" xlink:href="#DejaVuSans-99"/>
      <use x="1027.605469" xlink:href="#DejaVuSans-116"/>
      <use x="1066.814453" xlink:href="#DejaVuSans-111"/>
      <use x="1127.996094" xlink:href="#DejaVuSans-98"/>
      <use x="1191.472656" xlink:href="#DejaVuSans-101"/>
      <use x="1252.996094" xlink:href="#DejaVuSans-114"/>
     </g>
    </g>
   </g>
   <g id="matplotlib.axis_2">
    <g id="ytick_1">
     <g id="line2d_8">
      <path clip-path="url(#p59c2f2fe23)" d="M 180 302.645455 
L 1296 302.645455 
" style="fill:none;stroke:#ffffff;stroke-linecap:round;"/>
     </g>
     <g id="text_9">
      <!-- 0 -->
      <g style="fill:#262626;" transform="translate(163.50125 306.824595)scale(0.11 -0.11)">
       <use xlink:href="#DejaVuSans-48"/>
      </g>
     </g>
    </g>
    <g id="ytick_2">
     <g id="line2d_9">
      <path clip-path="url(#p59c2f2fe23)" d="M 180 251.221748 
L 1296 251.221748 
" style="fill:none;stroke:#ffffff;stroke-linecap:round;"/>
     </g>
     <g id="text_10">
      <!-- 200 -->
      <g style="fill:#262626;" transform="translate(149.50375 255.400889)scale(0.11 -0.11)">
       <use xlink:href="#DejaVuSans-50"/>
       <use x="63.623047" xlink:href="#DejaVuSans-48"/>
       <use x="127.246094" xlink:href="#DejaVuSans-48"/>
      </g>
     </g>
    </g>
    <g id="ytick_3">
     <g id="line2d_10">
      <path clip-path="url(#p59c2f2fe23)" d="M 180 199.798042 
L 1296 199.798042 
" style="fill:none;stroke:#ffffff;stroke-linecap:round;"/>
     </g>
     <g id="text_11">
      <!-- 400 -->
      <g style="fill:#262626;" transform="translate(149.50375 203.977182)scale(0.11 -0.11)">
       <use xlink:href="#DejaVuSans-52"/>
       <use x="63.623047" xlink:href="#DejaVuSans-48"/>
       <use x="127.246094" xlink:href="#DejaVuSans-48"/>
      </g>
     </g>
    </g>
    <g id="ytick_4">
     <g id="line2d_11">
      <path clip-path="url(#p59c2f2fe23)" d="M 180 148.374335 
L 1296 148.374335 
" style="fill:none;stroke:#ffffff;stroke-linecap:round;"/>
     </g>
     <g id="text_12">
      <!-- 600 -->
      <g style="fill:#262626;" transform="translate(149.50375 152.553476)scale(0.11 -0.11)">
       <use xlink:href="#DejaVuSans-54"/>
       <use x="63.623047" xlink:href="#DejaVuSans-48"/>
       <use x="127.246094" xlink:href="#DejaVuSans-48"/>
      </g>
     </g>
    </g>
    <g id="ytick_5">
     <g id="line2d_12">
      <path clip-path="url(#p59c2f2fe23)" d="M 180 96.950629 
L 1296 96.950629 
" style="fill:none;stroke:#ffffff;stroke-linecap:round;"/>
     </g>
     <g id="text_13">
      <!-- 800 -->
      <g style="fill:#262626;" transform="translate(149.50375 101.12977)scale(0.11 -0.11)">
       <use xlink:href="#DejaVuSans-56"/>
       <use x="63.623047" xlink:href="#DejaVuSans-48"/>
       <use x="127.246094" xlink:href="#DejaVuSans-48"/>
      </g>
     </g>
    </g>
    <g id="ytick_6">
     <g id="line2d_13">
      <path clip-path="url(#p59c2f2fe23)" d="M 180 45.526923 
L 1296 45.526923 
" style="fill:none;stroke:#ffffff;stroke-linecap:round;"/>
     </g>
     <g id="text_14">
      <!-- 1000 -->
      <g style="fill:#262626;" transform="translate(142.505 49.706063)scale(0.11 -0.11)">
       <use xlink:href="#DejaVuSans-49"/>
       <use x="63.623047" xlink:href="#DejaVuSans-48"/>
       <use x="127.246094" xlink:href="#DejaVuSans-48"/>
       <use x="190.869141" xlink:href="#DejaVuSans-48"/>
      </g>
     </g>
    </g>
   </g>
   <g id="line2d_14">
    <path clip-path="url(#p59c2f2fe23)" d="M 230.727273 276.933601 
L 235.446089 276.933601 
L 240.164905 278.476313 
L 244.883721 277.962075 
L 249.602537 277.962075 
L 254.321353 283.875802 
L 259.040169 287.73258 
L 263.758985 276.933601 
L 268.477801 277.19072 
L 273.196617 279.247668 
L 277.915433 279.247668 
L 282.634249 279.761905 
L 287.353066 284.13292 
L 292.071882 276.933601 
L 296.790698 276.933601 
L 301.509514 279.247668 
L 306.22833 278.476313 
L 310.947146 279.761905 
L 315.665962 281.304616 
L 320.384778 289.532409 
L 325.103594 285.93275 
L 329.82241 276.933601 
L 334.541226 277.704957 
L 339.260042 279.247668 
L 343.978858 278.476313 
L 348.697674 296.47461 
L 353.41649 293.132069 
L 358.135307 284.904276 
L 362.854123 280.019024 
L 367.572939 277.447838 
L 372.291755 278.219194 
L 377.010571 279.504787 
L 381.729387 280.019024 
L 386.448203 286.189869 
L 391.167019 281.047498 
L 395.885835 276.933601 
L 400.604651 276.933601 
L 405.323467 279.504787 
L 410.042283 278.219194 
L 414.761099 279.761905 
L 419.479915 282.075972 
L 424.198732 284.13292 
L 428.917548 276.933601 
L 433.636364 277.19072 
L 438.35518 278.219194 
L 443.073996 279.761905 
L 447.792812 280.019024 
L 452.511628 282.590209 
L 457.230444 276.933601 
L 461.94926 276.933601 
L 466.668076 278.99055 
L 471.386892 278.99055 
L 476.105708 280.533261 
L 480.824524 282.333091 
L 485.54334 284.390039 
L 490.262156 278.99055 
L 494.980973 276.933601 
L 499.699789 277.19072 
L 504.418605 280.790379 
L 509.137421 279.504787 
L 513.856237 281.304616 
L 518.575053 285.93275 
L 523.293869 286.189869 
L 528.012685 297.245965 
L 532.731501 279.247668 
L 537.450317 280.790379 
L 542.169133 280.790379 
L 546.887949 282.075972 
L 551.606765 286.446987 
L 556.325581 282.847328 
L 561.044397 276.933601 
L 565.763214 276.933601 
L 570.48203 278.99055 
L 575.200846 277.447838 
L 579.919662 281.304616 
L 584.638478 286.704106 
L 589.357294 278.219194 
L 594.07611 277.962075 
L 598.794926 278.99055 
L 603.513742 280.276142 
L 608.232558 280.533261 
L 612.951374 280.533261 
L 617.67019 285.93275 
L 622.389006 277.19072 
L 627.107822 276.933601 
L 631.826638 278.733431 
L 636.545455 280.790379 
L 641.264271 280.276142 
L 645.983087 280.533261 
L 650.701903 286.189869 
L 655.420719 276.933601 
L 660.139535 276.933601 
L 664.858351 277.962075 
L 669.577167 280.276142 
L 674.295983 279.504787 
L 679.014799 280.019024 
L 683.733615 283.618683 
L 693.171247 276.933601 
L 697.890063 279.247668 
L 702.608879 279.761905 
L 707.327696 279.504787 
L 712.046512 279.504787 
L 716.765328 282.075972 
L 721.484144 281.818853 
L 726.20296 276.933601 
L 730.921776 279.761905 
L 735.640592 295.703254 
L 740.359408 282.847328 
L 745.078224 281.304616 
L 749.79704 279.504787 
L 754.515856 276.933601 
L 759.234672 276.933601 
L 763.953488 277.704957 
L 768.672304 279.761905 
L 773.391121 280.533261 
L 778.109937 279.504787 
L 782.828753 283.104446 
L 787.547569 276.933601 
L 792.266385 276.933601 
L 796.985201 277.962075 
L 801.704017 280.533261 
L 806.422833 280.276142 
L 811.141649 279.761905 
L 815.860465 282.847328 
L 820.579281 285.418513 
L 825.298097 276.933601 
L 830.016913 278.99055 
L 834.735729 279.761905 
L 839.454545 280.019024 
L 844.173362 280.533261 
L 848.892178 285.161394 
L 853.610994 277.962075 
L 858.32981 276.933601 
L 863.048626 276.933601 
L 867.767442 280.533261 
L 872.486258 278.733431 
L 877.205074 279.504787 
L 881.92389 282.333091 
L 886.642706 276.933601 
L 891.361522 295.189017 
L 896.080338 278.99055 
L 900.799154 279.761905 
L 910.236786 279.761905 
L 914.955603 284.647157 
L 919.674419 276.933601 
L 929.112051 276.933601 
L 933.830867 279.504787 
L 938.549683 279.504787 
L 943.268499 279.247668 
L 947.987315 281.818853 
L 952.706131 279.247668 
L 962.143763 276.933601 
L 966.862579 277.447838 
L 971.581395 279.504787 
L 976.300211 278.99055 
L 981.019027 279.761905 
L 985.737844 276.933601 
L 999.894292 276.933601 
L 1004.613108 277.962075 
L 1009.331924 276.933601 
L 1014.05074 280.276142 
L 1018.769556 276.933601 
L 1023.488372 276.933601 
L 1028.207188 277.704957 
L 1032.926004 278.99055 
L 1037.64482 277.704957 
L 1042.363636 277.962075 
L 1047.082452 285.418513 
L 1051.801268 283.104446 
L 1056.520085 297.245965 
L 1061.238901 278.733431 
L 1065.957717 278.733431 
L 1070.676533 276.933601 
L 1075.395349 276.933601 
L 1080.114165 279.504787 
L 1084.832981 276.933601 
L 1094.270613 276.933601 
L 1098.989429 277.19072 
L 1103.708245 277.19072 
L 1108.427061 276.933601 
L 1113.145877 278.476313 
L 1117.864693 276.933601 
L 1127.302326 276.933601 
L 1132.021142 277.704957 
L 1136.739958 278.219194 
L 1141.458774 278.219194 
L 1146.17759 282.590209 
L 1150.896406 278.219194 
L 1155.615222 276.933601 
L 1160.334038 276.933601 
L 1165.052854 277.962075 
L 1174.490486 277.962075 
L 1183.928118 282.075972 
L 1188.646934 276.933601 
L 1193.365751 276.933601 
L 1202.803383 277.447838 
L 1207.522199 279.761905 
L 1212.241015 279.247668 
L 1216.959831 278.99055 
L 1221.678647 297.760202 
L 1226.397463 277.19072 
L 1231.116279 278.476313 
L 1235.835095 278.219194 
L 1240.553911 278.733431 
L 1240.553911 278.733431 
" style="fill:none;stroke:#4c72b0;stroke-linecap:round;stroke-width:1.5;"/>
   </g>
   <g id="line2d_15">
    <path clip-path="url(#p59c2f2fe23)" d="M 259.040169 302.645455 
L 358.135307 302.645455 
L 362.854123 260.220897 
L 367.572939 267.163097 
L 372.291755 302.645455 
L 377.010571 270.24852 
L 381.729387 199.540923 
L 386.448203 260.220897 
L 391.167019 240.679888 
L 395.885835 275.648009 
L 400.604651 254.564289 
L 405.323467 223.967184 
L 410.042283 220.624643 
L 414.761099 226.281251 
L 419.479915 247.107852 
L 424.198732 239.137177 
L 428.917548 247.107852 
L 433.636364 263.049201 
L 438.35518 221.653117 
L 443.073996 253.792933 
L 447.792812 246.593615 
L 452.511628 277.704957 
L 457.230444 277.962075 
L 461.94926 284.647157 
L 466.668076 287.989698 
L 471.386892 284.647157 
L 476.105708 288.761054 
L 480.824524 281.818853 
L 485.54334 287.475461 
L 490.262156 277.962075 
L 494.980973 290.560884 
L 499.699789 291.075121 
L 504.418605 286.704106 
L 509.137421 289.789528 
L 513.856237 287.73258 
L 518.575053 284.13292 
L 523.293869 287.989698 
L 528.012685 292.617832 
L 532.731501 294.160543 
L 537.450317 297.760202 
L 542.169133 294.160543 
L 546.887949 294.417662 
L 551.606765 298.017321 
L 556.325581 291.846476 
L 561.044397 297.760202 
L 570.48203 296.217491 
L 575.200846 295.189017 
L 579.919662 296.47461 
L 584.638478 299.302914 
L 589.357294 298.017321 
L 594.07611 293.903424 
L 598.794926 299.302914 
L 603.513742 297.760202 
L 608.232558 298.788677 
L 612.951374 300.845625 
L 617.67019 292.360713 
L 622.389006 302.645455 
L 627.107822 286.189869 
L 631.826638 295.703254 
L 636.545455 290.560884 
L 641.264271 292.360713 
L 645.983087 294.931899 
L 650.701903 293.132069 
L 655.420719 289.789528 
L 660.139535 297.503084 
L 664.858351 295.189017 
L 669.577167 290.303765 
L 674.295983 290.046646 
L 679.014799 290.818002 
L 683.733615 290.303765 
L 688.452431 294.67478 
L 693.171247 294.417662 
L 697.890063 291.075121 
L 702.608879 291.332239 
L 707.327696 295.960373 
L 712.046512 293.132069 
L 716.765328 284.904276 
L 721.484144 292.617832 
L 726.20296 284.390039 
L 730.921776 292.103595 
L 735.640592 302.645455 
L 740.359408 278.476313 
L 745.078224 287.989698 
L 749.79704 302.645455 
L 754.515856 302.645455 
L 759.234672 269.220045 
L 763.953488 290.560884 
L 768.672304 290.818002 
L 773.391121 293.132069 
L 778.109937 282.847328 
L 782.828753 302.645455 
L 787.547569 302.645455 
L 792.266385 243.508192 
L 796.985201 280.533261 
L 801.704017 281.561735 
L 806.422833 271.791231 
L 811.141649 275.648009 
L 815.860465 302.645455 
L 820.579281 302.645455 
L 825.298097 208.025835 
L 830.016913 266.391742 
L 834.735729 302.645455 
L 839.454545 239.137177 
L 844.173362 274.105298 
L 848.892178 302.645455 
L 853.610994 302.645455 
L 858.32981 224.481421 
L 863.048626 282.075972 
L 867.767442 268.44869 
L 872.486258 273.59106 
L 877.205074 269.991401 
L 881.92389 302.645455 
L 891.361522 302.645455 
L 896.080338 224.738539 
L 900.799154 278.476313 
L 905.51797 288.246817 
L 910.236786 268.191571 
L 914.955603 302.645455 
L 919.674419 302.645455 
L 924.393235 236.565992 
L 929.112051 280.790379 
L 933.830867 271.534112 
L 938.549683 283.104446 
L 943.268499 281.047498 
L 947.987315 302.645455 
L 957.424947 302.645455 
L 962.143763 208.540072 
L 966.862579 281.561735 
L 971.581395 302.645455 
L 976.300211 239.137177 
L 981.019027 302.645455 
L 985.737844 302.645455 
L 990.45666 236.308873 
L 995.175476 282.847328 
L 999.894292 269.991401 
L 1004.613108 274.876653 
L 1009.331924 262.020727 
L 1014.05074 302.645455 
L 1018.769556 302.645455 
L 1023.488372 193.11296 
L 1028.207188 260.478015 
L 1032.926004 273.333942 
L 1037.64482 269.220045 
L 1042.363636 260.478015 
L 1047.082452 302.645455 
L 1056.520085 302.645455 
L 1061.238901 143.489083 
L 1065.957717 302.645455 
L 1070.676533 248.393444 
L 1075.395349 274.105298 
L 1080.114165 302.645455 
L 1084.832981 302.645455 
L 1089.551797 195.169908 
L 1094.270613 270.762757 
L 1098.989429 258.678186 
L 1103.708245 265.106149 
L 1108.427061 275.133772 
L 1113.145877 302.645455 
L 1117.864693 302.645455 
L 1122.58351 210.59702 
L 1127.302326 264.077675 
L 1132.021142 265.877504 
L 1136.739958 262.020727 
L 1141.458774 263.306319 
L 1146.17759 302.645455 
L 1150.896406 302.645455 
L 1155.615222 198.255331 
L 1160.334038 261.506489 
L 1165.052854 263.306319 
L 1169.77167 258.163949 
L 1174.490486 271.276994 
L 1179.209302 302.645455 
L 1183.928118 302.645455 
L 1188.646934 154.030943 
L 1193.365751 231.68074 
L 1198.084567 265.877504 
L 1202.803383 209.054309 
L 1207.522199 231.423621 
L 1212.241015 302.645455 
L 1221.678647 302.645455 
L 1226.397463 55.554545 
L 1231.116279 240.165651 
L 1235.835095 239.908533 
L 1240.553911 217.282102 
L 1245.272727 302.645455 
L 1245.272727 302.645455 
" style="fill:none;stroke:#c44e52;stroke-linecap:round;stroke-opacity:0.4;stroke-width:1.5;"/>
   </g>
   <g id="patch_3">
    <path d="M 180 315 
L 180 43.2 
" style="fill:none;stroke:#ffffff;stroke-linecap:square;stroke-linejoin:miter;stroke-width:1.25;"/>
   </g>
   <g id="patch_4">
    <path d="M 1296 315 
L 1296 43.2 
" style="fill:none;stroke:#ffffff;stroke-linecap:square;stroke-linejoin:miter;stroke-width:1.25;"/>
   </g>
   <g id="patch_5">
    <path d="M 180 315 
L 1296 315 
" style="fill:none;stroke:#ffffff;stroke-linecap:square;stroke-linejoin:miter;stroke-width:1.25;"/>
   </g>
   <g id="patch_6">
    <path d="M 180 43.2 
L 1296 43.2 
" style="fill:none;stroke:#ffffff;stroke-linecap:square;stroke-linejoin:miter;stroke-width:1.25;"/>
   </g>
   <g id="legend_1">
    <g id="patch_7">
     <path d="M 187.7 84.291875 
L 335.541719 84.291875 
Q 337.741719 84.291875 337.741719 82.091875 
L 337.741719 50.9 
Q 337.741719 48.7 335.541719 48.7 
L 187.7 48.7 
Q 185.5 48.7 185.5 50.9 
L 185.5 82.091875 
Q 185.5 84.291875 187.7 84.291875 
z
" style="fill:#eaeaf2;opacity:0.8;stroke:#cccccc;stroke-linejoin:miter;"/>
    </g>
    <g id="line2d_16">
     <path d="M 189.9 57.608281 
L 211.9 57.608281 
" style="fill:none;stroke:#4c72b0;stroke-linecap:round;stroke-width:1.5;"/>
    </g>
    <g id="line2d_17"/>
    <g id="text_15">
     <!-- Percentage Baseline -->
     <defs>
      <path d="M 19.671875 64.796875 
L 19.671875 37.40625 
L 32.078125 37.40625 
Q 38.96875 37.40625 42.71875 40.96875 
Q 46.484375 44.53125 46.484375 51.125 
Q 46.484375 57.671875 42.71875 61.234375 
Q 38.96875 64.796875 32.078125 64.796875 
z
M 9.8125 72.90625 
L 32.078125 72.90625 
Q 44.34375 72.90625 50.609375 67.359375 
Q 56.890625 61.8125 56.890625 51.125 
Q 56.890625 40.328125 50.609375 34.8125 
Q 44.34375 29.296875 32.078125 29.296875 
L 19.671875 29.296875 
L 19.671875 0 
L 9.8125 0 
z
" id="DejaVuSans-80"/>
      <path d="M 54.890625 33.015625 
L 54.890625 0 
L 45.90625 0 
L 45.90625 32.71875 
Q 45.90625 40.484375 42.875 44.328125 
Q 39.84375 48.1875 33.796875 48.1875 
Q 26.515625 48.1875 22.3125 43.546875 
Q 18.109375 38.921875 18.109375 30.90625 
L 18.109375 0 
L 9.078125 0 
L 9.078125 54.6875 
L 18.109375 54.6875 
L 18.109375 46.1875 
Q 21.34375 51.125 25.703125 53.5625 
Q 30.078125 56 35.796875 56 
Q 45.21875 56 50.046875 50.171875 
Q 54.890625 44.34375 54.890625 33.015625 
z
" id="DejaVuSans-110"/>
      <path d="M 45.40625 27.984375 
Q 45.40625 37.75 41.375 43.109375 
Q 37.359375 48.484375 30.078125 48.484375 
Q 22.859375 48.484375 18.828125 43.109375 
Q 14.796875 37.75 14.796875 27.984375 
Q 14.796875 18.265625 18.828125 12.890625 
Q 22.859375 7.515625 30.078125 7.515625 
Q 37.359375 7.515625 41.375 12.890625 
Q 45.40625 18.265625 45.40625 27.984375 
z
M 54.390625 6.78125 
Q 54.390625 -7.171875 48.1875 -13.984375 
Q 42 -20.796875 29.203125 -20.796875 
Q 24.46875 -20.796875 20.265625 -20.09375 
Q 16.0625 -19.390625 12.109375 -17.921875 
L 12.109375 -9.1875 
Q 16.0625 -11.328125 19.921875 -12.34375 
Q 23.78125 -13.375 27.78125 -13.375 
Q 36.625 -13.375 41.015625 -8.765625 
Q 45.40625 -4.15625 45.40625 5.171875 
L 45.40625 9.625 
Q 42.625 4.78125 38.28125 2.390625 
Q 33.9375 0 27.875 0 
Q 17.828125 0 11.671875 7.65625 
Q 5.515625 15.328125 5.515625 27.984375 
Q 5.515625 40.671875 11.671875 48.328125 
Q 17.828125 56 27.875 56 
Q 33.9375 56 38.28125 53.609375 
Q 42.625 51.21875 45.40625 46.390625 
L 45.40625 54.6875 
L 54.390625 54.6875 
z
" id="DejaVuSans-103"/>
      <path d="M 19.671875 34.8125 
L 19.671875 8.109375 
L 35.5 8.109375 
Q 43.453125 8.109375 47.28125 11.40625 
Q 51.125 14.703125 51.125 21.484375 
Q 51.125 28.328125 47.28125 31.5625 
Q 43.453125 34.8125 35.5 34.8125 
z
M 19.671875 64.796875 
L 19.671875 42.828125 
L 34.28125 42.828125 
Q 41.5 42.828125 45.03125 45.53125 
Q 48.578125 48.25 48.578125 53.8125 
Q 48.578125 59.328125 45.03125 62.0625 
Q 41.5 64.796875 34.28125 64.796875 
z
M 9.8125 72.90625 
L 35.015625 72.90625 
Q 46.296875 72.90625 52.390625 68.21875 
Q 58.5 63.53125 58.5 54.890625 
Q 58.5 48.1875 55.375 44.234375 
Q 52.25 40.28125 46.1875 39.3125 
Q 53.46875 37.75 57.5 32.78125 
Q 61.53125 27.828125 61.53125 20.40625 
Q 61.53125 10.640625 54.890625 5.3125 
Q 48.25 0 35.984375 0 
L 9.8125 0 
z
" id="DejaVuSans-66"/>
      <path d="M 44.28125 53.078125 
L 44.28125 44.578125 
Q 40.484375 46.53125 36.375 47.5 
Q 32.28125 48.484375 27.875 48.484375 
Q 21.1875 48.484375 17.84375 46.4375 
Q 14.5 44.390625 14.5 40.28125 
Q 14.5 37.15625 16.890625 35.375 
Q 19.28125 33.59375 26.515625 31.984375 
L 29.59375 31.296875 
Q 39.15625 29.25 43.1875 25.515625 
Q 47.21875 21.78125 47.21875 15.09375 
Q 47.21875 7.46875 41.1875 3.015625 
Q 35.15625 -1.421875 24.609375 -1.421875 
Q 20.21875 -1.421875 15.453125 -0.5625 
Q 10.6875 0.296875 5.421875 2 
L 5.421875 11.28125 
Q 10.40625 8.6875 15.234375 7.390625 
Q 20.0625 6.109375 24.8125 6.109375 
Q 31.15625 6.109375 34.5625 8.28125 
Q 37.984375 10.453125 37.984375 14.40625 
Q 37.984375 18.0625 35.515625 20.015625 
Q 33.0625 21.96875 24.703125 23.78125 
L 21.578125 24.515625 
Q 13.234375 26.265625 9.515625 29.90625 
Q 5.8125 33.546875 5.8125 39.890625 
Q 5.8125 47.609375 11.28125 51.796875 
Q 16.75 56 26.8125 56 
Q 31.78125 56 36.171875 55.265625 
Q 40.578125 54.546875 44.28125 53.078125 
z
" id="DejaVuSans-115"/>
      <path d="M 9.421875 75.984375 
L 18.40625 75.984375 
L 18.40625 0 
L 9.421875 0 
z
" id="DejaVuSans-108"/>
     </defs>
     <g style="fill:#262626;" transform="translate(220.7 61.458281)scale(0.11 -0.11)">
      <use xlink:href="#DejaVuSans-80"/>
      <use x="60.255859" xlink:href="#DejaVuSans-101"/>
      <use x="121.779297" xlink:href="#DejaVuSans-114"/>
      <use x="162.861328" xlink:href="#DejaVuSans-99"/>
      <use x="217.841797" xlink:href="#DejaVuSans-101"/>
      <use x="279.365234" xlink:href="#DejaVuSans-110"/>
      <use x="342.744141" xlink:href="#DejaVuSans-116"/>
      <use x="381.953125" xlink:href="#DejaVuSans-97"/>
      <use x="443.232422" xlink:href="#DejaVuSans-103"/>
      <use x="506.708984" xlink:href="#DejaVuSans-101"/>
      <use x="568.232422" xlink:href="#DejaVuSans-32"/>
      <use x="600.019531" xlink:href="#DejaVuSans-66"/>
      <use x="668.623047" xlink:href="#DejaVuSans-97"/>
      <use x="729.902344" xlink:href="#DejaVuSans-115"/>
      <use x="782.001953" xlink:href="#DejaVuSans-101"/>
      <use x="843.525391" xlink:href="#DejaVuSans-108"/>
      <use x="871.308594" xlink:href="#DejaVuSans-105"/>
      <use x="899.091797" xlink:href="#DejaVuSans-110"/>
      <use x="962.470703" xlink:href="#DejaVuSans-101"/>
     </g>
    </g>
    <g id="line2d_18">
     <path d="M 189.9 73.754219 
L 211.9 73.754219 
" style="fill:none;stroke:#c44e52;stroke-linecap:round;stroke-opacity:0.4;stroke-width:1.5;"/>
    </g>
    <g id="line2d_19"/>
    <g id="text_16">
     <!-- Difference in Cases -->
     <defs>
      <path d="M 19.671875 64.796875 
L 19.671875 8.109375 
L 31.59375 8.109375 
Q 46.6875 8.109375 53.6875 14.9375 
Q 60.6875 21.78125 60.6875 36.53125 
Q 60.6875 51.171875 53.6875 57.984375 
Q 46.6875 64.796875 31.59375 64.796875 
z
M 9.8125 72.90625 
L 30.078125 72.90625 
Q 51.265625 72.90625 61.171875 64.09375 
Q 71.09375 55.28125 71.09375 36.53125 
Q 71.09375 17.671875 61.125 8.828125 
Q 51.171875 0 30.078125 0 
L 9.8125 0 
z
" id="DejaVuSans-68"/>
      <path d="M 37.109375 75.984375 
L 37.109375 68.5 
L 28.515625 68.5 
Q 23.6875 68.5 21.796875 66.546875 
Q 19.921875 64.59375 19.921875 59.515625 
L 19.921875 54.6875 
L 34.71875 54.6875 
L 34.71875 47.703125 
L 19.921875 47.703125 
L 19.921875 0 
L 10.890625 0 
L 10.890625 47.703125 
L 2.296875 47.703125 
L 2.296875 54.6875 
L 10.890625 54.6875 
L 10.890625 58.5 
Q 10.890625 67.625 15.140625 71.796875 
Q 19.390625 75.984375 28.609375 75.984375 
z
" id="DejaVuSans-102"/>
      <path d="M 64.40625 67.28125 
L 64.40625 56.890625 
Q 59.421875 61.53125 53.78125 63.8125 
Q 48.140625 66.109375 41.796875 66.109375 
Q 29.296875 66.109375 22.65625 58.46875 
Q 16.015625 50.828125 16.015625 36.375 
Q 16.015625 21.96875 22.65625 14.328125 
Q 29.296875 6.6875 41.796875 6.6875 
Q 48.140625 6.6875 53.78125 8.984375 
Q 59.421875 11.28125 64.40625 15.921875 
L 64.40625 5.609375 
Q 59.234375 2.09375 53.4375 0.328125 
Q 47.65625 -1.421875 41.21875 -1.421875 
Q 24.65625 -1.421875 15.125 8.703125 
Q 5.609375 18.84375 5.609375 36.375 
Q 5.609375 53.953125 15.125 64.078125 
Q 24.65625 74.21875 41.21875 74.21875 
Q 47.75 74.21875 53.53125 72.484375 
Q 59.328125 70.75 64.40625 67.28125 
z
" id="DejaVuSans-67"/>
     </defs>
     <g style="fill:#262626;" transform="translate(220.7 77.604219)scale(0.11 -0.11)">
      <use xlink:href="#DejaVuSans-68"/>
      <use x="77.001953" xlink:href="#DejaVuSans-105"/>
      <use x="104.785156" xlink:href="#DejaVuSans-102"/>
      <use x="139.990234" xlink:href="#DejaVuSans-102"/>
      <use x="175.195312" xlink:href="#DejaVuSans-101"/>
      <use x="236.71875" xlink:href="#DejaVuSans-114"/>
      <use x="277.800781" xlink:href="#DejaVuSans-101"/>
      <use x="339.324219" xlink:href="#DejaVuSans-110"/>
      <use x="402.703125" xlink:href="#DejaVuSans-99"/>
      <use x="457.683594" xlink:href="#DejaVuSans-101"/>
      <use x="519.207031" xlink:href="#DejaVuSans-32"/>
      <use x="550.994141" xlink:href="#DejaVuSans-105"/>
      <use x="578.777344" xlink:href="#DejaVuSans-110"/>
      <use x="642.15625" xlink:href="#DejaVuSans-32"/>
      <use x="673.943359" xlink:href="#DejaVuSans-67"/>
      <use x="743.767578" xlink:href="#DejaVuSans-97"/>
      <use x="805.046875" xlink:href="#DejaVuSans-115"/>
      <use x="857.146484" xlink:href="#DejaVuSans-101"/>
      <use x="918.669922" xlink:href="#DejaVuSans-115"/>
     </g>
    </g>
   </g>
  </g>
 </g>
 <defs>
  <clipPath id="p59c2f2fe23">
   <rect height="271.8" width="1116" x="180" y="43.2"/>
  </clipPath>
 </defs>
</svg>
