<?xml version="1.0" encoding="utf-8" standalone="no"?>
<!DOCTYPE svg PUBLIC "-//W3C//DTD SVG 1.1//EN"
  "http://www.w3.org/Graphics/SVG/1.1/DTD/svg11.dtd">
<!-- Created with matplotlib (https://matplotlib.org/) -->
<svg height="288pt" version="1.1" viewBox="0 0 432 288" width="432pt" xmlns="http://www.w3.org/2000/svg" xmlns:xlink="http://www.w3.org/1999/xlink">
 <defs>
  <style type="text/css">
*{stroke-linecap:butt;stroke-linejoin:round;}
  </style>
 </defs>
 <g id="figure_1">
  <g id="patch_1">
   <path d="M 0 288 
L 432 288 
L 432 0 
L 0 0 
z
" style="fill:#ffffff;"/>
  </g>
  <g id="axes_1">
   <g id="patch_2">
    <path d="M 54 252 
L 388.8 252 
L 388.8 34.56 
L 54 34.56 
z
" style="fill:#eaeaf2;"/>
   </g>
   <g id="matplotlib.axis_1">
    <g id="xtick_1">
     <g id="line2d_1">
      <path clip-path="url(#p0ee2b550c6)" d="M 69.218182 252 
L 69.218182 34.56 
" style="fill:none;stroke:#ffffff;stroke-linecap:round;"/>
     </g>
     <g id="text_1">
      <!-- 0 -->
      <defs>
       <path d="M 31.78125 66.40625 
Q 24.171875 66.40625 20.328125 58.90625 
Q 16.5 51.421875 16.5 36.375 
Q 16.5 21.390625 20.328125 13.890625 
Q 24.171875 6.390625 31.78125 6.390625 
Q 39.453125 6.390625 43.28125 13.890625 
Q 47.125 21.390625 47.125 36.375 
Q 47.125 51.421875 43.28125 58.90625 
Q 39.453125 66.40625 31.78125 66.40625 
z
M 31.78125 74.21875 
Q 44.046875 74.21875 50.515625 64.515625 
Q 56.984375 54.828125 56.984375 36.375 
Q 56.984375 17.96875 50.515625 8.265625 
Q 44.046875 -1.421875 31.78125 -1.421875 
Q 19.53125 -1.421875 13.0625 8.265625 
Q 6.59375 17.96875 6.59375 36.375 
Q 6.59375 54.828125 13.0625 64.515625 
Q 19.53125 74.21875 31.78125 74.21875 
z
" id="DejaVuSans-48"/>
      </defs>
      <g style="fill:#262626;" transform="translate(65.718807 269.858281)scale(0.11 -0.11)">
       <use xlink:href="#DejaVuSans-48"/>
      </g>
     </g>
    </g>
    <g id="xtick_2">
     <g id="line2d_2">
      <path clip-path="url(#p0ee2b550c6)" d="M 139.148751 252 
L 139.148751 34.56 
" style="fill:none;stroke:#ffffff;stroke-linecap:round;"/>
     </g>
     <g id="text_2">
      <!-- 5000 -->
      <defs>
       <path d="M 10.796875 72.90625 
L 49.515625 72.90625 
L 49.515625 64.59375 
L 19.828125 64.59375 
L 19.828125 46.734375 
Q 21.96875 47.46875 24.109375 47.828125 
Q 26.265625 48.1875 28.421875 48.1875 
Q 40.625 48.1875 47.75 41.5 
Q 54.890625 34.8125 54.890625 23.390625 
Q 54.890625 11.625 47.5625 5.09375 
Q 40.234375 -1.421875 26.90625 -1.421875 
Q 22.3125 -1.421875 17.546875 -0.640625 
Q 12.796875 0.140625 7.71875 1.703125 
L 7.71875 11.625 
Q 12.109375 9.234375 16.796875 8.0625 
Q 21.484375 6.890625 26.703125 6.890625 
Q 35.15625 6.890625 40.078125 11.328125 
Q 45.015625 15.765625 45.015625 23.390625 
Q 45.015625 31 40.078125 35.4375 
Q 35.15625 39.890625 26.703125 39.890625 
Q 22.75 39.890625 18.8125 39.015625 
Q 14.890625 38.140625 10.796875 36.28125 
z
" id="DejaVuSans-53"/>
      </defs>
      <g style="fill:#262626;" transform="translate(125.151251 269.858281)scale(0.11 -0.11)">
       <use xlink:href="#DejaVuSans-53"/>
       <use x="63.623047" xlink:href="#DejaVuSans-48"/>
       <use x="127.246094" xlink:href="#DejaVuSans-48"/>
       <use x="190.869141" xlink:href="#DejaVuSans-48"/>
      </g>
     </g>
    </g>
    <g id="xtick_3">
     <g id="line2d_3">
      <path clip-path="url(#p0ee2b550c6)" d="M 209.07932 252 
L 209.07932 34.56 
" style="fill:none;stroke:#ffffff;stroke-linecap:round;"/>
     </g>
     <g id="text_3">
      <!-- 10000 -->
      <defs>
       <path d="M 12.40625 8.296875 
L 28.515625 8.296875 
L 28.515625 63.921875 
L 10.984375 60.40625 
L 10.984375 69.390625 
L 28.421875 72.90625 
L 38.28125 72.90625 
L 38.28125 8.296875 
L 54.390625 8.296875 
L 54.390625 0 
L 12.40625 0 
z
" id="DejaVuSans-49"/>
      </defs>
      <g style="fill:#262626;" transform="translate(191.582445 269.858281)scale(0.11 -0.11)">
       <use xlink:href="#DejaVuSans-49"/>
       <use x="63.623047" xlink:href="#DejaVuSans-48"/>
       <use x="127.246094" xlink:href="#DejaVuSans-48"/>
       <use x="190.869141" xlink:href="#DejaVuSans-48"/>
       <use x="254.492188" xlink:href="#DejaVuSans-48"/>
      </g>
     </g>
    </g>
    <g id="xtick_4">
     <g id="line2d_4">
      <path clip-path="url(#p0ee2b550c6)" d="M 279.009889 252 
L 279.009889 34.56 
" style="fill:none;stroke:#ffffff;stroke-linecap:round;"/>
     </g>
     <g id="text_4">
      <!-- 15000 -->
      <g style="fill:#262626;" transform="translate(261.513014 269.858281)scale(0.11 -0.11)">
       <use xlink:href="#DejaVuSans-49"/>
       <use x="63.623047" xlink:href="#DejaVuSans-53"/>
       <use x="127.246094" xlink:href="#DejaVuSans-48"/>
       <use x="190.869141" xlink:href="#DejaVuSans-48"/>
       <use x="254.492188" xlink:href="#DejaVuSans-48"/>
      </g>
     </g>
    </g>
    <g id="xtick_5">
     <g id="line2d_5">
      <path clip-path="url(#p0ee2b550c6)" d="M 348.940458 252 
L 348.940458 34.56 
" style="fill:none;stroke:#ffffff;stroke-linecap:round;"/>
     </g>
     <g id="text_5">
      <!-- 20000 -->
      <defs>
       <path d="M 19.1875 8.296875 
L 53.609375 8.296875 
L 53.609375 0 
L 7.328125 0 
L 7.328125 8.296875 
Q 12.9375 14.109375 22.625 23.890625 
Q 32.328125 33.6875 34.8125 36.53125 
Q 39.546875 41.84375 41.421875 45.53125 
Q 43.3125 49.21875 43.3125 52.78125 
Q 43.3125 58.59375 39.234375 62.25 
Q 35.15625 65.921875 28.609375 65.921875 
Q 23.96875 65.921875 18.8125 64.3125 
Q 13.671875 62.703125 7.8125 59.421875 
L 7.8125 69.390625 
Q 13.765625 71.78125 18.9375 73 
Q 24.125 74.21875 28.421875 74.21875 
Q 39.75 74.21875 46.484375 68.546875 
Q 53.21875 62.890625 53.21875 53.421875 
Q 53.21875 48.921875 51.53125 44.890625 
Q 49.859375 40.875 45.40625 35.40625 
Q 44.1875 33.984375 37.640625 27.21875 
Q 31.109375 20.453125 19.1875 8.296875 
z
" id="DejaVuSans-50"/>
      </defs>
      <g style="fill:#262626;" transform="translate(331.443583 269.858281)scale(0.11 -0.11)">
       <use xlink:href="#DejaVuSans-50"/>
       <use x="63.623047" xlink:href="#DejaVuSans-48"/>
       <use x="127.246094" xlink:href="#DejaVuSans-48"/>
       <use x="190.869141" xlink:href="#DejaVuSans-48"/>
       <use x="254.492188" xlink:href="#DejaVuSans-48"/>
      </g>
     </g>
    </g>
    <g id="text_6">
     <!-- Total Confirmed Cases -->
     <defs>
      <path d="M -0.296875 72.90625 
L 61.375 72.90625 
L 61.375 64.59375 
L 35.5 64.59375 
L 35.5 0 
L 25.59375 0 
L 25.59375 64.59375 
L -0.296875 64.59375 
z
" id="DejaVuSans-84"/>
      <path d="M 30.609375 48.390625 
Q 23.390625 48.390625 19.1875 42.75 
Q 14.984375 37.109375 14.984375 27.296875 
Q 14.984375 17.484375 19.15625 11.84375 
Q 23.34375 6.203125 30.609375 6.203125 
Q 37.796875 6.203125 41.984375 11.859375 
Q 46.1875 17.53125 46.1875 27.296875 
Q 46.1875 37.015625 41.984375 42.703125 
Q 37.796875 48.390625 30.609375 48.390625 
z
M 30.609375 56 
Q 42.328125 56 49.015625 48.375 
Q 55.71875 40.765625 55.71875 27.296875 
Q 55.71875 13.875 49.015625 6.21875 
Q 42.328125 -1.421875 30.609375 -1.421875 
Q 18.84375 -1.421875 12.171875 6.21875 
Q 5.515625 13.875 5.515625 27.296875 
Q 5.515625 40.765625 12.171875 48.375 
Q 18.84375 56 30.609375 56 
z
" id="DejaVuSans-111"/>
      <path d="M 18.3125 70.21875 
L 18.3125 54.6875 
L 36.8125 54.6875 
L 36.8125 47.703125 
L 18.3125 47.703125 
L 18.3125 18.015625 
Q 18.3125 11.328125 20.140625 9.421875 
Q 21.96875 7.515625 27.59375 7.515625 
L 36.8125 7.515625 
L 36.8125 0 
L 27.59375 0 
Q 17.1875 0 13.234375 3.875 
Q 9.28125 7.765625 9.28125 18.015625 
L 9.28125 47.703125 
L 2.6875 47.703125 
L 2.6875 54.6875 
L 9.28125 54.6875 
L 9.28125 70.21875 
z
" id="DejaVuSans-116"/>
      <path d="M 34.28125 27.484375 
Q 23.390625 27.484375 19.1875 25 
Q 14.984375 22.515625 14.984375 16.5 
Q 14.984375 11.71875 18.140625 8.90625 
Q 21.296875 6.109375 26.703125 6.109375 
Q 34.1875 6.109375 38.703125 11.40625 
Q 43.21875 16.703125 43.21875 25.484375 
L 43.21875 27.484375 
z
M 52.203125 31.203125 
L 52.203125 0 
L 43.21875 0 
L 43.21875 8.296875 
Q 40.140625 3.328125 35.546875 0.953125 
Q 30.953125 -1.421875 24.3125 -1.421875 
Q 15.921875 -1.421875 10.953125 3.296875 
Q 6 8.015625 6 15.921875 
Q 6 25.140625 12.171875 29.828125 
Q 18.359375 34.515625 30.609375 34.515625 
L 43.21875 34.515625 
L 43.21875 35.40625 
Q 43.21875 41.609375 39.140625 45 
Q 35.0625 48.390625 27.6875 48.390625 
Q 23 48.390625 18.546875 47.265625 
Q 14.109375 46.140625 10.015625 43.890625 
L 10.015625 52.203125 
Q 14.9375 54.109375 19.578125 55.046875 
Q 24.21875 56 28.609375 56 
Q 40.484375 56 46.34375 49.84375 
Q 52.203125 43.703125 52.203125 31.203125 
z
" id="DejaVuSans-97"/>
      <path d="M 9.421875 75.984375 
L 18.40625 75.984375 
L 18.40625 0 
L 9.421875 0 
z
" id="DejaVuSans-108"/>
      <path id="DejaVuSans-32"/>
      <path d="M 64.40625 67.28125 
L 64.40625 56.890625 
Q 59.421875 61.53125 53.78125 63.8125 
Q 48.140625 66.109375 41.796875 66.109375 
Q 29.296875 66.109375 22.65625 58.46875 
Q 16.015625 50.828125 16.015625 36.375 
Q 16.015625 21.96875 22.65625 14.328125 
Q 29.296875 6.6875 41.796875 6.6875 
Q 48.140625 6.6875 53.78125 8.984375 
Q 59.421875 11.28125 64.40625 15.921875 
L 64.40625 5.609375 
Q 59.234375 2.09375 53.4375 0.328125 
Q 47.65625 -1.421875 41.21875 -1.421875 
Q 24.65625 -1.421875 15.125 8.703125 
Q 5.609375 18.84375 5.609375 36.375 
Q 5.609375 53.953125 15.125 64.078125 
Q 24.65625 74.21875 41.21875 74.21875 
Q 47.75 74.21875 53.53125 72.484375 
Q 59.328125 70.75 64.40625 67.28125 
z
" id="DejaVuSans-67"/>
      <path d="M 54.890625 33.015625 
L 54.890625 0 
L 45.90625 0 
L 45.90625 32.71875 
Q 45.90625 40.484375 42.875 44.328125 
Q 39.84375 48.1875 33.796875 48.1875 
Q 26.515625 48.1875 22.3125 43.546875 
Q 18.109375 38.921875 18.109375 30.90625 
L 18.109375 0 
L 9.078125 0 
L 9.078125 54.6875 
L 18.109375 54.6875 
L 18.109375 46.1875 
Q 21.34375 51.125 25.703125 53.5625 
Q 30.078125 56 35.796875 56 
Q 45.21875 56 50.046875 50.171875 
Q 54.890625 44.34375 54.890625 33.015625 
z
" id="DejaVuSans-110"/>
      <path d="M 37.109375 75.984375 
L 37.109375 68.5 
L 28.515625 68.5 
Q 23.6875 68.5 21.796875 66.546875 
Q 19.921875 64.59375 19.921875 59.515625 
L 19.921875 54.6875 
L 34.71875 54.6875 
L 34.71875 47.703125 
L 19.921875 47.703125 
L 19.921875 0 
L 10.890625 0 
L 10.890625 47.703125 
L 2.296875 47.703125 
L 2.296875 54.6875 
L 10.890625 54.6875 
L 10.890625 58.5 
Q 10.890625 67.625 15.140625 71.796875 
Q 19.390625 75.984375 28.609375 75.984375 
z
" id="DejaVuSans-102"/>
      <path d="M 9.421875 54.6875 
L 18.40625 54.6875 
L 18.40625 0 
L 9.421875 0 
z
M 9.421875 75.984375 
L 18.40625 75.984375 
L 18.40625 64.59375 
L 9.421875 64.59375 
z
" id="DejaVuSans-105"/>
      <path d="M 41.109375 46.296875 
Q 39.59375 47.171875 37.8125 47.578125 
Q 36.03125 48 33.890625 48 
Q 26.265625 48 22.1875 43.046875 
Q 18.109375 38.09375 18.109375 28.8125 
L 18.109375 0 
L 9.078125 0 
L 9.078125 54.6875 
L 18.109375 54.6875 
L 18.109375 46.1875 
Q 20.953125 51.171875 25.484375 53.578125 
Q 30.03125 56 36.53125 56 
Q 37.453125 56 38.578125 55.875 
Q 39.703125 55.765625 41.0625 55.515625 
z
" id="DejaVuSans-114"/>
      <path d="M 52 44.1875 
Q 55.375 50.25 60.0625 53.125 
Q 64.75 56 71.09375 56 
Q 79.640625 56 84.28125 50.015625 
Q 88.921875 44.046875 88.921875 33.015625 
L 88.921875 0 
L 79.890625 0 
L 79.890625 32.71875 
Q 79.890625 40.578125 77.09375 44.375 
Q 74.3125 48.1875 68.609375 48.1875 
Q 61.625 48.1875 57.5625 43.546875 
Q 53.515625 38.921875 53.515625 30.90625 
L 53.515625 0 
L 44.484375 0 
L 44.484375 32.71875 
Q 44.484375 40.625 41.703125 44.40625 
Q 38.921875 48.1875 33.109375 48.1875 
Q 26.21875 48.1875 22.15625 43.53125 
Q 18.109375 38.875 18.109375 30.90625 
L 18.109375 0 
L 9.078125 0 
L 9.078125 54.6875 
L 18.109375 54.6875 
L 18.109375 46.1875 
Q 21.1875 51.21875 25.484375 53.609375 
Q 29.78125 56 35.6875 56 
Q 41.65625 56 45.828125 52.96875 
Q 50 49.953125 52 44.1875 
z
" id="DejaVuSans-109"/>
      <path d="M 56.203125 29.59375 
L 56.203125 25.203125 
L 14.890625 25.203125 
Q 15.484375 15.921875 20.484375 11.0625 
Q 25.484375 6.203125 34.421875 6.203125 
Q 39.59375 6.203125 44.453125 7.46875 
Q 49.3125 8.734375 54.109375 11.28125 
L 54.109375 2.78125 
Q 49.265625 0.734375 44.1875 -0.34375 
Q 39.109375 -1.421875 33.890625 -1.421875 
Q 20.796875 -1.421875 13.15625 6.1875 
Q 5.515625 13.8125 5.515625 26.8125 
Q 5.515625 40.234375 12.765625 48.109375 
Q 20.015625 56 32.328125 56 
Q 43.359375 56 49.78125 48.890625 
Q 56.203125 41.796875 56.203125 29.59375 
z
M 47.21875 32.234375 
Q 47.125 39.59375 43.09375 43.984375 
Q 39.0625 48.390625 32.421875 48.390625 
Q 24.90625 48.390625 20.390625 44.140625 
Q 15.875 39.890625 15.1875 32.171875 
z
" id="DejaVuSans-101"/>
      <path d="M 45.40625 46.390625 
L 45.40625 75.984375 
L 54.390625 75.984375 
L 54.390625 0 
L 45.40625 0 
L 45.40625 8.203125 
Q 42.578125 3.328125 38.25 0.953125 
Q 33.9375 -1.421875 27.875 -1.421875 
Q 17.96875 -1.421875 11.734375 6.484375 
Q 5.515625 14.40625 5.515625 27.296875 
Q 5.515625 40.1875 11.734375 48.09375 
Q 17.96875 56 27.875 56 
Q 33.9375 56 38.25 53.625 
Q 42.578125 51.265625 45.40625 46.390625 
z
M 14.796875 27.296875 
Q 14.796875 17.390625 18.875 11.75 
Q 22.953125 6.109375 30.078125 6.109375 
Q 37.203125 6.109375 41.296875 11.75 
Q 45.40625 17.390625 45.40625 27.296875 
Q 45.40625 37.203125 41.296875 42.84375 
Q 37.203125 48.484375 30.078125 48.484375 
Q 22.953125 48.484375 18.875 42.84375 
Q 14.796875 37.203125 14.796875 27.296875 
z
" id="DejaVuSans-100"/>
      <path d="M 44.28125 53.078125 
L 44.28125 44.578125 
Q 40.484375 46.53125 36.375 47.5 
Q 32.28125 48.484375 27.875 48.484375 
Q 21.1875 48.484375 17.84375 46.4375 
Q 14.5 44.390625 14.5 40.28125 
Q 14.5 37.15625 16.890625 35.375 
Q 19.28125 33.59375 26.515625 31.984375 
L 29.59375 31.296875 
Q 39.15625 29.25 43.1875 25.515625 
Q 47.21875 21.78125 47.21875 15.09375 
Q 47.21875 7.46875 41.1875 3.015625 
Q 35.15625 -1.421875 24.609375 -1.421875 
Q 20.21875 -1.421875 15.453125 -0.5625 
Q 10.6875 0.296875 5.421875 2 
L 5.421875 11.28125 
Q 10.40625 8.6875 15.234375 7.390625 
Q 20.0625 6.109375 24.8125 6.109375 
Q 31.15625 6.109375 34.5625 8.28125 
Q 37.984375 10.453125 37.984375 14.40625 
Q 37.984375 18.0625 35.515625 20.015625 
Q 33.0625 21.96875 24.703125 23.78125 
L 21.578125 24.515625 
Q 13.234375 26.265625 9.515625 29.90625 
Q 5.8125 33.546875 5.8125 39.890625 
Q 5.8125 47.609375 11.28125 51.796875 
Q 16.75 56 26.8125 56 
Q 31.78125 56 36.171875 55.265625 
Q 40.578125 54.546875 44.28125 53.078125 
z
" id="DejaVuSans-115"/>
     </defs>
     <g style="fill:#262626;" transform="translate(153.507188 285.264063)scale(0.12 -0.12)">
      <use xlink:href="#DejaVuSans-84"/>
      <use x="60.818359" xlink:href="#DejaVuSans-111"/>
      <use x="122" xlink:href="#DejaVuSans-116"/>
      <use x="161.208984" xlink:href="#DejaVuSans-97"/>
      <use x="222.488281" xlink:href="#DejaVuSans-108"/>
      <use x="250.271484" xlink:href="#DejaVuSans-32"/>
      <use x="282.058594" xlink:href="#DejaVuSans-67"/>
      <use x="351.882812" xlink:href="#DejaVuSans-111"/>
      <use x="413.064453" xlink:href="#DejaVuSans-110"/>
      <use x="476.443359" xlink:href="#DejaVuSans-102"/>
      <use x="511.648438" xlink:href="#DejaVuSans-105"/>
      <use x="539.431641" xlink:href="#DejaVuSans-114"/>
      <use x="580.529297" xlink:href="#DejaVuSans-109"/>
      <use x="677.941406" xlink:href="#DejaVuSans-101"/>
      <use x="739.464844" xlink:href="#DejaVuSans-100"/>
      <use x="802.941406" xlink:href="#DejaVuSans-32"/>
      <use x="834.728516" xlink:href="#DejaVuSans-67"/>
      <use x="904.552734" xlink:href="#DejaVuSans-97"/>
      <use x="965.832031" xlink:href="#DejaVuSans-115"/>
      <use x="1017.931641" xlink:href="#DejaVuSans-101"/>
      <use x="1079.455078" xlink:href="#DejaVuSans-115"/>
     </g>
    </g>
   </g>
   <g id="matplotlib.axis_2">
    <g id="ytick_1">
     <g id="line2d_6">
      <path clip-path="url(#p0ee2b550c6)" d="M 54 231.45748 
L 388.8 231.45748 
" style="fill:none;stroke:#ffffff;stroke-linecap:round;"/>
     </g>
     <g id="text_7">
      <!-- 75 -->
      <defs>
       <path d="M 8.203125 72.90625 
L 55.078125 72.90625 
L 55.078125 68.703125 
L 28.609375 0 
L 18.3125 0 
L 43.21875 64.59375 
L 8.203125 64.59375 
z
" id="DejaVuSans-55"/>
      </defs>
      <g style="fill:#262626;" transform="translate(30.5025 235.636621)scale(0.11 -0.11)">
       <use xlink:href="#DejaVuSans-55"/>
       <use x="63.623047" xlink:href="#DejaVuSans-53"/>
      </g>
     </g>
    </g>
    <g id="ytick_2">
     <g id="line2d_7">
      <path clip-path="url(#p0ee2b550c6)" d="M 54 193.041347 
L 388.8 193.041347 
" style="fill:none;stroke:#ffffff;stroke-linecap:round;"/>
     </g>
     <g id="text_8">
      <!-- 80 -->
      <defs>
       <path d="M 31.78125 34.625 
Q 24.75 34.625 20.71875 30.859375 
Q 16.703125 27.09375 16.703125 20.515625 
Q 16.703125 13.921875 20.71875 10.15625 
Q 24.75 6.390625 31.78125 6.390625 
Q 38.8125 6.390625 42.859375 10.171875 
Q 46.921875 13.96875 46.921875 20.515625 
Q 46.921875 27.09375 42.890625 30.859375 
Q 38.875 34.625 31.78125 34.625 
z
M 21.921875 38.8125 
Q 15.578125 40.375 12.03125 44.71875 
Q 8.5 49.078125 8.5 55.328125 
Q 8.5 64.0625 14.71875 69.140625 
Q 20.953125 74.21875 31.78125 74.21875 
Q 42.671875 74.21875 48.875 69.140625 
Q 55.078125 64.0625 55.078125 55.328125 
Q 55.078125 49.078125 51.53125 44.71875 
Q 48 40.375 41.703125 38.8125 
Q 48.828125 37.15625 52.796875 32.3125 
Q 56.78125 27.484375 56.78125 20.515625 
Q 56.78125 9.90625 50.3125 4.234375 
Q 43.84375 -1.421875 31.78125 -1.421875 
Q 19.734375 -1.421875 13.25 4.234375 
Q 6.78125 9.90625 6.78125 20.515625 
Q 6.78125 27.484375 10.78125 32.3125 
Q 14.796875 37.15625 21.921875 38.8125 
z
M 18.3125 54.390625 
Q 18.3125 48.734375 21.84375 45.5625 
Q 25.390625 42.390625 31.78125 42.390625 
Q 38.140625 42.390625 41.71875 45.5625 
Q 45.3125 48.734375 45.3125 54.390625 
Q 45.3125 60.0625 41.71875 63.234375 
Q 38.140625 66.40625 31.78125 66.40625 
Q 25.390625 66.40625 21.84375 63.234375 
Q 18.3125 60.0625 18.3125 54.390625 
z
" id="DejaVuSans-56"/>
      </defs>
      <g style="fill:#262626;" transform="translate(30.5025 197.220488)scale(0.11 -0.11)">
       <use xlink:href="#DejaVuSans-56"/>
       <use x="63.623047" xlink:href="#DejaVuSans-48"/>
      </g>
     </g>
    </g>
    <g id="ytick_3">
     <g id="line2d_8">
      <path clip-path="url(#p0ee2b550c6)" d="M 54 154.625214 
L 388.8 154.625214 
" style="fill:none;stroke:#ffffff;stroke-linecap:round;"/>
     </g>
     <g id="text_9">
      <!-- 85 -->
      <g style="fill:#262626;" transform="translate(30.5025 158.804354)scale(0.11 -0.11)">
       <use xlink:href="#DejaVuSans-56"/>
       <use x="63.623047" xlink:href="#DejaVuSans-53"/>
      </g>
     </g>
    </g>
    <g id="ytick_4">
     <g id="line2d_9">
      <path clip-path="url(#p0ee2b550c6)" d="M 54 116.20908 
L 388.8 116.20908 
" style="fill:none;stroke:#ffffff;stroke-linecap:round;"/>
     </g>
     <g id="text_10">
      <!-- 90 -->
      <defs>
       <path d="M 10.984375 1.515625 
L 10.984375 10.5 
Q 14.703125 8.734375 18.5 7.8125 
Q 22.3125 6.890625 25.984375 6.890625 
Q 35.75 6.890625 40.890625 13.453125 
Q 46.046875 20.015625 46.78125 33.40625 
Q 43.953125 29.203125 39.59375 26.953125 
Q 35.25 24.703125 29.984375 24.703125 
Q 19.046875 24.703125 12.671875 31.3125 
Q 6.296875 37.9375 6.296875 49.421875 
Q 6.296875 60.640625 12.9375 67.421875 
Q 19.578125 74.21875 30.609375 74.21875 
Q 43.265625 74.21875 49.921875 64.515625 
Q 56.59375 54.828125 56.59375 36.375 
Q 56.59375 19.140625 48.40625 8.859375 
Q 40.234375 -1.421875 26.421875 -1.421875 
Q 22.703125 -1.421875 18.890625 -0.6875 
Q 15.09375 0.046875 10.984375 1.515625 
z
M 30.609375 32.421875 
Q 37.25 32.421875 41.125 36.953125 
Q 45.015625 41.5 45.015625 49.421875 
Q 45.015625 57.28125 41.125 61.84375 
Q 37.25 66.40625 30.609375 66.40625 
Q 23.96875 66.40625 20.09375 61.84375 
Q 16.21875 57.28125 16.21875 49.421875 
Q 16.21875 41.5 20.09375 36.953125 
Q 23.96875 32.421875 30.609375 32.421875 
z
" id="DejaVuSans-57"/>
      </defs>
      <g style="fill:#262626;" transform="translate(30.5025 120.388221)scale(0.11 -0.11)">
       <use xlink:href="#DejaVuSans-57"/>
       <use x="63.623047" xlink:href="#DejaVuSans-48"/>
      </g>
     </g>
    </g>
    <g id="ytick_5">
     <g id="line2d_10">
      <path clip-path="url(#p0ee2b550c6)" d="M 54 77.792947 
L 388.8 77.792947 
" style="fill:none;stroke:#ffffff;stroke-linecap:round;"/>
     </g>
     <g id="text_11">
      <!-- 95 -->
      <g style="fill:#262626;" transform="translate(30.5025 81.972088)scale(0.11 -0.11)">
       <use xlink:href="#DejaVuSans-57"/>
       <use x="63.623047" xlink:href="#DejaVuSans-53"/>
      </g>
     </g>
    </g>
    <g id="ytick_6">
     <g id="line2d_11">
      <path clip-path="url(#p0ee2b550c6)" d="M 54 39.376814 
L 388.8 39.376814 
" style="fill:none;stroke:#ffffff;stroke-linecap:round;"/>
     </g>
     <g id="text_12">
      <!-- 100 -->
      <g style="fill:#262626;" transform="translate(23.50375 43.555954)scale(0.11 -0.11)">
       <use xlink:href="#DejaVuSans-49"/>
       <use x="63.623047" xlink:href="#DejaVuSans-48"/>
       <use x="127.246094" xlink:href="#DejaVuSans-48"/>
      </g>
     </g>
    </g>
    <g id="text_13">
     <!-- Baseline % of Airport Traffic -->
     <defs>
      <path d="M 19.671875 34.8125 
L 19.671875 8.109375 
L 35.5 8.109375 
Q 43.453125 8.109375 47.28125 11.40625 
Q 51.125 14.703125 51.125 21.484375 
Q 51.125 28.328125 47.28125 31.5625 
Q 43.453125 34.8125 35.5 34.8125 
z
M 19.671875 64.796875 
L 19.671875 42.828125 
L 34.28125 42.828125 
Q 41.5 42.828125 45.03125 45.53125 
Q 48.578125 48.25 48.578125 53.8125 
Q 48.578125 59.328125 45.03125 62.0625 
Q 41.5 64.796875 34.28125 64.796875 
z
M 9.8125 72.90625 
L 35.015625 72.90625 
Q 46.296875 72.90625 52.390625 68.21875 
Q 58.5 63.53125 58.5 54.890625 
Q 58.5 48.1875 55.375 44.234375 
Q 52.25 40.28125 46.1875 39.3125 
Q 53.46875 37.75 57.5 32.78125 
Q 61.53125 27.828125 61.53125 20.40625 
Q 61.53125 10.640625 54.890625 5.3125 
Q 48.25 0 35.984375 0 
L 9.8125 0 
z
" id="DejaVuSans-66"/>
      <path d="M 72.703125 32.078125 
Q 68.453125 32.078125 66.03125 28.46875 
Q 63.625 24.859375 63.625 18.40625 
Q 63.625 12.0625 66.03125 8.421875 
Q 68.453125 4.78125 72.703125 4.78125 
Q 76.859375 4.78125 79.265625 8.421875 
Q 81.6875 12.0625 81.6875 18.40625 
Q 81.6875 24.8125 79.265625 28.4375 
Q 76.859375 32.078125 72.703125 32.078125 
z
M 72.703125 38.28125 
Q 80.421875 38.28125 84.953125 32.90625 
Q 89.5 27.546875 89.5 18.40625 
Q 89.5 9.28125 84.9375 3.921875 
Q 80.375 -1.421875 72.703125 -1.421875 
Q 64.890625 -1.421875 60.34375 3.921875 
Q 55.8125 9.28125 55.8125 18.40625 
Q 55.8125 27.59375 60.375 32.9375 
Q 64.9375 38.28125 72.703125 38.28125 
z
M 22.3125 68.015625 
Q 18.109375 68.015625 15.6875 64.375 
Q 13.28125 60.75 13.28125 54.390625 
Q 13.28125 47.953125 15.671875 44.328125 
Q 18.0625 40.71875 22.3125 40.71875 
Q 26.5625 40.71875 28.96875 44.328125 
Q 31.390625 47.953125 31.390625 54.390625 
Q 31.390625 60.6875 28.953125 64.34375 
Q 26.515625 68.015625 22.3125 68.015625 
z
M 66.40625 74.21875 
L 74.21875 74.21875 
L 28.609375 -1.421875 
L 20.796875 -1.421875 
z
M 22.3125 74.21875 
Q 30.03125 74.21875 34.609375 68.875 
Q 39.203125 63.53125 39.203125 54.390625 
Q 39.203125 45.171875 34.640625 39.84375 
Q 30.078125 34.515625 22.3125 34.515625 
Q 14.546875 34.515625 10.03125 39.859375 
Q 5.515625 45.21875 5.515625 54.390625 
Q 5.515625 63.484375 10.046875 68.84375 
Q 14.59375 74.21875 22.3125 74.21875 
z
" id="DejaVuSans-37"/>
      <path d="M 34.1875 63.1875 
L 20.796875 26.90625 
L 47.609375 26.90625 
z
M 28.609375 72.90625 
L 39.796875 72.90625 
L 67.578125 0 
L 57.328125 0 
L 50.6875 18.703125 
L 17.828125 18.703125 
L 11.1875 0 
L 0.78125 0 
z
" id="DejaVuSans-65"/>
      <path d="M 18.109375 8.203125 
L 18.109375 -20.796875 
L 9.078125 -20.796875 
L 9.078125 54.6875 
L 18.109375 54.6875 
L 18.109375 46.390625 
Q 20.953125 51.265625 25.265625 53.625 
Q 29.59375 56 35.59375 56 
Q 45.5625 56 51.78125 48.09375 
Q 58.015625 40.1875 58.015625 27.296875 
Q 58.015625 14.40625 51.78125 6.484375 
Q 45.5625 -1.421875 35.59375 -1.421875 
Q 29.59375 -1.421875 25.265625 0.953125 
Q 20.953125 3.328125 18.109375 8.203125 
z
M 48.6875 27.296875 
Q 48.6875 37.203125 44.609375 42.84375 
Q 40.53125 48.484375 33.40625 48.484375 
Q 26.265625 48.484375 22.1875 42.84375 
Q 18.109375 37.203125 18.109375 27.296875 
Q 18.109375 17.390625 22.1875 11.75 
Q 26.265625 6.109375 33.40625 6.109375 
Q 40.53125 6.109375 44.609375 11.75 
Q 48.6875 17.390625 48.6875 27.296875 
z
" id="DejaVuSans-112"/>
      <path d="M 48.78125 52.59375 
L 48.78125 44.1875 
Q 44.96875 46.296875 41.140625 47.34375 
Q 37.3125 48.390625 33.40625 48.390625 
Q 24.65625 48.390625 19.8125 42.84375 
Q 14.984375 37.3125 14.984375 27.296875 
Q 14.984375 17.28125 19.8125 11.734375 
Q 24.65625 6.203125 33.40625 6.203125 
Q 37.3125 6.203125 41.140625 7.25 
Q 44.96875 8.296875 48.78125 10.40625 
L 48.78125 2.09375 
Q 45.015625 0.34375 40.984375 -0.53125 
Q 36.96875 -1.421875 32.421875 -1.421875 
Q 20.0625 -1.421875 12.78125 6.34375 
Q 5.515625 14.109375 5.515625 27.296875 
Q 5.515625 40.671875 12.859375 48.328125 
Q 20.21875 56 33.015625 56 
Q 37.15625 56 41.109375 55.140625 
Q 45.0625 54.296875 48.78125 52.59375 
z
" id="DejaVuSans-99"/>
     </defs>
     <g style="fill:#262626;" transform="translate(17.008125 227.353125)rotate(-90)scale(0.12 -0.12)">
      <use xlink:href="#DejaVuSans-66"/>
      <use x="68.603516" xlink:href="#DejaVuSans-97"/>
      <use x="129.882812" xlink:href="#DejaVuSans-115"/>
      <use x="181.982422" xlink:href="#DejaVuSans-101"/>
      <use x="243.505859" xlink:href="#DejaVuSans-108"/>
      <use x="271.289062" xlink:href="#DejaVuSans-105"/>
      <use x="299.072266" xlink:href="#DejaVuSans-110"/>
      <use x="362.451172" xlink:href="#DejaVuSans-101"/>
      <use x="423.974609" xlink:href="#DejaVuSans-32"/>
      <use x="455.761719" xlink:href="#DejaVuSans-37"/>
      <use x="550.78125" xlink:href="#DejaVuSans-32"/>
      <use x="582.568359" xlink:href="#DejaVuSans-111"/>
      <use x="643.75" xlink:href="#DejaVuSans-102"/>
      <use x="678.955078" xlink:href="#DejaVuSans-32"/>
      <use x="710.742188" xlink:href="#DejaVuSans-65"/>
      <use x="779.150391" xlink:href="#DejaVuSans-105"/>
      <use x="806.933594" xlink:href="#DejaVuSans-114"/>
      <use x="848.046875" xlink:href="#DejaVuSans-112"/>
      <use x="911.523438" xlink:href="#DejaVuSans-111"/>
      <use x="972.705078" xlink:href="#DejaVuSans-114"/>
      <use x="1013.818359" xlink:href="#DejaVuSans-116"/>
      <use x="1053.027344" xlink:href="#DejaVuSans-32"/>
      <use x="1084.814453" xlink:href="#DejaVuSans-84"/>
      <use x="1145.679688" xlink:href="#DejaVuSans-114"/>
      <use x="1186.792969" xlink:href="#DejaVuSans-97"/>
      <use x="1248.072266" xlink:href="#DejaVuSans-102"/>
      <use x="1283.277344" xlink:href="#DejaVuSans-102"/>
      <use x="1318.482422" xlink:href="#DejaVuSans-105"/>
      <use x="1346.265625" xlink:href="#DejaVuSans-99"/>
     </g>
    </g>
   </g>
   <g id="line2d_12">
    <defs>
     <path d="M 0 1.5 
C 0.397805 1.5 0.77937 1.341951 1.06066 1.06066 
C 1.341951 0.77937 1.5 0.397805 1.5 0 
C 1.5 -0.397805 1.341951 -0.77937 1.06066 -1.06066 
C 0.77937 -1.341951 0.397805 -1.5 0 -1.5 
C -0.397805 -1.5 -0.77937 -1.341951 -1.06066 -1.06066 
C -1.341951 -0.77937 -1.5 -0.397805 -1.5 0 
C -1.5 0.397805 -1.341951 0.77937 -1.06066 1.06066 
C -0.77937 1.341951 -0.397805 1.5 0 1.5 
z
" id="macd8b2e883" style="stroke:#4c72b0;"/>
    </defs>
    <g clip-path="url(#p0ee2b550c6)">
     <use style="fill:#4c72b0;stroke:#4c72b0;" x="72.734604" xlink:href="#macd8b2e883" y="58.59877"/>
     <use style="fill:#4c72b0;stroke:#4c72b0;" x="73.479581" xlink:href="#macd8b2e883" y="56.152028"/>
     <use style="fill:#4c72b0;stroke:#4c72b0;" x="74.234511" xlink:href="#macd8b2e883" y="62.728799"/>
     <use style="fill:#4c72b0;stroke:#4c72b0;" x="74.991105" xlink:href="#macd8b2e883" y="86.335116"/>
     <use style="fill:#4c72b0;stroke:#4c72b0;" x="75.71216" xlink:href="#macd8b2e883" y="99.884893"/>
     <use style="fill:#4c72b0;stroke:#4c72b0;" x="76.446166" xlink:href="#macd8b2e883" y="91.601972"/>
     <use style="fill:#4c72b0;stroke:#4c72b0;" x="77.15965" xlink:href="#macd8b2e883" y="82.964062"/>
     <use style="fill:#4c72b0;stroke:#4c72b0;" x="77.776413" xlink:href="#macd8b2e883" y="77.22563"/>
     <use style="fill:#4c72b0;stroke:#4c72b0;" x="78.395918" xlink:href="#macd8b2e883" y="69.91626"/>
     <use style="fill:#4c72b0;stroke:#4c72b0;" x="79.271075" xlink:href="#macd8b2e883" y="80.47894"/>
     <use style="fill:#4c72b0;stroke:#4c72b0;" x="80.396002" xlink:href="#macd8b2e883" y="105.763485"/>
     <use style="fill:#4c72b0;stroke:#4c72b0;" x="81.53691" xlink:href="#macd8b2e883" y="132.065237"/>
     <use style="fill:#4c72b0;stroke:#4c72b0;" x="82.801576" xlink:href="#macd8b2e883" y="131.312074"/>
     <use style="fill:#4c72b0;stroke:#4c72b0;" x="84.192452" xlink:href="#macd8b2e883" y="107.989269"/>
     <use style="fill:#4c72b0;stroke:#4c72b0;" x="85.482672" xlink:href="#macd8b2e883" y="100.12033"/>
     <use style="fill:#4c72b0;stroke:#4c72b0;" x="86.560273" xlink:href="#macd8b2e883" y="80.384661"/>
     <use style="fill:#4c72b0;stroke:#4c72b0;" x="87.513529" xlink:href="#macd8b2e883" y="66.189775"/>
     <use style="fill:#4c72b0;stroke:#4c72b0;" x="88.367597" xlink:href="#macd8b2e883" y="84.592364"/>
     <use style="fill:#4c72b0;stroke:#4c72b0;" x="89.192036" xlink:href="#macd8b2e883" y="117.95121"/>
     <use style="fill:#4c72b0;stroke:#4c72b0;" x="90.080107" xlink:href="#macd8b2e883" y="145.496454"/>
     <use style="fill:#4c72b0;stroke:#4c72b0;" x="91.183734" xlink:href="#macd8b2e883" y="148.385551"/>
     <use style="fill:#4c72b0;stroke:#4c72b0;" x="92.40508" xlink:href="#macd8b2e883" y="164.642802"/>
     <use style="fill:#4c72b0;stroke:#4c72b0;" x="93.754562" xlink:href="#macd8b2e883" y="162.598937"/>
     <use style="fill:#4c72b0;stroke:#4c72b0;" x="95.673906" xlink:href="#macd8b2e883" y="125.014081"/>
     <use style="fill:#4c72b0;stroke:#4c72b0;" x="97.948771" xlink:href="#macd8b2e883" y="106.987929"/>
     <use style="fill:#4c72b0;stroke:#4c72b0;" x="100.337098" xlink:href="#macd8b2e883" y="110.121965"/>
     <use style="fill:#4c72b0;stroke:#4c72b0;" x="102.768719" xlink:href="#macd8b2e883" y="118.425484"/>
     <use style="fill:#4c72b0;stroke:#4c72b0;" x="105.375992" xlink:href="#macd8b2e883" y="111.39087"/>
     <use style="fill:#4c72b0;stroke:#4c72b0;" x="108.193787" xlink:href="#macd8b2e883" y="101.621317"/>
     <use style="fill:#4c72b0;stroke:#4c72b0;" x="111.304093" xlink:href="#macd8b2e883" y="93.667855"/>
     <use style="fill:#4c72b0;stroke:#4c72b0;" x="114.537584" xlink:href="#macd8b2e883" y="84.767684"/>
     <use style="fill:#4c72b0;stroke:#4c72b0;" x="117.693292" xlink:href="#macd8b2e883" y="87.369093"/>
     <use style="fill:#4c72b0;stroke:#4c72b0;" x="121.06655" xlink:href="#macd8b2e883" y="108.857455"/>
     <use style="fill:#4c72b0;stroke:#4c72b0;" x="124.769213" xlink:href="#macd8b2e883" y="127.008893"/>
     <use style="fill:#4c72b0;stroke:#4c72b0;" x="128.306468" xlink:href="#macd8b2e883" y="115.555773"/>
     <use style="fill:#4c72b0;stroke:#4c72b0;" x="131.654215" xlink:href="#macd8b2e883" y="104.59497"/>
     <use style="fill:#4c72b0;stroke:#4c72b0;" x="134.85469" xlink:href="#macd8b2e883" y="96.749995"/>
     <use style="fill:#4c72b0;stroke:#4c72b0;" x="137.995755" xlink:href="#macd8b2e883" y="80.313202"/>
     <use style="fill:#4c72b0;stroke:#4c72b0;" x="140.958562" xlink:href="#macd8b2e883" y="85.883204"/>
     <use style="fill:#4c72b0;stroke:#4c72b0;" x="143.529066" xlink:href="#macd8b2e883" y="106.216662"/>
     <use style="fill:#4c72b0;stroke:#4c72b0;" x="145.848768" xlink:href="#macd8b2e883" y="106.963418"/>
     <use style="fill:#4c72b0;stroke:#4c72b0;" x="147.785546" xlink:href="#macd8b2e883" y="99.371638"/>
     <use style="fill:#4c72b0;stroke:#4c72b0;" x="149.518982" xlink:href="#macd8b2e883" y="93.471002"/>
     <use style="fill:#4c72b0;stroke:#4c72b0;" x="150.724832" xlink:href="#macd8b2e883" y="86.044775"/>
     <use style="fill:#4c72b0;stroke:#4c72b0;" x="151.667261" xlink:href="#macd8b2e883" y="90.598862"/>
     <use style="fill:#4c72b0;stroke:#4c72b0;" x="152.586162" xlink:href="#macd8b2e883" y="118.487686"/>
     <use style="fill:#4c72b0;stroke:#4c72b0;" x="153.513636" xlink:href="#macd8b2e883" y="143.690103"/>
     <use style="fill:#4c72b0;stroke:#4c72b0;" x="154.477413" xlink:href="#macd8b2e883" y="142.687639"/>
     <use style="fill:#4c72b0;stroke:#4c72b0;" x="155.433197" xlink:href="#macd8b2e883" y="129.688242"/>
     <use style="fill:#4c72b0;stroke:#4c72b0;" x="156.348097" xlink:href="#macd8b2e883" y="114.851684"/>
     <use style="fill:#4c72b0;stroke:#4c72b0;" x="157.218368" xlink:href="#macd8b2e883" y="98.89381"/>
     <use style="fill:#4c72b0;stroke:#4c72b0;" x="158.03603" xlink:href="#macd8b2e883" y="95.448616"/>
     <use style="fill:#4c72b0;stroke:#4c72b0;" x="158.808723" xlink:href="#macd8b2e883" y="114.833797"/>
     <use style="fill:#4c72b0;stroke:#4c72b0;" x="159.602899" xlink:href="#macd8b2e883" y="156.761273"/>
     <use style="fill:#4c72b0;stroke:#4c72b0;" x="160.418669" xlink:href="#macd8b2e883" y="208.224839"/>
     <use style="fill:#4c72b0;stroke:#4c72b0;" x="161.200959" xlink:href="#macd8b2e883" y="242.116364"/>
     <use style="fill:#4c72b0;stroke:#4c72b0;" x="161.915058" xlink:href="#macd8b2e883" y="226.73785"/>
     <use style="fill:#4c72b0;stroke:#4c72b0;" x="162.530026" xlink:href="#macd8b2e883" y="216.995927"/>
     <use style="fill:#4c72b0;stroke:#4c72b0;" x="163.041667" xlink:href="#macd8b2e883" y="196.649888"/>
     <use style="fill:#4c72b0;stroke:#4c72b0;" x="163.476784" xlink:href="#macd8b2e883" y="161.347328"/>
     <use style="fill:#4c72b0;stroke:#4c72b0;" x="163.873304" xlink:href="#macd8b2e883" y="165.849961"/>
     <use style="fill:#4c72b0;stroke:#4c72b0;" x="164.270346" xlink:href="#macd8b2e883" y="174.432655"/>
     <use style="fill:#4c72b0;stroke:#4c72b0;" x="164.666631" xlink:href="#macd8b2e883" y="156.596982"/>
     <use style="fill:#4c72b0;stroke:#4c72b0;" x="165.042843" xlink:href="#macd8b2e883" y="135.809736"/>
     <use style="fill:#4c72b0;stroke:#4c72b0;" x="165.406988" xlink:href="#macd8b2e883" y="117.197184"/>
     <use style="fill:#4c72b0;stroke:#4c72b0;" x="165.768169" xlink:href="#macd8b2e883" y="91.704924"/>
     <use style="fill:#4c72b0;stroke:#4c72b0;" x="166.109524" xlink:href="#macd8b2e883" y="84.049711"/>
     <use style="fill:#4c72b0;stroke:#4c72b0;" x="166.430474" xlink:href="#macd8b2e883" y="94.924225"/>
     <use style="fill:#4c72b0;stroke:#4c72b0;" x="166.743398" xlink:href="#macd8b2e883" y="94.551877"/>
     <use style="fill:#4c72b0;stroke:#4c72b0;" x="167.053038" xlink:href="#macd8b2e883" y="94.283701"/>
     <use style="fill:#4c72b0;stroke:#4c72b0;" x="167.345432" xlink:href="#macd8b2e883" y="97.15171"/>
     <use style="fill:#4c72b0;stroke:#4c72b0;" x="167.624706" xlink:href="#macd8b2e883" y="94.599966"/>
     <use style="fill:#4c72b0;stroke:#4c72b0;" x="167.89529" xlink:href="#macd8b2e883" y="105.407148"/>
     <use style="fill:#4c72b0;stroke:#4c72b0;" x="168.150479" xlink:href="#macd8b2e883" y="123.38537"/>
     <use style="fill:#4c72b0;stroke:#4c72b0;" x="168.398474" xlink:href="#macd8b2e883" y="130.628089"/>
     <use style="fill:#4c72b0;stroke:#4c72b0;" x="168.664941" xlink:href="#macd8b2e883" y="114.522444"/>
     <use style="fill:#4c72b0;stroke:#4c72b0;" x="168.99812" xlink:href="#macd8b2e883" y="98.219223"/>
     <use style="fill:#4c72b0;stroke:#4c72b0;" x="169.403397" xlink:href="#macd8b2e883" y="86.716333"/>
     <use style="fill:#4c72b0;stroke:#4c72b0;" x="169.875365" xlink:href="#macd8b2e883" y="78.3098"/>
     <use style="fill:#4c72b0;stroke:#4c72b0;" x="170.393635" xlink:href="#macd8b2e883" y="93.223582"/>
     <use style="fill:#4c72b0;stroke:#4c72b0;" x="170.936467" xlink:href="#macd8b2e883" y="118.165915"/>
     <use style="fill:#4c72b0;stroke:#4c72b0;" x="171.472904" xlink:href="#macd8b2e883" y="129.249658"/>
     <use style="fill:#4c72b0;stroke:#4c72b0;" x="172.008174" xlink:href="#macd8b2e883" y="112.834883"/>
     <use style="fill:#4c72b0;stroke:#4c72b0;" x="172.515462" xlink:href="#macd8b2e883" y="94.205546"/>
     <use style="fill:#4c72b0;stroke:#4c72b0;" x="173.00126" xlink:href="#macd8b2e883" y="79.35652"/>
     <use style="fill:#4c72b0;stroke:#4c72b0;" x="173.507682" xlink:href="#macd8b2e883" y="68.015168"/>
     <use style="fill:#4c72b0;stroke:#4c72b0;" x="174.040159" xlink:href="#macd8b2e883" y="79.494786"/>
     <use style="fill:#4c72b0;stroke:#4c72b0;" x="174.600158" xlink:href="#macd8b2e883" y="102.555834"/>
     <use style="fill:#4c72b0;stroke:#4c72b0;" x="175.203863" xlink:href="#macd8b2e883" y="126.182858"/>
     <use style="fill:#4c72b0;stroke:#4c72b0;" x="175.816881" xlink:href="#macd8b2e883" y="136.071965"/>
     <use style="fill:#4c72b0;stroke:#4c72b0;" x="176.401138" xlink:href="#macd8b2e883" y="130.379423"/>
     <use style="fill:#4c72b0;stroke:#4c72b0;" x="176.96335" xlink:href="#macd8b2e883" y="125.393872"/>
     <use style="fill:#4c72b0;stroke:#4c72b0;" x="177.506914" xlink:href="#macd8b2e883" y="120.664904"/>
     <use style="fill:#4c72b0;stroke:#4c72b0;" x="178.026747" xlink:href="#macd8b2e883" y="111.413335"/>
     <use style="fill:#4c72b0;stroke:#4c72b0;" x="178.562752" xlink:href="#macd8b2e883" y="112.111105"/>
     <use style="fill:#4c72b0;stroke:#4c72b0;" x="179.147875" xlink:href="#macd8b2e883" y="127.651388"/>
     <use style="fill:#4c72b0;stroke:#4c72b0;" x="179.768024" xlink:href="#macd8b2e883" y="142.281071"/>
     <use style="fill:#4c72b0;stroke:#4c72b0;" x="180.439053" xlink:href="#macd8b2e883" y="144.478104"/>
     <use style="fill:#4c72b0;stroke:#4c72b0;" x="181.140936" xlink:href="#macd8b2e883" y="142.285032"/>
     <use style="fill:#4c72b0;stroke:#4c72b0;" x="181.815039" xlink:href="#macd8b2e883" y="143.330585"/>
     <use style="fill:#4c72b0;stroke:#4c72b0;" x="182.493768" xlink:href="#macd8b2e883" y="150.840954"/>
     <use style="fill:#4c72b0;stroke:#4c72b0;" x="183.162917" xlink:href="#macd8b2e883" y="149.438441"/>
     <use style="fill:#4c72b0;stroke:#4c72b0;" x="183.756746" xlink:href="#macd8b2e883" y="152.199714"/>
     <use style="fill:#4c72b0;stroke:#4c72b0;" x="184.359386" xlink:href="#macd8b2e883" y="148.543526"/>
     <use style="fill:#4c72b0;stroke:#4c72b0;" x="185.050974" xlink:href="#macd8b2e883" y="118.582959"/>
     <use style="fill:#4c72b0;stroke:#4c72b0;" x="185.726672" xlink:href="#macd8b2e883" y="89.689876"/>
     <use style="fill:#4c72b0;stroke:#4c72b0;" x="186.383222" xlink:href="#macd8b2e883" y="79.207796"/>
     <use style="fill:#4c72b0;stroke:#4c72b0;" x="187.111521" xlink:href="#macd8b2e883" y="84.171249"/>
     <use style="fill:#4c72b0;stroke:#4c72b0;" x="187.852174" xlink:href="#macd8b2e883" y="101.66469"/>
     <use style="fill:#4c72b0;stroke:#4c72b0;" x="188.537254" xlink:href="#macd8b2e883" y="117.721578"/>
     <use style="fill:#4c72b0;stroke:#4c72b0;" x="189.405372" xlink:href="#macd8b2e883" y="111.292942"/>
     <use style="fill:#4c72b0;stroke:#4c72b0;" x="190.471828" xlink:href="#macd8b2e883" y="96.047404"/>
     <use style="fill:#4c72b0;stroke:#4c72b0;" x="191.540138" xlink:href="#macd8b2e883" y="84.473211"/>
     <use style="fill:#4c72b0;stroke:#4c72b0;" x="192.642944" xlink:href="#macd8b2e883" y="79.450058"/>
     <use style="fill:#4c72b0;stroke:#4c72b0;" x="193.882183" xlink:href="#macd8b2e883" y="87.384026"/>
     <use style="fill:#4c72b0;stroke:#4c72b0;" x="195.258052" xlink:href="#macd8b2e883" y="108.741551"/>
     <use style="fill:#4c72b0;stroke:#4c72b0;" x="196.658333" xlink:href="#macd8b2e883" y="136.863585"/>
     <use style="fill:#4c72b0;stroke:#4c72b0;" x="198.258884" xlink:href="#macd8b2e883" y="153.612968"/>
     <use style="fill:#4c72b0;stroke:#4c72b0;" x="199.960757" xlink:href="#macd8b2e883" y="139.343005"/>
     <use style="fill:#4c72b0;stroke:#4c72b0;" x="201.670134" xlink:href="#macd8b2e883" y="130.991693"/>
     <use style="fill:#4c72b0;stroke:#4c72b0;" x="203.400221" xlink:href="#macd8b2e883" y="127.4885"/>
     <use style="fill:#4c72b0;stroke:#4c72b0;" x="205.165009" xlink:href="#macd8b2e883" y="111.76594"/>
     <use style="fill:#4c72b0;stroke:#4c72b0;" x="206.896411" xlink:href="#macd8b2e883" y="114.298283"/>
     <use style="fill:#4c72b0;stroke:#4c72b0;" x="208.548316" xlink:href="#macd8b2e883" y="124.413762"/>
     <use style="fill:#4c72b0;stroke:#4c72b0;" x="210.081059" xlink:href="#macd8b2e883" y="113.142763"/>
     <use style="fill:#4c72b0;stroke:#4c72b0;" x="211.553692" xlink:href="#macd8b2e883" y="96.888722"/>
     <use style="fill:#4c72b0;stroke:#4c72b0;" x="212.96202" xlink:href="#macd8b2e883" y="81.750204"/>
     <use style="fill:#4c72b0;stroke:#4c72b0;" x="214.368626" xlink:href="#macd8b2e883" y="70.365122"/>
     <use style="fill:#4c72b0;stroke:#4c72b0;" x="215.894369" xlink:href="#macd8b2e883" y="75.179221"/>
     <use style="fill:#4c72b0;stroke:#4c72b0;" x="217.381465" xlink:href="#macd8b2e883" y="90.334166"/>
     <use style="fill:#4c72b0;stroke:#4c72b0;" x="218.683052" xlink:href="#macd8b2e883" y="109.273766"/>
     <use style="fill:#4c72b0;stroke:#4c72b0;" x="219.924343" xlink:href="#macd8b2e883" y="116.023536"/>
     <use style="fill:#4c72b0;stroke:#4c72b0;" x="221.165573" xlink:href="#macd8b2e883" y="110.105936"/>
     <use style="fill:#4c72b0;stroke:#4c72b0;" x="222.432457" xlink:href="#macd8b2e883" y="110.480697"/>
     <use style="fill:#4c72b0;stroke:#4c72b0;" x="223.670218" xlink:href="#macd8b2e883" y="109.887063"/>
     <use style="fill:#4c72b0;stroke:#4c72b0;" x="225.00241" xlink:href="#macd8b2e883" y="104.176556"/>
     <use style="fill:#4c72b0;stroke:#4c72b0;" x="226.29856" xlink:href="#macd8b2e883" y="112.185268"/>
     <use style="fill:#4c72b0;stroke:#4c72b0;" x="227.443167" xlink:href="#macd8b2e883" y="114.839208"/>
     <use style="fill:#4c72b0;stroke:#4c72b0;" x="228.646142" xlink:href="#macd8b2e883" y="98.421"/>
     <use style="fill:#4c72b0;stroke:#4c72b0;" x="229.956591" xlink:href="#macd8b2e883" y="81.732181"/>
     <use style="fill:#4c72b0;stroke:#4c72b0;" x="231.260485" xlink:href="#macd8b2e883" y="67.244993"/>
     <use style="fill:#4c72b0;stroke:#4c72b0;" x="232.564913" xlink:href="#macd8b2e883" y="57.226068"/>
     <use style="fill:#4c72b0;stroke:#4c72b0;" x="233.965658" xlink:href="#macd8b2e883" y="67.517908"/>
     <use style="fill:#4c72b0;stroke:#4c72b0;" x="235.278998" xlink:href="#macd8b2e883" y="87.517568"/>
     <use style="fill:#4c72b0;stroke:#4c72b0;" x="236.436052" xlink:href="#macd8b2e883" y="108.687259"/>
     <use style="fill:#4c72b0;stroke:#4c72b0;" x="237.442644" xlink:href="#macd8b2e883" y="123.48199"/>
     <use style="fill:#4c72b0;stroke:#4c72b0;" x="238.713663" xlink:href="#macd8b2e883" y="121.313366"/>
     <use style="fill:#4c72b0;stroke:#4c72b0;" x="240.064953" xlink:href="#macd8b2e883" y="105.268657"/>
     <use style="fill:#4c72b0;stroke:#4c72b0;" x="242.714659" xlink:href="#macd8b2e883" y="82.140294"/>
     <use style="fill:#4c72b0;stroke:#4c72b0;" x="244.081739" xlink:href="#macd8b2e883" y="75.21698"/>
     <use style="fill:#4c72b0;stroke:#4c72b0;" x="245.245014" xlink:href="#macd8b2e883" y="83.939826"/>
     <use style="fill:#4c72b0;stroke:#4c72b0;" x="246.548371" xlink:href="#macd8b2e883" y="87.55288"/>
     <use style="fill:#4c72b0;stroke:#4c72b0;" x="247.908551" xlink:href="#macd8b2e883" y="81.316131"/>
     <use style="fill:#4c72b0;stroke:#4c72b0;" x="249.279501" xlink:href="#macd8b2e883" y="68.395869"/>
     <use style="fill:#4c72b0;stroke:#4c72b0;" x="250.832176" xlink:href="#macd8b2e883" y="55.016764"/>
     <use style="fill:#4c72b0;stroke:#4c72b0;" x="252.426581" xlink:href="#macd8b2e883" y="47.065741"/>
     <use style="fill:#4c72b0;stroke:#4c72b0;" x="254.049663" xlink:href="#macd8b2e883" y="48.90326"/>
     <use style="fill:#4c72b0;stroke:#4c72b0;" x="255.738784" xlink:href="#macd8b2e883" y="57.510991"/>
     <use style="fill:#4c72b0;stroke:#4c72b0;" x="257.661842" xlink:href="#macd8b2e883" y="61.215461"/>
     <use style="fill:#4c72b0;stroke:#4c72b0;" x="259.676548" xlink:href="#macd8b2e883" y="60.724229"/>
     <use style="fill:#4c72b0;stroke:#4c72b0;" x="261.701753" xlink:href="#macd8b2e883" y="62.039667"/>
     <use style="fill:#4c72b0;stroke:#4c72b0;" x="263.724711" xlink:href="#macd8b2e883" y="64.702433"/>
     <use style="fill:#4c72b0;stroke:#4c72b0;" x="265.68917" xlink:href="#macd8b2e883" y="64.899353"/>
     <use style="fill:#4c72b0;stroke:#4c72b0;" x="267.452691" xlink:href="#macd8b2e883" y="72.625099"/>
     <use style="fill:#4c72b0;stroke:#4c72b0;" x="268.984316" xlink:href="#macd8b2e883" y="97.71753"/>
     <use style="fill:#4c72b0;stroke:#4c72b0;" x="270.410959" xlink:href="#macd8b2e883" y="132.545954"/>
     <use style="fill:#4c72b0;stroke:#4c72b0;" x="271.694911" xlink:href="#macd8b2e883" y="148.642887"/>
     <use style="fill:#4c72b0;stroke:#4c72b0;" x="273.935827" xlink:href="#macd8b2e883" y="146.575448"/>
     <use style="fill:#4c72b0;stroke:#4c72b0;" x="276.038983" xlink:href="#macd8b2e883" y="150.655193"/>
     <use style="fill:#4c72b0;stroke:#4c72b0;" x="278.259492" xlink:href="#macd8b2e883" y="122.957108"/>
     <use style="fill:#4c72b0;stroke:#4c72b0;" x="280.462065" xlink:href="#macd8b2e883" y="84.785035"/>
     <use style="fill:#4c72b0;stroke:#4c72b0;" x="282.732744" xlink:href="#macd8b2e883" y="69.949945"/>
     <use style="fill:#4c72b0;stroke:#4c72b0;" x="284.805937" xlink:href="#macd8b2e883" y="63.094319"/>
     <use style="fill:#4c72b0;stroke:#4c72b0;" x="286.76361" xlink:href="#macd8b2e883" y="55.667017"/>
     <use style="fill:#4c72b0;stroke:#4c72b0;" x="288.706091" xlink:href="#macd8b2e883" y="53.120002"/>
     <use style="fill:#4c72b0;stroke:#4c72b0;" x="290.625886" xlink:href="#macd8b2e883" y="50.342237"/>
     <use style="fill:#4c72b0;stroke:#4c72b0;" x="292.614868" xlink:href="#macd8b2e883" y="44.682765"/>
     <use style="fill:#4c72b0;stroke:#4c72b0;" x="294.607762" xlink:href="#macd8b2e883" y="44.443636"/>
     <use style="fill:#4c72b0;stroke:#4c72b0;" x="296.574288" xlink:href="#macd8b2e883" y="49.00187"/>
     <use style="fill:#4c72b0;stroke:#4c72b0;" x="298.339532" xlink:href="#macd8b2e883" y="51.073366"/>
     <use style="fill:#4c72b0;stroke:#4c72b0;" x="300.056495" xlink:href="#macd8b2e883" y="50.195275"/>
     <use style="fill:#4c72b0;stroke:#4c72b0;" x="301.805473" xlink:href="#macd8b2e883" y="49.663458"/>
     <use style="fill:#4c72b0;stroke:#4c72b0;" x="303.536577" xlink:href="#macd8b2e883" y="50.652252"/>
     <use style="fill:#4c72b0;stroke:#4c72b0;" x="305.410599" xlink:href="#macd8b2e883" y="53.072795"/>
     <use style="fill:#4c72b0;stroke:#4c72b0;" x="307.515665" xlink:href="#macd8b2e883" y="61.31878"/>
     <use style="fill:#4c72b0;stroke:#4c72b0;" x="309.630145" xlink:href="#macd8b2e883" y="74.407026"/>
     <use style="fill:#4c72b0;stroke:#4c72b0;" x="311.641236" xlink:href="#macd8b2e883" y="79.405464"/>
     <use style="fill:#4c72b0;stroke:#4c72b0;" x="313.619223" xlink:href="#macd8b2e883" y="76.032122"/>
     <use style="fill:#4c72b0;stroke:#4c72b0;" x="315.640756" xlink:href="#macd8b2e883" y="70.801462"/>
     <use style="fill:#4c72b0;stroke:#4c72b0;" x="317.612647" xlink:href="#macd8b2e883" y="65.223"/>
     <use style="fill:#4c72b0;stroke:#4c72b0;" x="319.67872" xlink:href="#macd8b2e883" y="59.441084"/>
     <use style="fill:#4c72b0;stroke:#4c72b0;" x="321.862296" xlink:href="#macd8b2e883" y="62.237467"/>
     <use style="fill:#4c72b0;stroke:#4c72b0;" x="324.011593" xlink:href="#macd8b2e883" y="76.697356"/>
     <use style="fill:#4c72b0;stroke:#4c72b0;" x="326.398084" xlink:href="#macd8b2e883" y="92.137343"/>
     <use style="fill:#4c72b0;stroke:#4c72b0;" x="329.024868" xlink:href="#macd8b2e883" y="90.583623"/>
     <use style="fill:#4c72b0;stroke:#4c72b0;" x="331.675439" xlink:href="#macd8b2e883" y="83.699837"/>
     <use style="fill:#4c72b0;stroke:#4c72b0;" x="334.36394" xlink:href="#macd8b2e883" y="76.132515"/>
     <use style="fill:#4c72b0;stroke:#4c72b0;" x="337.215677" xlink:href="#macd8b2e883" y="63.573803"/>
     <use style="fill:#4c72b0;stroke:#4c72b0;" x="340.136326" xlink:href="#macd8b2e883" y="61.197605"/>
     <use style="fill:#4c72b0;stroke:#4c72b0;" x="343.046546" xlink:href="#macd8b2e883" y="73.734342"/>
     <use style="fill:#4c72b0;stroke:#4c72b0;" x="345.923217" xlink:href="#macd8b2e883" y="88.674453"/>
     <use style="fill:#4c72b0;stroke:#4c72b0;" x="349.208367" xlink:href="#macd8b2e883" y="96.607002"/>
     <use style="fill:#4c72b0;stroke:#4c72b0;" x="353.197637" xlink:href="#macd8b2e883" y="91.582554"/>
     <use style="fill:#4c72b0;stroke:#4c72b0;" x="357.362719" xlink:href="#macd8b2e883" y="85.773826"/>
     <use style="fill:#4c72b0;stroke:#4c72b0;" x="361.550572" xlink:href="#macd8b2e883" y="79.523098"/>
     <use style="fill:#4c72b0;stroke:#4c72b0;" x="365.596829" xlink:href="#macd8b2e883" y="79.417098"/>
     <use style="fill:#4c72b0;stroke:#4c72b0;" x="369.605787" xlink:href="#macd8b2e883" y="81.279379"/>
     <use style="fill:#4c72b0;stroke:#4c72b0;" x="373.581818" xlink:href="#macd8b2e883" y="85.021075"/>
    </g>
   </g>
   <g id="line2d_13">
    <path clip-path="url(#p0ee2b550c6)" d="M 69.218182 124.282664 
L 75.429685 123.212341 
L 81.641187 122.142018 
L 87.85269 121.071695 
L 94.064193 120.001371 
L 100.275696 118.931048 
L 106.487199 117.860725 
L 112.698701 116.790402 
L 118.910204 115.720079 
L 125.121707 114.649756 
L 131.33321 113.579432 
L 137.544712 112.509109 
L 143.756215 111.438786 
L 149.967718 110.368463 
L 156.179221 109.29814 
L 162.390724 108.227817 
L 168.602226 107.157493 
L 174.813729 106.08717 
L 181.025232 105.016847 
L 187.236735 103.946524 
L 193.448237 102.876201 
L 199.65974 101.805878 
L 205.871243 100.735554 
L 212.082746 99.665231 
L 218.294249 98.594908 
L 224.505751 97.524585 
L 230.717254 96.454262 
L 236.928757 95.383939 
L 243.14026 94.313615 
L 249.351763 93.243292 
L 255.563265 92.172969 
L 261.774768 91.102646 
L 267.986271 90.032323 
L 274.197774 88.962 
L 280.409276 87.891676 
L 286.620779 86.821353 
L 292.832282 85.75103 
L 299.043785 84.680707 
L 305.255288 83.610384 
L 311.46679 82.540061 
L 317.678293 81.469737 
L 323.889796 80.399414 
L 330.101299 79.329091 
L 336.312801 78.258768 
L 342.524304 77.188445 
L 348.735807 76.118122 
L 354.94731 75.047798 
L 361.158813 73.977475 
L 367.370315 72.907152 
L 373.581818 71.836829 
" style="fill:none;stroke:#c44e52;stroke-linecap:round;stroke-width:1.5;"/>
   </g>
   <g id="patch_3">
    <path d="M 54 252 
L 54 34.56 
" style="fill:none;stroke:#ffffff;stroke-linecap:square;stroke-linejoin:miter;stroke-width:1.25;"/>
   </g>
   <g id="patch_4">
    <path d="M 388.8 252 
L 388.8 34.56 
" style="fill:none;stroke:#ffffff;stroke-linecap:square;stroke-linejoin:miter;stroke-width:1.25;"/>
   </g>
   <g id="patch_5">
    <path d="M 54 252 
L 388.8 252 
" style="fill:none;stroke:#ffffff;stroke-linecap:square;stroke-linejoin:miter;stroke-width:1.25;"/>
   </g>
   <g id="patch_6">
    <path d="M 54 34.56 
L 388.8 34.56 
" style="fill:none;stroke:#ffffff;stroke-linecap:square;stroke-linejoin:miter;stroke-width:1.25;"/>
   </g>
  </g>
 </g>
 <defs>
  <clipPath id="p0ee2b550c6">
   <rect height="217.44" width="334.8" x="54" y="34.56"/>
  </clipPath>
 </defs>
</svg>
