<?xml version="1.0" encoding="utf-8" standalone="no"?>
<!DOCTYPE svg PUBLIC "-//W3C//DTD SVG 1.1//EN"
  "http://www.w3.org/Graphics/SVG/1.1/DTD/svg11.dtd">
<!-- Created with matplotlib (https://matplotlib.org/) -->
<svg height="288pt" version="1.1" viewBox="0 0 432 288" width="432pt" xmlns="http://www.w3.org/2000/svg" xmlns:xlink="http://www.w3.org/1999/xlink">
 <defs>
  <style type="text/css">
*{stroke-linecap:butt;stroke-linejoin:round;}
  </style>
 </defs>
 <g id="figure_1">
  <g id="patch_1">
   <path d="M 0 288 
L 432 288 
L 432 0 
L 0 0 
z
" style="fill:#ffffff;"/>
  </g>
  <g id="axes_1">
   <g id="patch_2">
    <path d="M 54 252 
L 388.8 252 
L 388.8 34.56 
L 54 34.56 
z
" style="fill:#eaeaf2;"/>
   </g>
   <g id="matplotlib.axis_1">
    <g id="xtick_1">
     <g id="line2d_1">
      <path clip-path="url(#pe59803801d)" d="M 69.218182 252 
L 69.218182 34.56 
" style="fill:none;stroke:#ffffff;stroke-linecap:round;"/>
     </g>
     <g id="text_1">
      <!-- 0 -->
      <defs>
       <path d="M 31.78125 66.40625 
Q 24.171875 66.40625 20.328125 58.90625 
Q 16.5 51.421875 16.5 36.375 
Q 16.5 21.390625 20.328125 13.890625 
Q 24.171875 6.390625 31.78125 6.390625 
Q 39.453125 6.390625 43.28125 13.890625 
Q 47.125 21.390625 47.125 36.375 
Q 47.125 51.421875 43.28125 58.90625 
Q 39.453125 66.40625 31.78125 66.40625 
z
M 31.78125 74.21875 
Q 44.046875 74.21875 50.515625 64.515625 
Q 56.984375 54.828125 56.984375 36.375 
Q 56.984375 17.96875 50.515625 8.265625 
Q 44.046875 -1.421875 31.78125 -1.421875 
Q 19.53125 -1.421875 13.0625 8.265625 
Q 6.59375 17.96875 6.59375 36.375 
Q 6.59375 54.828125 13.0625 64.515625 
Q 19.53125 74.21875 31.78125 74.21875 
z
" id="DejaVuSans-48"/>
      </defs>
      <g style="fill:#262626;" transform="translate(65.718807 269.858281)scale(0.11 -0.11)">
       <use xlink:href="#DejaVuSans-48"/>
      </g>
     </g>
    </g>
    <g id="xtick_2">
     <g id="line2d_2">
      <path clip-path="url(#pe59803801d)" d="M 118.151242 252 
L 118.151242 34.56 
" style="fill:none;stroke:#ffffff;stroke-linecap:round;"/>
     </g>
     <g id="text_2">
      <!-- 50 -->
      <defs>
       <path d="M 10.796875 72.90625 
L 49.515625 72.90625 
L 49.515625 64.59375 
L 19.828125 64.59375 
L 19.828125 46.734375 
Q 21.96875 47.46875 24.109375 47.828125 
Q 26.265625 48.1875 28.421875 48.1875 
Q 40.625 48.1875 47.75 41.5 
Q 54.890625 34.8125 54.890625 23.390625 
Q 54.890625 11.625 47.5625 5.09375 
Q 40.234375 -1.421875 26.90625 -1.421875 
Q 22.3125 -1.421875 17.546875 -0.640625 
Q 12.796875 0.140625 7.71875 1.703125 
L 7.71875 11.625 
Q 12.109375 9.234375 16.796875 8.0625 
Q 21.484375 6.890625 26.703125 6.890625 
Q 35.15625 6.890625 40.078125 11.328125 
Q 45.015625 15.765625 45.015625 23.390625 
Q 45.015625 31 40.078125 35.4375 
Q 35.15625 39.890625 26.703125 39.890625 
Q 22.75 39.890625 18.8125 39.015625 
Q 14.890625 38.140625 10.796875 36.28125 
z
" id="DejaVuSans-53"/>
      </defs>
      <g style="fill:#262626;" transform="translate(111.152492 269.858281)scale(0.11 -0.11)">
       <use xlink:href="#DejaVuSans-53"/>
       <use x="63.623047" xlink:href="#DejaVuSans-48"/>
      </g>
     </g>
    </g>
    <g id="xtick_3">
     <g id="line2d_3">
      <path clip-path="url(#pe59803801d)" d="M 167.084303 252 
L 167.084303 34.56 
" style="fill:none;stroke:#ffffff;stroke-linecap:round;"/>
     </g>
     <g id="text_3">
      <!-- 100 -->
      <defs>
       <path d="M 12.40625 8.296875 
L 28.515625 8.296875 
L 28.515625 63.921875 
L 10.984375 60.40625 
L 10.984375 69.390625 
L 28.421875 72.90625 
L 38.28125 72.90625 
L 38.28125 8.296875 
L 54.390625 8.296875 
L 54.390625 0 
L 12.40625 0 
z
" id="DejaVuSans-49"/>
      </defs>
      <g style="fill:#262626;" transform="translate(156.586178 269.858281)scale(0.11 -0.11)">
       <use xlink:href="#DejaVuSans-49"/>
       <use x="63.623047" xlink:href="#DejaVuSans-48"/>
       <use x="127.246094" xlink:href="#DejaVuSans-48"/>
      </g>
     </g>
    </g>
    <g id="xtick_4">
     <g id="line2d_4">
      <path clip-path="url(#pe59803801d)" d="M 216.017363 252 
L 216.017363 34.56 
" style="fill:none;stroke:#ffffff;stroke-linecap:round;"/>
     </g>
     <g id="text_4">
      <!-- 150 -->
      <g style="fill:#262626;" transform="translate(205.519238 269.858281)scale(0.11 -0.11)">
       <use xlink:href="#DejaVuSans-49"/>
       <use x="63.623047" xlink:href="#DejaVuSans-53"/>
       <use x="127.246094" xlink:href="#DejaVuSans-48"/>
      </g>
     </g>
    </g>
    <g id="xtick_5">
     <g id="line2d_5">
      <path clip-path="url(#pe59803801d)" d="M 264.950424 252 
L 264.950424 34.56 
" style="fill:none;stroke:#ffffff;stroke-linecap:round;"/>
     </g>
     <g id="text_5">
      <!-- 200 -->
      <defs>
       <path d="M 19.1875 8.296875 
L 53.609375 8.296875 
L 53.609375 0 
L 7.328125 0 
L 7.328125 8.296875 
Q 12.9375 14.109375 22.625 23.890625 
Q 32.328125 33.6875 34.8125 36.53125 
Q 39.546875 41.84375 41.421875 45.53125 
Q 43.3125 49.21875 43.3125 52.78125 
Q 43.3125 58.59375 39.234375 62.25 
Q 35.15625 65.921875 28.609375 65.921875 
Q 23.96875 65.921875 18.8125 64.3125 
Q 13.671875 62.703125 7.8125 59.421875 
L 7.8125 69.390625 
Q 13.765625 71.78125 18.9375 73 
Q 24.125 74.21875 28.421875 74.21875 
Q 39.75 74.21875 46.484375 68.546875 
Q 53.21875 62.890625 53.21875 53.421875 
Q 53.21875 48.921875 51.53125 44.890625 
Q 49.859375 40.875 45.40625 35.40625 
Q 44.1875 33.984375 37.640625 27.21875 
Q 31.109375 20.453125 19.1875 8.296875 
z
" id="DejaVuSans-50"/>
      </defs>
      <g style="fill:#262626;" transform="translate(254.452299 269.858281)scale(0.11 -0.11)">
       <use xlink:href="#DejaVuSans-50"/>
       <use x="63.623047" xlink:href="#DejaVuSans-48"/>
       <use x="127.246094" xlink:href="#DejaVuSans-48"/>
      </g>
     </g>
    </g>
    <g id="xtick_6">
     <g id="line2d_6">
      <path clip-path="url(#pe59803801d)" d="M 313.883484 252 
L 313.883484 34.56 
" style="fill:none;stroke:#ffffff;stroke-linecap:round;"/>
     </g>
     <g id="text_6">
      <!-- 250 -->
      <g style="fill:#262626;" transform="translate(303.385359 269.858281)scale(0.11 -0.11)">
       <use xlink:href="#DejaVuSans-50"/>
       <use x="63.623047" xlink:href="#DejaVuSans-53"/>
       <use x="127.246094" xlink:href="#DejaVuSans-48"/>
      </g>
     </g>
    </g>
    <g id="xtick_7">
     <g id="line2d_7">
      <path clip-path="url(#pe59803801d)" d="M 362.816545 252 
L 362.816545 34.56 
" style="fill:none;stroke:#ffffff;stroke-linecap:round;"/>
     </g>
     <g id="text_7">
      <!-- 300 -->
      <defs>
       <path d="M 40.578125 39.3125 
Q 47.65625 37.796875 51.625 33 
Q 55.609375 28.21875 55.609375 21.1875 
Q 55.609375 10.40625 48.1875 4.484375 
Q 40.765625 -1.421875 27.09375 -1.421875 
Q 22.515625 -1.421875 17.65625 -0.515625 
Q 12.796875 0.390625 7.625 2.203125 
L 7.625 11.71875 
Q 11.71875 9.328125 16.59375 8.109375 
Q 21.484375 6.890625 26.8125 6.890625 
Q 36.078125 6.890625 40.9375 10.546875 
Q 45.796875 14.203125 45.796875 21.1875 
Q 45.796875 27.640625 41.28125 31.265625 
Q 36.765625 34.90625 28.71875 34.90625 
L 20.21875 34.90625 
L 20.21875 43.015625 
L 29.109375 43.015625 
Q 36.375 43.015625 40.234375 45.921875 
Q 44.09375 48.828125 44.09375 54.296875 
Q 44.09375 59.90625 40.109375 62.90625 
Q 36.140625 65.921875 28.71875 65.921875 
Q 24.65625 65.921875 20.015625 65.03125 
Q 15.375 64.15625 9.8125 62.3125 
L 9.8125 71.09375 
Q 15.4375 72.65625 20.34375 73.4375 
Q 25.25 74.21875 29.59375 74.21875 
Q 40.828125 74.21875 47.359375 69.109375 
Q 53.90625 64.015625 53.90625 55.328125 
Q 53.90625 49.265625 50.4375 45.09375 
Q 46.96875 40.921875 40.578125 39.3125 
z
" id="DejaVuSans-51"/>
      </defs>
      <g style="fill:#262626;" transform="translate(352.31842 269.858281)scale(0.11 -0.11)">
       <use xlink:href="#DejaVuSans-51"/>
       <use x="63.623047" xlink:href="#DejaVuSans-48"/>
       <use x="127.246094" xlink:href="#DejaVuSans-48"/>
      </g>
     </g>
    </g>
    <g id="text_8">
     <!-- New Cases per day -->
     <defs>
      <path d="M 9.8125 72.90625 
L 23.09375 72.90625 
L 55.421875 11.921875 
L 55.421875 72.90625 
L 64.984375 72.90625 
L 64.984375 0 
L 51.703125 0 
L 19.390625 60.984375 
L 19.390625 0 
L 9.8125 0 
z
" id="DejaVuSans-78"/>
      <path d="M 56.203125 29.59375 
L 56.203125 25.203125 
L 14.890625 25.203125 
Q 15.484375 15.921875 20.484375 11.0625 
Q 25.484375 6.203125 34.421875 6.203125 
Q 39.59375 6.203125 44.453125 7.46875 
Q 49.3125 8.734375 54.109375 11.28125 
L 54.109375 2.78125 
Q 49.265625 0.734375 44.1875 -0.34375 
Q 39.109375 -1.421875 33.890625 -1.421875 
Q 20.796875 -1.421875 13.15625 6.1875 
Q 5.515625 13.8125 5.515625 26.8125 
Q 5.515625 40.234375 12.765625 48.109375 
Q 20.015625 56 32.328125 56 
Q 43.359375 56 49.78125 48.890625 
Q 56.203125 41.796875 56.203125 29.59375 
z
M 47.21875 32.234375 
Q 47.125 39.59375 43.09375 43.984375 
Q 39.0625 48.390625 32.421875 48.390625 
Q 24.90625 48.390625 20.390625 44.140625 
Q 15.875 39.890625 15.1875 32.171875 
z
" id="DejaVuSans-101"/>
      <path d="M 4.203125 54.6875 
L 13.1875 54.6875 
L 24.421875 12.015625 
L 35.59375 54.6875 
L 46.1875 54.6875 
L 57.421875 12.015625 
L 68.609375 54.6875 
L 77.59375 54.6875 
L 63.28125 0 
L 52.6875 0 
L 40.921875 44.828125 
L 29.109375 0 
L 18.5 0 
z
" id="DejaVuSans-119"/>
      <path id="DejaVuSans-32"/>
      <path d="M 64.40625 67.28125 
L 64.40625 56.890625 
Q 59.421875 61.53125 53.78125 63.8125 
Q 48.140625 66.109375 41.796875 66.109375 
Q 29.296875 66.109375 22.65625 58.46875 
Q 16.015625 50.828125 16.015625 36.375 
Q 16.015625 21.96875 22.65625 14.328125 
Q 29.296875 6.6875 41.796875 6.6875 
Q 48.140625 6.6875 53.78125 8.984375 
Q 59.421875 11.28125 64.40625 15.921875 
L 64.40625 5.609375 
Q 59.234375 2.09375 53.4375 0.328125 
Q 47.65625 -1.421875 41.21875 -1.421875 
Q 24.65625 -1.421875 15.125 8.703125 
Q 5.609375 18.84375 5.609375 36.375 
Q 5.609375 53.953125 15.125 64.078125 
Q 24.65625 74.21875 41.21875 74.21875 
Q 47.75 74.21875 53.53125 72.484375 
Q 59.328125 70.75 64.40625 67.28125 
z
" id="DejaVuSans-67"/>
      <path d="M 34.28125 27.484375 
Q 23.390625 27.484375 19.1875 25 
Q 14.984375 22.515625 14.984375 16.5 
Q 14.984375 11.71875 18.140625 8.90625 
Q 21.296875 6.109375 26.703125 6.109375 
Q 34.1875 6.109375 38.703125 11.40625 
Q 43.21875 16.703125 43.21875 25.484375 
L 43.21875 27.484375 
z
M 52.203125 31.203125 
L 52.203125 0 
L 43.21875 0 
L 43.21875 8.296875 
Q 40.140625 3.328125 35.546875 0.953125 
Q 30.953125 -1.421875 24.3125 -1.421875 
Q 15.921875 -1.421875 10.953125 3.296875 
Q 6 8.015625 6 15.921875 
Q 6 25.140625 12.171875 29.828125 
Q 18.359375 34.515625 30.609375 34.515625 
L 43.21875 34.515625 
L 43.21875 35.40625 
Q 43.21875 41.609375 39.140625 45 
Q 35.0625 48.390625 27.6875 48.390625 
Q 23 48.390625 18.546875 47.265625 
Q 14.109375 46.140625 10.015625 43.890625 
L 10.015625 52.203125 
Q 14.9375 54.109375 19.578125 55.046875 
Q 24.21875 56 28.609375 56 
Q 40.484375 56 46.34375 49.84375 
Q 52.203125 43.703125 52.203125 31.203125 
z
" id="DejaVuSans-97"/>
      <path d="M 44.28125 53.078125 
L 44.28125 44.578125 
Q 40.484375 46.53125 36.375 47.5 
Q 32.28125 48.484375 27.875 48.484375 
Q 21.1875 48.484375 17.84375 46.4375 
Q 14.5 44.390625 14.5 40.28125 
Q 14.5 37.15625 16.890625 35.375 
Q 19.28125 33.59375 26.515625 31.984375 
L 29.59375 31.296875 
Q 39.15625 29.25 43.1875 25.515625 
Q 47.21875 21.78125 47.21875 15.09375 
Q 47.21875 7.46875 41.1875 3.015625 
Q 35.15625 -1.421875 24.609375 -1.421875 
Q 20.21875 -1.421875 15.453125 -0.5625 
Q 10.6875 0.296875 5.421875 2 
L 5.421875 11.28125 
Q 10.40625 8.6875 15.234375 7.390625 
Q 20.0625 6.109375 24.8125 6.109375 
Q 31.15625 6.109375 34.5625 8.28125 
Q 37.984375 10.453125 37.984375 14.40625 
Q 37.984375 18.0625 35.515625 20.015625 
Q 33.0625 21.96875 24.703125 23.78125 
L 21.578125 24.515625 
Q 13.234375 26.265625 9.515625 29.90625 
Q 5.8125 33.546875 5.8125 39.890625 
Q 5.8125 47.609375 11.28125 51.796875 
Q 16.75 56 26.8125 56 
Q 31.78125 56 36.171875 55.265625 
Q 40.578125 54.546875 44.28125 53.078125 
z
" id="DejaVuSans-115"/>
      <path d="M 18.109375 8.203125 
L 18.109375 -20.796875 
L 9.078125 -20.796875 
L 9.078125 54.6875 
L 18.109375 54.6875 
L 18.109375 46.390625 
Q 20.953125 51.265625 25.265625 53.625 
Q 29.59375 56 35.59375 56 
Q 45.5625 56 51.78125 48.09375 
Q 58.015625 40.1875 58.015625 27.296875 
Q 58.015625 14.40625 51.78125 6.484375 
Q 45.5625 -1.421875 35.59375 -1.421875 
Q 29.59375 -1.421875 25.265625 0.953125 
Q 20.953125 3.328125 18.109375 8.203125 
z
M 48.6875 27.296875 
Q 48.6875 37.203125 44.609375 42.84375 
Q 40.53125 48.484375 33.40625 48.484375 
Q 26.265625 48.484375 22.1875 42.84375 
Q 18.109375 37.203125 18.109375 27.296875 
Q 18.109375 17.390625 22.1875 11.75 
Q 26.265625 6.109375 33.40625 6.109375 
Q 40.53125 6.109375 44.609375 11.75 
Q 48.6875 17.390625 48.6875 27.296875 
z
" id="DejaVuSans-112"/>
      <path d="M 41.109375 46.296875 
Q 39.59375 47.171875 37.8125 47.578125 
Q 36.03125 48 33.890625 48 
Q 26.265625 48 22.1875 43.046875 
Q 18.109375 38.09375 18.109375 28.8125 
L 18.109375 0 
L 9.078125 0 
L 9.078125 54.6875 
L 18.109375 54.6875 
L 18.109375 46.1875 
Q 20.953125 51.171875 25.484375 53.578125 
Q 30.03125 56 36.53125 56 
Q 37.453125 56 38.578125 55.875 
Q 39.703125 55.765625 41.0625 55.515625 
z
" id="DejaVuSans-114"/>
      <path d="M 45.40625 46.390625 
L 45.40625 75.984375 
L 54.390625 75.984375 
L 54.390625 0 
L 45.40625 0 
L 45.40625 8.203125 
Q 42.578125 3.328125 38.25 0.953125 
Q 33.9375 -1.421875 27.875 -1.421875 
Q 17.96875 -1.421875 11.734375 6.484375 
Q 5.515625 14.40625 5.515625 27.296875 
Q 5.515625 40.1875 11.734375 48.09375 
Q 17.96875 56 27.875 56 
Q 33.9375 56 38.25 53.625 
Q 42.578125 51.265625 45.40625 46.390625 
z
M 14.796875 27.296875 
Q 14.796875 17.390625 18.875 11.75 
Q 22.953125 6.109375 30.078125 6.109375 
Q 37.203125 6.109375 41.296875 11.75 
Q 45.40625 17.390625 45.40625 27.296875 
Q 45.40625 37.203125 41.296875 42.84375 
Q 37.203125 48.484375 30.078125 48.484375 
Q 22.953125 48.484375 18.875 42.84375 
Q 14.796875 37.203125 14.796875 27.296875 
z
" id="DejaVuSans-100"/>
      <path d="M 32.171875 -5.078125 
Q 28.375 -14.84375 24.75 -17.8125 
Q 21.140625 -20.796875 15.09375 -20.796875 
L 7.90625 -20.796875 
L 7.90625 -13.28125 
L 13.1875 -13.28125 
Q 16.890625 -13.28125 18.9375 -11.515625 
Q 21 -9.765625 23.484375 -3.21875 
L 25.09375 0.875 
L 2.984375 54.6875 
L 12.5 54.6875 
L 29.59375 11.921875 
L 46.6875 54.6875 
L 56.203125 54.6875 
z
" id="DejaVuSans-121"/>
     </defs>
     <g style="fill:#262626;" transform="translate(163.7775 285.264063)scale(0.12 -0.12)">
      <use xlink:href="#DejaVuSans-78"/>
      <use x="74.804688" xlink:href="#DejaVuSans-101"/>
      <use x="136.328125" xlink:href="#DejaVuSans-119"/>
      <use x="218.115234" xlink:href="#DejaVuSans-32"/>
      <use x="249.902344" xlink:href="#DejaVuSans-67"/>
      <use x="319.726562" xlink:href="#DejaVuSans-97"/>
      <use x="381.005859" xlink:href="#DejaVuSans-115"/>
      <use x="433.105469" xlink:href="#DejaVuSans-101"/>
      <use x="494.628906" xlink:href="#DejaVuSans-115"/>
      <use x="546.728516" xlink:href="#DejaVuSans-32"/>
      <use x="578.515625" xlink:href="#DejaVuSans-112"/>
      <use x="641.992188" xlink:href="#DejaVuSans-101"/>
      <use x="703.515625" xlink:href="#DejaVuSans-114"/>
      <use x="744.628906" xlink:href="#DejaVuSans-32"/>
      <use x="776.416016" xlink:href="#DejaVuSans-100"/>
      <use x="839.892578" xlink:href="#DejaVuSans-97"/>
      <use x="901.171875" xlink:href="#DejaVuSans-121"/>
     </g>
    </g>
   </g>
   <g id="matplotlib.axis_2">
    <g id="ytick_1">
     <g id="line2d_8">
      <path clip-path="url(#pe59803801d)" d="M 54 231.45748 
L 388.8 231.45748 
" style="fill:none;stroke:#ffffff;stroke-linecap:round;"/>
     </g>
     <g id="text_9">
      <!-- 75 -->
      <defs>
       <path d="M 8.203125 72.90625 
L 55.078125 72.90625 
L 55.078125 68.703125 
L 28.609375 0 
L 18.3125 0 
L 43.21875 64.59375 
L 8.203125 64.59375 
z
" id="DejaVuSans-55"/>
      </defs>
      <g style="fill:#262626;" transform="translate(30.5025 235.636621)scale(0.11 -0.11)">
       <use xlink:href="#DejaVuSans-55"/>
       <use x="63.623047" xlink:href="#DejaVuSans-53"/>
      </g>
     </g>
    </g>
    <g id="ytick_2">
     <g id="line2d_9">
      <path clip-path="url(#pe59803801d)" d="M 54 193.041347 
L 388.8 193.041347 
" style="fill:none;stroke:#ffffff;stroke-linecap:round;"/>
     </g>
     <g id="text_10">
      <!-- 80 -->
      <defs>
       <path d="M 31.78125 34.625 
Q 24.75 34.625 20.71875 30.859375 
Q 16.703125 27.09375 16.703125 20.515625 
Q 16.703125 13.921875 20.71875 10.15625 
Q 24.75 6.390625 31.78125 6.390625 
Q 38.8125 6.390625 42.859375 10.171875 
Q 46.921875 13.96875 46.921875 20.515625 
Q 46.921875 27.09375 42.890625 30.859375 
Q 38.875 34.625 31.78125 34.625 
z
M 21.921875 38.8125 
Q 15.578125 40.375 12.03125 44.71875 
Q 8.5 49.078125 8.5 55.328125 
Q 8.5 64.0625 14.71875 69.140625 
Q 20.953125 74.21875 31.78125 74.21875 
Q 42.671875 74.21875 48.875 69.140625 
Q 55.078125 64.0625 55.078125 55.328125 
Q 55.078125 49.078125 51.53125 44.71875 
Q 48 40.375 41.703125 38.8125 
Q 48.828125 37.15625 52.796875 32.3125 
Q 56.78125 27.484375 56.78125 20.515625 
Q 56.78125 9.90625 50.3125 4.234375 
Q 43.84375 -1.421875 31.78125 -1.421875 
Q 19.734375 -1.421875 13.25 4.234375 
Q 6.78125 9.90625 6.78125 20.515625 
Q 6.78125 27.484375 10.78125 32.3125 
Q 14.796875 37.15625 21.921875 38.8125 
z
M 18.3125 54.390625 
Q 18.3125 48.734375 21.84375 45.5625 
Q 25.390625 42.390625 31.78125 42.390625 
Q 38.140625 42.390625 41.71875 45.5625 
Q 45.3125 48.734375 45.3125 54.390625 
Q 45.3125 60.0625 41.71875 63.234375 
Q 38.140625 66.40625 31.78125 66.40625 
Q 25.390625 66.40625 21.84375 63.234375 
Q 18.3125 60.0625 18.3125 54.390625 
z
" id="DejaVuSans-56"/>
      </defs>
      <g style="fill:#262626;" transform="translate(30.5025 197.220488)scale(0.11 -0.11)">
       <use xlink:href="#DejaVuSans-56"/>
       <use x="63.623047" xlink:href="#DejaVuSans-48"/>
      </g>
     </g>
    </g>
    <g id="ytick_3">
     <g id="line2d_10">
      <path clip-path="url(#pe59803801d)" d="M 54 154.625214 
L 388.8 154.625214 
" style="fill:none;stroke:#ffffff;stroke-linecap:round;"/>
     </g>
     <g id="text_11">
      <!-- 85 -->
      <g style="fill:#262626;" transform="translate(30.5025 158.804354)scale(0.11 -0.11)">
       <use xlink:href="#DejaVuSans-56"/>
       <use x="63.623047" xlink:href="#DejaVuSans-53"/>
      </g>
     </g>
    </g>
    <g id="ytick_4">
     <g id="line2d_11">
      <path clip-path="url(#pe59803801d)" d="M 54 116.20908 
L 388.8 116.20908 
" style="fill:none;stroke:#ffffff;stroke-linecap:round;"/>
     </g>
     <g id="text_12">
      <!-- 90 -->
      <defs>
       <path d="M 10.984375 1.515625 
L 10.984375 10.5 
Q 14.703125 8.734375 18.5 7.8125 
Q 22.3125 6.890625 25.984375 6.890625 
Q 35.75 6.890625 40.890625 13.453125 
Q 46.046875 20.015625 46.78125 33.40625 
Q 43.953125 29.203125 39.59375 26.953125 
Q 35.25 24.703125 29.984375 24.703125 
Q 19.046875 24.703125 12.671875 31.3125 
Q 6.296875 37.9375 6.296875 49.421875 
Q 6.296875 60.640625 12.9375 67.421875 
Q 19.578125 74.21875 30.609375 74.21875 
Q 43.265625 74.21875 49.921875 64.515625 
Q 56.59375 54.828125 56.59375 36.375 
Q 56.59375 19.140625 48.40625 8.859375 
Q 40.234375 -1.421875 26.421875 -1.421875 
Q 22.703125 -1.421875 18.890625 -0.6875 
Q 15.09375 0.046875 10.984375 1.515625 
z
M 30.609375 32.421875 
Q 37.25 32.421875 41.125 36.953125 
Q 45.015625 41.5 45.015625 49.421875 
Q 45.015625 57.28125 41.125 61.84375 
Q 37.25 66.40625 30.609375 66.40625 
Q 23.96875 66.40625 20.09375 61.84375 
Q 16.21875 57.28125 16.21875 49.421875 
Q 16.21875 41.5 20.09375 36.953125 
Q 23.96875 32.421875 30.609375 32.421875 
z
" id="DejaVuSans-57"/>
      </defs>
      <g style="fill:#262626;" transform="translate(30.5025 120.388221)scale(0.11 -0.11)">
       <use xlink:href="#DejaVuSans-57"/>
       <use x="63.623047" xlink:href="#DejaVuSans-48"/>
      </g>
     </g>
    </g>
    <g id="ytick_5">
     <g id="line2d_12">
      <path clip-path="url(#pe59803801d)" d="M 54 77.792947 
L 388.8 77.792947 
" style="fill:none;stroke:#ffffff;stroke-linecap:round;"/>
     </g>
     <g id="text_13">
      <!-- 95 -->
      <g style="fill:#262626;" transform="translate(30.5025 81.972088)scale(0.11 -0.11)">
       <use xlink:href="#DejaVuSans-57"/>
       <use x="63.623047" xlink:href="#DejaVuSans-53"/>
      </g>
     </g>
    </g>
    <g id="ytick_6">
     <g id="line2d_13">
      <path clip-path="url(#pe59803801d)" d="M 54 39.376814 
L 388.8 39.376814 
" style="fill:none;stroke:#ffffff;stroke-linecap:round;"/>
     </g>
     <g id="text_14">
      <!-- 100 -->
      <g style="fill:#262626;" transform="translate(23.50375 43.555954)scale(0.11 -0.11)">
       <use xlink:href="#DejaVuSans-49"/>
       <use x="63.623047" xlink:href="#DejaVuSans-48"/>
       <use x="127.246094" xlink:href="#DejaVuSans-48"/>
      </g>
     </g>
    </g>
    <g id="text_15">
     <!-- Baseline % of Airport Traffic -->
     <defs>
      <path d="M 19.671875 34.8125 
L 19.671875 8.109375 
L 35.5 8.109375 
Q 43.453125 8.109375 47.28125 11.40625 
Q 51.125 14.703125 51.125 21.484375 
Q 51.125 28.328125 47.28125 31.5625 
Q 43.453125 34.8125 35.5 34.8125 
z
M 19.671875 64.796875 
L 19.671875 42.828125 
L 34.28125 42.828125 
Q 41.5 42.828125 45.03125 45.53125 
Q 48.578125 48.25 48.578125 53.8125 
Q 48.578125 59.328125 45.03125 62.0625 
Q 41.5 64.796875 34.28125 64.796875 
z
M 9.8125 72.90625 
L 35.015625 72.90625 
Q 46.296875 72.90625 52.390625 68.21875 
Q 58.5 63.53125 58.5 54.890625 
Q 58.5 48.1875 55.375 44.234375 
Q 52.25 40.28125 46.1875 39.3125 
Q 53.46875 37.75 57.5 32.78125 
Q 61.53125 27.828125 61.53125 20.40625 
Q 61.53125 10.640625 54.890625 5.3125 
Q 48.25 0 35.984375 0 
L 9.8125 0 
z
" id="DejaVuSans-66"/>
      <path d="M 9.421875 75.984375 
L 18.40625 75.984375 
L 18.40625 0 
L 9.421875 0 
z
" id="DejaVuSans-108"/>
      <path d="M 9.421875 54.6875 
L 18.40625 54.6875 
L 18.40625 0 
L 9.421875 0 
z
M 9.421875 75.984375 
L 18.40625 75.984375 
L 18.40625 64.59375 
L 9.421875 64.59375 
z
" id="DejaVuSans-105"/>
      <path d="M 54.890625 33.015625 
L 54.890625 0 
L 45.90625 0 
L 45.90625 32.71875 
Q 45.90625 40.484375 42.875 44.328125 
Q 39.84375 48.1875 33.796875 48.1875 
Q 26.515625 48.1875 22.3125 43.546875 
Q 18.109375 38.921875 18.109375 30.90625 
L 18.109375 0 
L 9.078125 0 
L 9.078125 54.6875 
L 18.109375 54.6875 
L 18.109375 46.1875 
Q 21.34375 51.125 25.703125 53.5625 
Q 30.078125 56 35.796875 56 
Q 45.21875 56 50.046875 50.171875 
Q 54.890625 44.34375 54.890625 33.015625 
z
" id="DejaVuSans-110"/>
      <path d="M 72.703125 32.078125 
Q 68.453125 32.078125 66.03125 28.46875 
Q 63.625 24.859375 63.625 18.40625 
Q 63.625 12.0625 66.03125 8.421875 
Q 68.453125 4.78125 72.703125 4.78125 
Q 76.859375 4.78125 79.265625 8.421875 
Q 81.6875 12.0625 81.6875 18.40625 
Q 81.6875 24.8125 79.265625 28.4375 
Q 76.859375 32.078125 72.703125 32.078125 
z
M 72.703125 38.28125 
Q 80.421875 38.28125 84.953125 32.90625 
Q 89.5 27.546875 89.5 18.40625 
Q 89.5 9.28125 84.9375 3.921875 
Q 80.375 -1.421875 72.703125 -1.421875 
Q 64.890625 -1.421875 60.34375 3.921875 
Q 55.8125 9.28125 55.8125 18.40625 
Q 55.8125 27.59375 60.375 32.9375 
Q 64.9375 38.28125 72.703125 38.28125 
z
M 22.3125 68.015625 
Q 18.109375 68.015625 15.6875 64.375 
Q 13.28125 60.75 13.28125 54.390625 
Q 13.28125 47.953125 15.671875 44.328125 
Q 18.0625 40.71875 22.3125 40.71875 
Q 26.5625 40.71875 28.96875 44.328125 
Q 31.390625 47.953125 31.390625 54.390625 
Q 31.390625 60.6875 28.953125 64.34375 
Q 26.515625 68.015625 22.3125 68.015625 
z
M 66.40625 74.21875 
L 74.21875 74.21875 
L 28.609375 -1.421875 
L 20.796875 -1.421875 
z
M 22.3125 74.21875 
Q 30.03125 74.21875 34.609375 68.875 
Q 39.203125 63.53125 39.203125 54.390625 
Q 39.203125 45.171875 34.640625 39.84375 
Q 30.078125 34.515625 22.3125 34.515625 
Q 14.546875 34.515625 10.03125 39.859375 
Q 5.515625 45.21875 5.515625 54.390625 
Q 5.515625 63.484375 10.046875 68.84375 
Q 14.59375 74.21875 22.3125 74.21875 
z
" id="DejaVuSans-37"/>
      <path d="M 30.609375 48.390625 
Q 23.390625 48.390625 19.1875 42.75 
Q 14.984375 37.109375 14.984375 27.296875 
Q 14.984375 17.484375 19.15625 11.84375 
Q 23.34375 6.203125 30.609375 6.203125 
Q 37.796875 6.203125 41.984375 11.859375 
Q 46.1875 17.53125 46.1875 27.296875 
Q 46.1875 37.015625 41.984375 42.703125 
Q 37.796875 48.390625 30.609375 48.390625 
z
M 30.609375 56 
Q 42.328125 56 49.015625 48.375 
Q 55.71875 40.765625 55.71875 27.296875 
Q 55.71875 13.875 49.015625 6.21875 
Q 42.328125 -1.421875 30.609375 -1.421875 
Q 18.84375 -1.421875 12.171875 6.21875 
Q 5.515625 13.875 5.515625 27.296875 
Q 5.515625 40.765625 12.171875 48.375 
Q 18.84375 56 30.609375 56 
z
" id="DejaVuSans-111"/>
      <path d="M 37.109375 75.984375 
L 37.109375 68.5 
L 28.515625 68.5 
Q 23.6875 68.5 21.796875 66.546875 
Q 19.921875 64.59375 19.921875 59.515625 
L 19.921875 54.6875 
L 34.71875 54.6875 
L 34.71875 47.703125 
L 19.921875 47.703125 
L 19.921875 0 
L 10.890625 0 
L 10.890625 47.703125 
L 2.296875 47.703125 
L 2.296875 54.6875 
L 10.890625 54.6875 
L 10.890625 58.5 
Q 10.890625 67.625 15.140625 71.796875 
Q 19.390625 75.984375 28.609375 75.984375 
z
" id="DejaVuSans-102"/>
      <path d="M 34.1875 63.1875 
L 20.796875 26.90625 
L 47.609375 26.90625 
z
M 28.609375 72.90625 
L 39.796875 72.90625 
L 67.578125 0 
L 57.328125 0 
L 50.6875 18.703125 
L 17.828125 18.703125 
L 11.1875 0 
L 0.78125 0 
z
" id="DejaVuSans-65"/>
      <path d="M 18.3125 70.21875 
L 18.3125 54.6875 
L 36.8125 54.6875 
L 36.8125 47.703125 
L 18.3125 47.703125 
L 18.3125 18.015625 
Q 18.3125 11.328125 20.140625 9.421875 
Q 21.96875 7.515625 27.59375 7.515625 
L 36.8125 7.515625 
L 36.8125 0 
L 27.59375 0 
Q 17.1875 0 13.234375 3.875 
Q 9.28125 7.765625 9.28125 18.015625 
L 9.28125 47.703125 
L 2.6875 47.703125 
L 2.6875 54.6875 
L 9.28125 54.6875 
L 9.28125 70.21875 
z
" id="DejaVuSans-116"/>
      <path d="M -0.296875 72.90625 
L 61.375 72.90625 
L 61.375 64.59375 
L 35.5 64.59375 
L 35.5 0 
L 25.59375 0 
L 25.59375 64.59375 
L -0.296875 64.59375 
z
" id="DejaVuSans-84"/>
      <path d="M 48.78125 52.59375 
L 48.78125 44.1875 
Q 44.96875 46.296875 41.140625 47.34375 
Q 37.3125 48.390625 33.40625 48.390625 
Q 24.65625 48.390625 19.8125 42.84375 
Q 14.984375 37.3125 14.984375 27.296875 
Q 14.984375 17.28125 19.8125 11.734375 
Q 24.65625 6.203125 33.40625 6.203125 
Q 37.3125 6.203125 41.140625 7.25 
Q 44.96875 8.296875 48.78125 10.40625 
L 48.78125 2.09375 
Q 45.015625 0.34375 40.984375 -0.53125 
Q 36.96875 -1.421875 32.421875 -1.421875 
Q 20.0625 -1.421875 12.78125 6.34375 
Q 5.515625 14.109375 5.515625 27.296875 
Q 5.515625 40.671875 12.859375 48.328125 
Q 20.21875 56 33.015625 56 
Q 37.15625 56 41.109375 55.140625 
Q 45.0625 54.296875 48.78125 52.59375 
z
" id="DejaVuSans-99"/>
     </defs>
     <g style="fill:#262626;" transform="translate(17.008125 227.353125)rotate(-90)scale(0.12 -0.12)">
      <use xlink:href="#DejaVuSans-66"/>
      <use x="68.603516" xlink:href="#DejaVuSans-97"/>
      <use x="129.882812" xlink:href="#DejaVuSans-115"/>
      <use x="181.982422" xlink:href="#DejaVuSans-101"/>
      <use x="243.505859" xlink:href="#DejaVuSans-108"/>
      <use x="271.289062" xlink:href="#DejaVuSans-105"/>
      <use x="299.072266" xlink:href="#DejaVuSans-110"/>
      <use x="362.451172" xlink:href="#DejaVuSans-101"/>
      <use x="423.974609" xlink:href="#DejaVuSans-32"/>
      <use x="455.761719" xlink:href="#DejaVuSans-37"/>
      <use x="550.78125" xlink:href="#DejaVuSans-32"/>
      <use x="582.568359" xlink:href="#DejaVuSans-111"/>
      <use x="643.75" xlink:href="#DejaVuSans-102"/>
      <use x="678.955078" xlink:href="#DejaVuSans-32"/>
      <use x="710.742188" xlink:href="#DejaVuSans-65"/>
      <use x="779.150391" xlink:href="#DejaVuSans-105"/>
      <use x="806.933594" xlink:href="#DejaVuSans-114"/>
      <use x="848.046875" xlink:href="#DejaVuSans-112"/>
      <use x="911.523438" xlink:href="#DejaVuSans-111"/>
      <use x="972.705078" xlink:href="#DejaVuSans-114"/>
      <use x="1013.818359" xlink:href="#DejaVuSans-116"/>
      <use x="1053.027344" xlink:href="#DejaVuSans-32"/>
      <use x="1084.814453" xlink:href="#DejaVuSans-84"/>
      <use x="1145.679688" xlink:href="#DejaVuSans-114"/>
      <use x="1186.792969" xlink:href="#DejaVuSans-97"/>
      <use x="1248.072266" xlink:href="#DejaVuSans-102"/>
      <use x="1283.277344" xlink:href="#DejaVuSans-102"/>
      <use x="1318.482422" xlink:href="#DejaVuSans-105"/>
      <use x="1346.265625" xlink:href="#DejaVuSans-99"/>
     </g>
    </g>
   </g>
   <g id="line2d_14">
    <defs>
     <path d="M 0 1.5 
C 0.397805 1.5 0.77937 1.341951 1.06066 1.06066 
C 1.341951 0.77937 1.5 0.397805 1.5 0 
C 1.5 -0.397805 1.341951 -0.77937 1.06066 -1.06066 
C 0.77937 -1.341951 0.397805 -1.5 0 -1.5 
C -0.397805 -1.5 -0.77937 -1.341951 -1.06066 -1.06066 
C -1.341951 -0.77937 -1.5 -0.397805 -1.5 0 
C -1.5 0.397805 -1.341951 0.77937 -1.06066 1.06066 
C -0.77937 1.341951 -0.397805 1.5 0 1.5 
z
" id="m328867cf5e" style="stroke:#4c72b0;"/>
    </defs>
    <g clip-path="url(#pe59803801d)">
     <use style="fill:#4c72b0;stroke:#4c72b0;" x="69.218182" xlink:href="#m328867cf5e" y="58.59877"/>
     <use style="fill:#4c72b0;stroke:#4c72b0;" x="69.218182" xlink:href="#m328867cf5e" y="56.152028"/>
     <use style="fill:#4c72b0;stroke:#4c72b0;" x="69.218182" xlink:href="#m328867cf5e" y="62.728799"/>
     <use style="fill:#4c72b0;stroke:#4c72b0;" x="69.218182" xlink:href="#m328867cf5e" y="86.335116"/>
     <use style="fill:#4c72b0;stroke:#4c72b0;" x="69.218182" xlink:href="#m328867cf5e" y="99.884893"/>
     <use style="fill:#4c72b0;stroke:#4c72b0;" x="69.218182" xlink:href="#m328867cf5e" y="91.601972"/>
     <use style="fill:#4c72b0;stroke:#4c72b0;" x="69.218182" xlink:href="#m328867cf5e" y="82.964062"/>
     <use style="fill:#4c72b0;stroke:#4c72b0;" x="69.218182" xlink:href="#m328867cf5e" y="77.22563"/>
     <use style="fill:#4c72b0;stroke:#4c72b0;" x="69.218182" xlink:href="#m328867cf5e" y="69.91626"/>
     <use style="fill:#4c72b0;stroke:#4c72b0;" x="69.218182" xlink:href="#m328867cf5e" y="80.47894"/>
     <use style="fill:#4c72b0;stroke:#4c72b0;" x="69.218182" xlink:href="#m328867cf5e" y="105.763485"/>
     <use style="fill:#4c72b0;stroke:#4c72b0;" x="69.218182" xlink:href="#m328867cf5e" y="132.065237"/>
     <use style="fill:#4c72b0;stroke:#4c72b0;" x="69.218182" xlink:href="#m328867cf5e" y="131.312074"/>
     <use style="fill:#4c72b0;stroke:#4c72b0;" x="69.218182" xlink:href="#m328867cf5e" y="107.989269"/>
     <use style="fill:#4c72b0;stroke:#4c72b0;" x="69.218182" xlink:href="#m328867cf5e" y="100.12033"/>
     <use style="fill:#4c72b0;stroke:#4c72b0;" x="69.218182" xlink:href="#m328867cf5e" y="80.384661"/>
     <use style="fill:#4c72b0;stroke:#4c72b0;" x="69.218182" xlink:href="#m328867cf5e" y="66.189775"/>
     <use style="fill:#4c72b0;stroke:#4c72b0;" x="69.218182" xlink:href="#m328867cf5e" y="84.592364"/>
     <use style="fill:#4c72b0;stroke:#4c72b0;" x="69.573027" xlink:href="#m328867cf5e" y="117.95121"/>
     <use style="fill:#4c72b0;stroke:#4c72b0;" x="75.107085" xlink:href="#m328867cf5e" y="145.496454"/>
     <use style="fill:#4c72b0;stroke:#4c72b0;" x="92.674712" xlink:href="#m328867cf5e" y="148.385551"/>
     <use style="fill:#4c72b0;stroke:#4c72b0;" x="116.01716" xlink:href="#m328867cf5e" y="164.642802"/>
     <use style="fill:#4c72b0;stroke:#4c72b0;" x="137.319796" xlink:href="#m328867cf5e" y="162.598937"/>
     <use style="fill:#4c72b0;stroke:#4c72b0;" x="158.868332" xlink:href="#m328867cf5e" y="125.014081"/>
     <use style="fill:#4c72b0;stroke:#4c72b0;" x="184.238871" xlink:href="#m328867cf5e" y="106.987929"/>
     <use style="fill:#4c72b0;stroke:#4c72b0;" x="210.954104" xlink:href="#m328867cf5e" y="110.121965"/>
     <use style="fill:#4c72b0;stroke:#4c72b0;" x="228.991934" xlink:href="#m328867cf5e" y="118.425484"/>
     <use style="fill:#4c72b0;stroke:#4c72b0;" x="245.059464" xlink:href="#m328867cf5e" y="111.39087"/>
     <use style="fill:#4c72b0;stroke:#4c72b0;" x="267.363517" xlink:href="#m328867cf5e" y="101.621317"/>
     <use style="fill:#4c72b0;stroke:#4c72b0;" x="293.034672" xlink:href="#m328867cf5e" y="93.667855"/>
     <use style="fill:#4c72b0;stroke:#4c72b0;" x="313.062752" xlink:href="#m328867cf5e" y="84.767684"/>
     <use style="fill:#4c72b0;stroke:#4c72b0;" x="324.572642" xlink:href="#m328867cf5e" y="87.369093"/>
     <use style="fill:#4c72b0;stroke:#4c72b0;" x="331.179777" xlink:href="#m328867cf5e" y="108.857455"/>
     <use style="fill:#4c72b0;stroke:#4c72b0;" x="328.09584" xlink:href="#m328867cf5e" y="127.008893"/>
     <use style="fill:#4c72b0;stroke:#4c72b0;" x="315.796893" xlink:href="#m328867cf5e" y="115.555773"/>
     <use style="fill:#4c72b0;stroke:#4c72b0;" x="295.099835" xlink:href="#m328867cf5e" y="104.59497"/>
     <use style="fill:#4c72b0;stroke:#4c72b0;" x="278.424272" xlink:href="#m328867cf5e" y="96.749995"/>
     <use style="fill:#4c72b0;stroke:#4c72b0;" x="265.774317" xlink:href="#m328867cf5e" y="80.313202"/>
     <use style="fill:#4c72b0;stroke:#4c72b0;" x="248.443848" xlink:href="#m328867cf5e" y="85.883204"/>
     <use style="fill:#4c72b0;stroke:#4c72b0;" x="228.275027" xlink:href="#m328867cf5e" y="106.216662"/>
     <use style="fill:#4c72b0;stroke:#4c72b0;" x="210.512785" xlink:href="#m328867cf5e" y="106.963418"/>
     <use style="fill:#4c72b0;stroke:#4c72b0;" x="193.46649" xlink:href="#m328867cf5e" y="99.371638"/>
     <use style="fill:#4c72b0;stroke:#4c72b0;" x="171.730865" xlink:href="#m328867cf5e" y="93.471002"/>
     <use style="fill:#4c72b0;stroke:#4c72b0;" x="152.567598" xlink:href="#m328867cf5e" y="86.044775"/>
     <use style="fill:#4c72b0;stroke:#4c72b0;" x="141.242819" xlink:href="#m328867cf5e" y="90.598862"/>
     <use style="fill:#4c72b0;stroke:#4c72b0;" x="136.626365" xlink:href="#m328867cf5e" y="118.487686"/>
     <use style="fill:#4c72b0;stroke:#4c72b0;" x="135.391721" xlink:href="#m328867cf5e" y="143.690103"/>
     <use style="fill:#4c72b0;stroke:#4c72b0;" x="134.75952" xlink:href="#m328867cf5e" y="142.687639"/>
     <use style="fill:#4c72b0;stroke:#4c72b0;" x="133.342771" xlink:href="#m328867cf5e" y="129.688242"/>
     <use style="fill:#4c72b0;stroke:#4c72b0;" x="131.42905" xlink:href="#m328867cf5e" y="114.851684"/>
     <use style="fill:#4c72b0;stroke:#4c72b0;" x="129.382426" xlink:href="#m328867cf5e" y="98.89381"/>
     <use style="fill:#4c72b0;stroke:#4c72b0;" x="126.994238" xlink:href="#m328867cf5e" y="95.448616"/>
     <use style="fill:#4c72b0;stroke:#4c72b0;" x="125.438775" xlink:href="#m328867cf5e" y="114.833797"/>
     <use style="fill:#4c72b0;stroke:#4c72b0;" x="124.638509" xlink:href="#m328867cf5e" y="156.761273"/>
     <use style="fill:#4c72b0;stroke:#4c72b0;" x="123.967003" xlink:href="#m328867cf5e" y="208.224839"/>
     <use style="fill:#4c72b0;stroke:#4c72b0;" x="121.562326" xlink:href="#m328867cf5e" y="242.116364"/>
     <use style="fill:#4c72b0;stroke:#4c72b0;" x="117.151976" xlink:href="#m328867cf5e" y="226.73785"/>
     <use style="fill:#4c72b0;stroke:#4c72b0;" x="112.245283" xlink:href="#m328867cf5e" y="216.995927"/>
     <use style="fill:#4c72b0;stroke:#4c72b0;" x="106.811626" xlink:href="#m328867cf5e" y="196.649888"/>
     <use style="fill:#4c72b0;stroke:#4c72b0;" x="101.544775" xlink:href="#m328867cf5e" y="161.347328"/>
     <use style="fill:#4c72b0;stroke:#4c72b0;" x="98.405122" xlink:href="#m328867cf5e" y="165.849961"/>
     <use style="fill:#4c72b0;stroke:#4c72b0;" x="96.933559" xlink:href="#m328867cf5e" y="174.432655"/>
     <use style="fill:#4c72b0;stroke:#4c72b0;" x="96.12696" xlink:href="#m328867cf5e" y="156.596982"/>
     <use style="fill:#4c72b0;stroke:#4c72b0;" x="95.52391" xlink:href="#m328867cf5e" y="135.809736"/>
     <use style="fill:#4c72b0;stroke:#4c72b0;" x="94.979619" xlink:href="#m328867cf5e" y="117.197184"/>
     <use style="fill:#4c72b0;stroke:#4c72b0;" x="94.291705" xlink:href="#m328867cf5e" y="91.704924"/>
     <use style="fill:#4c72b0;stroke:#4c72b0;" x="92.984703" xlink:href="#m328867cf5e" y="84.049711"/>
     <use style="fill:#4c72b0;stroke:#4c72b0;" x="91.560998" xlink:href="#m328867cf5e" y="94.924225"/>
     <use style="fill:#4c72b0;stroke:#4c72b0;" x="91.340014" xlink:href="#m328867cf5e" y="94.551877"/>
     <use style="fill:#4c72b0;stroke:#4c72b0;" x="90.939522" xlink:href="#m328867cf5e" y="94.283701"/>
     <use style="fill:#4c72b0;stroke:#4c72b0;" x="89.788055" xlink:href="#m328867cf5e" y="97.15171"/>
     <use style="fill:#4c72b0;stroke:#4c72b0;" x="88.345419" xlink:href="#m328867cf5e" y="94.599966"/>
     <use style="fill:#4c72b0;stroke:#4c72b0;" x="87.561363" xlink:href="#m328867cf5e" y="105.407148"/>
     <use style="fill:#4c72b0;stroke:#4c72b0;" x="87.66822" xlink:href="#m328867cf5e" y="123.38537"/>
     <use style="fill:#4c72b0;stroke:#4c72b0;" x="87.753933" xlink:href="#m328867cf5e" y="130.628089"/>
     <use style="fill:#4c72b0;stroke:#4c72b0;" x="89.572343" xlink:href="#m328867cf5e" y="114.522444"/>
     <use style="fill:#4c72b0;stroke:#4c72b0;" x="92.929447" xlink:href="#m328867cf5e" y="98.219223"/>
     <use style="fill:#4c72b0;stroke:#4c72b0;" x="97.08886" xlink:href="#m328867cf5e" y="86.716333"/>
     <use style="fill:#4c72b0;stroke:#4c72b0;" x="100.977399" xlink:href="#m328867cf5e" y="78.3098"/>
     <use style="fill:#4c72b0;stroke:#4c72b0;" x="103.944908" xlink:href="#m328867cf5e" y="93.223582"/>
     <use style="fill:#4c72b0;stroke:#4c72b0;" x="105.782121" xlink:href="#m328867cf5e" y="118.165915"/>
     <use style="fill:#4c72b0;stroke:#4c72b0;" x="107.025351" xlink:href="#m328867cf5e" y="129.249658"/>
     <use style="fill:#4c72b0;stroke:#4c72b0;" x="106.035443" xlink:href="#m328867cf5e" y="112.834883"/>
     <use style="fill:#4c72b0;stroke:#4c72b0;" x="104.67796" xlink:href="#m328867cf5e" y="94.205546"/>
     <use style="fill:#4c72b0;stroke:#4c72b0;" x="104.370537" xlink:href="#m328867cf5e" y="79.35652"/>
     <use style="fill:#4c72b0;stroke:#4c72b0;" x="105.625744" xlink:href="#m328867cf5e" y="68.015168"/>
     <use style="fill:#4c72b0;stroke:#4c72b0;" x="107.440068" xlink:href="#m328867cf5e" y="79.494786"/>
     <use style="fill:#4c72b0;stroke:#4c72b0;" x="108.74058" xlink:href="#m328867cf5e" y="102.555834"/>
     <use style="fill:#4c72b0;stroke:#4c72b0;" x="109.524637" xlink:href="#m328867cf5e" y="126.182858"/>
     <use style="fill:#4c72b0;stroke:#4c72b0;" x="110.249" xlink:href="#m328867cf5e" y="136.071965"/>
     <use style="fill:#4c72b0;stroke:#4c72b0;" x="110.303328" xlink:href="#m328867cf5e" y="130.379423"/>
     <use style="fill:#4c72b0;stroke:#4c72b0;" x="109.336188" xlink:href="#m328867cf5e" y="125.393872"/>
     <use style="fill:#4c72b0;stroke:#4c72b0;" x="107.530598" xlink:href="#m328867cf5e" y="120.664904"/>
     <use style="fill:#4c72b0;stroke:#4c72b0;" x="106.483907" xlink:href="#m328867cf5e" y="111.413335"/>
     <use style="fill:#4c72b0;stroke:#4c72b0;" x="107.743983" xlink:href="#m328867cf5e" y="112.111105"/>
     <use style="fill:#4c72b0;stroke:#4c72b0;" x="110.423833" xlink:href="#m328867cf5e" y="127.651388"/>
     <use style="fill:#4c72b0;stroke:#4c72b0;" x="113.280758" xlink:href="#m328867cf5e" y="142.281071"/>
     <use style="fill:#4c72b0;stroke:#4c72b0;" x="114.59756" xlink:href="#m328867cf5e" y="144.478104"/>
     <use style="fill:#4c72b0;stroke:#4c72b0;" x="114.778524" xlink:href="#m328867cf5e" y="142.285032"/>
     <use style="fill:#4c72b0;stroke:#4c72b0;" x="115.901607" xlink:href="#m328867cf5e" y="143.330585"/>
     <use style="fill:#4c72b0;stroke:#4c72b0;" x="116.335101" xlink:href="#m328867cf5e" y="150.840954"/>
     <use style="fill:#4c72b0;stroke:#4c72b0;" x="112.365564" xlink:href="#m328867cf5e" y="149.438441"/>
     <use style="fill:#4c72b0;stroke:#4c72b0;" x="105.693297" xlink:href="#m328867cf5e" y="152.199714"/>
     <use style="fill:#4c72b0;stroke:#4c72b0;" x="100.751952" xlink:href="#m328867cf5e" y="148.543526"/>
     <use style="fill:#4c72b0;stroke:#4c72b0;" x="101.370893" xlink:href="#m328867cf5e" y="118.582959"/>
     <use style="fill:#4c72b0;stroke:#4c72b0;" x="102.498469" xlink:href="#m328867cf5e" y="89.689876"/>
     <use style="fill:#4c72b0;stroke:#4c72b0;" x="101.661515" xlink:href="#m328867cf5e" y="79.207796"/>
     <use style="fill:#4c72b0;stroke:#4c72b0;" x="103.634635" xlink:href="#m328867cf5e" y="84.171249"/>
     <use style="fill:#4c72b0;stroke:#4c72b0;" x="108.13878" xlink:href="#m328867cf5e" y="101.66469"/>
     <use style="fill:#4c72b0;stroke:#4c72b0;" x="107.771418" xlink:href="#m328867cf5e" y="117.721578"/>
     <use style="fill:#4c72b0;stroke:#4c72b0;" x="103.590745" xlink:href="#m328867cf5e" y="111.292942"/>
     <use style="fill:#4c72b0;stroke:#4c72b0;" x="109.341958" xlink:href="#m328867cf5e" y="96.047404"/>
     <use style="fill:#4c72b0;stroke:#4c72b0;" x="117.689972" xlink:href="#m328867cf5e" y="84.473211"/>
     <use style="fill:#4c72b0;stroke:#4c72b0;" x="125.711289" xlink:href="#m328867cf5e" y="79.450058"/>
     <use style="fill:#4c72b0;stroke:#4c72b0;" x="136.235347" xlink:href="#m328867cf5e" y="87.384026"/>
     <use style="fill:#4c72b0;stroke:#4c72b0;" x="154.086024" xlink:href="#m328867cf5e" y="108.741551"/>
     <use style="fill:#4c72b0;stroke:#4c72b0;" x="170.115177" xlink:href="#m328867cf5e" y="136.863585"/>
     <use style="fill:#4c72b0;stroke:#4c72b0;" x="178.082462" xlink:href="#m328867cf5e" y="153.612968"/>
     <use style="fill:#4c72b0;stroke:#4c72b0;" x="185.322935" xlink:href="#m328867cf5e" y="139.343005"/>
     <use style="fill:#4c72b0;stroke:#4c72b0;" x="192.565379" xlink:href="#m328867cf5e" y="130.991693"/>
     <use style="fill:#4c72b0;stroke:#4c72b0;" x="194.916487" xlink:href="#m328867cf5e" y="127.4885"/>
     <use style="fill:#4c72b0;stroke:#4c72b0;" x="197.19954" xlink:href="#m328867cf5e" y="111.76594"/>
     <use style="fill:#4c72b0;stroke:#4c72b0;" x="196.824326" xlink:href="#m328867cf5e" y="114.298283"/>
     <use style="fill:#4c72b0;stroke:#4c72b0;" x="184.138359" xlink:href="#m328867cf5e" y="124.413762"/>
     <use style="fill:#4c72b0;stroke:#4c72b0;" x="173.499153" xlink:href="#m328867cf5e" y="113.142763"/>
     <use style="fill:#4c72b0;stroke:#4c72b0;" x="169.153761" xlink:href="#m328867cf5e" y="96.888722"/>
     <use style="fill:#4c72b0;stroke:#4c72b0;" x="167.12266" xlink:href="#m328867cf5e" y="81.750204"/>
     <use style="fill:#4c72b0;stroke:#4c72b0;" x="167.682921" xlink:href="#m328867cf5e" y="70.365122"/>
     <use style="fill:#4c72b0;stroke:#4c72b0;" x="166.875547" xlink:href="#m328867cf5e" y="75.179221"/>
     <use style="fill:#4c72b0;stroke:#4c72b0;" x="169.880405" xlink:href="#m328867cf5e" y="90.334166"/>
     <use style="fill:#4c72b0;stroke:#4c72b0;" x="157.361899" xlink:href="#m328867cf5e" y="109.273766"/>
     <use style="fill:#4c72b0;stroke:#4c72b0;" x="137.140432" xlink:href="#m328867cf5e" y="116.023536"/>
     <use style="fill:#4c72b0;stroke:#4c72b0;" x="120.674783" xlink:href="#m328867cf5e" y="110.105936"/>
     <use style="fill:#4c72b0;stroke:#4c72b0;" x="116.60497" xlink:href="#m328867cf5e" y="110.480697"/>
     <use style="fill:#4c72b0;stroke:#4c72b0;" x="112.371019" xlink:href="#m328867cf5e" y="109.887063"/>
     <use style="fill:#4c72b0;stroke:#4c72b0;" x="113.321864" xlink:href="#m328867cf5e" y="104.176556"/>
     <use style="fill:#4c72b0;stroke:#4c72b0;" x="123.46947" xlink:href="#m328867cf5e" y="112.185268"/>
     <use style="fill:#4c72b0;stroke:#4c72b0;" x="131.502433" xlink:href="#m328867cf5e" y="114.839208"/>
     <use style="fill:#4c72b0;stroke:#4c72b0;" x="130.945219" xlink:href="#m328867cf5e" y="98.421"/>
     <use style="fill:#4c72b0;stroke:#4c72b0;" x="136.431238" xlink:href="#m328867cf5e" y="81.732181"/>
     <use style="fill:#4c72b0;stroke:#4c72b0;" x="140.85043" xlink:href="#m328867cf5e" y="67.244993"/>
     <use style="fill:#4c72b0;stroke:#4c72b0;" x="141.21725" xlink:href="#m328867cf5e" y="57.226068"/>
     <use style="fill:#4c72b0;stroke:#4c72b0;" x="143.053461" xlink:href="#m328867cf5e" y="67.517908"/>
     <use style="fill:#4c72b0;stroke:#4c72b0;" x="148.457404" xlink:href="#m328867cf5e" y="87.517568"/>
     <use style="fill:#4c72b0;stroke:#4c72b0;" x="139.783017" xlink:href="#m328867cf5e" y="108.687259"/>
     <use style="fill:#4c72b0;stroke:#4c72b0;" x="121.545423" xlink:href="#m328867cf5e" y="123.48199"/>
     <use style="fill:#4c72b0;stroke:#4c72b0;" x="103.924946" xlink:href="#m328867cf5e" y="121.313366"/>
     <use style="fill:#4c72b0;stroke:#4c72b0;" x="94.852803" xlink:href="#m328867cf5e" y="105.268657"/>
     <use style="fill:#4c72b0;stroke:#4c72b0;" x="85.078716" xlink:href="#m328867cf5e" y="82.140294"/>
     <use style="fill:#4c72b0;stroke:#4c72b0;" x="83.175067" xlink:href="#m328867cf5e" y="75.21698"/>
     <use style="fill:#4c72b0;stroke:#4c72b0;" x="83.682136" xlink:href="#m328867cf5e" y="83.939826"/>
     <use style="fill:#4c72b0;stroke:#4c72b0;" x="84.574652" xlink:href="#m328867cf5e" y="87.55288"/>
     <use style="fill:#4c72b0;stroke:#4c72b0;" x="90.553411" xlink:href="#m328867cf5e" y="81.316131"/>
     <use style="fill:#4c72b0;stroke:#4c72b0;" x="102.139685" xlink:href="#m328867cf5e" y="68.395869"/>
     <use style="fill:#4c72b0;stroke:#4c72b0;" x="118.032917" xlink:href="#m328867cf5e" y="55.016764"/>
     <use style="fill:#4c72b0;stroke:#4c72b0;" x="141.929069" xlink:href="#m328867cf5e" y="47.065741"/>
     <use style="fill:#4c72b0;stroke:#4c72b0;" x="169.022021" xlink:href="#m328867cf5e" y="48.90326"/>
     <use style="fill:#4c72b0;stroke:#4c72b0;" x="195.256955" xlink:href="#m328867cf5e" y="57.510991"/>
     <use style="fill:#4c72b0;stroke:#4c72b0;" x="207.129278" xlink:href="#m328867cf5e" y="61.215461"/>
     <use style="fill:#4c72b0;stroke:#4c72b0;" x="207.672037" xlink:href="#m328867cf5e" y="60.724229"/>
     <use style="fill:#4c72b0;stroke:#4c72b0;" x="208.025498" xlink:href="#m328867cf5e" y="62.039667"/>
     <use style="fill:#4c72b0;stroke:#4c72b0;" x="210.561633" xlink:href="#m328867cf5e" y="64.702433"/>
     <use style="fill:#4c72b0;stroke:#4c72b0;" x="211.020065" xlink:href="#m328867cf5e" y="64.899353"/>
     <use style="fill:#4c72b0;stroke:#4c72b0;" x="208.378662" xlink:href="#m328867cf5e" y="72.625099"/>
     <use style="fill:#4c72b0;stroke:#4c72b0;" x="209.764701" xlink:href="#m328867cf5e" y="97.71753"/>
     <use style="fill:#4c72b0;stroke:#4c72b0;" x="215.510201" xlink:href="#m328867cf5e" y="132.545954"/>
     <use style="fill:#4c72b0;stroke:#4c72b0;" x="237.351266" xlink:href="#m328867cf5e" y="148.642887"/>
     <use style="fill:#4c72b0;stroke:#4c72b0;" x="242.029132" xlink:href="#m328867cf5e" y="146.575448"/>
     <use style="fill:#4c72b0;stroke:#4c72b0;" x="242.694881" xlink:href="#m328867cf5e" y="150.655193"/>
     <use style="fill:#4c72b0;stroke:#4c72b0;" x="250.896949" xlink:href="#m328867cf5e" y="122.957108"/>
     <use style="fill:#4c72b0;stroke:#4c72b0;" x="373.581818" xlink:href="#m328867cf5e" y="84.785035"/>
     <use style="fill:#4c72b0;stroke:#4c72b0;" x="275.715697" xlink:href="#m328867cf5e" y="69.949945"/>
     <use style="fill:#4c72b0;stroke:#4c72b0;" x="225.765891" xlink:href="#m328867cf5e" y="63.094319"/>
     <use style="fill:#4c72b0;stroke:#4c72b0;" x="220.271499" xlink:href="#m328867cf5e" y="55.667017"/>
     <use style="fill:#4c72b0;stroke:#4c72b0;" x="215.234515" xlink:href="#m328867cf5e" y="53.120002"/>
     <use style="fill:#4c72b0;stroke:#4c72b0;" x="206.797444" xlink:href="#m328867cf5e" y="50.342237"/>
     <use style="fill:#4c72b0;stroke:#4c72b0;" x="205.114615" xlink:href="#m328867cf5e" y="44.682765"/>
     <use style="fill:#4c72b0;stroke:#4c72b0;" x="206.618052" xlink:href="#m328867cf5e" y="44.443636"/>
     <use style="fill:#4c72b0;stroke:#4c72b0;" x="199.913476" xlink:href="#m328867cf5e" y="49.00187"/>
     <use style="fill:#4c72b0;stroke:#4c72b0;" x="198.505934" xlink:href="#m328867cf5e" y="51.073366"/>
     <use style="fill:#4c72b0;stroke:#4c72b0;" x="203.250348" xlink:href="#m328867cf5e" y="50.195275"/>
     <use style="fill:#4c72b0;stroke:#4c72b0;" x="203.502066" xlink:href="#m328867cf5e" y="49.663458"/>
     <use style="fill:#4c72b0;stroke:#4c72b0;" x="203.792944" xlink:href="#m328867cf5e" y="50.652252"/>
     <use style="fill:#4c72b0;stroke:#4c72b0;" x="209.697294" xlink:href="#m328867cf5e" y="53.072795"/>
     <use style="fill:#4c72b0;stroke:#4c72b0;" x="215.802727" xlink:href="#m328867cf5e" y="61.31878"/>
     <use style="fill:#4c72b0;stroke:#4c72b0;" x="218.165047" xlink:href="#m328867cf5e" y="74.407026"/>
     <use style="fill:#4c72b0;stroke:#4c72b0;" x="220.141061" xlink:href="#m328867cf5e" y="79.405464"/>
     <use style="fill:#4c72b0;stroke:#4c72b0;" x="220.886383" xlink:href="#m328867cf5e" y="76.032122"/>
     <use style="fill:#4c72b0;stroke:#4c72b0;" x="222.114417" xlink:href="#m328867cf5e" y="70.801462"/>
     <use style="fill:#4c72b0;stroke:#4c72b0;" x="222.946784" xlink:href="#m328867cf5e" y="65.223"/>
     <use style="fill:#4c72b0;stroke:#4c72b0;" x="224.393767" xlink:href="#m328867cf5e" y="59.441084"/>
     <use style="fill:#4c72b0;stroke:#4c72b0;" x="222.845855" xlink:href="#m328867cf5e" y="62.237467"/>
     <use style="fill:#4c72b0;stroke:#4c72b0;" x="214.782884" xlink:href="#m328867cf5e" y="76.697356"/>
     <use style="fill:#4c72b0;stroke:#4c72b0;" x="230.14025" xlink:href="#m328867cf5e" y="92.137343"/>
     <use style="fill:#4c72b0;stroke:#4c72b0;" x="258.751323" xlink:href="#m328867cf5e" y="90.583623"/>
     <use style="fill:#4c72b0;stroke:#4c72b0;" x="281.562533" xlink:href="#m328867cf5e" y="83.699837"/>
     <use style="fill:#4c72b0;stroke:#4c72b0;" x="300.550852" xlink:href="#m328867cf5e" y="76.132515"/>
     <use style="fill:#4c72b0;stroke:#4c72b0;" x="326.030963" xlink:href="#m328867cf5e" y="63.573803"/>
     <use style="fill:#4c72b0;stroke:#4c72b0;" x="345.57931" xlink:href="#m328867cf5e" y="61.197605"/>
     <use style="fill:#4c72b0;stroke:#4c72b0;" x="347.137703" xlink:href="#m328867cf5e" y="73.734342"/>
     <use style="fill:#4c72b0;stroke:#4c72b0;" x="348.020731" xlink:href="#m328867cf5e" y="88.674453"/>
     <use style="fill:#4c72b0;stroke:#4c72b0;" x="338.511734" xlink:href="#m328867cf5e" y="96.607002"/>
     <use style="fill:#4c72b0;stroke:#4c72b0;" x="331.431115" xlink:href="#m328867cf5e" y="91.582554"/>
     <use style="fill:#4c72b0;stroke:#4c72b0;" x="325.654908" xlink:href="#m328867cf5e" y="85.773826"/>
     <use style="fill:#4c72b0;stroke:#4c72b0;" x="314.939869" xlink:href="#m328867cf5e" y="79.523098"/>
     <use style="fill:#4c72b0;stroke:#4c72b0;" x="320.55328" xlink:href="#m328867cf5e" y="79.417098"/>
     <use style="fill:#4c72b0;stroke:#4c72b0;" x="337.097302" xlink:href="#m328867cf5e" y="81.279379"/>
     <use style="fill:#4c72b0;stroke:#4c72b0;" x="361.137701" xlink:href="#m328867cf5e" y="85.021075"/>
    </g>
   </g>
   <g id="line2d_15">
    <path clip-path="url(#pe59803801d)" d="M 69.218182 112.103888 
L 75.429685 111.386753 
L 81.641187 110.669618 
L 87.85269 109.952484 
L 94.064193 109.235349 
L 100.275696 108.518214 
L 106.487199 107.801079 
L 112.698701 107.083944 
L 118.910204 106.366809 
L 125.121707 105.649674 
L 131.33321 104.93254 
L 137.544712 104.215405 
L 143.756215 103.49827 
L 149.967718 102.781135 
L 156.179221 102.064 
L 162.390724 101.346865 
L 168.602226 100.62973 
L 174.813729 99.912596 
L 181.025232 99.195461 
L 187.236735 98.478326 
L 193.448237 97.761191 
L 199.65974 97.044056 
L 205.871243 96.326921 
L 212.082746 95.609786 
L 218.294249 94.892652 
L 224.505751 94.175517 
L 230.717254 93.458382 
L 236.928757 92.741247 
L 243.14026 92.024112 
L 249.351763 91.306977 
L 255.563265 90.589842 
L 261.774768 89.872708 
L 267.986271 89.155573 
L 274.197774 88.438438 
L 280.409276 87.721303 
L 286.620779 87.004168 
L 292.832282 86.287033 
L 299.043785 85.569898 
L 305.255288 84.852764 
L 311.46679 84.135629 
L 317.678293 83.418494 
L 323.889796 82.701359 
L 330.101299 81.984224 
L 336.312801 81.267089 
L 342.524304 80.549954 
L 348.735807 79.83282 
L 354.94731 79.115685 
L 361.158813 78.39855 
L 367.370315 77.681415 
L 373.581818 76.96428 
" style="fill:none;stroke:#c44e52;stroke-linecap:round;stroke-width:1.5;"/>
   </g>
   <g id="patch_3">
    <path d="M 54 252 
L 54 34.56 
" style="fill:none;stroke:#ffffff;stroke-linecap:square;stroke-linejoin:miter;stroke-width:1.25;"/>
   </g>
   <g id="patch_4">
    <path d="M 388.8 252 
L 388.8 34.56 
" style="fill:none;stroke:#ffffff;stroke-linecap:square;stroke-linejoin:miter;stroke-width:1.25;"/>
   </g>
   <g id="patch_5">
    <path d="M 54 252 
L 388.8 252 
" style="fill:none;stroke:#ffffff;stroke-linecap:square;stroke-linejoin:miter;stroke-width:1.25;"/>
   </g>
   <g id="patch_6">
    <path d="M 54 34.56 
L 388.8 34.56 
" style="fill:none;stroke:#ffffff;stroke-linecap:square;stroke-linejoin:miter;stroke-width:1.25;"/>
   </g>
  </g>
 </g>
 <defs>
  <clipPath id="pe59803801d">
   <rect height="217.44" width="334.8" x="54" y="34.56"/>
  </clipPath>
 </defs>
</svg>
