<?xml version="1.0" encoding="utf-8" standalone="no"?>
<!DOCTYPE svg PUBLIC "-//W3C//DTD SVG 1.1//EN"
  "http://www.w3.org/Graphics/SVG/1.1/DTD/svg11.dtd">
<!-- Created with matplotlib (https://matplotlib.org/) -->
<svg height="288pt" version="1.1" viewBox="0 0 432 288" width="432pt" xmlns="http://www.w3.org/2000/svg" xmlns:xlink="http://www.w3.org/1999/xlink">
 <defs>
  <style type="text/css">
*{stroke-linecap:butt;stroke-linejoin:round;}
  </style>
 </defs>
 <g id="figure_1">
  <g id="patch_1">
   <path d="M 0 288 
L 432 288 
L 432 0 
L 0 0 
z
" style="fill:#ffffff;"/>
  </g>
  <g id="axes_1">
   <g id="patch_2">
    <path d="M 54 252 
L 388.8 252 
L 388.8 34.56 
L 54 34.56 
z
" style="fill:#eaeaf2;"/>
   </g>
   <g id="matplotlib.axis_1">
    <g id="xtick_1">
     <g id="line2d_1">
      <path clip-path="url(#p9bdc98b0fb)" d="M 69.218182 252 
L 69.218182 34.56 
" style="fill:none;stroke:#ffffff;stroke-linecap:round;"/>
     </g>
     <g id="text_1">
      <!-- 0 -->
      <defs>
       <path d="M 31.78125 66.40625 
Q 24.171875 66.40625 20.328125 58.90625 
Q 16.5 51.421875 16.5 36.375 
Q 16.5 21.390625 20.328125 13.890625 
Q 24.171875 6.390625 31.78125 6.390625 
Q 39.453125 6.390625 43.28125 13.890625 
Q 47.125 21.390625 47.125 36.375 
Q 47.125 51.421875 43.28125 58.90625 
Q 39.453125 66.40625 31.78125 66.40625 
z
M 31.78125 74.21875 
Q 44.046875 74.21875 50.515625 64.515625 
Q 56.984375 54.828125 56.984375 36.375 
Q 56.984375 17.96875 50.515625 8.265625 
Q 44.046875 -1.421875 31.78125 -1.421875 
Q 19.53125 -1.421875 13.0625 8.265625 
Q 6.59375 17.96875 6.59375 36.375 
Q 6.59375 54.828125 13.0625 64.515625 
Q 19.53125 74.21875 31.78125 74.21875 
z
" id="DejaVuSans-48"/>
      </defs>
      <g style="fill:#262626;" transform="translate(65.718807 269.858281)scale(0.11 -0.11)">
       <use xlink:href="#DejaVuSans-48"/>
      </g>
     </g>
    </g>
    <g id="xtick_2">
     <g id="line2d_2">
      <path clip-path="url(#p9bdc98b0fb)" d="M 136.110488 252 
L 136.110488 34.56 
" style="fill:none;stroke:#ffffff;stroke-linecap:round;"/>
     </g>
     <g id="text_2">
      <!-- 20000 -->
      <defs>
       <path d="M 19.1875 8.296875 
L 53.609375 8.296875 
L 53.609375 0 
L 7.328125 0 
L 7.328125 8.296875 
Q 12.9375 14.109375 22.625 23.890625 
Q 32.328125 33.6875 34.8125 36.53125 
Q 39.546875 41.84375 41.421875 45.53125 
Q 43.3125 49.21875 43.3125 52.78125 
Q 43.3125 58.59375 39.234375 62.25 
Q 35.15625 65.921875 28.609375 65.921875 
Q 23.96875 65.921875 18.8125 64.3125 
Q 13.671875 62.703125 7.8125 59.421875 
L 7.8125 69.390625 
Q 13.765625 71.78125 18.9375 73 
Q 24.125 74.21875 28.421875 74.21875 
Q 39.75 74.21875 46.484375 68.546875 
Q 53.21875 62.890625 53.21875 53.421875 
Q 53.21875 48.921875 51.53125 44.890625 
Q 49.859375 40.875 45.40625 35.40625 
Q 44.1875 33.984375 37.640625 27.21875 
Q 31.109375 20.453125 19.1875 8.296875 
z
" id="DejaVuSans-50"/>
      </defs>
      <g style="fill:#262626;" transform="translate(118.613613 269.858281)scale(0.11 -0.11)">
       <use xlink:href="#DejaVuSans-50"/>
       <use x="63.623047" xlink:href="#DejaVuSans-48"/>
       <use x="127.246094" xlink:href="#DejaVuSans-48"/>
       <use x="190.869141" xlink:href="#DejaVuSans-48"/>
       <use x="254.492188" xlink:href="#DejaVuSans-48"/>
      </g>
     </g>
    </g>
    <g id="xtick_3">
     <g id="line2d_3">
      <path clip-path="url(#p9bdc98b0fb)" d="M 203.002793 252 
L 203.002793 34.56 
" style="fill:none;stroke:#ffffff;stroke-linecap:round;"/>
     </g>
     <g id="text_3">
      <!-- 40000 -->
      <defs>
       <path d="M 37.796875 64.3125 
L 12.890625 25.390625 
L 37.796875 25.390625 
z
M 35.203125 72.90625 
L 47.609375 72.90625 
L 47.609375 25.390625 
L 58.015625 25.390625 
L 58.015625 17.1875 
L 47.609375 17.1875 
L 47.609375 0 
L 37.796875 0 
L 37.796875 17.1875 
L 4.890625 17.1875 
L 4.890625 26.703125 
z
" id="DejaVuSans-52"/>
      </defs>
      <g style="fill:#262626;" transform="translate(185.505918 269.858281)scale(0.11 -0.11)">
       <use xlink:href="#DejaVuSans-52"/>
       <use x="63.623047" xlink:href="#DejaVuSans-48"/>
       <use x="127.246094" xlink:href="#DejaVuSans-48"/>
       <use x="190.869141" xlink:href="#DejaVuSans-48"/>
       <use x="254.492188" xlink:href="#DejaVuSans-48"/>
      </g>
     </g>
    </g>
    <g id="xtick_4">
     <g id="line2d_4">
      <path clip-path="url(#p9bdc98b0fb)" d="M 269.895099 252 
L 269.895099 34.56 
" style="fill:none;stroke:#ffffff;stroke-linecap:round;"/>
     </g>
     <g id="text_4">
      <!-- 60000 -->
      <defs>
       <path d="M 33.015625 40.375 
Q 26.375 40.375 22.484375 35.828125 
Q 18.609375 31.296875 18.609375 23.390625 
Q 18.609375 15.53125 22.484375 10.953125 
Q 26.375 6.390625 33.015625 6.390625 
Q 39.65625 6.390625 43.53125 10.953125 
Q 47.40625 15.53125 47.40625 23.390625 
Q 47.40625 31.296875 43.53125 35.828125 
Q 39.65625 40.375 33.015625 40.375 
z
M 52.59375 71.296875 
L 52.59375 62.3125 
Q 48.875 64.0625 45.09375 64.984375 
Q 41.3125 65.921875 37.59375 65.921875 
Q 27.828125 65.921875 22.671875 59.328125 
Q 17.53125 52.734375 16.796875 39.40625 
Q 19.671875 43.65625 24.015625 45.921875 
Q 28.375 48.1875 33.59375 48.1875 
Q 44.578125 48.1875 50.953125 41.515625 
Q 57.328125 34.859375 57.328125 23.390625 
Q 57.328125 12.15625 50.6875 5.359375 
Q 44.046875 -1.421875 33.015625 -1.421875 
Q 20.359375 -1.421875 13.671875 8.265625 
Q 6.984375 17.96875 6.984375 36.375 
Q 6.984375 53.65625 15.1875 63.9375 
Q 23.390625 74.21875 37.203125 74.21875 
Q 40.921875 74.21875 44.703125 73.484375 
Q 48.484375 72.75 52.59375 71.296875 
z
" id="DejaVuSans-54"/>
      </defs>
      <g style="fill:#262626;" transform="translate(252.398224 269.858281)scale(0.11 -0.11)">
       <use xlink:href="#DejaVuSans-54"/>
       <use x="63.623047" xlink:href="#DejaVuSans-48"/>
       <use x="127.246094" xlink:href="#DejaVuSans-48"/>
       <use x="190.869141" xlink:href="#DejaVuSans-48"/>
       <use x="254.492188" xlink:href="#DejaVuSans-48"/>
      </g>
     </g>
    </g>
    <g id="xtick_5">
     <g id="line2d_5">
      <path clip-path="url(#p9bdc98b0fb)" d="M 336.787405 252 
L 336.787405 34.56 
" style="fill:none;stroke:#ffffff;stroke-linecap:round;"/>
     </g>
     <g id="text_5">
      <!-- 80000 -->
      <defs>
       <path d="M 31.78125 34.625 
Q 24.75 34.625 20.71875 30.859375 
Q 16.703125 27.09375 16.703125 20.515625 
Q 16.703125 13.921875 20.71875 10.15625 
Q 24.75 6.390625 31.78125 6.390625 
Q 38.8125 6.390625 42.859375 10.171875 
Q 46.921875 13.96875 46.921875 20.515625 
Q 46.921875 27.09375 42.890625 30.859375 
Q 38.875 34.625 31.78125 34.625 
z
M 21.921875 38.8125 
Q 15.578125 40.375 12.03125 44.71875 
Q 8.5 49.078125 8.5 55.328125 
Q 8.5 64.0625 14.71875 69.140625 
Q 20.953125 74.21875 31.78125 74.21875 
Q 42.671875 74.21875 48.875 69.140625 
Q 55.078125 64.0625 55.078125 55.328125 
Q 55.078125 49.078125 51.53125 44.71875 
Q 48 40.375 41.703125 38.8125 
Q 48.828125 37.15625 52.796875 32.3125 
Q 56.78125 27.484375 56.78125 20.515625 
Q 56.78125 9.90625 50.3125 4.234375 
Q 43.84375 -1.421875 31.78125 -1.421875 
Q 19.734375 -1.421875 13.25 4.234375 
Q 6.78125 9.90625 6.78125 20.515625 
Q 6.78125 27.484375 10.78125 32.3125 
Q 14.796875 37.15625 21.921875 38.8125 
z
M 18.3125 54.390625 
Q 18.3125 48.734375 21.84375 45.5625 
Q 25.390625 42.390625 31.78125 42.390625 
Q 38.140625 42.390625 41.71875 45.5625 
Q 45.3125 48.734375 45.3125 54.390625 
Q 45.3125 60.0625 41.71875 63.234375 
Q 38.140625 66.40625 31.78125 66.40625 
Q 25.390625 66.40625 21.84375 63.234375 
Q 18.3125 60.0625 18.3125 54.390625 
z
" id="DejaVuSans-56"/>
      </defs>
      <g style="fill:#262626;" transform="translate(319.29053 269.858281)scale(0.11 -0.11)">
       <use xlink:href="#DejaVuSans-56"/>
       <use x="63.623047" xlink:href="#DejaVuSans-48"/>
       <use x="127.246094" xlink:href="#DejaVuSans-48"/>
       <use x="190.869141" xlink:href="#DejaVuSans-48"/>
       <use x="254.492188" xlink:href="#DejaVuSans-48"/>
      </g>
     </g>
    </g>
   </g>
   <g id="matplotlib.axis_2">
    <g id="ytick_1">
     <g id="line2d_6">
      <path clip-path="url(#p9bdc98b0fb)" d="M 54 241.734878 
L 388.8 241.734878 
" style="fill:none;stroke:#ffffff;stroke-linecap:round;"/>
     </g>
     <g id="text_6">
      <!-- 40 -->
      <g style="fill:#262626;" transform="translate(30.5025 245.914019)scale(0.11 -0.11)">
       <use xlink:href="#DejaVuSans-52"/>
       <use x="63.623047" xlink:href="#DejaVuSans-48"/>
      </g>
     </g>
    </g>
    <g id="ytick_2">
     <g id="line2d_7">
      <path clip-path="url(#p9bdc98b0fb)" d="M 54 203.836704 
L 388.8 203.836704 
" style="fill:none;stroke:#ffffff;stroke-linecap:round;"/>
     </g>
     <g id="text_7">
      <!-- 50 -->
      <defs>
       <path d="M 10.796875 72.90625 
L 49.515625 72.90625 
L 49.515625 64.59375 
L 19.828125 64.59375 
L 19.828125 46.734375 
Q 21.96875 47.46875 24.109375 47.828125 
Q 26.265625 48.1875 28.421875 48.1875 
Q 40.625 48.1875 47.75 41.5 
Q 54.890625 34.8125 54.890625 23.390625 
Q 54.890625 11.625 47.5625 5.09375 
Q 40.234375 -1.421875 26.90625 -1.421875 
Q 22.3125 -1.421875 17.546875 -0.640625 
Q 12.796875 0.140625 7.71875 1.703125 
L 7.71875 11.625 
Q 12.109375 9.234375 16.796875 8.0625 
Q 21.484375 6.890625 26.703125 6.890625 
Q 35.15625 6.890625 40.078125 11.328125 
Q 45.015625 15.765625 45.015625 23.390625 
Q 45.015625 31 40.078125 35.4375 
Q 35.15625 39.890625 26.703125 39.890625 
Q 22.75 39.890625 18.8125 39.015625 
Q 14.890625 38.140625 10.796875 36.28125 
z
" id="DejaVuSans-53"/>
      </defs>
      <g style="fill:#262626;" transform="translate(30.5025 208.015845)scale(0.11 -0.11)">
       <use xlink:href="#DejaVuSans-53"/>
       <use x="63.623047" xlink:href="#DejaVuSans-48"/>
      </g>
     </g>
    </g>
    <g id="ytick_3">
     <g id="line2d_8">
      <path clip-path="url(#p9bdc98b0fb)" d="M 54 165.93853 
L 388.8 165.93853 
" style="fill:none;stroke:#ffffff;stroke-linecap:round;"/>
     </g>
     <g id="text_8">
      <!-- 60 -->
      <g style="fill:#262626;" transform="translate(30.5025 170.11767)scale(0.11 -0.11)">
       <use xlink:href="#DejaVuSans-54"/>
       <use x="63.623047" xlink:href="#DejaVuSans-48"/>
      </g>
     </g>
    </g>
    <g id="ytick_4">
     <g id="line2d_9">
      <path clip-path="url(#p9bdc98b0fb)" d="M 54 128.040355 
L 388.8 128.040355 
" style="fill:none;stroke:#ffffff;stroke-linecap:round;"/>
     </g>
     <g id="text_9">
      <!-- 70 -->
      <defs>
       <path d="M 8.203125 72.90625 
L 55.078125 72.90625 
L 55.078125 68.703125 
L 28.609375 0 
L 18.3125 0 
L 43.21875 64.59375 
L 8.203125 64.59375 
z
" id="DejaVuSans-55"/>
      </defs>
      <g style="fill:#262626;" transform="translate(30.5025 132.219496)scale(0.11 -0.11)">
       <use xlink:href="#DejaVuSans-55"/>
       <use x="63.623047" xlink:href="#DejaVuSans-48"/>
      </g>
     </g>
    </g>
    <g id="ytick_5">
     <g id="line2d_10">
      <path clip-path="url(#p9bdc98b0fb)" d="M 54 90.142181 
L 388.8 90.142181 
" style="fill:none;stroke:#ffffff;stroke-linecap:round;"/>
     </g>
     <g id="text_10">
      <!-- 80 -->
      <g style="fill:#262626;" transform="translate(30.5025 94.321321)scale(0.11 -0.11)">
       <use xlink:href="#DejaVuSans-56"/>
       <use x="63.623047" xlink:href="#DejaVuSans-48"/>
      </g>
     </g>
    </g>
    <g id="ytick_6">
     <g id="line2d_11">
      <path clip-path="url(#p9bdc98b0fb)" d="M 54 52.244006 
L 388.8 52.244006 
" style="fill:none;stroke:#ffffff;stroke-linecap:round;"/>
     </g>
     <g id="text_11">
      <!-- 90 -->
      <defs>
       <path d="M 10.984375 1.515625 
L 10.984375 10.5 
Q 14.703125 8.734375 18.5 7.8125 
Q 22.3125 6.890625 25.984375 6.890625 
Q 35.75 6.890625 40.890625 13.453125 
Q 46.046875 20.015625 46.78125 33.40625 
Q 43.953125 29.203125 39.59375 26.953125 
Q 35.25 24.703125 29.984375 24.703125 
Q 19.046875 24.703125 12.671875 31.3125 
Q 6.296875 37.9375 6.296875 49.421875 
Q 6.296875 60.640625 12.9375 67.421875 
Q 19.578125 74.21875 30.609375 74.21875 
Q 43.265625 74.21875 49.921875 64.515625 
Q 56.59375 54.828125 56.59375 36.375 
Q 56.59375 19.140625 48.40625 8.859375 
Q 40.234375 -1.421875 26.421875 -1.421875 
Q 22.703125 -1.421875 18.890625 -0.6875 
Q 15.09375 0.046875 10.984375 1.515625 
z
M 30.609375 32.421875 
Q 37.25 32.421875 41.125 36.953125 
Q 45.015625 41.5 45.015625 49.421875 
Q 45.015625 57.28125 41.125 61.84375 
Q 37.25 66.40625 30.609375 66.40625 
Q 23.96875 66.40625 20.09375 61.84375 
Q 16.21875 57.28125 16.21875 49.421875 
Q 16.21875 41.5 20.09375 36.953125 
Q 23.96875 32.421875 30.609375 32.421875 
z
" id="DejaVuSans-57"/>
      </defs>
      <g style="fill:#262626;" transform="translate(30.5025 56.423147)scale(0.11 -0.11)">
       <use xlink:href="#DejaVuSans-57"/>
       <use x="63.623047" xlink:href="#DejaVuSans-48"/>
      </g>
     </g>
    </g>
   </g>
   <g id="line2d_12">
    <path clip-path="url(#p9bdc98b0fb)" d="M 69.218182 124.965552 
L 75.429685 133.787232 
L 81.641187 141.574085 
L 87.85269 148.366362 
L 94.064193 154.204319 
L 100.275696 159.128206 
L 106.487199 163.178277 
L 112.698701 166.394786 
L 118.910204 168.817984 
L 125.121707 170.488126 
L 131.33321 171.445464 
L 137.544712 171.73025 
L 143.756215 171.382739 
L 149.967718 170.443182 
L 156.179221 168.951833 
L 162.390724 166.948945 
L 168.602226 164.47477 
L 174.813729 161.569563 
L 181.025232 158.273575 
L 187.236735 154.627059 
L 193.448237 150.670269 
L 199.65974 146.443458 
L 205.871243 141.986878 
L 212.082746 137.340782 
L 218.294249 132.545424 
L 224.505751 127.641056 
L 230.717254 122.667931 
L 236.928757 117.666303 
L 243.14026 112.676424 
L 249.351763 107.738547 
L 255.563265 102.892925 
L 261.774768 98.179811 
L 267.986271 93.639458 
L 274.197774 89.312119 
L 280.409276 85.238047 
L 286.620779 81.457495 
L 292.832282 78.010716 
L 299.043785 74.937962 
L 305.255288 72.279488 
L 311.46679 70.075545 
L 317.678293 68.366387 
L 323.889796 67.192266 
L 330.101299 66.593436 
L 336.312801 66.610149 
L 342.524304 67.282659 
L 348.735807 68.651219 
L 354.94731 70.756081 
L 361.158813 73.637498 
L 367.370315 77.335723 
L 373.581818 81.89101 
" style="fill:none;stroke:#c44e52;stroke-linecap:round;stroke-width:1.5;"/>
   </g>
   <g id="line2d_13">
    <defs>
     <path d="M 0 1.5 
C 0.397805 1.5 0.77937 1.341951 1.06066 1.06066 
C 1.341951 0.77937 1.5 0.397805 1.5 0 
C 1.5 -0.397805 1.341951 -0.77937 1.06066 -1.06066 
C 0.77937 -1.341951 0.397805 -1.5 0 -1.5 
C -0.397805 -1.5 -0.77937 -1.341951 -1.06066 -1.06066 
C -1.341951 -0.77937 -1.5 -0.397805 -1.5 0 
C -1.5 0.397805 -1.341951 0.77937 -1.06066 1.06066 
C -0.77937 1.341951 -0.397805 1.5 0 1.5 
z
" id="m6dc9e99762" style="stroke:#4c72b0;"/>
    </defs>
    <g clip-path="url(#p9bdc98b0fb)">
     <use style="fill:#4c72b0;stroke:#4c72b0;" x="70.05195" xlink:href="#m6dc9e99762" y="61.700918"/>
     <use style="fill:#4c72b0;stroke:#4c72b0;" x="71.268352" xlink:href="#m6dc9e99762" y="70.514086"/>
     <use style="fill:#4c72b0;stroke:#4c72b0;" x="72.479385" xlink:href="#m6dc9e99762" y="76.863237"/>
     <use style="fill:#4c72b0;stroke:#4c72b0;" x="73.68798" xlink:href="#m6dc9e99762" y="88.578575"/>
     <use style="fill:#4c72b0;stroke:#4c72b0;" x="74.904593" xlink:href="#m6dc9e99762" y="112.100252"/>
     <use style="fill:#4c72b0;stroke:#4c72b0;" x="76.135271" xlink:href="#m6dc9e99762" y="136.981898"/>
     <use style="fill:#4c72b0;stroke:#4c72b0;" x="77.757215" xlink:href="#m6dc9e99762" y="147.802451"/>
     <use style="fill:#4c72b0;stroke:#4c72b0;" x="79.512264" xlink:href="#m6dc9e99762" y="154.900141"/>
     <use style="fill:#4c72b0;stroke:#4c72b0;" x="81.39953" xlink:href="#m6dc9e99762" y="159.591733"/>
     <use style="fill:#4c72b0;stroke:#4c72b0;" x="83.332562" xlink:href="#m6dc9e99762" y="153.389812"/>
     <use style="fill:#4c72b0;stroke:#4c72b0;" x="85.374442" xlink:href="#m6dc9e99762" y="150.317278"/>
     <use style="fill:#4c72b0;stroke:#4c72b0;" x="87.566207" xlink:href="#m6dc9e99762" y="164.003986"/>
     <use style="fill:#4c72b0;stroke:#4c72b0;" x="90.052184" xlink:href="#m6dc9e99762" y="180.986765"/>
     <use style="fill:#4c72b0;stroke:#4c72b0;" x="92.630775" xlink:href="#m6dc9e99762" y="185.441496"/>
     <use style="fill:#4c72b0;stroke:#4c72b0;" x="95.190449" xlink:href="#m6dc9e99762" y="186.226029"/>
     <use style="fill:#4c72b0;stroke:#4c72b0;" x="97.822349" xlink:href="#m6dc9e99762" y="185.063766"/>
     <use style="fill:#4c72b0;stroke:#4c72b0;" x="100.390011" xlink:href="#m6dc9e99762" y="177.888256"/>
     <use style="fill:#4c72b0;stroke:#4c72b0;" x="102.844912" xlink:href="#m6dc9e99762" y="187.270544"/>
     <use style="fill:#4c72b0;stroke:#4c72b0;" x="105.259915" xlink:href="#m6dc9e99762" y="215.043029"/>
     <use style="fill:#4c72b0;stroke:#4c72b0;" x="107.60083" xlink:href="#m6dc9e99762" y="232.916562"/>
     <use style="fill:#4c72b0;stroke:#4c72b0;" x="109.989281" xlink:href="#m6dc9e99762" y="242.116364"/>
     <use style="fill:#4c72b0;stroke:#4c72b0;" x="112.35763" xlink:href="#m6dc9e99762" y="240.906705"/>
     <use style="fill:#4c72b0;stroke:#4c72b0;" x="114.662812" xlink:href="#m6dc9e99762" y="215.687252"/>
     <use style="fill:#4c72b0;stroke:#4c72b0;" x="117.141368" xlink:href="#m6dc9e99762" y="184.503975"/>
     <use style="fill:#4c72b0;stroke:#4c72b0;" x="119.719259" xlink:href="#m6dc9e99762" y="166.220777"/>
     <use style="fill:#4c72b0;stroke:#4c72b0;" x="122.357894" xlink:href="#m6dc9e99762" y="165.154079"/>
     <use style="fill:#4c72b0;stroke:#4c72b0;" x="125.08194" xlink:href="#m6dc9e99762" y="174.713265"/>
     <use style="fill:#4c72b0;stroke:#4c72b0;" x="127.944908" xlink:href="#m6dc9e99762" y="176.38506"/>
     <use style="fill:#4c72b0;stroke:#4c72b0;" x="130.801324" xlink:href="#m6dc9e99762" y="175.157691"/>
     <use style="fill:#4c72b0;stroke:#4c72b0;" x="133.662411" xlink:href="#m6dc9e99762" y="171.229855"/>
     <use style="fill:#4c72b0;stroke:#4c72b0;" x="136.537633" xlink:href="#m6dc9e99762" y="157.531982"/>
     <use style="fill:#4c72b0;stroke:#4c72b0;" x="139.353029" xlink:href="#m6dc9e99762" y="147.030779"/>
     <use style="fill:#4c72b0;stroke:#4c72b0;" x="142.08625" xlink:href="#m6dc9e99762" y="153.784671"/>
     <use style="fill:#4c72b0;stroke:#4c72b0;" x="144.746723" xlink:href="#m6dc9e99762" y="164.849776"/>
     <use style="fill:#4c72b0;stroke:#4c72b0;" x="147.424006" xlink:href="#m6dc9e99762" y="167.159921"/>
     <use style="fill:#4c72b0;stroke:#4c72b0;" x="150.077167" xlink:href="#m6dc9e99762" y="167.473305"/>
     <use style="fill:#4c72b0;stroke:#4c72b0;" x="152.721849" xlink:href="#m6dc9e99762" y="165.629688"/>
     <use style="fill:#4c72b0;stroke:#4c72b0;" x="155.445563" xlink:href="#m6dc9e99762" y="154.227619"/>
     <use style="fill:#4c72b0;stroke:#4c72b0;" x="158.192844" xlink:href="#m6dc9e99762" y="144.197064"/>
     <use style="fill:#4c72b0;stroke:#4c72b0;" x="160.960939" xlink:href="#m6dc9e99762" y="148.923568"/>
     <use style="fill:#4c72b0;stroke:#4c72b0;" x="163.901271" xlink:href="#m6dc9e99762" y="157.120847"/>
     <use style="fill:#4c72b0;stroke:#4c72b0;" x="169.61525" xlink:href="#m6dc9e99762" y="155.749457"/>
     <use style="fill:#4c72b0;stroke:#4c72b0;" x="174.931719" xlink:href="#m6dc9e99762" y="153.908562"/>
     <use style="fill:#4c72b0;stroke:#4c72b0;" x="177.963994" xlink:href="#m6dc9e99762" y="151.050252"/>
     <use style="fill:#4c72b0;stroke:#4c72b0;" x="181.009056" xlink:href="#m6dc9e99762" y="140.009029"/>
     <use style="fill:#4c72b0;stroke:#4c72b0;" x="184.058522" xlink:href="#m6dc9e99762" y="133.503163"/>
     <use style="fill:#4c72b0;stroke:#4c72b0;" x="186.972238" xlink:href="#m6dc9e99762" y="141.035065"/>
     <use style="fill:#4c72b0;stroke:#4c72b0;" x="189.760406" xlink:href="#m6dc9e99762" y="150.681582"/>
     <use style="fill:#4c72b0;stroke:#4c72b0;" x="192.535056" xlink:href="#m6dc9e99762" y="148.796534"/>
     <use style="fill:#4c72b0;stroke:#4c72b0;" x="195.289089" xlink:href="#m6dc9e99762" y="146.432714"/>
     <use style="fill:#4c72b0;stroke:#4c72b0;" x="197.913898" xlink:href="#m6dc9e99762" y="142.737675"/>
     <use style="fill:#4c72b0;stroke:#4c72b0;" x="200.400543" xlink:href="#m6dc9e99762" y="128.831312"/>
     <use style="fill:#4c72b0;stroke:#4c72b0;" x="202.881787" xlink:href="#m6dc9e99762" y="121.153718"/>
     <use style="fill:#4c72b0;stroke:#4c72b0;" x="205.359029" xlink:href="#m6dc9e99762" y="130.500246"/>
     <use style="fill:#4c72b0;stroke:#4c72b0;" x="207.837997" xlink:href="#m6dc9e99762" y="149.686389"/>
     <use style="fill:#4c72b0;stroke:#4c72b0;" x="210.236185" xlink:href="#m6dc9e99762" y="161.096214"/>
     <use style="fill:#4c72b0;stroke:#4c72b0;" x="212.528869" xlink:href="#m6dc9e99762" y="157.352076"/>
     <use style="fill:#4c72b0;stroke:#4c72b0;" x="214.788574" xlink:href="#m6dc9e99762" y="155.800543"/>
     <use style="fill:#4c72b0;stroke:#4c72b0;" x="217.023822" xlink:href="#m6dc9e99762" y="145.56231"/>
     <use style="fill:#4c72b0;stroke:#4c72b0;" x="219.207207" xlink:href="#m6dc9e99762" y="125.113418"/>
     <use style="fill:#4c72b0;stroke:#4c72b0;" x="221.382373" xlink:href="#m6dc9e99762" y="121.945157"/>
     <use style="fill:#4c72b0;stroke:#4c72b0;" x="223.535856" xlink:href="#m6dc9e99762" y="123.260191"/>
     <use style="fill:#4c72b0;stroke:#4c72b0;" x="225.653471" xlink:href="#m6dc9e99762" y="118.737567"/>
     <use style="fill:#4c72b0;stroke:#4c72b0;" x="227.723824" xlink:href="#m6dc9e99762" y="118.229155"/>
     <use style="fill:#4c72b0;stroke:#4c72b0;" x="229.74159" xlink:href="#m6dc9e99762" y="116.493053"/>
     <use style="fill:#4c72b0;stroke:#4c72b0;" x="231.688543" xlink:href="#m6dc9e99762" y="106.902575"/>
     <use style="fill:#4c72b0;stroke:#4c72b0;" x="233.599867" xlink:href="#m6dc9e99762" y="106.078873"/>
     <use style="fill:#4c72b0;stroke:#4c72b0;" x="235.477071" xlink:href="#m6dc9e99762" y="116.362643"/>
     <use style="fill:#4c72b0;stroke:#4c72b0;" x="236.815202" xlink:href="#m6dc9e99762" y="124.354689"/>
     <use style="fill:#4c72b0;stroke:#4c72b0;" x="238.104514" xlink:href="#m6dc9e99762" y="120.858367"/>
     <use style="fill:#4c72b0;stroke:#4c72b0;" x="239.466721" xlink:href="#m6dc9e99762" y="116.4444"/>
     <use style="fill:#4c72b0;stroke:#4c72b0;" x="240.900399" xlink:href="#m6dc9e99762" y="110.221058"/>
     <use style="fill:#4c72b0;stroke:#4c72b0;" x="241.829782" xlink:href="#m6dc9e99762" y="95.965819"/>
     <use style="fill:#4c72b0;stroke:#4c72b0;" x="242.711239" xlink:href="#m6dc9e99762" y="87.709008"/>
     <use style="fill:#4c72b0;stroke:#4c72b0;" x="243.569657" xlink:href="#m6dc9e99762" y="94.425192"/>
     <use style="fill:#4c72b0;stroke:#4c72b0;" x="244.398973" xlink:href="#m6dc9e99762" y="105.418252"/>
     <use style="fill:#4c72b0;stroke:#4c72b0;" x="245.169634" xlink:href="#m6dc9e99762" y="104.546569"/>
     <use style="fill:#4c72b0;stroke:#4c72b0;" x="245.865333" xlink:href="#m6dc9e99762" y="107.34295"/>
     <use style="fill:#4c72b0;stroke:#4c72b0;" x="246.498491" xlink:href="#m6dc9e99762" y="111.580211"/>
     <use style="fill:#4c72b0;stroke:#4c72b0;" x="247.081442" xlink:href="#m6dc9e99762" y="102.249517"/>
     <use style="fill:#4c72b0;stroke:#4c72b0;" x="247.627076" xlink:href="#m6dc9e99762" y="97.6076"/>
     <use style="fill:#4c72b0;stroke:#4c72b0;" x="248.152403" xlink:href="#m6dc9e99762" y="106.937778"/>
     <use style="fill:#4c72b0;stroke:#4c72b0;" x="248.661244" xlink:href="#m6dc9e99762" y="117.79204"/>
     <use style="fill:#4c72b0;stroke:#4c72b0;" x="249.139715" xlink:href="#m6dc9e99762" y="116.71521"/>
     <use style="fill:#4c72b0;stroke:#4c72b0;" x="249.580261" xlink:href="#m6dc9e99762" y="114.580998"/>
     <use style="fill:#4c72b0;stroke:#4c72b0;" x="249.982165" xlink:href="#m6dc9e99762" y="109.96327"/>
     <use style="fill:#4c72b0;stroke:#4c72b0;" x="250.364398" xlink:href="#m6dc9e99762" y="94.559056"/>
     <use style="fill:#4c72b0;stroke:#4c72b0;" x="250.759541" xlink:href="#m6dc9e99762" y="84.804464"/>
     <use style="fill:#4c72b0;stroke:#4c72b0;" x="251.173591" xlink:href="#m6dc9e99762" y="93.340834"/>
     <use style="fill:#4c72b0;stroke:#4c72b0;" x="251.583799" xlink:href="#m6dc9e99762" y="106.123309"/>
     <use style="fill:#4c72b0;stroke:#4c72b0;" x="251.963354" xlink:href="#m6dc9e99762" y="107.07676"/>
     <use style="fill:#4c72b0;stroke:#4c72b0;" x="252.293097" xlink:href="#m6dc9e99762" y="106.951788"/>
     <use style="fill:#4c72b0;stroke:#4c72b0;" x="252.56882" xlink:href="#m6dc9e99762" y="105.432363"/>
     <use style="fill:#4c72b0;stroke:#4c72b0;" x="252.809619" xlink:href="#m6dc9e99762" y="99.447752"/>
     <use style="fill:#4c72b0;stroke:#4c72b0;" x="253.029854" xlink:href="#m6dc9e99762" y="96.357947"/>
     <use style="fill:#4c72b0;stroke:#4c72b0;" x="253.245453" xlink:href="#m6dc9e99762" y="109.24145"/>
     <use style="fill:#4c72b0;stroke:#4c72b0;" x="253.518953" xlink:href="#m6dc9e99762" y="120.656374"/>
     <use style="fill:#4c72b0;stroke:#4c72b0;" x="253.823046" xlink:href="#m6dc9e99762" y="112.302346"/>
     <use style="fill:#4c72b0;stroke:#4c72b0;" x="254.101496" xlink:href="#m6dc9e99762" y="100.799553"/>
     <use style="fill:#4c72b0;stroke:#4c72b0;" x="254.399501" xlink:href="#m6dc9e99762" y="94.963073"/>
     <use style="fill:#4c72b0;stroke:#4c72b0;" x="254.697988" xlink:href="#m6dc9e99762" y="88.259117"/>
     <use style="fill:#4c72b0;stroke:#4c72b0;" x="254.943607" xlink:href="#m6dc9e99762" y="88.823287"/>
     <use style="fill:#4c72b0;stroke:#4c72b0;" x="255.205161" xlink:href="#m6dc9e99762" y="105.92249"/>
     <use style="fill:#4c72b0;stroke:#4c72b0;" x="255.477526" xlink:href="#m6dc9e99762" y="123.019691"/>
     <use style="fill:#4c72b0;stroke:#4c72b0;" x="255.753637" xlink:href="#m6dc9e99762" y="121.462013"/>
     <use style="fill:#4c72b0;stroke:#4c72b0;" x="256.025324" xlink:href="#m6dc9e99762" y="110.669943"/>
     <use style="fill:#4c72b0;stroke:#4c72b0;" x="256.295468" xlink:href="#m6dc9e99762" y="101.951052"/>
     <use style="fill:#4c72b0;stroke:#4c72b0;" x="256.580694" xlink:href="#m6dc9e99762" y="85.327732"/>
     <use style="fill:#4c72b0;stroke:#4c72b0;" x="256.883756" xlink:href="#m6dc9e99762" y="73.242527"/>
     <use style="fill:#4c72b0;stroke:#4c72b0;" x="257.205798" xlink:href="#m6dc9e99762" y="79.1668"/>
     <use style="fill:#4c72b0;stroke:#4c72b0;" x="257.551012" xlink:href="#m6dc9e99762" y="90.476267"/>
     <use style="fill:#4c72b0;stroke:#4c72b0;" x="257.904571" xlink:href="#m6dc9e99762" y="92.244969"/>
     <use style="fill:#4c72b0;stroke:#4c72b0;" x="258.256044" xlink:href="#m6dc9e99762" y="90.761008"/>
     <use style="fill:#4c72b0;stroke:#4c72b0;" x="258.622152" xlink:href="#m6dc9e99762" y="87.989557"/>
     <use style="fill:#4c72b0;stroke:#4c72b0;" x="259.014888" xlink:href="#m6dc9e99762" y="78.706441"/>
     <use style="fill:#4c72b0;stroke:#4c72b0;" x="259.435183" xlink:href="#m6dc9e99762" y="72.031616"/>
     <use style="fill:#4c72b0;stroke:#4c72b0;" x="259.889416" xlink:href="#m6dc9e99762" y="80.547798"/>
     <use style="fill:#4c72b0;stroke:#4c72b0;" x="260.376344" xlink:href="#m6dc9e99762" y="93.308256"/>
     <use style="fill:#4c72b0;stroke:#4c72b0;" x="260.885967" xlink:href="#m6dc9e99762" y="98.795787"/>
     <use style="fill:#4c72b0;stroke:#4c72b0;" x="261.412523" xlink:href="#m6dc9e99762" y="99.224216"/>
     <use style="fill:#4c72b0;stroke:#4c72b0;" x="261.943434" xlink:href="#m6dc9e99762" y="96.313304"/>
     <use style="fill:#4c72b0;stroke:#4c72b0;" x="262.468043" xlink:href="#m6dc9e99762" y="87.145813"/>
     <use style="fill:#4c72b0;stroke:#4c72b0;" x="262.990647" xlink:href="#m6dc9e99762" y="81.630322"/>
     <use style="fill:#4c72b0;stroke:#4c72b0;" x="263.517459" xlink:href="#m6dc9e99762" y="91.032434"/>
     <use style="fill:#4c72b0;stroke:#4c72b0;" x="264.046376" xlink:href="#m6dc9e99762" y="105.32252"/>
     <use style="fill:#4c72b0;stroke:#4c72b0;" x="264.580514" xlink:href="#m6dc9e99762" y="111.790325"/>
     <use style="fill:#4c72b0;stroke:#4c72b0;" x="265.124479" xlink:href="#m6dc9e99762" y="113.114994"/>
     <use style="fill:#4c72b0;stroke:#4c72b0;" x="265.660241" xlink:href="#m6dc9e99762" y="111.165636"/>
     <use style="fill:#4c72b0;stroke:#4c72b0;" x="266.160046" xlink:href="#m6dc9e99762" y="102.00227"/>
     <use style="fill:#4c72b0;stroke:#4c72b0;" x="266.644915" xlink:href="#m6dc9e99762" y="94.578212"/>
     <use style="fill:#4c72b0;stroke:#4c72b0;" x="267.126816" xlink:href="#m6dc9e99762" y="98.319059"/>
     <use style="fill:#4c72b0;stroke:#4c72b0;" x="267.593626" xlink:href="#m6dc9e99762" y="104.052813"/>
     <use style="fill:#4c72b0;stroke:#4c72b0;" x="268.050958" xlink:href="#m6dc9e99762" y="105.644097"/>
     <use style="fill:#4c72b0;stroke:#4c72b0;" x="268.513792" xlink:href="#m6dc9e99762" y="105.840157"/>
     <use style="fill:#4c72b0;stroke:#4c72b0;" x="268.972171" xlink:href="#m6dc9e99762" y="102.363734"/>
     <use style="fill:#4c72b0;stroke:#4c72b0;" x="269.420174" xlink:href="#m6dc9e99762" y="93.49479"/>
     <use style="fill:#4c72b0;stroke:#4c72b0;" x="269.857033" xlink:href="#m6dc9e99762" y="87.954264"/>
     <use style="fill:#4c72b0;stroke:#4c72b0;" x="270.286178" xlink:href="#m6dc9e99762" y="92.771026"/>
     <use style="fill:#4c72b0;stroke:#4c72b0;" x="270.706483" xlink:href="#m6dc9e99762" y="100.572393"/>
     <use style="fill:#4c72b0;stroke:#4c72b0;" x="271.11672" xlink:href="#m6dc9e99762" y="101.285175"/>
     <use style="fill:#4c72b0;stroke:#4c72b0;" x="271.513279" xlink:href="#m6dc9e99762" y="99.35015"/>
     <use style="fill:#4c72b0;stroke:#4c72b0;" x="271.89608" xlink:href="#m6dc9e99762" y="95.856037"/>
     <use style="fill:#4c72b0;stroke:#4c72b0;" x="272.265319" xlink:href="#m6dc9e99762" y="86.637429"/>
     <use style="fill:#4c72b0;stroke:#4c72b0;" x="272.612588" xlink:href="#m6dc9e99762" y="82.180373"/>
     <use style="fill:#4c72b0;stroke:#4c72b0;" x="272.927213" xlink:href="#m6dc9e99762" y="93.319278"/>
     <use style="fill:#4c72b0;stroke:#4c72b0;" x="273.215038" xlink:href="#m6dc9e99762" y="112.721411"/>
     <use style="fill:#4c72b0;stroke:#4c72b0;" x="273.475357" xlink:href="#m6dc9e99762" y="125.108711"/>
     <use style="fill:#4c72b0;stroke:#4c72b0;" x="273.704725" xlink:href="#m6dc9e99762" y="118.315777"/>
     <use style="fill:#4c72b0;stroke:#4c72b0;" x="273.916058" xlink:href="#m6dc9e99762" y="111.704159"/>
     <use style="fill:#4c72b0;stroke:#4c72b0;" x="274.12966" xlink:href="#m6dc9e99762" y="100.596788"/>
     <use style="fill:#4c72b0;stroke:#4c72b0;" x="274.362267" xlink:href="#m6dc9e99762" y="84.926984"/>
     <use style="fill:#4c72b0;stroke:#4c72b0;" x="274.62244" xlink:href="#m6dc9e99762" y="85.203706"/>
     <use style="fill:#4c72b0;stroke:#4c72b0;" x="274.90261" xlink:href="#m6dc9e99762" y="88.232741"/>
     <use style="fill:#4c72b0;stroke:#4c72b0;" x="275.185639" xlink:href="#m6dc9e99762" y="86.991971"/>
     <use style="fill:#4c72b0;stroke:#4c72b0;" x="275.465753" xlink:href="#m6dc9e99762" y="84.877705"/>
     <use style="fill:#4c72b0;stroke:#4c72b0;" x="275.758434" xlink:href="#m6dc9e99762" y="81.962956"/>
     <use style="fill:#4c72b0;stroke:#4c72b0;" x="276.06212" xlink:href="#m6dc9e99762" y="76.526046"/>
     <use style="fill:#4c72b0;stroke:#4c72b0;" x="276.3738" xlink:href="#m6dc9e99762" y="77.101741"/>
     <use style="fill:#4c72b0;stroke:#4c72b0;" x="276.705055" xlink:href="#m6dc9e99762" y="87.160609"/>
     <use style="fill:#4c72b0;stroke:#4c72b0;" x="277.057973" xlink:href="#m6dc9e99762" y="97.064875"/>
     <use style="fill:#4c72b0;stroke:#4c72b0;" x="277.422782" xlink:href="#m6dc9e99762" y="98.542802"/>
     <use style="fill:#4c72b0;stroke:#4c72b0;" x="277.80513" xlink:href="#m6dc9e99762" y="98.206828"/>
     <use style="fill:#4c72b0;stroke:#4c72b0;" x="278.225322" xlink:href="#m6dc9e99762" y="94.271484"/>
     <use style="fill:#4c72b0;stroke:#4c72b0;" x="278.692595" xlink:href="#m6dc9e99762" y="81.912687"/>
     <use style="fill:#4c72b0;stroke:#4c72b0;" x="279.199642" xlink:href="#m6dc9e99762" y="73.232511"/>
     <use style="fill:#4c72b0;stroke:#4c72b0;" x="279.742388" xlink:href="#m6dc9e99762" y="78.743636"/>
     <use style="fill:#4c72b0;stroke:#4c72b0;" x="280.331474" xlink:href="#m6dc9e99762" y="95.667504"/>
     <use style="fill:#4c72b0;stroke:#4c72b0;" x="280.960671" xlink:href="#m6dc9e99762" y="115.227424"/>
     <use style="fill:#4c72b0;stroke:#4c72b0;" x="281.596695" xlink:href="#m6dc9e99762" y="119.463039"/>
     <use style="fill:#4c72b0;stroke:#4c72b0;" x="282.229463" xlink:href="#m6dc9e99762" y="119.395732"/>
     <use style="fill:#4c72b0;stroke:#4c72b0;" x="282.864523" xlink:href="#m6dc9e99762" y="114.965805"/>
     <use style="fill:#4c72b0;stroke:#4c72b0;" x="283.509215" xlink:href="#m6dc9e99762" y="96.443339"/>
     <use style="fill:#4c72b0;stroke:#4c72b0;" x="284.189367" xlink:href="#m6dc9e99762" y="84.234301"/>
     <use style="fill:#4c72b0;stroke:#4c72b0;" x="284.930157" xlink:href="#m6dc9e99762" y="85.210174"/>
     <use style="fill:#4c72b0;stroke:#4c72b0;" x="285.731278" xlink:href="#m6dc9e99762" y="84.181795"/>
     <use style="fill:#4c72b0;stroke:#4c72b0;" x="286.593551" xlink:href="#m6dc9e99762" y="82.24974"/>
     <use style="fill:#4c72b0;stroke:#4c72b0;" x="287.598727" xlink:href="#m6dc9e99762" y="79.412557"/>
     <use style="fill:#4c72b0;stroke:#4c72b0;" x="288.729564" xlink:href="#m6dc9e99762" y="70.110493"/>
     <use style="fill:#4c72b0;stroke:#4c72b0;" x="289.874914" xlink:href="#m6dc9e99762" y="62.992131"/>
     <use style="fill:#4c72b0;stroke:#4c72b0;" x="291.079612" xlink:href="#m6dc9e99762" y="69.151157"/>
     <use style="fill:#4c72b0;stroke:#4c72b0;" x="292.472648" xlink:href="#m6dc9e99762" y="80.141536"/>
     <use style="fill:#4c72b0;stroke:#4c72b0;" x="293.974938" xlink:href="#m6dc9e99762" y="82.462127"/>
     <use style="fill:#4c72b0;stroke:#4c72b0;" x="295.479276" xlink:href="#m6dc9e99762" y="81.62932"/>
     <use style="fill:#4c72b0;stroke:#4c72b0;" x="297.024172" xlink:href="#m6dc9e99762" y="79.005156"/>
     <use style="fill:#4c72b0;stroke:#4c72b0;" x="298.68271" xlink:href="#m6dc9e99762" y="70.328665"/>
     <use style="fill:#4c72b0;stroke:#4c72b0;" x="300.309217" xlink:href="#m6dc9e99762" y="63.155456"/>
     <use style="fill:#4c72b0;stroke:#4c72b0;" x="302.799156" xlink:href="#m6dc9e99762" y="68.923708"/>
     <use style="fill:#4c72b0;stroke:#4c72b0;" x="305.100455" xlink:href="#m6dc9e99762" y="78.022425"/>
     <use style="fill:#4c72b0;stroke:#4c72b0;" x="307.377474" xlink:href="#m6dc9e99762" y="75.828621"/>
     <use style="fill:#4c72b0;stroke:#4c72b0;" x="309.678532" xlink:href="#m6dc9e99762" y="72.408349"/>
     <use style="fill:#4c72b0;stroke:#4c72b0;" x="312.256093" xlink:href="#m6dc9e99762" y="69.419174"/>
     <use style="fill:#4c72b0;stroke:#4c72b0;" x="315.000188" xlink:href="#m6dc9e99762" y="58.401715"/>
     <use style="fill:#4c72b0;stroke:#4c72b0;" x="318.338163" xlink:href="#m6dc9e99762" y="51.030865"/>
     <use style="fill:#4c72b0;stroke:#4c72b0;" x="321.525795" xlink:href="#m6dc9e99762" y="58.340799"/>
     <use style="fill:#4c72b0;stroke:#4c72b0;" x="324.674453" xlink:href="#m6dc9e99762" y="65.86307"/>
     <use style="fill:#4c72b0;stroke:#4c72b0;" x="328.001001" xlink:href="#m6dc9e99762" y="63.415203"/>
     <use style="fill:#4c72b0;stroke:#4c72b0;" x="331.776912" xlink:href="#m6dc9e99762" y="62.35775"/>
     <use style="fill:#4c72b0;stroke:#4c72b0;" x="335.559133" xlink:href="#m6dc9e99762" y="61.217256"/>
     <use style="fill:#4c72b0;stroke:#4c72b0;" x="339.326731" xlink:href="#m6dc9e99762" y="52.623497"/>
     <use style="fill:#4c72b0;stroke:#4c72b0;" x="343.09075" xlink:href="#m6dc9e99762" y="49.796119"/>
     <use style="fill:#4c72b0;stroke:#4c72b0;" x="346.816658" xlink:href="#m6dc9e99762" y="57.914428"/>
     <use style="fill:#4c72b0;stroke:#4c72b0;" x="350.180252" xlink:href="#m6dc9e99762" y="72.634996"/>
     <use style="fill:#4c72b0;stroke:#4c72b0;" x="353.508926" xlink:href="#m6dc9e99762" y="90.577435"/>
     <use style="fill:#4c72b0;stroke:#4c72b0;" x="356.867889" xlink:href="#m6dc9e99762" y="96.455104"/>
     <use style="fill:#4c72b0;stroke:#4c72b0;" x="360.17848" xlink:href="#m6dc9e99762" y="98.694158"/>
     <use style="fill:#4c72b0;stroke:#4c72b0;" x="363.480293" xlink:href="#m6dc9e99762" y="99.699271"/>
     <use style="fill:#4c72b0;stroke:#4c72b0;" x="366.841741" xlink:href="#m6dc9e99762" y="82.274582"/>
     <use style="fill:#4c72b0;stroke:#4c72b0;" x="370.211357" xlink:href="#m6dc9e99762" y="63.591167"/>
     <use style="fill:#4c72b0;stroke:#4c72b0;" x="373.581818" xlink:href="#m6dc9e99762" y="44.443636"/>
    </g>
   </g>
   <g id="patch_3">
    <path d="M 54 252 
L 54 34.56 
" style="fill:none;stroke:#ffffff;stroke-linecap:square;stroke-linejoin:miter;stroke-width:1.25;"/>
   </g>
   <g id="patch_4">
    <path d="M 388.8 252 
L 388.8 34.56 
" style="fill:none;stroke:#ffffff;stroke-linecap:square;stroke-linejoin:miter;stroke-width:1.25;"/>
   </g>
   <g id="patch_5">
    <path d="M 54 252 
L 388.8 252 
" style="fill:none;stroke:#ffffff;stroke-linecap:square;stroke-linejoin:miter;stroke-width:1.25;"/>
   </g>
   <g id="patch_6">
    <path d="M 54 34.56 
L 388.8 34.56 
" style="fill:none;stroke:#ffffff;stroke-linecap:square;stroke-linejoin:miter;stroke-width:1.25;"/>
   </g>
   <g id="legend_1">
    <g id="patch_7">
     <path d="M 260.687813 246.5 
L 381.1 246.5 
Q 383.3 246.5 383.3 244.3 
L 383.3 213.108125 
Q 383.3 210.908125 381.1 210.908125 
L 260.687813 210.908125 
Q 258.487813 210.908125 258.487813 213.108125 
L 258.487813 244.3 
Q 258.487813 246.5 260.687813 246.5 
z
" style="fill:#eaeaf2;opacity:0.8;stroke:#cccccc;stroke-linejoin:miter;"/>
    </g>
    <g id="line2d_14">
     <path d="M 262.887812 219.816406 
L 284.887812 219.816406 
" style="fill:none;stroke:#c44e52;stroke-linecap:round;stroke-width:1.5;"/>
    </g>
    <g id="line2d_15"/>
    <g id="text_12">
     <!-- Predicted Line -->
     <defs>
      <path d="M 19.671875 64.796875 
L 19.671875 37.40625 
L 32.078125 37.40625 
Q 38.96875 37.40625 42.71875 40.96875 
Q 46.484375 44.53125 46.484375 51.125 
Q 46.484375 57.671875 42.71875 61.234375 
Q 38.96875 64.796875 32.078125 64.796875 
z
M 9.8125 72.90625 
L 32.078125 72.90625 
Q 44.34375 72.90625 50.609375 67.359375 
Q 56.890625 61.8125 56.890625 51.125 
Q 56.890625 40.328125 50.609375 34.8125 
Q 44.34375 29.296875 32.078125 29.296875 
L 19.671875 29.296875 
L 19.671875 0 
L 9.8125 0 
z
" id="DejaVuSans-80"/>
      <path d="M 41.109375 46.296875 
Q 39.59375 47.171875 37.8125 47.578125 
Q 36.03125 48 33.890625 48 
Q 26.265625 48 22.1875 43.046875 
Q 18.109375 38.09375 18.109375 28.8125 
L 18.109375 0 
L 9.078125 0 
L 9.078125 54.6875 
L 18.109375 54.6875 
L 18.109375 46.1875 
Q 20.953125 51.171875 25.484375 53.578125 
Q 30.03125 56 36.53125 56 
Q 37.453125 56 38.578125 55.875 
Q 39.703125 55.765625 41.0625 55.515625 
z
" id="DejaVuSans-114"/>
      <path d="M 56.203125 29.59375 
L 56.203125 25.203125 
L 14.890625 25.203125 
Q 15.484375 15.921875 20.484375 11.0625 
Q 25.484375 6.203125 34.421875 6.203125 
Q 39.59375 6.203125 44.453125 7.46875 
Q 49.3125 8.734375 54.109375 11.28125 
L 54.109375 2.78125 
Q 49.265625 0.734375 44.1875 -0.34375 
Q 39.109375 -1.421875 33.890625 -1.421875 
Q 20.796875 -1.421875 13.15625 6.1875 
Q 5.515625 13.8125 5.515625 26.8125 
Q 5.515625 40.234375 12.765625 48.109375 
Q 20.015625 56 32.328125 56 
Q 43.359375 56 49.78125 48.890625 
Q 56.203125 41.796875 56.203125 29.59375 
z
M 47.21875 32.234375 
Q 47.125 39.59375 43.09375 43.984375 
Q 39.0625 48.390625 32.421875 48.390625 
Q 24.90625 48.390625 20.390625 44.140625 
Q 15.875 39.890625 15.1875 32.171875 
z
" id="DejaVuSans-101"/>
      <path d="M 45.40625 46.390625 
L 45.40625 75.984375 
L 54.390625 75.984375 
L 54.390625 0 
L 45.40625 0 
L 45.40625 8.203125 
Q 42.578125 3.328125 38.25 0.953125 
Q 33.9375 -1.421875 27.875 -1.421875 
Q 17.96875 -1.421875 11.734375 6.484375 
Q 5.515625 14.40625 5.515625 27.296875 
Q 5.515625 40.1875 11.734375 48.09375 
Q 17.96875 56 27.875 56 
Q 33.9375 56 38.25 53.625 
Q 42.578125 51.265625 45.40625 46.390625 
z
M 14.796875 27.296875 
Q 14.796875 17.390625 18.875 11.75 
Q 22.953125 6.109375 30.078125 6.109375 
Q 37.203125 6.109375 41.296875 11.75 
Q 45.40625 17.390625 45.40625 27.296875 
Q 45.40625 37.203125 41.296875 42.84375 
Q 37.203125 48.484375 30.078125 48.484375 
Q 22.953125 48.484375 18.875 42.84375 
Q 14.796875 37.203125 14.796875 27.296875 
z
" id="DejaVuSans-100"/>
      <path d="M 9.421875 54.6875 
L 18.40625 54.6875 
L 18.40625 0 
L 9.421875 0 
z
M 9.421875 75.984375 
L 18.40625 75.984375 
L 18.40625 64.59375 
L 9.421875 64.59375 
z
" id="DejaVuSans-105"/>
      <path d="M 48.78125 52.59375 
L 48.78125 44.1875 
Q 44.96875 46.296875 41.140625 47.34375 
Q 37.3125 48.390625 33.40625 48.390625 
Q 24.65625 48.390625 19.8125 42.84375 
Q 14.984375 37.3125 14.984375 27.296875 
Q 14.984375 17.28125 19.8125 11.734375 
Q 24.65625 6.203125 33.40625 6.203125 
Q 37.3125 6.203125 41.140625 7.25 
Q 44.96875 8.296875 48.78125 10.40625 
L 48.78125 2.09375 
Q 45.015625 0.34375 40.984375 -0.53125 
Q 36.96875 -1.421875 32.421875 -1.421875 
Q 20.0625 -1.421875 12.78125 6.34375 
Q 5.515625 14.109375 5.515625 27.296875 
Q 5.515625 40.671875 12.859375 48.328125 
Q 20.21875 56 33.015625 56 
Q 37.15625 56 41.109375 55.140625 
Q 45.0625 54.296875 48.78125 52.59375 
z
" id="DejaVuSans-99"/>
      <path d="M 18.3125 70.21875 
L 18.3125 54.6875 
L 36.8125 54.6875 
L 36.8125 47.703125 
L 18.3125 47.703125 
L 18.3125 18.015625 
Q 18.3125 11.328125 20.140625 9.421875 
Q 21.96875 7.515625 27.59375 7.515625 
L 36.8125 7.515625 
L 36.8125 0 
L 27.59375 0 
Q 17.1875 0 13.234375 3.875 
Q 9.28125 7.765625 9.28125 18.015625 
L 9.28125 47.703125 
L 2.6875 47.703125 
L 2.6875 54.6875 
L 9.28125 54.6875 
L 9.28125 70.21875 
z
" id="DejaVuSans-116"/>
      <path id="DejaVuSans-32"/>
      <path d="M 9.8125 72.90625 
L 19.671875 72.90625 
L 19.671875 8.296875 
L 55.171875 8.296875 
L 55.171875 0 
L 9.8125 0 
z
" id="DejaVuSans-76"/>
      <path d="M 54.890625 33.015625 
L 54.890625 0 
L 45.90625 0 
L 45.90625 32.71875 
Q 45.90625 40.484375 42.875 44.328125 
Q 39.84375 48.1875 33.796875 48.1875 
Q 26.515625 48.1875 22.3125 43.546875 
Q 18.109375 38.921875 18.109375 30.90625 
L 18.109375 0 
L 9.078125 0 
L 9.078125 54.6875 
L 18.109375 54.6875 
L 18.109375 46.1875 
Q 21.34375 51.125 25.703125 53.5625 
Q 30.078125 56 35.796875 56 
Q 45.21875 56 50.046875 50.171875 
Q 54.890625 44.34375 54.890625 33.015625 
z
" id="DejaVuSans-110"/>
     </defs>
     <g style="fill:#262626;" transform="translate(293.687813 223.666406)scale(0.11 -0.11)">
      <use xlink:href="#DejaVuSans-80"/>
      <use x="60.287109" xlink:href="#DejaVuSans-114"/>
      <use x="101.369141" xlink:href="#DejaVuSans-101"/>
      <use x="162.892578" xlink:href="#DejaVuSans-100"/>
      <use x="226.369141" xlink:href="#DejaVuSans-105"/>
      <use x="254.152344" xlink:href="#DejaVuSans-99"/>
      <use x="309.132812" xlink:href="#DejaVuSans-116"/>
      <use x="348.341797" xlink:href="#DejaVuSans-101"/>
      <use x="409.865234" xlink:href="#DejaVuSans-100"/>
      <use x="473.341797" xlink:href="#DejaVuSans-32"/>
      <use x="505.128906" xlink:href="#DejaVuSans-76"/>
      <use x="560.841797" xlink:href="#DejaVuSans-105"/>
      <use x="588.625" xlink:href="#DejaVuSans-110"/>
      <use x="652.003906" xlink:href="#DejaVuSans-101"/>
     </g>
    </g>
    <g id="line2d_16"/>
    <g id="line2d_17">
     <g>
      <use style="fill:#4c72b0;stroke:#4c72b0;" x="273.887812" xlink:href="#m6dc9e99762" y="235.962344"/>
     </g>
    </g>
    <g id="text_13">
     <!-- Presented Data -->
     <defs>
      <path d="M 44.28125 53.078125 
L 44.28125 44.578125 
Q 40.484375 46.53125 36.375 47.5 
Q 32.28125 48.484375 27.875 48.484375 
Q 21.1875 48.484375 17.84375 46.4375 
Q 14.5 44.390625 14.5 40.28125 
Q 14.5 37.15625 16.890625 35.375 
Q 19.28125 33.59375 26.515625 31.984375 
L 29.59375 31.296875 
Q 39.15625 29.25 43.1875 25.515625 
Q 47.21875 21.78125 47.21875 15.09375 
Q 47.21875 7.46875 41.1875 3.015625 
Q 35.15625 -1.421875 24.609375 -1.421875 
Q 20.21875 -1.421875 15.453125 -0.5625 
Q 10.6875 0.296875 5.421875 2 
L 5.421875 11.28125 
Q 10.40625 8.6875 15.234375 7.390625 
Q 20.0625 6.109375 24.8125 6.109375 
Q 31.15625 6.109375 34.5625 8.28125 
Q 37.984375 10.453125 37.984375 14.40625 
Q 37.984375 18.0625 35.515625 20.015625 
Q 33.0625 21.96875 24.703125 23.78125 
L 21.578125 24.515625 
Q 13.234375 26.265625 9.515625 29.90625 
Q 5.8125 33.546875 5.8125 39.890625 
Q 5.8125 47.609375 11.28125 51.796875 
Q 16.75 56 26.8125 56 
Q 31.78125 56 36.171875 55.265625 
Q 40.578125 54.546875 44.28125 53.078125 
z
" id="DejaVuSans-115"/>
      <path d="M 19.671875 64.796875 
L 19.671875 8.109375 
L 31.59375 8.109375 
Q 46.6875 8.109375 53.6875 14.9375 
Q 60.6875 21.78125 60.6875 36.53125 
Q 60.6875 51.171875 53.6875 57.984375 
Q 46.6875 64.796875 31.59375 64.796875 
z
M 9.8125 72.90625 
L 30.078125 72.90625 
Q 51.265625 72.90625 61.171875 64.09375 
Q 71.09375 55.28125 71.09375 36.53125 
Q 71.09375 17.671875 61.125 8.828125 
Q 51.171875 0 30.078125 0 
L 9.8125 0 
z
" id="DejaVuSans-68"/>
      <path d="M 34.28125 27.484375 
Q 23.390625 27.484375 19.1875 25 
Q 14.984375 22.515625 14.984375 16.5 
Q 14.984375 11.71875 18.140625 8.90625 
Q 21.296875 6.109375 26.703125 6.109375 
Q 34.1875 6.109375 38.703125 11.40625 
Q 43.21875 16.703125 43.21875 25.484375 
L 43.21875 27.484375 
z
M 52.203125 31.203125 
L 52.203125 0 
L 43.21875 0 
L 43.21875 8.296875 
Q 40.140625 3.328125 35.546875 0.953125 
Q 30.953125 -1.421875 24.3125 -1.421875 
Q 15.921875 -1.421875 10.953125 3.296875 
Q 6 8.015625 6 15.921875 
Q 6 25.140625 12.171875 29.828125 
Q 18.359375 34.515625 30.609375 34.515625 
L 43.21875 34.515625 
L 43.21875 35.40625 
Q 43.21875 41.609375 39.140625 45 
Q 35.0625 48.390625 27.6875 48.390625 
Q 23 48.390625 18.546875 47.265625 
Q 14.109375 46.140625 10.015625 43.890625 
L 10.015625 52.203125 
Q 14.9375 54.109375 19.578125 55.046875 
Q 24.21875 56 28.609375 56 
Q 40.484375 56 46.34375 49.84375 
Q 52.203125 43.703125 52.203125 31.203125 
z
" id="DejaVuSans-97"/>
     </defs>
     <g style="fill:#262626;" transform="translate(293.687813 239.812344)scale(0.11 -0.11)">
      <use xlink:href="#DejaVuSans-80"/>
      <use x="60.287109" xlink:href="#DejaVuSans-114"/>
      <use x="101.369141" xlink:href="#DejaVuSans-101"/>
      <use x="162.892578" xlink:href="#DejaVuSans-115"/>
      <use x="214.992188" xlink:href="#DejaVuSans-101"/>
      <use x="276.515625" xlink:href="#DejaVuSans-110"/>
      <use x="339.894531" xlink:href="#DejaVuSans-116"/>
      <use x="379.103516" xlink:href="#DejaVuSans-101"/>
      <use x="440.626953" xlink:href="#DejaVuSans-100"/>
      <use x="504.103516" xlink:href="#DejaVuSans-32"/>
      <use x="535.890625" xlink:href="#DejaVuSans-68"/>
      <use x="612.892578" xlink:href="#DejaVuSans-97"/>
      <use x="674.171875" xlink:href="#DejaVuSans-116"/>
      <use x="713.380859" xlink:href="#DejaVuSans-97"/>
     </g>
    </g>
   </g>
  </g>
 </g>
 <defs>
  <clipPath id="p9bdc98b0fb">
   <rect height="217.44" width="334.8" x="54" y="34.56"/>
  </clipPath>
 </defs>
</svg>
