<?xml version="1.0" encoding="utf-8" standalone="no"?>
<!DOCTYPE svg PUBLIC "-//W3C//DTD SVG 1.1//EN"
  "http://www.w3.org/Graphics/SVG/1.1/DTD/svg11.dtd">
<!-- Created with matplotlib (https://matplotlib.org/) -->
<svg height="360pt" version="1.1" viewBox="0 0 1080 360" width="1080pt" xmlns="http://www.w3.org/2000/svg" xmlns:xlink="http://www.w3.org/1999/xlink">
 <defs>
  <style type="text/css">
*{stroke-linecap:butt;stroke-linejoin:round;}
  </style>
 </defs>
 <g id="figure_1">
  <g id="patch_1">
   <path d="M 0 360 
L 1080 360 
L 1080 0 
L 0 0 
z
" style="fill:#ffffff;"/>
  </g>
  <g id="axes_1">
   <g id="patch_2">
    <path d="M 135 315 
L 972 315 
L 972 43.2 
L 135 43.2 
z
" style="fill:#eaeaf2;"/>
   </g>
   <g id="matplotlib.axis_1">
    <g id="xtick_1">
     <g id="line2d_1">
      <path clip-path="url(#p94463f9e98)" d="M 169.978346 315 
L 169.978346 43.2 
" style="fill:none;stroke:#ffffff;stroke-linecap:round;"/>
     </g>
     <g id="text_1">
      <!-- 0 -->
      <defs>
       <path d="M 31.78125 66.40625 
Q 24.171875 66.40625 20.328125 58.90625 
Q 16.5 51.421875 16.5 36.375 
Q 16.5 21.390625 20.328125 13.890625 
Q 24.171875 6.390625 31.78125 6.390625 
Q 39.453125 6.390625 43.28125 13.890625 
Q 47.125 21.390625 47.125 36.375 
Q 47.125 51.421875 43.28125 58.90625 
Q 39.453125 66.40625 31.78125 66.40625 
z
M 31.78125 74.21875 
Q 44.046875 74.21875 50.515625 64.515625 
Q 56.984375 54.828125 56.984375 36.375 
Q 56.984375 17.96875 50.515625 8.265625 
Q 44.046875 -1.421875 31.78125 -1.421875 
Q 19.53125 -1.421875 13.0625 8.265625 
Q 6.59375 17.96875 6.59375 36.375 
Q 6.59375 54.828125 13.0625 64.515625 
Q 19.53125 74.21875 31.78125 74.21875 
z
" id="DejaVuSans-48"/>
      </defs>
      <g style="fill:#262626;" transform="translate(166.478971 332.858281)scale(0.11 -0.11)">
       <use xlink:href="#DejaVuSans-48"/>
      </g>
     </g>
    </g>
    <g id="xtick_2">
     <g id="line2d_2">
      <path clip-path="url(#p94463f9e98)" d="M 310.028978 315 
L 310.028978 43.2 
" style="fill:none;stroke:#ffffff;stroke-linecap:round;"/>
     </g>
     <g id="text_2">
      <!-- 10000 -->
      <defs>
       <path d="M 12.40625 8.296875 
L 28.515625 8.296875 
L 28.515625 63.921875 
L 10.984375 60.40625 
L 10.984375 69.390625 
L 28.421875 72.90625 
L 38.28125 72.90625 
L 38.28125 8.296875 
L 54.390625 8.296875 
L 54.390625 0 
L 12.40625 0 
z
" id="DejaVuSans-49"/>
      </defs>
      <g style="fill:#262626;" transform="translate(292.532103 332.858281)scale(0.11 -0.11)">
       <use xlink:href="#DejaVuSans-49"/>
       <use x="63.623047" xlink:href="#DejaVuSans-48"/>
       <use x="127.246094" xlink:href="#DejaVuSans-48"/>
       <use x="190.869141" xlink:href="#DejaVuSans-48"/>
       <use x="254.492188" xlink:href="#DejaVuSans-48"/>
      </g>
     </g>
    </g>
    <g id="xtick_3">
     <g id="line2d_3">
      <path clip-path="url(#p94463f9e98)" d="M 450.079611 315 
L 450.079611 43.2 
" style="fill:none;stroke:#ffffff;stroke-linecap:round;"/>
     </g>
     <g id="text_3">
      <!-- 20000 -->
      <defs>
       <path d="M 19.1875 8.296875 
L 53.609375 8.296875 
L 53.609375 0 
L 7.328125 0 
L 7.328125 8.296875 
Q 12.9375 14.109375 22.625 23.890625 
Q 32.328125 33.6875 34.8125 36.53125 
Q 39.546875 41.84375 41.421875 45.53125 
Q 43.3125 49.21875 43.3125 52.78125 
Q 43.3125 58.59375 39.234375 62.25 
Q 35.15625 65.921875 28.609375 65.921875 
Q 23.96875 65.921875 18.8125 64.3125 
Q 13.671875 62.703125 7.8125 59.421875 
L 7.8125 69.390625 
Q 13.765625 71.78125 18.9375 73 
Q 24.125 74.21875 28.421875 74.21875 
Q 39.75 74.21875 46.484375 68.546875 
Q 53.21875 62.890625 53.21875 53.421875 
Q 53.21875 48.921875 51.53125 44.890625 
Q 49.859375 40.875 45.40625 35.40625 
Q 44.1875 33.984375 37.640625 27.21875 
Q 31.109375 20.453125 19.1875 8.296875 
z
" id="DejaVuSans-50"/>
      </defs>
      <g style="fill:#262626;" transform="translate(432.582736 332.858281)scale(0.11 -0.11)">
       <use xlink:href="#DejaVuSans-50"/>
       <use x="63.623047" xlink:href="#DejaVuSans-48"/>
       <use x="127.246094" xlink:href="#DejaVuSans-48"/>
       <use x="190.869141" xlink:href="#DejaVuSans-48"/>
       <use x="254.492188" xlink:href="#DejaVuSans-48"/>
      </g>
     </g>
    </g>
    <g id="xtick_4">
     <g id="line2d_4">
      <path clip-path="url(#p94463f9e98)" d="M 590.130243 315 
L 590.130243 43.2 
" style="fill:none;stroke:#ffffff;stroke-linecap:round;"/>
     </g>
     <g id="text_4">
      <!-- 30000 -->
      <defs>
       <path d="M 40.578125 39.3125 
Q 47.65625 37.796875 51.625 33 
Q 55.609375 28.21875 55.609375 21.1875 
Q 55.609375 10.40625 48.1875 4.484375 
Q 40.765625 -1.421875 27.09375 -1.421875 
Q 22.515625 -1.421875 17.65625 -0.515625 
Q 12.796875 0.390625 7.625 2.203125 
L 7.625 11.71875 
Q 11.71875 9.328125 16.59375 8.109375 
Q 21.484375 6.890625 26.8125 6.890625 
Q 36.078125 6.890625 40.9375 10.546875 
Q 45.796875 14.203125 45.796875 21.1875 
Q 45.796875 27.640625 41.28125 31.265625 
Q 36.765625 34.90625 28.71875 34.90625 
L 20.21875 34.90625 
L 20.21875 43.015625 
L 29.109375 43.015625 
Q 36.375 43.015625 40.234375 45.921875 
Q 44.09375 48.828125 44.09375 54.296875 
Q 44.09375 59.90625 40.109375 62.90625 
Q 36.140625 65.921875 28.71875 65.921875 
Q 24.65625 65.921875 20.015625 65.03125 
Q 15.375 64.15625 9.8125 62.3125 
L 9.8125 71.09375 
Q 15.4375 72.65625 20.34375 73.4375 
Q 25.25 74.21875 29.59375 74.21875 
Q 40.828125 74.21875 47.359375 69.109375 
Q 53.90625 64.015625 53.90625 55.328125 
Q 53.90625 49.265625 50.4375 45.09375 
Q 46.96875 40.921875 40.578125 39.3125 
z
" id="DejaVuSans-51"/>
      </defs>
      <g style="fill:#262626;" transform="translate(572.633368 332.858281)scale(0.11 -0.11)">
       <use xlink:href="#DejaVuSans-51"/>
       <use x="63.623047" xlink:href="#DejaVuSans-48"/>
       <use x="127.246094" xlink:href="#DejaVuSans-48"/>
       <use x="190.869141" xlink:href="#DejaVuSans-48"/>
       <use x="254.492188" xlink:href="#DejaVuSans-48"/>
      </g>
     </g>
    </g>
    <g id="xtick_5">
     <g id="line2d_5">
      <path clip-path="url(#p94463f9e98)" d="M 730.180875 315 
L 730.180875 43.2 
" style="fill:none;stroke:#ffffff;stroke-linecap:round;"/>
     </g>
     <g id="text_5">
      <!-- 40000 -->
      <defs>
       <path d="M 37.796875 64.3125 
L 12.890625 25.390625 
L 37.796875 25.390625 
z
M 35.203125 72.90625 
L 47.609375 72.90625 
L 47.609375 25.390625 
L 58.015625 25.390625 
L 58.015625 17.1875 
L 47.609375 17.1875 
L 47.609375 0 
L 37.796875 0 
L 37.796875 17.1875 
L 4.890625 17.1875 
L 4.890625 26.703125 
z
" id="DejaVuSans-52"/>
      </defs>
      <g style="fill:#262626;" transform="translate(712.684 332.858281)scale(0.11 -0.11)">
       <use xlink:href="#DejaVuSans-52"/>
       <use x="63.623047" xlink:href="#DejaVuSans-48"/>
       <use x="127.246094" xlink:href="#DejaVuSans-48"/>
       <use x="190.869141" xlink:href="#DejaVuSans-48"/>
       <use x="254.492188" xlink:href="#DejaVuSans-48"/>
      </g>
     </g>
    </g>
    <g id="xtick_6">
     <g id="line2d_6">
      <path clip-path="url(#p94463f9e98)" d="M 870.231508 315 
L 870.231508 43.2 
" style="fill:none;stroke:#ffffff;stroke-linecap:round;"/>
     </g>
     <g id="text_6">
      <!-- 50000 -->
      <defs>
       <path d="M 10.796875 72.90625 
L 49.515625 72.90625 
L 49.515625 64.59375 
L 19.828125 64.59375 
L 19.828125 46.734375 
Q 21.96875 47.46875 24.109375 47.828125 
Q 26.265625 48.1875 28.421875 48.1875 
Q 40.625 48.1875 47.75 41.5 
Q 54.890625 34.8125 54.890625 23.390625 
Q 54.890625 11.625 47.5625 5.09375 
Q 40.234375 -1.421875 26.90625 -1.421875 
Q 22.3125 -1.421875 17.546875 -0.640625 
Q 12.796875 0.140625 7.71875 1.703125 
L 7.71875 11.625 
Q 12.109375 9.234375 16.796875 8.0625 
Q 21.484375 6.890625 26.703125 6.890625 
Q 35.15625 6.890625 40.078125 11.328125 
Q 45.015625 15.765625 45.015625 23.390625 
Q 45.015625 31 40.078125 35.4375 
Q 35.15625 39.890625 26.703125 39.890625 
Q 22.75 39.890625 18.8125 39.015625 
Q 14.890625 38.140625 10.796875 36.28125 
z
" id="DejaVuSans-53"/>
      </defs>
      <g style="fill:#262626;" transform="translate(852.734633 332.858281)scale(0.11 -0.11)">
       <use xlink:href="#DejaVuSans-53"/>
       <use x="63.623047" xlink:href="#DejaVuSans-48"/>
       <use x="127.246094" xlink:href="#DejaVuSans-48"/>
       <use x="190.869141" xlink:href="#DejaVuSans-48"/>
       <use x="254.492188" xlink:href="#DejaVuSans-48"/>
      </g>
     </g>
    </g>
    <g id="text_7">
     <!-- Total Confirmed Cases in QC -->
     <defs>
      <path d="M -0.296875 72.90625 
L 61.375 72.90625 
L 61.375 64.59375 
L 35.5 64.59375 
L 35.5 0 
L 25.59375 0 
L 25.59375 64.59375 
L -0.296875 64.59375 
z
" id="DejaVuSans-84"/>
      <path d="M 30.609375 48.390625 
Q 23.390625 48.390625 19.1875 42.75 
Q 14.984375 37.109375 14.984375 27.296875 
Q 14.984375 17.484375 19.15625 11.84375 
Q 23.34375 6.203125 30.609375 6.203125 
Q 37.796875 6.203125 41.984375 11.859375 
Q 46.1875 17.53125 46.1875 27.296875 
Q 46.1875 37.015625 41.984375 42.703125 
Q 37.796875 48.390625 30.609375 48.390625 
z
M 30.609375 56 
Q 42.328125 56 49.015625 48.375 
Q 55.71875 40.765625 55.71875 27.296875 
Q 55.71875 13.875 49.015625 6.21875 
Q 42.328125 -1.421875 30.609375 -1.421875 
Q 18.84375 -1.421875 12.171875 6.21875 
Q 5.515625 13.875 5.515625 27.296875 
Q 5.515625 40.765625 12.171875 48.375 
Q 18.84375 56 30.609375 56 
z
" id="DejaVuSans-111"/>
      <path d="M 18.3125 70.21875 
L 18.3125 54.6875 
L 36.8125 54.6875 
L 36.8125 47.703125 
L 18.3125 47.703125 
L 18.3125 18.015625 
Q 18.3125 11.328125 20.140625 9.421875 
Q 21.96875 7.515625 27.59375 7.515625 
L 36.8125 7.515625 
L 36.8125 0 
L 27.59375 0 
Q 17.1875 0 13.234375 3.875 
Q 9.28125 7.765625 9.28125 18.015625 
L 9.28125 47.703125 
L 2.6875 47.703125 
L 2.6875 54.6875 
L 9.28125 54.6875 
L 9.28125 70.21875 
z
" id="DejaVuSans-116"/>
      <path d="M 34.28125 27.484375 
Q 23.390625 27.484375 19.1875 25 
Q 14.984375 22.515625 14.984375 16.5 
Q 14.984375 11.71875 18.140625 8.90625 
Q 21.296875 6.109375 26.703125 6.109375 
Q 34.1875 6.109375 38.703125 11.40625 
Q 43.21875 16.703125 43.21875 25.484375 
L 43.21875 27.484375 
z
M 52.203125 31.203125 
L 52.203125 0 
L 43.21875 0 
L 43.21875 8.296875 
Q 40.140625 3.328125 35.546875 0.953125 
Q 30.953125 -1.421875 24.3125 -1.421875 
Q 15.921875 -1.421875 10.953125 3.296875 
Q 6 8.015625 6 15.921875 
Q 6 25.140625 12.171875 29.828125 
Q 18.359375 34.515625 30.609375 34.515625 
L 43.21875 34.515625 
L 43.21875 35.40625 
Q 43.21875 41.609375 39.140625 45 
Q 35.0625 48.390625 27.6875 48.390625 
Q 23 48.390625 18.546875 47.265625 
Q 14.109375 46.140625 10.015625 43.890625 
L 10.015625 52.203125 
Q 14.9375 54.109375 19.578125 55.046875 
Q 24.21875 56 28.609375 56 
Q 40.484375 56 46.34375 49.84375 
Q 52.203125 43.703125 52.203125 31.203125 
z
" id="DejaVuSans-97"/>
      <path d="M 9.421875 75.984375 
L 18.40625 75.984375 
L 18.40625 0 
L 9.421875 0 
z
" id="DejaVuSans-108"/>
      <path id="DejaVuSans-32"/>
      <path d="M 64.40625 67.28125 
L 64.40625 56.890625 
Q 59.421875 61.53125 53.78125 63.8125 
Q 48.140625 66.109375 41.796875 66.109375 
Q 29.296875 66.109375 22.65625 58.46875 
Q 16.015625 50.828125 16.015625 36.375 
Q 16.015625 21.96875 22.65625 14.328125 
Q 29.296875 6.6875 41.796875 6.6875 
Q 48.140625 6.6875 53.78125 8.984375 
Q 59.421875 11.28125 64.40625 15.921875 
L 64.40625 5.609375 
Q 59.234375 2.09375 53.4375 0.328125 
Q 47.65625 -1.421875 41.21875 -1.421875 
Q 24.65625 -1.421875 15.125 8.703125 
Q 5.609375 18.84375 5.609375 36.375 
Q 5.609375 53.953125 15.125 64.078125 
Q 24.65625 74.21875 41.21875 74.21875 
Q 47.75 74.21875 53.53125 72.484375 
Q 59.328125 70.75 64.40625 67.28125 
z
" id="DejaVuSans-67"/>
      <path d="M 54.890625 33.015625 
L 54.890625 0 
L 45.90625 0 
L 45.90625 32.71875 
Q 45.90625 40.484375 42.875 44.328125 
Q 39.84375 48.1875 33.796875 48.1875 
Q 26.515625 48.1875 22.3125 43.546875 
Q 18.109375 38.921875 18.109375 30.90625 
L 18.109375 0 
L 9.078125 0 
L 9.078125 54.6875 
L 18.109375 54.6875 
L 18.109375 46.1875 
Q 21.34375 51.125 25.703125 53.5625 
Q 30.078125 56 35.796875 56 
Q 45.21875 56 50.046875 50.171875 
Q 54.890625 44.34375 54.890625 33.015625 
z
" id="DejaVuSans-110"/>
      <path d="M 37.109375 75.984375 
L 37.109375 68.5 
L 28.515625 68.5 
Q 23.6875 68.5 21.796875 66.546875 
Q 19.921875 64.59375 19.921875 59.515625 
L 19.921875 54.6875 
L 34.71875 54.6875 
L 34.71875 47.703125 
L 19.921875 47.703125 
L 19.921875 0 
L 10.890625 0 
L 10.890625 47.703125 
L 2.296875 47.703125 
L 2.296875 54.6875 
L 10.890625 54.6875 
L 10.890625 58.5 
Q 10.890625 67.625 15.140625 71.796875 
Q 19.390625 75.984375 28.609375 75.984375 
z
" id="DejaVuSans-102"/>
      <path d="M 9.421875 54.6875 
L 18.40625 54.6875 
L 18.40625 0 
L 9.421875 0 
z
M 9.421875 75.984375 
L 18.40625 75.984375 
L 18.40625 64.59375 
L 9.421875 64.59375 
z
" id="DejaVuSans-105"/>
      <path d="M 41.109375 46.296875 
Q 39.59375 47.171875 37.8125 47.578125 
Q 36.03125 48 33.890625 48 
Q 26.265625 48 22.1875 43.046875 
Q 18.109375 38.09375 18.109375 28.8125 
L 18.109375 0 
L 9.078125 0 
L 9.078125 54.6875 
L 18.109375 54.6875 
L 18.109375 46.1875 
Q 20.953125 51.171875 25.484375 53.578125 
Q 30.03125 56 36.53125 56 
Q 37.453125 56 38.578125 55.875 
Q 39.703125 55.765625 41.0625 55.515625 
z
" id="DejaVuSans-114"/>
      <path d="M 52 44.1875 
Q 55.375 50.25 60.0625 53.125 
Q 64.75 56 71.09375 56 
Q 79.640625 56 84.28125 50.015625 
Q 88.921875 44.046875 88.921875 33.015625 
L 88.921875 0 
L 79.890625 0 
L 79.890625 32.71875 
Q 79.890625 40.578125 77.09375 44.375 
Q 74.3125 48.1875 68.609375 48.1875 
Q 61.625 48.1875 57.5625 43.546875 
Q 53.515625 38.921875 53.515625 30.90625 
L 53.515625 0 
L 44.484375 0 
L 44.484375 32.71875 
Q 44.484375 40.625 41.703125 44.40625 
Q 38.921875 48.1875 33.109375 48.1875 
Q 26.21875 48.1875 22.15625 43.53125 
Q 18.109375 38.875 18.109375 30.90625 
L 18.109375 0 
L 9.078125 0 
L 9.078125 54.6875 
L 18.109375 54.6875 
L 18.109375 46.1875 
Q 21.1875 51.21875 25.484375 53.609375 
Q 29.78125 56 35.6875 56 
Q 41.65625 56 45.828125 52.96875 
Q 50 49.953125 52 44.1875 
z
" id="DejaVuSans-109"/>
      <path d="M 56.203125 29.59375 
L 56.203125 25.203125 
L 14.890625 25.203125 
Q 15.484375 15.921875 20.484375 11.0625 
Q 25.484375 6.203125 34.421875 6.203125 
Q 39.59375 6.203125 44.453125 7.46875 
Q 49.3125 8.734375 54.109375 11.28125 
L 54.109375 2.78125 
Q 49.265625 0.734375 44.1875 -0.34375 
Q 39.109375 -1.421875 33.890625 -1.421875 
Q 20.796875 -1.421875 13.15625 6.1875 
Q 5.515625 13.8125 5.515625 26.8125 
Q 5.515625 40.234375 12.765625 48.109375 
Q 20.015625 56 32.328125 56 
Q 43.359375 56 49.78125 48.890625 
Q 56.203125 41.796875 56.203125 29.59375 
z
M 47.21875 32.234375 
Q 47.125 39.59375 43.09375 43.984375 
Q 39.0625 48.390625 32.421875 48.390625 
Q 24.90625 48.390625 20.390625 44.140625 
Q 15.875 39.890625 15.1875 32.171875 
z
" id="DejaVuSans-101"/>
      <path d="M 45.40625 46.390625 
L 45.40625 75.984375 
L 54.390625 75.984375 
L 54.390625 0 
L 45.40625 0 
L 45.40625 8.203125 
Q 42.578125 3.328125 38.25 0.953125 
Q 33.9375 -1.421875 27.875 -1.421875 
Q 17.96875 -1.421875 11.734375 6.484375 
Q 5.515625 14.40625 5.515625 27.296875 
Q 5.515625 40.1875 11.734375 48.09375 
Q 17.96875 56 27.875 56 
Q 33.9375 56 38.25 53.625 
Q 42.578125 51.265625 45.40625 46.390625 
z
M 14.796875 27.296875 
Q 14.796875 17.390625 18.875 11.75 
Q 22.953125 6.109375 30.078125 6.109375 
Q 37.203125 6.109375 41.296875 11.75 
Q 45.40625 17.390625 45.40625 27.296875 
Q 45.40625 37.203125 41.296875 42.84375 
Q 37.203125 48.484375 30.078125 48.484375 
Q 22.953125 48.484375 18.875 42.84375 
Q 14.796875 37.203125 14.796875 27.296875 
z
" id="DejaVuSans-100"/>
      <path d="M 44.28125 53.078125 
L 44.28125 44.578125 
Q 40.484375 46.53125 36.375 47.5 
Q 32.28125 48.484375 27.875 48.484375 
Q 21.1875 48.484375 17.84375 46.4375 
Q 14.5 44.390625 14.5 40.28125 
Q 14.5 37.15625 16.890625 35.375 
Q 19.28125 33.59375 26.515625 31.984375 
L 29.59375 31.296875 
Q 39.15625 29.25 43.1875 25.515625 
Q 47.21875 21.78125 47.21875 15.09375 
Q 47.21875 7.46875 41.1875 3.015625 
Q 35.15625 -1.421875 24.609375 -1.421875 
Q 20.21875 -1.421875 15.453125 -0.5625 
Q 10.6875 0.296875 5.421875 2 
L 5.421875 11.28125 
Q 10.40625 8.6875 15.234375 7.390625 
Q 20.0625 6.109375 24.8125 6.109375 
Q 31.15625 6.109375 34.5625 8.28125 
Q 37.984375 10.453125 37.984375 14.40625 
Q 37.984375 18.0625 35.515625 20.015625 
Q 33.0625 21.96875 24.703125 23.78125 
L 21.578125 24.515625 
Q 13.234375 26.265625 9.515625 29.90625 
Q 5.8125 33.546875 5.8125 39.890625 
Q 5.8125 47.609375 11.28125 51.796875 
Q 16.75 56 26.8125 56 
Q 31.78125 56 36.171875 55.265625 
Q 40.578125 54.546875 44.28125 53.078125 
z
" id="DejaVuSans-115"/>
      <path d="M 39.40625 66.21875 
Q 28.65625 66.21875 22.328125 58.203125 
Q 16.015625 50.203125 16.015625 36.375 
Q 16.015625 22.609375 22.328125 14.59375 
Q 28.65625 6.59375 39.40625 6.59375 
Q 50.140625 6.59375 56.421875 14.59375 
Q 62.703125 22.609375 62.703125 36.375 
Q 62.703125 50.203125 56.421875 58.203125 
Q 50.140625 66.21875 39.40625 66.21875 
z
M 53.21875 1.3125 
L 66.21875 -12.890625 
L 54.296875 -12.890625 
L 43.5 -1.21875 
Q 41.890625 -1.3125 41.03125 -1.359375 
Q 40.1875 -1.421875 39.40625 -1.421875 
Q 24.03125 -1.421875 14.8125 8.859375 
Q 5.609375 19.140625 5.609375 36.375 
Q 5.609375 53.65625 14.8125 63.9375 
Q 24.03125 74.21875 39.40625 74.21875 
Q 54.734375 74.21875 63.90625 63.9375 
Q 73.09375 53.65625 73.09375 36.375 
Q 73.09375 23.6875 67.984375 14.640625 
Q 62.890625 5.609375 53.21875 1.3125 
z
" id="DejaVuSans-81"/>
     </defs>
     <g style="fill:#262626;" transform="translate(467.41125 348.264063)scale(0.12 -0.12)">
      <use xlink:href="#DejaVuSans-84"/>
      <use x="60.818359" xlink:href="#DejaVuSans-111"/>
      <use x="122" xlink:href="#DejaVuSans-116"/>
      <use x="161.208984" xlink:href="#DejaVuSans-97"/>
      <use x="222.488281" xlink:href="#DejaVuSans-108"/>
      <use x="250.271484" xlink:href="#DejaVuSans-32"/>
      <use x="282.058594" xlink:href="#DejaVuSans-67"/>
      <use x="351.882812" xlink:href="#DejaVuSans-111"/>
      <use x="413.064453" xlink:href="#DejaVuSans-110"/>
      <use x="476.443359" xlink:href="#DejaVuSans-102"/>
      <use x="511.648438" xlink:href="#DejaVuSans-105"/>
      <use x="539.431641" xlink:href="#DejaVuSans-114"/>
      <use x="580.529297" xlink:href="#DejaVuSans-109"/>
      <use x="677.941406" xlink:href="#DejaVuSans-101"/>
      <use x="739.464844" xlink:href="#DejaVuSans-100"/>
      <use x="802.941406" xlink:href="#DejaVuSans-32"/>
      <use x="834.728516" xlink:href="#DejaVuSans-67"/>
      <use x="904.552734" xlink:href="#DejaVuSans-97"/>
      <use x="965.832031" xlink:href="#DejaVuSans-115"/>
      <use x="1017.931641" xlink:href="#DejaVuSans-101"/>
      <use x="1079.455078" xlink:href="#DejaVuSans-115"/>
      <use x="1131.554688" xlink:href="#DejaVuSans-32"/>
      <use x="1163.341797" xlink:href="#DejaVuSans-105"/>
      <use x="1191.125" xlink:href="#DejaVuSans-110"/>
      <use x="1254.503906" xlink:href="#DejaVuSans-32"/>
      <use x="1286.291016" xlink:href="#DejaVuSans-81"/>
      <use x="1365.001953" xlink:href="#DejaVuSans-67"/>
     </g>
    </g>
   </g>
   <g id="matplotlib.axis_2">
    <g id="ytick_1">
     <g id="line2d_7">
      <path clip-path="url(#p94463f9e98)" d="M 135 302.122985 
L 972 302.122985 
" style="fill:none;stroke:#ffffff;stroke-linecap:round;"/>
     </g>
     <g id="text_8">
      <!-- 40 -->
      <g style="fill:#262626;" transform="translate(111.5025 306.302126)scale(0.11 -0.11)">
       <use xlink:href="#DejaVuSans-52"/>
       <use x="63.623047" xlink:href="#DejaVuSans-48"/>
      </g>
     </g>
    </g>
    <g id="ytick_2">
     <g id="line2d_8">
      <path clip-path="url(#p94463f9e98)" d="M 135 250.218924 
L 972 250.218924 
" style="fill:none;stroke:#ffffff;stroke-linecap:round;"/>
     </g>
     <g id="text_9">
      <!-- 50 -->
      <g style="fill:#262626;" transform="translate(111.5025 254.398064)scale(0.11 -0.11)">
       <use xlink:href="#DejaVuSans-53"/>
       <use x="63.623047" xlink:href="#DejaVuSans-48"/>
      </g>
     </g>
    </g>
    <g id="ytick_3">
     <g id="line2d_9">
      <path clip-path="url(#p94463f9e98)" d="M 135 198.314862 
L 972 198.314862 
" style="fill:none;stroke:#ffffff;stroke-linecap:round;"/>
     </g>
     <g id="text_10">
      <!-- 60 -->
      <defs>
       <path d="M 33.015625 40.375 
Q 26.375 40.375 22.484375 35.828125 
Q 18.609375 31.296875 18.609375 23.390625 
Q 18.609375 15.53125 22.484375 10.953125 
Q 26.375 6.390625 33.015625 6.390625 
Q 39.65625 6.390625 43.53125 10.953125 
Q 47.40625 15.53125 47.40625 23.390625 
Q 47.40625 31.296875 43.53125 35.828125 
Q 39.65625 40.375 33.015625 40.375 
z
M 52.59375 71.296875 
L 52.59375 62.3125 
Q 48.875 64.0625 45.09375 64.984375 
Q 41.3125 65.921875 37.59375 65.921875 
Q 27.828125 65.921875 22.671875 59.328125 
Q 17.53125 52.734375 16.796875 39.40625 
Q 19.671875 43.65625 24.015625 45.921875 
Q 28.375 48.1875 33.59375 48.1875 
Q 44.578125 48.1875 50.953125 41.515625 
Q 57.328125 34.859375 57.328125 23.390625 
Q 57.328125 12.15625 50.6875 5.359375 
Q 44.046875 -1.421875 33.015625 -1.421875 
Q 20.359375 -1.421875 13.671875 8.265625 
Q 6.984375 17.96875 6.984375 36.375 
Q 6.984375 53.65625 15.1875 63.9375 
Q 23.390625 74.21875 37.203125 74.21875 
Q 40.921875 74.21875 44.703125 73.484375 
Q 48.484375 72.75 52.59375 71.296875 
z
" id="DejaVuSans-54"/>
      </defs>
      <g style="fill:#262626;" transform="translate(111.5025 202.494003)scale(0.11 -0.11)">
       <use xlink:href="#DejaVuSans-54"/>
       <use x="63.623047" xlink:href="#DejaVuSans-48"/>
      </g>
     </g>
    </g>
    <g id="ytick_4">
     <g id="line2d_10">
      <path clip-path="url(#p94463f9e98)" d="M 135 146.410801 
L 972 146.410801 
" style="fill:none;stroke:#ffffff;stroke-linecap:round;"/>
     </g>
     <g id="text_11">
      <!-- 70 -->
      <defs>
       <path d="M 8.203125 72.90625 
L 55.078125 72.90625 
L 55.078125 68.703125 
L 28.609375 0 
L 18.3125 0 
L 43.21875 64.59375 
L 8.203125 64.59375 
z
" id="DejaVuSans-55"/>
      </defs>
      <g style="fill:#262626;" transform="translate(111.5025 150.589942)scale(0.11 -0.11)">
       <use xlink:href="#DejaVuSans-55"/>
       <use x="63.623047" xlink:href="#DejaVuSans-48"/>
      </g>
     </g>
    </g>
    <g id="ytick_5">
     <g id="line2d_11">
      <path clip-path="url(#p94463f9e98)" d="M 135 94.50674 
L 972 94.50674 
" style="fill:none;stroke:#ffffff;stroke-linecap:round;"/>
     </g>
     <g id="text_12">
      <!-- 80 -->
      <defs>
       <path d="M 31.78125 34.625 
Q 24.75 34.625 20.71875 30.859375 
Q 16.703125 27.09375 16.703125 20.515625 
Q 16.703125 13.921875 20.71875 10.15625 
Q 24.75 6.390625 31.78125 6.390625 
Q 38.8125 6.390625 42.859375 10.171875 
Q 46.921875 13.96875 46.921875 20.515625 
Q 46.921875 27.09375 42.890625 30.859375 
Q 38.875 34.625 31.78125 34.625 
z
M 21.921875 38.8125 
Q 15.578125 40.375 12.03125 44.71875 
Q 8.5 49.078125 8.5 55.328125 
Q 8.5 64.0625 14.71875 69.140625 
Q 20.953125 74.21875 31.78125 74.21875 
Q 42.671875 74.21875 48.875 69.140625 
Q 55.078125 64.0625 55.078125 55.328125 
Q 55.078125 49.078125 51.53125 44.71875 
Q 48 40.375 41.703125 38.8125 
Q 48.828125 37.15625 52.796875 32.3125 
Q 56.78125 27.484375 56.78125 20.515625 
Q 56.78125 9.90625 50.3125 4.234375 
Q 43.84375 -1.421875 31.78125 -1.421875 
Q 19.734375 -1.421875 13.25 4.234375 
Q 6.78125 9.90625 6.78125 20.515625 
Q 6.78125 27.484375 10.78125 32.3125 
Q 14.796875 37.15625 21.921875 38.8125 
z
M 18.3125 54.390625 
Q 18.3125 48.734375 21.84375 45.5625 
Q 25.390625 42.390625 31.78125 42.390625 
Q 38.140625 42.390625 41.71875 45.5625 
Q 45.3125 48.734375 45.3125 54.390625 
Q 45.3125 60.0625 41.71875 63.234375 
Q 38.140625 66.40625 31.78125 66.40625 
Q 25.390625 66.40625 21.84375 63.234375 
Q 18.3125 60.0625 18.3125 54.390625 
z
" id="DejaVuSans-56"/>
      </defs>
      <g style="fill:#262626;" transform="translate(111.5025 98.68588)scale(0.11 -0.11)">
       <use xlink:href="#DejaVuSans-56"/>
       <use x="63.623047" xlink:href="#DejaVuSans-48"/>
      </g>
     </g>
    </g>
    <g id="text_13">
     <!-- Baseline % of airport traffic -->
     <defs>
      <path d="M 19.671875 34.8125 
L 19.671875 8.109375 
L 35.5 8.109375 
Q 43.453125 8.109375 47.28125 11.40625 
Q 51.125 14.703125 51.125 21.484375 
Q 51.125 28.328125 47.28125 31.5625 
Q 43.453125 34.8125 35.5 34.8125 
z
M 19.671875 64.796875 
L 19.671875 42.828125 
L 34.28125 42.828125 
Q 41.5 42.828125 45.03125 45.53125 
Q 48.578125 48.25 48.578125 53.8125 
Q 48.578125 59.328125 45.03125 62.0625 
Q 41.5 64.796875 34.28125 64.796875 
z
M 9.8125 72.90625 
L 35.015625 72.90625 
Q 46.296875 72.90625 52.390625 68.21875 
Q 58.5 63.53125 58.5 54.890625 
Q 58.5 48.1875 55.375 44.234375 
Q 52.25 40.28125 46.1875 39.3125 
Q 53.46875 37.75 57.5 32.78125 
Q 61.53125 27.828125 61.53125 20.40625 
Q 61.53125 10.640625 54.890625 5.3125 
Q 48.25 0 35.984375 0 
L 9.8125 0 
z
" id="DejaVuSans-66"/>
      <path d="M 72.703125 32.078125 
Q 68.453125 32.078125 66.03125 28.46875 
Q 63.625 24.859375 63.625 18.40625 
Q 63.625 12.0625 66.03125 8.421875 
Q 68.453125 4.78125 72.703125 4.78125 
Q 76.859375 4.78125 79.265625 8.421875 
Q 81.6875 12.0625 81.6875 18.40625 
Q 81.6875 24.8125 79.265625 28.4375 
Q 76.859375 32.078125 72.703125 32.078125 
z
M 72.703125 38.28125 
Q 80.421875 38.28125 84.953125 32.90625 
Q 89.5 27.546875 89.5 18.40625 
Q 89.5 9.28125 84.9375 3.921875 
Q 80.375 -1.421875 72.703125 -1.421875 
Q 64.890625 -1.421875 60.34375 3.921875 
Q 55.8125 9.28125 55.8125 18.40625 
Q 55.8125 27.59375 60.375 32.9375 
Q 64.9375 38.28125 72.703125 38.28125 
z
M 22.3125 68.015625 
Q 18.109375 68.015625 15.6875 64.375 
Q 13.28125 60.75 13.28125 54.390625 
Q 13.28125 47.953125 15.671875 44.328125 
Q 18.0625 40.71875 22.3125 40.71875 
Q 26.5625 40.71875 28.96875 44.328125 
Q 31.390625 47.953125 31.390625 54.390625 
Q 31.390625 60.6875 28.953125 64.34375 
Q 26.515625 68.015625 22.3125 68.015625 
z
M 66.40625 74.21875 
L 74.21875 74.21875 
L 28.609375 -1.421875 
L 20.796875 -1.421875 
z
M 22.3125 74.21875 
Q 30.03125 74.21875 34.609375 68.875 
Q 39.203125 63.53125 39.203125 54.390625 
Q 39.203125 45.171875 34.640625 39.84375 
Q 30.078125 34.515625 22.3125 34.515625 
Q 14.546875 34.515625 10.03125 39.859375 
Q 5.515625 45.21875 5.515625 54.390625 
Q 5.515625 63.484375 10.046875 68.84375 
Q 14.59375 74.21875 22.3125 74.21875 
z
" id="DejaVuSans-37"/>
      <path d="M 18.109375 8.203125 
L 18.109375 -20.796875 
L 9.078125 -20.796875 
L 9.078125 54.6875 
L 18.109375 54.6875 
L 18.109375 46.390625 
Q 20.953125 51.265625 25.265625 53.625 
Q 29.59375 56 35.59375 56 
Q 45.5625 56 51.78125 48.09375 
Q 58.015625 40.1875 58.015625 27.296875 
Q 58.015625 14.40625 51.78125 6.484375 
Q 45.5625 -1.421875 35.59375 -1.421875 
Q 29.59375 -1.421875 25.265625 0.953125 
Q 20.953125 3.328125 18.109375 8.203125 
z
M 48.6875 27.296875 
Q 48.6875 37.203125 44.609375 42.84375 
Q 40.53125 48.484375 33.40625 48.484375 
Q 26.265625 48.484375 22.1875 42.84375 
Q 18.109375 37.203125 18.109375 27.296875 
Q 18.109375 17.390625 22.1875 11.75 
Q 26.265625 6.109375 33.40625 6.109375 
Q 40.53125 6.109375 44.609375 11.75 
Q 48.6875 17.390625 48.6875 27.296875 
z
" id="DejaVuSans-112"/>
      <path d="M 48.78125 52.59375 
L 48.78125 44.1875 
Q 44.96875 46.296875 41.140625 47.34375 
Q 37.3125 48.390625 33.40625 48.390625 
Q 24.65625 48.390625 19.8125 42.84375 
Q 14.984375 37.3125 14.984375 27.296875 
Q 14.984375 17.28125 19.8125 11.734375 
Q 24.65625 6.203125 33.40625 6.203125 
Q 37.3125 6.203125 41.140625 7.25 
Q 44.96875 8.296875 48.78125 10.40625 
L 48.78125 2.09375 
Q 45.015625 0.34375 40.984375 -0.53125 
Q 36.96875 -1.421875 32.421875 -1.421875 
Q 20.0625 -1.421875 12.78125 6.34375 
Q 5.515625 14.109375 5.515625 27.296875 
Q 5.515625 40.671875 12.859375 48.328125 
Q 20.21875 56 33.015625 56 
Q 37.15625 56 41.109375 55.140625 
Q 45.0625 54.296875 48.78125 52.59375 
z
" id="DejaVuSans-99"/>
     </defs>
     <g style="fill:#262626;" transform="translate(105.006875 261.44625)rotate(-90)scale(0.12 -0.12)">
      <use xlink:href="#DejaVuSans-66"/>
      <use x="68.603516" xlink:href="#DejaVuSans-97"/>
      <use x="129.882812" xlink:href="#DejaVuSans-115"/>
      <use x="181.982422" xlink:href="#DejaVuSans-101"/>
      <use x="243.505859" xlink:href="#DejaVuSans-108"/>
      <use x="271.289062" xlink:href="#DejaVuSans-105"/>
      <use x="299.072266" xlink:href="#DejaVuSans-110"/>
      <use x="362.451172" xlink:href="#DejaVuSans-101"/>
      <use x="423.974609" xlink:href="#DejaVuSans-32"/>
      <use x="455.761719" xlink:href="#DejaVuSans-37"/>
      <use x="550.78125" xlink:href="#DejaVuSans-32"/>
      <use x="582.568359" xlink:href="#DejaVuSans-111"/>
      <use x="643.75" xlink:href="#DejaVuSans-102"/>
      <use x="678.955078" xlink:href="#DejaVuSans-32"/>
      <use x="710.742188" xlink:href="#DejaVuSans-97"/>
      <use x="772.021484" xlink:href="#DejaVuSans-105"/>
      <use x="799.804688" xlink:href="#DejaVuSans-114"/>
      <use x="840.917969" xlink:href="#DejaVuSans-112"/>
      <use x="904.394531" xlink:href="#DejaVuSans-111"/>
      <use x="965.576172" xlink:href="#DejaVuSans-114"/>
      <use x="1006.689453" xlink:href="#DejaVuSans-116"/>
      <use x="1045.898438" xlink:href="#DejaVuSans-32"/>
      <use x="1077.685547" xlink:href="#DejaVuSans-116"/>
      <use x="1116.894531" xlink:href="#DejaVuSans-114"/>
      <use x="1158.007812" xlink:href="#DejaVuSans-97"/>
      <use x="1219.287109" xlink:href="#DejaVuSans-102"/>
      <use x="1254.492188" xlink:href="#DejaVuSans-102"/>
      <use x="1289.697266" xlink:href="#DejaVuSans-105"/>
      <use x="1317.480469" xlink:href="#DejaVuSans-99"/>
     </g>
    </g>
   </g>
   <g id="line2d_12">
    <defs>
     <path d="M 0 1.5 
C 0.397805 1.5 0.77937 1.341951 1.06066 1.06066 
C 1.341951 0.77937 1.5 0.397805 1.5 0 
C 1.5 -0.397805 1.341951 -0.77937 1.06066 -1.06066 
C 0.77937 -1.341951 0.397805 -1.5 0 -1.5 
C -0.397805 -1.5 -0.77937 -1.341951 -1.06066 -1.06066 
C -1.341951 -0.77937 -1.5 -0.397805 -1.5 0 
C -1.5 0.397805 -1.341951 0.77937 -1.06066 1.06066 
C -0.77937 1.341951 -0.397805 1.5 0 1.5 
z
" id="m2c347c4766" style="stroke:#4c72b0;"/>
    </defs>
    <g clip-path="url(#p94463f9e98)">
     <use style="fill:#4c72b0;stroke:#4c72b0;" x="173.045455" xlink:href="#m2c347c4766" y="55.554545"/>
     <use style="fill:#4c72b0;stroke:#4c72b0;" x="178.773525" xlink:href="#m2c347c4766" y="67.624764"/>
     <use style="fill:#4c72b0;stroke:#4c72b0;" x="184.165475" xlink:href="#m2c347c4766" y="76.320347"/>
     <use style="fill:#4c72b0;stroke:#4c72b0;" x="188.773141" xlink:href="#m2c347c4766" y="92.365279"/>
     <use style="fill:#4c72b0;stroke:#4c72b0;" x="192.834609" xlink:href="#m2c347c4766" y="124.579774"/>
     <use style="fill:#4c72b0;stroke:#4c72b0;" x="198.324594" xlink:href="#m2c347c4766" y="158.656837"/>
     <use style="fill:#4c72b0;stroke:#4c72b0;" x="204.962994" xlink:href="#m2c347c4766" y="173.476301"/>
     <use style="fill:#4c72b0;stroke:#4c72b0;" x="209.752725" xlink:href="#m2c347c4766" y="183.197058"/>
     <use style="fill:#4c72b0;stroke:#4c72b0;" x="218.015713" xlink:href="#m2c347c4766" y="189.622504"/>
     <use style="fill:#4c72b0;stroke:#4c72b0;" x="228.267419" xlink:href="#m2c347c4766" y="181.128562"/>
     <use style="fill:#4c72b0;stroke:#4c72b0;" x="234.555692" xlink:href="#m2c347c4766" y="176.920523"/>
     <use style="fill:#4c72b0;stroke:#4c72b0;" x="247.258285" xlink:href="#m2c347c4766" y="195.665377"/>
     <use style="fill:#4c72b0;stroke:#4c72b0;" x="255.423237" xlink:href="#m2c347c4766" y="218.924418"/>
     <use style="fill:#4c72b0;stroke:#4c72b0;" x="255.423237" xlink:href="#m2c347c4766" y="225.025468"/>
     <use style="fill:#4c72b0;stroke:#4c72b0;" x="281.234568" xlink:href="#m2c347c4766" y="226.099938"/>
     <use style="fill:#4c72b0;stroke:#4c72b0;" x="290.141788" xlink:href="#m2c347c4766" y="224.508141"/>
     <use style="fill:#4c72b0;stroke:#4c72b0;" x="300.785636" xlink:href="#m2c347c4766" y="214.680805"/>
     <use style="fill:#4c72b0;stroke:#4c72b0;" x="310.463135" xlink:href="#m2c347c4766" y="227.53047"/>
     <use style="fill:#4c72b0;stroke:#4c72b0;" x="322.801596" xlink:href="#m2c347c4766" y="265.566728"/>
     <use style="fill:#4c72b0;stroke:#4c72b0;" x="333.515469" xlink:href="#m2c347c4766" y="290.045716"/>
     <use style="fill:#4c72b0;stroke:#4c72b0;" x="342.128583" xlink:href="#m2c347c4766" y="302.645455"/>
     <use style="fill:#4c72b0;stroke:#4c72b0;" x="349.887388" xlink:href="#m2c347c4766" y="300.988747"/>
     <use style="fill:#4c72b0;stroke:#4c72b0;" x="359.844988" xlink:href="#m2c347c4766" y="266.449034"/>
     <use style="fill:#4c72b0;stroke:#4c72b0;" x="369.522487" xlink:href="#m2c347c4766" y="223.74147"/>
     <use style="fill:#4c72b0;stroke:#4c72b0;" x="378.093585" xlink:href="#m2c347c4766" y="198.701419"/>
     <use style="fill:#4c72b0;stroke:#4c72b0;" x="392.056633" xlink:href="#m2c347c4766" y="197.240506"/>
     <use style="fill:#4c72b0;stroke:#4c72b0;" x="405.235398" xlink:href="#m2c347c4766" y="210.332444"/>
     <use style="fill:#4c72b0;stroke:#4c72b0;" x="415.361059" xlink:href="#m2c347c4766" y="212.622078"/>
     <use style="fill:#4c72b0;stroke:#4c72b0;" x="421.369231" xlink:href="#m2c347c4766" y="210.941115"/>
     <use style="fill:#4c72b0;stroke:#4c72b0;" x="440.542162" xlink:href="#m2c347c4766" y="205.561684"/>
     <use style="fill:#4c72b0;stroke:#4c72b0;" x="451.844248" xlink:href="#m2c347c4766" y="186.801539"/>
     <use style="fill:#4c72b0;stroke:#4c72b0;" x="463.594497" xlink:href="#m2c347c4766" y="172.419445"/>
     <use style="fill:#4c72b0;stroke:#4c72b0;" x="475.820917" xlink:href="#m2c347c4766" y="181.669348"/>
     <use style="fill:#4c72b0;stroke:#4c72b0;" x="486.716856" xlink:href="#m2c347c4766" y="196.823742"/>
     <use style="fill:#4c72b0;stroke:#4c72b0;" x="495.834152" xlink:href="#m2c347c4766" y="199.987639"/>
     <use style="fill:#4c72b0;stroke:#4c72b0;" x="507.626415" xlink:href="#m2c347c4766" y="200.416839"/>
     <use style="fill:#4c72b0;stroke:#4c72b0;" x="519.866841" xlink:href="#m2c347c4766" y="197.891884"/>
     <use style="fill:#4c72b0;stroke:#4c72b0;" x="530.76278" xlink:href="#m2c347c4766" y="182.275994"/>
     <use style="fill:#4c72b0;stroke:#4c72b0;" x="542.653079" xlink:href="#m2c347c4766" y="168.538485"/>
     <use style="fill:#4c72b0;stroke:#4c72b0;" x="555.817838" xlink:href="#m2c347c4766" y="175.011745"/>
     <use style="fill:#4c72b0;stroke:#4c72b0;" x="571.307438" xlink:href="#m2c347c4766" y="186.238462"/>
     <use style="fill:#4c72b0;stroke:#4c72b0;" x="585.424542" xlink:href="#m2c347c4766" y="184.360252"/>
     <use style="fill:#4c72b0;stroke:#4c72b0;" x="616.361726" xlink:href="#m2c347c4766" y="181.839024"/>
     <use style="fill:#4c72b0;stroke:#4c72b0;" x="626.977564" xlink:href="#m2c347c4766" y="177.924379"/>
     <use style="fill:#4c72b0;stroke:#4c72b0;" x="638.097585" xlink:href="#m2c347c4766" y="162.802694"/>
     <use style="fill:#4c72b0;stroke:#4c72b0;" x="650.828187" xlink:href="#m2c347c4766" y="153.892478"/>
     <use style="fill:#4c72b0;stroke:#4c72b0;" x="663.64282" xlink:href="#m2c347c4766" y="164.207917"/>
     <use style="fill:#4c72b0;stroke:#4c72b0;" x="676.415438" xlink:href="#m2c347c4766" y="177.419461"/>
     <use style="fill:#4c72b0;stroke:#4c72b0;" x="688.12367" xlink:href="#m2c347c4766" y="174.837763"/>
     <use style="fill:#4c72b0;stroke:#4c72b0;" x="698.417392" xlink:href="#m2c347c4766" y="171.600355"/>
     <use style="fill:#4c72b0;stroke:#4c72b0;" x="708.893179" xlink:href="#m2c347c4766" y="166.539755"/>
     <use style="fill:#4c72b0;stroke:#4c72b0;" x="719.467002" xlink:href="#m2c347c4766" y="147.49407"/>
     <use style="fill:#4c72b0;stroke:#4c72b0;" x="729.340572" xlink:href="#m2c347c4766" y="136.979095"/>
     <use style="fill:#4c72b0;stroke:#4c72b0;" x="740.432582" xlink:href="#m2c347c4766" y="149.779785"/>
     <use style="fill:#4c72b0;stroke:#4c72b0;" x="750.194111" xlink:href="#m2c347c4766" y="176.05648"/>
     <use style="fill:#4c72b0;stroke:#4c72b0;" x="760.879974" xlink:href="#m2c347c4766" y="191.68299"/>
     <use style="fill:#4c72b0;stroke:#4c72b0;" x="771.1877" xlink:href="#m2c347c4766" y="186.555145"/>
     <use style="fill:#4c72b0;stroke:#4c72b0;" x="781.103285" xlink:href="#m2c347c4766" y="184.430217"/>
     <use style="fill:#4c72b0;stroke:#4c72b0;" x="789.086171" xlink:href="#m2c347c4766" y="170.408279"/>
     <use style="fill:#4c72b0;stroke:#4c72b0;" x="797.181098" xlink:href="#m2c347c4766" y="142.402167"/>
     <use style="fill:#4c72b0;stroke:#4c72b0;" x="807.264743" xlink:href="#m2c347c4766" y="138.063024"/>
     <use style="fill:#4c72b0;stroke:#4c72b0;" x="816.312014" xlink:href="#m2c347c4766" y="139.864049"/>
     <use style="fill:#4c72b0;stroke:#4c72b0;" x="826.073543" xlink:href="#m2c347c4766" y="133.670016"/>
     <use style="fill:#4c72b0;stroke:#4c72b0;" x="834.098445" xlink:href="#m2c347c4766" y="132.973713"/>
     <use style="fill:#4c72b0;stroke:#4c72b0;" x="842.123346" xlink:href="#m2c347c4766" y="130.596005"/>
     <use style="fill:#4c72b0;stroke:#4c72b0;" x="850.722455" xlink:href="#m2c347c4766" y="117.461211"/>
     <use style="fill:#4c72b0;stroke:#4c72b0;" x="858.299194" xlink:href="#m2c347c4766" y="116.333096"/>
     <use style="fill:#4c72b0;stroke:#4c72b0;" x="866.184044" xlink:href="#m2c347c4766" y="130.4174"/>
     <use style="fill:#4c72b0;stroke:#4c72b0;" x="873.480682" xlink:href="#m2c347c4766" y="141.363037"/>
     <use style="fill:#4c72b0;stroke:#4c72b0;" x="879.348804" xlink:href="#m2c347c4766" y="136.574592"/>
     <use style="fill:#4c72b0;stroke:#4c72b0;" x="885.06287" xlink:href="#m2c347c4766" y="130.529372"/>
     <use style="fill:#4c72b0;stroke:#4c72b0;" x="889.194363" xlink:href="#m2c347c4766" y="122.006093"/>
     <use style="fill:#4c72b0;stroke:#4c72b0;" x="892.541573" xlink:href="#m2c347c4766" y="102.482598"/>
     <use style="fill:#4c72b0;stroke:#4c72b0;" x="896.617047" xlink:href="#m2c347c4766" y="91.174348"/>
     <use style="fill:#4c72b0;stroke:#4c72b0;" x="900.244358" xlink:href="#m2c347c4766" y="100.372607"/>
     <use style="fill:#4c72b0;stroke:#4c72b0;" x="903.815649" xlink:href="#m2c347c4766" y="115.428332"/>
     <use style="fill:#4c72b0;stroke:#4c72b0;" x="906.980794" xlink:href="#m2c347c4766" y="114.234504"/>
     <use style="fill:#4c72b0;stroke:#4c72b0;" x="910.131933" xlink:href="#m2c347c4766" y="118.064333"/>
     <use style="fill:#4c72b0;stroke:#4c72b0;" x="912.904935" xlink:href="#m2c347c4766" y="123.867543"/>
     <use style="fill:#4c72b0;stroke:#4c72b0;" x="914.837634" xlink:href="#m2c347c4766" y="111.088539"/>
     <use style="fill:#4c72b0;stroke:#4c72b0;" x="917.022424" xlink:href="#m2c347c4766" y="104.731126"/>
     <use style="fill:#4c72b0;stroke:#4c72b0;" x="919.039153" xlink:href="#m2c347c4766" y="117.509423"/>
     <use style="fill:#4c72b0;stroke:#4c72b0;" x="921.57407" xlink:href="#m2c347c4766" y="132.375055"/>
     <use style="fill:#4c72b0;stroke:#4c72b0;" x="923.78687" xlink:href="#m2c347c4766" y="130.900265"/>
     <use style="fill:#4c72b0;stroke:#4c72b0;" x="925.579518" xlink:href="#m2c347c4766" y="127.977319"/>
     <use style="fill:#4c72b0;stroke:#4c72b0;" x="927.008034" xlink:href="#m2c347c4766" y="121.653035"/>
     <use style="fill:#4c72b0;stroke:#4c72b0;" x="928.2965" xlink:href="#m2c347c4766" y="100.555944"/>
     <use style="fill:#4c72b0;stroke:#4c72b0;" x="929.935092" xlink:href="#m2c347c4766" y="87.196384"/>
     <use style="fill:#4c72b0;stroke:#4c72b0;" x="931.6157" xlink:href="#m2c347c4766" y="98.887508"/>
     <use style="fill:#4c72b0;stroke:#4c72b0;" x="933.954545" xlink:href="#m2c347c4766" y="116.393954"/>
    </g>
   </g>
   <g id="line2d_13">
    <path clip-path="url(#p94463f9e98)" d="M 173.045455 207.53087 
L 188.574212 205.952242 
L 204.102968 204.373615 
L 219.631725 202.794987 
L 235.160482 201.21636 
L 250.689239 199.637732 
L 266.217996 198.059105 
L 281.746753 196.480477 
L 297.27551 194.90185 
L 312.804267 193.323222 
L 328.333024 191.744595 
L 343.861781 190.165967 
L 359.390538 188.58734 
L 374.919295 187.008712 
L 390.448052 185.430085 
L 405.976809 183.851457 
L 421.505566 182.27283 
L 437.034323 180.694202 
L 452.56308 179.115575 
L 468.091837 177.536947 
L 483.620594 175.95832 
L 499.149351 174.379692 
L 514.678108 172.801065 
L 530.206865 171.222437 
L 545.735622 169.64381 
L 561.264378 168.065182 
L 576.793135 166.486555 
L 592.321892 164.907927 
L 607.850649 163.3293 
L 623.379406 161.750672 
L 638.908163 160.172045 
L 654.43692 158.593417 
L 669.965677 157.01479 
L 685.494434 155.436162 
L 701.023191 153.857535 
L 716.551948 152.278907 
L 732.080705 150.70028 
L 747.609462 149.121652 
L 763.138219 147.543025 
L 778.666976 145.964397 
L 794.195733 144.38577 
L 809.72449 142.807142 
L 825.253247 141.228515 
L 840.782004 139.649887 
L 856.310761 138.07126 
L 871.839518 136.492632 
L 887.368275 134.914005 
L 902.897032 133.335377 
L 918.425788 131.75675 
L 933.954545 130.178122 
" style="fill:none;stroke:#c44e52;stroke-dasharray:5.55,2.4;stroke-dashoffset:0;stroke-width:1.5;"/>
   </g>
   <g id="line2d_14">
    <path clip-path="url(#p94463f9e98)" d="M 571.307438 194.013391 
L 578.708399 192.347555 
L 586.109361 190.681719 
L 593.510322 189.015882 
L 600.911283 187.350046 
L 608.312245 185.68421 
L 615.713206 184.018374 
L 623.114168 182.352538 
L 630.515129 180.686702 
L 637.91609 179.020865 
L 645.317052 177.355029 
L 652.718013 175.689193 
L 660.118974 174.023357 
L 667.519936 172.357521 
L 674.920897 170.691685 
L 682.321859 169.025849 
L 689.72282 167.360012 
L 697.123781 165.694176 
L 704.524743 164.02834 
L 711.925704 162.362504 
L 719.326665 160.696668 
L 726.727627 159.030832 
L 734.128588 157.364995 
L 741.52955 155.699159 
L 748.930511 154.033323 
L 756.331472 152.367487 
L 763.732434 150.701651 
L 771.133395 149.035815 
L 778.534357 147.369979 
L 785.935318 145.704142 
L 793.336279 144.038306 
L 800.737241 142.37247 
L 808.138202 140.706634 
L 815.539163 139.040798 
L 822.940125 137.374962 
L 830.341086 135.709125 
L 837.742048 134.043289 
L 845.143009 132.377453 
L 852.54397 130.711617 
L 859.944932 129.045781 
L 867.345893 127.379945 
L 874.746854 125.714109 
L 882.147816 124.048272 
L 889.548777 122.382436 
L 896.949739 120.7166 
L 904.3507 119.050764 
L 911.751661 117.384928 
L 919.152623 115.719092 
L 926.553584 114.053256 
L 933.954545 112.387419 
" style="fill:none;stroke:#55a868;stroke-dasharray:5.55,2.4;stroke-dashoffset:0;stroke-width:1.5;"/>
   </g>
   <g id="line2d_15">
    <path clip-path="url(#p94463f9e98)" d="M 173.045455 138.637798 
L 178.504571 141.354825 
L 183.963688 144.071851 
L 189.422804 146.788877 
L 194.88192 149.505903 
L 200.341037 152.222929 
L 205.800153 154.939955 
L 211.25927 157.656981 
L 216.718386 160.374007 
L 222.177503 163.091033 
L 227.636619 165.808059 
L 233.095736 168.525085 
L 238.554852 171.242111 
L 244.013969 173.959137 
L 249.473085 176.676163 
L 254.932202 179.39319 
L 260.391318 182.110216 
L 265.850435 184.827242 
L 271.309551 187.544268 
L 276.768668 190.261294 
L 282.227784 192.97832 
L 287.686901 195.695346 
L 293.146017 198.412372 
L 298.605134 201.129398 
L 304.06425 203.846424 
L 309.523367 206.56345 
L 314.982483 209.280476 
L 320.4416 211.997502 
L 325.900716 214.714528 
L 331.359833 217.431555 
L 336.818949 220.148581 
L 342.278066 222.865607 
L 347.737182 225.582633 
L 353.196299 228.299659 
L 358.655415 231.016685 
L 364.114532 233.733711 
L 369.573648 236.450737 
L 375.032765 239.167763 
L 380.491881 241.884789 
L 385.950998 244.601815 
L 391.410114 247.318841 
L 396.869231 250.035867 
L 402.328347 252.752893 
L 407.787464 255.46992 
L 413.24658 258.186946 
L 418.705696 260.903972 
L 424.164813 263.620998 
L 429.623929 266.338024 
L 435.083046 269.05505 
L 440.542162 271.772076 
" style="fill:none;stroke:#8172b3;stroke-dasharray:5.55,2.4;stroke-dashoffset:0;stroke-width:1.5;"/>
   </g>
   <g id="patch_3">
    <path d="M 135 315 
L 135 43.2 
" style="fill:none;stroke:#ffffff;stroke-linecap:square;stroke-linejoin:miter;stroke-width:1.25;"/>
   </g>
   <g id="patch_4">
    <path d="M 972 315 
L 972 43.2 
" style="fill:none;stroke:#ffffff;stroke-linecap:square;stroke-linejoin:miter;stroke-width:1.25;"/>
   </g>
   <g id="patch_5">
    <path d="M 135 315 
L 972 315 
" style="fill:none;stroke:#ffffff;stroke-linecap:square;stroke-linejoin:miter;stroke-width:1.25;"/>
   </g>
   <g id="patch_6">
    <path d="M 135 43.2 
L 972 43.2 
" style="fill:none;stroke:#ffffff;stroke-linecap:square;stroke-linejoin:miter;stroke-width:1.25;"/>
   </g>
   <g id="legend_1">
    <g id="patch_7">
     <path d="M 142.7 309.5 
L 283.255938 309.5 
Q 285.455938 309.5 285.455938 307.3 
L 285.455938 243.81625 
Q 285.455938 241.61625 283.255938 241.61625 
L 142.7 241.61625 
Q 140.5 241.61625 140.5 243.81625 
L 140.5 307.3 
Q 140.5 309.5 142.7 309.5 
z
" style="fill:#eaeaf2;opacity:0.8;stroke:#cccccc;stroke-linejoin:miter;"/>
    </g>
    <g id="line2d_16"/>
    <g id="line2d_17">
     <g>
      <use style="fill:#4c72b0;stroke:#4c72b0;" x="155.9" xlink:href="#m2c347c4766" y="250.524531"/>
     </g>
    </g>
    <g id="text_14">
     <!-- Presented Data -->
     <defs>
      <path d="M 19.671875 64.796875 
L 19.671875 37.40625 
L 32.078125 37.40625 
Q 38.96875 37.40625 42.71875 40.96875 
Q 46.484375 44.53125 46.484375 51.125 
Q 46.484375 57.671875 42.71875 61.234375 
Q 38.96875 64.796875 32.078125 64.796875 
z
M 9.8125 72.90625 
L 32.078125 72.90625 
Q 44.34375 72.90625 50.609375 67.359375 
Q 56.890625 61.8125 56.890625 51.125 
Q 56.890625 40.328125 50.609375 34.8125 
Q 44.34375 29.296875 32.078125 29.296875 
L 19.671875 29.296875 
L 19.671875 0 
L 9.8125 0 
z
" id="DejaVuSans-80"/>
      <path d="M 19.671875 64.796875 
L 19.671875 8.109375 
L 31.59375 8.109375 
Q 46.6875 8.109375 53.6875 14.9375 
Q 60.6875 21.78125 60.6875 36.53125 
Q 60.6875 51.171875 53.6875 57.984375 
Q 46.6875 64.796875 31.59375 64.796875 
z
M 9.8125 72.90625 
L 30.078125 72.90625 
Q 51.265625 72.90625 61.171875 64.09375 
Q 71.09375 55.28125 71.09375 36.53125 
Q 71.09375 17.671875 61.125 8.828125 
Q 51.171875 0 30.078125 0 
L 9.8125 0 
z
" id="DejaVuSans-68"/>
     </defs>
     <g style="fill:#262626;" transform="translate(175.7 254.374531)scale(0.11 -0.11)">
      <use xlink:href="#DejaVuSans-80"/>
      <use x="60.287109" xlink:href="#DejaVuSans-114"/>
      <use x="101.369141" xlink:href="#DejaVuSans-101"/>
      <use x="162.892578" xlink:href="#DejaVuSans-115"/>
      <use x="214.992188" xlink:href="#DejaVuSans-101"/>
      <use x="276.515625" xlink:href="#DejaVuSans-110"/>
      <use x="339.894531" xlink:href="#DejaVuSans-116"/>
      <use x="379.103516" xlink:href="#DejaVuSans-101"/>
      <use x="440.626953" xlink:href="#DejaVuSans-100"/>
      <use x="504.103516" xlink:href="#DejaVuSans-32"/>
      <use x="535.890625" xlink:href="#DejaVuSans-68"/>
      <use x="612.892578" xlink:href="#DejaVuSans-97"/>
      <use x="674.171875" xlink:href="#DejaVuSans-116"/>
      <use x="713.380859" xlink:href="#DejaVuSans-97"/>
     </g>
    </g>
    <g id="line2d_18">
     <path d="M 144.9 266.670469 
L 166.9 266.670469 
" style="fill:none;stroke:#c44e52;stroke-dasharray:5.55,2.4;stroke-dashoffset:0;stroke-width:1.5;"/>
    </g>
    <g id="line2d_19"/>
    <g id="text_15">
     <!-- Entire Curve -->
     <defs>
      <path d="M 9.8125 72.90625 
L 55.90625 72.90625 
L 55.90625 64.59375 
L 19.671875 64.59375 
L 19.671875 43.015625 
L 54.390625 43.015625 
L 54.390625 34.71875 
L 19.671875 34.71875 
L 19.671875 8.296875 
L 56.78125 8.296875 
L 56.78125 0 
L 9.8125 0 
z
" id="DejaVuSans-69"/>
      <path d="M 8.5 21.578125 
L 8.5 54.6875 
L 17.484375 54.6875 
L 17.484375 21.921875 
Q 17.484375 14.15625 20.5 10.265625 
Q 23.53125 6.390625 29.59375 6.390625 
Q 36.859375 6.390625 41.078125 11.03125 
Q 45.3125 15.671875 45.3125 23.6875 
L 45.3125 54.6875 
L 54.296875 54.6875 
L 54.296875 0 
L 45.3125 0 
L 45.3125 8.40625 
Q 42.046875 3.421875 37.71875 1 
Q 33.40625 -1.421875 27.6875 -1.421875 
Q 18.265625 -1.421875 13.375 4.4375 
Q 8.5 10.296875 8.5 21.578125 
z
M 31.109375 56 
z
" id="DejaVuSans-117"/>
      <path d="M 2.984375 54.6875 
L 12.5 54.6875 
L 29.59375 8.796875 
L 46.6875 54.6875 
L 56.203125 54.6875 
L 35.6875 0 
L 23.484375 0 
z
" id="DejaVuSans-118"/>
     </defs>
     <g style="fill:#262626;" transform="translate(175.7 270.520469)scale(0.11 -0.11)">
      <use xlink:href="#DejaVuSans-69"/>
      <use x="63.183594" xlink:href="#DejaVuSans-110"/>
      <use x="126.5625" xlink:href="#DejaVuSans-116"/>
      <use x="165.771484" xlink:href="#DejaVuSans-105"/>
      <use x="193.554688" xlink:href="#DejaVuSans-114"/>
      <use x="234.636719" xlink:href="#DejaVuSans-101"/>
      <use x="296.160156" xlink:href="#DejaVuSans-32"/>
      <use x="327.947266" xlink:href="#DejaVuSans-67"/>
      <use x="397.771484" xlink:href="#DejaVuSans-117"/>
      <use x="461.150391" xlink:href="#DejaVuSans-114"/>
      <use x="502.263672" xlink:href="#DejaVuSans-118"/>
      <use x="561.443359" xlink:href="#DejaVuSans-101"/>
     </g>
    </g>
    <g id="line2d_20">
     <path d="M 144.9 282.816406 
L 166.9 282.816406 
" style="fill:none;stroke:#55a868;stroke-dasharray:5.55,2.4;stroke-dashoffset:0;stroke-width:1.5;"/>
    </g>
    <g id="line2d_21"/>
    <g id="text_16">
     <!-- End of Curve -->
     <g style="fill:#262626;" transform="translate(175.7 286.666406)scale(0.11 -0.11)">
      <use xlink:href="#DejaVuSans-69"/>
      <use x="63.183594" xlink:href="#DejaVuSans-110"/>
      <use x="126.5625" xlink:href="#DejaVuSans-100"/>
      <use x="190.039062" xlink:href="#DejaVuSans-32"/>
      <use x="221.826172" xlink:href="#DejaVuSans-111"/>
      <use x="283.007812" xlink:href="#DejaVuSans-102"/>
      <use x="318.212891" xlink:href="#DejaVuSans-32"/>
      <use x="350" xlink:href="#DejaVuSans-67"/>
      <use x="419.824219" xlink:href="#DejaVuSans-117"/>
      <use x="483.203125" xlink:href="#DejaVuSans-114"/>
      <use x="524.316406" xlink:href="#DejaVuSans-118"/>
      <use x="583.496094" xlink:href="#DejaVuSans-101"/>
     </g>
    </g>
    <g id="line2d_22">
     <path d="M 144.9 298.962344 
L 166.9 298.962344 
" style="fill:none;stroke:#8172b3;stroke-dasharray:5.55,2.4;stroke-dashoffset:0;stroke-width:1.5;"/>
    </g>
    <g id="line2d_23"/>
    <g id="text_17">
     <!-- Beginning of Curve -->
     <defs>
      <path d="M 45.40625 27.984375 
Q 45.40625 37.75 41.375 43.109375 
Q 37.359375 48.484375 30.078125 48.484375 
Q 22.859375 48.484375 18.828125 43.109375 
Q 14.796875 37.75 14.796875 27.984375 
Q 14.796875 18.265625 18.828125 12.890625 
Q 22.859375 7.515625 30.078125 7.515625 
Q 37.359375 7.515625 41.375 12.890625 
Q 45.40625 18.265625 45.40625 27.984375 
z
M 54.390625 6.78125 
Q 54.390625 -7.171875 48.1875 -13.984375 
Q 42 -20.796875 29.203125 -20.796875 
Q 24.46875 -20.796875 20.265625 -20.09375 
Q 16.0625 -19.390625 12.109375 -17.921875 
L 12.109375 -9.1875 
Q 16.0625 -11.328125 19.921875 -12.34375 
Q 23.78125 -13.375 27.78125 -13.375 
Q 36.625 -13.375 41.015625 -8.765625 
Q 45.40625 -4.15625 45.40625 5.171875 
L 45.40625 9.625 
Q 42.625 4.78125 38.28125 2.390625 
Q 33.9375 0 27.875 0 
Q 17.828125 0 11.671875 7.65625 
Q 5.515625 15.328125 5.515625 27.984375 
Q 5.515625 40.671875 11.671875 48.328125 
Q 17.828125 56 27.875 56 
Q 33.9375 56 38.28125 53.609375 
Q 42.625 51.21875 45.40625 46.390625 
L 45.40625 54.6875 
L 54.390625 54.6875 
z
" id="DejaVuSans-103"/>
     </defs>
     <g style="fill:#262626;" transform="translate(175.7 302.812344)scale(0.11 -0.11)">
      <use xlink:href="#DejaVuSans-66"/>
      <use x="68.603516" xlink:href="#DejaVuSans-101"/>
      <use x="130.126953" xlink:href="#DejaVuSans-103"/>
      <use x="193.603516" xlink:href="#DejaVuSans-105"/>
      <use x="221.386719" xlink:href="#DejaVuSans-110"/>
      <use x="284.765625" xlink:href="#DejaVuSans-110"/>
      <use x="348.144531" xlink:href="#DejaVuSans-105"/>
      <use x="375.927734" xlink:href="#DejaVuSans-110"/>
      <use x="439.306641" xlink:href="#DejaVuSans-103"/>
      <use x="502.783203" xlink:href="#DejaVuSans-32"/>
      <use x="534.570312" xlink:href="#DejaVuSans-111"/>
      <use x="595.751953" xlink:href="#DejaVuSans-102"/>
      <use x="630.957031" xlink:href="#DejaVuSans-32"/>
      <use x="662.744141" xlink:href="#DejaVuSans-67"/>
      <use x="732.568359" xlink:href="#DejaVuSans-117"/>
      <use x="795.947266" xlink:href="#DejaVuSans-114"/>
      <use x="837.060547" xlink:href="#DejaVuSans-118"/>
      <use x="896.240234" xlink:href="#DejaVuSans-101"/>
     </g>
    </g>
   </g>
  </g>
 </g>
 <defs>
  <clipPath id="p94463f9e98">
   <rect height="271.8" width="837" x="135" y="43.2"/>
  </clipPath>
 </defs>
</svg>
