<?xml version="1.0" encoding="utf-8" standalone="no"?>
<!DOCTYPE svg PUBLIC "-//W3C//DTD SVG 1.1//EN"
  "http://www.w3.org/Graphics/SVG/1.1/DTD/svg11.dtd">
<!-- Created with matplotlib (https://matplotlib.org/) -->
<svg height="288pt" version="1.1" viewBox="0 0 432 288" width="432pt" xmlns="http://www.w3.org/2000/svg" xmlns:xlink="http://www.w3.org/1999/xlink">
 <defs>
  <style type="text/css">
*{stroke-linecap:butt;stroke-linejoin:round;}
  </style>
 </defs>
 <g id="figure_1">
  <g id="patch_1">
   <path d="M 0 288 
L 432 288 
L 432 0 
L 0 0 
z
" style="fill:#ffffff;"/>
  </g>
  <g id="axes_1">
   <g id="patch_2">
    <path d="M 54 252 
L 388.8 252 
L 388.8 34.56 
L 54 34.56 
z
" style="fill:#eaeaf2;"/>
   </g>
   <g id="matplotlib.axis_1">
    <g id="xtick_1">
     <g id="line2d_1">
      <path clip-path="url(#p3c4c06a305)" d="M 69.218182 252 
L 69.218182 34.56 
" style="fill:none;stroke:#ffffff;stroke-linecap:round;"/>
     </g>
     <g id="text_1">
      <!-- 0 -->
      <defs>
       <path d="M 31.78125 66.40625 
Q 24.171875 66.40625 20.328125 58.90625 
Q 16.5 51.421875 16.5 36.375 
Q 16.5 21.390625 20.328125 13.890625 
Q 24.171875 6.390625 31.78125 6.390625 
Q 39.453125 6.390625 43.28125 13.890625 
Q 47.125 21.390625 47.125 36.375 
Q 47.125 51.421875 43.28125 58.90625 
Q 39.453125 66.40625 31.78125 66.40625 
z
M 31.78125 74.21875 
Q 44.046875 74.21875 50.515625 64.515625 
Q 56.984375 54.828125 56.984375 36.375 
Q 56.984375 17.96875 50.515625 8.265625 
Q 44.046875 -1.421875 31.78125 -1.421875 
Q 19.53125 -1.421875 13.0625 8.265625 
Q 6.59375 17.96875 6.59375 36.375 
Q 6.59375 54.828125 13.0625 64.515625 
Q 19.53125 74.21875 31.78125 74.21875 
z
" id="DejaVuSans-48"/>
      </defs>
      <g style="fill:#262626;" transform="translate(65.718807 269.858281)scale(0.11 -0.11)">
       <use xlink:href="#DejaVuSans-48"/>
      </g>
     </g>
    </g>
    <g id="xtick_2">
     <g id="line2d_2">
      <path clip-path="url(#p3c4c06a305)" d="M 122.150988 252 
L 122.150988 34.56 
" style="fill:none;stroke:#ffffff;stroke-linecap:round;"/>
     </g>
     <g id="text_2">
      <!-- 2000 -->
      <defs>
       <path d="M 19.1875 8.296875 
L 53.609375 8.296875 
L 53.609375 0 
L 7.328125 0 
L 7.328125 8.296875 
Q 12.9375 14.109375 22.625 23.890625 
Q 32.328125 33.6875 34.8125 36.53125 
Q 39.546875 41.84375 41.421875 45.53125 
Q 43.3125 49.21875 43.3125 52.78125 
Q 43.3125 58.59375 39.234375 62.25 
Q 35.15625 65.921875 28.609375 65.921875 
Q 23.96875 65.921875 18.8125 64.3125 
Q 13.671875 62.703125 7.8125 59.421875 
L 7.8125 69.390625 
Q 13.765625 71.78125 18.9375 73 
Q 24.125 74.21875 28.421875 74.21875 
Q 39.75 74.21875 46.484375 68.546875 
Q 53.21875 62.890625 53.21875 53.421875 
Q 53.21875 48.921875 51.53125 44.890625 
Q 49.859375 40.875 45.40625 35.40625 
Q 44.1875 33.984375 37.640625 27.21875 
Q 31.109375 20.453125 19.1875 8.296875 
z
" id="DejaVuSans-50"/>
      </defs>
      <g style="fill:#262626;" transform="translate(108.153488 269.858281)scale(0.11 -0.11)">
       <use xlink:href="#DejaVuSans-50"/>
       <use x="63.623047" xlink:href="#DejaVuSans-48"/>
       <use x="127.246094" xlink:href="#DejaVuSans-48"/>
       <use x="190.869141" xlink:href="#DejaVuSans-48"/>
      </g>
     </g>
    </g>
    <g id="xtick_3">
     <g id="line2d_3">
      <path clip-path="url(#p3c4c06a305)" d="M 175.083794 252 
L 175.083794 34.56 
" style="fill:none;stroke:#ffffff;stroke-linecap:round;"/>
     </g>
     <g id="text_3">
      <!-- 4000 -->
      <defs>
       <path d="M 37.796875 64.3125 
L 12.890625 25.390625 
L 37.796875 25.390625 
z
M 35.203125 72.90625 
L 47.609375 72.90625 
L 47.609375 25.390625 
L 58.015625 25.390625 
L 58.015625 17.1875 
L 47.609375 17.1875 
L 47.609375 0 
L 37.796875 0 
L 37.796875 17.1875 
L 4.890625 17.1875 
L 4.890625 26.703125 
z
" id="DejaVuSans-52"/>
      </defs>
      <g style="fill:#262626;" transform="translate(161.086294 269.858281)scale(0.11 -0.11)">
       <use xlink:href="#DejaVuSans-52"/>
       <use x="63.623047" xlink:href="#DejaVuSans-48"/>
       <use x="127.246094" xlink:href="#DejaVuSans-48"/>
       <use x="190.869141" xlink:href="#DejaVuSans-48"/>
      </g>
     </g>
    </g>
    <g id="xtick_4">
     <g id="line2d_4">
      <path clip-path="url(#p3c4c06a305)" d="M 228.016601 252 
L 228.016601 34.56 
" style="fill:none;stroke:#ffffff;stroke-linecap:round;"/>
     </g>
     <g id="text_4">
      <!-- 6000 -->
      <defs>
       <path d="M 33.015625 40.375 
Q 26.375 40.375 22.484375 35.828125 
Q 18.609375 31.296875 18.609375 23.390625 
Q 18.609375 15.53125 22.484375 10.953125 
Q 26.375 6.390625 33.015625 6.390625 
Q 39.65625 6.390625 43.53125 10.953125 
Q 47.40625 15.53125 47.40625 23.390625 
Q 47.40625 31.296875 43.53125 35.828125 
Q 39.65625 40.375 33.015625 40.375 
z
M 52.59375 71.296875 
L 52.59375 62.3125 
Q 48.875 64.0625 45.09375 64.984375 
Q 41.3125 65.921875 37.59375 65.921875 
Q 27.828125 65.921875 22.671875 59.328125 
Q 17.53125 52.734375 16.796875 39.40625 
Q 19.671875 43.65625 24.015625 45.921875 
Q 28.375 48.1875 33.59375 48.1875 
Q 44.578125 48.1875 50.953125 41.515625 
Q 57.328125 34.859375 57.328125 23.390625 
Q 57.328125 12.15625 50.6875 5.359375 
Q 44.046875 -1.421875 33.015625 -1.421875 
Q 20.359375 -1.421875 13.671875 8.265625 
Q 6.984375 17.96875 6.984375 36.375 
Q 6.984375 53.65625 15.1875 63.9375 
Q 23.390625 74.21875 37.203125 74.21875 
Q 40.921875 74.21875 44.703125 73.484375 
Q 48.484375 72.75 52.59375 71.296875 
z
" id="DejaVuSans-54"/>
      </defs>
      <g style="fill:#262626;" transform="translate(214.019101 269.858281)scale(0.11 -0.11)">
       <use xlink:href="#DejaVuSans-54"/>
       <use x="63.623047" xlink:href="#DejaVuSans-48"/>
       <use x="127.246094" xlink:href="#DejaVuSans-48"/>
       <use x="190.869141" xlink:href="#DejaVuSans-48"/>
      </g>
     </g>
    </g>
    <g id="xtick_5">
     <g id="line2d_5">
      <path clip-path="url(#p3c4c06a305)" d="M 280.949407 252 
L 280.949407 34.56 
" style="fill:none;stroke:#ffffff;stroke-linecap:round;"/>
     </g>
     <g id="text_5">
      <!-- 8000 -->
      <defs>
       <path d="M 31.78125 34.625 
Q 24.75 34.625 20.71875 30.859375 
Q 16.703125 27.09375 16.703125 20.515625 
Q 16.703125 13.921875 20.71875 10.15625 
Q 24.75 6.390625 31.78125 6.390625 
Q 38.8125 6.390625 42.859375 10.171875 
Q 46.921875 13.96875 46.921875 20.515625 
Q 46.921875 27.09375 42.890625 30.859375 
Q 38.875 34.625 31.78125 34.625 
z
M 21.921875 38.8125 
Q 15.578125 40.375 12.03125 44.71875 
Q 8.5 49.078125 8.5 55.328125 
Q 8.5 64.0625 14.71875 69.140625 
Q 20.953125 74.21875 31.78125 74.21875 
Q 42.671875 74.21875 48.875 69.140625 
Q 55.078125 64.0625 55.078125 55.328125 
Q 55.078125 49.078125 51.53125 44.71875 
Q 48 40.375 41.703125 38.8125 
Q 48.828125 37.15625 52.796875 32.3125 
Q 56.78125 27.484375 56.78125 20.515625 
Q 56.78125 9.90625 50.3125 4.234375 
Q 43.84375 -1.421875 31.78125 -1.421875 
Q 19.734375 -1.421875 13.25 4.234375 
Q 6.78125 9.90625 6.78125 20.515625 
Q 6.78125 27.484375 10.78125 32.3125 
Q 14.796875 37.15625 21.921875 38.8125 
z
M 18.3125 54.390625 
Q 18.3125 48.734375 21.84375 45.5625 
Q 25.390625 42.390625 31.78125 42.390625 
Q 38.140625 42.390625 41.71875 45.5625 
Q 45.3125 48.734375 45.3125 54.390625 
Q 45.3125 60.0625 41.71875 63.234375 
Q 38.140625 66.40625 31.78125 66.40625 
Q 25.390625 66.40625 21.84375 63.234375 
Q 18.3125 60.0625 18.3125 54.390625 
z
" id="DejaVuSans-56"/>
      </defs>
      <g style="fill:#262626;" transform="translate(266.951907 269.858281)scale(0.11 -0.11)">
       <use xlink:href="#DejaVuSans-56"/>
       <use x="63.623047" xlink:href="#DejaVuSans-48"/>
       <use x="127.246094" xlink:href="#DejaVuSans-48"/>
       <use x="190.869141" xlink:href="#DejaVuSans-48"/>
      </g>
     </g>
    </g>
    <g id="xtick_6">
     <g id="line2d_6">
      <path clip-path="url(#p3c4c06a305)" d="M 333.882213 252 
L 333.882213 34.56 
" style="fill:none;stroke:#ffffff;stroke-linecap:round;"/>
     </g>
     <g id="text_6">
      <!-- 10000 -->
      <defs>
       <path d="M 12.40625 8.296875 
L 28.515625 8.296875 
L 28.515625 63.921875 
L 10.984375 60.40625 
L 10.984375 69.390625 
L 28.421875 72.90625 
L 38.28125 72.90625 
L 38.28125 8.296875 
L 54.390625 8.296875 
L 54.390625 0 
L 12.40625 0 
z
" id="DejaVuSans-49"/>
      </defs>
      <g style="fill:#262626;" transform="translate(316.385338 269.858281)scale(0.11 -0.11)">
       <use xlink:href="#DejaVuSans-49"/>
       <use x="63.623047" xlink:href="#DejaVuSans-48"/>
       <use x="127.246094" xlink:href="#DejaVuSans-48"/>
       <use x="190.869141" xlink:href="#DejaVuSans-48"/>
       <use x="254.492188" xlink:href="#DejaVuSans-48"/>
      </g>
     </g>
    </g>
    <g id="xtick_7">
     <g id="line2d_7">
      <path clip-path="url(#p3c4c06a305)" d="M 386.81502 252 
L 386.81502 34.56 
" style="fill:none;stroke:#ffffff;stroke-linecap:round;"/>
     </g>
     <g id="text_7">
      <!-- 12000 -->
      <g style="fill:#262626;" transform="translate(369.318145 269.858281)scale(0.11 -0.11)">
       <use xlink:href="#DejaVuSans-49"/>
       <use x="63.623047" xlink:href="#DejaVuSans-50"/>
       <use x="127.246094" xlink:href="#DejaVuSans-48"/>
       <use x="190.869141" xlink:href="#DejaVuSans-48"/>
       <use x="254.492188" xlink:href="#DejaVuSans-48"/>
      </g>
     </g>
    </g>
    <g id="text_8">
     <!-- Total Confirmed Cases -->
     <defs>
      <path d="M -0.296875 72.90625 
L 61.375 72.90625 
L 61.375 64.59375 
L 35.5 64.59375 
L 35.5 0 
L 25.59375 0 
L 25.59375 64.59375 
L -0.296875 64.59375 
z
" id="DejaVuSans-84"/>
      <path d="M 30.609375 48.390625 
Q 23.390625 48.390625 19.1875 42.75 
Q 14.984375 37.109375 14.984375 27.296875 
Q 14.984375 17.484375 19.15625 11.84375 
Q 23.34375 6.203125 30.609375 6.203125 
Q 37.796875 6.203125 41.984375 11.859375 
Q 46.1875 17.53125 46.1875 27.296875 
Q 46.1875 37.015625 41.984375 42.703125 
Q 37.796875 48.390625 30.609375 48.390625 
z
M 30.609375 56 
Q 42.328125 56 49.015625 48.375 
Q 55.71875 40.765625 55.71875 27.296875 
Q 55.71875 13.875 49.015625 6.21875 
Q 42.328125 -1.421875 30.609375 -1.421875 
Q 18.84375 -1.421875 12.171875 6.21875 
Q 5.515625 13.875 5.515625 27.296875 
Q 5.515625 40.765625 12.171875 48.375 
Q 18.84375 56 30.609375 56 
z
" id="DejaVuSans-111"/>
      <path d="M 18.3125 70.21875 
L 18.3125 54.6875 
L 36.8125 54.6875 
L 36.8125 47.703125 
L 18.3125 47.703125 
L 18.3125 18.015625 
Q 18.3125 11.328125 20.140625 9.421875 
Q 21.96875 7.515625 27.59375 7.515625 
L 36.8125 7.515625 
L 36.8125 0 
L 27.59375 0 
Q 17.1875 0 13.234375 3.875 
Q 9.28125 7.765625 9.28125 18.015625 
L 9.28125 47.703125 
L 2.6875 47.703125 
L 2.6875 54.6875 
L 9.28125 54.6875 
L 9.28125 70.21875 
z
" id="DejaVuSans-116"/>
      <path d="M 34.28125 27.484375 
Q 23.390625 27.484375 19.1875 25 
Q 14.984375 22.515625 14.984375 16.5 
Q 14.984375 11.71875 18.140625 8.90625 
Q 21.296875 6.109375 26.703125 6.109375 
Q 34.1875 6.109375 38.703125 11.40625 
Q 43.21875 16.703125 43.21875 25.484375 
L 43.21875 27.484375 
z
M 52.203125 31.203125 
L 52.203125 0 
L 43.21875 0 
L 43.21875 8.296875 
Q 40.140625 3.328125 35.546875 0.953125 
Q 30.953125 -1.421875 24.3125 -1.421875 
Q 15.921875 -1.421875 10.953125 3.296875 
Q 6 8.015625 6 15.921875 
Q 6 25.140625 12.171875 29.828125 
Q 18.359375 34.515625 30.609375 34.515625 
L 43.21875 34.515625 
L 43.21875 35.40625 
Q 43.21875 41.609375 39.140625 45 
Q 35.0625 48.390625 27.6875 48.390625 
Q 23 48.390625 18.546875 47.265625 
Q 14.109375 46.140625 10.015625 43.890625 
L 10.015625 52.203125 
Q 14.9375 54.109375 19.578125 55.046875 
Q 24.21875 56 28.609375 56 
Q 40.484375 56 46.34375 49.84375 
Q 52.203125 43.703125 52.203125 31.203125 
z
" id="DejaVuSans-97"/>
      <path d="M 9.421875 75.984375 
L 18.40625 75.984375 
L 18.40625 0 
L 9.421875 0 
z
" id="DejaVuSans-108"/>
      <path id="DejaVuSans-32"/>
      <path d="M 64.40625 67.28125 
L 64.40625 56.890625 
Q 59.421875 61.53125 53.78125 63.8125 
Q 48.140625 66.109375 41.796875 66.109375 
Q 29.296875 66.109375 22.65625 58.46875 
Q 16.015625 50.828125 16.015625 36.375 
Q 16.015625 21.96875 22.65625 14.328125 
Q 29.296875 6.6875 41.796875 6.6875 
Q 48.140625 6.6875 53.78125 8.984375 
Q 59.421875 11.28125 64.40625 15.921875 
L 64.40625 5.609375 
Q 59.234375 2.09375 53.4375 0.328125 
Q 47.65625 -1.421875 41.21875 -1.421875 
Q 24.65625 -1.421875 15.125 8.703125 
Q 5.609375 18.84375 5.609375 36.375 
Q 5.609375 53.953125 15.125 64.078125 
Q 24.65625 74.21875 41.21875 74.21875 
Q 47.75 74.21875 53.53125 72.484375 
Q 59.328125 70.75 64.40625 67.28125 
z
" id="DejaVuSans-67"/>
      <path d="M 54.890625 33.015625 
L 54.890625 0 
L 45.90625 0 
L 45.90625 32.71875 
Q 45.90625 40.484375 42.875 44.328125 
Q 39.84375 48.1875 33.796875 48.1875 
Q 26.515625 48.1875 22.3125 43.546875 
Q 18.109375 38.921875 18.109375 30.90625 
L 18.109375 0 
L 9.078125 0 
L 9.078125 54.6875 
L 18.109375 54.6875 
L 18.109375 46.1875 
Q 21.34375 51.125 25.703125 53.5625 
Q 30.078125 56 35.796875 56 
Q 45.21875 56 50.046875 50.171875 
Q 54.890625 44.34375 54.890625 33.015625 
z
" id="DejaVuSans-110"/>
      <path d="M 37.109375 75.984375 
L 37.109375 68.5 
L 28.515625 68.5 
Q 23.6875 68.5 21.796875 66.546875 
Q 19.921875 64.59375 19.921875 59.515625 
L 19.921875 54.6875 
L 34.71875 54.6875 
L 34.71875 47.703125 
L 19.921875 47.703125 
L 19.921875 0 
L 10.890625 0 
L 10.890625 47.703125 
L 2.296875 47.703125 
L 2.296875 54.6875 
L 10.890625 54.6875 
L 10.890625 58.5 
Q 10.890625 67.625 15.140625 71.796875 
Q 19.390625 75.984375 28.609375 75.984375 
z
" id="DejaVuSans-102"/>
      <path d="M 9.421875 54.6875 
L 18.40625 54.6875 
L 18.40625 0 
L 9.421875 0 
z
M 9.421875 75.984375 
L 18.40625 75.984375 
L 18.40625 64.59375 
L 9.421875 64.59375 
z
" id="DejaVuSans-105"/>
      <path d="M 41.109375 46.296875 
Q 39.59375 47.171875 37.8125 47.578125 
Q 36.03125 48 33.890625 48 
Q 26.265625 48 22.1875 43.046875 
Q 18.109375 38.09375 18.109375 28.8125 
L 18.109375 0 
L 9.078125 0 
L 9.078125 54.6875 
L 18.109375 54.6875 
L 18.109375 46.1875 
Q 20.953125 51.171875 25.484375 53.578125 
Q 30.03125 56 36.53125 56 
Q 37.453125 56 38.578125 55.875 
Q 39.703125 55.765625 41.0625 55.515625 
z
" id="DejaVuSans-114"/>
      <path d="M 52 44.1875 
Q 55.375 50.25 60.0625 53.125 
Q 64.75 56 71.09375 56 
Q 79.640625 56 84.28125 50.015625 
Q 88.921875 44.046875 88.921875 33.015625 
L 88.921875 0 
L 79.890625 0 
L 79.890625 32.71875 
Q 79.890625 40.578125 77.09375 44.375 
Q 74.3125 48.1875 68.609375 48.1875 
Q 61.625 48.1875 57.5625 43.546875 
Q 53.515625 38.921875 53.515625 30.90625 
L 53.515625 0 
L 44.484375 0 
L 44.484375 32.71875 
Q 44.484375 40.625 41.703125 44.40625 
Q 38.921875 48.1875 33.109375 48.1875 
Q 26.21875 48.1875 22.15625 43.53125 
Q 18.109375 38.875 18.109375 30.90625 
L 18.109375 0 
L 9.078125 0 
L 9.078125 54.6875 
L 18.109375 54.6875 
L 18.109375 46.1875 
Q 21.1875 51.21875 25.484375 53.609375 
Q 29.78125 56 35.6875 56 
Q 41.65625 56 45.828125 52.96875 
Q 50 49.953125 52 44.1875 
z
" id="DejaVuSans-109"/>
      <path d="M 56.203125 29.59375 
L 56.203125 25.203125 
L 14.890625 25.203125 
Q 15.484375 15.921875 20.484375 11.0625 
Q 25.484375 6.203125 34.421875 6.203125 
Q 39.59375 6.203125 44.453125 7.46875 
Q 49.3125 8.734375 54.109375 11.28125 
L 54.109375 2.78125 
Q 49.265625 0.734375 44.1875 -0.34375 
Q 39.109375 -1.421875 33.890625 -1.421875 
Q 20.796875 -1.421875 13.15625 6.1875 
Q 5.515625 13.8125 5.515625 26.8125 
Q 5.515625 40.234375 12.765625 48.109375 
Q 20.015625 56 32.328125 56 
Q 43.359375 56 49.78125 48.890625 
Q 56.203125 41.796875 56.203125 29.59375 
z
M 47.21875 32.234375 
Q 47.125 39.59375 43.09375 43.984375 
Q 39.0625 48.390625 32.421875 48.390625 
Q 24.90625 48.390625 20.390625 44.140625 
Q 15.875 39.890625 15.1875 32.171875 
z
" id="DejaVuSans-101"/>
      <path d="M 45.40625 46.390625 
L 45.40625 75.984375 
L 54.390625 75.984375 
L 54.390625 0 
L 45.40625 0 
L 45.40625 8.203125 
Q 42.578125 3.328125 38.25 0.953125 
Q 33.9375 -1.421875 27.875 -1.421875 
Q 17.96875 -1.421875 11.734375 6.484375 
Q 5.515625 14.40625 5.515625 27.296875 
Q 5.515625 40.1875 11.734375 48.09375 
Q 17.96875 56 27.875 56 
Q 33.9375 56 38.25 53.625 
Q 42.578125 51.265625 45.40625 46.390625 
z
M 14.796875 27.296875 
Q 14.796875 17.390625 18.875 11.75 
Q 22.953125 6.109375 30.078125 6.109375 
Q 37.203125 6.109375 41.296875 11.75 
Q 45.40625 17.390625 45.40625 27.296875 
Q 45.40625 37.203125 41.296875 42.84375 
Q 37.203125 48.484375 30.078125 48.484375 
Q 22.953125 48.484375 18.875 42.84375 
Q 14.796875 37.203125 14.796875 27.296875 
z
" id="DejaVuSans-100"/>
      <path d="M 44.28125 53.078125 
L 44.28125 44.578125 
Q 40.484375 46.53125 36.375 47.5 
Q 32.28125 48.484375 27.875 48.484375 
Q 21.1875 48.484375 17.84375 46.4375 
Q 14.5 44.390625 14.5 40.28125 
Q 14.5 37.15625 16.890625 35.375 
Q 19.28125 33.59375 26.515625 31.984375 
L 29.59375 31.296875 
Q 39.15625 29.25 43.1875 25.515625 
Q 47.21875 21.78125 47.21875 15.09375 
Q 47.21875 7.46875 41.1875 3.015625 
Q 35.15625 -1.421875 24.609375 -1.421875 
Q 20.21875 -1.421875 15.453125 -0.5625 
Q 10.6875 0.296875 5.421875 2 
L 5.421875 11.28125 
Q 10.40625 8.6875 15.234375 7.390625 
Q 20.0625 6.109375 24.8125 6.109375 
Q 31.15625 6.109375 34.5625 8.28125 
Q 37.984375 10.453125 37.984375 14.40625 
Q 37.984375 18.0625 35.515625 20.015625 
Q 33.0625 21.96875 24.703125 23.78125 
L 21.578125 24.515625 
Q 13.234375 26.265625 9.515625 29.90625 
Q 5.8125 33.546875 5.8125 39.890625 
Q 5.8125 47.609375 11.28125 51.796875 
Q 16.75 56 26.8125 56 
Q 31.78125 56 36.171875 55.265625 
Q 40.578125 54.546875 44.28125 53.078125 
z
" id="DejaVuSans-115"/>
     </defs>
     <g style="fill:#262626;" transform="translate(153.507188 285.264063)scale(0.12 -0.12)">
      <use xlink:href="#DejaVuSans-84"/>
      <use x="60.818359" xlink:href="#DejaVuSans-111"/>
      <use x="122" xlink:href="#DejaVuSans-116"/>
      <use x="161.208984" xlink:href="#DejaVuSans-97"/>
      <use x="222.488281" xlink:href="#DejaVuSans-108"/>
      <use x="250.271484" xlink:href="#DejaVuSans-32"/>
      <use x="282.058594" xlink:href="#DejaVuSans-67"/>
      <use x="351.882812" xlink:href="#DejaVuSans-111"/>
      <use x="413.064453" xlink:href="#DejaVuSans-110"/>
      <use x="476.443359" xlink:href="#DejaVuSans-102"/>
      <use x="511.648438" xlink:href="#DejaVuSans-105"/>
      <use x="539.431641" xlink:href="#DejaVuSans-114"/>
      <use x="580.529297" xlink:href="#DejaVuSans-109"/>
      <use x="677.941406" xlink:href="#DejaVuSans-101"/>
      <use x="739.464844" xlink:href="#DejaVuSans-100"/>
      <use x="802.941406" xlink:href="#DejaVuSans-32"/>
      <use x="834.728516" xlink:href="#DejaVuSans-67"/>
      <use x="904.552734" xlink:href="#DejaVuSans-97"/>
      <use x="965.832031" xlink:href="#DejaVuSans-115"/>
      <use x="1017.931641" xlink:href="#DejaVuSans-101"/>
      <use x="1079.455078" xlink:href="#DejaVuSans-115"/>
     </g>
    </g>
   </g>
   <g id="matplotlib.axis_2">
    <g id="ytick_1">
     <g id="line2d_8">
      <path clip-path="url(#p3c4c06a305)" d="M 54 243.247033 
L 388.8 243.247033 
" style="fill:none;stroke:#ffffff;stroke-linecap:round;"/>
     </g>
     <g id="text_9">
      <!-- 60 -->
      <g style="fill:#262626;" transform="translate(30.5025 247.426173)scale(0.11 -0.11)">
       <use xlink:href="#DejaVuSans-54"/>
       <use x="63.623047" xlink:href="#DejaVuSans-48"/>
      </g>
     </g>
    </g>
    <g id="ytick_2">
     <g id="line2d_9">
      <path clip-path="url(#p3c4c06a305)" d="M 54 216.47416 
L 388.8 216.47416 
" style="fill:none;stroke:#ffffff;stroke-linecap:round;"/>
     </g>
     <g id="text_10">
      <!-- 70 -->
      <defs>
       <path d="M 8.203125 72.90625 
L 55.078125 72.90625 
L 55.078125 68.703125 
L 28.609375 0 
L 18.3125 0 
L 43.21875 64.59375 
L 8.203125 64.59375 
z
" id="DejaVuSans-55"/>
      </defs>
      <g style="fill:#262626;" transform="translate(30.5025 220.653301)scale(0.11 -0.11)">
       <use xlink:href="#DejaVuSans-55"/>
       <use x="63.623047" xlink:href="#DejaVuSans-48"/>
      </g>
     </g>
    </g>
    <g id="ytick_3">
     <g id="line2d_10">
      <path clip-path="url(#p3c4c06a305)" d="M 54 189.701288 
L 388.8 189.701288 
" style="fill:none;stroke:#ffffff;stroke-linecap:round;"/>
     </g>
     <g id="text_11">
      <!-- 80 -->
      <g style="fill:#262626;" transform="translate(30.5025 193.880429)scale(0.11 -0.11)">
       <use xlink:href="#DejaVuSans-56"/>
       <use x="63.623047" xlink:href="#DejaVuSans-48"/>
      </g>
     </g>
    </g>
    <g id="ytick_4">
     <g id="line2d_11">
      <path clip-path="url(#p3c4c06a305)" d="M 54 162.928416 
L 388.8 162.928416 
" style="fill:none;stroke:#ffffff;stroke-linecap:round;"/>
     </g>
     <g id="text_12">
      <!-- 90 -->
      <defs>
       <path d="M 10.984375 1.515625 
L 10.984375 10.5 
Q 14.703125 8.734375 18.5 7.8125 
Q 22.3125 6.890625 25.984375 6.890625 
Q 35.75 6.890625 40.890625 13.453125 
Q 46.046875 20.015625 46.78125 33.40625 
Q 43.953125 29.203125 39.59375 26.953125 
Q 35.25 24.703125 29.984375 24.703125 
Q 19.046875 24.703125 12.671875 31.3125 
Q 6.296875 37.9375 6.296875 49.421875 
Q 6.296875 60.640625 12.9375 67.421875 
Q 19.578125 74.21875 30.609375 74.21875 
Q 43.265625 74.21875 49.921875 64.515625 
Q 56.59375 54.828125 56.59375 36.375 
Q 56.59375 19.140625 48.40625 8.859375 
Q 40.234375 -1.421875 26.421875 -1.421875 
Q 22.703125 -1.421875 18.890625 -0.6875 
Q 15.09375 0.046875 10.984375 1.515625 
z
M 30.609375 32.421875 
Q 37.25 32.421875 41.125 36.953125 
Q 45.015625 41.5 45.015625 49.421875 
Q 45.015625 57.28125 41.125 61.84375 
Q 37.25 66.40625 30.609375 66.40625 
Q 23.96875 66.40625 20.09375 61.84375 
Q 16.21875 57.28125 16.21875 49.421875 
Q 16.21875 41.5 20.09375 36.953125 
Q 23.96875 32.421875 30.609375 32.421875 
z
" id="DejaVuSans-57"/>
      </defs>
      <g style="fill:#262626;" transform="translate(30.5025 167.107557)scale(0.11 -0.11)">
       <use xlink:href="#DejaVuSans-57"/>
       <use x="63.623047" xlink:href="#DejaVuSans-48"/>
      </g>
     </g>
    </g>
    <g id="ytick_5">
     <g id="line2d_12">
      <path clip-path="url(#p3c4c06a305)" d="M 54 136.155544 
L 388.8 136.155544 
" style="fill:none;stroke:#ffffff;stroke-linecap:round;"/>
     </g>
     <g id="text_13">
      <!-- 100 -->
      <g style="fill:#262626;" transform="translate(23.50375 140.334684)scale(0.11 -0.11)">
       <use xlink:href="#DejaVuSans-49"/>
       <use x="63.623047" xlink:href="#DejaVuSans-48"/>
       <use x="127.246094" xlink:href="#DejaVuSans-48"/>
      </g>
     </g>
    </g>
    <g id="ytick_6">
     <g id="line2d_13">
      <path clip-path="url(#p3c4c06a305)" d="M 54 109.382672 
L 388.8 109.382672 
" style="fill:none;stroke:#ffffff;stroke-linecap:round;"/>
     </g>
     <g id="text_14">
      <!-- 110 -->
      <g style="fill:#262626;" transform="translate(23.50375 113.561812)scale(0.11 -0.11)">
       <use xlink:href="#DejaVuSans-49"/>
       <use x="63.623047" xlink:href="#DejaVuSans-49"/>
       <use x="127.246094" xlink:href="#DejaVuSans-48"/>
      </g>
     </g>
    </g>
    <g id="ytick_7">
     <g id="line2d_14">
      <path clip-path="url(#p3c4c06a305)" d="M 54 82.609799 
L 388.8 82.609799 
" style="fill:none;stroke:#ffffff;stroke-linecap:round;"/>
     </g>
     <g id="text_15">
      <!-- 120 -->
      <g style="fill:#262626;" transform="translate(23.50375 86.78894)scale(0.11 -0.11)">
       <use xlink:href="#DejaVuSans-49"/>
       <use x="63.623047" xlink:href="#DejaVuSans-50"/>
       <use x="127.246094" xlink:href="#DejaVuSans-48"/>
      </g>
     </g>
    </g>
    <g id="ytick_8">
     <g id="line2d_15">
      <path clip-path="url(#p3c4c06a305)" d="M 54 55.836927 
L 388.8 55.836927 
" style="fill:none;stroke:#ffffff;stroke-linecap:round;"/>
     </g>
     <g id="text_16">
      <!-- 130 -->
      <defs>
       <path d="M 40.578125 39.3125 
Q 47.65625 37.796875 51.625 33 
Q 55.609375 28.21875 55.609375 21.1875 
Q 55.609375 10.40625 48.1875 4.484375 
Q 40.765625 -1.421875 27.09375 -1.421875 
Q 22.515625 -1.421875 17.65625 -0.515625 
Q 12.796875 0.390625 7.625 2.203125 
L 7.625 11.71875 
Q 11.71875 9.328125 16.59375 8.109375 
Q 21.484375 6.890625 26.8125 6.890625 
Q 36.078125 6.890625 40.9375 10.546875 
Q 45.796875 14.203125 45.796875 21.1875 
Q 45.796875 27.640625 41.28125 31.265625 
Q 36.765625 34.90625 28.71875 34.90625 
L 20.21875 34.90625 
L 20.21875 43.015625 
L 29.109375 43.015625 
Q 36.375 43.015625 40.234375 45.921875 
Q 44.09375 48.828125 44.09375 54.296875 
Q 44.09375 59.90625 40.109375 62.90625 
Q 36.140625 65.921875 28.71875 65.921875 
Q 24.65625 65.921875 20.015625 65.03125 
Q 15.375 64.15625 9.8125 62.3125 
L 9.8125 71.09375 
Q 15.4375 72.65625 20.34375 73.4375 
Q 25.25 74.21875 29.59375 74.21875 
Q 40.828125 74.21875 47.359375 69.109375 
Q 53.90625 64.015625 53.90625 55.328125 
Q 53.90625 49.265625 50.4375 45.09375 
Q 46.96875 40.921875 40.578125 39.3125 
z
" id="DejaVuSans-51"/>
      </defs>
      <g style="fill:#262626;" transform="translate(23.50375 60.016068)scale(0.11 -0.11)">
       <use xlink:href="#DejaVuSans-49"/>
       <use x="63.623047" xlink:href="#DejaVuSans-51"/>
       <use x="127.246094" xlink:href="#DejaVuSans-48"/>
      </g>
     </g>
    </g>
    <g id="text_17">
     <!-- Baseline % of Airport Traffic -->
     <defs>
      <path d="M 19.671875 34.8125 
L 19.671875 8.109375 
L 35.5 8.109375 
Q 43.453125 8.109375 47.28125 11.40625 
Q 51.125 14.703125 51.125 21.484375 
Q 51.125 28.328125 47.28125 31.5625 
Q 43.453125 34.8125 35.5 34.8125 
z
M 19.671875 64.796875 
L 19.671875 42.828125 
L 34.28125 42.828125 
Q 41.5 42.828125 45.03125 45.53125 
Q 48.578125 48.25 48.578125 53.8125 
Q 48.578125 59.328125 45.03125 62.0625 
Q 41.5 64.796875 34.28125 64.796875 
z
M 9.8125 72.90625 
L 35.015625 72.90625 
Q 46.296875 72.90625 52.390625 68.21875 
Q 58.5 63.53125 58.5 54.890625 
Q 58.5 48.1875 55.375 44.234375 
Q 52.25 40.28125 46.1875 39.3125 
Q 53.46875 37.75 57.5 32.78125 
Q 61.53125 27.828125 61.53125 20.40625 
Q 61.53125 10.640625 54.890625 5.3125 
Q 48.25 0 35.984375 0 
L 9.8125 0 
z
" id="DejaVuSans-66"/>
      <path d="M 72.703125 32.078125 
Q 68.453125 32.078125 66.03125 28.46875 
Q 63.625 24.859375 63.625 18.40625 
Q 63.625 12.0625 66.03125 8.421875 
Q 68.453125 4.78125 72.703125 4.78125 
Q 76.859375 4.78125 79.265625 8.421875 
Q 81.6875 12.0625 81.6875 18.40625 
Q 81.6875 24.8125 79.265625 28.4375 
Q 76.859375 32.078125 72.703125 32.078125 
z
M 72.703125 38.28125 
Q 80.421875 38.28125 84.953125 32.90625 
Q 89.5 27.546875 89.5 18.40625 
Q 89.5 9.28125 84.9375 3.921875 
Q 80.375 -1.421875 72.703125 -1.421875 
Q 64.890625 -1.421875 60.34375 3.921875 
Q 55.8125 9.28125 55.8125 18.40625 
Q 55.8125 27.59375 60.375 32.9375 
Q 64.9375 38.28125 72.703125 38.28125 
z
M 22.3125 68.015625 
Q 18.109375 68.015625 15.6875 64.375 
Q 13.28125 60.75 13.28125 54.390625 
Q 13.28125 47.953125 15.671875 44.328125 
Q 18.0625 40.71875 22.3125 40.71875 
Q 26.5625 40.71875 28.96875 44.328125 
Q 31.390625 47.953125 31.390625 54.390625 
Q 31.390625 60.6875 28.953125 64.34375 
Q 26.515625 68.015625 22.3125 68.015625 
z
M 66.40625 74.21875 
L 74.21875 74.21875 
L 28.609375 -1.421875 
L 20.796875 -1.421875 
z
M 22.3125 74.21875 
Q 30.03125 74.21875 34.609375 68.875 
Q 39.203125 63.53125 39.203125 54.390625 
Q 39.203125 45.171875 34.640625 39.84375 
Q 30.078125 34.515625 22.3125 34.515625 
Q 14.546875 34.515625 10.03125 39.859375 
Q 5.515625 45.21875 5.515625 54.390625 
Q 5.515625 63.484375 10.046875 68.84375 
Q 14.59375 74.21875 22.3125 74.21875 
z
" id="DejaVuSans-37"/>
      <path d="M 34.1875 63.1875 
L 20.796875 26.90625 
L 47.609375 26.90625 
z
M 28.609375 72.90625 
L 39.796875 72.90625 
L 67.578125 0 
L 57.328125 0 
L 50.6875 18.703125 
L 17.828125 18.703125 
L 11.1875 0 
L 0.78125 0 
z
" id="DejaVuSans-65"/>
      <path d="M 18.109375 8.203125 
L 18.109375 -20.796875 
L 9.078125 -20.796875 
L 9.078125 54.6875 
L 18.109375 54.6875 
L 18.109375 46.390625 
Q 20.953125 51.265625 25.265625 53.625 
Q 29.59375 56 35.59375 56 
Q 45.5625 56 51.78125 48.09375 
Q 58.015625 40.1875 58.015625 27.296875 
Q 58.015625 14.40625 51.78125 6.484375 
Q 45.5625 -1.421875 35.59375 -1.421875 
Q 29.59375 -1.421875 25.265625 0.953125 
Q 20.953125 3.328125 18.109375 8.203125 
z
M 48.6875 27.296875 
Q 48.6875 37.203125 44.609375 42.84375 
Q 40.53125 48.484375 33.40625 48.484375 
Q 26.265625 48.484375 22.1875 42.84375 
Q 18.109375 37.203125 18.109375 27.296875 
Q 18.109375 17.390625 22.1875 11.75 
Q 26.265625 6.109375 33.40625 6.109375 
Q 40.53125 6.109375 44.609375 11.75 
Q 48.6875 17.390625 48.6875 27.296875 
z
" id="DejaVuSans-112"/>
      <path d="M 48.78125 52.59375 
L 48.78125 44.1875 
Q 44.96875 46.296875 41.140625 47.34375 
Q 37.3125 48.390625 33.40625 48.390625 
Q 24.65625 48.390625 19.8125 42.84375 
Q 14.984375 37.3125 14.984375 27.296875 
Q 14.984375 17.28125 19.8125 11.734375 
Q 24.65625 6.203125 33.40625 6.203125 
Q 37.3125 6.203125 41.140625 7.25 
Q 44.96875 8.296875 48.78125 10.40625 
L 48.78125 2.09375 
Q 45.015625 0.34375 40.984375 -0.53125 
Q 36.96875 -1.421875 32.421875 -1.421875 
Q 20.0625 -1.421875 12.78125 6.34375 
Q 5.515625 14.109375 5.515625 27.296875 
Q 5.515625 40.671875 12.859375 48.328125 
Q 20.21875 56 33.015625 56 
Q 37.15625 56 41.109375 55.140625 
Q 45.0625 54.296875 48.78125 52.59375 
z
" id="DejaVuSans-99"/>
     </defs>
     <g style="fill:#262626;" transform="translate(17.008125 227.353125)rotate(-90)scale(0.12 -0.12)">
      <use xlink:href="#DejaVuSans-66"/>
      <use x="68.603516" xlink:href="#DejaVuSans-97"/>
      <use x="129.882812" xlink:href="#DejaVuSans-115"/>
      <use x="181.982422" xlink:href="#DejaVuSans-101"/>
      <use x="243.505859" xlink:href="#DejaVuSans-108"/>
      <use x="271.289062" xlink:href="#DejaVuSans-105"/>
      <use x="299.072266" xlink:href="#DejaVuSans-110"/>
      <use x="362.451172" xlink:href="#DejaVuSans-101"/>
      <use x="423.974609" xlink:href="#DejaVuSans-32"/>
      <use x="455.761719" xlink:href="#DejaVuSans-37"/>
      <use x="550.78125" xlink:href="#DejaVuSans-32"/>
      <use x="582.568359" xlink:href="#DejaVuSans-111"/>
      <use x="643.75" xlink:href="#DejaVuSans-102"/>
      <use x="678.955078" xlink:href="#DejaVuSans-32"/>
      <use x="710.742188" xlink:href="#DejaVuSans-65"/>
      <use x="779.150391" xlink:href="#DejaVuSans-105"/>
      <use x="806.933594" xlink:href="#DejaVuSans-114"/>
      <use x="848.046875" xlink:href="#DejaVuSans-112"/>
      <use x="911.523438" xlink:href="#DejaVuSans-111"/>
      <use x="972.705078" xlink:href="#DejaVuSans-114"/>
      <use x="1013.818359" xlink:href="#DejaVuSans-116"/>
      <use x="1053.027344" xlink:href="#DejaVuSans-32"/>
      <use x="1084.814453" xlink:href="#DejaVuSans-84"/>
      <use x="1145.679688" xlink:href="#DejaVuSans-114"/>
      <use x="1186.792969" xlink:href="#DejaVuSans-97"/>
      <use x="1248.072266" xlink:href="#DejaVuSans-102"/>
      <use x="1283.277344" xlink:href="#DejaVuSans-102"/>
      <use x="1318.482422" xlink:href="#DejaVuSans-105"/>
      <use x="1346.265625" xlink:href="#DejaVuSans-99"/>
     </g>
    </g>
   </g>
   <g id="line2d_16">
    <defs>
     <path d="M 0 1.5 
C 0.397805 1.5 0.77937 1.341951 1.06066 1.06066 
C 1.341951 0.77937 1.5 0.397805 1.5 0 
C 1.5 -0.397805 1.341951 -0.77937 1.06066 -1.06066 
C 0.77937 -1.341951 0.397805 -1.5 0 -1.5 
C -0.397805 -1.5 -0.77937 -1.341951 -1.06066 -1.06066 
C -1.341951 -0.77937 -1.5 -0.397805 -1.5 0 
C -1.5 0.397805 -1.341951 0.77937 -1.06066 1.06066 
C -0.77937 1.341951 -0.397805 1.5 0 1.5 
z
" id="mda59d1403f" style="stroke:#4c72b0;"/>
    </defs>
    <g clip-path="url(#p3c4c06a305)">
     <use style="fill:#4c72b0;stroke:#4c72b0;" x="80.198731" xlink:href="#mda59d1403f" y="165.333411"/>
     <use style="fill:#4c72b0;stroke:#4c72b0;" x="82.036655" xlink:href="#mda59d1403f" y="170.554112"/>
     <use style="fill:#4c72b0;stroke:#4c72b0;" x="83.878152" xlink:href="#mda59d1403f" y="174.664347"/>
     <use style="fill:#4c72b0;stroke:#4c72b0;" x="85.724729" xlink:href="#mda59d1403f" y="180.576027"/>
     <use style="fill:#4c72b0;stroke:#4c72b0;" x="87.502423" xlink:href="#mda59d1403f" y="189.974775"/>
     <use style="fill:#4c72b0;stroke:#4c72b0;" x="89.292628" xlink:href="#mda59d1403f" y="196.858994"/>
     <use style="fill:#4c72b0;stroke:#4c72b0;" x="91.067087" xlink:href="#mda59d1403f" y="196.435723"/>
     <use style="fill:#4c72b0;stroke:#4c72b0;" x="92.740082" xlink:href="#mda59d1403f" y="193.783917"/>
     <use style="fill:#4c72b0;stroke:#4c72b0;" x="94.439411" xlink:href="#mda59d1403f" y="190.947251"/>
     <use style="fill:#4c72b0;stroke:#4c72b0;" x="95.988721" xlink:href="#mda59d1403f" y="186.03792"/>
     <use style="fill:#4c72b0;stroke:#4c72b0;" x="97.427307" xlink:href="#mda59d1403f" y="184.880394"/>
     <use style="fill:#4c72b0;stroke:#4c72b0;" x="98.701332" xlink:href="#mda59d1403f" y="196.218787"/>
     <use style="fill:#4c72b0;stroke:#4c72b0;" x="99.840386" xlink:href="#mda59d1403f" y="210.203567"/>
     <use style="fill:#4c72b0;stroke:#4c72b0;" x="100.776136" xlink:href="#mda59d1403f" y="216.728968"/>
     <use style="fill:#4c72b0;stroke:#4c72b0;" x="101.526229" xlink:href="#mda59d1403f" y="221.189599"/>
     <use style="fill:#4c72b0;stroke:#4c72b0;" x="102.204652" xlink:href="#mda59d1403f" y="223.430872"/>
     <use style="fill:#4c72b0;stroke:#4c72b0;" x="102.923048" xlink:href="#mda59d1403f" y="216.86676"/>
     <use style="fill:#4c72b0;stroke:#4c72b0;" x="103.731209" xlink:href="#mda59d1403f" y="211.975937"/>
     <use style="fill:#4c72b0;stroke:#4c72b0;" x="104.628489" xlink:href="#mda59d1403f" y="224.759714"/>
     <use style="fill:#4c72b0;stroke:#4c72b0;" x="105.603342" xlink:href="#mda59d1403f" y="232.907718"/>
     <use style="fill:#4c72b0;stroke:#4c72b0;" x="106.572928" xlink:href="#mda59d1403f" y="233.757523"/>
     <use style="fill:#4c72b0;stroke:#4c72b0;" x="107.441685" xlink:href="#mda59d1403f" y="242.116364"/>
     <use style="fill:#4c72b0;stroke:#4c72b0;" x="108.22665" xlink:href="#mda59d1403f" y="236.747758"/>
     <use style="fill:#4c72b0;stroke:#4c72b0;" x="108.92347" xlink:href="#mda59d1403f" y="222.951188"/>
     <use style="fill:#4c72b0;stroke:#4c72b0;" x="109.605996" xlink:href="#mda59d1403f" y="215.705918"/>
     <use style="fill:#4c72b0;stroke:#4c72b0;" x="110.330531" xlink:href="#mda59d1403f" y="217.553214"/>
     <use style="fill:#4c72b0;stroke:#4c72b0;" x="111.131075" xlink:href="#mda59d1403f" y="221.707135"/>
     <use style="fill:#4c72b0;stroke:#4c72b0;" x="111.973" xlink:href="#mda59d1403f" y="219.629067"/>
     <use style="fill:#4c72b0;stroke:#4c72b0;" x="112.930129" xlink:href="#mda59d1403f" y="216.113701"/>
     <use style="fill:#4c72b0;stroke:#4c72b0;" x="114.017867" xlink:href="#mda59d1403f" y="213.708346"/>
     <use style="fill:#4c72b0;stroke:#4c72b0;" x="115.121422" xlink:href="#mda59d1403f" y="208.710252"/>
     <use style="fill:#4c72b0;stroke:#4c72b0;" x="116.2526" xlink:href="#mda59d1403f" y="207.224055"/>
     <use style="fill:#4c72b0;stroke:#4c72b0;" x="117.463489" xlink:href="#mda59d1403f" y="216.381322"/>
     <use style="fill:#4c72b0;stroke:#4c72b0;" x="118.633929" xlink:href="#mda59d1403f" y="224.829499"/>
     <use style="fill:#4c72b0;stroke:#4c72b0;" x="119.775001" xlink:href="#mda59d1403f" y="222.44268"/>
     <use style="fill:#4c72b0;stroke:#4c72b0;" x="120.957117" xlink:href="#mda59d1403f" y="220.959484"/>
     <use style="fill:#4c72b0;stroke:#4c72b0;" x="122.143647" xlink:href="#mda59d1403f" y="220.028646"/>
     <use style="fill:#4c72b0;stroke:#4c72b0;" x="123.220908" xlink:href="#mda59d1403f" y="213.165769"/>
     <use style="fill:#4c72b0;stroke:#4c72b0;" x="124.219002" xlink:href="#mda59d1403f" y="209.870336"/>
     <use style="fill:#4c72b0;stroke:#4c72b0;" x="125.10242" xlink:href="#mda59d1403f" y="214.914577"/>
     <use style="fill:#4c72b0;stroke:#4c72b0;" x="125.825972" xlink:href="#mda59d1403f" y="219.381516"/>
     <use style="fill:#4c72b0;stroke:#4c72b0;" x="126.499597" xlink:href="#mda59d1403f" y="216.046719"/>
     <use style="fill:#4c72b0;stroke:#4c72b0;" x="127.138347" xlink:href="#mda59d1403f" y="212.570916"/>
     <use style="fill:#4c72b0;stroke:#4c72b0;" x="127.743475" xlink:href="#mda59d1403f" y="209.228696"/>
     <use style="fill:#4c72b0;stroke:#4c72b0;" x="128.380968" xlink:href="#mda59d1403f" y="201.859864"/>
     <use style="fill:#4c72b0;stroke:#4c72b0;" x="129.052829" xlink:href="#mda59d1403f" y="199.067069"/>
     <use style="fill:#4c72b0;stroke:#4c72b0;" x="129.659356" xlink:href="#mda59d1403f" y="207.44079"/>
     <use style="fill:#4c72b0;stroke:#4c72b0;" x="130.196537" xlink:href="#mda59d1403f" y="215.554899"/>
     <use style="fill:#4c72b0;stroke:#4c72b0;" x="130.677454" xlink:href="#mda59d1403f" y="215.590306"/>
     <use style="fill:#4c72b0;stroke:#4c72b0;" x="131.07131" xlink:href="#mda59d1403f" y="212.837096"/>
     <use style="fill:#4c72b0;stroke:#4c72b0;" x="131.407705" xlink:href="#mda59d1403f" y="208.335034"/>
     <use style="fill:#4c72b0;stroke:#4c72b0;" x="131.754517" xlink:href="#mda59d1403f" y="200.79703"/>
     <use style="fill:#4c72b0;stroke:#4c72b0;" x="132.139283" xlink:href="#mda59d1403f" y="198.846729"/>
     <use style="fill:#4c72b0;stroke:#4c72b0;" x="132.531353" xlink:href="#mda59d1403f" y="208.092858"/>
     <use style="fill:#4c72b0;stroke:#4c72b0;" x="132.904242" xlink:href="#mda59d1403f" y="223.392137"/>
     <use style="fill:#4c72b0;stroke:#4c72b0;" x="133.248121" xlink:href="#mda59d1403f" y="236.426223"/>
     <use style="fill:#4c72b0;stroke:#4c72b0;" x="133.556478" xlink:href="#mda59d1403f" y="237.829959"/>
     <use style="fill:#4c72b0;stroke:#4c72b0;" x="133.850548" xlink:href="#mda59d1403f" y="234.604262"/>
     <use style="fill:#4c72b0;stroke:#4c72b0;" x="134.163484" xlink:href="#mda59d1403f" y="228.500632"/>
     <use style="fill:#4c72b0;stroke:#4c72b0;" x="134.538589" xlink:href="#mda59d1403f" y="217.908247"/>
     <use style="fill:#4c72b0;stroke:#4c72b0;" x="134.936307" xlink:href="#mda59d1403f" y="212.282776"/>
     <use style="fill:#4c72b0;stroke:#4c72b0;" x="135.311131" xlink:href="#mda59d1403f" y="209.86932"/>
     <use style="fill:#4c72b0;stroke:#4c72b0;" x="135.651792" xlink:href="#mda59d1403f" y="206.887128"/>
     <use style="fill:#4c72b0;stroke:#4c72b0;" x="135.951626" xlink:href="#mda59d1403f" y="205.109324"/>
     <use style="fill:#4c72b0;stroke:#4c72b0;" x="136.199156" xlink:href="#mda59d1403f" y="201.794394"/>
     <use style="fill:#4c72b0;stroke:#4c72b0;" x="136.428312" xlink:href="#mda59d1403f" y="196.21172"/>
     <use style="fill:#4c72b0;stroke:#4c72b0;" x="136.660491" xlink:href="#mda59d1403f" y="194.199395"/>
     <use style="fill:#4c72b0;stroke:#4c72b0;" x="136.875789" xlink:href="#mda59d1403f" y="198.993557"/>
     <use style="fill:#4c72b0;stroke:#4c72b0;" x="137.075904" xlink:href="#mda59d1403f" y="203.587381"/>
     <use style="fill:#4c72b0;stroke:#4c72b0;" x="137.298341" xlink:href="#mda59d1403f" y="201.190079"/>
     <use style="fill:#4c72b0;stroke:#4c72b0;" x="137.552961" xlink:href="#mda59d1403f" y="197.874938"/>
     <use style="fill:#4c72b0;stroke:#4c72b0;" x="137.851894" xlink:href="#mda59d1403f" y="195.413244"/>
     <use style="fill:#4c72b0;stroke:#4c72b0;" x="138.170578" xlink:href="#mda59d1403f" y="189.13463"/>
     <use style="fill:#4c72b0;stroke:#4c72b0;" x="138.457216" xlink:href="#mda59d1403f" y="187.08184"/>
     <use style="fill:#4c72b0;stroke:#4c72b0;" x="138.671159" xlink:href="#mda59d1403f" y="197.523939"/>
     <use style="fill:#4c72b0;stroke:#4c72b0;" x="138.84114" xlink:href="#mda59d1403f" y="208.947745"/>
     <use style="fill:#4c72b0;stroke:#4c72b0;" x="139.018244" xlink:href="#mda59d1403f" y="208.54809"/>
     <use style="fill:#4c72b0;stroke:#4c72b0;" x="139.227723" xlink:href="#mda59d1403f" y="206.727852"/>
     <use style="fill:#4c72b0;stroke:#4c72b0;" x="139.492155" xlink:href="#mda59d1403f" y="204.08282"/>
     <use style="fill:#4c72b0;stroke:#4c72b0;" x="139.823311" xlink:href="#mda59d1403f" y="194.237471"/>
     <use style="fill:#4c72b0;stroke:#4c72b0;" x="140.17522" xlink:href="#mda59d1403f" y="188.272405"/>
     <use style="fill:#4c72b0;stroke:#4c72b0;" x="140.465613" xlink:href="#mda59d1403f" y="194.29548"/>
     <use style="fill:#4c72b0;stroke:#4c72b0;" x="140.725137" xlink:href="#mda59d1403f" y="200.723072"/>
     <use style="fill:#4c72b0;stroke:#4c72b0;" x="141.029575" xlink:href="#mda59d1403f" y="197.852215"/>
     <use style="fill:#4c72b0;stroke:#4c72b0;" x="141.364171" xlink:href="#mda59d1403f" y="193.006312"/>
     <use style="fill:#4c72b0;stroke:#4c72b0;" x="141.724676" xlink:href="#mda59d1403f" y="187.876829"/>
     <use style="fill:#4c72b0;stroke:#4c72b0;" x="142.121019" xlink:href="#mda59d1403f" y="178.40064"/>
     <use style="fill:#4c72b0;stroke:#4c72b0;" x="142.492838" xlink:href="#mda59d1403f" y="174.120227"/>
     <use style="fill:#4c72b0;stroke:#4c72b0;" x="142.759846" xlink:href="#mda59d1403f" y="182.344993"/>
     <use style="fill:#4c72b0;stroke:#4c72b0;" x="142.967117" xlink:href="#mda59d1403f" y="192.038024"/>
     <use style="fill:#4c72b0;stroke:#4c72b0;" x="143.200308" xlink:href="#mda59d1403f" y="194.859704"/>
     <use style="fill:#4c72b0;stroke:#4c72b0;" x="143.478129" xlink:href="#mda59d1403f" y="195.70983"/>
     <use style="fill:#4c72b0;stroke:#4c72b0;" x="143.811367" xlink:href="#mda59d1403f" y="194.38628"/>
     <use style="fill:#4c72b0;stroke:#4c72b0;" x="144.217648" xlink:href="#mda59d1403f" y="187.751474"/>
     <use style="fill:#4c72b0;stroke:#4c72b0;" x="144.630083" xlink:href="#mda59d1403f" y="183.616133"/>
     <use style="fill:#4c72b0;stroke:#4c72b0;" x="144.952271" xlink:href="#mda59d1403f" y="189.227921"/>
     <use style="fill:#4c72b0;stroke:#4c72b0;" x="145.211091" xlink:href="#mda59d1403f" y="195.961304"/>
     <use style="fill:#4c72b0;stroke:#4c72b0;" x="145.467765" xlink:href="#mda59d1403f" y="194.667088"/>
     <use style="fill:#4c72b0;stroke:#4c72b0;" x="145.713123" xlink:href="#mda59d1403f" y="190.458908"/>
     <use style="fill:#4c72b0;stroke:#4c72b0;" x="145.963143" xlink:href="#mda59d1403f" y="188.637973"/>
     <use style="fill:#4c72b0;stroke:#4c72b0;" x="146.271275" xlink:href="#mda59d1403f" y="190.766814"/>
     <use style="fill:#4c72b0;stroke:#4c72b0;" x="146.591486" xlink:href="#mda59d1403f" y="190.518696"/>
     <use style="fill:#4c72b0;stroke:#4c72b0;" x="146.841745" xlink:href="#mda59d1403f" y="198.392985"/>
     <use style="fill:#4c72b0;stroke:#4c72b0;" x="147.063557" xlink:href="#mda59d1403f" y="208.178205"/>
     <use style="fill:#4c72b0;stroke:#4c72b0;" x="147.330155" xlink:href="#mda59d1403f" y="202.535244"/>
     <use style="fill:#4c72b0;stroke:#4c72b0;" x="147.620274" xlink:href="#mda59d1403f" y="191.053805"/>
     <use style="fill:#4c72b0;stroke:#4c72b0;" x="147.958695" xlink:href="#mda59d1403f" y="185.594709"/>
     <use style="fill:#4c72b0;stroke:#4c72b0;" x="148.391889" xlink:href="#mda59d1403f" y="179.857534"/>
     <use style="fill:#4c72b0;stroke:#4c72b0;" x="148.877785" xlink:href="#mda59d1403f" y="177.004091"/>
     <use style="fill:#4c72b0;stroke:#4c72b0;" x="149.30593" xlink:href="#mda59d1403f" y="185.506104"/>
     <use style="fill:#4c72b0;stroke:#4c72b0;" x="149.664252" xlink:href="#mda59d1403f" y="192.235289"/>
     <use style="fill:#4c72b0;stroke:#4c72b0;" x="150.040011" xlink:href="#mda59d1403f" y="189.520374"/>
     <use style="fill:#4c72b0;stroke:#4c72b0;" x="150.570977" xlink:href="#mda59d1403f" y="185.040992"/>
     <use style="fill:#4c72b0;stroke:#4c72b0;" x="151.129628" xlink:href="#mda59d1403f" y="179.989543"/>
     <use style="fill:#4c72b0;stroke:#4c72b0;" x="151.74402" xlink:href="#mda59d1403f" y="172.352904"/>
     <use style="fill:#4c72b0;stroke:#4c72b0;" x="152.462008" xlink:href="#mda59d1403f" y="171.82043"/>
     <use style="fill:#4c72b0;stroke:#4c72b0;" x="153.107413" xlink:href="#mda59d1403f" y="182.603928"/>
     <use style="fill:#4c72b0;stroke:#4c72b0;" x="153.747474" xlink:href="#mda59d1403f" y="193.491479"/>
     <use style="fill:#4c72b0;stroke:#4c72b0;" x="154.599516" xlink:href="#mda59d1403f" y="194.195667"/>
     <use style="fill:#4c72b0;stroke:#4c72b0;" x="155.401231" xlink:href="#mda59d1403f" y="191.607443"/>
     <use style="fill:#4c72b0;stroke:#4c72b0;" x="156.194746" xlink:href="#mda59d1403f" y="187.062187"/>
     <use style="fill:#4c72b0;stroke:#4c72b0;" x="157.080971" xlink:href="#mda59d1403f" y="177.888236"/>
     <use style="fill:#4c72b0;stroke:#4c72b0;" x="157.817297" xlink:href="#mda59d1403f" y="173.433842"/>
     <use style="fill:#4c72b0;stroke:#4c72b0;" x="158.437298" xlink:href="#mda59d1403f" y="182.015451"/>
     <use style="fill:#4c72b0;stroke:#4c72b0;" x="159.102943" xlink:href="#mda59d1403f" y="192.637613"/>
     <use style="fill:#4c72b0;stroke:#4c72b0;" x="159.895282" xlink:href="#mda59d1403f" y="194.964487"/>
     <use style="fill:#4c72b0;stroke:#4c72b0;" x="160.712241" xlink:href="#mda59d1403f" y="194.808248"/>
     <use style="fill:#4c72b0;stroke:#4c72b0;" x="161.575857" xlink:href="#mda59d1403f" y="193.088886"/>
     <use style="fill:#4c72b0;stroke:#4c72b0;" x="162.510983" xlink:href="#mda59d1403f" y="184.893646"/>
     <use style="fill:#4c72b0;stroke:#4c72b0;" x="163.447282" xlink:href="#mda59d1403f" y="179.792846"/>
     <use style="fill:#4c72b0;stroke:#4c72b0;" x="164.28423" xlink:href="#mda59d1403f" y="187.591344"/>
     <use style="fill:#4c72b0;stroke:#4c72b0;" x="165.07761" xlink:href="#mda59d1403f" y="202.351795"/>
     <use style="fill:#4c72b0;stroke:#4c72b0;" x="166.066268" xlink:href="#mda59d1403f" y="216.010864"/>
     <use style="fill:#4c72b0;stroke:#4c72b0;" x="167.179638" xlink:href="#mda59d1403f" y="217.697745"/>
     <use style="fill:#4c72b0;stroke:#4c72b0;" x="168.247607" xlink:href="#mda59d1403f" y="215.848572"/>
     <use style="fill:#4c72b0;stroke:#4c72b0;" x="169.424969" xlink:href="#mda59d1403f" y="209.174083"/>
     <use style="fill:#4c72b0;stroke:#4c72b0;" x="170.698636" xlink:href="#mda59d1403f" y="196.012786"/>
     <use style="fill:#4c72b0;stroke:#4c72b0;" x="171.864198" xlink:href="#mda59d1403f" y="190.59105"/>
     <use style="fill:#4c72b0;stroke:#4c72b0;" x="173.02156" xlink:href="#mda59d1403f" y="189.826322"/>
     <use style="fill:#4c72b0;stroke:#4c72b0;" x="174.266277" xlink:href="#mda59d1403f" y="187.176484"/>
     <use style="fill:#4c72b0;stroke:#4c72b0;" x="175.475186" xlink:href="#mda59d1403f" y="184.332127"/>
     <use style="fill:#4c72b0;stroke:#4c72b0;" x="176.783682" xlink:href="#mda59d1403f" y="180.557435"/>
     <use style="fill:#4c72b0;stroke:#4c72b0;" x="178.431331" xlink:href="#mda59d1403f" y="174.471227"/>
     <use style="fill:#4c72b0;stroke:#4c72b0;" x="180.188123" xlink:href="#mda59d1403f" y="173.464059"/>
     <use style="fill:#4c72b0;stroke:#4c72b0;" x="181.801301" xlink:href="#mda59d1403f" y="182.006499"/>
     <use style="fill:#4c72b0;stroke:#4c72b0;" x="183.433014" xlink:href="#mda59d1403f" y="196.611775"/>
     <use style="fill:#4c72b0;stroke:#4c72b0;" x="185.550198" xlink:href="#mda59d1403f" y="204.598314"/>
     <use style="fill:#4c72b0;stroke:#4c72b0;" x="187.801798" xlink:href="#mda59d1403f" y="199.225917"/>
     <use style="fill:#4c72b0;stroke:#4c72b0;" x="192.5733" xlink:href="#mda59d1403f" y="188.257727"/>
     <use style="fill:#4c72b0;stroke:#4c72b0;" x="194.704111" xlink:href="#mda59d1403f" y="175.687665"/>
     <use style="fill:#4c72b0;stroke:#4c72b0;" x="196.252165" xlink:href="#mda59d1403f" y="179.393915"/>
     <use style="fill:#4c72b0;stroke:#4c72b0;" x="197.791231" xlink:href="#mda59d1403f" y="188.011286"/>
     <use style="fill:#4c72b0;stroke:#4c72b0;" x="199.930938" xlink:href="#mda59d1403f" y="188.625068"/>
     <use style="fill:#4c72b0;stroke:#4c72b0;" x="202.093003" xlink:href="#mda59d1403f" y="188.04173"/>
     <use style="fill:#4c72b0;stroke:#4c72b0;" x="204.697805" xlink:href="#mda59d1403f" y="185.943121"/>
     <use style="fill:#4c72b0;stroke:#4c72b0;" x="207.314064" xlink:href="#mda59d1403f" y="178.509751"/>
     <use style="fill:#4c72b0;stroke:#4c72b0;" x="209.643346" xlink:href="#mda59d1403f" y="175.181438"/>
     <use style="fill:#4c72b0;stroke:#4c72b0;" x="211.374541" xlink:href="#mda59d1403f" y="182.33917"/>
     <use style="fill:#4c72b0;stroke:#4c72b0;" x="213.141322" xlink:href="#mda59d1403f" y="191.689034"/>
     <use style="fill:#4c72b0;stroke:#4c72b0;" x="216.495746" xlink:href="#mda59d1403f" y="194.229692"/>
     <use style="fill:#4c72b0;stroke:#4c72b0;" x="218.972263" xlink:href="#mda59d1403f" y="192.827117"/>
     <use style="fill:#4c72b0;stroke:#4c72b0;" x="221.382093" xlink:href="#mda59d1403f" y="188.732224"/>
     <use style="fill:#4c72b0;stroke:#4c72b0;" x="224.047333" xlink:href="#mda59d1403f" y="179.598362"/>
     <use style="fill:#4c72b0;stroke:#4c72b0;" x="226.525176" xlink:href="#mda59d1403f" y="173.101123"/>
     <use style="fill:#4c72b0;stroke:#4c72b0;" x="228.583837" xlink:href="#mda59d1403f" y="175.947212"/>
     <use style="fill:#4c72b0;stroke:#4c72b0;" x="230.564769" xlink:href="#mda59d1403f" y="185.387665"/>
     <use style="fill:#4c72b0;stroke:#4c72b0;" x="232.341622" xlink:href="#mda59d1403f" y="195.569249"/>
     <use style="fill:#4c72b0;stroke:#4c72b0;" x="235.269062" xlink:href="#mda59d1403f" y="197.461549"/>
     <use style="fill:#4c72b0;stroke:#4c72b0;" x="237.981202" xlink:href="#mda59d1403f" y="197.178894"/>
     <use style="fill:#4c72b0;stroke:#4c72b0;" x="240.819723" xlink:href="#mda59d1403f" y="195.909055"/>
     <use style="fill:#4c72b0;stroke:#4c72b0;" x="243.658245" xlink:href="#mda59d1403f" y="187.016344"/>
     <use style="fill:#4c72b0;stroke:#4c72b0;" x="246.931257" xlink:href="#mda59d1403f" y="181.47632"/>
     <use style="fill:#4c72b0;stroke:#4c72b0;" x="250.273735" xlink:href="#mda59d1403f" y="182.582467"/>
     <use style="fill:#4c72b0;stroke:#4c72b0;" x="253.771424" xlink:href="#mda59d1403f" y="182.981081"/>
     <use style="fill:#4c72b0;stroke:#4c72b0;" x="257.230238" xlink:href="#mda59d1403f" y="184.019991"/>
     <use style="fill:#4c72b0;stroke:#4c72b0;" x="260.820707" xlink:href="#mda59d1403f" y="184.28"/>
     <use style="fill:#4c72b0;stroke:#4c72b0;" x="264.413355" xlink:href="#mda59d1403f" y="179.862053"/>
     <use style="fill:#4c72b0;stroke:#4c72b0;" x="267.70074" xlink:href="#mda59d1403f" y="175.910903"/>
     <use style="fill:#4c72b0;stroke:#4c72b0;" x="270.748727" xlink:href="#mda59d1403f" y="180.887863"/>
     <use style="fill:#4c72b0;stroke:#4c72b0;" x="273.812272" xlink:href="#mda59d1403f" y="187.315766"/>
     <use style="fill:#4c72b0;stroke:#4c72b0;" x="277.062156" xlink:href="#mda59d1403f" y="186.52578"/>
     <use style="fill:#4c72b0;stroke:#4c72b0;" x="280.644843" xlink:href="#mda59d1403f" y="185.419131"/>
     <use style="fill:#4c72b0;stroke:#4c72b0;" x="284.261459" xlink:href="#mda59d1403f" y="183.592861"/>
     <use style="fill:#4c72b0;stroke:#4c72b0;" x="287.971276" xlink:href="#mda59d1403f" y="175.58169"/>
     <use style="fill:#4c72b0;stroke:#4c72b0;" x="291.36236" xlink:href="#mda59d1403f" y="170.410997"/>
     <use style="fill:#4c72b0;stroke:#4c72b0;" x="293.558991" xlink:href="#mda59d1403f" y="176.357197"/>
     <use style="fill:#4c72b0;stroke:#4c72b0;" x="296.235048" xlink:href="#mda59d1403f" y="183.407019"/>
     <use style="fill:#4c72b0;stroke:#4c72b0;" x="298.948747" xlink:href="#mda59d1403f" y="182.718987"/>
     <use style="fill:#4c72b0;stroke:#4c72b0;" x="301.409374" xlink:href="#mda59d1403f" y="182.678068"/>
     <use style="fill:#4c72b0;stroke:#4c72b0;" x="304.685035" xlink:href="#mda59d1403f" y="181.53058"/>
     <use style="fill:#4c72b0;stroke:#4c72b0;" x="307.788678" xlink:href="#mda59d1403f" y="173.487056"/>
     <use style="fill:#4c72b0;stroke:#4c72b0;" x="310.650191" xlink:href="#mda59d1403f" y="169.106301"/>
     <use style="fill:#4c72b0;stroke:#4c72b0;" x="313.410432" xlink:href="#mda59d1403f" y="176.270777"/>
     <use style="fill:#4c72b0;stroke:#4c72b0;" x="315.897551" xlink:href="#mda59d1403f" y="184.392372"/>
     <use style="fill:#4c72b0;stroke:#4c72b0;" x="319.894061" xlink:href="#mda59d1403f" y="184.163724"/>
     <use style="fill:#4c72b0;stroke:#4c72b0;" x="323.077544" xlink:href="#mda59d1403f" y="183.213215"/>
     <use style="fill:#4c72b0;stroke:#4c72b0;" x="326.666529" xlink:href="#mda59d1403f" y="181.448126"/>
     <use style="fill:#4c72b0;stroke:#4c72b0;" x="329.689921" xlink:href="#mda59d1403f" y="172.973158"/>
     <use style="fill:#4c72b0;stroke:#4c72b0;" x="332.542919" xlink:href="#mda59d1403f" y="169.51835"/>
     <use style="fill:#4c72b0;stroke:#4c72b0;" x="334.847365" xlink:href="#mda59d1403f" y="178.487522"/>
     <use style="fill:#4c72b0;stroke:#4c72b0;" x="337.011442" xlink:href="#mda59d1403f" y="194.64572"/>
     <use style="fill:#4c72b0;stroke:#4c72b0;" x="340.889848" xlink:href="#mda59d1403f" y="210.310995"/>
     <use style="fill:#4c72b0;stroke:#4c72b0;" x="344.385422" xlink:href="#mda59d1403f" y="213.007979"/>
     <use style="fill:#4c72b0;stroke:#4c72b0;" x="348.317136" xlink:href="#mda59d1403f" y="209.12687"/>
     <use style="fill:#4c72b0;stroke:#4c72b0;" x="353.029643" xlink:href="#mda59d1403f" y="201.649633"/>
     <use style="fill:#4c72b0;stroke:#4c72b0;" x="357.253658" xlink:href="#mda59d1403f" y="184.880296"/>
     <use style="fill:#4c72b0;stroke:#4c72b0;" x="361.346269" xlink:href="#mda59d1403f" y="167.286904"/>
     <use style="fill:#4c72b0;stroke:#4c72b0;" x="365.387578" xlink:href="#mda59d1403f" y="149.630575"/>
    </g>
   </g>
   <g id="line2d_17">
    <path clip-path="url(#p3c4c06a305)" d="M 69.218182 44.443636 
L 75.429685 111.209394 
L 81.641187 157.038697 
L 87.85269 187.058824 
L 94.064193 205.354096 
L 100.275696 215.146107 
L 106.487199 218.948515 
L 112.698701 218.698946 
L 118.910204 215.870458 
L 125.121707 211.564832 
L 131.33321 206.589882 
L 137.544712 201.522793 
L 143.756215 196.761389 
L 149.967718 192.565093 
L 156.179221 189.087215 
L 162.390724 186.400051 
L 168.602226 184.51417 
L 174.813729 183.393115 
L 181.025232 182.964603 
L 187.236735 183.129216 
L 193.448237 183.76738 
L 199.65974 184.745355 
L 205.871243 185.920793 
L 212.082746 187.148286 
L 218.294249 188.285224 
L 224.505751 189.1981 
L 230.717254 189.769321 
L 236.928757 189.904407 
L 243.14026 189.539349 
L 249.351763 188.647756 
L 255.563265 187.247303 
L 261.774768 185.404824 
L 267.986271 183.239305 
L 274.197774 180.921862 
L 280.409276 178.671686 
L 286.620779 176.746768 
L 292.832282 175.428128 
L 299.043785 174.996099 
L 305.255288 175.697107 
L 311.46679 177.699249 
L 317.678293 181.034837 
L 323.889796 185.527936 
L 330.101299 190.704812 
L 336.312801 195.685049 
L 342.524304 199.050968 
L 348.735807 198.692864 
L 354.94731 191.627412 
L 361.158813 173.786499 
L 367.370315 139.773569 
L 373.581818 82.584457 
" style="fill:none;stroke:#c44e52;stroke-linecap:round;stroke-width:1.5;"/>
   </g>
   <g id="patch_3">
    <path d="M 54 252 
L 54 34.56 
" style="fill:none;stroke:#ffffff;stroke-linecap:square;stroke-linejoin:miter;stroke-width:1.25;"/>
   </g>
   <g id="patch_4">
    <path d="M 388.8 252 
L 388.8 34.56 
" style="fill:none;stroke:#ffffff;stroke-linecap:square;stroke-linejoin:miter;stroke-width:1.25;"/>
   </g>
   <g id="patch_5">
    <path d="M 54 252 
L 388.8 252 
" style="fill:none;stroke:#ffffff;stroke-linecap:square;stroke-linejoin:miter;stroke-width:1.25;"/>
   </g>
   <g id="patch_6">
    <path d="M 54 34.56 
L 388.8 34.56 
" style="fill:none;stroke:#ffffff;stroke-linecap:square;stroke-linejoin:miter;stroke-width:1.25;"/>
   </g>
  </g>
 </g>
 <defs>
  <clipPath id="p3c4c06a305">
   <rect height="217.44" width="334.8" x="54" y="34.56"/>
  </clipPath>
 </defs>
</svg>
