<?xml version="1.0" encoding="utf-8" standalone="no"?>
<!DOCTYPE svg PUBLIC "-//W3C//DTD SVG 1.1//EN"
  "http://www.w3.org/Graphics/SVG/1.1/DTD/svg11.dtd">
<!-- Created with matplotlib (https://matplotlib.org/) -->
<svg height="288pt" version="1.1" viewBox="0 0 432 288" width="432pt" xmlns="http://www.w3.org/2000/svg" xmlns:xlink="http://www.w3.org/1999/xlink">
 <defs>
  <style type="text/css">
*{stroke-linecap:butt;stroke-linejoin:round;}
  </style>
 </defs>
 <g id="figure_1">
  <g id="patch_1">
   <path d="M 0 288 
L 432 288 
L 432 0 
L 0 0 
z
" style="fill:#ffffff;"/>
  </g>
  <g id="axes_1">
   <g id="patch_2">
    <path d="M 54 252 
L 388.8 252 
L 388.8 34.56 
L 54 34.56 
z
" style="fill:#eaeaf2;"/>
   </g>
   <g id="matplotlib.axis_1">
    <g id="xtick_1">
     <g id="line2d_1">
      <path clip-path="url(#p3e76adf649)" d="M 69.218182 252 
L 69.218182 34.56 
" style="fill:none;stroke:#ffffff;stroke-linecap:round;"/>
     </g>
     <g id="text_1">
      <!-- 0 -->
      <defs>
       <path d="M 31.78125 66.40625 
Q 24.171875 66.40625 20.328125 58.90625 
Q 16.5 51.421875 16.5 36.375 
Q 16.5 21.390625 20.328125 13.890625 
Q 24.171875 6.390625 31.78125 6.390625 
Q 39.453125 6.390625 43.28125 13.890625 
Q 47.125 21.390625 47.125 36.375 
Q 47.125 51.421875 43.28125 58.90625 
Q 39.453125 66.40625 31.78125 66.40625 
z
M 31.78125 74.21875 
Q 44.046875 74.21875 50.515625 64.515625 
Q 56.984375 54.828125 56.984375 36.375 
Q 56.984375 17.96875 50.515625 8.265625 
Q 44.046875 -1.421875 31.78125 -1.421875 
Q 19.53125 -1.421875 13.0625 8.265625 
Q 6.59375 17.96875 6.59375 36.375 
Q 6.59375 54.828125 13.0625 64.515625 
Q 19.53125 74.21875 31.78125 74.21875 
z
" id="DejaVuSans-48"/>
      </defs>
      <g style="fill:#262626;" transform="translate(65.718807 269.858281)scale(0.11 -0.11)">
       <use xlink:href="#DejaVuSans-48"/>
      </g>
     </g>
    </g>
    <g id="xtick_2">
     <g id="line2d_2">
      <path clip-path="url(#p3e76adf649)" d="M 119.945455 252 
L 119.945455 34.56 
" style="fill:none;stroke:#ffffff;stroke-linecap:round;"/>
     </g>
     <g id="text_2">
      <!-- 2000 -->
      <defs>
       <path d="M 19.1875 8.296875 
L 53.609375 8.296875 
L 53.609375 0 
L 7.328125 0 
L 7.328125 8.296875 
Q 12.9375 14.109375 22.625 23.890625 
Q 32.328125 33.6875 34.8125 36.53125 
Q 39.546875 41.84375 41.421875 45.53125 
Q 43.3125 49.21875 43.3125 52.78125 
Q 43.3125 58.59375 39.234375 62.25 
Q 35.15625 65.921875 28.609375 65.921875 
Q 23.96875 65.921875 18.8125 64.3125 
Q 13.671875 62.703125 7.8125 59.421875 
L 7.8125 69.390625 
Q 13.765625 71.78125 18.9375 73 
Q 24.125 74.21875 28.421875 74.21875 
Q 39.75 74.21875 46.484375 68.546875 
Q 53.21875 62.890625 53.21875 53.421875 
Q 53.21875 48.921875 51.53125 44.890625 
Q 49.859375 40.875 45.40625 35.40625 
Q 44.1875 33.984375 37.640625 27.21875 
Q 31.109375 20.453125 19.1875 8.296875 
z
" id="DejaVuSans-50"/>
      </defs>
      <g style="fill:#262626;" transform="translate(105.947955 269.858281)scale(0.11 -0.11)">
       <use xlink:href="#DejaVuSans-50"/>
       <use x="63.623047" xlink:href="#DejaVuSans-48"/>
       <use x="127.246094" xlink:href="#DejaVuSans-48"/>
       <use x="190.869141" xlink:href="#DejaVuSans-48"/>
      </g>
     </g>
    </g>
    <g id="xtick_3">
     <g id="line2d_3">
      <path clip-path="url(#p3e76adf649)" d="M 170.672727 252 
L 170.672727 34.56 
" style="fill:none;stroke:#ffffff;stroke-linecap:round;"/>
     </g>
     <g id="text_3">
      <!-- 4000 -->
      <defs>
       <path d="M 37.796875 64.3125 
L 12.890625 25.390625 
L 37.796875 25.390625 
z
M 35.203125 72.90625 
L 47.609375 72.90625 
L 47.609375 25.390625 
L 58.015625 25.390625 
L 58.015625 17.1875 
L 47.609375 17.1875 
L 47.609375 0 
L 37.796875 0 
L 37.796875 17.1875 
L 4.890625 17.1875 
L 4.890625 26.703125 
z
" id="DejaVuSans-52"/>
      </defs>
      <g style="fill:#262626;" transform="translate(156.675227 269.858281)scale(0.11 -0.11)">
       <use xlink:href="#DejaVuSans-52"/>
       <use x="63.623047" xlink:href="#DejaVuSans-48"/>
       <use x="127.246094" xlink:href="#DejaVuSans-48"/>
       <use x="190.869141" xlink:href="#DejaVuSans-48"/>
      </g>
     </g>
    </g>
    <g id="xtick_4">
     <g id="line2d_4">
      <path clip-path="url(#p3e76adf649)" d="M 221.4 252 
L 221.4 34.56 
" style="fill:none;stroke:#ffffff;stroke-linecap:round;"/>
     </g>
     <g id="text_4">
      <!-- 6000 -->
      <defs>
       <path d="M 33.015625 40.375 
Q 26.375 40.375 22.484375 35.828125 
Q 18.609375 31.296875 18.609375 23.390625 
Q 18.609375 15.53125 22.484375 10.953125 
Q 26.375 6.390625 33.015625 6.390625 
Q 39.65625 6.390625 43.53125 10.953125 
Q 47.40625 15.53125 47.40625 23.390625 
Q 47.40625 31.296875 43.53125 35.828125 
Q 39.65625 40.375 33.015625 40.375 
z
M 52.59375 71.296875 
L 52.59375 62.3125 
Q 48.875 64.0625 45.09375 64.984375 
Q 41.3125 65.921875 37.59375 65.921875 
Q 27.828125 65.921875 22.671875 59.328125 
Q 17.53125 52.734375 16.796875 39.40625 
Q 19.671875 43.65625 24.015625 45.921875 
Q 28.375 48.1875 33.59375 48.1875 
Q 44.578125 48.1875 50.953125 41.515625 
Q 57.328125 34.859375 57.328125 23.390625 
Q 57.328125 12.15625 50.6875 5.359375 
Q 44.046875 -1.421875 33.015625 -1.421875 
Q 20.359375 -1.421875 13.671875 8.265625 
Q 6.984375 17.96875 6.984375 36.375 
Q 6.984375 53.65625 15.1875 63.9375 
Q 23.390625 74.21875 37.203125 74.21875 
Q 40.921875 74.21875 44.703125 73.484375 
Q 48.484375 72.75 52.59375 71.296875 
z
" id="DejaVuSans-54"/>
      </defs>
      <g style="fill:#262626;" transform="translate(207.4025 269.858281)scale(0.11 -0.11)">
       <use xlink:href="#DejaVuSans-54"/>
       <use x="63.623047" xlink:href="#DejaVuSans-48"/>
       <use x="127.246094" xlink:href="#DejaVuSans-48"/>
       <use x="190.869141" xlink:href="#DejaVuSans-48"/>
      </g>
     </g>
    </g>
    <g id="xtick_5">
     <g id="line2d_5">
      <path clip-path="url(#p3e76adf649)" d="M 272.127273 252 
L 272.127273 34.56 
" style="fill:none;stroke:#ffffff;stroke-linecap:round;"/>
     </g>
     <g id="text_5">
      <!-- 8000 -->
      <defs>
       <path d="M 31.78125 34.625 
Q 24.75 34.625 20.71875 30.859375 
Q 16.703125 27.09375 16.703125 20.515625 
Q 16.703125 13.921875 20.71875 10.15625 
Q 24.75 6.390625 31.78125 6.390625 
Q 38.8125 6.390625 42.859375 10.171875 
Q 46.921875 13.96875 46.921875 20.515625 
Q 46.921875 27.09375 42.890625 30.859375 
Q 38.875 34.625 31.78125 34.625 
z
M 21.921875 38.8125 
Q 15.578125 40.375 12.03125 44.71875 
Q 8.5 49.078125 8.5 55.328125 
Q 8.5 64.0625 14.71875 69.140625 
Q 20.953125 74.21875 31.78125 74.21875 
Q 42.671875 74.21875 48.875 69.140625 
Q 55.078125 64.0625 55.078125 55.328125 
Q 55.078125 49.078125 51.53125 44.71875 
Q 48 40.375 41.703125 38.8125 
Q 48.828125 37.15625 52.796875 32.3125 
Q 56.78125 27.484375 56.78125 20.515625 
Q 56.78125 9.90625 50.3125 4.234375 
Q 43.84375 -1.421875 31.78125 -1.421875 
Q 19.734375 -1.421875 13.25 4.234375 
Q 6.78125 9.90625 6.78125 20.515625 
Q 6.78125 27.484375 10.78125 32.3125 
Q 14.796875 37.15625 21.921875 38.8125 
z
M 18.3125 54.390625 
Q 18.3125 48.734375 21.84375 45.5625 
Q 25.390625 42.390625 31.78125 42.390625 
Q 38.140625 42.390625 41.71875 45.5625 
Q 45.3125 48.734375 45.3125 54.390625 
Q 45.3125 60.0625 41.71875 63.234375 
Q 38.140625 66.40625 31.78125 66.40625 
Q 25.390625 66.40625 21.84375 63.234375 
Q 18.3125 60.0625 18.3125 54.390625 
z
" id="DejaVuSans-56"/>
      </defs>
      <g style="fill:#262626;" transform="translate(258.129773 269.858281)scale(0.11 -0.11)">
       <use xlink:href="#DejaVuSans-56"/>
       <use x="63.623047" xlink:href="#DejaVuSans-48"/>
       <use x="127.246094" xlink:href="#DejaVuSans-48"/>
       <use x="190.869141" xlink:href="#DejaVuSans-48"/>
      </g>
     </g>
    </g>
    <g id="xtick_6">
     <g id="line2d_6">
      <path clip-path="url(#p3e76adf649)" d="M 322.854545 252 
L 322.854545 34.56 
" style="fill:none;stroke:#ffffff;stroke-linecap:round;"/>
     </g>
     <g id="text_6">
      <!-- 10000 -->
      <defs>
       <path d="M 12.40625 8.296875 
L 28.515625 8.296875 
L 28.515625 63.921875 
L 10.984375 60.40625 
L 10.984375 69.390625 
L 28.421875 72.90625 
L 38.28125 72.90625 
L 38.28125 8.296875 
L 54.390625 8.296875 
L 54.390625 0 
L 12.40625 0 
z
" id="DejaVuSans-49"/>
      </defs>
      <g style="fill:#262626;" transform="translate(305.35767 269.858281)scale(0.11 -0.11)">
       <use xlink:href="#DejaVuSans-49"/>
       <use x="63.623047" xlink:href="#DejaVuSans-48"/>
       <use x="127.246094" xlink:href="#DejaVuSans-48"/>
       <use x="190.869141" xlink:href="#DejaVuSans-48"/>
       <use x="254.492188" xlink:href="#DejaVuSans-48"/>
      </g>
     </g>
    </g>
    <g id="xtick_7">
     <g id="line2d_7">
      <path clip-path="url(#p3e76adf649)" d="M 373.581818 252 
L 373.581818 34.56 
" style="fill:none;stroke:#ffffff;stroke-linecap:round;"/>
     </g>
     <g id="text_7">
      <!-- 12000 -->
      <g style="fill:#262626;" transform="translate(356.084943 269.858281)scale(0.11 -0.11)">
       <use xlink:href="#DejaVuSans-49"/>
       <use x="63.623047" xlink:href="#DejaVuSans-50"/>
       <use x="127.246094" xlink:href="#DejaVuSans-48"/>
       <use x="190.869141" xlink:href="#DejaVuSans-48"/>
       <use x="254.492188" xlink:href="#DejaVuSans-48"/>
      </g>
     </g>
    </g>
    <g id="text_8">
     <!-- Total Confirmed Cases -->
     <defs>
      <path d="M -0.296875 72.90625 
L 61.375 72.90625 
L 61.375 64.59375 
L 35.5 64.59375 
L 35.5 0 
L 25.59375 0 
L 25.59375 64.59375 
L -0.296875 64.59375 
z
" id="DejaVuSans-84"/>
      <path d="M 30.609375 48.390625 
Q 23.390625 48.390625 19.1875 42.75 
Q 14.984375 37.109375 14.984375 27.296875 
Q 14.984375 17.484375 19.15625 11.84375 
Q 23.34375 6.203125 30.609375 6.203125 
Q 37.796875 6.203125 41.984375 11.859375 
Q 46.1875 17.53125 46.1875 27.296875 
Q 46.1875 37.015625 41.984375 42.703125 
Q 37.796875 48.390625 30.609375 48.390625 
z
M 30.609375 56 
Q 42.328125 56 49.015625 48.375 
Q 55.71875 40.765625 55.71875 27.296875 
Q 55.71875 13.875 49.015625 6.21875 
Q 42.328125 -1.421875 30.609375 -1.421875 
Q 18.84375 -1.421875 12.171875 6.21875 
Q 5.515625 13.875 5.515625 27.296875 
Q 5.515625 40.765625 12.171875 48.375 
Q 18.84375 56 30.609375 56 
z
" id="DejaVuSans-111"/>
      <path d="M 18.3125 70.21875 
L 18.3125 54.6875 
L 36.8125 54.6875 
L 36.8125 47.703125 
L 18.3125 47.703125 
L 18.3125 18.015625 
Q 18.3125 11.328125 20.140625 9.421875 
Q 21.96875 7.515625 27.59375 7.515625 
L 36.8125 7.515625 
L 36.8125 0 
L 27.59375 0 
Q 17.1875 0 13.234375 3.875 
Q 9.28125 7.765625 9.28125 18.015625 
L 9.28125 47.703125 
L 2.6875 47.703125 
L 2.6875 54.6875 
L 9.28125 54.6875 
L 9.28125 70.21875 
z
" id="DejaVuSans-116"/>
      <path d="M 34.28125 27.484375 
Q 23.390625 27.484375 19.1875 25 
Q 14.984375 22.515625 14.984375 16.5 
Q 14.984375 11.71875 18.140625 8.90625 
Q 21.296875 6.109375 26.703125 6.109375 
Q 34.1875 6.109375 38.703125 11.40625 
Q 43.21875 16.703125 43.21875 25.484375 
L 43.21875 27.484375 
z
M 52.203125 31.203125 
L 52.203125 0 
L 43.21875 0 
L 43.21875 8.296875 
Q 40.140625 3.328125 35.546875 0.953125 
Q 30.953125 -1.421875 24.3125 -1.421875 
Q 15.921875 -1.421875 10.953125 3.296875 
Q 6 8.015625 6 15.921875 
Q 6 25.140625 12.171875 29.828125 
Q 18.359375 34.515625 30.609375 34.515625 
L 43.21875 34.515625 
L 43.21875 35.40625 
Q 43.21875 41.609375 39.140625 45 
Q 35.0625 48.390625 27.6875 48.390625 
Q 23 48.390625 18.546875 47.265625 
Q 14.109375 46.140625 10.015625 43.890625 
L 10.015625 52.203125 
Q 14.9375 54.109375 19.578125 55.046875 
Q 24.21875 56 28.609375 56 
Q 40.484375 56 46.34375 49.84375 
Q 52.203125 43.703125 52.203125 31.203125 
z
" id="DejaVuSans-97"/>
      <path d="M 9.421875 75.984375 
L 18.40625 75.984375 
L 18.40625 0 
L 9.421875 0 
z
" id="DejaVuSans-108"/>
      <path id="DejaVuSans-32"/>
      <path d="M 64.40625 67.28125 
L 64.40625 56.890625 
Q 59.421875 61.53125 53.78125 63.8125 
Q 48.140625 66.109375 41.796875 66.109375 
Q 29.296875 66.109375 22.65625 58.46875 
Q 16.015625 50.828125 16.015625 36.375 
Q 16.015625 21.96875 22.65625 14.328125 
Q 29.296875 6.6875 41.796875 6.6875 
Q 48.140625 6.6875 53.78125 8.984375 
Q 59.421875 11.28125 64.40625 15.921875 
L 64.40625 5.609375 
Q 59.234375 2.09375 53.4375 0.328125 
Q 47.65625 -1.421875 41.21875 -1.421875 
Q 24.65625 -1.421875 15.125 8.703125 
Q 5.609375 18.84375 5.609375 36.375 
Q 5.609375 53.953125 15.125 64.078125 
Q 24.65625 74.21875 41.21875 74.21875 
Q 47.75 74.21875 53.53125 72.484375 
Q 59.328125 70.75 64.40625 67.28125 
z
" id="DejaVuSans-67"/>
      <path d="M 54.890625 33.015625 
L 54.890625 0 
L 45.90625 0 
L 45.90625 32.71875 
Q 45.90625 40.484375 42.875 44.328125 
Q 39.84375 48.1875 33.796875 48.1875 
Q 26.515625 48.1875 22.3125 43.546875 
Q 18.109375 38.921875 18.109375 30.90625 
L 18.109375 0 
L 9.078125 0 
L 9.078125 54.6875 
L 18.109375 54.6875 
L 18.109375 46.1875 
Q 21.34375 51.125 25.703125 53.5625 
Q 30.078125 56 35.796875 56 
Q 45.21875 56 50.046875 50.171875 
Q 54.890625 44.34375 54.890625 33.015625 
z
" id="DejaVuSans-110"/>
      <path d="M 37.109375 75.984375 
L 37.109375 68.5 
L 28.515625 68.5 
Q 23.6875 68.5 21.796875 66.546875 
Q 19.921875 64.59375 19.921875 59.515625 
L 19.921875 54.6875 
L 34.71875 54.6875 
L 34.71875 47.703125 
L 19.921875 47.703125 
L 19.921875 0 
L 10.890625 0 
L 10.890625 47.703125 
L 2.296875 47.703125 
L 2.296875 54.6875 
L 10.890625 54.6875 
L 10.890625 58.5 
Q 10.890625 67.625 15.140625 71.796875 
Q 19.390625 75.984375 28.609375 75.984375 
z
" id="DejaVuSans-102"/>
      <path d="M 9.421875 54.6875 
L 18.40625 54.6875 
L 18.40625 0 
L 9.421875 0 
z
M 9.421875 75.984375 
L 18.40625 75.984375 
L 18.40625 64.59375 
L 9.421875 64.59375 
z
" id="DejaVuSans-105"/>
      <path d="M 41.109375 46.296875 
Q 39.59375 47.171875 37.8125 47.578125 
Q 36.03125 48 33.890625 48 
Q 26.265625 48 22.1875 43.046875 
Q 18.109375 38.09375 18.109375 28.8125 
L 18.109375 0 
L 9.078125 0 
L 9.078125 54.6875 
L 18.109375 54.6875 
L 18.109375 46.1875 
Q 20.953125 51.171875 25.484375 53.578125 
Q 30.03125 56 36.53125 56 
Q 37.453125 56 38.578125 55.875 
Q 39.703125 55.765625 41.0625 55.515625 
z
" id="DejaVuSans-114"/>
      <path d="M 52 44.1875 
Q 55.375 50.25 60.0625 53.125 
Q 64.75 56 71.09375 56 
Q 79.640625 56 84.28125 50.015625 
Q 88.921875 44.046875 88.921875 33.015625 
L 88.921875 0 
L 79.890625 0 
L 79.890625 32.71875 
Q 79.890625 40.578125 77.09375 44.375 
Q 74.3125 48.1875 68.609375 48.1875 
Q 61.625 48.1875 57.5625 43.546875 
Q 53.515625 38.921875 53.515625 30.90625 
L 53.515625 0 
L 44.484375 0 
L 44.484375 32.71875 
Q 44.484375 40.625 41.703125 44.40625 
Q 38.921875 48.1875 33.109375 48.1875 
Q 26.21875 48.1875 22.15625 43.53125 
Q 18.109375 38.875 18.109375 30.90625 
L 18.109375 0 
L 9.078125 0 
L 9.078125 54.6875 
L 18.109375 54.6875 
L 18.109375 46.1875 
Q 21.1875 51.21875 25.484375 53.609375 
Q 29.78125 56 35.6875 56 
Q 41.65625 56 45.828125 52.96875 
Q 50 49.953125 52 44.1875 
z
" id="DejaVuSans-109"/>
      <path d="M 56.203125 29.59375 
L 56.203125 25.203125 
L 14.890625 25.203125 
Q 15.484375 15.921875 20.484375 11.0625 
Q 25.484375 6.203125 34.421875 6.203125 
Q 39.59375 6.203125 44.453125 7.46875 
Q 49.3125 8.734375 54.109375 11.28125 
L 54.109375 2.78125 
Q 49.265625 0.734375 44.1875 -0.34375 
Q 39.109375 -1.421875 33.890625 -1.421875 
Q 20.796875 -1.421875 13.15625 6.1875 
Q 5.515625 13.8125 5.515625 26.8125 
Q 5.515625 40.234375 12.765625 48.109375 
Q 20.015625 56 32.328125 56 
Q 43.359375 56 49.78125 48.890625 
Q 56.203125 41.796875 56.203125 29.59375 
z
M 47.21875 32.234375 
Q 47.125 39.59375 43.09375 43.984375 
Q 39.0625 48.390625 32.421875 48.390625 
Q 24.90625 48.390625 20.390625 44.140625 
Q 15.875 39.890625 15.1875 32.171875 
z
" id="DejaVuSans-101"/>
      <path d="M 45.40625 46.390625 
L 45.40625 75.984375 
L 54.390625 75.984375 
L 54.390625 0 
L 45.40625 0 
L 45.40625 8.203125 
Q 42.578125 3.328125 38.25 0.953125 
Q 33.9375 -1.421875 27.875 -1.421875 
Q 17.96875 -1.421875 11.734375 6.484375 
Q 5.515625 14.40625 5.515625 27.296875 
Q 5.515625 40.1875 11.734375 48.09375 
Q 17.96875 56 27.875 56 
Q 33.9375 56 38.25 53.625 
Q 42.578125 51.265625 45.40625 46.390625 
z
M 14.796875 27.296875 
Q 14.796875 17.390625 18.875 11.75 
Q 22.953125 6.109375 30.078125 6.109375 
Q 37.203125 6.109375 41.296875 11.75 
Q 45.40625 17.390625 45.40625 27.296875 
Q 45.40625 37.203125 41.296875 42.84375 
Q 37.203125 48.484375 30.078125 48.484375 
Q 22.953125 48.484375 18.875 42.84375 
Q 14.796875 37.203125 14.796875 27.296875 
z
" id="DejaVuSans-100"/>
      <path d="M 44.28125 53.078125 
L 44.28125 44.578125 
Q 40.484375 46.53125 36.375 47.5 
Q 32.28125 48.484375 27.875 48.484375 
Q 21.1875 48.484375 17.84375 46.4375 
Q 14.5 44.390625 14.5 40.28125 
Q 14.5 37.15625 16.890625 35.375 
Q 19.28125 33.59375 26.515625 31.984375 
L 29.59375 31.296875 
Q 39.15625 29.25 43.1875 25.515625 
Q 47.21875 21.78125 47.21875 15.09375 
Q 47.21875 7.46875 41.1875 3.015625 
Q 35.15625 -1.421875 24.609375 -1.421875 
Q 20.21875 -1.421875 15.453125 -0.5625 
Q 10.6875 0.296875 5.421875 2 
L 5.421875 11.28125 
Q 10.40625 8.6875 15.234375 7.390625 
Q 20.0625 6.109375 24.8125 6.109375 
Q 31.15625 6.109375 34.5625 8.28125 
Q 37.984375 10.453125 37.984375 14.40625 
Q 37.984375 18.0625 35.515625 20.015625 
Q 33.0625 21.96875 24.703125 23.78125 
L 21.578125 24.515625 
Q 13.234375 26.265625 9.515625 29.90625 
Q 5.8125 33.546875 5.8125 39.890625 
Q 5.8125 47.609375 11.28125 51.796875 
Q 16.75 56 26.8125 56 
Q 31.78125 56 36.171875 55.265625 
Q 40.578125 54.546875 44.28125 53.078125 
z
" id="DejaVuSans-115"/>
     </defs>
     <g style="fill:#262626;" transform="translate(153.507188 285.264063)scale(0.12 -0.12)">
      <use xlink:href="#DejaVuSans-84"/>
      <use x="60.818359" xlink:href="#DejaVuSans-111"/>
      <use x="122" xlink:href="#DejaVuSans-116"/>
      <use x="161.208984" xlink:href="#DejaVuSans-97"/>
      <use x="222.488281" xlink:href="#DejaVuSans-108"/>
      <use x="250.271484" xlink:href="#DejaVuSans-32"/>
      <use x="282.058594" xlink:href="#DejaVuSans-67"/>
      <use x="351.882812" xlink:href="#DejaVuSans-111"/>
      <use x="413.064453" xlink:href="#DejaVuSans-110"/>
      <use x="476.443359" xlink:href="#DejaVuSans-102"/>
      <use x="511.648438" xlink:href="#DejaVuSans-105"/>
      <use x="539.431641" xlink:href="#DejaVuSans-114"/>
      <use x="580.529297" xlink:href="#DejaVuSans-109"/>
      <use x="677.941406" xlink:href="#DejaVuSans-101"/>
      <use x="739.464844" xlink:href="#DejaVuSans-100"/>
      <use x="802.941406" xlink:href="#DejaVuSans-32"/>
      <use x="834.728516" xlink:href="#DejaVuSans-67"/>
      <use x="904.552734" xlink:href="#DejaVuSans-97"/>
      <use x="965.832031" xlink:href="#DejaVuSans-115"/>
      <use x="1017.931641" xlink:href="#DejaVuSans-101"/>
      <use x="1079.455078" xlink:href="#DejaVuSans-115"/>
     </g>
    </g>
   </g>
   <g id="matplotlib.axis_2">
    <g id="ytick_1">
     <g id="line2d_8">
      <path clip-path="url(#p3e76adf649)" d="M 54 244.532977 
L 388.8 244.532977 
" style="fill:none;stroke:#ffffff;stroke-linecap:round;"/>
     </g>
     <g id="text_9">
      <!-- 60 -->
      <g style="fill:#262626;" transform="translate(30.5025 248.712118)scale(0.11 -0.11)">
       <use xlink:href="#DejaVuSans-54"/>
       <use x="63.623047" xlink:href="#DejaVuSans-48"/>
      </g>
     </g>
    </g>
    <g id="ytick_2">
     <g id="line2d_9">
      <path clip-path="url(#p3e76adf649)" d="M 54 215.921735 
L 388.8 215.921735 
" style="fill:none;stroke:#ffffff;stroke-linecap:round;"/>
     </g>
     <g id="text_10">
      <!-- 65 -->
      <defs>
       <path d="M 10.796875 72.90625 
L 49.515625 72.90625 
L 49.515625 64.59375 
L 19.828125 64.59375 
L 19.828125 46.734375 
Q 21.96875 47.46875 24.109375 47.828125 
Q 26.265625 48.1875 28.421875 48.1875 
Q 40.625 48.1875 47.75 41.5 
Q 54.890625 34.8125 54.890625 23.390625 
Q 54.890625 11.625 47.5625 5.09375 
Q 40.234375 -1.421875 26.90625 -1.421875 
Q 22.3125 -1.421875 17.546875 -0.640625 
Q 12.796875 0.140625 7.71875 1.703125 
L 7.71875 11.625 
Q 12.109375 9.234375 16.796875 8.0625 
Q 21.484375 6.890625 26.703125 6.890625 
Q 35.15625 6.890625 40.078125 11.328125 
Q 45.015625 15.765625 45.015625 23.390625 
Q 45.015625 31 40.078125 35.4375 
Q 35.15625 39.890625 26.703125 39.890625 
Q 22.75 39.890625 18.8125 39.015625 
Q 14.890625 38.140625 10.796875 36.28125 
z
" id="DejaVuSans-53"/>
      </defs>
      <g style="fill:#262626;" transform="translate(30.5025 220.100875)scale(0.11 -0.11)">
       <use xlink:href="#DejaVuSans-54"/>
       <use x="63.623047" xlink:href="#DejaVuSans-53"/>
      </g>
     </g>
    </g>
    <g id="ytick_3">
     <g id="line2d_10">
      <path clip-path="url(#p3e76adf649)" d="M 54 187.310492 
L 388.8 187.310492 
" style="fill:none;stroke:#ffffff;stroke-linecap:round;"/>
     </g>
     <g id="text_11">
      <!-- 70 -->
      <defs>
       <path d="M 8.203125 72.90625 
L 55.078125 72.90625 
L 55.078125 68.703125 
L 28.609375 0 
L 18.3125 0 
L 43.21875 64.59375 
L 8.203125 64.59375 
z
" id="DejaVuSans-55"/>
      </defs>
      <g style="fill:#262626;" transform="translate(30.5025 191.489632)scale(0.11 -0.11)">
       <use xlink:href="#DejaVuSans-55"/>
       <use x="63.623047" xlink:href="#DejaVuSans-48"/>
      </g>
     </g>
    </g>
    <g id="ytick_4">
     <g id="line2d_11">
      <path clip-path="url(#p3e76adf649)" d="M 54 158.699249 
L 388.8 158.699249 
" style="fill:none;stroke:#ffffff;stroke-linecap:round;"/>
     </g>
     <g id="text_12">
      <!-- 75 -->
      <g style="fill:#262626;" transform="translate(30.5025 162.87839)scale(0.11 -0.11)">
       <use xlink:href="#DejaVuSans-55"/>
       <use x="63.623047" xlink:href="#DejaVuSans-53"/>
      </g>
     </g>
    </g>
    <g id="ytick_5">
     <g id="line2d_12">
      <path clip-path="url(#p3e76adf649)" d="M 54 130.088006 
L 388.8 130.088006 
" style="fill:none;stroke:#ffffff;stroke-linecap:round;"/>
     </g>
     <g id="text_13">
      <!-- 80 -->
      <g style="fill:#262626;" transform="translate(30.5025 134.267147)scale(0.11 -0.11)">
       <use xlink:href="#DejaVuSans-56"/>
       <use x="63.623047" xlink:href="#DejaVuSans-48"/>
      </g>
     </g>
    </g>
    <g id="ytick_6">
     <g id="line2d_13">
      <path clip-path="url(#p3e76adf649)" d="M 54 101.476764 
L 388.8 101.476764 
" style="fill:none;stroke:#ffffff;stroke-linecap:round;"/>
     </g>
     <g id="text_14">
      <!-- 85 -->
      <g style="fill:#262626;" transform="translate(30.5025 105.655904)scale(0.11 -0.11)">
       <use xlink:href="#DejaVuSans-56"/>
       <use x="63.623047" xlink:href="#DejaVuSans-53"/>
      </g>
     </g>
    </g>
    <g id="ytick_7">
     <g id="line2d_14">
      <path clip-path="url(#p3e76adf649)" d="M 54 72.865521 
L 388.8 72.865521 
" style="fill:none;stroke:#ffffff;stroke-linecap:round;"/>
     </g>
     <g id="text_15">
      <!-- 90 -->
      <defs>
       <path d="M 10.984375 1.515625 
L 10.984375 10.5 
Q 14.703125 8.734375 18.5 7.8125 
Q 22.3125 6.890625 25.984375 6.890625 
Q 35.75 6.890625 40.890625 13.453125 
Q 46.046875 20.015625 46.78125 33.40625 
Q 43.953125 29.203125 39.59375 26.953125 
Q 35.25 24.703125 29.984375 24.703125 
Q 19.046875 24.703125 12.671875 31.3125 
Q 6.296875 37.9375 6.296875 49.421875 
Q 6.296875 60.640625 12.9375 67.421875 
Q 19.578125 74.21875 30.609375 74.21875 
Q 43.265625 74.21875 49.921875 64.515625 
Q 56.59375 54.828125 56.59375 36.375 
Q 56.59375 19.140625 48.40625 8.859375 
Q 40.234375 -1.421875 26.421875 -1.421875 
Q 22.703125 -1.421875 18.890625 -0.6875 
Q 15.09375 0.046875 10.984375 1.515625 
z
M 30.609375 32.421875 
Q 37.25 32.421875 41.125 36.953125 
Q 45.015625 41.5 45.015625 49.421875 
Q 45.015625 57.28125 41.125 61.84375 
Q 37.25 66.40625 30.609375 66.40625 
Q 23.96875 66.40625 20.09375 61.84375 
Q 16.21875 57.28125 16.21875 49.421875 
Q 16.21875 41.5 20.09375 36.953125 
Q 23.96875 32.421875 30.609375 32.421875 
z
" id="DejaVuSans-57"/>
      </defs>
      <g style="fill:#262626;" transform="translate(30.5025 77.044662)scale(0.11 -0.11)">
       <use xlink:href="#DejaVuSans-57"/>
       <use x="63.623047" xlink:href="#DejaVuSans-48"/>
      </g>
     </g>
    </g>
    <g id="ytick_8">
     <g id="line2d_15">
      <path clip-path="url(#p3e76adf649)" d="M 54 44.254278 
L 388.8 44.254278 
" style="fill:none;stroke:#ffffff;stroke-linecap:round;"/>
     </g>
     <g id="text_16">
      <!-- 95 -->
      <g style="fill:#262626;" transform="translate(30.5025 48.433419)scale(0.11 -0.11)">
       <use xlink:href="#DejaVuSans-57"/>
       <use x="63.623047" xlink:href="#DejaVuSans-53"/>
      </g>
     </g>
    </g>
    <g id="text_17">
     <!-- Baseline % of Airport Traffic -->
     <defs>
      <path d="M 19.671875 34.8125 
L 19.671875 8.109375 
L 35.5 8.109375 
Q 43.453125 8.109375 47.28125 11.40625 
Q 51.125 14.703125 51.125 21.484375 
Q 51.125 28.328125 47.28125 31.5625 
Q 43.453125 34.8125 35.5 34.8125 
z
M 19.671875 64.796875 
L 19.671875 42.828125 
L 34.28125 42.828125 
Q 41.5 42.828125 45.03125 45.53125 
Q 48.578125 48.25 48.578125 53.8125 
Q 48.578125 59.328125 45.03125 62.0625 
Q 41.5 64.796875 34.28125 64.796875 
z
M 9.8125 72.90625 
L 35.015625 72.90625 
Q 46.296875 72.90625 52.390625 68.21875 
Q 58.5 63.53125 58.5 54.890625 
Q 58.5 48.1875 55.375 44.234375 
Q 52.25 40.28125 46.1875 39.3125 
Q 53.46875 37.75 57.5 32.78125 
Q 61.53125 27.828125 61.53125 20.40625 
Q 61.53125 10.640625 54.890625 5.3125 
Q 48.25 0 35.984375 0 
L 9.8125 0 
z
" id="DejaVuSans-66"/>
      <path d="M 72.703125 32.078125 
Q 68.453125 32.078125 66.03125 28.46875 
Q 63.625 24.859375 63.625 18.40625 
Q 63.625 12.0625 66.03125 8.421875 
Q 68.453125 4.78125 72.703125 4.78125 
Q 76.859375 4.78125 79.265625 8.421875 
Q 81.6875 12.0625 81.6875 18.40625 
Q 81.6875 24.8125 79.265625 28.4375 
Q 76.859375 32.078125 72.703125 32.078125 
z
M 72.703125 38.28125 
Q 80.421875 38.28125 84.953125 32.90625 
Q 89.5 27.546875 89.5 18.40625 
Q 89.5 9.28125 84.9375 3.921875 
Q 80.375 -1.421875 72.703125 -1.421875 
Q 64.890625 -1.421875 60.34375 3.921875 
Q 55.8125 9.28125 55.8125 18.40625 
Q 55.8125 27.59375 60.375 32.9375 
Q 64.9375 38.28125 72.703125 38.28125 
z
M 22.3125 68.015625 
Q 18.109375 68.015625 15.6875 64.375 
Q 13.28125 60.75 13.28125 54.390625 
Q 13.28125 47.953125 15.671875 44.328125 
Q 18.0625 40.71875 22.3125 40.71875 
Q 26.5625 40.71875 28.96875 44.328125 
Q 31.390625 47.953125 31.390625 54.390625 
Q 31.390625 60.6875 28.953125 64.34375 
Q 26.515625 68.015625 22.3125 68.015625 
z
M 66.40625 74.21875 
L 74.21875 74.21875 
L 28.609375 -1.421875 
L 20.796875 -1.421875 
z
M 22.3125 74.21875 
Q 30.03125 74.21875 34.609375 68.875 
Q 39.203125 63.53125 39.203125 54.390625 
Q 39.203125 45.171875 34.640625 39.84375 
Q 30.078125 34.515625 22.3125 34.515625 
Q 14.546875 34.515625 10.03125 39.859375 
Q 5.515625 45.21875 5.515625 54.390625 
Q 5.515625 63.484375 10.046875 68.84375 
Q 14.59375 74.21875 22.3125 74.21875 
z
" id="DejaVuSans-37"/>
      <path d="M 34.1875 63.1875 
L 20.796875 26.90625 
L 47.609375 26.90625 
z
M 28.609375 72.90625 
L 39.796875 72.90625 
L 67.578125 0 
L 57.328125 0 
L 50.6875 18.703125 
L 17.828125 18.703125 
L 11.1875 0 
L 0.78125 0 
z
" id="DejaVuSans-65"/>
      <path d="M 18.109375 8.203125 
L 18.109375 -20.796875 
L 9.078125 -20.796875 
L 9.078125 54.6875 
L 18.109375 54.6875 
L 18.109375 46.390625 
Q 20.953125 51.265625 25.265625 53.625 
Q 29.59375 56 35.59375 56 
Q 45.5625 56 51.78125 48.09375 
Q 58.015625 40.1875 58.015625 27.296875 
Q 58.015625 14.40625 51.78125 6.484375 
Q 45.5625 -1.421875 35.59375 -1.421875 
Q 29.59375 -1.421875 25.265625 0.953125 
Q 20.953125 3.328125 18.109375 8.203125 
z
M 48.6875 27.296875 
Q 48.6875 37.203125 44.609375 42.84375 
Q 40.53125 48.484375 33.40625 48.484375 
Q 26.265625 48.484375 22.1875 42.84375 
Q 18.109375 37.203125 18.109375 27.296875 
Q 18.109375 17.390625 22.1875 11.75 
Q 26.265625 6.109375 33.40625 6.109375 
Q 40.53125 6.109375 44.609375 11.75 
Q 48.6875 17.390625 48.6875 27.296875 
z
" id="DejaVuSans-112"/>
      <path d="M 48.78125 52.59375 
L 48.78125 44.1875 
Q 44.96875 46.296875 41.140625 47.34375 
Q 37.3125 48.390625 33.40625 48.390625 
Q 24.65625 48.390625 19.8125 42.84375 
Q 14.984375 37.3125 14.984375 27.296875 
Q 14.984375 17.28125 19.8125 11.734375 
Q 24.65625 6.203125 33.40625 6.203125 
Q 37.3125 6.203125 41.140625 7.25 
Q 44.96875 8.296875 48.78125 10.40625 
L 48.78125 2.09375 
Q 45.015625 0.34375 40.984375 -0.53125 
Q 36.96875 -1.421875 32.421875 -1.421875 
Q 20.0625 -1.421875 12.78125 6.34375 
Q 5.515625 14.109375 5.515625 27.296875 
Q 5.515625 40.671875 12.859375 48.328125 
Q 20.21875 56 33.015625 56 
Q 37.15625 56 41.109375 55.140625 
Q 45.0625 54.296875 48.78125 52.59375 
z
" id="DejaVuSans-99"/>
     </defs>
     <g style="fill:#262626;" transform="translate(24.006875 227.353125)rotate(-90)scale(0.12 -0.12)">
      <use xlink:href="#DejaVuSans-66"/>
      <use x="68.603516" xlink:href="#DejaVuSans-97"/>
      <use x="129.882812" xlink:href="#DejaVuSans-115"/>
      <use x="181.982422" xlink:href="#DejaVuSans-101"/>
      <use x="243.505859" xlink:href="#DejaVuSans-108"/>
      <use x="271.289062" xlink:href="#DejaVuSans-105"/>
      <use x="299.072266" xlink:href="#DejaVuSans-110"/>
      <use x="362.451172" xlink:href="#DejaVuSans-101"/>
      <use x="423.974609" xlink:href="#DejaVuSans-32"/>
      <use x="455.761719" xlink:href="#DejaVuSans-37"/>
      <use x="550.78125" xlink:href="#DejaVuSans-32"/>
      <use x="582.568359" xlink:href="#DejaVuSans-111"/>
      <use x="643.75" xlink:href="#DejaVuSans-102"/>
      <use x="678.955078" xlink:href="#DejaVuSans-32"/>
      <use x="710.742188" xlink:href="#DejaVuSans-65"/>
      <use x="779.150391" xlink:href="#DejaVuSans-105"/>
      <use x="806.933594" xlink:href="#DejaVuSans-114"/>
      <use x="848.046875" xlink:href="#DejaVuSans-112"/>
      <use x="911.523438" xlink:href="#DejaVuSans-111"/>
      <use x="972.705078" xlink:href="#DejaVuSans-114"/>
      <use x="1013.818359" xlink:href="#DejaVuSans-116"/>
      <use x="1053.027344" xlink:href="#DejaVuSans-32"/>
      <use x="1084.814453" xlink:href="#DejaVuSans-84"/>
      <use x="1145.679688" xlink:href="#DejaVuSans-114"/>
      <use x="1186.792969" xlink:href="#DejaVuSans-97"/>
      <use x="1248.072266" xlink:href="#DejaVuSans-102"/>
      <use x="1283.277344" xlink:href="#DejaVuSans-102"/>
      <use x="1318.482422" xlink:href="#DejaVuSans-105"/>
      <use x="1346.265625" xlink:href="#DejaVuSans-99"/>
     </g>
    </g>
   </g>
   <g id="line2d_16">
    <defs>
     <path d="M 0 1.5 
C 0.397805 1.5 0.77937 1.341951 1.06066 1.06066 
C 1.341951 0.77937 1.5 0.397805 1.5 0 
C 1.5 -0.397805 1.341951 -0.77937 1.06066 -1.06066 
C 0.77937 -1.341951 0.397805 -1.5 0 -1.5 
C -0.397805 -1.5 -0.77937 -1.341951 -1.06066 -1.06066 
C -1.341951 -0.77937 -1.5 -0.397805 -1.5 0 
C -1.5 0.397805 -1.341951 0.77937 -1.06066 1.06066 
C -0.77937 1.341951 -0.397805 1.5 0 1.5 
z
" id="m71838eb62b" style="stroke:#4c72b0;"/>
    </defs>
    <g clip-path="url(#p3e76adf649)">
     <use style="fill:#4c72b0;stroke:#4c72b0;" x="79.741209" xlink:href="#m71838eb62b" y="78.005791"/>
     <use style="fill:#4c72b0;stroke:#4c72b0;" x="81.502552" xlink:href="#m71838eb62b" y="89.164157"/>
     <use style="fill:#4c72b0;stroke:#4c72b0;" x="83.26732" xlink:href="#m71838eb62b" y="97.949089"/>
     <use style="fill:#4c72b0;stroke:#4c72b0;" x="85.036956" xlink:href="#m71838eb62b" y="110.584304"/>
     <use style="fill:#4c72b0;stroke:#4c72b0;" x="86.74058" xlink:href="#m71838eb62b" y="130.672539"/>
     <use style="fill:#4c72b0;stroke:#4c72b0;" x="88.456193" xlink:href="#m71838eb62b" y="145.386392"/>
     <use style="fill:#4c72b0;stroke:#4c72b0;" x="90.156716" xlink:href="#m71838eb62b" y="144.481722"/>
     <use style="fill:#4c72b0;stroke:#4c72b0;" x="91.760003" xlink:href="#m71838eb62b" y="138.813935"/>
     <use style="fill:#4c72b0;stroke:#4c72b0;" x="93.388526" xlink:href="#m71838eb62b" y="132.751042"/>
     <use style="fill:#4c72b0;stroke:#4c72b0;" x="94.873282" xlink:href="#m71838eb62b" y="122.258176"/>
     <use style="fill:#4c72b0;stroke:#4c72b0;" x="96.251927" xlink:href="#m71838eb62b" y="119.784161"/>
     <use style="fill:#4c72b0;stroke:#4c72b0;" x="97.472868" xlink:href="#m71838eb62b" y="144.018058"/>
     <use style="fill:#4c72b0;stroke:#4c72b0;" x="98.564461" xlink:href="#m71838eb62b" y="173.908159"/>
     <use style="fill:#4c72b0;stroke:#4c72b0;" x="99.461221" xlink:href="#m71838eb62b" y="187.855099"/>
     <use style="fill:#4c72b0;stroke:#4c72b0;" x="100.18006" xlink:href="#m71838eb62b" y="197.388943"/>
     <use style="fill:#4c72b0;stroke:#4c72b0;" x="100.830216" xlink:href="#m71838eb62b" y="202.179287"/>
     <use style="fill:#4c72b0;stroke:#4c72b0;" x="101.518679" xlink:href="#m71838eb62b" y="188.149608"/>
     <use style="fill:#4c72b0;stroke:#4c72b0;" x="102.293167" xlink:href="#m71838eb62b" y="177.6963"/>
     <use style="fill:#4c72b0;stroke:#4c72b0;" x="103.153059" xlink:href="#m71838eb62b" y="205.019462"/>
     <use style="fill:#4c72b0;stroke:#4c72b0;" x="104.087294" xlink:href="#m71838eb62b" y="222.434441"/>
     <use style="fill:#4c72b0;stroke:#4c72b0;" x="105.01648" xlink:href="#m71838eb62b" y="224.250755"/>
     <use style="fill:#4c72b0;stroke:#4c72b0;" x="105.849039" xlink:href="#m71838eb62b" y="242.116364"/>
     <use style="fill:#4c72b0;stroke:#4c72b0;" x="106.601298" xlink:href="#m71838eb62b" y="230.641877"/>
     <use style="fill:#4c72b0;stroke:#4c72b0;" x="107.269083" xlink:href="#m71838eb62b" y="201.154043"/>
     <use style="fill:#4c72b0;stroke:#4c72b0;" x="107.923171" xlink:href="#m71838eb62b" y="185.668504"/>
     <use style="fill:#4c72b0;stroke:#4c72b0;" x="108.617517" xlink:href="#m71838eb62b" y="189.616787"/>
     <use style="fill:#4c72b0;stroke:#4c72b0;" x="109.384704" xlink:href="#m71838eb62b" y="198.495089"/>
     <use style="fill:#4c72b0;stroke:#4c72b0;" x="110.191549" xlink:href="#m71838eb62b" y="194.053571"/>
     <use style="fill:#4c72b0;stroke:#4c72b0;" x="111.108798" xlink:href="#m71838eb62b" y="186.54007"/>
     <use style="fill:#4c72b0;stroke:#4c72b0;" x="112.151213" xlink:href="#m71838eb62b" y="181.399031"/>
     <use style="fill:#4c72b0;stroke:#4c72b0;" x="113.208787" xlink:href="#m71838eb62b" y="170.716451"/>
     <use style="fill:#4c72b0;stroke:#4c72b0;" x="114.292833" xlink:href="#m71838eb62b" y="167.539956"/>
     <use style="fill:#4c72b0;stroke:#4c72b0;" x="115.453268" xlink:href="#m71838eb62b" y="187.112066"/>
     <use style="fill:#4c72b0;stroke:#4c72b0;" x="116.57494" xlink:href="#m71838eb62b" y="205.168614"/>
     <use style="fill:#4c72b0;stroke:#4c72b0;" x="117.668467" xlink:href="#m71838eb62b" y="200.067193"/>
     <use style="fill:#4c72b0;stroke:#4c72b0;" x="118.801328" xlink:href="#m71838eb62b" y="196.897112"/>
     <use style="fill:#4c72b0;stroke:#4c72b0;" x="119.93842" xlink:href="#m71838eb62b" y="194.907604"/>
     <use style="fill:#4c72b0;stroke:#4c72b0;" x="120.970795" xlink:href="#m71838eb62b" y="180.239364"/>
     <use style="fill:#4c72b0;stroke:#4c72b0;" x="121.927301" xlink:href="#m71838eb62b" y="173.195934"/>
     <use style="fill:#4c72b0;stroke:#4c72b0;" x="122.77391" xlink:href="#m71838eb62b" y="183.977147"/>
     <use style="fill:#4c72b0;stroke:#4c72b0;" x="123.467314" xlink:href="#m71838eb62b" y="193.524472"/>
     <use style="fill:#4c72b0;stroke:#4c72b0;" x="124.112872" xlink:href="#m71838eb62b" y="186.396909"/>
     <use style="fill:#4c72b0;stroke:#4c72b0;" x="124.725007" xlink:href="#m71838eb62b" y="178.967967"/>
     <use style="fill:#4c72b0;stroke:#4c72b0;" x="125.304921" xlink:href="#m71838eb62b" y="171.824537"/>
     <use style="fill:#4c72b0;stroke:#4c72b0;" x="125.915852" xlink:href="#m71838eb62b" y="156.074906"/>
     <use style="fill:#4c72b0;stroke:#4c72b0;" x="126.559719" xlink:href="#m71838eb62b" y="150.10578"/>
     <use style="fill:#4c72b0;stroke:#4c72b0;" x="127.140974" xlink:href="#m71838eb62b" y="168.00319"/>
     <use style="fill:#4c72b0;stroke:#4c72b0;" x="127.655772" xlink:href="#m71838eb62b" y="185.345727"/>
     <use style="fill:#4c72b0;stroke:#4c72b0;" x="128.116651" xlink:href="#m71838eb62b" y="185.421403"/>
     <use style="fill:#4c72b0;stroke:#4c72b0;" x="128.494096" xlink:href="#m71838eb62b" y="179.536883"/>
     <use style="fill:#4c72b0;stroke:#4c72b0;" x="128.816475" xlink:href="#m71838eb62b" y="169.914486"/>
     <use style="fill:#4c72b0;stroke:#4c72b0;" x="129.148836" xlink:href="#m71838eb62b" y="153.803278"/>
     <use style="fill:#4c72b0;stroke:#4c72b0;" x="129.51757" xlink:href="#m71838eb62b" y="149.634838"/>
     <use style="fill:#4c72b0;stroke:#4c72b0;" x="129.893304" xlink:href="#m71838eb62b" y="169.396876"/>
     <use style="fill:#4c72b0;stroke:#4c72b0;" x="130.250656" xlink:href="#m71838eb62b" y="202.096496"/>
     <use style="fill:#4c72b0;stroke:#4c72b0;" x="130.580207" xlink:href="#m71838eb62b" y="229.95465"/>
     <use style="fill:#4c72b0;stroke:#4c72b0;" x="130.875716" xlink:href="#m71838eb62b" y="232.954899"/>
     <use style="fill:#4c72b0;stroke:#4c72b0;" x="131.157533" xlink:href="#m71838eb62b" y="226.060518"/>
     <use style="fill:#4c72b0;stroke:#4c72b0;" x="131.457429" xlink:href="#m71838eb62b" y="213.01504"/>
     <use style="fill:#4c72b0;stroke:#4c72b0;" x="131.816905" xlink:href="#m71838eb62b" y="190.375609"/>
     <use style="fill:#4c72b0;stroke:#4c72b0;" x="132.198052" xlink:href="#m71838eb62b" y="178.352116"/>
     <use style="fill:#4c72b0;stroke:#4c72b0;" x="132.557258" xlink:href="#m71838eb62b" y="173.193762"/>
     <use style="fill:#4c72b0;stroke:#4c72b0;" x="132.883725" xlink:href="#m71838eb62b" y="166.819831"/>
     <use style="fill:#4c72b0;stroke:#4c72b0;" x="133.171065" xlink:href="#m71838eb62b" y="163.020075"/>
     <use style="fill:#4c72b0;stroke:#4c72b0;" x="133.408282" xlink:href="#m71838eb62b" y="155.934975"/>
     <use style="fill:#4c72b0;stroke:#4c72b0;" x="133.62789" xlink:href="#m71838eb62b" y="144.002953"/>
     <use style="fill:#4c72b0;stroke:#4c72b0;" x="133.850395" xlink:href="#m71838eb62b" y="139.701949"/>
     <use style="fill:#4c72b0;stroke:#4c72b0;" x="134.056722" xlink:href="#m71838eb62b" y="149.948658"/>
     <use style="fill:#4c72b0;stroke:#4c72b0;" x="134.248498" xlink:href="#m71838eb62b" y="159.76718"/>
     <use style="fill:#4c72b0;stroke:#4c72b0;" x="134.461668" xlink:href="#m71838eb62b" y="154.643354"/>
     <use style="fill:#4c72b0;stroke:#4c72b0;" x="134.705679" xlink:href="#m71838eb62b" y="147.557801"/>
     <use style="fill:#4c72b0;stroke:#4c72b0;" x="134.992156" xlink:href="#m71838eb62b" y="142.296345"/>
     <use style="fill:#4c72b0;stroke:#4c72b0;" x="135.297561" xlink:href="#m71838eb62b" y="128.876871"/>
     <use style="fill:#4c72b0;stroke:#4c72b0;" x="135.572256" xlink:href="#m71838eb62b" y="124.489379"/>
     <use style="fill:#4c72b0;stroke:#4c72b0;" x="135.777285" xlink:href="#m71838eb62b" y="146.807599"/>
     <use style="fill:#4c72b0;stroke:#4c72b0;" x="135.940184" xlink:href="#m71838eb62b" y="171.224052"/>
     <use style="fill:#4c72b0;stroke:#4c72b0;" x="136.109908" xlink:href="#m71838eb62b" y="170.369857"/>
     <use style="fill:#4c72b0;stroke:#4c72b0;" x="136.310659" xlink:href="#m71838eb62b" y="166.479407"/>
     <use style="fill:#4c72b0;stroke:#4c72b0;" x="136.564073" xlink:href="#m71838eb62b" y="160.826099"/>
     <use style="fill:#4c72b0;stroke:#4c72b0;" x="136.881431" xlink:href="#m71838eb62b" y="139.783331"/>
     <use style="fill:#4c72b0;stroke:#4c72b0;" x="137.218677" xlink:href="#m71838eb62b" y="127.03401"/>
     <use style="fill:#4c72b0;stroke:#4c72b0;" x="137.49697" xlink:href="#m71838eb62b" y="139.907315"/>
     <use style="fill:#4c72b0;stroke:#4c72b0;" x="137.745681" xlink:href="#m71838eb62b" y="153.645205"/>
     <use style="fill:#4c72b0;stroke:#4c72b0;" x="138.037433" xlink:href="#m71838eb62b" y="147.509233"/>
     <use style="fill:#4c72b0;stroke:#4c72b0;" x="138.358088" xlink:href="#m71838eb62b" y="137.151935"/>
     <use style="fill:#4c72b0;stroke:#4c72b0;" x="138.703572" xlink:href="#m71838eb62b" y="126.188534"/>
     <use style="fill:#4c72b0;stroke:#4c72b0;" x="139.083401" xlink:href="#m71838eb62b" y="105.934783"/>
     <use style="fill:#4c72b0;stroke:#4c72b0;" x="139.439728" xlink:href="#m71838eb62b" y="96.786124"/>
     <use style="fill:#4c72b0;stroke:#4c72b0;" x="139.69561" xlink:href="#m71838eb62b" y="114.36517"/>
     <use style="fill:#4c72b0;stroke:#4c72b0;" x="139.894245" xlink:href="#m71838eb62b" y="135.082384"/>
     <use style="fill:#4c72b0;stroke:#4c72b0;" x="140.117719" xlink:href="#m71838eb62b" y="141.113248"/>
     <use style="fill:#4c72b0;stroke:#4c72b0;" x="140.383965" xlink:href="#m71838eb62b" y="142.930249"/>
     <use style="fill:#4c72b0;stroke:#4c72b0;" x="140.703318" xlink:href="#m71838eb62b" y="140.101384"/>
     <use style="fill:#4c72b0;stroke:#4c72b0;" x="141.092671" xlink:href="#m71838eb62b" y="125.920609"/>
     <use style="fill:#4c72b0;stroke:#4c72b0;" x="141.48792" xlink:href="#m71838eb62b" y="117.082016"/>
     <use style="fill:#4c72b0;stroke:#4c72b0;" x="141.796684" xlink:href="#m71838eb62b" y="129.076264"/>
     <use style="fill:#4c72b0;stroke:#4c72b0;" x="142.04472" xlink:href="#m71838eb62b" y="143.467732"/>
     <use style="fill:#4c72b0;stroke:#4c72b0;" x="142.290699" xlink:href="#m71838eb62b" y="140.701563"/>
     <use style="fill:#4c72b0;stroke:#4c72b0;" x="142.525834" xlink:href="#m71838eb62b" y="131.70729"/>
     <use style="fill:#4c72b0;stroke:#4c72b0;" x="142.765436" xlink:href="#m71838eb62b" y="127.815349"/>
     <use style="fill:#4c72b0;stroke:#4c72b0;" x="143.060729" xlink:href="#m71838eb62b" y="132.365388"/>
     <use style="fill:#4c72b0;stroke:#4c72b0;" x="143.367598" xlink:href="#m71838eb62b" y="131.835077"/>
     <use style="fill:#4c72b0;stroke:#4c72b0;" x="143.60743" xlink:href="#m71838eb62b" y="148.665039"/>
     <use style="fill:#4c72b0;stroke:#4c72b0;" x="143.82" xlink:href="#m71838eb62b" y="169.579291"/>
     <use style="fill:#4c72b0;stroke:#4c72b0;" x="144.075489" xlink:href="#m71838eb62b" y="157.518416"/>
     <use style="fill:#4c72b0;stroke:#4c72b0;" x="144.353521" xlink:href="#m71838eb62b" y="132.978782"/>
     <use style="fill:#4c72b0;stroke:#4c72b0;" x="144.67784" xlink:href="#m71838eb62b" y="121.310888"/>
     <use style="fill:#4c72b0;stroke:#4c72b0;" x="145.092985" xlink:href="#m71838eb62b" y="109.048648"/>
     <use style="fill:#4c72b0;stroke:#4c72b0;" x="145.558635" xlink:href="#m71838eb62b" y="102.949896"/>
     <use style="fill:#4c72b0;stroke:#4c72b0;" x="145.968941" xlink:href="#m71838eb62b" y="121.121509"/>
     <use style="fill:#4c72b0;stroke:#4c72b0;" x="146.312333" xlink:href="#m71838eb62b" y="135.504006"/>
     <use style="fill:#4c72b0;stroke:#4c72b0;" x="146.672435" xlink:href="#m71838eb62b" y="129.701333"/>
     <use style="fill:#4c72b0;stroke:#4c72b0;" x="147.181277" xlink:href="#m71838eb62b" y="120.127411"/>
     <use style="fill:#4c72b0;stroke:#4c72b0;" x="147.716651" xlink:href="#m71838eb62b" y="109.330795"/>
     <use style="fill:#4c72b0;stroke:#4c72b0;" x="148.305444" xlink:href="#m71838eb62b" y="93.00877"/>
     <use style="fill:#4c72b0;stroke:#4c72b0;" x="148.993516" xlink:href="#m71838eb62b" y="91.870697"/>
     <use style="fill:#4c72b0;stroke:#4c72b0;" x="149.612029" xlink:href="#m71838eb62b" y="114.918601"/>
     <use style="fill:#4c72b0;stroke:#4c72b0;" x="150.22542" xlink:href="#m71838eb62b" y="138.188899"/>
     <use style="fill:#4c72b0;stroke:#4c72b0;" x="151.04196" xlink:href="#m71838eb62b" y="139.69398"/>
     <use style="fill:#4c72b0;stroke:#4c72b0;" x="151.810271" xlink:href="#m71838eb62b" y="134.16209"/>
     <use style="fill:#4c72b0;stroke:#4c72b0;" x="152.570723" xlink:href="#m71838eb62b" y="124.447375"/>
     <use style="fill:#4c72b0;stroke:#4c72b0;" x="153.420021" xlink:href="#m71838eb62b" y="104.839606"/>
     <use style="fill:#4c72b0;stroke:#4c72b0;" x="154.125667" xlink:href="#m71838eb62b" y="95.319092"/>
     <use style="fill:#4c72b0;stroke:#4c72b0;" x="154.719835" xlink:href="#m71838eb62b" y="113.66083"/>
     <use style="fill:#4c72b0;stroke:#4c72b0;" x="155.357744" xlink:href="#m71838eb62b" y="136.363905"/>
     <use style="fill:#4c72b0;stroke:#4c72b0;" x="156.117069" xlink:href="#m71838eb62b" y="141.337203"/>
     <use style="fill:#4c72b0;stroke:#4c72b0;" x="156.899988" xlink:href="#m71838eb62b" y="141.00327"/>
     <use style="fill:#4c72b0;stroke:#4c72b0;" x="157.727621" xlink:href="#m71838eb62b" y="137.328424"/>
     <use style="fill:#4c72b0;stroke:#4c72b0;" x="158.623783" xlink:href="#m71838eb62b" y="119.812485"/>
     <use style="fill:#4c72b0;stroke:#4c72b0;" x="159.521069" xlink:href="#m71838eb62b" y="108.910388"/>
     <use style="fill:#4c72b0;stroke:#4c72b0;" x="160.323145" xlink:href="#m71838eb62b" y="125.578357"/>
     <use style="fill:#4c72b0;stroke:#4c72b0;" x="161.083467" xlink:href="#m71838eb62b" y="157.126326"/>
     <use style="fill:#4c72b0;stroke:#4c72b0;" x="162.030931" xlink:href="#m71838eb62b" y="186.320274"/>
     <use style="fill:#4c72b0;stroke:#4c72b0;" x="163.09791" xlink:href="#m71838eb62b" y="189.925696"/>
     <use style="fill:#4c72b0;stroke:#4c72b0;" x="164.121381" xlink:href="#m71838eb62b" y="185.973403"/>
     <use style="fill:#4c72b0;stroke:#4c72b0;" x="165.249686" xlink:href="#m71838eb62b" y="171.707812"/>
     <use style="fill:#4c72b0;stroke:#4c72b0;" x="166.470284" xlink:href="#m71838eb62b" y="143.577766"/>
     <use style="fill:#4c72b0;stroke:#4c72b0;" x="167.58728" xlink:href="#m71838eb62b" y="131.989721"/>
     <use style="fill:#4c72b0;stroke:#4c72b0;" x="168.696419" xlink:href="#m71838eb62b" y="130.355245"/>
     <use style="fill:#4c72b0;stroke:#4c72b0;" x="169.889273" xlink:href="#m71838eb62b" y="124.691665"/>
     <use style="fill:#4c72b0;stroke:#4c72b0;" x="171.047811" xlink:href="#m71838eb62b" y="118.612332"/>
     <use style="fill:#4c72b0;stroke:#4c72b0;" x="172.301786" xlink:href="#m71838eb62b" y="110.544566"/>
     <use style="fill:#4c72b0;stroke:#4c72b0;" x="173.880783" xlink:href="#m71838eb62b" y="97.536328"/>
     <use style="fill:#4c72b0;stroke:#4c72b0;" x="175.564375" xlink:href="#m71838eb62b" y="95.383675"/>
     <use style="fill:#4c72b0;stroke:#4c72b0;" x="177.110338" xlink:href="#m71838eb62b" y="113.641695"/>
     <use style="fill:#4c72b0;stroke:#4c72b0;" x="178.674062" xlink:href="#m71838eb62b" y="144.858003"/>
     <use style="fill:#4c72b0;stroke:#4c72b0;" x="180.703031" xlink:href="#m71838eb62b" y="161.92788"/>
     <use style="fill:#4c72b0;stroke:#4c72b0;" x="182.860814" xlink:href="#m71838eb62b" y="150.445289"/>
     <use style="fill:#4c72b0;stroke:#4c72b0;" x="187.433503" xlink:href="#m71838eb62b" y="127.002639"/>
     <use style="fill:#4c72b0;stroke:#4c72b0;" x="189.475531" xlink:href="#m71838eb62b" y="100.136258"/>
     <use style="fill:#4c72b0;stroke:#4c72b0;" x="190.959082" xlink:href="#m71838eb62b" y="108.05774"/>
     <use style="fill:#4c72b0;stroke:#4c72b0;" x="192.43402" xlink:href="#m71838eb62b" y="126.475913"/>
     <use style="fill:#4c72b0;stroke:#4c72b0;" x="194.484573" xlink:href="#m71838eb62b" y="127.787769"/>
     <use style="fill:#4c72b0;stroke:#4c72b0;" x="196.556552" xlink:href="#m71838eb62b" y="126.540981"/>
     <use style="fill:#4c72b0;stroke:#4c72b0;" x="199.052821" xlink:href="#m71838eb62b" y="122.055561"/>
     <use style="fill:#4c72b0;stroke:#4c72b0;" x="201.560069" xlink:href="#m71838eb62b" y="106.167988"/>
     <use style="fill:#4c72b0;stroke:#4c72b0;" x="203.792298" xlink:href="#m71838eb62b" y="99.054283"/>
     <use style="fill:#4c72b0;stroke:#4c72b0;" x="205.45136" xlink:href="#m71838eb62b" y="114.352724"/>
     <use style="fill:#4c72b0;stroke:#4c72b0;" x="207.144525" xlink:href="#m71838eb62b" y="134.336478"/>
     <use style="fill:#4c72b0;stroke:#4c72b0;" x="210.359181" xlink:href="#m71838eb62b" y="139.766704"/>
     <use style="fill:#4c72b0;stroke:#4c72b0;" x="212.73251" xlink:href="#m71838eb62b" y="136.768936"/>
     <use style="fill:#4c72b0;stroke:#4c72b0;" x="215.04193" xlink:href="#m71838eb62b" y="128.016796"/>
     <use style="fill:#4c72b0;stroke:#4c72b0;" x="217.596118" xlink:href="#m71838eb62b" y="108.494712"/>
     <use style="fill:#4c72b0;stroke:#4c72b0;" x="219.970718" xlink:href="#m71838eb62b" y="94.607962"/>
     <use style="fill:#4c72b0;stroke:#4c72b0;" x="221.943601" xlink:href="#m71838eb62b" y="100.690996"/>
     <use style="fill:#4c72b0;stroke:#4c72b0;" x="223.841995" xlink:href="#m71838eb62b" y="120.868366"/>
     <use style="fill:#4c72b0;stroke:#4c72b0;" x="225.544812" xlink:href="#m71838eb62b" y="142.629781"/>
     <use style="fill:#4c72b0;stroke:#4c72b0;" x="228.350275" xlink:href="#m71838eb62b" y="146.67425"/>
     <use style="fill:#4c72b0;stroke:#4c72b0;" x="230.949409" xlink:href="#m71838eb62b" y="146.070125"/>
     <use style="fill:#4c72b0;stroke:#4c72b0;" x="233.669659" xlink:href="#m71838eb62b" y="143.356058"/>
     <use style="fill:#4c72b0;stroke:#4c72b0;" x="236.389909" xlink:href="#m71838eb62b" y="124.349392"/>
     <use style="fill:#4c72b0;stroke:#4c72b0;" x="239.526545" xlink:href="#m71838eb62b" y="112.508529"/>
     <use style="fill:#4c72b0;stroke:#4c72b0;" x="242.729753" xlink:href="#m71838eb62b" y="114.87273"/>
     <use style="fill:#4c72b0;stroke:#4c72b0;" x="246.081706" xlink:href="#m71838eb62b" y="115.724699"/>
     <use style="fill:#4c72b0;stroke:#4c72b0;" x="249.396403" xlink:href="#m71838eb62b" y="117.945194"/>
     <use style="fill:#4c72b0;stroke:#4c72b0;" x="252.837268" xlink:href="#m71838eb62b" y="118.50092"/>
     <use style="fill:#4c72b0;stroke:#4c72b0;" x="256.280223" xlink:href="#m71838eb62b" y="109.058306"/>
     <use style="fill:#4c72b0;stroke:#4c72b0;" x="259.430634" xlink:href="#m71838eb62b" y="100.613391"/>
     <use style="fill:#4c72b0;stroke:#4c72b0;" x="262.351621" xlink:href="#m71838eb62b" y="111.2508"/>
     <use style="fill:#4c72b0;stroke:#4c72b0;" x="265.287518" xlink:href="#m71838eb62b" y="124.989356"/>
     <use style="fill:#4c72b0;stroke:#4c72b0;" x="268.40199" xlink:href="#m71838eb62b" y="123.300896"/>
     <use style="fill:#4c72b0;stroke:#4c72b0;" x="271.835398" xlink:href="#m71838eb62b" y="120.935621"/>
     <use style="fill:#4c72b0;stroke:#4c72b0;" x="275.301322" xlink:href="#m71838eb62b" y="117.032277"/>
     <use style="fill:#4c72b0;stroke:#4c72b0;" x="278.856563" xlink:href="#m71838eb62b" y="99.909753"/>
     <use style="fill:#4c72b0;stroke:#4c72b0;" x="282.106352" xlink:href="#m71838eb62b" y="88.858273"/>
     <use style="fill:#4c72b0;stroke:#4c72b0;" x="284.211457" xlink:href="#m71838eb62b" y="101.56727"/>
     <use style="fill:#4c72b0;stroke:#4c72b0;" x="286.776012" xlink:href="#m71838eb62b" y="116.635071"/>
     <use style="fill:#4c72b0;stroke:#4c72b0;" x="289.37664" xlink:href="#m71838eb62b" y="115.164519"/>
     <use style="fill:#4c72b0;stroke:#4c72b0;" x="291.734741" xlink:href="#m71838eb62b" y="115.077061"/>
     <use style="fill:#4c72b0;stroke:#4c72b0;" x="294.873916" xlink:href="#m71838eb62b" y="112.6245"/>
     <use style="fill:#4c72b0;stroke:#4c72b0;" x="297.84824" xlink:href="#m71838eb62b" y="95.432827"/>
     <use style="fill:#4c72b0;stroke:#4c72b0;" x="300.590524" xlink:href="#m71838eb62b" y="86.069705"/>
     <use style="fill:#4c72b0;stroke:#4c72b0;" x="303.235755" xlink:href="#m71838eb62b" y="101.382561"/>
     <use style="fill:#4c72b0;stroke:#4c72b0;" x="305.619244" xlink:href="#m71838eb62b" y="118.741097"/>
     <use style="fill:#4c72b0;stroke:#4c72b0;" x="309.449233" xlink:href="#m71838eb62b" y="118.2524"/>
     <use style="fill:#4c72b0;stroke:#4c72b0;" x="312.500071" xlink:href="#m71838eb62b" y="116.220846"/>
     <use style="fill:#4c72b0;stroke:#4c72b0;" x="315.939515" xlink:href="#m71838eb62b" y="112.448268"/>
     <use style="fill:#4c72b0;stroke:#4c72b0;" x="318.836932" xlink:href="#m71838eb62b" y="94.334458"/>
     <use style="fill:#4c72b0;stroke:#4c72b0;" x="321.571055" xlink:href="#m71838eb62b" y="86.95039"/>
     <use style="fill:#4c72b0;stroke:#4c72b0;" x="323.779482" xlink:href="#m71838eb62b" y="106.120477"/>
     <use style="fill:#4c72b0;stroke:#4c72b0;" x="325.85339" xlink:href="#m71838eb62b" y="140.655894"/>
     <use style="fill:#4c72b0;stroke:#4c72b0;" x="329.570195" xlink:href="#m71838eb62b" y="174.137768"/>
     <use style="fill:#4c72b0;stroke:#4c72b0;" x="332.92012" xlink:href="#m71838eb62b" y="179.902115"/>
     <use style="fill:#4c72b0;stroke:#4c72b0;" x="336.688013" xlink:href="#m71838eb62b" y="171.606902"/>
     <use style="fill:#4c72b0;stroke:#4c72b0;" x="341.204166" xlink:href="#m71838eb62b" y="155.625572"/>
     <use style="fill:#4c72b0;stroke:#4c72b0;" x="345.25218" xlink:href="#m71838eb62b" y="119.783951"/>
     <use style="fill:#4c72b0;stroke:#4c72b0;" x="349.174266" xlink:href="#m71838eb62b" y="82.181053"/>
     <use style="fill:#4c72b0;stroke:#4c72b0;" x="353.047187" xlink:href="#m71838eb62b" y="44.443636"/>
    </g>
   </g>
   <g id="line2d_17">
    <path clip-path="url(#p3e76adf649)" d="M 69.218182 168.398169 
L 75.429685 166.821234 
L 81.641187 165.2443 
L 87.85269 163.667365 
L 94.064193 162.090431 
L 100.275696 160.513496 
L 106.487199 158.936562 
L 112.698701 157.359628 
L 118.910204 155.782693 
L 125.121707 154.205759 
L 131.33321 152.628824 
L 137.544712 151.05189 
L 143.756215 149.474955 
L 149.967718 147.898021 
L 156.179221 146.321087 
L 162.390724 144.744152 
L 168.602226 143.167218 
L 174.813729 141.590283 
L 181.025232 140.013349 
L 187.236735 138.436414 
L 193.448237 136.85948 
L 199.65974 135.282545 
L 205.871243 133.705611 
L 212.082746 132.128677 
L 218.294249 130.551742 
L 224.505751 128.974808 
L 230.717254 127.397873 
L 236.928757 125.820939 
L 243.14026 124.244004 
L 249.351763 122.66707 
L 255.563265 121.090135 
L 261.774768 119.513201 
L 267.986271 117.936267 
L 274.197774 116.359332 
L 280.409276 114.782398 
L 286.620779 113.205463 
L 292.832282 111.628529 
L 299.043785 110.051594 
L 305.255288 108.47466 
L 311.46679 106.897726 
L 317.678293 105.320791 
L 323.889796 103.743857 
L 330.101299 102.166922 
L 336.312801 100.589988 
L 342.524304 99.013053 
L 348.735807 97.436119 
L 354.94731 95.859184 
L 361.158813 94.28225 
L 367.370315 92.705316 
L 373.581818 91.128381 
" style="fill:none;stroke:#c44e52;stroke-linecap:round;stroke-width:1.5;"/>
   </g>
   <g id="patch_3">
    <path d="M 54 252 
L 54 34.56 
" style="fill:none;stroke:#ffffff;stroke-linecap:square;stroke-linejoin:miter;stroke-width:1.25;"/>
   </g>
   <g id="patch_4">
    <path d="M 388.8 252 
L 388.8 34.56 
" style="fill:none;stroke:#ffffff;stroke-linecap:square;stroke-linejoin:miter;stroke-width:1.25;"/>
   </g>
   <g id="patch_5">
    <path d="M 54 252 
L 388.8 252 
" style="fill:none;stroke:#ffffff;stroke-linecap:square;stroke-linejoin:miter;stroke-width:1.25;"/>
   </g>
   <g id="patch_6">
    <path d="M 54 34.56 
L 388.8 34.56 
" style="fill:none;stroke:#ffffff;stroke-linecap:square;stroke-linejoin:miter;stroke-width:1.25;"/>
   </g>
  </g>
 </g>
 <defs>
  <clipPath id="p3e76adf649">
   <rect height="217.44" width="334.8" x="54" y="34.56"/>
  </clipPath>
 </defs>
</svg>
