<?xml version="1.0" encoding="utf-8" standalone="no"?>
<!DOCTYPE svg PUBLIC "-//W3C//DTD SVG 1.1//EN"
  "http://www.w3.org/Graphics/SVG/1.1/DTD/svg11.dtd">
<!-- Created with matplotlib (https://matplotlib.org/) -->
<svg height="288pt" version="1.1" viewBox="0 0 432 288" width="432pt" xmlns="http://www.w3.org/2000/svg" xmlns:xlink="http://www.w3.org/1999/xlink">
 <defs>
  <style type="text/css">
*{stroke-linecap:butt;stroke-linejoin:round;}
  </style>
 </defs>
 <g id="figure_1">
  <g id="patch_1">
   <path d="M 0 288 
L 432 288 
L 432 0 
L 0 0 
z
" style="fill:#ffffff;"/>
  </g>
  <g id="axes_1">
   <g id="patch_2">
    <path d="M 54 252 
L 388.8 252 
L 388.8 34.56 
L 54 34.56 
z
" style="fill:#eaeaf2;"/>
   </g>
   <g id="matplotlib.axis_1">
    <g id="xtick_1">
     <g id="line2d_1">
      <path clip-path="url(#p8218364bb6)" d="M 69.218182 252 
L 69.218182 34.56 
" style="fill:none;stroke:#ffffff;stroke-linecap:round;"/>
     </g>
     <g id="text_1">
      <!-- 0 -->
      <defs>
       <path d="M 31.78125 66.40625 
Q 24.171875 66.40625 20.328125 58.90625 
Q 16.5 51.421875 16.5 36.375 
Q 16.5 21.390625 20.328125 13.890625 
Q 24.171875 6.390625 31.78125 6.390625 
Q 39.453125 6.390625 43.28125 13.890625 
Q 47.125 21.390625 47.125 36.375 
Q 47.125 51.421875 43.28125 58.90625 
Q 39.453125 66.40625 31.78125 66.40625 
z
M 31.78125 74.21875 
Q 44.046875 74.21875 50.515625 64.515625 
Q 56.984375 54.828125 56.984375 36.375 
Q 56.984375 17.96875 50.515625 8.265625 
Q 44.046875 -1.421875 31.78125 -1.421875 
Q 19.53125 -1.421875 13.0625 8.265625 
Q 6.59375 17.96875 6.59375 36.375 
Q 6.59375 54.828125 13.0625 64.515625 
Q 19.53125 74.21875 31.78125 74.21875 
z
" id="DejaVuSans-48"/>
      </defs>
      <g style="fill:#262626;" transform="translate(65.718807 269.858281)scale(0.11 -0.11)">
       <use xlink:href="#DejaVuSans-48"/>
      </g>
     </g>
    </g>
    <g id="xtick_2">
     <g id="line2d_2">
      <path clip-path="url(#p8218364bb6)" d="M 115.548357 252 
L 115.548357 34.56 
" style="fill:none;stroke:#ffffff;stroke-linecap:round;"/>
     </g>
     <g id="text_2">
      <!-- 10000 -->
      <defs>
       <path d="M 12.40625 8.296875 
L 28.515625 8.296875 
L 28.515625 63.921875 
L 10.984375 60.40625 
L 10.984375 69.390625 
L 28.421875 72.90625 
L 38.28125 72.90625 
L 38.28125 8.296875 
L 54.390625 8.296875 
L 54.390625 0 
L 12.40625 0 
z
" id="DejaVuSans-49"/>
      </defs>
      <g style="fill:#262626;" transform="translate(98.051482 269.858281)scale(0.11 -0.11)">
       <use xlink:href="#DejaVuSans-49"/>
       <use x="63.623047" xlink:href="#DejaVuSans-48"/>
       <use x="127.246094" xlink:href="#DejaVuSans-48"/>
       <use x="190.869141" xlink:href="#DejaVuSans-48"/>
       <use x="254.492188" xlink:href="#DejaVuSans-48"/>
      </g>
     </g>
    </g>
    <g id="xtick_3">
     <g id="line2d_3">
      <path clip-path="url(#p8218364bb6)" d="M 161.878533 252 
L 161.878533 34.56 
" style="fill:none;stroke:#ffffff;stroke-linecap:round;"/>
     </g>
     <g id="text_3">
      <!-- 20000 -->
      <defs>
       <path d="M 19.1875 8.296875 
L 53.609375 8.296875 
L 53.609375 0 
L 7.328125 0 
L 7.328125 8.296875 
Q 12.9375 14.109375 22.625 23.890625 
Q 32.328125 33.6875 34.8125 36.53125 
Q 39.546875 41.84375 41.421875 45.53125 
Q 43.3125 49.21875 43.3125 52.78125 
Q 43.3125 58.59375 39.234375 62.25 
Q 35.15625 65.921875 28.609375 65.921875 
Q 23.96875 65.921875 18.8125 64.3125 
Q 13.671875 62.703125 7.8125 59.421875 
L 7.8125 69.390625 
Q 13.765625 71.78125 18.9375 73 
Q 24.125 74.21875 28.421875 74.21875 
Q 39.75 74.21875 46.484375 68.546875 
Q 53.21875 62.890625 53.21875 53.421875 
Q 53.21875 48.921875 51.53125 44.890625 
Q 49.859375 40.875 45.40625 35.40625 
Q 44.1875 33.984375 37.640625 27.21875 
Q 31.109375 20.453125 19.1875 8.296875 
z
" id="DejaVuSans-50"/>
      </defs>
      <g style="fill:#262626;" transform="translate(144.381658 269.858281)scale(0.11 -0.11)">
       <use xlink:href="#DejaVuSans-50"/>
       <use x="63.623047" xlink:href="#DejaVuSans-48"/>
       <use x="127.246094" xlink:href="#DejaVuSans-48"/>
       <use x="190.869141" xlink:href="#DejaVuSans-48"/>
       <use x="254.492188" xlink:href="#DejaVuSans-48"/>
      </g>
     </g>
    </g>
    <g id="xtick_4">
     <g id="line2d_4">
      <path clip-path="url(#p8218364bb6)" d="M 208.208708 252 
L 208.208708 34.56 
" style="fill:none;stroke:#ffffff;stroke-linecap:round;"/>
     </g>
     <g id="text_4">
      <!-- 30000 -->
      <defs>
       <path d="M 40.578125 39.3125 
Q 47.65625 37.796875 51.625 33 
Q 55.609375 28.21875 55.609375 21.1875 
Q 55.609375 10.40625 48.1875 4.484375 
Q 40.765625 -1.421875 27.09375 -1.421875 
Q 22.515625 -1.421875 17.65625 -0.515625 
Q 12.796875 0.390625 7.625 2.203125 
L 7.625 11.71875 
Q 11.71875 9.328125 16.59375 8.109375 
Q 21.484375 6.890625 26.8125 6.890625 
Q 36.078125 6.890625 40.9375 10.546875 
Q 45.796875 14.203125 45.796875 21.1875 
Q 45.796875 27.640625 41.28125 31.265625 
Q 36.765625 34.90625 28.71875 34.90625 
L 20.21875 34.90625 
L 20.21875 43.015625 
L 29.109375 43.015625 
Q 36.375 43.015625 40.234375 45.921875 
Q 44.09375 48.828125 44.09375 54.296875 
Q 44.09375 59.90625 40.109375 62.90625 
Q 36.140625 65.921875 28.71875 65.921875 
Q 24.65625 65.921875 20.015625 65.03125 
Q 15.375 64.15625 9.8125 62.3125 
L 9.8125 71.09375 
Q 15.4375 72.65625 20.34375 73.4375 
Q 25.25 74.21875 29.59375 74.21875 
Q 40.828125 74.21875 47.359375 69.109375 
Q 53.90625 64.015625 53.90625 55.328125 
Q 53.90625 49.265625 50.4375 45.09375 
Q 46.96875 40.921875 40.578125 39.3125 
z
" id="DejaVuSans-51"/>
      </defs>
      <g style="fill:#262626;" transform="translate(190.711833 269.858281)scale(0.11 -0.11)">
       <use xlink:href="#DejaVuSans-51"/>
       <use x="63.623047" xlink:href="#DejaVuSans-48"/>
       <use x="127.246094" xlink:href="#DejaVuSans-48"/>
       <use x="190.869141" xlink:href="#DejaVuSans-48"/>
       <use x="254.492188" xlink:href="#DejaVuSans-48"/>
      </g>
     </g>
    </g>
    <g id="xtick_5">
     <g id="line2d_5">
      <path clip-path="url(#p8218364bb6)" d="M 254.538884 252 
L 254.538884 34.56 
" style="fill:none;stroke:#ffffff;stroke-linecap:round;"/>
     </g>
     <g id="text_5">
      <!-- 40000 -->
      <defs>
       <path d="M 37.796875 64.3125 
L 12.890625 25.390625 
L 37.796875 25.390625 
z
M 35.203125 72.90625 
L 47.609375 72.90625 
L 47.609375 25.390625 
L 58.015625 25.390625 
L 58.015625 17.1875 
L 47.609375 17.1875 
L 47.609375 0 
L 37.796875 0 
L 37.796875 17.1875 
L 4.890625 17.1875 
L 4.890625 26.703125 
z
" id="DejaVuSans-52"/>
      </defs>
      <g style="fill:#262626;" transform="translate(237.042009 269.858281)scale(0.11 -0.11)">
       <use xlink:href="#DejaVuSans-52"/>
       <use x="63.623047" xlink:href="#DejaVuSans-48"/>
       <use x="127.246094" xlink:href="#DejaVuSans-48"/>
       <use x="190.869141" xlink:href="#DejaVuSans-48"/>
       <use x="254.492188" xlink:href="#DejaVuSans-48"/>
      </g>
     </g>
    </g>
    <g id="xtick_6">
     <g id="line2d_6">
      <path clip-path="url(#p8218364bb6)" d="M 300.869059 252 
L 300.869059 34.56 
" style="fill:none;stroke:#ffffff;stroke-linecap:round;"/>
     </g>
     <g id="text_6">
      <!-- 50000 -->
      <defs>
       <path d="M 10.796875 72.90625 
L 49.515625 72.90625 
L 49.515625 64.59375 
L 19.828125 64.59375 
L 19.828125 46.734375 
Q 21.96875 47.46875 24.109375 47.828125 
Q 26.265625 48.1875 28.421875 48.1875 
Q 40.625 48.1875 47.75 41.5 
Q 54.890625 34.8125 54.890625 23.390625 
Q 54.890625 11.625 47.5625 5.09375 
Q 40.234375 -1.421875 26.90625 -1.421875 
Q 22.3125 -1.421875 17.546875 -0.640625 
Q 12.796875 0.140625 7.71875 1.703125 
L 7.71875 11.625 
Q 12.109375 9.234375 16.796875 8.0625 
Q 21.484375 6.890625 26.703125 6.890625 
Q 35.15625 6.890625 40.078125 11.328125 
Q 45.015625 15.765625 45.015625 23.390625 
Q 45.015625 31 40.078125 35.4375 
Q 35.15625 39.890625 26.703125 39.890625 
Q 22.75 39.890625 18.8125 39.015625 
Q 14.890625 38.140625 10.796875 36.28125 
z
" id="DejaVuSans-53"/>
      </defs>
      <g style="fill:#262626;" transform="translate(283.372184 269.858281)scale(0.11 -0.11)">
       <use xlink:href="#DejaVuSans-53"/>
       <use x="63.623047" xlink:href="#DejaVuSans-48"/>
       <use x="127.246094" xlink:href="#DejaVuSans-48"/>
       <use x="190.869141" xlink:href="#DejaVuSans-48"/>
       <use x="254.492188" xlink:href="#DejaVuSans-48"/>
      </g>
     </g>
    </g>
    <g id="xtick_7">
     <g id="line2d_7">
      <path clip-path="url(#p8218364bb6)" d="M 347.199235 252 
L 347.199235 34.56 
" style="fill:none;stroke:#ffffff;stroke-linecap:round;"/>
     </g>
     <g id="text_7">
      <!-- 60000 -->
      <defs>
       <path d="M 33.015625 40.375 
Q 26.375 40.375 22.484375 35.828125 
Q 18.609375 31.296875 18.609375 23.390625 
Q 18.609375 15.53125 22.484375 10.953125 
Q 26.375 6.390625 33.015625 6.390625 
Q 39.65625 6.390625 43.53125 10.953125 
Q 47.40625 15.53125 47.40625 23.390625 
Q 47.40625 31.296875 43.53125 35.828125 
Q 39.65625 40.375 33.015625 40.375 
z
M 52.59375 71.296875 
L 52.59375 62.3125 
Q 48.875 64.0625 45.09375 64.984375 
Q 41.3125 65.921875 37.59375 65.921875 
Q 27.828125 65.921875 22.671875 59.328125 
Q 17.53125 52.734375 16.796875 39.40625 
Q 19.671875 43.65625 24.015625 45.921875 
Q 28.375 48.1875 33.59375 48.1875 
Q 44.578125 48.1875 50.953125 41.515625 
Q 57.328125 34.859375 57.328125 23.390625 
Q 57.328125 12.15625 50.6875 5.359375 
Q 44.046875 -1.421875 33.015625 -1.421875 
Q 20.359375 -1.421875 13.671875 8.265625 
Q 6.984375 17.96875 6.984375 36.375 
Q 6.984375 53.65625 15.1875 63.9375 
Q 23.390625 74.21875 37.203125 74.21875 
Q 40.921875 74.21875 44.703125 73.484375 
Q 48.484375 72.75 52.59375 71.296875 
z
" id="DejaVuSans-54"/>
      </defs>
      <g style="fill:#262626;" transform="translate(329.70236 269.858281)scale(0.11 -0.11)">
       <use xlink:href="#DejaVuSans-54"/>
       <use x="63.623047" xlink:href="#DejaVuSans-48"/>
       <use x="127.246094" xlink:href="#DejaVuSans-48"/>
       <use x="190.869141" xlink:href="#DejaVuSans-48"/>
       <use x="254.492188" xlink:href="#DejaVuSans-48"/>
      </g>
     </g>
    </g>
   </g>
   <g id="matplotlib.axis_2">
    <g id="ytick_1">
     <g id="line2d_8">
      <path clip-path="url(#p8218364bb6)" d="M 54 243.744695 
L 388.8 243.744695 
" style="fill:none;stroke:#ffffff;stroke-linecap:round;"/>
     </g>
     <g id="text_8">
      <!-- 30 -->
      <g style="fill:#262626;" transform="translate(30.5025 247.923836)scale(0.11 -0.11)">
       <use xlink:href="#DejaVuSans-51"/>
       <use x="63.623047" xlink:href="#DejaVuSans-48"/>
      </g>
     </g>
    </g>
    <g id="ytick_2">
     <g id="line2d_9">
      <path clip-path="url(#p8218364bb6)" d="M 54 203.361117 
L 388.8 203.361117 
" style="fill:none;stroke:#ffffff;stroke-linecap:round;"/>
     </g>
     <g id="text_9">
      <!-- 40 -->
      <g style="fill:#262626;" transform="translate(30.5025 207.540258)scale(0.11 -0.11)">
       <use xlink:href="#DejaVuSans-52"/>
       <use x="63.623047" xlink:href="#DejaVuSans-48"/>
      </g>
     </g>
    </g>
    <g id="ytick_3">
     <g id="line2d_10">
      <path clip-path="url(#p8218364bb6)" d="M 54 162.977539 
L 388.8 162.977539 
" style="fill:none;stroke:#ffffff;stroke-linecap:round;"/>
     </g>
     <g id="text_10">
      <!-- 50 -->
      <g style="fill:#262626;" transform="translate(30.5025 167.156679)scale(0.11 -0.11)">
       <use xlink:href="#DejaVuSans-53"/>
       <use x="63.623047" xlink:href="#DejaVuSans-48"/>
      </g>
     </g>
    </g>
    <g id="ytick_4">
     <g id="line2d_11">
      <path clip-path="url(#p8218364bb6)" d="M 54 122.593961 
L 388.8 122.593961 
" style="fill:none;stroke:#ffffff;stroke-linecap:round;"/>
     </g>
     <g id="text_11">
      <!-- 60 -->
      <g style="fill:#262626;" transform="translate(30.5025 126.773101)scale(0.11 -0.11)">
       <use xlink:href="#DejaVuSans-54"/>
       <use x="63.623047" xlink:href="#DejaVuSans-48"/>
      </g>
     </g>
    </g>
    <g id="ytick_5">
     <g id="line2d_12">
      <path clip-path="url(#p8218364bb6)" d="M 54 82.210382 
L 388.8 82.210382 
" style="fill:none;stroke:#ffffff;stroke-linecap:round;"/>
     </g>
     <g id="text_12">
      <!-- 70 -->
      <defs>
       <path d="M 8.203125 72.90625 
L 55.078125 72.90625 
L 55.078125 68.703125 
L 28.609375 0 
L 18.3125 0 
L 43.21875 64.59375 
L 8.203125 64.59375 
z
" id="DejaVuSans-55"/>
      </defs>
      <g style="fill:#262626;" transform="translate(30.5025 86.389523)scale(0.11 -0.11)">
       <use xlink:href="#DejaVuSans-55"/>
       <use x="63.623047" xlink:href="#DejaVuSans-48"/>
      </g>
     </g>
    </g>
    <g id="ytick_6">
     <g id="line2d_13">
      <path clip-path="url(#p8218364bb6)" d="M 54 41.826804 
L 388.8 41.826804 
" style="fill:none;stroke:#ffffff;stroke-linecap:round;"/>
     </g>
     <g id="text_13">
      <!-- 80 -->
      <defs>
       <path d="M 31.78125 34.625 
Q 24.75 34.625 20.71875 30.859375 
Q 16.703125 27.09375 16.703125 20.515625 
Q 16.703125 13.921875 20.71875 10.15625 
Q 24.75 6.390625 31.78125 6.390625 
Q 38.8125 6.390625 42.859375 10.171875 
Q 46.921875 13.96875 46.921875 20.515625 
Q 46.921875 27.09375 42.890625 30.859375 
Q 38.875 34.625 31.78125 34.625 
z
M 21.921875 38.8125 
Q 15.578125 40.375 12.03125 44.71875 
Q 8.5 49.078125 8.5 55.328125 
Q 8.5 64.0625 14.71875 69.140625 
Q 20.953125 74.21875 31.78125 74.21875 
Q 42.671875 74.21875 48.875 69.140625 
Q 55.078125 64.0625 55.078125 55.328125 
Q 55.078125 49.078125 51.53125 44.71875 
Q 48 40.375 41.703125 38.8125 
Q 48.828125 37.15625 52.796875 32.3125 
Q 56.78125 27.484375 56.78125 20.515625 
Q 56.78125 9.90625 50.3125 4.234375 
Q 43.84375 -1.421875 31.78125 -1.421875 
Q 19.734375 -1.421875 13.25 4.234375 
Q 6.78125 9.90625 6.78125 20.515625 
Q 6.78125 27.484375 10.78125 32.3125 
Q 14.796875 37.15625 21.921875 38.8125 
z
M 18.3125 54.390625 
Q 18.3125 48.734375 21.84375 45.5625 
Q 25.390625 42.390625 31.78125 42.390625 
Q 38.140625 42.390625 41.71875 45.5625 
Q 45.3125 48.734375 45.3125 54.390625 
Q 45.3125 60.0625 41.71875 63.234375 
Q 38.140625 66.40625 31.78125 66.40625 
Q 25.390625 66.40625 21.84375 63.234375 
Q 18.3125 60.0625 18.3125 54.390625 
z
" id="DejaVuSans-56"/>
      </defs>
      <g style="fill:#262626;" transform="translate(30.5025 46.005945)scale(0.11 -0.11)">
       <use xlink:href="#DejaVuSans-56"/>
       <use x="63.623047" xlink:href="#DejaVuSans-48"/>
      </g>
     </g>
    </g>
   </g>
   <g id="line2d_14">
    <path clip-path="url(#p8218364bb6)" d="M 69.218182 148.857913 
L 75.429685 155.172582 
L 81.641187 160.662223 
L 87.85269 165.361563 
L 94.064193 169.305329 
L 100.275696 172.52825 
L 106.487199 175.065053 
L 112.698701 176.950465 
L 118.910204 178.219215 
L 125.121707 178.906029 
L 131.33321 179.045635 
L 137.544712 178.672761 
L 143.756215 177.822135 
L 149.967718 176.528483 
L 156.179221 174.826534 
L 162.390724 172.751015 
L 168.602226 170.336653 
L 174.813729 167.618177 
L 181.025232 164.630314 
L 187.236735 161.407791 
L 193.448237 157.985336 
L 199.65974 154.397676 
L 205.871243 150.67954 
L 212.082746 146.865654 
L 218.294249 142.990746 
L 224.505751 139.089545 
L 230.717254 135.196776 
L 236.928757 131.347169 
L 243.14026 127.57545 
L 249.351763 123.916347 
L 255.563265 120.404587 
L 261.774768 117.0749 
L 267.986271 113.96201 
L 274.197774 111.100648 
L 280.409276 108.525539 
L 286.620779 106.271411 
L 292.832282 104.372993 
L 299.043785 102.865012 
L 305.255288 101.782194 
L 311.46679 101.159269 
L 317.678293 101.030963 
L 323.889796 101.432003 
L 330.101299 102.397119 
L 336.312801 103.961036 
L 342.524304 106.158483 
L 348.735807 109.024188 
L 354.94731 112.592877 
L 361.158813 116.899279 
L 367.370315 121.97812 
L 373.581818 127.864129 
" style="fill:none;stroke:#c44e52;stroke-linecap:round;stroke-width:1.5;"/>
   </g>
   <g id="line2d_15">
    <defs>
     <path d="M 0 1.5 
C 0.397805 1.5 0.77937 1.341951 1.06066 1.06066 
C 1.341951 0.77937 1.5 0.397805 1.5 0 
C 1.5 -0.397805 1.341951 -0.77937 1.06066 -1.06066 
C 0.77937 -1.341951 0.397805 -1.5 0 -1.5 
C -0.397805 -1.5 -0.77937 -1.341951 -1.06066 -1.06066 
C -1.341951 -0.77937 -1.5 -0.397805 -1.5 0 
C -1.5 0.397805 -1.341951 0.77937 -1.06066 1.06066 
C -0.77937 1.341951 -0.397805 1.5 0 1.5 
z
" id="m7f833cd2a8" style="stroke:#4c72b0;"/>
    </defs>
    <g clip-path="url(#p8218364bb6)">
     <use style="fill:#4c72b0;stroke:#4c72b0;" x="71.066303" xlink:href="#m7f833cd2a8" y="81.503464"/>
     <use style="fill:#4c72b0;stroke:#4c72b0;" x="71.563077" xlink:href="#m7f833cd2a8" y="87.679529"/>
     <use style="fill:#4c72b0;stroke:#4c72b0;" x="72.071486" xlink:href="#m7f833cd2a8" y="93.839381"/>
     <use style="fill:#4c72b0;stroke:#4c72b0;" x="72.587846" xlink:href="#m7f833cd2a8" y="105.618575"/>
     <use style="fill:#4c72b0;stroke:#4c72b0;" x="73.172715" xlink:href="#m7f833cd2a8" y="130.56332"/>
     <use style="fill:#4c72b0;stroke:#4c72b0;" x="73.990557" xlink:href="#m7f833cd2a8" y="157.857468"/>
     <use style="fill:#4c72b0;stroke:#4c72b0;" x="75.000675" xlink:href="#m7f833cd2a8" y="169.428821"/>
     <use style="fill:#4c72b0;stroke:#4c72b0;" x="76.130497" xlink:href="#m7f833cd2a8" y="171.098012"/>
     <use style="fill:#4c72b0;stroke:#4c72b0;" x="77.36415" xlink:href="#m7f833cd2a8" y="168.601826"/>
     <use style="fill:#4c72b0;stroke:#4c72b0;" x="78.7264" xlink:href="#m7f833cd2a8" y="157.183304"/>
     <use style="fill:#4c72b0;stroke:#4c72b0;" x="80.454264" xlink:href="#m7f833cd2a8" y="149.184005"/>
     <use style="fill:#4c72b0;stroke:#4c72b0;" x="82.267533" xlink:href="#m7f833cd2a8" y="163.608296"/>
     <use style="fill:#4c72b0;stroke:#4c72b0;" x="84.162019" xlink:href="#m7f833cd2a8" y="183.648653"/>
     <use style="fill:#4c72b0;stroke:#4c72b0;" x="86.070204" xlink:href="#m7f833cd2a8" y="187.097061"/>
     <use style="fill:#4c72b0;stroke:#4c72b0;" x="87.952823" xlink:href="#m7f833cd2a8" y="185.525801"/>
     <use style="fill:#4c72b0;stroke:#4c72b0;" x="89.890639" xlink:href="#m7f833cd2a8" y="180.229241"/>
     <use style="fill:#4c72b0;stroke:#4c72b0;" x="91.801554" xlink:href="#m7f833cd2a8" y="167.175969"/>
     <use style="fill:#4c72b0;stroke:#4c72b0;" x="93.695662" xlink:href="#m7f833cd2a8" y="174.185205"/>
     <use style="fill:#4c72b0;stroke:#4c72b0;" x="95.854048" xlink:href="#m7f833cd2a8" y="204.119442"/>
     <use style="fill:#4c72b0;stroke:#4c72b0;" x="97.91719" xlink:href="#m7f833cd2a8" y="230.245612"/>
     <use style="fill:#4c72b0;stroke:#4c72b0;" x="99.937367" xlink:href="#m7f833cd2a8" y="242.116364"/>
     <use style="fill:#4c72b0;stroke:#4c72b0;" x="101.905235" xlink:href="#m7f833cd2a8" y="237.361937"/>
     <use style="fill:#4c72b0;stroke:#4c72b0;" x="103.810905" xlink:href="#m7f833cd2a8" y="210.06199"/>
     <use style="fill:#4c72b0;stroke:#4c72b0;" x="107.056631" xlink:href="#m7f833cd2a8" y="179.682363"/>
     <use style="fill:#4c72b0;stroke:#4c72b0;" x="110.684467" xlink:href="#m7f833cd2a8" y="164.342358"/>
     <use style="fill:#4c72b0;stroke:#4c72b0;" x="113.796039" xlink:href="#m7f833cd2a8" y="173.616725"/>
     <use style="fill:#4c72b0;stroke:#4c72b0;" x="117.685325" xlink:href="#m7f833cd2a8" y="191.513087"/>
     <use style="fill:#4c72b0;stroke:#4c72b0;" x="120.226331" xlink:href="#m7f833cd2a8" y="197.771717"/>
     <use style="fill:#4c72b0;stroke:#4c72b0;" x="122.81978" xlink:href="#m7f833cd2a8" y="196.62832"/>
     <use style="fill:#4c72b0;stroke:#4c72b0;" x="125.495455" xlink:href="#m7f833cd2a8" y="188.732156"/>
     <use style="fill:#4c72b0;stroke:#4c72b0;" x="128.311701" xlink:href="#m7f833cd2a8" y="170.883023"/>
     <use style="fill:#4c72b0;stroke:#4c72b0;" x="131.016785" xlink:href="#m7f833cd2a8" y="159.97253"/>
     <use style="fill:#4c72b0;stroke:#4c72b0;" x="133.748312" xlink:href="#m7f833cd2a8" y="173.395087"/>
     <use style="fill:#4c72b0;stroke:#4c72b0;" x="136.449033" xlink:href="#m7f833cd2a8" y="190.3531"/>
     <use style="fill:#4c72b0;stroke:#4c72b0;" x="138.866654" xlink:href="#m7f833cd2a8" y="190.76857"/>
     <use style="fill:#4c72b0;stroke:#4c72b0;" x="141.112489" xlink:href="#m7f833cd2a8" y="185.304261"/>
     <use style="fill:#4c72b0;stroke:#4c72b0;" x="143.354594" xlink:href="#m7f833cd2a8" y="177.949599"/>
     <use style="fill:#4c72b0;stroke:#4c72b0;" x="145.56272" xlink:href="#m7f833cd2a8" y="160.19115"/>
     <use style="fill:#4c72b0;stroke:#4c72b0;" x="147.735592" xlink:href="#m7f833cd2a8" y="150.042132"/>
     <use style="fill:#4c72b0;stroke:#4c72b0;" x="149.883458" xlink:href="#m7f833cd2a8" y="166.394439"/>
     <use style="fill:#4c72b0;stroke:#4c72b0;" x="151.923989" xlink:href="#m7f833cd2a8" y="187.446362"/>
     <use style="fill:#4c72b0;stroke:#4c72b0;" x="153.864455" xlink:href="#m7f833cd2a8" y="193.364914"/>
     <use style="fill:#4c72b0;stroke:#4c72b0;" x="155.783393" xlink:href="#m7f833cd2a8" y="193.577889"/>
     <use style="fill:#4c72b0;stroke:#4c72b0;" x="157.679695" xlink:href="#m7f833cd2a8" y="188.827305"/>
     <use style="fill:#4c72b0;stroke:#4c72b0;" x="159.572154" xlink:href="#m7f833cd2a8" y="172.261746"/>
     <use style="fill:#4c72b0;stroke:#4c72b0;" x="161.524489" xlink:href="#m7f833cd2a8" y="160.305024"/>
     <use style="fill:#4c72b0;stroke:#4c72b0;" x="163.410423" xlink:href="#m7f833cd2a8" y="171.501916"/>
     <use style="fill:#4c72b0;stroke:#4c72b0;" x="165.240923" xlink:href="#m7f833cd2a8" y="188.428101"/>
     <use style="fill:#4c72b0;stroke:#4c72b0;" x="167.026326" xlink:href="#m7f833cd2a8" y="192.220745"/>
     <use style="fill:#4c72b0;stroke:#4c72b0;" x="168.716279" xlink:href="#m7f833cd2a8" y="189.64559"/>
     <use style="fill:#4c72b0;stroke:#4c72b0;" x="170.314002" xlink:href="#m7f833cd2a8" y="183.288114"/>
     <use style="fill:#4c72b0;stroke:#4c72b0;" x="171.921562" xlink:href="#m7f833cd2a8" y="164.929897"/>
     <use style="fill:#4c72b0;stroke:#4c72b0;" x="173.571776" xlink:href="#m7f833cd2a8" y="154.067645"/>
     <use style="fill:#4c72b0;stroke:#4c72b0;" x="175.255222" xlink:href="#m7f833cd2a8" y="169.700923"/>
     <use style="fill:#4c72b0;stroke:#4c72b0;" x="176.948239" xlink:href="#m7f833cd2a8" y="199.615757"/>
     <use style="fill:#4c72b0;stroke:#4c72b0;" x="178.654623" xlink:href="#m7f833cd2a8" y="225.455485"/>
     <use style="fill:#4c72b0;stroke:#4c72b0;" x="180.412586" xlink:href="#m7f833cd2a8" y="229.892372"/>
     <use style="fill:#4c72b0;stroke:#4c72b0;" x="182.206723" xlink:href="#m7f833cd2a8" y="215.945417"/>
     <use style="fill:#4c72b0;stroke:#4c72b0;" x="184.034918" xlink:href="#m7f833cd2a8" y="186.001384"/>
     <use style="fill:#4c72b0;stroke:#4c72b0;" x="185.943807" xlink:href="#m7f833cd2a8" y="151.377843"/>
     <use style="fill:#4c72b0;stroke:#4c72b0;" x="187.953163" xlink:href="#m7f833cd2a8" y="140.933849"/>
     <use style="fill:#4c72b0;stroke:#4c72b0;" x="189.942015" xlink:href="#m7f833cd2a8" y="154.306125"/>
     <use style="fill:#4c72b0;stroke:#4c72b0;" x="191.878505" xlink:href="#m7f833cd2a8" y="155.68377"/>
     <use style="fill:#4c72b0;stroke:#4c72b0;" x="193.745103" xlink:href="#m7f833cd2a8" y="154.884655"/>
     <use style="fill:#4c72b0;stroke:#4c72b0;" x="195.51048" xlink:href="#m7f833cd2a8" y="151.516701"/>
     <use style="fill:#4c72b0;stroke:#4c72b0;" x="197.176811" xlink:href="#m7f833cd2a8" y="129.481592"/>
     <use style="fill:#4c72b0;stroke:#4c72b0;" x="198.816477" xlink:href="#m7f833cd2a8" y="113.431233"/>
     <use style="fill:#4c72b0;stroke:#4c72b0;" x="200.443878" xlink:href="#m7f833cd2a8" y="124.733053"/>
     <use style="fill:#4c72b0;stroke:#4c72b0;" x="202.106776" xlink:href="#m7f833cd2a8" y="141.808712"/>
     <use style="fill:#4c72b0;stroke:#4c72b0;" x="203.847141" xlink:href="#m7f833cd2a8" y="142.178702"/>
     <use style="fill:#4c72b0;stroke:#4c72b0;" x="205.626715" xlink:href="#m7f833cd2a8" y="138.614164"/>
     <use style="fill:#4c72b0;stroke:#4c72b0;" x="207.404588" xlink:href="#m7f833cd2a8" y="132.366794"/>
     <use style="fill:#4c72b0;stroke:#4c72b0;" x="209.194527" xlink:href="#m7f833cd2a8" y="114.031489"/>
     <use style="fill:#4c72b0;stroke:#4c72b0;" x="210.963205" xlink:href="#m7f833cd2a8" y="102.539835"/>
     <use style="fill:#4c72b0;stroke:#4c72b0;" x="212.655583" xlink:href="#m7f833cd2a8" y="117.436364"/>
     <use style="fill:#4c72b0;stroke:#4c72b0;" x="214.320953" xlink:href="#m7f833cd2a8" y="137.732729"/>
     <use style="fill:#4c72b0;stroke:#4c72b0;" x="215.965898" xlink:href="#m7f833cd2a8" y="143.049694"/>
     <use style="fill:#4c72b0;stroke:#4c72b0;" x="217.54037" xlink:href="#m7f833cd2a8" y="142.641839"/>
     <use style="fill:#4c72b0;stroke:#4c72b0;" x="219.042933" xlink:href="#m7f833cd2a8" y="136.164118"/>
     <use style="fill:#4c72b0;stroke:#4c72b0;" x="220.466931" xlink:href="#m7f833cd2a8" y="115.982961"/>
     <use style="fill:#4c72b0;stroke:#4c72b0;" x="221.709606" xlink:href="#m7f833cd2a8" y="100.001999"/>
     <use style="fill:#4c72b0;stroke:#4c72b0;" x="222.825045" xlink:href="#m7f833cd2a8" y="108.991468"/>
     <use style="fill:#4c72b0;stroke:#4c72b0;" x="223.8698" xlink:href="#m7f833cd2a8" y="124.157076"/>
     <use style="fill:#4c72b0;stroke:#4c72b0;" x="224.848844" xlink:href="#m7f833cd2a8" y="122.308548"/>
     <use style="fill:#4c72b0;stroke:#4c72b0;" x="225.786678" xlink:href="#m7f833cd2a8" y="116.86427"/>
     <use style="fill:#4c72b0;stroke:#4c72b0;" x="226.701696" xlink:href="#m7f833cd2a8" y="110.460533"/>
     <use style="fill:#4c72b0;stroke:#4c72b0;" x="227.597895" xlink:href="#m7f833cd2a8" y="92.919547"/>
     <use style="fill:#4c72b0;stroke:#4c72b0;" x="228.511989" xlink:href="#m7f833cd2a8" y="84.668062"/>
     <use style="fill:#4c72b0;stroke:#4c72b0;" x="229.468539" xlink:href="#m7f833cd2a8" y="106.379183"/>
     <use style="fill:#4c72b0;stroke:#4c72b0;" x="230.438682" xlink:href="#m7f833cd2a8" y="132.384036"/>
     <use style="fill:#4c72b0;stroke:#4c72b0;" x="231.413042" xlink:href="#m7f833cd2a8" y="137.617961"/>
     <use style="fill:#4c72b0;stroke:#4c72b0;" x="232.404187" xlink:href="#m7f833cd2a8" y="136.549153"/>
     <use style="fill:#4c72b0;stroke:#4c72b0;" x="233.388351" xlink:href="#m7f833cd2a8" y="130.263652"/>
     <use style="fill:#4c72b0;stroke:#4c72b0;" x="234.329104" xlink:href="#m7f833cd2a8" y="109.775315"/>
     <use style="fill:#4c72b0;stroke:#4c72b0;" x="235.215951" xlink:href="#m7f833cd2a8" y="97.525406"/>
     <use style="fill:#4c72b0;stroke:#4c72b0;" x="236.067875" xlink:href="#m7f833cd2a8" y="111.505221"/>
     <use style="fill:#4c72b0;stroke:#4c72b0;" x="236.931314" xlink:href="#m7f833cd2a8" y="129.307232"/>
     <use style="fill:#4c72b0;stroke:#4c72b0;" x="237.802404" xlink:href="#m7f833cd2a8" y="135.581785"/>
     <use style="fill:#4c72b0;stroke:#4c72b0;" x="238.662203" xlink:href="#m7f833cd2a8" y="136.600961"/>
     <use style="fill:#4c72b0;stroke:#4c72b0;" x="239.521809" xlink:href="#m7f833cd2a8" y="132.574518"/>
     <use style="fill:#4c72b0;stroke:#4c72b0;" x="240.343827" xlink:href="#m7f833cd2a8" y="122.808928"/>
     <use style="fill:#4c72b0;stroke:#4c72b0;" x="241.088678" xlink:href="#m7f833cd2a8" y="117.999864"/>
     <use style="fill:#4c72b0;stroke:#4c72b0;" x="241.766459" xlink:href="#m7f833cd2a8" y="131.129678"/>
     <use style="fill:#4c72b0;stroke:#4c72b0;" x="242.423931" xlink:href="#m7f833cd2a8" y="148.251157"/>
     <use style="fill:#4c72b0;stroke:#4c72b0;" x="243.0847" xlink:href="#m7f833cd2a8" y="147.347898"/>
     <use style="fill:#4c72b0;stroke:#4c72b0;" x="243.723734" xlink:href="#m7f833cd2a8" y="139.586255"/>
     <use style="fill:#4c72b0;stroke:#4c72b0;" x="244.348718" xlink:href="#m7f833cd2a8" y="129.505645"/>
     <use style="fill:#4c72b0;stroke:#4c72b0;" x="244.972713" xlink:href="#m7f833cd2a8" y="108.49402"/>
     <use style="fill:#4c72b0;stroke:#4c72b0;" x="245.57515" xlink:href="#m7f833cd2a8" y="94.366665"/>
     <use style="fill:#4c72b0;stroke:#4c72b0;" x="246.13378" xlink:href="#m7f833cd2a8" y="108.639748"/>
     <use style="fill:#4c72b0;stroke:#4c72b0;" x="246.676963" xlink:href="#m7f833cd2a8" y="126.9537"/>
     <use style="fill:#4c72b0;stroke:#4c72b0;" x="247.251291" xlink:href="#m7f833cd2a8" y="130.368205"/>
     <use style="fill:#4c72b0;stroke:#4c72b0;" x="247.826129" xlink:href="#m7f833cd2a8" y="130.735949"/>
     <use style="fill:#4c72b0;stroke:#4c72b0;" x="248.393507" xlink:href="#m7f833cd2a8" y="125.348337"/>
     <use style="fill:#4c72b0;stroke:#4c72b0;" x="248.986976" xlink:href="#m7f833cd2a8" y="106.879236"/>
     <use style="fill:#4c72b0;stroke:#4c72b0;" x="249.577435" xlink:href="#m7f833cd2a8" y="97.821296"/>
     <use style="fill:#4c72b0;stroke:#4c72b0;" x="250.142657" xlink:href="#m7f833cd2a8" y="115.333445"/>
     <use style="fill:#4c72b0;stroke:#4c72b0;" x="250.718825" xlink:href="#m7f833cd2a8" y="135.521673"/>
     <use style="fill:#4c72b0;stroke:#4c72b0;" x="251.314128" xlink:href="#m7f833cd2a8" y="139.807698"/>
     <use style="fill:#4c72b0;stroke:#4c72b0;" x="251.92696" xlink:href="#m7f833cd2a8" y="136.278777"/>
     <use style="fill:#4c72b0;stroke:#4c72b0;" x="252.539252" xlink:href="#m7f833cd2a8" y="125.827813"/>
     <use style="fill:#4c72b0;stroke:#4c72b0;" x="253.146744" xlink:href="#m7f833cd2a8" y="102.751368"/>
     <use style="fill:#4c72b0;stroke:#4c72b0;" x="253.910918" xlink:href="#m7f833cd2a8" y="88.277457"/>
     <use style="fill:#4c72b0;stroke:#4c72b0;" x="254.768297" xlink:href="#m7f833cd2a8" y="103.077095"/>
     <use style="fill:#4c72b0;stroke:#4c72b0;" x="255.533009" xlink:href="#m7f833cd2a8" y="122.70981"/>
     <use style="fill:#4c72b0;stroke:#4c72b0;" x="256.359947" xlink:href="#m7f833cd2a8" y="126.045855"/>
     <use style="fill:#4c72b0;stroke:#4c72b0;" x="257.135114" xlink:href="#m7f833cd2a8" y="125.0386"/>
     <use style="fill:#4c72b0;stroke:#4c72b0;" x="257.640228" xlink:href="#m7f833cd2a8" y="118.070558"/>
     <use style="fill:#4c72b0;stroke:#4c72b0;" x="258.127693" xlink:href="#m7f833cd2a8" y="97.003393"/>
     <use style="fill:#4c72b0;stroke:#4c72b0;" x="258.658651" xlink:href="#m7f833cd2a8" y="87.90002"/>
     <use style="fill:#4c72b0;stroke:#4c72b0;" x="259.198873" xlink:href="#m7f833cd2a8" y="107.38707"/>
     <use style="fill:#4c72b0;stroke:#4c72b0;" x="259.708685" xlink:href="#m7f833cd2a8" y="142.651569"/>
     <use style="fill:#4c72b0;stroke:#4c72b0;" x="260.206293" xlink:href="#m7f833cd2a8" y="175.026843"/>
     <use style="fill:#4c72b0;stroke:#4c72b0;" x="260.672325" xlink:href="#m7f833cd2a8" y="180.930434"/>
     <use style="fill:#4c72b0;stroke:#4c72b0;" x="261.056681" xlink:href="#m7f833cd2a8" y="170.245251"/>
     <use style="fill:#4c72b0;stroke:#4c72b0;" x="261.4293" xlink:href="#m7f833cd2a8" y="146.291343"/>
     <use style="fill:#4c72b0;stroke:#4c72b0;" x="261.857754" xlink:href="#m7f833cd2a8" y="116.663716"/>
     <use style="fill:#4c72b0;stroke:#4c72b0;" x="262.313673" xlink:href="#m7f833cd2a8" y="106.438778"/>
     <use style="fill:#4c72b0;stroke:#4c72b0;" x="262.770419" xlink:href="#m7f833cd2a8" y="120.296507"/>
     <use style="fill:#4c72b0;stroke:#4c72b0;" x="263.243363" xlink:href="#m7f833cd2a8" y="129.535867"/>
     <use style="fill:#4c72b0;stroke:#4c72b0;" x="263.703556" xlink:href="#m7f833cd2a8" y="132.358529"/>
     <use style="fill:#4c72b0;stroke:#4c72b0;" x="264.114728" xlink:href="#m7f833cd2a8" y="128.14923"/>
     <use style="fill:#4c72b0;stroke:#4c72b0;" x="264.510619" xlink:href="#m7f833cd2a8" y="112.80608"/>
     <use style="fill:#4c72b0;stroke:#4c72b0;" x="264.911165" xlink:href="#m7f833cd2a8" y="102.417808"/>
     <use style="fill:#4c72b0;stroke:#4c72b0;" x="265.301847" xlink:href="#m7f833cd2a8" y="116.283998"/>
     <use style="fill:#4c72b0;stroke:#4c72b0;" x="265.686025" xlink:href="#m7f833cd2a8" y="143.4204"/>
     <use style="fill:#4c72b0;stroke:#4c72b0;" x="266.097219" xlink:href="#m7f833cd2a8" y="161.345236"/>
     <use style="fill:#4c72b0;stroke:#4c72b0;" x="266.548828" xlink:href="#m7f833cd2a8" y="154.047267"/>
     <use style="fill:#4c72b0;stroke:#4c72b0;" x="267.456733" xlink:href="#m7f833cd2a8" y="124.069147"/>
     <use style="fill:#4c72b0;stroke:#4c72b0;" x="267.949411" xlink:href="#m7f833cd2a8" y="101.091634"/>
     <use style="fill:#4c72b0;stroke:#4c72b0;" x="268.448895" xlink:href="#m7f833cd2a8" y="112.41116"/>
     <use style="fill:#4c72b0;stroke:#4c72b0;" x="268.947471" xlink:href="#m7f833cd2a8" y="133.542515"/>
     <use style="fill:#4c72b0;stroke:#4c72b0;" x="269.45999" xlink:href="#m7f833cd2a8" y="136.732151"/>
     <use style="fill:#4c72b0;stroke:#4c72b0;" x="269.972166" xlink:href="#m7f833cd2a8" y="133.277678"/>
     <use style="fill:#4c72b0;stroke:#4c72b0;" x="270.481621" xlink:href="#m7f833cd2a8" y="121.329831"/>
     <use style="fill:#4c72b0;stroke:#4c72b0;" x="271.012171" xlink:href="#m7f833cd2a8" y="97.06997"/>
     <use style="fill:#4c72b0;stroke:#4c72b0;" x="271.559901" xlink:href="#m7f833cd2a8" y="82.737072"/>
     <use style="fill:#4c72b0;stroke:#4c72b0;" x="272.113867" xlink:href="#m7f833cd2a8" y="95.120012"/>
     <use style="fill:#4c72b0;stroke:#4c72b0;" x="272.675658" xlink:href="#m7f833cd2a8" y="115.546371"/>
     <use style="fill:#4c72b0;stroke:#4c72b0;" x="273.243897" xlink:href="#m7f833cd2a8" y="123.090292"/>
     <use style="fill:#4c72b0;stroke:#4c72b0;" x="273.821475" xlink:href="#m7f833cd2a8" y="124.850998"/>
     <use style="fill:#4c72b0;stroke:#4c72b0;" x="274.422391" xlink:href="#m7f833cd2a8" y="118.544565"/>
     <use style="fill:#4c72b0;stroke:#4c72b0;" x="275.051933" xlink:href="#m7f833cd2a8" y="97.337961"/>
     <use style="fill:#4c72b0;stroke:#4c72b0;" x="275.710147" xlink:href="#m7f833cd2a8" y="82.402171"/>
     <use style="fill:#4c72b0;stroke:#4c72b0;" x="276.388682" xlink:href="#m7f833cd2a8" y="94.862645"/>
     <use style="fill:#4c72b0;stroke:#4c72b0;" x="277.073244" xlink:href="#m7f833cd2a8" y="124.983849"/>
     <use style="fill:#4c72b0;stroke:#4c72b0;" x="277.777625" xlink:href="#m7f833cd2a8" y="156.296205"/>
     <use style="fill:#4c72b0;stroke:#4c72b0;" x="278.535018" xlink:href="#m7f833cd2a8" y="161.453194"/>
     <use style="fill:#4c72b0;stroke:#4c72b0;" x="279.333409" xlink:href="#m7f833cd2a8" y="152.525437"/>
     <use style="fill:#4c72b0;stroke:#4c72b0;" x="280.162246" xlink:href="#m7f833cd2a8" y="132.079029"/>
     <use style="fill:#4c72b0;stroke:#4c72b0;" x="281.0407" xlink:href="#m7f833cd2a8" y="103.252594"/>
     <use style="fill:#4c72b0;stroke:#4c72b0;" x="281.948965" xlink:href="#m7f833cd2a8" y="99.595228"/>
     <use style="fill:#4c72b0;stroke:#4c72b0;" x="282.948182" xlink:href="#m7f833cd2a8" y="118.770398"/>
     <use style="fill:#4c72b0;stroke:#4c72b0;" x="284.090438" xlink:href="#m7f833cd2a8" y="125.866268"/>
     <use style="fill:#4c72b0;stroke:#4c72b0;" x="285.279418" xlink:href="#m7f833cd2a8" y="125.816292"/>
     <use style="fill:#4c72b0;stroke:#4c72b0;" x="286.52435" xlink:href="#m7f833cd2a8" y="116.933446"/>
     <use style="fill:#4c72b0;stroke:#4c72b0;" x="287.878747" xlink:href="#m7f833cd2a8" y="93.141932"/>
     <use style="fill:#4c72b0;stroke:#4c72b0;" x="289.391978" xlink:href="#m7f833cd2a8" y="80.455997"/>
     <use style="fill:#4c72b0;stroke:#4c72b0;" x="290.977178" xlink:href="#m7f833cd2a8" y="94.2497"/>
     <use style="fill:#4c72b0;stroke:#4c72b0;" x="292.684871" xlink:href="#m7f833cd2a8" y="114.804712"/>
     <use style="fill:#4c72b0;stroke:#4c72b0;" x="294.462158" xlink:href="#m7f833cd2a8" y="122.234011"/>
     <use style="fill:#4c72b0;stroke:#4c72b0;" x="296.327266" xlink:href="#m7f833cd2a8" y="121.360716"/>
     <use style="fill:#4c72b0;stroke:#4c72b0;" x="298.232818" xlink:href="#m7f833cd2a8" y="112.275276"/>
     <use style="fill:#4c72b0;stroke:#4c72b0;" x="300.183666" xlink:href="#m7f833cd2a8" y="92.617345"/>
     <use style="fill:#4c72b0;stroke:#4c72b0;" x="302.187507" xlink:href="#m7f833cd2a8" y="82.159169"/>
     <use style="fill:#4c72b0;stroke:#4c72b0;" x="304.203627" xlink:href="#m7f833cd2a8" y="96.496459"/>
     <use style="fill:#4c72b0;stroke:#4c72b0;" x="306.308109" xlink:href="#m7f833cd2a8" y="115.582929"/>
     <use style="fill:#4c72b0;stroke:#4c72b0;" x="308.49705" xlink:href="#m7f833cd2a8" y="117.536687"/>
     <use style="fill:#4c72b0;stroke:#4c72b0;" x="311.284967" xlink:href="#m7f833cd2a8" y="112.741397"/>
     <use style="fill:#4c72b0;stroke:#4c72b0;" x="313.984906" xlink:href="#m7f833cd2a8" y="103.546631"/>
     <use style="fill:#4c72b0;stroke:#4c72b0;" x="316.658064" xlink:href="#m7f833cd2a8" y="85.340457"/>
     <use style="fill:#4c72b0;stroke:#4c72b0;" x="319.596216" xlink:href="#m7f833cd2a8" y="76.497163"/>
     <use style="fill:#4c72b0;stroke:#4c72b0;" x="322.535664" xlink:href="#m7f833cd2a8" y="96.281534"/>
     <use style="fill:#4c72b0;stroke:#4c72b0;" x="325.444567" xlink:href="#m7f833cd2a8" y="120.440762"/>
     <use style="fill:#4c72b0;stroke:#4c72b0;" x="328.375089" xlink:href="#m7f833cd2a8" y="123.528469"/>
     <use style="fill:#4c72b0;stroke:#4c72b0;" x="331.305866" xlink:href="#m7f833cd2a8" y="120.312212"/>
     <use style="fill:#4c72b0;stroke:#4c72b0;" x="334.201201" xlink:href="#m7f833cd2a8" y="114.576001"/>
     <use style="fill:#4c72b0;stroke:#4c72b0;" x="337.616888" xlink:href="#m7f833cd2a8" y="96.14696"/>
     <use style="fill:#4c72b0;stroke:#4c72b0;" x="341.102078" xlink:href="#m7f833cd2a8" y="86.939653"/>
     <use style="fill:#4c72b0;stroke:#4c72b0;" x="344.542922" xlink:href="#m7f833cd2a8" y="106.041533"/>
     <use style="fill:#4c72b0;stroke:#4c72b0;" x="348.110293" xlink:href="#m7f833cd2a8" y="138.311234"/>
     <use style="fill:#4c72b0;stroke:#4c72b0;" x="351.720425" xlink:href="#m7f833cd2a8" y="167.025222"/>
     <use style="fill:#4c72b0;stroke:#4c72b0;" x="355.317048" xlink:href="#m7f833cd2a8" y="170.647619"/>
     <use style="fill:#4c72b0;stroke:#4c72b0;" x="358.908498" xlink:href="#m7f833cd2a8" y="160.074813"/>
     <use style="fill:#4c72b0;stroke:#4c72b0;" x="362.47922" xlink:href="#m7f833cd2a8" y="139.466289"/>
     <use style="fill:#4c72b0;stroke:#4c72b0;" x="366.159537" xlink:href="#m7f833cd2a8" y="107.336178"/>
     <use style="fill:#4c72b0;stroke:#4c72b0;" x="369.866894" xlink:href="#m7f833cd2a8" y="74.786488"/>
     <use style="fill:#4c72b0;stroke:#4c72b0;" x="373.581818" xlink:href="#m7f833cd2a8" y="44.443636"/>
    </g>
   </g>
   <g id="patch_3">
    <path d="M 54 252 
L 54 34.56 
" style="fill:none;stroke:#ffffff;stroke-linecap:square;stroke-linejoin:miter;stroke-width:1.25;"/>
   </g>
   <g id="patch_4">
    <path d="M 388.8 252 
L 388.8 34.56 
" style="fill:none;stroke:#ffffff;stroke-linecap:square;stroke-linejoin:miter;stroke-width:1.25;"/>
   </g>
   <g id="patch_5">
    <path d="M 54 252 
L 388.8 252 
" style="fill:none;stroke:#ffffff;stroke-linecap:square;stroke-linejoin:miter;stroke-width:1.25;"/>
   </g>
   <g id="patch_6">
    <path d="M 54 34.56 
L 388.8 34.56 
" style="fill:none;stroke:#ffffff;stroke-linecap:square;stroke-linejoin:miter;stroke-width:1.25;"/>
   </g>
   <g id="legend_1">
    <g id="patch_7">
     <path d="M 61.7 75.651875 
L 182.112188 75.651875 
Q 184.312187 75.651875 184.312187 73.451875 
L 184.312187 42.26 
Q 184.312187 40.06 182.112188 40.06 
L 61.7 40.06 
Q 59.5 40.06 59.5 42.26 
L 59.5 73.451875 
Q 59.5 75.651875 61.7 75.651875 
z
" style="fill:#eaeaf2;opacity:0.8;stroke:#cccccc;stroke-linejoin:miter;"/>
    </g>
    <g id="line2d_16">
     <path d="M 63.9 48.968281 
L 85.9 48.968281 
" style="fill:none;stroke:#c44e52;stroke-linecap:round;stroke-width:1.5;"/>
    </g>
    <g id="line2d_17"/>
    <g id="text_14">
     <!-- Predicted Line -->
     <defs>
      <path d="M 19.671875 64.796875 
L 19.671875 37.40625 
L 32.078125 37.40625 
Q 38.96875 37.40625 42.71875 40.96875 
Q 46.484375 44.53125 46.484375 51.125 
Q 46.484375 57.671875 42.71875 61.234375 
Q 38.96875 64.796875 32.078125 64.796875 
z
M 9.8125 72.90625 
L 32.078125 72.90625 
Q 44.34375 72.90625 50.609375 67.359375 
Q 56.890625 61.8125 56.890625 51.125 
Q 56.890625 40.328125 50.609375 34.8125 
Q 44.34375 29.296875 32.078125 29.296875 
L 19.671875 29.296875 
L 19.671875 0 
L 9.8125 0 
z
" id="DejaVuSans-80"/>
      <path d="M 41.109375 46.296875 
Q 39.59375 47.171875 37.8125 47.578125 
Q 36.03125 48 33.890625 48 
Q 26.265625 48 22.1875 43.046875 
Q 18.109375 38.09375 18.109375 28.8125 
L 18.109375 0 
L 9.078125 0 
L 9.078125 54.6875 
L 18.109375 54.6875 
L 18.109375 46.1875 
Q 20.953125 51.171875 25.484375 53.578125 
Q 30.03125 56 36.53125 56 
Q 37.453125 56 38.578125 55.875 
Q 39.703125 55.765625 41.0625 55.515625 
z
" id="DejaVuSans-114"/>
      <path d="M 56.203125 29.59375 
L 56.203125 25.203125 
L 14.890625 25.203125 
Q 15.484375 15.921875 20.484375 11.0625 
Q 25.484375 6.203125 34.421875 6.203125 
Q 39.59375 6.203125 44.453125 7.46875 
Q 49.3125 8.734375 54.109375 11.28125 
L 54.109375 2.78125 
Q 49.265625 0.734375 44.1875 -0.34375 
Q 39.109375 -1.421875 33.890625 -1.421875 
Q 20.796875 -1.421875 13.15625 6.1875 
Q 5.515625 13.8125 5.515625 26.8125 
Q 5.515625 40.234375 12.765625 48.109375 
Q 20.015625 56 32.328125 56 
Q 43.359375 56 49.78125 48.890625 
Q 56.203125 41.796875 56.203125 29.59375 
z
M 47.21875 32.234375 
Q 47.125 39.59375 43.09375 43.984375 
Q 39.0625 48.390625 32.421875 48.390625 
Q 24.90625 48.390625 20.390625 44.140625 
Q 15.875 39.890625 15.1875 32.171875 
z
" id="DejaVuSans-101"/>
      <path d="M 45.40625 46.390625 
L 45.40625 75.984375 
L 54.390625 75.984375 
L 54.390625 0 
L 45.40625 0 
L 45.40625 8.203125 
Q 42.578125 3.328125 38.25 0.953125 
Q 33.9375 -1.421875 27.875 -1.421875 
Q 17.96875 -1.421875 11.734375 6.484375 
Q 5.515625 14.40625 5.515625 27.296875 
Q 5.515625 40.1875 11.734375 48.09375 
Q 17.96875 56 27.875 56 
Q 33.9375 56 38.25 53.625 
Q 42.578125 51.265625 45.40625 46.390625 
z
M 14.796875 27.296875 
Q 14.796875 17.390625 18.875 11.75 
Q 22.953125 6.109375 30.078125 6.109375 
Q 37.203125 6.109375 41.296875 11.75 
Q 45.40625 17.390625 45.40625 27.296875 
Q 45.40625 37.203125 41.296875 42.84375 
Q 37.203125 48.484375 30.078125 48.484375 
Q 22.953125 48.484375 18.875 42.84375 
Q 14.796875 37.203125 14.796875 27.296875 
z
" id="DejaVuSans-100"/>
      <path d="M 9.421875 54.6875 
L 18.40625 54.6875 
L 18.40625 0 
L 9.421875 0 
z
M 9.421875 75.984375 
L 18.40625 75.984375 
L 18.40625 64.59375 
L 9.421875 64.59375 
z
" id="DejaVuSans-105"/>
      <path d="M 48.78125 52.59375 
L 48.78125 44.1875 
Q 44.96875 46.296875 41.140625 47.34375 
Q 37.3125 48.390625 33.40625 48.390625 
Q 24.65625 48.390625 19.8125 42.84375 
Q 14.984375 37.3125 14.984375 27.296875 
Q 14.984375 17.28125 19.8125 11.734375 
Q 24.65625 6.203125 33.40625 6.203125 
Q 37.3125 6.203125 41.140625 7.25 
Q 44.96875 8.296875 48.78125 10.40625 
L 48.78125 2.09375 
Q 45.015625 0.34375 40.984375 -0.53125 
Q 36.96875 -1.421875 32.421875 -1.421875 
Q 20.0625 -1.421875 12.78125 6.34375 
Q 5.515625 14.109375 5.515625 27.296875 
Q 5.515625 40.671875 12.859375 48.328125 
Q 20.21875 56 33.015625 56 
Q 37.15625 56 41.109375 55.140625 
Q 45.0625 54.296875 48.78125 52.59375 
z
" id="DejaVuSans-99"/>
      <path d="M 18.3125 70.21875 
L 18.3125 54.6875 
L 36.8125 54.6875 
L 36.8125 47.703125 
L 18.3125 47.703125 
L 18.3125 18.015625 
Q 18.3125 11.328125 20.140625 9.421875 
Q 21.96875 7.515625 27.59375 7.515625 
L 36.8125 7.515625 
L 36.8125 0 
L 27.59375 0 
Q 17.1875 0 13.234375 3.875 
Q 9.28125 7.765625 9.28125 18.015625 
L 9.28125 47.703125 
L 2.6875 47.703125 
L 2.6875 54.6875 
L 9.28125 54.6875 
L 9.28125 70.21875 
z
" id="DejaVuSans-116"/>
      <path id="DejaVuSans-32"/>
      <path d="M 9.8125 72.90625 
L 19.671875 72.90625 
L 19.671875 8.296875 
L 55.171875 8.296875 
L 55.171875 0 
L 9.8125 0 
z
" id="DejaVuSans-76"/>
      <path d="M 54.890625 33.015625 
L 54.890625 0 
L 45.90625 0 
L 45.90625 32.71875 
Q 45.90625 40.484375 42.875 44.328125 
Q 39.84375 48.1875 33.796875 48.1875 
Q 26.515625 48.1875 22.3125 43.546875 
Q 18.109375 38.921875 18.109375 30.90625 
L 18.109375 0 
L 9.078125 0 
L 9.078125 54.6875 
L 18.109375 54.6875 
L 18.109375 46.1875 
Q 21.34375 51.125 25.703125 53.5625 
Q 30.078125 56 35.796875 56 
Q 45.21875 56 50.046875 50.171875 
Q 54.890625 44.34375 54.890625 33.015625 
z
" id="DejaVuSans-110"/>
     </defs>
     <g style="fill:#262626;" transform="translate(94.7 52.818281)scale(0.11 -0.11)">
      <use xlink:href="#DejaVuSans-80"/>
      <use x="60.287109" xlink:href="#DejaVuSans-114"/>
      <use x="101.369141" xlink:href="#DejaVuSans-101"/>
      <use x="162.892578" xlink:href="#DejaVuSans-100"/>
      <use x="226.369141" xlink:href="#DejaVuSans-105"/>
      <use x="254.152344" xlink:href="#DejaVuSans-99"/>
      <use x="309.132812" xlink:href="#DejaVuSans-116"/>
      <use x="348.341797" xlink:href="#DejaVuSans-101"/>
      <use x="409.865234" xlink:href="#DejaVuSans-100"/>
      <use x="473.341797" xlink:href="#DejaVuSans-32"/>
      <use x="505.128906" xlink:href="#DejaVuSans-76"/>
      <use x="560.841797" xlink:href="#DejaVuSans-105"/>
      <use x="588.625" xlink:href="#DejaVuSans-110"/>
      <use x="652.003906" xlink:href="#DejaVuSans-101"/>
     </g>
    </g>
    <g id="line2d_18"/>
    <g id="line2d_19">
     <g>
      <use style="fill:#4c72b0;stroke:#4c72b0;" x="74.9" xlink:href="#m7f833cd2a8" y="65.114219"/>
     </g>
    </g>
    <g id="text_15">
     <!-- Presented Data -->
     <defs>
      <path d="M 44.28125 53.078125 
L 44.28125 44.578125 
Q 40.484375 46.53125 36.375 47.5 
Q 32.28125 48.484375 27.875 48.484375 
Q 21.1875 48.484375 17.84375 46.4375 
Q 14.5 44.390625 14.5 40.28125 
Q 14.5 37.15625 16.890625 35.375 
Q 19.28125 33.59375 26.515625 31.984375 
L 29.59375 31.296875 
Q 39.15625 29.25 43.1875 25.515625 
Q 47.21875 21.78125 47.21875 15.09375 
Q 47.21875 7.46875 41.1875 3.015625 
Q 35.15625 -1.421875 24.609375 -1.421875 
Q 20.21875 -1.421875 15.453125 -0.5625 
Q 10.6875 0.296875 5.421875 2 
L 5.421875 11.28125 
Q 10.40625 8.6875 15.234375 7.390625 
Q 20.0625 6.109375 24.8125 6.109375 
Q 31.15625 6.109375 34.5625 8.28125 
Q 37.984375 10.453125 37.984375 14.40625 
Q 37.984375 18.0625 35.515625 20.015625 
Q 33.0625 21.96875 24.703125 23.78125 
L 21.578125 24.515625 
Q 13.234375 26.265625 9.515625 29.90625 
Q 5.8125 33.546875 5.8125 39.890625 
Q 5.8125 47.609375 11.28125 51.796875 
Q 16.75 56 26.8125 56 
Q 31.78125 56 36.171875 55.265625 
Q 40.578125 54.546875 44.28125 53.078125 
z
" id="DejaVuSans-115"/>
      <path d="M 19.671875 64.796875 
L 19.671875 8.109375 
L 31.59375 8.109375 
Q 46.6875 8.109375 53.6875 14.9375 
Q 60.6875 21.78125 60.6875 36.53125 
Q 60.6875 51.171875 53.6875 57.984375 
Q 46.6875 64.796875 31.59375 64.796875 
z
M 9.8125 72.90625 
L 30.078125 72.90625 
Q 51.265625 72.90625 61.171875 64.09375 
Q 71.09375 55.28125 71.09375 36.53125 
Q 71.09375 17.671875 61.125 8.828125 
Q 51.171875 0 30.078125 0 
L 9.8125 0 
z
" id="DejaVuSans-68"/>
      <path d="M 34.28125 27.484375 
Q 23.390625 27.484375 19.1875 25 
Q 14.984375 22.515625 14.984375 16.5 
Q 14.984375 11.71875 18.140625 8.90625 
Q 21.296875 6.109375 26.703125 6.109375 
Q 34.1875 6.109375 38.703125 11.40625 
Q 43.21875 16.703125 43.21875 25.484375 
L 43.21875 27.484375 
z
M 52.203125 31.203125 
L 52.203125 0 
L 43.21875 0 
L 43.21875 8.296875 
Q 40.140625 3.328125 35.546875 0.953125 
Q 30.953125 -1.421875 24.3125 -1.421875 
Q 15.921875 -1.421875 10.953125 3.296875 
Q 6 8.015625 6 15.921875 
Q 6 25.140625 12.171875 29.828125 
Q 18.359375 34.515625 30.609375 34.515625 
L 43.21875 34.515625 
L 43.21875 35.40625 
Q 43.21875 41.609375 39.140625 45 
Q 35.0625 48.390625 27.6875 48.390625 
Q 23 48.390625 18.546875 47.265625 
Q 14.109375 46.140625 10.015625 43.890625 
L 10.015625 52.203125 
Q 14.9375 54.109375 19.578125 55.046875 
Q 24.21875 56 28.609375 56 
Q 40.484375 56 46.34375 49.84375 
Q 52.203125 43.703125 52.203125 31.203125 
z
" id="DejaVuSans-97"/>
     </defs>
     <g style="fill:#262626;" transform="translate(94.7 68.964219)scale(0.11 -0.11)">
      <use xlink:href="#DejaVuSans-80"/>
      <use x="60.287109" xlink:href="#DejaVuSans-114"/>
      <use x="101.369141" xlink:href="#DejaVuSans-101"/>
      <use x="162.892578" xlink:href="#DejaVuSans-115"/>
      <use x="214.992188" xlink:href="#DejaVuSans-101"/>
      <use x="276.515625" xlink:href="#DejaVuSans-110"/>
      <use x="339.894531" xlink:href="#DejaVuSans-116"/>
      <use x="379.103516" xlink:href="#DejaVuSans-101"/>
      <use x="440.626953" xlink:href="#DejaVuSans-100"/>
      <use x="504.103516" xlink:href="#DejaVuSans-32"/>
      <use x="535.890625" xlink:href="#DejaVuSans-68"/>
      <use x="612.892578" xlink:href="#DejaVuSans-97"/>
      <use x="674.171875" xlink:href="#DejaVuSans-116"/>
      <use x="713.380859" xlink:href="#DejaVuSans-97"/>
     </g>
    </g>
   </g>
  </g>
 </g>
 <defs>
  <clipPath id="p8218364bb6">
   <rect height="217.44" width="334.8" x="54" y="34.56"/>
  </clipPath>
 </defs>
</svg>
