<?xml version="1.0" encoding="utf-8" standalone="no"?>
<!DOCTYPE svg PUBLIC "-//W3C//DTD SVG 1.1//EN"
  "http://www.w3.org/Graphics/SVG/1.1/DTD/svg11.dtd">
<!-- Created with matplotlib (https://matplotlib.org/) -->
<svg height="360pt" version="1.1" viewBox="0 0 1080 360" width="1080pt" xmlns="http://www.w3.org/2000/svg" xmlns:xlink="http://www.w3.org/1999/xlink">
 <defs>
  <style type="text/css">
*{stroke-linecap:butt;stroke-linejoin:round;}
  </style>
 </defs>
 <g id="figure_1">
  <g id="patch_1">
   <path d="M 0 360 
L 1080 360 
L 1080 0 
L 0 0 
z
" style="fill:#ffffff;"/>
  </g>
  <g id="axes_1">
   <g id="patch_2">
    <path d="M 135 315 
L 972 315 
L 972 43.2 
L 135 43.2 
z
" style="fill:#eaeaf2;"/>
   </g>
   <g id="matplotlib.axis_1">
    <g id="xtick_1">
     <g id="line2d_1">
      <path clip-path="url(#p7b62ba181b)" d="M 203.481818 315 
L 203.481818 43.2 
" style="fill:none;stroke:#ffffff;stroke-linecap:round;"/>
     </g>
     <g id="text_1">
      <!-- 2020-03-26 -->
      <defs>
       <path d="M 19.1875 8.296875 
L 53.609375 8.296875 
L 53.609375 0 
L 7.328125 0 
L 7.328125 8.296875 
Q 12.9375 14.109375 22.625 23.890625 
Q 32.328125 33.6875 34.8125 36.53125 
Q 39.546875 41.84375 41.421875 45.53125 
Q 43.3125 49.21875 43.3125 52.78125 
Q 43.3125 58.59375 39.234375 62.25 
Q 35.15625 65.921875 28.609375 65.921875 
Q 23.96875 65.921875 18.8125 64.3125 
Q 13.671875 62.703125 7.8125 59.421875 
L 7.8125 69.390625 
Q 13.765625 71.78125 18.9375 73 
Q 24.125 74.21875 28.421875 74.21875 
Q 39.75 74.21875 46.484375 68.546875 
Q 53.21875 62.890625 53.21875 53.421875 
Q 53.21875 48.921875 51.53125 44.890625 
Q 49.859375 40.875 45.40625 35.40625 
Q 44.1875 33.984375 37.640625 27.21875 
Q 31.109375 20.453125 19.1875 8.296875 
z
" id="DejaVuSans-50"/>
       <path d="M 31.78125 66.40625 
Q 24.171875 66.40625 20.328125 58.90625 
Q 16.5 51.421875 16.5 36.375 
Q 16.5 21.390625 20.328125 13.890625 
Q 24.171875 6.390625 31.78125 6.390625 
Q 39.453125 6.390625 43.28125 13.890625 
Q 47.125 21.390625 47.125 36.375 
Q 47.125 51.421875 43.28125 58.90625 
Q 39.453125 66.40625 31.78125 66.40625 
z
M 31.78125 74.21875 
Q 44.046875 74.21875 50.515625 64.515625 
Q 56.984375 54.828125 56.984375 36.375 
Q 56.984375 17.96875 50.515625 8.265625 
Q 44.046875 -1.421875 31.78125 -1.421875 
Q 19.53125 -1.421875 13.0625 8.265625 
Q 6.59375 17.96875 6.59375 36.375 
Q 6.59375 54.828125 13.0625 64.515625 
Q 19.53125 74.21875 31.78125 74.21875 
z
" id="DejaVuSans-48"/>
       <path d="M 4.890625 31.390625 
L 31.203125 31.390625 
L 31.203125 23.390625 
L 4.890625 23.390625 
z
" id="DejaVuSans-45"/>
       <path d="M 40.578125 39.3125 
Q 47.65625 37.796875 51.625 33 
Q 55.609375 28.21875 55.609375 21.1875 
Q 55.609375 10.40625 48.1875 4.484375 
Q 40.765625 -1.421875 27.09375 -1.421875 
Q 22.515625 -1.421875 17.65625 -0.515625 
Q 12.796875 0.390625 7.625 2.203125 
L 7.625 11.71875 
Q 11.71875 9.328125 16.59375 8.109375 
Q 21.484375 6.890625 26.8125 6.890625 
Q 36.078125 6.890625 40.9375 10.546875 
Q 45.796875 14.203125 45.796875 21.1875 
Q 45.796875 27.640625 41.28125 31.265625 
Q 36.765625 34.90625 28.71875 34.90625 
L 20.21875 34.90625 
L 20.21875 43.015625 
L 29.109375 43.015625 
Q 36.375 43.015625 40.234375 45.921875 
Q 44.09375 48.828125 44.09375 54.296875 
Q 44.09375 59.90625 40.109375 62.90625 
Q 36.140625 65.921875 28.71875 65.921875 
Q 24.65625 65.921875 20.015625 65.03125 
Q 15.375 64.15625 9.8125 62.3125 
L 9.8125 71.09375 
Q 15.4375 72.65625 20.34375 73.4375 
Q 25.25 74.21875 29.59375 74.21875 
Q 40.828125 74.21875 47.359375 69.109375 
Q 53.90625 64.015625 53.90625 55.328125 
Q 53.90625 49.265625 50.4375 45.09375 
Q 46.96875 40.921875 40.578125 39.3125 
z
" id="DejaVuSans-51"/>
       <path d="M 33.015625 40.375 
Q 26.375 40.375 22.484375 35.828125 
Q 18.609375 31.296875 18.609375 23.390625 
Q 18.609375 15.53125 22.484375 10.953125 
Q 26.375 6.390625 33.015625 6.390625 
Q 39.65625 6.390625 43.53125 10.953125 
Q 47.40625 15.53125 47.40625 23.390625 
Q 47.40625 31.296875 43.53125 35.828125 
Q 39.65625 40.375 33.015625 40.375 
z
M 52.59375 71.296875 
L 52.59375 62.3125 
Q 48.875 64.0625 45.09375 64.984375 
Q 41.3125 65.921875 37.59375 65.921875 
Q 27.828125 65.921875 22.671875 59.328125 
Q 17.53125 52.734375 16.796875 39.40625 
Q 19.671875 43.65625 24.015625 45.921875 
Q 28.375 48.1875 33.59375 48.1875 
Q 44.578125 48.1875 50.953125 41.515625 
Q 57.328125 34.859375 57.328125 23.390625 
Q 57.328125 12.15625 50.6875 5.359375 
Q 44.046875 -1.421875 33.015625 -1.421875 
Q 20.359375 -1.421875 13.671875 8.265625 
Q 6.984375 17.96875 6.984375 36.375 
Q 6.984375 53.65625 15.1875 63.9375 
Q 23.390625 74.21875 37.203125 74.21875 
Q 40.921875 74.21875 44.703125 73.484375 
Q 48.484375 72.75 52.59375 71.296875 
z
" id="DejaVuSans-54"/>
      </defs>
      <g style="fill:#262626;" transform="translate(206.517131 388.427188)rotate(-90)scale(0.11 -0.11)">
       <use xlink:href="#DejaVuSans-50"/>
       <use x="63.623047" xlink:href="#DejaVuSans-48"/>
       <use x="127.246094" xlink:href="#DejaVuSans-50"/>
       <use x="190.869141" xlink:href="#DejaVuSans-48"/>
       <use x="254.492188" xlink:href="#DejaVuSans-45"/>
       <use x="290.576172" xlink:href="#DejaVuSans-48"/>
       <use x="354.199219" xlink:href="#DejaVuSans-51"/>
       <use x="417.822266" xlink:href="#DejaVuSans-45"/>
       <use x="453.90625" xlink:href="#DejaVuSans-50"/>
       <use x="517.529297" xlink:href="#DejaVuSans-54"/>
      </g>
     </g>
    </g>
    <g id="xtick_2">
     <g id="line2d_2">
      <path clip-path="url(#p7b62ba181b)" d="M 279.572727 315 
L 279.572727 43.2 
" style="fill:none;stroke:#ffffff;stroke-linecap:round;"/>
     </g>
     <g id="text_2">
      <!-- 2020-04-05 -->
      <defs>
       <path d="M 37.796875 64.3125 
L 12.890625 25.390625 
L 37.796875 25.390625 
z
M 35.203125 72.90625 
L 47.609375 72.90625 
L 47.609375 25.390625 
L 58.015625 25.390625 
L 58.015625 17.1875 
L 47.609375 17.1875 
L 47.609375 0 
L 37.796875 0 
L 37.796875 17.1875 
L 4.890625 17.1875 
L 4.890625 26.703125 
z
" id="DejaVuSans-52"/>
       <path d="M 10.796875 72.90625 
L 49.515625 72.90625 
L 49.515625 64.59375 
L 19.828125 64.59375 
L 19.828125 46.734375 
Q 21.96875 47.46875 24.109375 47.828125 
Q 26.265625 48.1875 28.421875 48.1875 
Q 40.625 48.1875 47.75 41.5 
Q 54.890625 34.8125 54.890625 23.390625 
Q 54.890625 11.625 47.5625 5.09375 
Q 40.234375 -1.421875 26.90625 -1.421875 
Q 22.3125 -1.421875 17.546875 -0.640625 
Q 12.796875 0.140625 7.71875 1.703125 
L 7.71875 11.625 
Q 12.109375 9.234375 16.796875 8.0625 
Q 21.484375 6.890625 26.703125 6.890625 
Q 35.15625 6.890625 40.078125 11.328125 
Q 45.015625 15.765625 45.015625 23.390625 
Q 45.015625 31 40.078125 35.4375 
Q 35.15625 39.890625 26.703125 39.890625 
Q 22.75 39.890625 18.8125 39.015625 
Q 14.890625 38.140625 10.796875 36.28125 
z
" id="DejaVuSans-53"/>
      </defs>
      <g style="fill:#262626;" transform="translate(282.60804 388.427188)rotate(-90)scale(0.11 -0.11)">
       <use xlink:href="#DejaVuSans-50"/>
       <use x="63.623047" xlink:href="#DejaVuSans-48"/>
       <use x="127.246094" xlink:href="#DejaVuSans-50"/>
       <use x="190.869141" xlink:href="#DejaVuSans-48"/>
       <use x="254.492188" xlink:href="#DejaVuSans-45"/>
       <use x="290.576172" xlink:href="#DejaVuSans-48"/>
       <use x="354.199219" xlink:href="#DejaVuSans-52"/>
       <use x="417.822266" xlink:href="#DejaVuSans-45"/>
       <use x="453.90625" xlink:href="#DejaVuSans-48"/>
       <use x="517.529297" xlink:href="#DejaVuSans-53"/>
      </g>
     </g>
    </g>
    <g id="xtick_3">
     <g id="line2d_3">
      <path clip-path="url(#p7b62ba181b)" d="M 355.663636 315 
L 355.663636 43.2 
" style="fill:none;stroke:#ffffff;stroke-linecap:round;"/>
     </g>
     <g id="text_3">
      <!-- 2020-04-15 -->
      <defs>
       <path d="M 12.40625 8.296875 
L 28.515625 8.296875 
L 28.515625 63.921875 
L 10.984375 60.40625 
L 10.984375 69.390625 
L 28.421875 72.90625 
L 38.28125 72.90625 
L 38.28125 8.296875 
L 54.390625 8.296875 
L 54.390625 0 
L 12.40625 0 
z
" id="DejaVuSans-49"/>
      </defs>
      <g style="fill:#262626;" transform="translate(358.698949 388.427188)rotate(-90)scale(0.11 -0.11)">
       <use xlink:href="#DejaVuSans-50"/>
       <use x="63.623047" xlink:href="#DejaVuSans-48"/>
       <use x="127.246094" xlink:href="#DejaVuSans-50"/>
       <use x="190.869141" xlink:href="#DejaVuSans-48"/>
       <use x="254.492188" xlink:href="#DejaVuSans-45"/>
       <use x="290.576172" xlink:href="#DejaVuSans-48"/>
       <use x="354.199219" xlink:href="#DejaVuSans-52"/>
       <use x="417.822266" xlink:href="#DejaVuSans-45"/>
       <use x="453.90625" xlink:href="#DejaVuSans-49"/>
       <use x="517.529297" xlink:href="#DejaVuSans-53"/>
      </g>
     </g>
    </g>
    <g id="xtick_4">
     <g id="line2d_4">
      <path clip-path="url(#p7b62ba181b)" d="M 431.754545 315 
L 431.754545 43.2 
" style="fill:none;stroke:#ffffff;stroke-linecap:round;"/>
     </g>
     <g id="text_4">
      <!-- 2020-04-25 -->
      <g style="fill:#262626;" transform="translate(434.789858 388.427188)rotate(-90)scale(0.11 -0.11)">
       <use xlink:href="#DejaVuSans-50"/>
       <use x="63.623047" xlink:href="#DejaVuSans-48"/>
       <use x="127.246094" xlink:href="#DejaVuSans-50"/>
       <use x="190.869141" xlink:href="#DejaVuSans-48"/>
       <use x="254.492188" xlink:href="#DejaVuSans-45"/>
       <use x="290.576172" xlink:href="#DejaVuSans-48"/>
       <use x="354.199219" xlink:href="#DejaVuSans-52"/>
       <use x="417.822266" xlink:href="#DejaVuSans-45"/>
       <use x="453.90625" xlink:href="#DejaVuSans-50"/>
       <use x="517.529297" xlink:href="#DejaVuSans-53"/>
      </g>
     </g>
    </g>
    <g id="xtick_5">
     <g id="line2d_5">
      <path clip-path="url(#p7b62ba181b)" d="M 507.845455 315 
L 507.845455 43.2 
" style="fill:none;stroke:#ffffff;stroke-linecap:round;"/>
     </g>
     <g id="text_5">
      <!-- 2020-05-05 -->
      <g style="fill:#262626;" transform="translate(510.880767 388.427188)rotate(-90)scale(0.11 -0.11)">
       <use xlink:href="#DejaVuSans-50"/>
       <use x="63.623047" xlink:href="#DejaVuSans-48"/>
       <use x="127.246094" xlink:href="#DejaVuSans-50"/>
       <use x="190.869141" xlink:href="#DejaVuSans-48"/>
       <use x="254.492188" xlink:href="#DejaVuSans-45"/>
       <use x="290.576172" xlink:href="#DejaVuSans-48"/>
       <use x="354.199219" xlink:href="#DejaVuSans-53"/>
       <use x="417.822266" xlink:href="#DejaVuSans-45"/>
       <use x="453.90625" xlink:href="#DejaVuSans-48"/>
       <use x="517.529297" xlink:href="#DejaVuSans-53"/>
      </g>
     </g>
    </g>
    <g id="xtick_6">
     <g id="line2d_6">
      <path clip-path="url(#p7b62ba181b)" d="M 583.936364 315 
L 583.936364 43.2 
" style="fill:none;stroke:#ffffff;stroke-linecap:round;"/>
     </g>
     <g id="text_6">
      <!-- 2020-05-15 -->
      <g style="fill:#262626;" transform="translate(586.971676 388.427188)rotate(-90)scale(0.11 -0.11)">
       <use xlink:href="#DejaVuSans-50"/>
       <use x="63.623047" xlink:href="#DejaVuSans-48"/>
       <use x="127.246094" xlink:href="#DejaVuSans-50"/>
       <use x="190.869141" xlink:href="#DejaVuSans-48"/>
       <use x="254.492188" xlink:href="#DejaVuSans-45"/>
       <use x="290.576172" xlink:href="#DejaVuSans-48"/>
       <use x="354.199219" xlink:href="#DejaVuSans-53"/>
       <use x="417.822266" xlink:href="#DejaVuSans-45"/>
       <use x="453.90625" xlink:href="#DejaVuSans-49"/>
       <use x="517.529297" xlink:href="#DejaVuSans-53"/>
      </g>
     </g>
    </g>
    <g id="xtick_7">
     <g id="line2d_7">
      <path clip-path="url(#p7b62ba181b)" d="M 660.027273 315 
L 660.027273 43.2 
" style="fill:none;stroke:#ffffff;stroke-linecap:round;"/>
     </g>
     <g id="text_7">
      <!-- 2020-05-25 -->
      <g style="fill:#262626;" transform="translate(663.062585 388.427188)rotate(-90)scale(0.11 -0.11)">
       <use xlink:href="#DejaVuSans-50"/>
       <use x="63.623047" xlink:href="#DejaVuSans-48"/>
       <use x="127.246094" xlink:href="#DejaVuSans-50"/>
       <use x="190.869141" xlink:href="#DejaVuSans-48"/>
       <use x="254.492188" xlink:href="#DejaVuSans-45"/>
       <use x="290.576172" xlink:href="#DejaVuSans-48"/>
       <use x="354.199219" xlink:href="#DejaVuSans-53"/>
       <use x="417.822266" xlink:href="#DejaVuSans-45"/>
       <use x="453.90625" xlink:href="#DejaVuSans-50"/>
       <use x="517.529297" xlink:href="#DejaVuSans-53"/>
      </g>
     </g>
    </g>
    <g id="xtick_8">
     <g id="line2d_8">
      <path clip-path="url(#p7b62ba181b)" d="M 736.118182 315 
L 736.118182 43.2 
" style="fill:none;stroke:#ffffff;stroke-linecap:round;"/>
     </g>
     <g id="text_8">
      <!-- 2020-06-04 -->
      <g style="fill:#262626;" transform="translate(739.153494 388.427188)rotate(-90)scale(0.11 -0.11)">
       <use xlink:href="#DejaVuSans-50"/>
       <use x="63.623047" xlink:href="#DejaVuSans-48"/>
       <use x="127.246094" xlink:href="#DejaVuSans-50"/>
       <use x="190.869141" xlink:href="#DejaVuSans-48"/>
       <use x="254.492188" xlink:href="#DejaVuSans-45"/>
       <use x="290.576172" xlink:href="#DejaVuSans-48"/>
       <use x="354.199219" xlink:href="#DejaVuSans-54"/>
       <use x="417.822266" xlink:href="#DejaVuSans-45"/>
       <use x="453.90625" xlink:href="#DejaVuSans-48"/>
       <use x="517.529297" xlink:href="#DejaVuSans-52"/>
      </g>
     </g>
    </g>
    <g id="xtick_9">
     <g id="line2d_9">
      <path clip-path="url(#p7b62ba181b)" d="M 812.209091 315 
L 812.209091 43.2 
" style="fill:none;stroke:#ffffff;stroke-linecap:round;"/>
     </g>
     <g id="text_9">
      <!-- 2020-06-14 -->
      <g style="fill:#262626;" transform="translate(815.244403 388.427188)rotate(-90)scale(0.11 -0.11)">
       <use xlink:href="#DejaVuSans-50"/>
       <use x="63.623047" xlink:href="#DejaVuSans-48"/>
       <use x="127.246094" xlink:href="#DejaVuSans-50"/>
       <use x="190.869141" xlink:href="#DejaVuSans-48"/>
       <use x="254.492188" xlink:href="#DejaVuSans-45"/>
       <use x="290.576172" xlink:href="#DejaVuSans-48"/>
       <use x="354.199219" xlink:href="#DejaVuSans-54"/>
       <use x="417.822266" xlink:href="#DejaVuSans-45"/>
       <use x="453.90625" xlink:href="#DejaVuSans-49"/>
       <use x="517.529297" xlink:href="#DejaVuSans-52"/>
      </g>
     </g>
    </g>
    <g id="xtick_10">
     <g id="line2d_10">
      <path clip-path="url(#p7b62ba181b)" d="M 888.3 315 
L 888.3 43.2 
" style="fill:none;stroke:#ffffff;stroke-linecap:round;"/>
     </g>
     <g id="text_10">
      <!-- 2020-06-24 -->
      <g style="fill:#262626;" transform="translate(891.335312 388.427188)rotate(-90)scale(0.11 -0.11)">
       <use xlink:href="#DejaVuSans-50"/>
       <use x="63.623047" xlink:href="#DejaVuSans-48"/>
       <use x="127.246094" xlink:href="#DejaVuSans-50"/>
       <use x="190.869141" xlink:href="#DejaVuSans-48"/>
       <use x="254.492188" xlink:href="#DejaVuSans-45"/>
       <use x="290.576172" xlink:href="#DejaVuSans-48"/>
       <use x="354.199219" xlink:href="#DejaVuSans-54"/>
       <use x="417.822266" xlink:href="#DejaVuSans-45"/>
       <use x="453.90625" xlink:href="#DejaVuSans-50"/>
       <use x="517.529297" xlink:href="#DejaVuSans-52"/>
      </g>
     </g>
    </g>
    <g id="xtick_11">
     <g id="line2d_11">
      <path clip-path="url(#p7b62ba181b)" d="M 964.390909 315 
L 964.390909 43.2 
" style="fill:none;stroke:#ffffff;stroke-linecap:round;"/>
     </g>
     <g id="text_11">
      <!-- 2020-07-04 -->
      <defs>
       <path d="M 8.203125 72.90625 
L 55.078125 72.90625 
L 55.078125 68.703125 
L 28.609375 0 
L 18.3125 0 
L 43.21875 64.59375 
L 8.203125 64.59375 
z
" id="DejaVuSans-55"/>
      </defs>
      <g style="fill:#262626;" transform="translate(967.426222 388.427188)rotate(-90)scale(0.11 -0.11)">
       <use xlink:href="#DejaVuSans-50"/>
       <use x="63.623047" xlink:href="#DejaVuSans-48"/>
       <use x="127.246094" xlink:href="#DejaVuSans-50"/>
       <use x="190.869141" xlink:href="#DejaVuSans-48"/>
       <use x="254.492188" xlink:href="#DejaVuSans-45"/>
       <use x="290.576172" xlink:href="#DejaVuSans-48"/>
       <use x="354.199219" xlink:href="#DejaVuSans-55"/>
       <use x="417.822266" xlink:href="#DejaVuSans-45"/>
       <use x="453.90625" xlink:href="#DejaVuSans-48"/>
       <use x="517.529297" xlink:href="#DejaVuSans-52"/>
      </g>
     </g>
    </g>
    <g id="text_12">
     <!-- Mid-March to July: First Wave -->
     <defs>
      <path d="M 9.8125 72.90625 
L 24.515625 72.90625 
L 43.109375 23.296875 
L 61.8125 72.90625 
L 76.515625 72.90625 
L 76.515625 0 
L 66.890625 0 
L 66.890625 64.015625 
L 48.09375 14.015625 
L 38.1875 14.015625 
L 19.390625 64.015625 
L 19.390625 0 
L 9.8125 0 
z
" id="DejaVuSans-77"/>
      <path d="M 9.421875 54.6875 
L 18.40625 54.6875 
L 18.40625 0 
L 9.421875 0 
z
M 9.421875 75.984375 
L 18.40625 75.984375 
L 18.40625 64.59375 
L 9.421875 64.59375 
z
" id="DejaVuSans-105"/>
      <path d="M 45.40625 46.390625 
L 45.40625 75.984375 
L 54.390625 75.984375 
L 54.390625 0 
L 45.40625 0 
L 45.40625 8.203125 
Q 42.578125 3.328125 38.25 0.953125 
Q 33.9375 -1.421875 27.875 -1.421875 
Q 17.96875 -1.421875 11.734375 6.484375 
Q 5.515625 14.40625 5.515625 27.296875 
Q 5.515625 40.1875 11.734375 48.09375 
Q 17.96875 56 27.875 56 
Q 33.9375 56 38.25 53.625 
Q 42.578125 51.265625 45.40625 46.390625 
z
M 14.796875 27.296875 
Q 14.796875 17.390625 18.875 11.75 
Q 22.953125 6.109375 30.078125 6.109375 
Q 37.203125 6.109375 41.296875 11.75 
Q 45.40625 17.390625 45.40625 27.296875 
Q 45.40625 37.203125 41.296875 42.84375 
Q 37.203125 48.484375 30.078125 48.484375 
Q 22.953125 48.484375 18.875 42.84375 
Q 14.796875 37.203125 14.796875 27.296875 
z
" id="DejaVuSans-100"/>
      <path d="M 34.28125 27.484375 
Q 23.390625 27.484375 19.1875 25 
Q 14.984375 22.515625 14.984375 16.5 
Q 14.984375 11.71875 18.140625 8.90625 
Q 21.296875 6.109375 26.703125 6.109375 
Q 34.1875 6.109375 38.703125 11.40625 
Q 43.21875 16.703125 43.21875 25.484375 
L 43.21875 27.484375 
z
M 52.203125 31.203125 
L 52.203125 0 
L 43.21875 0 
L 43.21875 8.296875 
Q 40.140625 3.328125 35.546875 0.953125 
Q 30.953125 -1.421875 24.3125 -1.421875 
Q 15.921875 -1.421875 10.953125 3.296875 
Q 6 8.015625 6 15.921875 
Q 6 25.140625 12.171875 29.828125 
Q 18.359375 34.515625 30.609375 34.515625 
L 43.21875 34.515625 
L 43.21875 35.40625 
Q 43.21875 41.609375 39.140625 45 
Q 35.0625 48.390625 27.6875 48.390625 
Q 23 48.390625 18.546875 47.265625 
Q 14.109375 46.140625 10.015625 43.890625 
L 10.015625 52.203125 
Q 14.9375 54.109375 19.578125 55.046875 
Q 24.21875 56 28.609375 56 
Q 40.484375 56 46.34375 49.84375 
Q 52.203125 43.703125 52.203125 31.203125 
z
" id="DejaVuSans-97"/>
      <path d="M 41.109375 46.296875 
Q 39.59375 47.171875 37.8125 47.578125 
Q 36.03125 48 33.890625 48 
Q 26.265625 48 22.1875 43.046875 
Q 18.109375 38.09375 18.109375 28.8125 
L 18.109375 0 
L 9.078125 0 
L 9.078125 54.6875 
L 18.109375 54.6875 
L 18.109375 46.1875 
Q 20.953125 51.171875 25.484375 53.578125 
Q 30.03125 56 36.53125 56 
Q 37.453125 56 38.578125 55.875 
Q 39.703125 55.765625 41.0625 55.515625 
z
" id="DejaVuSans-114"/>
      <path d="M 48.78125 52.59375 
L 48.78125 44.1875 
Q 44.96875 46.296875 41.140625 47.34375 
Q 37.3125 48.390625 33.40625 48.390625 
Q 24.65625 48.390625 19.8125 42.84375 
Q 14.984375 37.3125 14.984375 27.296875 
Q 14.984375 17.28125 19.8125 11.734375 
Q 24.65625 6.203125 33.40625 6.203125 
Q 37.3125 6.203125 41.140625 7.25 
Q 44.96875 8.296875 48.78125 10.40625 
L 48.78125 2.09375 
Q 45.015625 0.34375 40.984375 -0.53125 
Q 36.96875 -1.421875 32.421875 -1.421875 
Q 20.0625 -1.421875 12.78125 6.34375 
Q 5.515625 14.109375 5.515625 27.296875 
Q 5.515625 40.671875 12.859375 48.328125 
Q 20.21875 56 33.015625 56 
Q 37.15625 56 41.109375 55.140625 
Q 45.0625 54.296875 48.78125 52.59375 
z
" id="DejaVuSans-99"/>
      <path d="M 54.890625 33.015625 
L 54.890625 0 
L 45.90625 0 
L 45.90625 32.71875 
Q 45.90625 40.484375 42.875 44.328125 
Q 39.84375 48.1875 33.796875 48.1875 
Q 26.515625 48.1875 22.3125 43.546875 
Q 18.109375 38.921875 18.109375 30.90625 
L 18.109375 0 
L 9.078125 0 
L 9.078125 75.984375 
L 18.109375 75.984375 
L 18.109375 46.1875 
Q 21.34375 51.125 25.703125 53.5625 
Q 30.078125 56 35.796875 56 
Q 45.21875 56 50.046875 50.171875 
Q 54.890625 44.34375 54.890625 33.015625 
z
" id="DejaVuSans-104"/>
      <path id="DejaVuSans-32"/>
      <path d="M 18.3125 70.21875 
L 18.3125 54.6875 
L 36.8125 54.6875 
L 36.8125 47.703125 
L 18.3125 47.703125 
L 18.3125 18.015625 
Q 18.3125 11.328125 20.140625 9.421875 
Q 21.96875 7.515625 27.59375 7.515625 
L 36.8125 7.515625 
L 36.8125 0 
L 27.59375 0 
Q 17.1875 0 13.234375 3.875 
Q 9.28125 7.765625 9.28125 18.015625 
L 9.28125 47.703125 
L 2.6875 47.703125 
L 2.6875 54.6875 
L 9.28125 54.6875 
L 9.28125 70.21875 
z
" id="DejaVuSans-116"/>
      <path d="M 30.609375 48.390625 
Q 23.390625 48.390625 19.1875 42.75 
Q 14.984375 37.109375 14.984375 27.296875 
Q 14.984375 17.484375 19.15625 11.84375 
Q 23.34375 6.203125 30.609375 6.203125 
Q 37.796875 6.203125 41.984375 11.859375 
Q 46.1875 17.53125 46.1875 27.296875 
Q 46.1875 37.015625 41.984375 42.703125 
Q 37.796875 48.390625 30.609375 48.390625 
z
M 30.609375 56 
Q 42.328125 56 49.015625 48.375 
Q 55.71875 40.765625 55.71875 27.296875 
Q 55.71875 13.875 49.015625 6.21875 
Q 42.328125 -1.421875 30.609375 -1.421875 
Q 18.84375 -1.421875 12.171875 6.21875 
Q 5.515625 13.875 5.515625 27.296875 
Q 5.515625 40.765625 12.171875 48.375 
Q 18.84375 56 30.609375 56 
z
" id="DejaVuSans-111"/>
      <path d="M 9.8125 72.90625 
L 19.671875 72.90625 
L 19.671875 5.078125 
Q 19.671875 -8.109375 14.671875 -14.0625 
Q 9.671875 -20.015625 -1.421875 -20.015625 
L -5.171875 -20.015625 
L -5.171875 -11.71875 
L -2.09375 -11.71875 
Q 4.4375 -11.71875 7.125 -8.046875 
Q 9.8125 -4.390625 9.8125 5.078125 
z
" id="DejaVuSans-74"/>
      <path d="M 8.5 21.578125 
L 8.5 54.6875 
L 17.484375 54.6875 
L 17.484375 21.921875 
Q 17.484375 14.15625 20.5 10.265625 
Q 23.53125 6.390625 29.59375 6.390625 
Q 36.859375 6.390625 41.078125 11.03125 
Q 45.3125 15.671875 45.3125 23.6875 
L 45.3125 54.6875 
L 54.296875 54.6875 
L 54.296875 0 
L 45.3125 0 
L 45.3125 8.40625 
Q 42.046875 3.421875 37.71875 1 
Q 33.40625 -1.421875 27.6875 -1.421875 
Q 18.265625 -1.421875 13.375 4.4375 
Q 8.5 10.296875 8.5 21.578125 
z
M 31.109375 56 
z
" id="DejaVuSans-117"/>
      <path d="M 9.421875 75.984375 
L 18.40625 75.984375 
L 18.40625 0 
L 9.421875 0 
z
" id="DejaVuSans-108"/>
      <path d="M 32.171875 -5.078125 
Q 28.375 -14.84375 24.75 -17.8125 
Q 21.140625 -20.796875 15.09375 -20.796875 
L 7.90625 -20.796875 
L 7.90625 -13.28125 
L 13.1875 -13.28125 
Q 16.890625 -13.28125 18.9375 -11.515625 
Q 21 -9.765625 23.484375 -3.21875 
L 25.09375 0.875 
L 2.984375 54.6875 
L 12.5 54.6875 
L 29.59375 11.921875 
L 46.6875 54.6875 
L 56.203125 54.6875 
z
" id="DejaVuSans-121"/>
      <path d="M 11.71875 12.40625 
L 22.015625 12.40625 
L 22.015625 0 
L 11.71875 0 
z
M 11.71875 51.703125 
L 22.015625 51.703125 
L 22.015625 39.3125 
L 11.71875 39.3125 
z
" id="DejaVuSans-58"/>
      <path d="M 9.8125 72.90625 
L 51.703125 72.90625 
L 51.703125 64.59375 
L 19.671875 64.59375 
L 19.671875 43.109375 
L 48.578125 43.109375 
L 48.578125 34.8125 
L 19.671875 34.8125 
L 19.671875 0 
L 9.8125 0 
z
" id="DejaVuSans-70"/>
      <path d="M 44.28125 53.078125 
L 44.28125 44.578125 
Q 40.484375 46.53125 36.375 47.5 
Q 32.28125 48.484375 27.875 48.484375 
Q 21.1875 48.484375 17.84375 46.4375 
Q 14.5 44.390625 14.5 40.28125 
Q 14.5 37.15625 16.890625 35.375 
Q 19.28125 33.59375 26.515625 31.984375 
L 29.59375 31.296875 
Q 39.15625 29.25 43.1875 25.515625 
Q 47.21875 21.78125 47.21875 15.09375 
Q 47.21875 7.46875 41.1875 3.015625 
Q 35.15625 -1.421875 24.609375 -1.421875 
Q 20.21875 -1.421875 15.453125 -0.5625 
Q 10.6875 0.296875 5.421875 2 
L 5.421875 11.28125 
Q 10.40625 8.6875 15.234375 7.390625 
Q 20.0625 6.109375 24.8125 6.109375 
Q 31.15625 6.109375 34.5625 8.28125 
Q 37.984375 10.453125 37.984375 14.40625 
Q 37.984375 18.0625 35.515625 20.015625 
Q 33.0625 21.96875 24.703125 23.78125 
L 21.578125 24.515625 
Q 13.234375 26.265625 9.515625 29.90625 
Q 5.8125 33.546875 5.8125 39.890625 
Q 5.8125 47.609375 11.28125 51.796875 
Q 16.75 56 26.8125 56 
Q 31.78125 56 36.171875 55.265625 
Q 40.578125 54.546875 44.28125 53.078125 
z
" id="DejaVuSans-115"/>
      <path d="M 3.328125 72.90625 
L 13.28125 72.90625 
L 28.609375 11.28125 
L 43.890625 72.90625 
L 54.984375 72.90625 
L 70.3125 11.28125 
L 85.59375 72.90625 
L 95.609375 72.90625 
L 77.296875 0 
L 64.890625 0 
L 49.515625 63.28125 
L 33.984375 0 
L 21.578125 0 
z
" id="DejaVuSans-87"/>
      <path d="M 2.984375 54.6875 
L 12.5 54.6875 
L 29.59375 8.796875 
L 46.6875 54.6875 
L 56.203125 54.6875 
L 35.6875 0 
L 23.484375 0 
z
" id="DejaVuSans-118"/>
      <path d="M 56.203125 29.59375 
L 56.203125 25.203125 
L 14.890625 25.203125 
Q 15.484375 15.921875 20.484375 11.0625 
Q 25.484375 6.203125 34.421875 6.203125 
Q 39.59375 6.203125 44.453125 7.46875 
Q 49.3125 8.734375 54.109375 11.28125 
L 54.109375 2.78125 
Q 49.265625 0.734375 44.1875 -0.34375 
Q 39.109375 -1.421875 33.890625 -1.421875 
Q 20.796875 -1.421875 13.15625 6.1875 
Q 5.515625 13.8125 5.515625 26.8125 
Q 5.515625 40.234375 12.765625 48.109375 
Q 20.015625 56 32.328125 56 
Q 43.359375 56 49.78125 48.890625 
Q 56.203125 41.796875 56.203125 29.59375 
z
M 47.21875 32.234375 
Q 47.125 39.59375 43.09375 43.984375 
Q 39.0625 48.390625 32.421875 48.390625 
Q 24.90625 48.390625 20.390625 44.140625 
Q 15.875 39.890625 15.1875 32.171875 
z
" id="DejaVuSans-101"/>
     </defs>
     <g style="fill:#262626;" transform="translate(465.90375 401.545313)scale(0.12 -0.12)">
      <use xlink:href="#DejaVuSans-77"/>
      <use x="86.279297" xlink:href="#DejaVuSans-105"/>
      <use x="114.0625" xlink:href="#DejaVuSans-100"/>
      <use x="177.539062" xlink:href="#DejaVuSans-45"/>
      <use x="213.623047" xlink:href="#DejaVuSans-77"/>
      <use x="299.902344" xlink:href="#DejaVuSans-97"/>
      <use x="361.181641" xlink:href="#DejaVuSans-114"/>
      <use x="402.263672" xlink:href="#DejaVuSans-99"/>
      <use x="457.244141" xlink:href="#DejaVuSans-104"/>
      <use x="520.623047" xlink:href="#DejaVuSans-32"/>
      <use x="552.410156" xlink:href="#DejaVuSans-116"/>
      <use x="591.619141" xlink:href="#DejaVuSans-111"/>
      <use x="652.800781" xlink:href="#DejaVuSans-32"/>
      <use x="684.587891" xlink:href="#DejaVuSans-74"/>
      <use x="714.080078" xlink:href="#DejaVuSans-117"/>
      <use x="777.458984" xlink:href="#DejaVuSans-108"/>
      <use x="805.242188" xlink:href="#DejaVuSans-121"/>
      <use x="864.3125" xlink:href="#DejaVuSans-58"/>
      <use x="898.003906" xlink:href="#DejaVuSans-32"/>
      <use x="929.791016" xlink:href="#DejaVuSans-70"/>
      <use x="987.201172" xlink:href="#DejaVuSans-105"/>
      <use x="1014.984375" xlink:href="#DejaVuSans-114"/>
      <use x="1056.097656" xlink:href="#DejaVuSans-115"/>
      <use x="1108.197266" xlink:href="#DejaVuSans-116"/>
      <use x="1147.40625" xlink:href="#DejaVuSans-32"/>
      <use x="1179.193359" xlink:href="#DejaVuSans-87"/>
      <use x="1277.976562" xlink:href="#DejaVuSans-97"/>
      <use x="1339.255859" xlink:href="#DejaVuSans-118"/>
      <use x="1398.435547" xlink:href="#DejaVuSans-101"/>
     </g>
    </g>
   </g>
   <g id="matplotlib.axis_2">
    <g id="ytick_1">
     <g id="line2d_12">
      <path clip-path="url(#p7b62ba181b)" d="M 135 302.645455 
L 972 302.645455 
" style="fill:none;stroke:#ffffff;stroke-linecap:round;"/>
     </g>
     <g id="text_13">
      <!-- 0 -->
      <g style="fill:#262626;" transform="translate(118.50125 306.824595)scale(0.11 -0.11)">
       <use xlink:href="#DejaVuSans-48"/>
      </g>
     </g>
    </g>
    <g id="ytick_2">
     <g id="line2d_13">
      <path clip-path="url(#p7b62ba181b)" d="M 135 257.677954 
L 972 257.677954 
" style="fill:none;stroke:#ffffff;stroke-linecap:round;"/>
     </g>
     <g id="text_14">
      <!-- 100 -->
      <g style="fill:#262626;" transform="translate(104.50375 261.857095)scale(0.11 -0.11)">
       <use xlink:href="#DejaVuSans-49"/>
       <use x="63.623047" xlink:href="#DejaVuSans-48"/>
       <use x="127.246094" xlink:href="#DejaVuSans-48"/>
      </g>
     </g>
    </g>
    <g id="ytick_3">
     <g id="line2d_14">
      <path clip-path="url(#p7b62ba181b)" d="M 135 212.710454 
L 972 212.710454 
" style="fill:none;stroke:#ffffff;stroke-linecap:round;"/>
     </g>
     <g id="text_15">
      <!-- 200 -->
      <g style="fill:#262626;" transform="translate(104.50375 216.889594)scale(0.11 -0.11)">
       <use xlink:href="#DejaVuSans-50"/>
       <use x="63.623047" xlink:href="#DejaVuSans-48"/>
       <use x="127.246094" xlink:href="#DejaVuSans-48"/>
      </g>
     </g>
    </g>
    <g id="ytick_4">
     <g id="line2d_15">
      <path clip-path="url(#p7b62ba181b)" d="M 135 167.742953 
L 972 167.742953 
" style="fill:none;stroke:#ffffff;stroke-linecap:round;"/>
     </g>
     <g id="text_16">
      <!-- 300 -->
      <g style="fill:#262626;" transform="translate(104.50375 171.922094)scale(0.11 -0.11)">
       <use xlink:href="#DejaVuSans-51"/>
       <use x="63.623047" xlink:href="#DejaVuSans-48"/>
       <use x="127.246094" xlink:href="#DejaVuSans-48"/>
      </g>
     </g>
    </g>
    <g id="ytick_5">
     <g id="line2d_16">
      <path clip-path="url(#p7b62ba181b)" d="M 135 122.775452 
L 972 122.775452 
" style="fill:none;stroke:#ffffff;stroke-linecap:round;"/>
     </g>
     <g id="text_17">
      <!-- 400 -->
      <g style="fill:#262626;" transform="translate(104.50375 126.954593)scale(0.11 -0.11)">
       <use xlink:href="#DejaVuSans-52"/>
       <use x="63.623047" xlink:href="#DejaVuSans-48"/>
       <use x="127.246094" xlink:href="#DejaVuSans-48"/>
      </g>
     </g>
    </g>
    <g id="ytick_6">
     <g id="line2d_17">
      <path clip-path="url(#p7b62ba181b)" d="M 135 77.807952 
L 972 77.807952 
" style="fill:none;stroke:#ffffff;stroke-linecap:round;"/>
     </g>
     <g id="text_18">
      <!-- 500 -->
      <g style="fill:#262626;" transform="translate(104.50375 81.987093)scale(0.11 -0.11)">
       <use xlink:href="#DejaVuSans-53"/>
       <use x="63.623047" xlink:href="#DejaVuSans-48"/>
       <use x="127.246094" xlink:href="#DejaVuSans-48"/>
      </g>
     </g>
    </g>
   </g>
   <g id="line2d_18">
    <defs>
     <path d="M 0 1.5 
C 0.397805 1.5 0.77937 1.341951 1.06066 1.06066 
C 1.341951 0.77937 1.5 0.397805 1.5 0 
C 1.5 -0.397805 1.341951 -0.77937 1.06066 -1.06066 
C 0.77937 -1.341951 0.397805 -1.5 0 -1.5 
C -0.397805 -1.5 -0.77937 -1.341951 -1.06066 -1.06066 
C -1.341951 -0.77937 -1.5 -0.397805 -1.5 0 
C -1.5 0.397805 -1.341951 0.77937 -1.06066 1.06066 
C -0.77937 1.341951 -0.397805 1.5 0 1.5 
z
" id="m84b342cc6f" style="stroke:#4c72b0;stroke-opacity:0.7;"/>
    </defs>
    <g clip-path="url(#p7b62ba181b)">
     <use style="fill:#4c72b0;fill-opacity:0.7;stroke:#4c72b0;stroke-opacity:0.7;" x="173.045455" xlink:href="#m84b342cc6f" y="273.866254"/>
     <use style="fill:#4c72b0;fill-opacity:0.7;stroke:#4c72b0;stroke-opacity:0.7;" x="180.654545" xlink:href="#m84b342cc6f" y="269.369504"/>
     <use style="fill:#4c72b0;fill-opacity:0.7;stroke:#4c72b0;stroke-opacity:0.7;" x="188.263636" xlink:href="#m84b342cc6f" y="269.819179"/>
     <use style="fill:#4c72b0;fill-opacity:0.7;stroke:#4c72b0;stroke-opacity:0.7;" x="195.872727" xlink:href="#m84b342cc6f" y="273.416579"/>
     <use style="fill:#4c72b0;fill-opacity:0.7;stroke:#4c72b0;stroke-opacity:0.7;" x="203.481818" xlink:href="#m84b342cc6f" y="276.564304"/>
     <use style="fill:#4c72b0;fill-opacity:0.7;stroke:#4c72b0;stroke-opacity:0.7;" x="211.090909" xlink:href="#m84b342cc6f" y="277.013979"/>
     <use style="fill:#4c72b0;fill-opacity:0.7;stroke:#4c72b0;stroke-opacity:0.7;" x="218.7" xlink:href="#m84b342cc6f" y="285.557804"/>
     <use style="fill:#4c72b0;fill-opacity:0.7;stroke:#4c72b0;stroke-opacity:0.7;" x="226.309091" xlink:href="#m84b342cc6f" y="290.054554"/>
     <use style="fill:#4c72b0;fill-opacity:0.7;stroke:#4c72b0;stroke-opacity:0.7;" x="233.918182" xlink:href="#m84b342cc6f" y="276.564304"/>
     <use style="fill:#4c72b0;fill-opacity:0.7;stroke:#4c72b0;stroke-opacity:0.7;" x="241.527273" xlink:href="#m84b342cc6f" y="276.564304"/>
     <use style="fill:#4c72b0;fill-opacity:0.7;stroke:#4c72b0;stroke-opacity:0.7;" x="249.136364" xlink:href="#m84b342cc6f" y="278.812679"/>
     <use style="fill:#4c72b0;fill-opacity:0.7;stroke:#4c72b0;stroke-opacity:0.7;" x="256.745455" xlink:href="#m84b342cc6f" y="278.812679"/>
     <use style="fill:#4c72b0;fill-opacity:0.7;stroke:#4c72b0;stroke-opacity:0.7;" x="264.354545" xlink:href="#m84b342cc6f" y="277.463654"/>
     <use style="fill:#4c72b0;fill-opacity:0.7;stroke:#4c72b0;stroke-opacity:0.7;" x="271.963636" xlink:href="#m84b342cc6f" y="290.054554"/>
     <use style="fill:#4c72b0;fill-opacity:0.7;stroke:#4c72b0;stroke-opacity:0.7;" x="279.572727" xlink:href="#m84b342cc6f" y="293.651954"/>
     <use style="fill:#4c72b0;fill-opacity:0.7;stroke:#4c72b0;stroke-opacity:0.7;" x="287.181818" xlink:href="#m84b342cc6f" y="274.765604"/>
     <use style="fill:#4c72b0;fill-opacity:0.7;stroke:#4c72b0;stroke-opacity:0.7;" x="294.790909" xlink:href="#m84b342cc6f" y="279.262354"/>
     <use style="fill:#4c72b0;fill-opacity:0.7;stroke:#4c72b0;stroke-opacity:0.7;" x="302.4" xlink:href="#m84b342cc6f" y="277.913329"/>
     <use style="fill:#4c72b0;fill-opacity:0.7;stroke:#4c72b0;stroke-opacity:0.7;" x="310.009091" xlink:href="#m84b342cc6f" y="277.913329"/>
     <use style="fill:#4c72b0;fill-opacity:0.7;stroke:#4c72b0;stroke-opacity:0.7;" x="317.618182" xlink:href="#m84b342cc6f" y="298.148704"/>
     <use style="fill:#4c72b0;fill-opacity:0.7;stroke:#4c72b0;stroke-opacity:0.7;" x="325.227273" xlink:href="#m84b342cc6f" y="293.202279"/>
     <use style="fill:#4c72b0;fill-opacity:0.7;stroke:#4c72b0;stroke-opacity:0.7;" x="332.836364" xlink:href="#m84b342cc6f" y="295.450654"/>
     <use style="fill:#4c72b0;fill-opacity:0.7;stroke:#4c72b0;stroke-opacity:0.7;" x="340.445455" xlink:href="#m84b342cc6f" y="280.611379"/>
     <use style="fill:#4c72b0;fill-opacity:0.7;stroke:#4c72b0;stroke-opacity:0.7;" x="348.054545" xlink:href="#m84b342cc6f" y="280.161704"/>
     <use style="fill:#4c72b0;fill-opacity:0.7;stroke:#4c72b0;stroke-opacity:0.7;" x="355.663636" xlink:href="#m84b342cc6f" y="277.013979"/>
     <use style="fill:#4c72b0;fill-opacity:0.7;stroke:#4c72b0;stroke-opacity:0.7;" x="363.272727" xlink:href="#m84b342cc6f" y="277.913329"/>
     <use style="fill:#4c72b0;fill-opacity:0.7;stroke:#4c72b0;stroke-opacity:0.7;" x="370.881818" xlink:href="#m84b342cc6f" y="281.960404"/>
     <use style="fill:#4c72b0;fill-opacity:0.7;stroke:#4c72b0;stroke-opacity:0.7;" x="378.490909" xlink:href="#m84b342cc6f" y="290.504229"/>
     <use style="fill:#4c72b0;fill-opacity:0.7;stroke:#4c72b0;stroke-opacity:0.7;" x="386.1" xlink:href="#m84b342cc6f" y="293.202279"/>
     <use style="fill:#4c72b0;fill-opacity:0.7;stroke:#4c72b0;stroke-opacity:0.7;" x="393.709091" xlink:href="#m84b342cc6f" y="276.114629"/>
     <use style="fill:#4c72b0;fill-opacity:0.7;stroke:#4c72b0;stroke-opacity:0.7;" x="401.318182" xlink:href="#m84b342cc6f" y="279.712029"/>
     <use style="fill:#4c72b0;fill-opacity:0.7;stroke:#4c72b0;stroke-opacity:0.7;" x="408.927273" xlink:href="#m84b342cc6f" y="278.812679"/>
     <use style="fill:#4c72b0;fill-opacity:0.7;stroke:#4c72b0;stroke-opacity:0.7;" x="416.536364" xlink:href="#m84b342cc6f" y="279.712029"/>
     <use style="fill:#4c72b0;fill-opacity:0.7;stroke:#4c72b0;stroke-opacity:0.7;" x="424.145455" xlink:href="#m84b342cc6f" y="279.262354"/>
     <use style="fill:#4c72b0;fill-opacity:0.7;stroke:#4c72b0;stroke-opacity:0.7;" x="431.754545" xlink:href="#m84b342cc6f" y="291.403579"/>
     <use style="fill:#4c72b0;fill-opacity:0.7;stroke:#4c72b0;stroke-opacity:0.7;" x="439.363636" xlink:href="#m84b342cc6f" y="291.853254"/>
     <use style="fill:#4c72b0;fill-opacity:0.7;stroke:#4c72b0;stroke-opacity:0.7;" x="446.972727" xlink:href="#m84b342cc6f" y="274.765604"/>
     <use style="fill:#4c72b0;fill-opacity:0.7;stroke:#4c72b0;stroke-opacity:0.7;" x="454.581818" xlink:href="#m84b342cc6f" y="276.114629"/>
     <use style="fill:#4c72b0;fill-opacity:0.7;stroke:#4c72b0;stroke-opacity:0.7;" x="462.190909" xlink:href="#m84b342cc6f" y="279.712029"/>
     <use style="fill:#4c72b0;fill-opacity:0.7;stroke:#4c72b0;stroke-opacity:0.7;" x="469.8" xlink:href="#m84b342cc6f" y="278.812679"/>
     <use style="fill:#4c72b0;fill-opacity:0.7;stroke:#4c72b0;stroke-opacity:0.7;" x="477.409091" xlink:href="#m84b342cc6f" y="278.363004"/>
     <use style="fill:#4c72b0;fill-opacity:0.7;stroke:#4c72b0;stroke-opacity:0.7;" x="485.018182" xlink:href="#m84b342cc6f" y="290.953904"/>
     <use style="fill:#4c72b0;fill-opacity:0.7;stroke:#4c72b0;stroke-opacity:0.7;" x="492.627273" xlink:href="#m84b342cc6f" y="291.853254"/>
     <use style="fill:#4c72b0;fill-opacity:0.7;stroke:#4c72b0;stroke-opacity:0.7;" x="500.236364" xlink:href="#m84b342cc6f" y="277.463654"/>
     <use style="fill:#4c72b0;fill-opacity:0.7;stroke:#4c72b0;stroke-opacity:0.7;" x="507.845455" xlink:href="#m84b342cc6f" y="280.161704"/>
     <use style="fill:#4c72b0;fill-opacity:0.7;stroke:#4c72b0;stroke-opacity:0.7;" x="515.454545" xlink:href="#m84b342cc6f" y="278.363004"/>
     <use style="fill:#4c72b0;fill-opacity:0.7;stroke:#4c72b0;stroke-opacity:0.7;" x="523.063636" xlink:href="#m84b342cc6f" y="280.611379"/>
     <use style="fill:#4c72b0;fill-opacity:0.7;stroke:#4c72b0;stroke-opacity:0.7;" x="530.672727" xlink:href="#m84b342cc6f" y="277.013979"/>
     <use style="fill:#4c72b0;fill-opacity:0.7;stroke:#4c72b0;stroke-opacity:0.7;" x="538.281818" xlink:href="#m84b342cc6f" y="290.953904"/>
     <use style="fill:#4c72b0;fill-opacity:0.7;stroke:#4c72b0;stroke-opacity:0.7;" x="545.890909" xlink:href="#m84b342cc6f" y="291.853254"/>
     <use style="fill:#4c72b0;fill-opacity:0.7;stroke:#4c72b0;stroke-opacity:0.7;" x="553.5" xlink:href="#m84b342cc6f" y="278.363004"/>
     <use style="fill:#4c72b0;fill-opacity:0.7;stroke:#4c72b0;stroke-opacity:0.7;" x="561.109091" xlink:href="#m84b342cc6f" y="276.564304"/>
     <use style="fill:#4c72b0;fill-opacity:0.7;stroke:#4c72b0;stroke-opacity:0.7;" x="568.718182" xlink:href="#m84b342cc6f" y="279.712029"/>
     <use style="fill:#4c72b0;fill-opacity:0.7;stroke:#4c72b0;stroke-opacity:0.7;" x="576.327273" xlink:href="#m84b342cc6f" y="277.013979"/>
     <use style="fill:#4c72b0;fill-opacity:0.7;stroke:#4c72b0;stroke-opacity:0.7;" x="583.936364" xlink:href="#m84b342cc6f" y="279.262354"/>
     <use style="fill:#4c72b0;fill-opacity:0.7;stroke:#4c72b0;stroke-opacity:0.7;" x="591.545455" xlink:href="#m84b342cc6f" y="292.302929"/>
     <use style="fill:#4c72b0;fill-opacity:0.7;stroke:#4c72b0;stroke-opacity:0.7;" x="599.154545" xlink:href="#m84b342cc6f" y="293.202279"/>
     <use style="fill:#4c72b0;fill-opacity:0.7;stroke:#4c72b0;stroke-opacity:0.7;" x="606.763636" xlink:href="#m84b342cc6f" y="298.148704"/>
     <use style="fill:#4c72b0;fill-opacity:0.7;stroke:#4c72b0;stroke-opacity:0.7;" x="614.372727" xlink:href="#m84b342cc6f" y="278.363004"/>
     <use style="fill:#4c72b0;fill-opacity:0.7;stroke:#4c72b0;stroke-opacity:0.7;" x="621.981818" xlink:href="#m84b342cc6f" y="274.315929"/>
     <use style="fill:#4c72b0;fill-opacity:0.7;stroke:#4c72b0;stroke-opacity:0.7;" x="629.590909" xlink:href="#m84b342cc6f" y="273.866254"/>
     <use style="fill:#4c72b0;fill-opacity:0.7;stroke:#4c72b0;stroke-opacity:0.7;" x="637.2" xlink:href="#m84b342cc6f" y="272.966904"/>
     <use style="fill:#4c72b0;fill-opacity:0.7;stroke:#4c72b0;stroke-opacity:0.7;" x="644.809091" xlink:href="#m84b342cc6f" y="290.953904"/>
     <use style="fill:#4c72b0;fill-opacity:0.7;stroke:#4c72b0;stroke-opacity:0.7;" x="652.418182" xlink:href="#m84b342cc6f" y="292.302929"/>
     <use style="fill:#4c72b0;fill-opacity:0.7;stroke:#4c72b0;stroke-opacity:0.7;" x="660.027273" xlink:href="#m84b342cc6f" y="272.067554"/>
     <use style="fill:#4c72b0;fill-opacity:0.7;stroke:#4c72b0;stroke-opacity:0.7;" x="667.636364" xlink:href="#m84b342cc6f" y="273.416579"/>
     <use style="fill:#4c72b0;fill-opacity:0.7;stroke:#4c72b0;stroke-opacity:0.7;" x="675.245455" xlink:href="#m84b342cc6f" y="275.215279"/>
     <use style="fill:#4c72b0;fill-opacity:0.7;stroke:#4c72b0;stroke-opacity:0.7;" x="682.854545" xlink:href="#m84b342cc6f" y="273.866254"/>
     <use style="fill:#4c72b0;fill-opacity:0.7;stroke:#4c72b0;stroke-opacity:0.7;" x="690.463636" xlink:href="#m84b342cc6f" y="273.416579"/>
     <use style="fill:#4c72b0;fill-opacity:0.7;stroke:#4c72b0;stroke-opacity:0.7;" x="698.072727" xlink:href="#m84b342cc6f" y="284.208779"/>
     <use style="fill:#4c72b0;fill-opacity:0.7;stroke:#4c72b0;stroke-opacity:0.7;" x="705.681818" xlink:href="#m84b342cc6f" y="289.604879"/>
     <use style="fill:#4c72b0;fill-opacity:0.7;stroke:#4c72b0;stroke-opacity:0.7;" x="713.290909" xlink:href="#m84b342cc6f" y="268.919829"/>
     <use style="fill:#4c72b0;fill-opacity:0.7;stroke:#4c72b0;stroke-opacity:0.7;" x="720.9" xlink:href="#m84b342cc6f" y="273.866254"/>
     <use style="fill:#4c72b0;fill-opacity:0.7;stroke:#4c72b0;stroke-opacity:0.7;" x="728.509091" xlink:href="#m84b342cc6f" y="272.966904"/>
     <use style="fill:#4c72b0;fill-opacity:0.7;stroke:#4c72b0;stroke-opacity:0.7;" x="736.118182" xlink:href="#m84b342cc6f" y="271.617879"/>
     <use style="fill:#4c72b0;fill-opacity:0.7;stroke:#4c72b0;stroke-opacity:0.7;" x="743.727273" xlink:href="#m84b342cc6f" y="274.315929"/>
     <use style="fill:#4c72b0;fill-opacity:0.7;stroke:#4c72b0;stroke-opacity:0.7;" x="751.336364" xlink:href="#m84b342cc6f" y="284.208779"/>
     <use style="fill:#4c72b0;fill-opacity:0.7;stroke:#4c72b0;stroke-opacity:0.7;" x="758.945455" xlink:href="#m84b342cc6f" y="290.054554"/>
     <use style="fill:#4c72b0;fill-opacity:0.7;stroke:#4c72b0;stroke-opacity:0.7;" x="766.554545" xlink:href="#m84b342cc6f" y="271.617879"/>
     <use style="fill:#4c72b0;fill-opacity:0.7;stroke:#4c72b0;stroke-opacity:0.7;" x="774.163636" xlink:href="#m84b342cc6f" y="273.416579"/>
     <use style="fill:#4c72b0;fill-opacity:0.7;stroke:#4c72b0;stroke-opacity:0.7;" x="781.772727" xlink:href="#m84b342cc6f" y="272.966904"/>
     <use style="fill:#4c72b0;fill-opacity:0.7;stroke:#4c72b0;stroke-opacity:0.7;" x="789.381818" xlink:href="#m84b342cc6f" y="271.168204"/>
     <use style="fill:#4c72b0;fill-opacity:0.7;stroke:#4c72b0;stroke-opacity:0.7;" x="796.990909" xlink:href="#m84b342cc6f" y="271.617879"/>
     <use style="fill:#4c72b0;fill-opacity:0.7;stroke:#4c72b0;stroke-opacity:0.7;" x="804.6" xlink:href="#m84b342cc6f" y="282.859754"/>
     <use style="fill:#4c72b0;fill-opacity:0.7;stroke:#4c72b0;stroke-opacity:0.7;" x="812.209091" xlink:href="#m84b342cc6f" y="288.705529"/>
     <use style="fill:#4c72b0;fill-opacity:0.7;stroke:#4c72b0;stroke-opacity:0.7;" x="819.818182" xlink:href="#m84b342cc6f" y="267.121129"/>
     <use style="fill:#4c72b0;fill-opacity:0.7;stroke:#4c72b0;stroke-opacity:0.7;" x="827.427273" xlink:href="#m84b342cc6f" y="269.369504"/>
     <use style="fill:#4c72b0;fill-opacity:0.7;stroke:#4c72b0;stroke-opacity:0.7;" x="835.036364" xlink:href="#m84b342cc6f" y="271.168204"/>
     <use style="fill:#4c72b0;fill-opacity:0.7;stroke:#4c72b0;stroke-opacity:0.7;" x="842.645455" xlink:href="#m84b342cc6f" y="271.168204"/>
     <use style="fill:#4c72b0;fill-opacity:0.7;stroke:#4c72b0;stroke-opacity:0.7;" x="850.254545" xlink:href="#m84b342cc6f" y="273.416579"/>
     <use style="fill:#4c72b0;fill-opacity:0.7;stroke:#4c72b0;stroke-opacity:0.7;" x="857.863636" xlink:href="#m84b342cc6f" y="286.007479"/>
     <use style="fill:#4c72b0;fill-opacity:0.7;stroke:#4c72b0;stroke-opacity:0.7;" x="865.472727" xlink:href="#m84b342cc6f" y="289.604879"/>
     <use style="fill:#4c72b0;fill-opacity:0.7;stroke:#4c72b0;stroke-opacity:0.7;" x="873.081818" xlink:href="#m84b342cc6f" y="268.020479"/>
     <use style="fill:#4c72b0;fill-opacity:0.7;stroke:#4c72b0;stroke-opacity:0.7;" x="880.690909" xlink:href="#m84b342cc6f" y="273.416579"/>
     <use style="fill:#4c72b0;fill-opacity:0.7;stroke:#4c72b0;stroke-opacity:0.7;" x="888.3" xlink:href="#m84b342cc6f" y="271.617879"/>
     <use style="fill:#4c72b0;fill-opacity:0.7;stroke:#4c72b0;stroke-opacity:0.7;" x="895.909091" xlink:href="#m84b342cc6f" y="271.617879"/>
     <use style="fill:#4c72b0;fill-opacity:0.7;stroke:#4c72b0;stroke-opacity:0.7;" x="903.518182" xlink:href="#m84b342cc6f" y="274.315929"/>
     <use style="fill:#4c72b0;fill-opacity:0.7;stroke:#4c72b0;stroke-opacity:0.7;" x="911.127273" xlink:href="#m84b342cc6f" y="283.309429"/>
     <use style="fill:#4c72b0;fill-opacity:0.7;stroke:#4c72b0;stroke-opacity:0.7;" x="918.736364" xlink:href="#m84b342cc6f" y="284.208779"/>
     <use style="fill:#4c72b0;fill-opacity:0.7;stroke:#4c72b0;stroke-opacity:0.7;" x="926.345455" xlink:href="#m84b342cc6f" y="271.617879"/>
     <use style="fill:#4c72b0;fill-opacity:0.7;stroke:#4c72b0;stroke-opacity:0.7;" x="933.954545" xlink:href="#m84b342cc6f" y="271.617879"/>
    </g>
   </g>
   <g id="line2d_19">
    <path clip-path="url(#p7b62ba181b)" d="M 173.045455 271.089488 
L 180.654545 271.777199 
L 188.263636 272.463104 
L 195.872727 273.774729 
L 203.481818 276.55235 
L 211.090909 279.59158 
L 218.7 280.880061 
L 226.309091 281.065927 
L 233.918182 280.787974 
L 241.527273 279.516511 
L 249.136364 278.625781 
L 256.745455 280.23194 
L 264.354545 282.463453 
L 271.963636 282.847436 
L 279.572727 282.672475 
L 287.181818 282.082698 
L 294.790909 280.629204 
L 302.4 281.409689 
L 310.009091 284.742895 
L 317.618182 287.652069 
L 325.227273 288.973888 
L 332.836364 288.444478 
L 340.445455 285.404603 
L 348.054545 282.021802 
L 355.663636 280.313678 
L 363.272727 281.346388 
L 370.881818 283.339165 
L 378.490909 284.036069 
L 386.1 283.908751 
L 393.709091 283.029506 
L 401.318182 281.041988 
L 408.927273 279.827094 
L 416.536364 281.321708 
L 424.145455 283.209999 
L 431.754545 283.256262 
L 439.363636 282.647806 
L 446.972727 281.828857 
L 454.581818 279.851437 
L 462.190909 278.721334 
L 469.8 280.542179 
L 477.409091 282.886331 
L 485.018182 283.545368 
L 492.627273 283.569083 
L 500.236364 283.040101 
L 507.845455 281.19551 
L 515.454545 279.864117 
L 523.063636 281.110902 
L 530.672727 282.995649 
L 538.281818 283.417963 
L 545.890909 283.131217 
L 553.5 282.423306 
L 561.109091 280.379101 
L 568.718182 279.169579 
L 576.327273 280.91036 
L 583.936364 284.241405 
L 591.545455 287.118683 
L 599.154545 287.612735 
L 606.763636 286.059728 
L 614.372727 282.725431 
L 621.981818 278.870067 
L 629.590909 277.707118 
L 637.2 279.196134 
L 644.809091 279.349536 
L 652.418182 279.260554 
L 660.027273 278.885529 
L 667.636364 276.431899 
L 675.245455 274.644676 
L 682.854545 275.903144 
L 690.463636 277.804535 
L 698.072727 277.845734 
L 705.681818 277.448819 
L 713.290909 276.753169 
L 720.9 274.711515 
L 728.509091 273.431908 
L 736.118182 275.090651 
L 743.727273 277.350671 
L 751.336364 277.94272 
L 758.945455 277.897305 
L 766.554545 277.176004 
L 774.163636 274.928813 
L 781.772727 273.149318 
L 789.381818 274.150304 
L 796.990909 275.839009 
L 804.6 275.633173 
L 812.209091 275.026948 
L 819.818182 274.313885 
L 827.427273 272.36068 
L 835.036364 271.441869 
L 842.645455 273.859423 
L 850.254545 276.755088 
L 857.863636 277.337891 
L 865.472727 277.218878 
L 873.081818 276.518982 
L 880.690909 274.237586 
L 888.3 272.873547 
L 895.909091 274.430212 
L 903.518182 276.412483 
L 911.127273 277.111161 
L 918.736364 277.224647 
L 926.345455 276.776299 
L 933.954545 275.688891 
" style="fill:none;stroke:#4c72b0;stroke-linecap:round;stroke-width:1.5;"/>
   </g>
   <g id="line2d_20">
    <path clip-path="url(#p7b62ba181b)" d="M 173.045455 302.645455 
L 180.654545 302.645455 
L 188.263636 302.645455 
L 195.872727 302.645455 
L 203.481818 302.645455 
L 211.090909 302.645455 
L 218.7 302.645455 
L 226.309091 302.645455 
L 233.918182 302.645455 
L 241.527273 302.645455 
L 249.136364 302.645455 
L 256.745455 302.645455 
L 264.354545 302.645455 
L 271.963636 302.645455 
L 279.572727 302.645455 
L 287.181818 302.645455 
L 294.790909 302.645455 
L 302.4 295.590919 
L 310.009091 257.248274 
L 317.618182 221.443793 
L 325.227273 191.642948 
L 332.836364 156.795248 
L 340.445455 115.219165 
L 348.054545 92.363389 
L 355.663636 79.217408 
L 363.272727 70.004314 
L 370.881818 62.901803 
L 378.490909 57.045576 
L 386.1 55.554545 
L 393.709091 61.406198 
L 401.318182 67.963067 
L 408.927273 73.271815 
L 416.536364 76.881815 
L 424.145455 80.905965 
L 431.754545 85.092321 
L 439.363636 85.303116 
L 446.972727 86.470513 
L 454.581818 88.029789 
L 462.190909 89.986912 
L 469.8 92.855652 
L 477.409091 94.468973 
L 485.018182 97.237772 
L 492.627273 99.401805 
L 500.236364 99.728746 
L 507.845455 101.155526 
L 515.454545 104.935905 
L 523.063636 113.650128 
L 530.672727 123.130196 
L 538.281818 130.447911 
L 545.890909 137.852036 
L 553.5 144.250845 
L 561.109091 145.672023 
L 568.718182 142.82609 
L 576.327273 140.456394 
L 583.936364 139.335453 
L 591.545455 135.454865 
L 599.154545 129.736435 
L 606.763636 125.186275 
L 614.372727 120.304992 
L 621.981818 114.07722 
L 629.590909 109.862876 
L 637.2 111.598985 
L 644.809091 117.832689 
L 652.418182 124.612616 
L 660.027273 130.845886 
L 667.636364 137.253957 
L 675.245455 141.471882 
L 682.854545 142.506238 
L 690.463636 140.337055 
L 698.072727 135.914181 
L 705.681818 134.138191 
L 713.290909 134.661549 
L 720.9 135.059439 
L 728.509091 137.425154 
L 736.118182 144.355251 
L 743.727273 151.946018 
L 751.336364 158.546482 
L 758.945455 164.986593 
L 766.554545 172.394926 
L 774.163636 180.148905 
L 781.772727 186.179082 
L 789.381818 193.129475 
L 796.990909 200.48422 
L 804.6 206.604625 
L 812.209091 210.54805 
L 819.818182 212.956963 
L 827.427273 213.957139 
L 835.036364 213.161519 
L 842.645455 211.625899 
L 850.254545 210.440459 
L 857.863636 209.155223 
L 865.472727 208.335891 
L 873.081818 209.072293 
L 880.690909 212.101966 
L 888.3 215.629988 
L 895.909091 217.157238 
L 903.518182 217.777028 
L 911.127273 220.970093 
L 918.736364 224.94762 
L 926.345455 226.823965 
L 933.954545 227.783505 
" style="fill:none;stroke:#c44e52;stroke-linecap:round;stroke-opacity:0.5;stroke-width:1.5;"/>
   </g>
   <g id="patch_3">
    <path d="M 135 315 
L 135 43.2 
" style="fill:none;stroke:#ffffff;stroke-linecap:square;stroke-linejoin:miter;stroke-width:1.25;"/>
   </g>
   <g id="patch_4">
    <path d="M 972 315 
L 972 43.2 
" style="fill:none;stroke:#ffffff;stroke-linecap:square;stroke-linejoin:miter;stroke-width:1.25;"/>
   </g>
   <g id="patch_5">
    <path d="M 135 315 
L 972 315 
" style="fill:none;stroke:#ffffff;stroke-linecap:square;stroke-linejoin:miter;stroke-width:1.25;"/>
   </g>
   <g id="patch_6">
    <path d="M 135 43.2 
L 972 43.2 
" style="fill:none;stroke:#ffffff;stroke-linecap:square;stroke-linejoin:miter;stroke-width:1.25;"/>
   </g>
   <g id="legend_1">
    <g id="patch_7">
     <path d="M 808.823594 100.437813 
L 964.3 100.437813 
Q 966.5 100.437813 966.5 98.237813 
L 966.5 50.9 
Q 966.5 48.7 964.3 48.7 
L 808.823594 48.7 
Q 806.623594 48.7 806.623594 50.9 
L 806.623594 98.237813 
Q 806.623594 100.437813 808.823594 100.437813 
z
" style="fill:#eaeaf2;opacity:0.8;stroke:#cccccc;stroke-linejoin:miter;"/>
    </g>
    <g id="line2d_21"/>
    <g id="line2d_22">
     <g>
      <use style="fill:#4c72b0;fill-opacity:0.7;stroke:#4c72b0;stroke-opacity:0.7;" x="822.023594" xlink:href="#m84b342cc6f" y="57.608281"/>
     </g>
    </g>
    <g id="text_19">
     <!-- Percentage Baseline -->
     <defs>
      <path d="M 19.671875 64.796875 
L 19.671875 37.40625 
L 32.078125 37.40625 
Q 38.96875 37.40625 42.71875 40.96875 
Q 46.484375 44.53125 46.484375 51.125 
Q 46.484375 57.671875 42.71875 61.234375 
Q 38.96875 64.796875 32.078125 64.796875 
z
M 9.8125 72.90625 
L 32.078125 72.90625 
Q 44.34375 72.90625 50.609375 67.359375 
Q 56.890625 61.8125 56.890625 51.125 
Q 56.890625 40.328125 50.609375 34.8125 
Q 44.34375 29.296875 32.078125 29.296875 
L 19.671875 29.296875 
L 19.671875 0 
L 9.8125 0 
z
" id="DejaVuSans-80"/>
      <path d="M 54.890625 33.015625 
L 54.890625 0 
L 45.90625 0 
L 45.90625 32.71875 
Q 45.90625 40.484375 42.875 44.328125 
Q 39.84375 48.1875 33.796875 48.1875 
Q 26.515625 48.1875 22.3125 43.546875 
Q 18.109375 38.921875 18.109375 30.90625 
L 18.109375 0 
L 9.078125 0 
L 9.078125 54.6875 
L 18.109375 54.6875 
L 18.109375 46.1875 
Q 21.34375 51.125 25.703125 53.5625 
Q 30.078125 56 35.796875 56 
Q 45.21875 56 50.046875 50.171875 
Q 54.890625 44.34375 54.890625 33.015625 
z
" id="DejaVuSans-110"/>
      <path d="M 45.40625 27.984375 
Q 45.40625 37.75 41.375 43.109375 
Q 37.359375 48.484375 30.078125 48.484375 
Q 22.859375 48.484375 18.828125 43.109375 
Q 14.796875 37.75 14.796875 27.984375 
Q 14.796875 18.265625 18.828125 12.890625 
Q 22.859375 7.515625 30.078125 7.515625 
Q 37.359375 7.515625 41.375 12.890625 
Q 45.40625 18.265625 45.40625 27.984375 
z
M 54.390625 6.78125 
Q 54.390625 -7.171875 48.1875 -13.984375 
Q 42 -20.796875 29.203125 -20.796875 
Q 24.46875 -20.796875 20.265625 -20.09375 
Q 16.0625 -19.390625 12.109375 -17.921875 
L 12.109375 -9.1875 
Q 16.0625 -11.328125 19.921875 -12.34375 
Q 23.78125 -13.375 27.78125 -13.375 
Q 36.625 -13.375 41.015625 -8.765625 
Q 45.40625 -4.15625 45.40625 5.171875 
L 45.40625 9.625 
Q 42.625 4.78125 38.28125 2.390625 
Q 33.9375 0 27.875 0 
Q 17.828125 0 11.671875 7.65625 
Q 5.515625 15.328125 5.515625 27.984375 
Q 5.515625 40.671875 11.671875 48.328125 
Q 17.828125 56 27.875 56 
Q 33.9375 56 38.28125 53.609375 
Q 42.625 51.21875 45.40625 46.390625 
L 45.40625 54.6875 
L 54.390625 54.6875 
z
" id="DejaVuSans-103"/>
      <path d="M 19.671875 34.8125 
L 19.671875 8.109375 
L 35.5 8.109375 
Q 43.453125 8.109375 47.28125 11.40625 
Q 51.125 14.703125 51.125 21.484375 
Q 51.125 28.328125 47.28125 31.5625 
Q 43.453125 34.8125 35.5 34.8125 
z
M 19.671875 64.796875 
L 19.671875 42.828125 
L 34.28125 42.828125 
Q 41.5 42.828125 45.03125 45.53125 
Q 48.578125 48.25 48.578125 53.8125 
Q 48.578125 59.328125 45.03125 62.0625 
Q 41.5 64.796875 34.28125 64.796875 
z
M 9.8125 72.90625 
L 35.015625 72.90625 
Q 46.296875 72.90625 52.390625 68.21875 
Q 58.5 63.53125 58.5 54.890625 
Q 58.5 48.1875 55.375 44.234375 
Q 52.25 40.28125 46.1875 39.3125 
Q 53.46875 37.75 57.5 32.78125 
Q 61.53125 27.828125 61.53125 20.40625 
Q 61.53125 10.640625 54.890625 5.3125 
Q 48.25 0 35.984375 0 
L 9.8125 0 
z
" id="DejaVuSans-66"/>
     </defs>
     <g style="fill:#262626;" transform="translate(841.823594 61.458281)scale(0.11 -0.11)">
      <use xlink:href="#DejaVuSans-80"/>
      <use x="60.255859" xlink:href="#DejaVuSans-101"/>
      <use x="121.779297" xlink:href="#DejaVuSans-114"/>
      <use x="162.861328" xlink:href="#DejaVuSans-99"/>
      <use x="217.841797" xlink:href="#DejaVuSans-101"/>
      <use x="279.365234" xlink:href="#DejaVuSans-110"/>
      <use x="342.744141" xlink:href="#DejaVuSans-116"/>
      <use x="381.953125" xlink:href="#DejaVuSans-97"/>
      <use x="443.232422" xlink:href="#DejaVuSans-103"/>
      <use x="506.708984" xlink:href="#DejaVuSans-101"/>
      <use x="568.232422" xlink:href="#DejaVuSans-32"/>
      <use x="600.019531" xlink:href="#DejaVuSans-66"/>
      <use x="668.623047" xlink:href="#DejaVuSans-97"/>
      <use x="729.902344" xlink:href="#DejaVuSans-115"/>
      <use x="782.001953" xlink:href="#DejaVuSans-101"/>
      <use x="843.525391" xlink:href="#DejaVuSans-108"/>
      <use x="871.308594" xlink:href="#DejaVuSans-105"/>
      <use x="899.091797" xlink:href="#DejaVuSans-110"/>
      <use x="962.470703" xlink:href="#DejaVuSans-101"/>
     </g>
    </g>
    <g id="line2d_23">
     <path d="M 811.023594 73.754219 
L 833.023594 73.754219 
" style="fill:none;stroke:#4c72b0;stroke-linecap:round;stroke-width:1.5;"/>
    </g>
    <g id="line2d_24"/>
    <g id="text_20">
     <!-- Smoothed % Baseline -->
     <defs>
      <path d="M 53.515625 70.515625 
L 53.515625 60.890625 
Q 47.90625 63.578125 42.921875 64.890625 
Q 37.9375 66.21875 33.296875 66.21875 
Q 25.25 66.21875 20.875 63.09375 
Q 16.5 59.96875 16.5 54.203125 
Q 16.5 49.359375 19.40625 46.890625 
Q 22.3125 44.4375 30.421875 42.921875 
L 36.375 41.703125 
Q 47.40625 39.59375 52.65625 34.296875 
Q 57.90625 29 57.90625 20.125 
Q 57.90625 9.515625 50.796875 4.046875 
Q 43.703125 -1.421875 29.984375 -1.421875 
Q 24.8125 -1.421875 18.96875 -0.25 
Q 13.140625 0.921875 6.890625 3.21875 
L 6.890625 13.375 
Q 12.890625 10.015625 18.65625 8.296875 
Q 24.421875 6.59375 29.984375 6.59375 
Q 38.421875 6.59375 43.015625 9.90625 
Q 47.609375 13.234375 47.609375 19.390625 
Q 47.609375 24.75 44.3125 27.78125 
Q 41.015625 30.8125 33.5 32.328125 
L 27.484375 33.5 
Q 16.453125 35.6875 11.515625 40.375 
Q 6.59375 45.0625 6.59375 53.421875 
Q 6.59375 63.09375 13.40625 68.65625 
Q 20.21875 74.21875 32.171875 74.21875 
Q 37.3125 74.21875 42.625 73.28125 
Q 47.953125 72.359375 53.515625 70.515625 
z
" id="DejaVuSans-83"/>
      <path d="M 52 44.1875 
Q 55.375 50.25 60.0625 53.125 
Q 64.75 56 71.09375 56 
Q 79.640625 56 84.28125 50.015625 
Q 88.921875 44.046875 88.921875 33.015625 
L 88.921875 0 
L 79.890625 0 
L 79.890625 32.71875 
Q 79.890625 40.578125 77.09375 44.375 
Q 74.3125 48.1875 68.609375 48.1875 
Q 61.625 48.1875 57.5625 43.546875 
Q 53.515625 38.921875 53.515625 30.90625 
L 53.515625 0 
L 44.484375 0 
L 44.484375 32.71875 
Q 44.484375 40.625 41.703125 44.40625 
Q 38.921875 48.1875 33.109375 48.1875 
Q 26.21875 48.1875 22.15625 43.53125 
Q 18.109375 38.875 18.109375 30.90625 
L 18.109375 0 
L 9.078125 0 
L 9.078125 54.6875 
L 18.109375 54.6875 
L 18.109375 46.1875 
Q 21.1875 51.21875 25.484375 53.609375 
Q 29.78125 56 35.6875 56 
Q 41.65625 56 45.828125 52.96875 
Q 50 49.953125 52 44.1875 
z
" id="DejaVuSans-109"/>
      <path d="M 72.703125 32.078125 
Q 68.453125 32.078125 66.03125 28.46875 
Q 63.625 24.859375 63.625 18.40625 
Q 63.625 12.0625 66.03125 8.421875 
Q 68.453125 4.78125 72.703125 4.78125 
Q 76.859375 4.78125 79.265625 8.421875 
Q 81.6875 12.0625 81.6875 18.40625 
Q 81.6875 24.8125 79.265625 28.4375 
Q 76.859375 32.078125 72.703125 32.078125 
z
M 72.703125 38.28125 
Q 80.421875 38.28125 84.953125 32.90625 
Q 89.5 27.546875 89.5 18.40625 
Q 89.5 9.28125 84.9375 3.921875 
Q 80.375 -1.421875 72.703125 -1.421875 
Q 64.890625 -1.421875 60.34375 3.921875 
Q 55.8125 9.28125 55.8125 18.40625 
Q 55.8125 27.59375 60.375 32.9375 
Q 64.9375 38.28125 72.703125 38.28125 
z
M 22.3125 68.015625 
Q 18.109375 68.015625 15.6875 64.375 
Q 13.28125 60.75 13.28125 54.390625 
Q 13.28125 47.953125 15.671875 44.328125 
Q 18.0625 40.71875 22.3125 40.71875 
Q 26.5625 40.71875 28.96875 44.328125 
Q 31.390625 47.953125 31.390625 54.390625 
Q 31.390625 60.6875 28.953125 64.34375 
Q 26.515625 68.015625 22.3125 68.015625 
z
M 66.40625 74.21875 
L 74.21875 74.21875 
L 28.609375 -1.421875 
L 20.796875 -1.421875 
z
M 22.3125 74.21875 
Q 30.03125 74.21875 34.609375 68.875 
Q 39.203125 63.53125 39.203125 54.390625 
Q 39.203125 45.171875 34.640625 39.84375 
Q 30.078125 34.515625 22.3125 34.515625 
Q 14.546875 34.515625 10.03125 39.859375 
Q 5.515625 45.21875 5.515625 54.390625 
Q 5.515625 63.484375 10.046875 68.84375 
Q 14.59375 74.21875 22.3125 74.21875 
z
" id="DejaVuSans-37"/>
     </defs>
     <g style="fill:#262626;" transform="translate(841.823594 77.604219)scale(0.11 -0.11)">
      <use xlink:href="#DejaVuSans-83"/>
      <use x="63.476562" xlink:href="#DejaVuSans-109"/>
      <use x="160.888672" xlink:href="#DejaVuSans-111"/>
      <use x="222.070312" xlink:href="#DejaVuSans-111"/>
      <use x="283.251953" xlink:href="#DejaVuSans-116"/>
      <use x="322.460938" xlink:href="#DejaVuSans-104"/>
      <use x="385.839844" xlink:href="#DejaVuSans-101"/>
      <use x="447.363281" xlink:href="#DejaVuSans-100"/>
      <use x="510.839844" xlink:href="#DejaVuSans-32"/>
      <use x="542.626953" xlink:href="#DejaVuSans-37"/>
      <use x="637.646484" xlink:href="#DejaVuSans-32"/>
      <use x="669.433594" xlink:href="#DejaVuSans-66"/>
      <use x="738.037109" xlink:href="#DejaVuSans-97"/>
      <use x="799.316406" xlink:href="#DejaVuSans-115"/>
      <use x="851.416016" xlink:href="#DejaVuSans-101"/>
      <use x="912.939453" xlink:href="#DejaVuSans-108"/>
      <use x="940.722656" xlink:href="#DejaVuSans-105"/>
      <use x="968.505859" xlink:href="#DejaVuSans-110"/>
      <use x="1031.884766" xlink:href="#DejaVuSans-101"/>
     </g>
    </g>
    <g id="line2d_25">
     <path d="M 811.023594 89.900156 
L 833.023594 89.900156 
" style="fill:none;stroke:#c44e52;stroke-linecap:round;stroke-opacity:0.5;stroke-width:1.5;"/>
    </g>
    <g id="line2d_26"/>
    <g id="text_21">
     <!-- Smoothed New Cases -->
     <defs>
      <path d="M 9.8125 72.90625 
L 23.09375 72.90625 
L 55.421875 11.921875 
L 55.421875 72.90625 
L 64.984375 72.90625 
L 64.984375 0 
L 51.703125 0 
L 19.390625 60.984375 
L 19.390625 0 
L 9.8125 0 
z
" id="DejaVuSans-78"/>
      <path d="M 4.203125 54.6875 
L 13.1875 54.6875 
L 24.421875 12.015625 
L 35.59375 54.6875 
L 46.1875 54.6875 
L 57.421875 12.015625 
L 68.609375 54.6875 
L 77.59375 54.6875 
L 63.28125 0 
L 52.6875 0 
L 40.921875 44.828125 
L 29.109375 0 
L 18.5 0 
z
" id="DejaVuSans-119"/>
      <path d="M 64.40625 67.28125 
L 64.40625 56.890625 
Q 59.421875 61.53125 53.78125 63.8125 
Q 48.140625 66.109375 41.796875 66.109375 
Q 29.296875 66.109375 22.65625 58.46875 
Q 16.015625 50.828125 16.015625 36.375 
Q 16.015625 21.96875 22.65625 14.328125 
Q 29.296875 6.6875 41.796875 6.6875 
Q 48.140625 6.6875 53.78125 8.984375 
Q 59.421875 11.28125 64.40625 15.921875 
L 64.40625 5.609375 
Q 59.234375 2.09375 53.4375 0.328125 
Q 47.65625 -1.421875 41.21875 -1.421875 
Q 24.65625 -1.421875 15.125 8.703125 
Q 5.609375 18.84375 5.609375 36.375 
Q 5.609375 53.953125 15.125 64.078125 
Q 24.65625 74.21875 41.21875 74.21875 
Q 47.75 74.21875 53.53125 72.484375 
Q 59.328125 70.75 64.40625 67.28125 
z
" id="DejaVuSans-67"/>
     </defs>
     <g style="fill:#262626;" transform="translate(841.823594 93.750156)scale(0.11 -0.11)">
      <use xlink:href="#DejaVuSans-83"/>
      <use x="63.476562" xlink:href="#DejaVuSans-109"/>
      <use x="160.888672" xlink:href="#DejaVuSans-111"/>
      <use x="222.070312" xlink:href="#DejaVuSans-111"/>
      <use x="283.251953" xlink:href="#DejaVuSans-116"/>
      <use x="322.460938" xlink:href="#DejaVuSans-104"/>
      <use x="385.839844" xlink:href="#DejaVuSans-101"/>
      <use x="447.363281" xlink:href="#DejaVuSans-100"/>
      <use x="510.839844" xlink:href="#DejaVuSans-32"/>
      <use x="542.626953" xlink:href="#DejaVuSans-78"/>
      <use x="617.431641" xlink:href="#DejaVuSans-101"/>
      <use x="678.955078" xlink:href="#DejaVuSans-119"/>
      <use x="760.742188" xlink:href="#DejaVuSans-32"/>
      <use x="792.529297" xlink:href="#DejaVuSans-67"/>
      <use x="862.353516" xlink:href="#DejaVuSans-97"/>
      <use x="923.632812" xlink:href="#DejaVuSans-115"/>
      <use x="975.732422" xlink:href="#DejaVuSans-101"/>
      <use x="1037.255859" xlink:href="#DejaVuSans-115"/>
     </g>
    </g>
   </g>
  </g>
 </g>
 <defs>
  <clipPath id="p7b62ba181b">
   <rect height="271.8" width="837" x="135" y="43.2"/>
  </clipPath>
 </defs>
</svg>
