<?xml version="1.0" encoding="utf-8" standalone="no"?>
<!DOCTYPE svg PUBLIC "-//W3C//DTD SVG 1.1//EN"
  "http://www.w3.org/Graphics/SVG/1.1/DTD/svg11.dtd">
<!-- Created with matplotlib (https://matplotlib.org/) -->
<svg height="288pt" version="1.1" viewBox="0 0 432 288" width="432pt" xmlns="http://www.w3.org/2000/svg" xmlns:xlink="http://www.w3.org/1999/xlink">
 <defs>
  <style type="text/css">
*{stroke-linecap:butt;stroke-linejoin:round;}
  </style>
 </defs>
 <g id="figure_1">
  <g id="patch_1">
   <path d="M 0 288 
L 432 288 
L 432 0 
L 0 0 
z
" style="fill:#ffffff;"/>
  </g>
  <g id="axes_1">
   <g id="patch_2">
    <path d="M 54 252 
L 388.8 252 
L 388.8 34.56 
L 54 34.56 
z
" style="fill:#eaeaf2;"/>
   </g>
   <g id="matplotlib.axis_1">
    <g id="xtick_1">
     <g id="line2d_1">
      <path clip-path="url(#pf11cc5b156)" d="M 69.218182 252 
L 69.218182 34.56 
" style="fill:none;stroke:#ffffff;stroke-linecap:round;"/>
     </g>
     <g id="text_1">
      <!-- 0.0 -->
      <defs>
       <path d="M 31.78125 66.40625 
Q 24.171875 66.40625 20.328125 58.90625 
Q 16.5 51.421875 16.5 36.375 
Q 16.5 21.390625 20.328125 13.890625 
Q 24.171875 6.390625 31.78125 6.390625 
Q 39.453125 6.390625 43.28125 13.890625 
Q 47.125 21.390625 47.125 36.375 
Q 47.125 51.421875 43.28125 58.90625 
Q 39.453125 66.40625 31.78125 66.40625 
z
M 31.78125 74.21875 
Q 44.046875 74.21875 50.515625 64.515625 
Q 56.984375 54.828125 56.984375 36.375 
Q 56.984375 17.96875 50.515625 8.265625 
Q 44.046875 -1.421875 31.78125 -1.421875 
Q 19.53125 -1.421875 13.0625 8.265625 
Q 6.59375 17.96875 6.59375 36.375 
Q 6.59375 54.828125 13.0625 64.515625 
Q 19.53125 74.21875 31.78125 74.21875 
z
" id="DejaVuSans-48"/>
       <path d="M 10.6875 12.40625 
L 21 12.40625 
L 21 0 
L 10.6875 0 
z
" id="DejaVuSans-46"/>
      </defs>
      <g style="fill:#262626;" transform="translate(62.037093 275.337323)rotate(-20)scale(0.11 -0.11)">
       <use xlink:href="#DejaVuSans-48"/>
       <use x="63.623047" xlink:href="#DejaVuSans-46"/>
       <use x="95.410156" xlink:href="#DejaVuSans-48"/>
      </g>
     </g>
    </g>
    <g id="xtick_2">
     <g id="line2d_2">
      <path clip-path="url(#pf11cc5b156)" d="M 143.453215 252 
L 143.453215 34.56 
" style="fill:none;stroke:#ffffff;stroke-linecap:round;"/>
     </g>
     <g id="text_2">
      <!-- 0.2 -->
      <defs>
       <path d="M 19.1875 8.296875 
L 53.609375 8.296875 
L 53.609375 0 
L 7.328125 0 
L 7.328125 8.296875 
Q 12.9375 14.109375 22.625 23.890625 
Q 32.328125 33.6875 34.8125 36.53125 
Q 39.546875 41.84375 41.421875 45.53125 
Q 43.3125 49.21875 43.3125 52.78125 
Q 43.3125 58.59375 39.234375 62.25 
Q 35.15625 65.921875 28.609375 65.921875 
Q 23.96875 65.921875 18.8125 64.3125 
Q 13.671875 62.703125 7.8125 59.421875 
L 7.8125 69.390625 
Q 13.765625 71.78125 18.9375 73 
Q 24.125 74.21875 28.421875 74.21875 
Q 39.75 74.21875 46.484375 68.546875 
Q 53.21875 62.890625 53.21875 53.421875 
Q 53.21875 48.921875 51.53125 44.890625 
Q 49.859375 40.875 45.40625 35.40625 
Q 44.1875 33.984375 37.640625 27.21875 
Q 31.109375 20.453125 19.1875 8.296875 
z
" id="DejaVuSans-50"/>
      </defs>
      <g style="fill:#262626;" transform="translate(136.272126 275.337323)rotate(-20)scale(0.11 -0.11)">
       <use xlink:href="#DejaVuSans-48"/>
       <use x="63.623047" xlink:href="#DejaVuSans-46"/>
       <use x="95.410156" xlink:href="#DejaVuSans-50"/>
      </g>
     </g>
    </g>
    <g id="xtick_3">
     <g id="line2d_3">
      <path clip-path="url(#pf11cc5b156)" d="M 217.688248 252 
L 217.688248 34.56 
" style="fill:none;stroke:#ffffff;stroke-linecap:round;"/>
     </g>
     <g id="text_3">
      <!-- 0.4 -->
      <defs>
       <path d="M 37.796875 64.3125 
L 12.890625 25.390625 
L 37.796875 25.390625 
z
M 35.203125 72.90625 
L 47.609375 72.90625 
L 47.609375 25.390625 
L 58.015625 25.390625 
L 58.015625 17.1875 
L 47.609375 17.1875 
L 47.609375 0 
L 37.796875 0 
L 37.796875 17.1875 
L 4.890625 17.1875 
L 4.890625 26.703125 
z
" id="DejaVuSans-52"/>
      </defs>
      <g style="fill:#262626;" transform="translate(210.507159 275.337323)rotate(-20)scale(0.11 -0.11)">
       <use xlink:href="#DejaVuSans-48"/>
       <use x="63.623047" xlink:href="#DejaVuSans-46"/>
       <use x="95.410156" xlink:href="#DejaVuSans-52"/>
      </g>
     </g>
    </g>
    <g id="xtick_4">
     <g id="line2d_4">
      <path clip-path="url(#pf11cc5b156)" d="M 291.923282 252 
L 291.923282 34.56 
" style="fill:none;stroke:#ffffff;stroke-linecap:round;"/>
     </g>
     <g id="text_4">
      <!-- 0.6 -->
      <defs>
       <path d="M 33.015625 40.375 
Q 26.375 40.375 22.484375 35.828125 
Q 18.609375 31.296875 18.609375 23.390625 
Q 18.609375 15.53125 22.484375 10.953125 
Q 26.375 6.390625 33.015625 6.390625 
Q 39.65625 6.390625 43.53125 10.953125 
Q 47.40625 15.53125 47.40625 23.390625 
Q 47.40625 31.296875 43.53125 35.828125 
Q 39.65625 40.375 33.015625 40.375 
z
M 52.59375 71.296875 
L 52.59375 62.3125 
Q 48.875 64.0625 45.09375 64.984375 
Q 41.3125 65.921875 37.59375 65.921875 
Q 27.828125 65.921875 22.671875 59.328125 
Q 17.53125 52.734375 16.796875 39.40625 
Q 19.671875 43.65625 24.015625 45.921875 
Q 28.375 48.1875 33.59375 48.1875 
Q 44.578125 48.1875 50.953125 41.515625 
Q 57.328125 34.859375 57.328125 23.390625 
Q 57.328125 12.15625 50.6875 5.359375 
Q 44.046875 -1.421875 33.015625 -1.421875 
Q 20.359375 -1.421875 13.671875 8.265625 
Q 6.984375 17.96875 6.984375 36.375 
Q 6.984375 53.65625 15.1875 63.9375 
Q 23.390625 74.21875 37.203125 74.21875 
Q 40.921875 74.21875 44.703125 73.484375 
Q 48.484375 72.75 52.59375 71.296875 
z
" id="DejaVuSans-54"/>
      </defs>
      <g style="fill:#262626;" transform="translate(284.742193 275.337323)rotate(-20)scale(0.11 -0.11)">
       <use xlink:href="#DejaVuSans-48"/>
       <use x="63.623047" xlink:href="#DejaVuSans-46"/>
       <use x="95.410156" xlink:href="#DejaVuSans-54"/>
      </g>
     </g>
    </g>
    <g id="xtick_5">
     <g id="line2d_5">
      <path clip-path="url(#pf11cc5b156)" d="M 366.158315 252 
L 366.158315 34.56 
" style="fill:none;stroke:#ffffff;stroke-linecap:round;"/>
     </g>
     <g id="text_5">
      <!-- 0.8 -->
      <defs>
       <path d="M 31.78125 34.625 
Q 24.75 34.625 20.71875 30.859375 
Q 16.703125 27.09375 16.703125 20.515625 
Q 16.703125 13.921875 20.71875 10.15625 
Q 24.75 6.390625 31.78125 6.390625 
Q 38.8125 6.390625 42.859375 10.171875 
Q 46.921875 13.96875 46.921875 20.515625 
Q 46.921875 27.09375 42.890625 30.859375 
Q 38.875 34.625 31.78125 34.625 
z
M 21.921875 38.8125 
Q 15.578125 40.375 12.03125 44.71875 
Q 8.5 49.078125 8.5 55.328125 
Q 8.5 64.0625 14.71875 69.140625 
Q 20.953125 74.21875 31.78125 74.21875 
Q 42.671875 74.21875 48.875 69.140625 
Q 55.078125 64.0625 55.078125 55.328125 
Q 55.078125 49.078125 51.53125 44.71875 
Q 48 40.375 41.703125 38.8125 
Q 48.828125 37.15625 52.796875 32.3125 
Q 56.78125 27.484375 56.78125 20.515625 
Q 56.78125 9.90625 50.3125 4.234375 
Q 43.84375 -1.421875 31.78125 -1.421875 
Q 19.734375 -1.421875 13.25 4.234375 
Q 6.78125 9.90625 6.78125 20.515625 
Q 6.78125 27.484375 10.78125 32.3125 
Q 14.796875 37.15625 21.921875 38.8125 
z
M 18.3125 54.390625 
Q 18.3125 48.734375 21.84375 45.5625 
Q 25.390625 42.390625 31.78125 42.390625 
Q 38.140625 42.390625 41.71875 45.5625 
Q 45.3125 48.734375 45.3125 54.390625 
Q 45.3125 60.0625 41.71875 63.234375 
Q 38.140625 66.40625 31.78125 66.40625 
Q 25.390625 66.40625 21.84375 63.234375 
Q 18.3125 60.0625 18.3125 54.390625 
z
" id="DejaVuSans-56"/>
      </defs>
      <g style="fill:#262626;" transform="translate(358.977226 275.337323)rotate(-20)scale(0.11 -0.11)">
       <use xlink:href="#DejaVuSans-48"/>
       <use x="63.623047" xlink:href="#DejaVuSans-46"/>
       <use x="95.410156" xlink:href="#DejaVuSans-56"/>
      </g>
     </g>
    </g>
    <g id="text_6">
     <!-- North American Confirmed Cases -->
     <defs>
      <path d="M 9.8125 72.90625 
L 23.09375 72.90625 
L 55.421875 11.921875 
L 55.421875 72.90625 
L 64.984375 72.90625 
L 64.984375 0 
L 51.703125 0 
L 19.390625 60.984375 
L 19.390625 0 
L 9.8125 0 
z
" id="DejaVuSans-78"/>
      <path d="M 30.609375 48.390625 
Q 23.390625 48.390625 19.1875 42.75 
Q 14.984375 37.109375 14.984375 27.296875 
Q 14.984375 17.484375 19.15625 11.84375 
Q 23.34375 6.203125 30.609375 6.203125 
Q 37.796875 6.203125 41.984375 11.859375 
Q 46.1875 17.53125 46.1875 27.296875 
Q 46.1875 37.015625 41.984375 42.703125 
Q 37.796875 48.390625 30.609375 48.390625 
z
M 30.609375 56 
Q 42.328125 56 49.015625 48.375 
Q 55.71875 40.765625 55.71875 27.296875 
Q 55.71875 13.875 49.015625 6.21875 
Q 42.328125 -1.421875 30.609375 -1.421875 
Q 18.84375 -1.421875 12.171875 6.21875 
Q 5.515625 13.875 5.515625 27.296875 
Q 5.515625 40.765625 12.171875 48.375 
Q 18.84375 56 30.609375 56 
z
" id="DejaVuSans-111"/>
      <path d="M 41.109375 46.296875 
Q 39.59375 47.171875 37.8125 47.578125 
Q 36.03125 48 33.890625 48 
Q 26.265625 48 22.1875 43.046875 
Q 18.109375 38.09375 18.109375 28.8125 
L 18.109375 0 
L 9.078125 0 
L 9.078125 54.6875 
L 18.109375 54.6875 
L 18.109375 46.1875 
Q 20.953125 51.171875 25.484375 53.578125 
Q 30.03125 56 36.53125 56 
Q 37.453125 56 38.578125 55.875 
Q 39.703125 55.765625 41.0625 55.515625 
z
" id="DejaVuSans-114"/>
      <path d="M 18.3125 70.21875 
L 18.3125 54.6875 
L 36.8125 54.6875 
L 36.8125 47.703125 
L 18.3125 47.703125 
L 18.3125 18.015625 
Q 18.3125 11.328125 20.140625 9.421875 
Q 21.96875 7.515625 27.59375 7.515625 
L 36.8125 7.515625 
L 36.8125 0 
L 27.59375 0 
Q 17.1875 0 13.234375 3.875 
Q 9.28125 7.765625 9.28125 18.015625 
L 9.28125 47.703125 
L 2.6875 47.703125 
L 2.6875 54.6875 
L 9.28125 54.6875 
L 9.28125 70.21875 
z
" id="DejaVuSans-116"/>
      <path d="M 54.890625 33.015625 
L 54.890625 0 
L 45.90625 0 
L 45.90625 32.71875 
Q 45.90625 40.484375 42.875 44.328125 
Q 39.84375 48.1875 33.796875 48.1875 
Q 26.515625 48.1875 22.3125 43.546875 
Q 18.109375 38.921875 18.109375 30.90625 
L 18.109375 0 
L 9.078125 0 
L 9.078125 75.984375 
L 18.109375 75.984375 
L 18.109375 46.1875 
Q 21.34375 51.125 25.703125 53.5625 
Q 30.078125 56 35.796875 56 
Q 45.21875 56 50.046875 50.171875 
Q 54.890625 44.34375 54.890625 33.015625 
z
" id="DejaVuSans-104"/>
      <path id="DejaVuSans-32"/>
      <path d="M 34.1875 63.1875 
L 20.796875 26.90625 
L 47.609375 26.90625 
z
M 28.609375 72.90625 
L 39.796875 72.90625 
L 67.578125 0 
L 57.328125 0 
L 50.6875 18.703125 
L 17.828125 18.703125 
L 11.1875 0 
L 0.78125 0 
z
" id="DejaVuSans-65"/>
      <path d="M 52 44.1875 
Q 55.375 50.25 60.0625 53.125 
Q 64.75 56 71.09375 56 
Q 79.640625 56 84.28125 50.015625 
Q 88.921875 44.046875 88.921875 33.015625 
L 88.921875 0 
L 79.890625 0 
L 79.890625 32.71875 
Q 79.890625 40.578125 77.09375 44.375 
Q 74.3125 48.1875 68.609375 48.1875 
Q 61.625 48.1875 57.5625 43.546875 
Q 53.515625 38.921875 53.515625 30.90625 
L 53.515625 0 
L 44.484375 0 
L 44.484375 32.71875 
Q 44.484375 40.625 41.703125 44.40625 
Q 38.921875 48.1875 33.109375 48.1875 
Q 26.21875 48.1875 22.15625 43.53125 
Q 18.109375 38.875 18.109375 30.90625 
L 18.109375 0 
L 9.078125 0 
L 9.078125 54.6875 
L 18.109375 54.6875 
L 18.109375 46.1875 
Q 21.1875 51.21875 25.484375 53.609375 
Q 29.78125 56 35.6875 56 
Q 41.65625 56 45.828125 52.96875 
Q 50 49.953125 52 44.1875 
z
" id="DejaVuSans-109"/>
      <path d="M 56.203125 29.59375 
L 56.203125 25.203125 
L 14.890625 25.203125 
Q 15.484375 15.921875 20.484375 11.0625 
Q 25.484375 6.203125 34.421875 6.203125 
Q 39.59375 6.203125 44.453125 7.46875 
Q 49.3125 8.734375 54.109375 11.28125 
L 54.109375 2.78125 
Q 49.265625 0.734375 44.1875 -0.34375 
Q 39.109375 -1.421875 33.890625 -1.421875 
Q 20.796875 -1.421875 13.15625 6.1875 
Q 5.515625 13.8125 5.515625 26.8125 
Q 5.515625 40.234375 12.765625 48.109375 
Q 20.015625 56 32.328125 56 
Q 43.359375 56 49.78125 48.890625 
Q 56.203125 41.796875 56.203125 29.59375 
z
M 47.21875 32.234375 
Q 47.125 39.59375 43.09375 43.984375 
Q 39.0625 48.390625 32.421875 48.390625 
Q 24.90625 48.390625 20.390625 44.140625 
Q 15.875 39.890625 15.1875 32.171875 
z
" id="DejaVuSans-101"/>
      <path d="M 9.421875 54.6875 
L 18.40625 54.6875 
L 18.40625 0 
L 9.421875 0 
z
M 9.421875 75.984375 
L 18.40625 75.984375 
L 18.40625 64.59375 
L 9.421875 64.59375 
z
" id="DejaVuSans-105"/>
      <path d="M 48.78125 52.59375 
L 48.78125 44.1875 
Q 44.96875 46.296875 41.140625 47.34375 
Q 37.3125 48.390625 33.40625 48.390625 
Q 24.65625 48.390625 19.8125 42.84375 
Q 14.984375 37.3125 14.984375 27.296875 
Q 14.984375 17.28125 19.8125 11.734375 
Q 24.65625 6.203125 33.40625 6.203125 
Q 37.3125 6.203125 41.140625 7.25 
Q 44.96875 8.296875 48.78125 10.40625 
L 48.78125 2.09375 
Q 45.015625 0.34375 40.984375 -0.53125 
Q 36.96875 -1.421875 32.421875 -1.421875 
Q 20.0625 -1.421875 12.78125 6.34375 
Q 5.515625 14.109375 5.515625 27.296875 
Q 5.515625 40.671875 12.859375 48.328125 
Q 20.21875 56 33.015625 56 
Q 37.15625 56 41.109375 55.140625 
Q 45.0625 54.296875 48.78125 52.59375 
z
" id="DejaVuSans-99"/>
      <path d="M 34.28125 27.484375 
Q 23.390625 27.484375 19.1875 25 
Q 14.984375 22.515625 14.984375 16.5 
Q 14.984375 11.71875 18.140625 8.90625 
Q 21.296875 6.109375 26.703125 6.109375 
Q 34.1875 6.109375 38.703125 11.40625 
Q 43.21875 16.703125 43.21875 25.484375 
L 43.21875 27.484375 
z
M 52.203125 31.203125 
L 52.203125 0 
L 43.21875 0 
L 43.21875 8.296875 
Q 40.140625 3.328125 35.546875 0.953125 
Q 30.953125 -1.421875 24.3125 -1.421875 
Q 15.921875 -1.421875 10.953125 3.296875 
Q 6 8.015625 6 15.921875 
Q 6 25.140625 12.171875 29.828125 
Q 18.359375 34.515625 30.609375 34.515625 
L 43.21875 34.515625 
L 43.21875 35.40625 
Q 43.21875 41.609375 39.140625 45 
Q 35.0625 48.390625 27.6875 48.390625 
Q 23 48.390625 18.546875 47.265625 
Q 14.109375 46.140625 10.015625 43.890625 
L 10.015625 52.203125 
Q 14.9375 54.109375 19.578125 55.046875 
Q 24.21875 56 28.609375 56 
Q 40.484375 56 46.34375 49.84375 
Q 52.203125 43.703125 52.203125 31.203125 
z
" id="DejaVuSans-97"/>
      <path d="M 54.890625 33.015625 
L 54.890625 0 
L 45.90625 0 
L 45.90625 32.71875 
Q 45.90625 40.484375 42.875 44.328125 
Q 39.84375 48.1875 33.796875 48.1875 
Q 26.515625 48.1875 22.3125 43.546875 
Q 18.109375 38.921875 18.109375 30.90625 
L 18.109375 0 
L 9.078125 0 
L 9.078125 54.6875 
L 18.109375 54.6875 
L 18.109375 46.1875 
Q 21.34375 51.125 25.703125 53.5625 
Q 30.078125 56 35.796875 56 
Q 45.21875 56 50.046875 50.171875 
Q 54.890625 44.34375 54.890625 33.015625 
z
" id="DejaVuSans-110"/>
      <path d="M 64.40625 67.28125 
L 64.40625 56.890625 
Q 59.421875 61.53125 53.78125 63.8125 
Q 48.140625 66.109375 41.796875 66.109375 
Q 29.296875 66.109375 22.65625 58.46875 
Q 16.015625 50.828125 16.015625 36.375 
Q 16.015625 21.96875 22.65625 14.328125 
Q 29.296875 6.6875 41.796875 6.6875 
Q 48.140625 6.6875 53.78125 8.984375 
Q 59.421875 11.28125 64.40625 15.921875 
L 64.40625 5.609375 
Q 59.234375 2.09375 53.4375 0.328125 
Q 47.65625 -1.421875 41.21875 -1.421875 
Q 24.65625 -1.421875 15.125 8.703125 
Q 5.609375 18.84375 5.609375 36.375 
Q 5.609375 53.953125 15.125 64.078125 
Q 24.65625 74.21875 41.21875 74.21875 
Q 47.75 74.21875 53.53125 72.484375 
Q 59.328125 70.75 64.40625 67.28125 
z
" id="DejaVuSans-67"/>
      <path d="M 37.109375 75.984375 
L 37.109375 68.5 
L 28.515625 68.5 
Q 23.6875 68.5 21.796875 66.546875 
Q 19.921875 64.59375 19.921875 59.515625 
L 19.921875 54.6875 
L 34.71875 54.6875 
L 34.71875 47.703125 
L 19.921875 47.703125 
L 19.921875 0 
L 10.890625 0 
L 10.890625 47.703125 
L 2.296875 47.703125 
L 2.296875 54.6875 
L 10.890625 54.6875 
L 10.890625 58.5 
Q 10.890625 67.625 15.140625 71.796875 
Q 19.390625 75.984375 28.609375 75.984375 
z
" id="DejaVuSans-102"/>
      <path d="M 45.40625 46.390625 
L 45.40625 75.984375 
L 54.390625 75.984375 
L 54.390625 0 
L 45.40625 0 
L 45.40625 8.203125 
Q 42.578125 3.328125 38.25 0.953125 
Q 33.9375 -1.421875 27.875 -1.421875 
Q 17.96875 -1.421875 11.734375 6.484375 
Q 5.515625 14.40625 5.515625 27.296875 
Q 5.515625 40.1875 11.734375 48.09375 
Q 17.96875 56 27.875 56 
Q 33.9375 56 38.25 53.625 
Q 42.578125 51.265625 45.40625 46.390625 
z
M 14.796875 27.296875 
Q 14.796875 17.390625 18.875 11.75 
Q 22.953125 6.109375 30.078125 6.109375 
Q 37.203125 6.109375 41.296875 11.75 
Q 45.40625 17.390625 45.40625 27.296875 
Q 45.40625 37.203125 41.296875 42.84375 
Q 37.203125 48.484375 30.078125 48.484375 
Q 22.953125 48.484375 18.875 42.84375 
Q 14.796875 37.203125 14.796875 27.296875 
z
" id="DejaVuSans-100"/>
      <path d="M 44.28125 53.078125 
L 44.28125 44.578125 
Q 40.484375 46.53125 36.375 47.5 
Q 32.28125 48.484375 27.875 48.484375 
Q 21.1875 48.484375 17.84375 46.4375 
Q 14.5 44.390625 14.5 40.28125 
Q 14.5 37.15625 16.890625 35.375 
Q 19.28125 33.59375 26.515625 31.984375 
L 29.59375 31.296875 
Q 39.15625 29.25 43.1875 25.515625 
Q 47.21875 21.78125 47.21875 15.09375 
Q 47.21875 7.46875 41.1875 3.015625 
Q 35.15625 -1.421875 24.609375 -1.421875 
Q 20.21875 -1.421875 15.453125 -0.5625 
Q 10.6875 0.296875 5.421875 2 
L 5.421875 11.28125 
Q 10.40625 8.6875 15.234375 7.390625 
Q 20.0625 6.109375 24.8125 6.109375 
Q 31.15625 6.109375 34.5625 8.28125 
Q 37.984375 10.453125 37.984375 14.40625 
Q 37.984375 18.0625 35.515625 20.015625 
Q 33.0625 21.96875 24.703125 23.78125 
L 21.578125 24.515625 
Q 13.234375 26.265625 9.515625 29.90625 
Q 5.8125 33.546875 5.8125 39.890625 
Q 5.8125 47.609375 11.28125 51.796875 
Q 16.75 56 26.8125 56 
Q 31.78125 56 36.171875 55.265625 
Q 40.578125 54.546875 44.28125 53.078125 
z
" id="DejaVuSans-115"/>
     </defs>
     <g style="fill:#262626;" transform="translate(121.2825 290.605142)scale(0.12 -0.12)">
      <use xlink:href="#DejaVuSans-78"/>
      <use x="74.804688" xlink:href="#DejaVuSans-111"/>
      <use x="135.986328" xlink:href="#DejaVuSans-114"/>
      <use x="177.099609" xlink:href="#DejaVuSans-116"/>
      <use x="216.308594" xlink:href="#DejaVuSans-104"/>
      <use x="279.6875" xlink:href="#DejaVuSans-32"/>
      <use x="311.474609" xlink:href="#DejaVuSans-65"/>
      <use x="379.882812" xlink:href="#DejaVuSans-109"/>
      <use x="477.294922" xlink:href="#DejaVuSans-101"/>
      <use x="538.818359" xlink:href="#DejaVuSans-114"/>
      <use x="579.931641" xlink:href="#DejaVuSans-105"/>
      <use x="607.714844" xlink:href="#DejaVuSans-99"/>
      <use x="662.695312" xlink:href="#DejaVuSans-97"/>
      <use x="723.974609" xlink:href="#DejaVuSans-110"/>
      <use x="787.353516" xlink:href="#DejaVuSans-32"/>
      <use x="819.140625" xlink:href="#DejaVuSans-67"/>
      <use x="888.964844" xlink:href="#DejaVuSans-111"/>
      <use x="950.146484" xlink:href="#DejaVuSans-110"/>
      <use x="1013.525391" xlink:href="#DejaVuSans-102"/>
      <use x="1048.730469" xlink:href="#DejaVuSans-105"/>
      <use x="1076.513672" xlink:href="#DejaVuSans-114"/>
      <use x="1117.611328" xlink:href="#DejaVuSans-109"/>
      <use x="1215.023438" xlink:href="#DejaVuSans-101"/>
      <use x="1276.546875" xlink:href="#DejaVuSans-100"/>
      <use x="1340.023438" xlink:href="#DejaVuSans-32"/>
      <use x="1371.810547" xlink:href="#DejaVuSans-67"/>
      <use x="1441.634766" xlink:href="#DejaVuSans-97"/>
      <use x="1502.914062" xlink:href="#DejaVuSans-115"/>
      <use x="1555.013672" xlink:href="#DejaVuSans-101"/>
      <use x="1616.537109" xlink:href="#DejaVuSans-115"/>
     </g>
    </g>
    <g id="text_7">
     <!-- 1e7 -->
     <defs>
      <path d="M 12.40625 8.296875 
L 28.515625 8.296875 
L 28.515625 63.921875 
L 10.984375 60.40625 
L 10.984375 69.390625 
L 28.421875 72.90625 
L 38.28125 72.90625 
L 38.28125 8.296875 
L 54.390625 8.296875 
L 54.390625 0 
L 12.40625 0 
z
" id="DejaVuSans-49"/>
      <path d="M 8.203125 72.90625 
L 55.078125 72.90625 
L 55.078125 68.703125 
L 28.609375 0 
L 18.3125 0 
L 43.21875 64.59375 
L 8.203125 64.59375 
z
" id="DejaVuSans-55"/>
     </defs>
     <g style="fill:#262626;" transform="translate(368.034063 288.845298)scale(0.11 -0.11)">
      <use xlink:href="#DejaVuSans-49"/>
      <use x="63.623047" xlink:href="#DejaVuSans-101"/>
      <use x="125.146484" xlink:href="#DejaVuSans-55"/>
     </g>
    </g>
   </g>
   <g id="matplotlib.axis_2">
    <g id="ytick_1">
     <g id="line2d_6">
      <path clip-path="url(#pf11cc5b156)" d="M 54 243.547618 
L 388.8 243.547618 
" style="fill:none;stroke:#ffffff;stroke-linecap:round;"/>
     </g>
     <g id="text_8">
      <!-- 30 -->
      <defs>
       <path d="M 40.578125 39.3125 
Q 47.65625 37.796875 51.625 33 
Q 55.609375 28.21875 55.609375 21.1875 
Q 55.609375 10.40625 48.1875 4.484375 
Q 40.765625 -1.421875 27.09375 -1.421875 
Q 22.515625 -1.421875 17.65625 -0.515625 
Q 12.796875 0.390625 7.625 2.203125 
L 7.625 11.71875 
Q 11.71875 9.328125 16.59375 8.109375 
Q 21.484375 6.890625 26.8125 6.890625 
Q 36.078125 6.890625 40.9375 10.546875 
Q 45.796875 14.203125 45.796875 21.1875 
Q 45.796875 27.640625 41.28125 31.265625 
Q 36.765625 34.90625 28.71875 34.90625 
L 20.21875 34.90625 
L 20.21875 43.015625 
L 29.109375 43.015625 
Q 36.375 43.015625 40.234375 45.921875 
Q 44.09375 48.828125 44.09375 54.296875 
Q 44.09375 59.90625 40.109375 62.90625 
Q 36.140625 65.921875 28.71875 65.921875 
Q 24.65625 65.921875 20.015625 65.03125 
Q 15.375 64.15625 9.8125 62.3125 
L 9.8125 71.09375 
Q 15.4375 72.65625 20.34375 73.4375 
Q 25.25 74.21875 29.59375 74.21875 
Q 40.828125 74.21875 47.359375 69.109375 
Q 53.90625 64.015625 53.90625 55.328125 
Q 53.90625 49.265625 50.4375 45.09375 
Q 46.96875 40.921875 40.578125 39.3125 
z
" id="DejaVuSans-51"/>
      </defs>
      <g style="fill:#262626;" transform="translate(30.5025 247.726759)scale(0.11 -0.11)">
       <use xlink:href="#DejaVuSans-51"/>
       <use x="63.623047" xlink:href="#DejaVuSans-48"/>
      </g>
     </g>
    </g>
    <g id="ytick_2">
     <g id="line2d_7">
      <path clip-path="url(#pf11cc5b156)" d="M 54 206.794068 
L 388.8 206.794068 
" style="fill:none;stroke:#ffffff;stroke-linecap:round;"/>
     </g>
     <g id="text_9">
      <!-- 40 -->
      <g style="fill:#262626;" transform="translate(30.5025 210.973208)scale(0.11 -0.11)">
       <use xlink:href="#DejaVuSans-52"/>
       <use x="63.623047" xlink:href="#DejaVuSans-48"/>
      </g>
     </g>
    </g>
    <g id="ytick_3">
     <g id="line2d_8">
      <path clip-path="url(#pf11cc5b156)" d="M 54 170.040517 
L 388.8 170.040517 
" style="fill:none;stroke:#ffffff;stroke-linecap:round;"/>
     </g>
     <g id="text_10">
      <!-- 50 -->
      <defs>
       <path d="M 10.796875 72.90625 
L 49.515625 72.90625 
L 49.515625 64.59375 
L 19.828125 64.59375 
L 19.828125 46.734375 
Q 21.96875 47.46875 24.109375 47.828125 
Q 26.265625 48.1875 28.421875 48.1875 
Q 40.625 48.1875 47.75 41.5 
Q 54.890625 34.8125 54.890625 23.390625 
Q 54.890625 11.625 47.5625 5.09375 
Q 40.234375 -1.421875 26.90625 -1.421875 
Q 22.3125 -1.421875 17.546875 -0.640625 
Q 12.796875 0.140625 7.71875 1.703125 
L 7.71875 11.625 
Q 12.109375 9.234375 16.796875 8.0625 
Q 21.484375 6.890625 26.703125 6.890625 
Q 35.15625 6.890625 40.078125 11.328125 
Q 45.015625 15.765625 45.015625 23.390625 
Q 45.015625 31 40.078125 35.4375 
Q 35.15625 39.890625 26.703125 39.890625 
Q 22.75 39.890625 18.8125 39.015625 
Q 14.890625 38.140625 10.796875 36.28125 
z
" id="DejaVuSans-53"/>
      </defs>
      <g style="fill:#262626;" transform="translate(30.5025 174.219658)scale(0.11 -0.11)">
       <use xlink:href="#DejaVuSans-53"/>
       <use x="63.623047" xlink:href="#DejaVuSans-48"/>
      </g>
     </g>
    </g>
    <g id="ytick_4">
     <g id="line2d_9">
      <path clip-path="url(#pf11cc5b156)" d="M 54 133.286967 
L 388.8 133.286967 
" style="fill:none;stroke:#ffffff;stroke-linecap:round;"/>
     </g>
     <g id="text_11">
      <!-- 60 -->
      <g style="fill:#262626;" transform="translate(30.5025 137.466107)scale(0.11 -0.11)">
       <use xlink:href="#DejaVuSans-54"/>
       <use x="63.623047" xlink:href="#DejaVuSans-48"/>
      </g>
     </g>
    </g>
    <g id="ytick_5">
     <g id="line2d_10">
      <path clip-path="url(#pf11cc5b156)" d="M 54 96.533416 
L 388.8 96.533416 
" style="fill:none;stroke:#ffffff;stroke-linecap:round;"/>
     </g>
     <g id="text_12">
      <!-- 70 -->
      <g style="fill:#262626;" transform="translate(30.5025 100.712557)scale(0.11 -0.11)">
       <use xlink:href="#DejaVuSans-55"/>
       <use x="63.623047" xlink:href="#DejaVuSans-48"/>
      </g>
     </g>
    </g>
    <g id="ytick_6">
     <g id="line2d_11">
      <path clip-path="url(#pf11cc5b156)" d="M 54 59.779866 
L 388.8 59.779866 
" style="fill:none;stroke:#ffffff;stroke-linecap:round;"/>
     </g>
     <g id="text_13">
      <!-- 80 -->
      <g style="fill:#262626;" transform="translate(30.5025 63.959007)scale(0.11 -0.11)">
       <use xlink:href="#DejaVuSans-56"/>
       <use x="63.623047" xlink:href="#DejaVuSans-48"/>
      </g>
     </g>
    </g>
    <g id="text_14">
     <!-- Baseline Smoothed -->
     <defs>
      <path d="M 19.671875 34.8125 
L 19.671875 8.109375 
L 35.5 8.109375 
Q 43.453125 8.109375 47.28125 11.40625 
Q 51.125 14.703125 51.125 21.484375 
Q 51.125 28.328125 47.28125 31.5625 
Q 43.453125 34.8125 35.5 34.8125 
z
M 19.671875 64.796875 
L 19.671875 42.828125 
L 34.28125 42.828125 
Q 41.5 42.828125 45.03125 45.53125 
Q 48.578125 48.25 48.578125 53.8125 
Q 48.578125 59.328125 45.03125 62.0625 
Q 41.5 64.796875 34.28125 64.796875 
z
M 9.8125 72.90625 
L 35.015625 72.90625 
Q 46.296875 72.90625 52.390625 68.21875 
Q 58.5 63.53125 58.5 54.890625 
Q 58.5 48.1875 55.375 44.234375 
Q 52.25 40.28125 46.1875 39.3125 
Q 53.46875 37.75 57.5 32.78125 
Q 61.53125 27.828125 61.53125 20.40625 
Q 61.53125 10.640625 54.890625 5.3125 
Q 48.25 0 35.984375 0 
L 9.8125 0 
z
" id="DejaVuSans-66"/>
      <path d="M 9.421875 75.984375 
L 18.40625 75.984375 
L 18.40625 0 
L 9.421875 0 
z
" id="DejaVuSans-108"/>
      <path d="M 53.515625 70.515625 
L 53.515625 60.890625 
Q 47.90625 63.578125 42.921875 64.890625 
Q 37.9375 66.21875 33.296875 66.21875 
Q 25.25 66.21875 20.875 63.09375 
Q 16.5 59.96875 16.5 54.203125 
Q 16.5 49.359375 19.40625 46.890625 
Q 22.3125 44.4375 30.421875 42.921875 
L 36.375 41.703125 
Q 47.40625 39.59375 52.65625 34.296875 
Q 57.90625 29 57.90625 20.125 
Q 57.90625 9.515625 50.796875 4.046875 
Q 43.703125 -1.421875 29.984375 -1.421875 
Q 24.8125 -1.421875 18.96875 -0.25 
Q 13.140625 0.921875 6.890625 3.21875 
L 6.890625 13.375 
Q 12.890625 10.015625 18.65625 8.296875 
Q 24.421875 6.59375 29.984375 6.59375 
Q 38.421875 6.59375 43.015625 9.90625 
Q 47.609375 13.234375 47.609375 19.390625 
Q 47.609375 24.75 44.3125 27.78125 
Q 41.015625 30.8125 33.5 32.328125 
L 27.484375 33.5 
Q 16.453125 35.6875 11.515625 40.375 
Q 6.59375 45.0625 6.59375 53.421875 
Q 6.59375 63.09375 13.40625 68.65625 
Q 20.21875 74.21875 32.171875 74.21875 
Q 37.3125 74.21875 42.625 73.28125 
Q 47.953125 72.359375 53.515625 70.515625 
z
" id="DejaVuSans-83"/>
     </defs>
     <g style="fill:#262626;" transform="translate(24.006875 201.2775)rotate(-90)scale(0.12 -0.12)">
      <use xlink:href="#DejaVuSans-66"/>
      <use x="68.603516" xlink:href="#DejaVuSans-97"/>
      <use x="129.882812" xlink:href="#DejaVuSans-115"/>
      <use x="181.982422" xlink:href="#DejaVuSans-101"/>
      <use x="243.505859" xlink:href="#DejaVuSans-108"/>
      <use x="271.289062" xlink:href="#DejaVuSans-105"/>
      <use x="299.072266" xlink:href="#DejaVuSans-110"/>
      <use x="362.451172" xlink:href="#DejaVuSans-101"/>
      <use x="423.974609" xlink:href="#DejaVuSans-32"/>
      <use x="455.761719" xlink:href="#DejaVuSans-83"/>
      <use x="519.238281" xlink:href="#DejaVuSans-109"/>
      <use x="616.650391" xlink:href="#DejaVuSans-111"/>
      <use x="677.832031" xlink:href="#DejaVuSans-111"/>
      <use x="739.013672" xlink:href="#DejaVuSans-116"/>
      <use x="778.222656" xlink:href="#DejaVuSans-104"/>
      <use x="841.601562" xlink:href="#DejaVuSans-101"/>
      <use x="903.125" xlink:href="#DejaVuSans-100"/>
     </g>
    </g>
   </g>
   <g id="PathCollection_1">
    <defs>
     <path d="M 0 3 
C 0.795609 3 1.55874 2.683901 2.12132 2.12132 
C 2.683901 1.55874 3 0.795609 3 0 
C 3 -0.795609 2.683901 -1.55874 2.12132 -2.12132 
C 1.55874 -2.683901 0.795609 -3 0 -3 
C -0.795609 -3 -1.55874 -2.683901 -2.12132 -2.12132 
C -2.683901 -1.55874 -3 -0.795609 -3 0 
C -3 0.795609 -2.683901 1.55874 -2.12132 2.12132 
C -1.55874 2.683901 -0.795609 3 0 3 
z
" id="C0_0_f2ce7545c0"/>
    </defs>
    <g clip-path="url(#pf11cc5b156)">
     <use style="fill:#0000ff;stroke:#0000ff;" x="70.52483" xlink:href="#C0_0_f2ce7545c0" y="95.890042"/>
    </g>
    <g clip-path="url(#pf11cc5b156)">
     <use style="fill:#0001fe;stroke:#0001fe;" x="70.911854" xlink:href="#C0_0_f2ce7545c0" y="101.510949"/>
    </g>
    <g clip-path="url(#pf11cc5b156)">
     <use style="fill:#0002fe;stroke:#0002fe;" x="71.311498" xlink:href="#C0_0_f2ce7545c0" y="107.117099"/>
    </g>
    <g clip-path="url(#pf11cc5b156)">
     <use style="fill:#0003fe;stroke:#0003fe;" x="71.775133" xlink:href="#C0_0_f2ce7545c0" y="117.837477"/>
    </g>
    <g clip-path="url(#pf11cc5b156)">
     <use style="fill:#0004fd;stroke:#0004fd;" x="72.474279" xlink:href="#C0_0_f2ce7545c0" y="140.539971"/>
    </g>
    <g clip-path="url(#pf11cc5b156)">
     <use style="fill:#0006fc;stroke:#0006fc;" x="73.158949" xlink:href="#C0_0_f2ce7545c0" y="165.380683"/>
    </g>
    <g clip-path="url(#pf11cc5b156)">
     <use style="fill:#0007fc;stroke:#0007fc;" x="73.923792" xlink:href="#C0_0_f2ce7545c0" y="175.911902"/>
    </g>
    <g clip-path="url(#pf11cc5b156)">
     <use style="fill:#0008fb;stroke:#0008fb;" x="74.670634" xlink:href="#C0_0_f2ce7545c0" y="177.431051"/>
    </g>
    <g clip-path="url(#pf11cc5b156)">
     <use style="fill:#0009fa;stroke:#0009fa;" x="75.486959" xlink:href="#C0_0_f2ce7545c0" y="175.159245"/>
    </g>
    <g clip-path="url(#pf11cc5b156)">
     <use style="fill:#000bfa;stroke:#000bfa;" x="76.504165" xlink:href="#C0_0_f2ce7545c0" y="164.767119"/>
    </g>
    <g clip-path="url(#pf11cc5b156)">
     <use style="fill:#000cf9;stroke:#000cf9;" x="77.476124" xlink:href="#C0_0_f2ce7545c0" y="157.486867"/>
    </g>
    <g clip-path="url(#pf11cc5b156)">
     <use style="fill:#000df8;stroke:#000df8;" x="78.660952" xlink:href="#C0_0_f2ce7545c0" y="170.614576"/>
    </g>
    <g clip-path="url(#pf11cc5b156)">
     <use style="fill:#000ef8;stroke:#000ef8;" x="79.891027" xlink:href="#C0_0_f2ce7545c0" y="188.853531"/>
    </g>
    <g clip-path="url(#pf11cc5b156)">
     <use style="fill:#0010f7;stroke:#0010f7;" x="81.140848" xlink:href="#C0_0_f2ce7545c0" y="191.991967"/>
    </g>
    <g clip-path="url(#pf11cc5b156)">
     <use style="fill:#0011f6;stroke:#0011f6;" x="82.290526" xlink:href="#C0_0_f2ce7545c0" y="190.561946"/>
    </g>
    <g clip-path="url(#pf11cc5b156)">
     <use style="fill:#0012f6;stroke:#0012f6;" x="83.417562" xlink:href="#C0_0_f2ce7545c0" y="185.741487"/>
    </g>
    <g clip-path="url(#pf11cc5b156)">
     <use style="fill:#0013f6;stroke:#0013f6;" x="84.560967" xlink:href="#C0_0_f2ce7545c0" y="173.861556"/>
    </g>
    <g clip-path="url(#pf11cc5b156)">
     <use style="fill:#0014f5;stroke:#0014f5;" x="85.824856" xlink:href="#C0_0_f2ce7545c0" y="180.240741"/>
    </g>
    <g clip-path="url(#pf11cc5b156)">
     <use style="fill:#0016f4;stroke:#0016f4;" x="87.080727" xlink:href="#C0_0_f2ce7545c0" y="207.484228"/>
    </g>
    <g clip-path="url(#pf11cc5b156)">
     <use style="fill:#0017f4;stroke:#0017f4;" x="88.434069" xlink:href="#C0_0_f2ce7545c0" y="231.26195"/>
    </g>
    <g clip-path="url(#pf11cc5b156)">
     <use style="fill:#0018f3;stroke:#0018f3;" x="89.586753" xlink:href="#C0_0_f2ce7545c0" y="242.065655"/>
    </g>
    <g clip-path="url(#pf11cc5b156)">
     <use style="fill:#0019f2;stroke:#0019f2;" x="90.692521" xlink:href="#C0_0_f2ce7545c0" y="237.738598"/>
    </g>
    <g clip-path="url(#pf11cc5b156)">
     <use style="fill:#001bf2;stroke:#001bf2;" x="91.682854" xlink:href="#C0_0_f2ce7545c0" y="212.892608"/>
    </g>
    <g clip-path="url(#pf11cc5b156)">
     <use style="fill:#001cf1;stroke:#001cf1;" x="92.736471" xlink:href="#C0_0_f2ce7545c0" y="185.243766"/>
    </g>
    <g clip-path="url(#pf11cc5b156)">
     <use style="fill:#001df0;stroke:#001df0;" x="93.842685" xlink:href="#C0_0_f2ce7545c0" y="171.282655"/>
    </g>
    <g clip-path="url(#pf11cc5b156)">
     <use style="fill:#001ef0;stroke:#001ef0;" x="95.104012" xlink:href="#C0_0_f2ce7545c0" y="179.723361"/>
    </g>
    <g clip-path="url(#pf11cc5b156)">
     <use style="fill:#0020ef;stroke:#0020ef;" x="96.361739" xlink:href="#C0_0_f2ce7545c0" y="196.011042"/>
    </g>
    <g clip-path="url(#pf11cc5b156)">
     <use style="fill:#0021ee;stroke:#0021ee;" x="97.623104" xlink:href="#C0_0_f2ce7545c0" y="201.707091"/>
    </g>
    <g clip-path="url(#pf11cc5b156)">
     <use style="fill:#0022ee;stroke:#0022ee;" x="98.66503" xlink:href="#C0_0_f2ce7545c0" y="200.666473"/>
    </g>
    <g clip-path="url(#pf11cc5b156)">
     <use style="fill:#0023ee;stroke:#0023ee;" x="99.675591" xlink:href="#C0_0_f2ce7545c0" y="193.480085"/>
    </g>
    <g clip-path="url(#pf11cc5b156)">
     <use style="fill:#0024ed;stroke:#0024ed;" x="100.760796" xlink:href="#C0_0_f2ce7545c0" y="177.235388"/>
    </g>
    <g clip-path="url(#pf11cc5b156)">
     <use style="fill:#0026ec;stroke:#0026ec;" x="101.898893" xlink:href="#C0_0_f2ce7545c0" y="167.305625"/>
    </g>
    <g clip-path="url(#pf11cc5b156)">
     <use style="fill:#0027ec;stroke:#0027ec;" x="103.028082" xlink:href="#C0_0_f2ce7545c0" y="179.521645"/>
    </g>
    <g clip-path="url(#pf11cc5b156)">
     <use style="fill:#0028eb;stroke:#0028eb;" x="104.40414" xlink:href="#C0_0_f2ce7545c0" y="194.955325"/>
    </g>
    <g clip-path="url(#pf11cc5b156)">
     <use style="fill:#0029eb;stroke:#0029eb;" x="105.674561" xlink:href="#C0_0_f2ce7545c0" y="195.333448"/>
    </g>
    <g clip-path="url(#pf11cc5b156)">
     <use style="fill:#002bea;stroke:#002bea;" x="106.759098" xlink:href="#C0_0_f2ce7545c0" y="190.36032"/>
    </g>
    <g clip-path="url(#pf11cc5b156)">
     <use style="fill:#002ce9;stroke:#002ce9;" x="107.677571" xlink:href="#C0_0_f2ce7545c0" y="183.666758"/>
    </g>
    <g clip-path="url(#pf11cc5b156)">
     <use style="fill:#002de8;stroke:#002de8;" x="108.643183" xlink:href="#C0_0_f2ce7545c0" y="167.504593"/>
    </g>
    <g clip-path="url(#pf11cc5b156)">
     <use style="fill:#002ee8;stroke:#002ee8;" x="109.719925" xlink:href="#C0_0_f2ce7545c0" y="158.267858"/>
    </g>
    <g clip-path="url(#pf11cc5b156)">
     <use style="fill:#0030e7;stroke:#0030e7;" x="110.870605" xlink:href="#C0_0_f2ce7545c0" y="173.150277"/>
    </g>
    <g clip-path="url(#pf11cc5b156)">
     <use style="fill:#0031e6;stroke:#0031e6;" x="112.202604" xlink:href="#C0_0_f2ce7545c0" y="192.309869"/>
    </g>
    <g clip-path="url(#pf11cc5b156)">
     <use style="fill:#0032e6;stroke:#0032e6;" x="113.333909" xlink:href="#C0_0_f2ce7545c0" y="197.69641"/>
    </g>
    <g clip-path="url(#pf11cc5b156)">
     <use style="fill:#0033e6;stroke:#0033e6;" x="114.374239" xlink:href="#C0_0_f2ce7545c0" y="197.890242"/>
    </g>
    <g clip-path="url(#pf11cc5b156)">
     <use style="fill:#0034e5;stroke:#0034e5;" x="115.255891" xlink:href="#C0_0_f2ce7545c0" y="193.566681"/>
    </g>
    <g clip-path="url(#pf11cc5b156)">
     <use style="fill:#0036e4;stroke:#0036e4;" x="116.189508" xlink:href="#C0_0_f2ce7545c0" y="178.490179"/>
    </g>
    <g clip-path="url(#pf11cc5b156)">
     <use style="fill:#0037e3;stroke:#0037e3;" x="117.142946" xlink:href="#C0_0_f2ce7545c0" y="167.608231"/>
    </g>
    <g clip-path="url(#pf11cc5b156)">
     <use style="fill:#0038e3;stroke:#0038e3;" x="118.251423" xlink:href="#C0_0_f2ce7545c0" y="177.798649"/>
    </g>
    <g clip-path="url(#pf11cc5b156)">
     <use style="fill:#0039e2;stroke:#0039e2;" x="119.300142" xlink:href="#C0_0_f2ce7545c0" y="193.203361"/>
    </g>
    <g clip-path="url(#pf11cc5b156)">
     <use style="fill:#003be2;stroke:#003be2;" x="120.296673" xlink:href="#C0_0_f2ce7545c0" y="196.655089"/>
    </g>
    <g clip-path="url(#pf11cc5b156)">
     <use style="fill:#003ce1;stroke:#003ce1;" x="121.07087" xlink:href="#C0_0_f2ce7545c0" y="194.311412"/>
    </g>
    <g clip-path="url(#pf11cc5b156)">
     <use style="fill:#003de0;stroke:#003de0;" x="121.803421" xlink:href="#C0_0_f2ce7545c0" y="188.525401"/>
    </g>
    <g clip-path="url(#pf11cc5b156)">
     <use style="fill:#003ee0;stroke:#003ee0;" x="122.649886" xlink:href="#C0_0_f2ce7545c0" y="171.817381"/>
    </g>
    <g clip-path="url(#pf11cc5b156)">
     <use style="fill:#0040df;stroke:#0040df;" x="123.464653" xlink:href="#C0_0_f2ce7545c0" y="161.931522"/>
    </g>
    <g clip-path="url(#pf11cc5b156)">
     <use style="fill:#0041de;stroke:#0041de;" x="124.521871" xlink:href="#C0_0_f2ce7545c0" y="176.159545"/>
    </g>
    <g clip-path="url(#pf11cc5b156)">
     <use style="fill:#0042de;stroke:#0042de;" x="125.491121" xlink:href="#C0_0_f2ce7545c0" y="203.385373"/>
    </g>
    <g clip-path="url(#pf11cc5b156)">
     <use style="fill:#0043de;stroke:#0043de;" x="126.463451" xlink:href="#C0_0_f2ce7545c0" y="226.902401"/>
    </g>
    <g clip-path="url(#pf11cc5b156)">
     <use style="fill:#0044dd;stroke:#0044dd;" x="127.206024" xlink:href="#C0_0_f2ce7545c0" y="230.940462"/>
    </g>
    <g clip-path="url(#pf11cc5b156)">
     <use style="fill:#0046dc;stroke:#0046dc;" x="128.043618" xlink:href="#C0_0_f2ce7545c0" y="218.247181"/>
    </g>
    <g clip-path="url(#pf11cc5b156)">
     <use style="fill:#0047dc;stroke:#0047dc;" x="128.832254" xlink:href="#C0_0_f2ce7545c0" y="190.994779"/>
    </g>
    <g clip-path="url(#pf11cc5b156)">
     <use style="fill:#0048db;stroke:#0048db;" x="129.734432" xlink:href="#C0_0_f2ce7545c0" y="159.483503"/>
    </g>
    <g clip-path="url(#pf11cc5b156)">
     <use style="fill:#0049db;stroke:#0049db;" x="130.714855" xlink:href="#C0_0_f2ce7545c0" y="149.978306"/>
    </g>
    <g clip-path="url(#pf11cc5b156)">
     <use style="fill:#004bda;stroke:#004bda;" x="131.638264" xlink:href="#C0_0_f2ce7545c0" y="162.148565"/>
    </g>
    <g clip-path="url(#pf11cc5b156)">
     <use style="fill:#004cd9;stroke:#004cd9;" x="132.484878" xlink:href="#C0_0_f2ce7545c0" y="163.402376"/>
    </g>
    <g clip-path="url(#pf11cc5b156)">
     <use style="fill:#004dd8;stroke:#004dd8;" x="133.282904" xlink:href="#C0_0_f2ce7545c0" y="162.675092"/>
    </g>
    <g clip-path="url(#pf11cc5b156)">
     <use style="fill:#004ed8;stroke:#004ed8;" x="134.025663" xlink:href="#C0_0_f2ce7545c0" y="159.609879"/>
    </g>
    <g clip-path="url(#pf11cc5b156)">
     <use style="fill:#0050d7;stroke:#0050d7;" x="134.750122" xlink:href="#C0_0_f2ce7545c0" y="139.555478"/>
    </g>
    <g clip-path="url(#pf11cc5b156)">
     <use style="fill:#0051d6;stroke:#0051d6;" x="135.458659" xlink:href="#C0_0_f2ce7545c0" y="124.947865"/>
    </g>
    <g clip-path="url(#pf11cc5b156)">
     <use style="fill:#0052d6;stroke:#0052d6;" x="136.33003" xlink:href="#C0_0_f2ce7545c0" y="135.233779"/>
    </g>
    <g clip-path="url(#pf11cc5b156)">
     <use style="fill:#0053d6;stroke:#0053d6;" x="137.259378" xlink:href="#C0_0_f2ce7545c0" y="150.774529"/>
    </g>
    <g clip-path="url(#pf11cc5b156)">
     <use style="fill:#0054d5;stroke:#0054d5;" x="138.181637" xlink:href="#C0_0_f2ce7545c0" y="151.111261"/>
    </g>
    <g clip-path="url(#pf11cc5b156)">
     <use style="fill:#0056d4;stroke:#0056d4;" x="138.951714" xlink:href="#C0_0_f2ce7545c0" y="147.867135"/>
    </g>
    <g clip-path="url(#pf11cc5b156)">
     <use style="fill:#0057d3;stroke:#0057d3;" x="139.751968" xlink:href="#C0_0_f2ce7545c0" y="142.181333"/>
    </g>
    <g clip-path="url(#pf11cc5b156)">
     <use style="fill:#0058d3;stroke:#0058d3;" x="140.546728" xlink:href="#C0_0_f2ce7545c0" y="125.494165"/>
    </g>
    <g clip-path="url(#pf11cc5b156)">
     <use style="fill:#0059d2;stroke:#0059d2;" x="141.299917" xlink:href="#C0_0_f2ce7545c0" y="115.035481"/>
    </g>
    <g clip-path="url(#pf11cc5b156)">
     <use style="fill:#005bd2;stroke:#005bd2;" x="142.089889" xlink:href="#C0_0_f2ce7545c0" y="128.59298"/>
    </g>
    <g clip-path="url(#pf11cc5b156)">
     <use style="fill:#005cd1;stroke:#005cd1;" x="143.223383" xlink:href="#C0_0_f2ce7545c0" y="147.06493"/>
    </g>
    <g clip-path="url(#pf11cc5b156)">
     <use style="fill:#005dd0;stroke:#005dd0;" x="144.090671" xlink:href="#C0_0_f2ce7545c0" y="151.903961"/>
    </g>
    <g clip-path="url(#pf11cc5b156)">
     <use style="fill:#005ed0;stroke:#005ed0;" x="144.786551" xlink:href="#C0_0_f2ce7545c0" y="151.532767"/>
    </g>
    <g clip-path="url(#pf11cc5b156)">
     <use style="fill:#0060cf;stroke:#0060cf;" x="145.457932" xlink:href="#C0_0_f2ce7545c0" y="145.63732"/>
    </g>
    <g clip-path="url(#pf11cc5b156)">
     <use style="fill:#0061ce;stroke:#0061ce;" x="146.140301" xlink:href="#C0_0_f2ce7545c0" y="127.270221"/>
    </g>
    <g clip-path="url(#pf11cc5b156)">
     <use style="fill:#0062ce;stroke:#0062ce;" x="146.931312" xlink:href="#C0_0_f2ce7545c0" y="112.725767"/>
    </g>
    <g clip-path="url(#pf11cc5b156)">
     <use style="fill:#0063ce;stroke:#0063ce;" x="147.796113" xlink:href="#C0_0_f2ce7545c0" y="120.907185"/>
    </g>
    <g clip-path="url(#pf11cc5b156)">
     <use style="fill:#0064cd;stroke:#0064cd;" x="148.757123" xlink:href="#C0_0_f2ce7545c0" y="134.709576"/>
    </g>
    <g clip-path="url(#pf11cc5b156)">
     <use style="fill:#0066cc;stroke:#0066cc;" x="149.716017" xlink:href="#C0_0_f2ce7545c0" y="133.027209"/>
    </g>
    <g clip-path="url(#pf11cc5b156)">
     <use style="fill:#0067cc;stroke:#0067cc;" x="150.449904" xlink:href="#C0_0_f2ce7545c0" y="128.072311"/>
    </g>
    <g clip-path="url(#pf11cc5b156)">
     <use style="fill:#0068cb;stroke:#0068cb;" x="151.20146" xlink:href="#C0_0_f2ce7545c0" y="122.244197"/>
    </g>
    <g clip-path="url(#pf11cc5b156)">
     <use style="fill:#0069cb;stroke:#0069cb;" x="152.091092" xlink:href="#C0_0_f2ce7545c0" y="106.279948"/>
    </g>
    <g clip-path="url(#pf11cc5b156)">
     <use style="fill:#006bca;stroke:#006bca;" x="153.052844" xlink:href="#C0_0_f2ce7545c0" y="98.770178"/>
    </g>
    <g clip-path="url(#pf11cc5b156)">
     <use style="fill:#006cc9;stroke:#006cc9;" x="154.093656" xlink:href="#C0_0_f2ce7545c0" y="118.529715"/>
    </g>
    <g clip-path="url(#pf11cc5b156)">
     <use style="fill:#006dc8;stroke:#006dc8;" x="155.285574" xlink:href="#C0_0_f2ce7545c0" y="142.197025"/>
    </g>
    <g clip-path="url(#pf11cc5b156)">
     <use style="fill:#006ec8;stroke:#006ec8;" x="156.491411" xlink:href="#C0_0_f2ce7545c0" y="146.960479"/>
    </g>
    <g clip-path="url(#pf11cc5b156)">
     <use style="fill:#0070c7;stroke:#0070c7;" x="157.472241" xlink:href="#C0_0_f2ce7545c0" y="145.987745"/>
    </g>
    <g clip-path="url(#pf11cc5b156)">
     <use style="fill:#0071c6;stroke:#0071c6;" x="158.634465" xlink:href="#C0_0_f2ce7545c0" y="140.267239"/>
    </g>
    <g clip-path="url(#pf11cc5b156)">
     <use style="fill:#0072c6;stroke:#0072c6;" x="159.931722" xlink:href="#C0_0_f2ce7545c0" y="121.620573"/>
    </g>
    <g clip-path="url(#pf11cc5b156)">
     <use style="fill:#0073c6;stroke:#0073c6;" x="161.218067" xlink:href="#C0_0_f2ce7545c0" y="110.471792"/>
    </g>
    <g clip-path="url(#pf11cc5b156)">
     <use style="fill:#0074c5;stroke:#0074c5;" x="162.744525" xlink:href="#C0_0_f2ce7545c0" y="123.19498"/>
    </g>
    <g clip-path="url(#pf11cc5b156)">
     <use style="fill:#0076c4;stroke:#0076c4;" x="164.428769" xlink:href="#C0_0_f2ce7545c0" y="139.396791"/>
    </g>
    <g clip-path="url(#pf11cc5b156)">
     <use style="fill:#0077c3;stroke:#0077c3;" x="166.013761" xlink:href="#C0_0_f2ce7545c0" y="145.107332"/>
    </g>
    <g clip-path="url(#pf11cc5b156)">
     <use style="fill:#0078c3;stroke:#0078c3;" x="167.462755" xlink:href="#C0_0_f2ce7545c0" y="146.034896"/>
    </g>
    <g clip-path="url(#pf11cc5b156)">
     <use style="fill:#0079c2;stroke:#0079c2;" x="169.030265" xlink:href="#C0_0_f2ce7545c0" y="142.370385"/>
    </g>
    <g clip-path="url(#pf11cc5b156)">
     <use style="fill:#007bc2;stroke:#007bc2;" x="170.693798" xlink:href="#C0_0_f2ce7545c0" y="133.482611"/>
    </g>
    <g clip-path="url(#pf11cc5b156)">
     <use style="fill:#007cc1;stroke:#007cc1;" x="172.585306" xlink:href="#C0_0_f2ce7545c0" y="129.105828"/>
    </g>
    <g clip-path="url(#pf11cc5b156)">
     <use style="fill:#007dc0;stroke:#007dc0;" x="174.586126" xlink:href="#C0_0_f2ce7545c0" y="141.055419"/>
    </g>
    <g clip-path="url(#pf11cc5b156)">
     <use style="fill:#007ec0;stroke:#007ec0;" x="176.609699" xlink:href="#C0_0_f2ce7545c0" y="156.637871"/>
    </g>
    <g clip-path="url(#pf11cc5b156)">
     <use style="fill:#0080bf;stroke:#0080bf;" x="178.294908" xlink:href="#C0_0_f2ce7545c0" y="155.815804"/>
    </g>
    <g clip-path="url(#pf11cc5b156)">
     <use style="fill:#0081be;stroke:#0081be;" x="180.124022" xlink:href="#C0_0_f2ce7545c0" y="148.751846"/>
    </g>
    <g clip-path="url(#pf11cc5b156)">
     <use style="fill:#0082be;stroke:#0082be;" x="181.875746" xlink:href="#C0_0_f2ce7545c0" y="139.577369"/>
    </g>
    <g clip-path="url(#pf11cc5b156)">
     <use style="fill:#0083be;stroke:#0083be;" x="184.106509" xlink:href="#C0_0_f2ce7545c0" y="120.454451"/>
    </g>
    <g clip-path="url(#pf11cc5b156)">
     <use style="fill:#0084bd;stroke:#0084bd;" x="186.292026" xlink:href="#C0_0_f2ce7545c0" y="107.596986"/>
    </g>
    <g clip-path="url(#pf11cc5b156)">
     <use style="fill:#0086bc;stroke:#0086bc;" x="188.647244" xlink:href="#C0_0_f2ce7545c0" y="120.58708"/>
    </g>
    <g clip-path="url(#pf11cc5b156)">
     <use style="fill:#0087bc;stroke:#0087bc;" x="191.12224" xlink:href="#C0_0_f2ce7545c0" y="137.254814"/>
    </g>
    <g clip-path="url(#pf11cc5b156)">
     <use style="fill:#0088bb;stroke:#0088bb;" x="193.397135" xlink:href="#C0_0_f2ce7545c0" y="140.362394"/>
    </g>
    <g clip-path="url(#pf11cc5b156)">
     <use style="fill:#0089bb;stroke:#0089bb;" x="195.584359" xlink:href="#C0_0_f2ce7545c0" y="140.697082"/>
    </g>
    <g clip-path="url(#pf11cc5b156)">
     <use style="fill:#008bba;stroke:#008bba;" x="197.792666" xlink:href="#C0_0_f2ce7545c0" y="135.793756"/>
    </g>
    <g clip-path="url(#pf11cc5b156)">
     <use style="fill:#008cb9;stroke:#008cb9;" x="200.304408" xlink:href="#C0_0_f2ce7545c0" y="118.984818"/>
    </g>
    <g clip-path="url(#pf11cc5b156)">
     <use style="fill:#008db8;stroke:#008db8;" x="202.767526" xlink:href="#C0_0_f2ce7545c0" y="110.741085"/>
    </g>
    <g clip-path="url(#pf11cc5b156)">
     <use style="fill:#008eb8;stroke:#008eb8;" x="205.683701" xlink:href="#C0_0_f2ce7545c0" y="126.67909"/>
    </g>
    <g clip-path="url(#pf11cc5b156)">
     <use style="fill:#0090b7;stroke:#0090b7;" x="208.334894" xlink:href="#C0_0_f2ce7545c0" y="145.052624"/>
    </g>
    <g clip-path="url(#pf11cc5b156)">
     <use style="fill:#0091b6;stroke:#0091b6;" x="210.698575" xlink:href="#C0_0_f2ce7545c0" y="148.953384"/>
    </g>
    <g clip-path="url(#pf11cc5b156)">
     <use style="fill:#0092b6;stroke:#0092b6;" x="212.982415" xlink:href="#C0_0_f2ce7545c0" y="145.741672"/>
    </g>
    <g clip-path="url(#pf11cc5b156)">
     <use style="fill:#0093b6;stroke:#0093b6;" x="215.27587" xlink:href="#C0_0_f2ce7545c0" y="136.230133"/>
    </g>
    <g clip-path="url(#pf11cc5b156)">
     <use style="fill:#0094b5;stroke:#0094b5;" x="217.67329" xlink:href="#C0_0_f2ce7545c0" y="115.228"/>
    </g>
    <g clip-path="url(#pf11cc5b156)">
     <use style="fill:#0096b4;stroke:#0096b4;" x="220.312086" xlink:href="#C0_0_f2ce7545c0" y="102.05513"/>
    </g>
    <g clip-path="url(#pf11cc5b156)">
     <use style="fill:#0097b3;stroke:#0097b3;" x="222.867107" xlink:href="#C0_0_f2ce7545c0" y="115.524447"/>
    </g>
    <g clip-path="url(#pf11cc5b156)">
     <use style="fill:#0098b3;stroke:#0098b3;" x="225.614026" xlink:href="#C0_0_f2ce7545c0" y="133.392403"/>
    </g>
    <g clip-path="url(#pf11cc5b156)">
     <use style="fill:#0099b2;stroke:#0099b2;" x="228.03676" xlink:href="#C0_0_f2ce7545c0" y="136.428575"/>
    </g>
    <g clip-path="url(#pf11cc5b156)">
     <use style="fill:#009bb2;stroke:#009bb2;" x="230.101162" xlink:href="#C0_0_f2ce7545c0" y="135.511861"/>
    </g>
    <g clip-path="url(#pf11cc5b156)">
     <use style="fill:#009cb1;stroke:#009cb1;" x="232.209734" xlink:href="#C0_0_f2ce7545c0" y="129.170167"/>
    </g>
    <g clip-path="url(#pf11cc5b156)">
     <use style="fill:#009db0;stroke:#009db0;" x="234.654294" xlink:href="#C0_0_f2ce7545c0" y="109.996703"/>
    </g>
    <g clip-path="url(#pf11cc5b156)">
     <use style="fill:#009eb0;stroke:#009eb0;" x="237.29116" xlink:href="#C0_0_f2ce7545c0" y="101.711619"/>
    </g>
    <g clip-path="url(#pf11cc5b156)">
     <use style="fill:#00a0af;stroke:#00a0af;" x="239.809286" xlink:href="#C0_0_f2ce7545c0" y="119.447004"/>
    </g>
    <g clip-path="url(#pf11cc5b156)">
     <use style="fill:#00a1ae;stroke:#00a1ae;" x="242.311675" xlink:href="#C0_0_f2ce7545c0" y="151.541623"/>
    </g>
    <g clip-path="url(#pf11cc5b156)">
     <use style="fill:#00a2ae;stroke:#00a2ae;" x="244.448048" xlink:href="#C0_0_f2ce7545c0" y="181.006725"/>
    </g>
    <g clip-path="url(#pf11cc5b156)">
     <use style="fill:#00a3ae;stroke:#00a3ae;" x="246.200625" xlink:href="#C0_0_f2ce7545c0" y="186.37965"/>
    </g>
    <g clip-path="url(#pf11cc5b156)">
     <use style="fill:#00a4ad;stroke:#00a4ad;" x="247.886132" xlink:href="#C0_0_f2ce7545c0" y="176.654944"/>
    </g>
    <g clip-path="url(#pf11cc5b156)">
     <use style="fill:#00a6ac;stroke:#00a6ac;" x="250.027553" xlink:href="#C0_0_f2ce7545c0" y="154.854222"/>
    </g>
    <g clip-path="url(#pf11cc5b156)">
     <use style="fill:#00a7ac;stroke:#00a7ac;" x="251.989473" xlink:href="#C0_0_f2ce7545c0" y="127.889784"/>
    </g>
    <g clip-path="url(#pf11cc5b156)">
     <use style="fill:#00a8ab;stroke:#00a8ab;" x="254.207728" xlink:href="#C0_0_f2ce7545c0" y="118.583953"/>
    </g>
    <g clip-path="url(#pf11cc5b156)">
     <use style="fill:#00a9ab;stroke:#00a9ab;" x="256.358205" xlink:href="#C0_0_f2ce7545c0" y="131.196028"/>
    </g>
    <g clip-path="url(#pf11cc5b156)">
     <use style="fill:#00abaa;stroke:#00abaa;" x="258.424946" xlink:href="#C0_0_f2ce7545c0" y="139.604874"/>
    </g>
    <g clip-path="url(#pf11cc5b156)">
     <use style="fill:#00aca9;stroke:#00aca9;" x="260.149314" xlink:href="#C0_0_f2ce7545c0" y="142.173811"/>
    </g>
    <g clip-path="url(#pf11cc5b156)">
     <use style="fill:#00ada8;stroke:#00ada8;" x="261.987448" xlink:href="#C0_0_f2ce7545c0" y="138.34288"/>
    </g>
    <g clip-path="url(#pf11cc5b156)">
     <use style="fill:#00aea8;stroke:#00aea8;" x="263.715751" xlink:href="#C0_0_f2ce7545c0" y="124.378906"/>
    </g>
    <g clip-path="url(#pf11cc5b156)">
     <use style="fill:#00b0a7;stroke:#00b0a7;" x="265.788615" xlink:href="#C0_0_f2ce7545c0" y="114.924423"/>
    </g>
    <g clip-path="url(#pf11cc5b156)">
     <use style="fill:#00b1a6;stroke:#00b1a6;" x="267.705809" xlink:href="#C0_0_f2ce7545c0" y="127.544199"/>
    </g>
    <g clip-path="url(#pf11cc5b156)">
     <use style="fill:#00b2a6;stroke:#00b2a6;" x="270.082704" xlink:href="#C0_0_f2ce7545c0" y="152.241345"/>
    </g>
    <g clip-path="url(#pf11cc5b156)">
     <use style="fill:#00b3a6;stroke:#00b3a6;" x="271.848236" xlink:href="#C0_0_f2ce7545c0" y="168.55494"/>
    </g>
    <g clip-path="url(#pf11cc5b156)">
     <use style="fill:#00b4a5;stroke:#00b4a5;" x="273.404053" xlink:href="#C0_0_f2ce7545c0" y="161.912976"/>
    </g>
    <g clip-path="url(#pf11cc5b156)">
     <use style="fill:#00b7a3;stroke:#00b7a3;" x="276.356678" xlink:href="#C0_0_f2ce7545c0" y="134.62955"/>
    </g>
    <g clip-path="url(#pf11cc5b156)">
     <use style="fill:#00b8a3;stroke:#00b8a3;" x="278.08409" xlink:href="#C0_0_f2ce7545c0" y="113.717457"/>
    </g>
    <g clip-path="url(#pf11cc5b156)">
     <use style="fill:#00b9a2;stroke:#00b9a2;" x="279.718411" xlink:href="#C0_0_f2ce7545c0" y="124.019485"/>
    </g>
    <g clip-path="url(#pf11cc5b156)">
     <use style="fill:#00bba2;stroke:#00bba2;" x="281.52544" xlink:href="#C0_0_f2ce7545c0" y="143.25137"/>
    </g>
    <g clip-path="url(#pf11cc5b156)">
     <use style="fill:#00bca1;stroke:#00bca1;" x="283.161803" xlink:href="#C0_0_f2ce7545c0" y="146.154293"/>
    </g>
    <g clip-path="url(#pf11cc5b156)">
     <use style="fill:#00bda0;stroke:#00bda0;" x="284.442432" xlink:href="#C0_0_f2ce7545c0" y="143.010339"/>
    </g>
    <g clip-path="url(#pf11cc5b156)">
     <use style="fill:#00bea0;stroke:#00bea0;" x="285.856609" xlink:href="#C0_0_f2ce7545c0" y="132.136469"/>
    </g>
    <g clip-path="url(#pf11cc5b156)">
     <use style="fill:#00c09f;stroke:#00c09f;" x="287.274238" xlink:href="#C0_0_f2ce7545c0" y="110.057295"/>
    </g>
    <g clip-path="url(#pf11cc5b156)">
     <use style="fill:#00c19e;stroke:#00c19e;" x="288.928269" xlink:href="#C0_0_f2ce7545c0" y="97.012763"/>
    </g>
    <g clip-path="url(#pf11cc5b156)">
     <use style="fill:#00c29e;stroke:#00c29e;" x="290.62762" xlink:href="#C0_0_f2ce7545c0" y="108.282616"/>
    </g>
    <g clip-path="url(#pf11cc5b156)">
     <use style="fill:#00c39e;stroke:#00c39e;" x="292.337662" xlink:href="#C0_0_f2ce7545c0" y="126.872876"/>
    </g>
    <g clip-path="url(#pf11cc5b156)">
     <use style="fill:#00c49d;stroke:#00c49d;" x="294.078065" xlink:href="#C0_0_f2ce7545c0" y="133.738684"/>
    </g>
    <g clip-path="url(#pf11cc5b156)">
     <use style="fill:#00c69c;stroke:#00c69c;" x="295.387979" xlink:href="#C0_0_f2ce7545c0" y="135.341122"/>
    </g>
    <g clip-path="url(#pf11cc5b156)">
     <use style="fill:#00c79c;stroke:#00c79c;" x="296.681005" xlink:href="#C0_0_f2ce7545c0" y="129.601566"/>
    </g>
    <g clip-path="url(#pf11cc5b156)">
     <use style="fill:#00c89b;stroke:#00c89b;" x="298.297027" xlink:href="#C0_0_f2ce7545c0" y="110.301196"/>
    </g>
    <g clip-path="url(#pf11cc5b156)">
     <use style="fill:#00c99b;stroke:#00c99b;" x="299.766324" xlink:href="#C0_0_f2ce7545c0" y="96.707966"/>
    </g>
    <g clip-path="url(#pf11cc5b156)">
     <use style="fill:#00cb9a;stroke:#00cb9a;" x="301.135849" xlink:href="#C0_0_f2ce7545c0" y="108.048383"/>
    </g>
    <g clip-path="url(#pf11cc5b156)">
     <use style="fill:#00cc99;stroke:#00cc99;" x="303.031552" xlink:href="#C0_0_f2ce7545c0" y="135.462031"/>
    </g>
    <g clip-path="url(#pf11cc5b156)">
     <use style="fill:#00cd98;stroke:#00cd98;" x="304.687624" xlink:href="#C0_0_f2ce7545c0" y="163.95976"/>
    </g>
    <g clip-path="url(#pf11cc5b156)">
     <use style="fill:#00ce98;stroke:#00ce98;" x="305.865586" xlink:href="#C0_0_f2ce7545c0" y="168.653194"/>
    </g>
    <g clip-path="url(#pf11cc5b156)">
     <use style="fill:#00d097;stroke:#00d097;" x="306.749948" xlink:href="#C0_0_f2ce7545c0" y="160.527941"/>
    </g>
    <g clip-path="url(#pf11cc5b156)">
     <use style="fill:#00d196;stroke:#00d196;" x="307.77892" xlink:href="#C0_0_f2ce7545c0" y="141.919435"/>
    </g>
    <g clip-path="url(#pf11cc5b156)">
     <use style="fill:#00d296;stroke:#00d296;" x="309.064448" xlink:href="#C0_0_f2ce7545c0" y="115.68417"/>
    </g>
    <g clip-path="url(#pf11cc5b156)">
     <use style="fill:#00d396;stroke:#00d396;" x="310.376181" xlink:href="#C0_0_f2ce7545c0" y="112.35556"/>
    </g>
    <g clip-path="url(#pf11cc5b156)">
     <use style="fill:#00d495;stroke:#00d495;" x="312.143494" xlink:href="#C0_0_f2ce7545c0" y="129.8071"/>
    </g>
    <g clip-path="url(#pf11cc5b156)">
     <use style="fill:#00d694;stroke:#00d694;" x="313.67938" xlink:href="#C0_0_f2ce7545c0" y="136.26513"/>
    </g>
    <g clip-path="url(#pf11cc5b156)">
     <use style="fill:#00d793;stroke:#00d793;" x="314.964351" xlink:href="#C0_0_f2ce7545c0" y="136.219647"/>
    </g>
    <g clip-path="url(#pf11cc5b156)">
     <use style="fill:#00d893;stroke:#00d893;" x="316.269886" xlink:href="#C0_0_f2ce7545c0" y="128.135269"/>
    </g>
    <g clip-path="url(#pf11cc5b156)">
     <use style="fill:#00d992;stroke:#00d992;" x="317.729346" xlink:href="#C0_0_f2ce7545c0" y="106.482344"/>
    </g>
    <g clip-path="url(#pf11cc5b156)">
     <use style="fill:#00db92;stroke:#00db92;" x="319.171882" xlink:href="#C0_0_f2ce7545c0" y="94.93673"/>
    </g>
    <g clip-path="url(#pf11cc5b156)">
     <use style="fill:#00dc91;stroke:#00dc91;" x="320.848888" xlink:href="#C0_0_f2ce7545c0" y="107.490536"/>
    </g>
    <g clip-path="url(#pf11cc5b156)">
     <use style="fill:#00dd90;stroke:#00dd90;" x="322.666013" xlink:href="#C0_0_f2ce7545c0" y="126.197884"/>
    </g>
    <g clip-path="url(#pf11cc5b156)">
     <use style="fill:#00de90;stroke:#00de90;" x="324.278509" xlink:href="#C0_0_f2ce7545c0" y="132.959372"/>
    </g>
    <g clip-path="url(#pf11cc5b156)">
     <use style="fill:#00e08f;stroke:#00e08f;" x="325.733702" xlink:href="#C0_0_f2ce7545c0" y="132.164577"/>
    </g>
    <g clip-path="url(#pf11cc5b156)">
     <use style="fill:#00e18e;stroke:#00e18e;" x="327.688125" xlink:href="#C0_0_f2ce7545c0" y="123.895815"/>
    </g>
    <g clip-path="url(#pf11cc5b156)">
     <use style="fill:#00e28e;stroke:#00e28e;" x="329.215473" xlink:href="#C0_0_f2ce7545c0" y="106.004911"/>
    </g>
    <g clip-path="url(#pf11cc5b156)">
     <use style="fill:#00e38e;stroke:#00e38e;" x="330.619926" xlink:href="#C0_0_f2ce7545c0" y="96.486807"/>
    </g>
    <g clip-path="url(#pf11cc5b156)">
     <use style="fill:#00e48d;stroke:#00e48d;" x="332.281714" xlink:href="#C0_0_f2ce7545c0" y="109.535336"/>
    </g>
    <g clip-path="url(#pf11cc5b156)">
     <use style="fill:#00e68c;stroke:#00e68c;" x="334.318724" xlink:href="#C0_0_f2ce7545c0" y="126.906148"/>
    </g>
    <g clip-path="url(#pf11cc5b156)">
     <use style="fill:#00e78c;stroke:#00e78c;" x="336.014994" xlink:href="#C0_0_f2ce7545c0" y="128.684285"/>
    </g>
    <g clip-path="url(#pf11cc5b156)">
     <use style="fill:#00e88b;stroke:#00e88b;" x="337.461018" xlink:href="#C0_0_f2ce7545c0" y="124.320038"/>
    </g>
    <g clip-path="url(#pf11cc5b156)">
     <use style="fill:#00e98b;stroke:#00e98b;" x="338.684486" xlink:href="#C0_0_f2ce7545c0" y="115.951777"/>
    </g>
    <g clip-path="url(#pf11cc5b156)">
     <use style="fill:#00eb8a;stroke:#00eb8a;" x="340.3001" xlink:href="#C0_0_f2ce7545c0" y="99.382132"/>
    </g>
    <g clip-path="url(#pf11cc5b156)">
     <use style="fill:#00ec89;stroke:#00ec89;" x="341.941511" xlink:href="#C0_0_f2ce7545c0" y="91.333751"/>
    </g>
    <g clip-path="url(#pf11cc5b156)">
     <use style="fill:#00ed88;stroke:#00ed88;" x="343.685477" xlink:href="#C0_0_f2ce7545c0" y="109.339731"/>
    </g>
    <g clip-path="url(#pf11cc5b156)">
     <use style="fill:#00ee88;stroke:#00ee88;" x="345.735775" xlink:href="#C0_0_f2ce7545c0" y="131.327317"/>
    </g>
    <g clip-path="url(#pf11cc5b156)">
     <use style="fill:#00f087;stroke:#00f087;" x="347.611063" xlink:href="#C0_0_f2ce7545c0" y="134.137474"/>
    </g>
    <g clip-path="url(#pf11cc5b156)">
     <use style="fill:#00f186;stroke:#00f186;" x="349.031884" xlink:href="#C0_0_f2ce7545c0" y="131.210321"/>
    </g>
    <g clip-path="url(#pf11cc5b156)">
     <use style="fill:#00f286;stroke:#00f286;" x="350.56005" xlink:href="#C0_0_f2ce7545c0" y="125.989732"/>
    </g>
    <g clip-path="url(#pf11cc5b156)">
     <use style="fill:#00f386;stroke:#00f386;" x="352.215268" xlink:href="#C0_0_f2ce7545c0" y="109.217253"/>
    </g>
    <g clip-path="url(#pf11cc5b156)">
     <use style="fill:#00f485;stroke:#00f485;" x="354.123628" xlink:href="#C0_0_f2ce7545c0" y="100.837579"/>
    </g>
    <g clip-path="url(#pf11cc5b156)">
     <use style="fill:#00f684;stroke:#00f684;" x="356.319872" xlink:href="#C0_0_f2ce7545c0" y="118.222415"/>
    </g>
    <g clip-path="url(#pf11cc5b156)">
     <use style="fill:#00f784;stroke:#00f784;" x="358.501862" xlink:href="#C0_0_f2ce7545c0" y="147.591435"/>
    </g>
    <g clip-path="url(#pf11cc5b156)">
     <use style="fill:#00f883;stroke:#00f883;" x="360.583635" xlink:href="#C0_0_f2ce7545c0" y="173.724359"/>
    </g>
    <g clip-path="url(#pf11cc5b156)">
     <use style="fill:#00f982;stroke:#00f982;" x="362.33985" xlink:href="#C0_0_f2ce7545c0" y="177.021144"/>
    </g>
    <g clip-path="url(#pf11cc5b156)">
     <use style="fill:#00fb82;stroke:#00fb82;" x="363.872952" xlink:href="#C0_0_f2ce7545c0" y="167.398713"/>
    </g>
    <g clip-path="url(#pf11cc5b156)">
     <use style="fill:#00fc81;stroke:#00fc81;" x="365.988242" xlink:href="#C0_0_f2ce7545c0" y="148.642664"/>
    </g>
    <g clip-path="url(#pf11cc5b156)">
     <use style="fill:#00fd80;stroke:#00fd80;" x="368.231217" xlink:href="#C0_0_f2ce7545c0" y="119.400687"/>
    </g>
    <g clip-path="url(#pf11cc5b156)">
     <use style="fill:#00fe80;stroke:#00fe80;" x="370.687803" xlink:href="#C0_0_f2ce7545c0" y="89.776846"/>
    </g>
    <g clip-path="url(#pf11cc5b156)">
     <use style="fill:#00ff80;stroke:#00ff80;" x="373.308411" xlink:href="#C0_0_f2ce7545c0" y="62.161474"/>
    </g>
   </g>
   <g id="line2d_12">
    <path clip-path="url(#pf11cc5b156)" d="M 69.218182 59.898102 
L 75.429685 171.081635 
L 81.641187 194.014138 
L 87.85269 193.49284 
L 94.064193 192.345521 
L 100.275696 194.189642 
L 106.487199 196.063509 
L 112.698701 194.585287 
L 118.910204 188.243399 
L 125.121707 177.603802 
L 131.33321 164.597614 
L 137.544712 151.592683 
L 143.756215 140.624537 
L 149.967718 132.939338 
L 156.179221 128.860718 
L 162.390724 127.913827 
L 168.602226 129.106488 
L 174.813729 131.265072 
L 181.025232 133.339685 
L 187.236735 134.620462 
L 193.448237 134.836964 
L 199.65974 134.140625 
L 205.871243 132.992534 
L 212.082746 131.993407 
L 218.294249 131.698849 
L 224.505751 132.46115 
L 230.717254 134.330214 
L 236.928757 137.032574 
L 243.14026 140.031152 
L 249.351763 142.651916 
L 255.563265 144.249445 
L 261.774768 144.373874 
L 267.986271 142.898651 
L 274.197774 140.073279 
L 280.409276 136.47802 
L 286.620779 132.87784 
L 292.832282 129.998655 
L 299.043785 128.276729 
L 305.255288 127.656834 
L 311.46679 127.529306 
L 317.678293 126.891304 
L 323.889796 124.781852 
L 330.101299 120.959486 
L 336.312801 116.648692 
L 342.524304 114.956907 
L 348.735807 120.234705 
L 354.94731 135.191298 
L 361.158813 153.955651 
L 367.370315 148.456445 
L 373.581818 44.443636 
" style="fill:none;stroke:#c44e52;stroke-linecap:round;stroke-width:1.5;"/>
   </g>
   <g id="patch_3">
    <path d="M 54 252 
L 54 34.56 
" style="fill:none;stroke:#ffffff;stroke-linecap:square;stroke-linejoin:miter;stroke-width:1.25;"/>
   </g>
   <g id="patch_4">
    <path d="M 388.8 252 
L 388.8 34.56 
" style="fill:none;stroke:#ffffff;stroke-linecap:square;stroke-linejoin:miter;stroke-width:1.25;"/>
   </g>
   <g id="patch_5">
    <path d="M 54 252 
L 388.8 252 
" style="fill:none;stroke:#ffffff;stroke-linecap:square;stroke-linejoin:miter;stroke-width:1.25;"/>
   </g>
   <g id="patch_6">
    <path d="M 54 34.56 
L 388.8 34.56 
" style="fill:none;stroke:#ffffff;stroke-linecap:square;stroke-linejoin:miter;stroke-width:1.25;"/>
   </g>
  </g>
 </g>
 <defs>
  <clipPath id="pf11cc5b156">
   <rect height="217.44" width="334.8" x="54" y="34.56"/>
  </clipPath>
 </defs>
</svg>
