<?xml version="1.0" encoding="utf-8" standalone="no"?>
<!DOCTYPE svg PUBLIC "-//W3C//DTD SVG 1.1//EN"
  "http://www.w3.org/Graphics/SVG/1.1/DTD/svg11.dtd">
<!-- Created with matplotlib (https://matplotlib.org/) -->
<svg height="360pt" version="1.1" viewBox="0 0 1080 360" width="1080pt" xmlns="http://www.w3.org/2000/svg" xmlns:xlink="http://www.w3.org/1999/xlink">
 <defs>
  <style type="text/css">
*{stroke-linecap:butt;stroke-linejoin:round;}
  </style>
 </defs>
 <g id="figure_1">
  <g id="patch_1">
   <path d="M 0 360 
L 1080 360 
L 1080 0 
L 0 0 
z
" style="fill:#ffffff;"/>
  </g>
  <g id="axes_1">
   <g id="patch_2">
    <path d="M 135 315 
L 972 315 
L 972 43.2 
L 135 43.2 
z
" style="fill:#eaeaf2;"/>
   </g>
   <g id="matplotlib.axis_1">
    <g id="xtick_1">
     <g id="line2d_1">
      <path clip-path="url(#pda2108a781)" d="M 200.735126 315 
L 200.735126 43.2 
" style="fill:none;stroke:#ffffff;stroke-linecap:round;"/>
     </g>
     <g id="text_1">
      <!-- 45000 -->
      <defs>
       <path d="M 37.796875 64.3125 
L 12.890625 25.390625 
L 37.796875 25.390625 
z
M 35.203125 72.90625 
L 47.609375 72.90625 
L 47.609375 25.390625 
L 58.015625 25.390625 
L 58.015625 17.1875 
L 47.609375 17.1875 
L 47.609375 0 
L 37.796875 0 
L 37.796875 17.1875 
L 4.890625 17.1875 
L 4.890625 26.703125 
z
" id="DejaVuSans-52"/>
       <path d="M 10.796875 72.90625 
L 49.515625 72.90625 
L 49.515625 64.59375 
L 19.828125 64.59375 
L 19.828125 46.734375 
Q 21.96875 47.46875 24.109375 47.828125 
Q 26.265625 48.1875 28.421875 48.1875 
Q 40.625 48.1875 47.75 41.5 
Q 54.890625 34.8125 54.890625 23.390625 
Q 54.890625 11.625 47.5625 5.09375 
Q 40.234375 -1.421875 26.90625 -1.421875 
Q 22.3125 -1.421875 17.546875 -0.640625 
Q 12.796875 0.140625 7.71875 1.703125 
L 7.71875 11.625 
Q 12.109375 9.234375 16.796875 8.0625 
Q 21.484375 6.890625 26.703125 6.890625 
Q 35.15625 6.890625 40.078125 11.328125 
Q 45.015625 15.765625 45.015625 23.390625 
Q 45.015625 31 40.078125 35.4375 
Q 35.15625 39.890625 26.703125 39.890625 
Q 22.75 39.890625 18.8125 39.015625 
Q 14.890625 38.140625 10.796875 36.28125 
z
" id="DejaVuSans-53"/>
       <path d="M 31.78125 66.40625 
Q 24.171875 66.40625 20.328125 58.90625 
Q 16.5 51.421875 16.5 36.375 
Q 16.5 21.390625 20.328125 13.890625 
Q 24.171875 6.390625 31.78125 6.390625 
Q 39.453125 6.390625 43.28125 13.890625 
Q 47.125 21.390625 47.125 36.375 
Q 47.125 51.421875 43.28125 58.90625 
Q 39.453125 66.40625 31.78125 66.40625 
z
M 31.78125 74.21875 
Q 44.046875 74.21875 50.515625 64.515625 
Q 56.984375 54.828125 56.984375 36.375 
Q 56.984375 17.96875 50.515625 8.265625 
Q 44.046875 -1.421875 31.78125 -1.421875 
Q 19.53125 -1.421875 13.0625 8.265625 
Q 6.59375 17.96875 6.59375 36.375 
Q 6.59375 54.828125 13.0625 64.515625 
Q 19.53125 74.21875 31.78125 74.21875 
z
" id="DejaVuSans-48"/>
      </defs>
      <g style="fill:#262626;" transform="translate(183.238251 332.858281)scale(0.11 -0.11)">
       <use xlink:href="#DejaVuSans-52"/>
       <use x="63.623047" xlink:href="#DejaVuSans-53"/>
       <use x="127.246094" xlink:href="#DejaVuSans-48"/>
       <use x="190.869141" xlink:href="#DejaVuSans-48"/>
       <use x="254.492188" xlink:href="#DejaVuSans-48"/>
      </g>
     </g>
    </g>
    <g id="xtick_2">
     <g id="line2d_2">
      <path clip-path="url(#pda2108a781)" d="M 296.746468 315 
L 296.746468 43.2 
" style="fill:none;stroke:#ffffff;stroke-linecap:round;"/>
     </g>
     <g id="text_2">
      <!-- 47500 -->
      <defs>
       <path d="M 8.203125 72.90625 
L 55.078125 72.90625 
L 55.078125 68.703125 
L 28.609375 0 
L 18.3125 0 
L 43.21875 64.59375 
L 8.203125 64.59375 
z
" id="DejaVuSans-55"/>
      </defs>
      <g style="fill:#262626;" transform="translate(279.249593 332.858281)scale(0.11 -0.11)">
       <use xlink:href="#DejaVuSans-52"/>
       <use x="63.623047" xlink:href="#DejaVuSans-55"/>
       <use x="127.246094" xlink:href="#DejaVuSans-53"/>
       <use x="190.869141" xlink:href="#DejaVuSans-48"/>
       <use x="254.492188" xlink:href="#DejaVuSans-48"/>
      </g>
     </g>
    </g>
    <g id="xtick_3">
     <g id="line2d_3">
      <path clip-path="url(#pda2108a781)" d="M 392.757811 315 
L 392.757811 43.2 
" style="fill:none;stroke:#ffffff;stroke-linecap:round;"/>
     </g>
     <g id="text_3">
      <!-- 50000 -->
      <g style="fill:#262626;" transform="translate(375.260936 332.858281)scale(0.11 -0.11)">
       <use xlink:href="#DejaVuSans-53"/>
       <use x="63.623047" xlink:href="#DejaVuSans-48"/>
       <use x="127.246094" xlink:href="#DejaVuSans-48"/>
       <use x="190.869141" xlink:href="#DejaVuSans-48"/>
       <use x="254.492188" xlink:href="#DejaVuSans-48"/>
      </g>
     </g>
    </g>
    <g id="xtick_4">
     <g id="line2d_4">
      <path clip-path="url(#pda2108a781)" d="M 488.769153 315 
L 488.769153 43.2 
" style="fill:none;stroke:#ffffff;stroke-linecap:round;"/>
     </g>
     <g id="text_4">
      <!-- 52500 -->
      <defs>
       <path d="M 19.1875 8.296875 
L 53.609375 8.296875 
L 53.609375 0 
L 7.328125 0 
L 7.328125 8.296875 
Q 12.9375 14.109375 22.625 23.890625 
Q 32.328125 33.6875 34.8125 36.53125 
Q 39.546875 41.84375 41.421875 45.53125 
Q 43.3125 49.21875 43.3125 52.78125 
Q 43.3125 58.59375 39.234375 62.25 
Q 35.15625 65.921875 28.609375 65.921875 
Q 23.96875 65.921875 18.8125 64.3125 
Q 13.671875 62.703125 7.8125 59.421875 
L 7.8125 69.390625 
Q 13.765625 71.78125 18.9375 73 
Q 24.125 74.21875 28.421875 74.21875 
Q 39.75 74.21875 46.484375 68.546875 
Q 53.21875 62.890625 53.21875 53.421875 
Q 53.21875 48.921875 51.53125 44.890625 
Q 49.859375 40.875 45.40625 35.40625 
Q 44.1875 33.984375 37.640625 27.21875 
Q 31.109375 20.453125 19.1875 8.296875 
z
" id="DejaVuSans-50"/>
      </defs>
      <g style="fill:#262626;" transform="translate(471.272278 332.858281)scale(0.11 -0.11)">
       <use xlink:href="#DejaVuSans-53"/>
       <use x="63.623047" xlink:href="#DejaVuSans-50"/>
       <use x="127.246094" xlink:href="#DejaVuSans-53"/>
       <use x="190.869141" xlink:href="#DejaVuSans-48"/>
       <use x="254.492188" xlink:href="#DejaVuSans-48"/>
      </g>
     </g>
    </g>
    <g id="xtick_5">
     <g id="line2d_5">
      <path clip-path="url(#pda2108a781)" d="M 584.780495 315 
L 584.780495 43.2 
" style="fill:none;stroke:#ffffff;stroke-linecap:round;"/>
     </g>
     <g id="text_5">
      <!-- 55000 -->
      <g style="fill:#262626;" transform="translate(567.28362 332.858281)scale(0.11 -0.11)">
       <use xlink:href="#DejaVuSans-53"/>
       <use x="63.623047" xlink:href="#DejaVuSans-53"/>
       <use x="127.246094" xlink:href="#DejaVuSans-48"/>
       <use x="190.869141" xlink:href="#DejaVuSans-48"/>
       <use x="254.492188" xlink:href="#DejaVuSans-48"/>
      </g>
     </g>
    </g>
    <g id="xtick_6">
     <g id="line2d_6">
      <path clip-path="url(#pda2108a781)" d="M 680.791838 315 
L 680.791838 43.2 
" style="fill:none;stroke:#ffffff;stroke-linecap:round;"/>
     </g>
     <g id="text_6">
      <!-- 57500 -->
      <g style="fill:#262626;" transform="translate(663.294963 332.858281)scale(0.11 -0.11)">
       <use xlink:href="#DejaVuSans-53"/>
       <use x="63.623047" xlink:href="#DejaVuSans-55"/>
       <use x="127.246094" xlink:href="#DejaVuSans-53"/>
       <use x="190.869141" xlink:href="#DejaVuSans-48"/>
       <use x="254.492188" xlink:href="#DejaVuSans-48"/>
      </g>
     </g>
    </g>
    <g id="xtick_7">
     <g id="line2d_7">
      <path clip-path="url(#pda2108a781)" d="M 776.80318 315 
L 776.80318 43.2 
" style="fill:none;stroke:#ffffff;stroke-linecap:round;"/>
     </g>
     <g id="text_7">
      <!-- 60000 -->
      <defs>
       <path d="M 33.015625 40.375 
Q 26.375 40.375 22.484375 35.828125 
Q 18.609375 31.296875 18.609375 23.390625 
Q 18.609375 15.53125 22.484375 10.953125 
Q 26.375 6.390625 33.015625 6.390625 
Q 39.65625 6.390625 43.53125 10.953125 
Q 47.40625 15.53125 47.40625 23.390625 
Q 47.40625 31.296875 43.53125 35.828125 
Q 39.65625 40.375 33.015625 40.375 
z
M 52.59375 71.296875 
L 52.59375 62.3125 
Q 48.875 64.0625 45.09375 64.984375 
Q 41.3125 65.921875 37.59375 65.921875 
Q 27.828125 65.921875 22.671875 59.328125 
Q 17.53125 52.734375 16.796875 39.40625 
Q 19.671875 43.65625 24.015625 45.921875 
Q 28.375 48.1875 33.59375 48.1875 
Q 44.578125 48.1875 50.953125 41.515625 
Q 57.328125 34.859375 57.328125 23.390625 
Q 57.328125 12.15625 50.6875 5.359375 
Q 44.046875 -1.421875 33.015625 -1.421875 
Q 20.359375 -1.421875 13.671875 8.265625 
Q 6.984375 17.96875 6.984375 36.375 
Q 6.984375 53.65625 15.1875 63.9375 
Q 23.390625 74.21875 37.203125 74.21875 
Q 40.921875 74.21875 44.703125 73.484375 
Q 48.484375 72.75 52.59375 71.296875 
z
" id="DejaVuSans-54"/>
      </defs>
      <g style="fill:#262626;" transform="translate(759.306305 332.858281)scale(0.11 -0.11)">
       <use xlink:href="#DejaVuSans-54"/>
       <use x="63.623047" xlink:href="#DejaVuSans-48"/>
       <use x="127.246094" xlink:href="#DejaVuSans-48"/>
       <use x="190.869141" xlink:href="#DejaVuSans-48"/>
       <use x="254.492188" xlink:href="#DejaVuSans-48"/>
      </g>
     </g>
    </g>
    <g id="xtick_8">
     <g id="line2d_8">
      <path clip-path="url(#pda2108a781)" d="M 872.814523 315 
L 872.814523 43.2 
" style="fill:none;stroke:#ffffff;stroke-linecap:round;"/>
     </g>
     <g id="text_8">
      <!-- 62500 -->
      <g style="fill:#262626;" transform="translate(855.317648 332.858281)scale(0.11 -0.11)">
       <use xlink:href="#DejaVuSans-54"/>
       <use x="63.623047" xlink:href="#DejaVuSans-50"/>
       <use x="127.246094" xlink:href="#DejaVuSans-53"/>
       <use x="190.869141" xlink:href="#DejaVuSans-48"/>
       <use x="254.492188" xlink:href="#DejaVuSans-48"/>
      </g>
     </g>
    </g>
    <g id="xtick_9">
     <g id="line2d_9">
      <path clip-path="url(#pda2108a781)" d="M 968.825865 315 
L 968.825865 43.2 
" style="fill:none;stroke:#ffffff;stroke-linecap:round;"/>
     </g>
     <g id="text_9">
      <!-- 65000 -->
      <g style="fill:#262626;" transform="translate(951.32899 332.858281)scale(0.11 -0.11)">
       <use xlink:href="#DejaVuSans-54"/>
       <use x="63.623047" xlink:href="#DejaVuSans-53"/>
       <use x="127.246094" xlink:href="#DejaVuSans-48"/>
       <use x="190.869141" xlink:href="#DejaVuSans-48"/>
       <use x="254.492188" xlink:href="#DejaVuSans-48"/>
      </g>
     </g>
    </g>
    <g id="text_10">
     <!-- Total Confirmed Cases in ON -->
     <defs>
      <path d="M -0.296875 72.90625 
L 61.375 72.90625 
L 61.375 64.59375 
L 35.5 64.59375 
L 35.5 0 
L 25.59375 0 
L 25.59375 64.59375 
L -0.296875 64.59375 
z
" id="DejaVuSans-84"/>
      <path d="M 30.609375 48.390625 
Q 23.390625 48.390625 19.1875 42.75 
Q 14.984375 37.109375 14.984375 27.296875 
Q 14.984375 17.484375 19.15625 11.84375 
Q 23.34375 6.203125 30.609375 6.203125 
Q 37.796875 6.203125 41.984375 11.859375 
Q 46.1875 17.53125 46.1875 27.296875 
Q 46.1875 37.015625 41.984375 42.703125 
Q 37.796875 48.390625 30.609375 48.390625 
z
M 30.609375 56 
Q 42.328125 56 49.015625 48.375 
Q 55.71875 40.765625 55.71875 27.296875 
Q 55.71875 13.875 49.015625 6.21875 
Q 42.328125 -1.421875 30.609375 -1.421875 
Q 18.84375 -1.421875 12.171875 6.21875 
Q 5.515625 13.875 5.515625 27.296875 
Q 5.515625 40.765625 12.171875 48.375 
Q 18.84375 56 30.609375 56 
z
" id="DejaVuSans-111"/>
      <path d="M 18.3125 70.21875 
L 18.3125 54.6875 
L 36.8125 54.6875 
L 36.8125 47.703125 
L 18.3125 47.703125 
L 18.3125 18.015625 
Q 18.3125 11.328125 20.140625 9.421875 
Q 21.96875 7.515625 27.59375 7.515625 
L 36.8125 7.515625 
L 36.8125 0 
L 27.59375 0 
Q 17.1875 0 13.234375 3.875 
Q 9.28125 7.765625 9.28125 18.015625 
L 9.28125 47.703125 
L 2.6875 47.703125 
L 2.6875 54.6875 
L 9.28125 54.6875 
L 9.28125 70.21875 
z
" id="DejaVuSans-116"/>
      <path d="M 34.28125 27.484375 
Q 23.390625 27.484375 19.1875 25 
Q 14.984375 22.515625 14.984375 16.5 
Q 14.984375 11.71875 18.140625 8.90625 
Q 21.296875 6.109375 26.703125 6.109375 
Q 34.1875 6.109375 38.703125 11.40625 
Q 43.21875 16.703125 43.21875 25.484375 
L 43.21875 27.484375 
z
M 52.203125 31.203125 
L 52.203125 0 
L 43.21875 0 
L 43.21875 8.296875 
Q 40.140625 3.328125 35.546875 0.953125 
Q 30.953125 -1.421875 24.3125 -1.421875 
Q 15.921875 -1.421875 10.953125 3.296875 
Q 6 8.015625 6 15.921875 
Q 6 25.140625 12.171875 29.828125 
Q 18.359375 34.515625 30.609375 34.515625 
L 43.21875 34.515625 
L 43.21875 35.40625 
Q 43.21875 41.609375 39.140625 45 
Q 35.0625 48.390625 27.6875 48.390625 
Q 23 48.390625 18.546875 47.265625 
Q 14.109375 46.140625 10.015625 43.890625 
L 10.015625 52.203125 
Q 14.9375 54.109375 19.578125 55.046875 
Q 24.21875 56 28.609375 56 
Q 40.484375 56 46.34375 49.84375 
Q 52.203125 43.703125 52.203125 31.203125 
z
" id="DejaVuSans-97"/>
      <path d="M 9.421875 75.984375 
L 18.40625 75.984375 
L 18.40625 0 
L 9.421875 0 
z
" id="DejaVuSans-108"/>
      <path id="DejaVuSans-32"/>
      <path d="M 64.40625 67.28125 
L 64.40625 56.890625 
Q 59.421875 61.53125 53.78125 63.8125 
Q 48.140625 66.109375 41.796875 66.109375 
Q 29.296875 66.109375 22.65625 58.46875 
Q 16.015625 50.828125 16.015625 36.375 
Q 16.015625 21.96875 22.65625 14.328125 
Q 29.296875 6.6875 41.796875 6.6875 
Q 48.140625 6.6875 53.78125 8.984375 
Q 59.421875 11.28125 64.40625 15.921875 
L 64.40625 5.609375 
Q 59.234375 2.09375 53.4375 0.328125 
Q 47.65625 -1.421875 41.21875 -1.421875 
Q 24.65625 -1.421875 15.125 8.703125 
Q 5.609375 18.84375 5.609375 36.375 
Q 5.609375 53.953125 15.125 64.078125 
Q 24.65625 74.21875 41.21875 74.21875 
Q 47.75 74.21875 53.53125 72.484375 
Q 59.328125 70.75 64.40625 67.28125 
z
" id="DejaVuSans-67"/>
      <path d="M 54.890625 33.015625 
L 54.890625 0 
L 45.90625 0 
L 45.90625 32.71875 
Q 45.90625 40.484375 42.875 44.328125 
Q 39.84375 48.1875 33.796875 48.1875 
Q 26.515625 48.1875 22.3125 43.546875 
Q 18.109375 38.921875 18.109375 30.90625 
L 18.109375 0 
L 9.078125 0 
L 9.078125 54.6875 
L 18.109375 54.6875 
L 18.109375 46.1875 
Q 21.34375 51.125 25.703125 53.5625 
Q 30.078125 56 35.796875 56 
Q 45.21875 56 50.046875 50.171875 
Q 54.890625 44.34375 54.890625 33.015625 
z
" id="DejaVuSans-110"/>
      <path d="M 37.109375 75.984375 
L 37.109375 68.5 
L 28.515625 68.5 
Q 23.6875 68.5 21.796875 66.546875 
Q 19.921875 64.59375 19.921875 59.515625 
L 19.921875 54.6875 
L 34.71875 54.6875 
L 34.71875 47.703125 
L 19.921875 47.703125 
L 19.921875 0 
L 10.890625 0 
L 10.890625 47.703125 
L 2.296875 47.703125 
L 2.296875 54.6875 
L 10.890625 54.6875 
L 10.890625 58.5 
Q 10.890625 67.625 15.140625 71.796875 
Q 19.390625 75.984375 28.609375 75.984375 
z
" id="DejaVuSans-102"/>
      <path d="M 9.421875 54.6875 
L 18.40625 54.6875 
L 18.40625 0 
L 9.421875 0 
z
M 9.421875 75.984375 
L 18.40625 75.984375 
L 18.40625 64.59375 
L 9.421875 64.59375 
z
" id="DejaVuSans-105"/>
      <path d="M 41.109375 46.296875 
Q 39.59375 47.171875 37.8125 47.578125 
Q 36.03125 48 33.890625 48 
Q 26.265625 48 22.1875 43.046875 
Q 18.109375 38.09375 18.109375 28.8125 
L 18.109375 0 
L 9.078125 0 
L 9.078125 54.6875 
L 18.109375 54.6875 
L 18.109375 46.1875 
Q 20.953125 51.171875 25.484375 53.578125 
Q 30.03125 56 36.53125 56 
Q 37.453125 56 38.578125 55.875 
Q 39.703125 55.765625 41.0625 55.515625 
z
" id="DejaVuSans-114"/>
      <path d="M 52 44.1875 
Q 55.375 50.25 60.0625 53.125 
Q 64.75 56 71.09375 56 
Q 79.640625 56 84.28125 50.015625 
Q 88.921875 44.046875 88.921875 33.015625 
L 88.921875 0 
L 79.890625 0 
L 79.890625 32.71875 
Q 79.890625 40.578125 77.09375 44.375 
Q 74.3125 48.1875 68.609375 48.1875 
Q 61.625 48.1875 57.5625 43.546875 
Q 53.515625 38.921875 53.515625 30.90625 
L 53.515625 0 
L 44.484375 0 
L 44.484375 32.71875 
Q 44.484375 40.625 41.703125 44.40625 
Q 38.921875 48.1875 33.109375 48.1875 
Q 26.21875 48.1875 22.15625 43.53125 
Q 18.109375 38.875 18.109375 30.90625 
L 18.109375 0 
L 9.078125 0 
L 9.078125 54.6875 
L 18.109375 54.6875 
L 18.109375 46.1875 
Q 21.1875 51.21875 25.484375 53.609375 
Q 29.78125 56 35.6875 56 
Q 41.65625 56 45.828125 52.96875 
Q 50 49.953125 52 44.1875 
z
" id="DejaVuSans-109"/>
      <path d="M 56.203125 29.59375 
L 56.203125 25.203125 
L 14.890625 25.203125 
Q 15.484375 15.921875 20.484375 11.0625 
Q 25.484375 6.203125 34.421875 6.203125 
Q 39.59375 6.203125 44.453125 7.46875 
Q 49.3125 8.734375 54.109375 11.28125 
L 54.109375 2.78125 
Q 49.265625 0.734375 44.1875 -0.34375 
Q 39.109375 -1.421875 33.890625 -1.421875 
Q 20.796875 -1.421875 13.15625 6.1875 
Q 5.515625 13.8125 5.515625 26.8125 
Q 5.515625 40.234375 12.765625 48.109375 
Q 20.015625 56 32.328125 56 
Q 43.359375 56 49.78125 48.890625 
Q 56.203125 41.796875 56.203125 29.59375 
z
M 47.21875 32.234375 
Q 47.125 39.59375 43.09375 43.984375 
Q 39.0625 48.390625 32.421875 48.390625 
Q 24.90625 48.390625 20.390625 44.140625 
Q 15.875 39.890625 15.1875 32.171875 
z
" id="DejaVuSans-101"/>
      <path d="M 45.40625 46.390625 
L 45.40625 75.984375 
L 54.390625 75.984375 
L 54.390625 0 
L 45.40625 0 
L 45.40625 8.203125 
Q 42.578125 3.328125 38.25 0.953125 
Q 33.9375 -1.421875 27.875 -1.421875 
Q 17.96875 -1.421875 11.734375 6.484375 
Q 5.515625 14.40625 5.515625 27.296875 
Q 5.515625 40.1875 11.734375 48.09375 
Q 17.96875 56 27.875 56 
Q 33.9375 56 38.25 53.625 
Q 42.578125 51.265625 45.40625 46.390625 
z
M 14.796875 27.296875 
Q 14.796875 17.390625 18.875 11.75 
Q 22.953125 6.109375 30.078125 6.109375 
Q 37.203125 6.109375 41.296875 11.75 
Q 45.40625 17.390625 45.40625 27.296875 
Q 45.40625 37.203125 41.296875 42.84375 
Q 37.203125 48.484375 30.078125 48.484375 
Q 22.953125 48.484375 18.875 42.84375 
Q 14.796875 37.203125 14.796875 27.296875 
z
" id="DejaVuSans-100"/>
      <path d="M 44.28125 53.078125 
L 44.28125 44.578125 
Q 40.484375 46.53125 36.375 47.5 
Q 32.28125 48.484375 27.875 48.484375 
Q 21.1875 48.484375 17.84375 46.4375 
Q 14.5 44.390625 14.5 40.28125 
Q 14.5 37.15625 16.890625 35.375 
Q 19.28125 33.59375 26.515625 31.984375 
L 29.59375 31.296875 
Q 39.15625 29.25 43.1875 25.515625 
Q 47.21875 21.78125 47.21875 15.09375 
Q 47.21875 7.46875 41.1875 3.015625 
Q 35.15625 -1.421875 24.609375 -1.421875 
Q 20.21875 -1.421875 15.453125 -0.5625 
Q 10.6875 0.296875 5.421875 2 
L 5.421875 11.28125 
Q 10.40625 8.6875 15.234375 7.390625 
Q 20.0625 6.109375 24.8125 6.109375 
Q 31.15625 6.109375 34.5625 8.28125 
Q 37.984375 10.453125 37.984375 14.40625 
Q 37.984375 18.0625 35.515625 20.015625 
Q 33.0625 21.96875 24.703125 23.78125 
L 21.578125 24.515625 
Q 13.234375 26.265625 9.515625 29.90625 
Q 5.8125 33.546875 5.8125 39.890625 
Q 5.8125 47.609375 11.28125 51.796875 
Q 16.75 56 26.8125 56 
Q 31.78125 56 36.171875 55.265625 
Q 40.578125 54.546875 44.28125 53.078125 
z
" id="DejaVuSans-115"/>
      <path d="M 39.40625 66.21875 
Q 28.65625 66.21875 22.328125 58.203125 
Q 16.015625 50.203125 16.015625 36.375 
Q 16.015625 22.609375 22.328125 14.59375 
Q 28.65625 6.59375 39.40625 6.59375 
Q 50.140625 6.59375 56.421875 14.59375 
Q 62.703125 22.609375 62.703125 36.375 
Q 62.703125 50.203125 56.421875 58.203125 
Q 50.140625 66.21875 39.40625 66.21875 
z
M 39.40625 74.21875 
Q 54.734375 74.21875 63.90625 63.9375 
Q 73.09375 53.65625 73.09375 36.375 
Q 73.09375 19.140625 63.90625 8.859375 
Q 54.734375 -1.421875 39.40625 -1.421875 
Q 24.03125 -1.421875 14.8125 8.828125 
Q 5.609375 19.09375 5.609375 36.375 
Q 5.609375 53.65625 14.8125 63.9375 
Q 24.03125 74.21875 39.40625 74.21875 
z
" id="DejaVuSans-79"/>
      <path d="M 9.8125 72.90625 
L 23.09375 72.90625 
L 55.421875 11.921875 
L 55.421875 72.90625 
L 64.984375 72.90625 
L 64.984375 0 
L 51.703125 0 
L 19.390625 60.984375 
L 19.390625 0 
L 9.8125 0 
z
" id="DejaVuSans-78"/>
     </defs>
     <g style="fill:#262626;" transform="translate(467.112188 348.264063)scale(0.12 -0.12)">
      <use xlink:href="#DejaVuSans-84"/>
      <use x="60.818359" xlink:href="#DejaVuSans-111"/>
      <use x="122" xlink:href="#DejaVuSans-116"/>
      <use x="161.208984" xlink:href="#DejaVuSans-97"/>
      <use x="222.488281" xlink:href="#DejaVuSans-108"/>
      <use x="250.271484" xlink:href="#DejaVuSans-32"/>
      <use x="282.058594" xlink:href="#DejaVuSans-67"/>
      <use x="351.882812" xlink:href="#DejaVuSans-111"/>
      <use x="413.064453" xlink:href="#DejaVuSans-110"/>
      <use x="476.443359" xlink:href="#DejaVuSans-102"/>
      <use x="511.648438" xlink:href="#DejaVuSans-105"/>
      <use x="539.431641" xlink:href="#DejaVuSans-114"/>
      <use x="580.529297" xlink:href="#DejaVuSans-109"/>
      <use x="677.941406" xlink:href="#DejaVuSans-101"/>
      <use x="739.464844" xlink:href="#DejaVuSans-100"/>
      <use x="802.941406" xlink:href="#DejaVuSans-32"/>
      <use x="834.728516" xlink:href="#DejaVuSans-67"/>
      <use x="904.552734" xlink:href="#DejaVuSans-97"/>
      <use x="965.832031" xlink:href="#DejaVuSans-115"/>
      <use x="1017.931641" xlink:href="#DejaVuSans-101"/>
      <use x="1079.455078" xlink:href="#DejaVuSans-115"/>
      <use x="1131.554688" xlink:href="#DejaVuSans-32"/>
      <use x="1163.341797" xlink:href="#DejaVuSans-105"/>
      <use x="1191.125" xlink:href="#DejaVuSans-110"/>
      <use x="1254.503906" xlink:href="#DejaVuSans-32"/>
      <use x="1286.291016" xlink:href="#DejaVuSans-79"/>
      <use x="1365.001953" xlink:href="#DejaVuSans-78"/>
     </g>
    </g>
   </g>
   <g id="matplotlib.axis_2">
    <g id="ytick_1">
     <g id="line2d_10">
      <path clip-path="url(#pda2108a781)" d="M 135 282.515896 
L 972 282.515896 
" style="fill:none;stroke:#ffffff;stroke-linecap:round;"/>
     </g>
     <g id="text_11">
      <!-- 50 -->
      <g style="fill:#262626;" transform="translate(111.5025 286.695037)scale(0.11 -0.11)">
       <use xlink:href="#DejaVuSans-53"/>
       <use x="63.623047" xlink:href="#DejaVuSans-48"/>
      </g>
     </g>
    </g>
    <g id="ytick_2">
     <g id="line2d_11">
      <path clip-path="url(#pda2108a781)" d="M 135 229.524039 
L 972 229.524039 
" style="fill:none;stroke:#ffffff;stroke-linecap:round;"/>
     </g>
     <g id="text_12">
      <!-- 55 -->
      <g style="fill:#262626;" transform="translate(111.5025 233.70318)scale(0.11 -0.11)">
       <use xlink:href="#DejaVuSans-53"/>
       <use x="63.623047" xlink:href="#DejaVuSans-53"/>
      </g>
     </g>
    </g>
    <g id="ytick_3">
     <g id="line2d_12">
      <path clip-path="url(#pda2108a781)" d="M 135 176.532182 
L 972 176.532182 
" style="fill:none;stroke:#ffffff;stroke-linecap:round;"/>
     </g>
     <g id="text_13">
      <!-- 60 -->
      <g style="fill:#262626;" transform="translate(111.5025 180.711322)scale(0.11 -0.11)">
       <use xlink:href="#DejaVuSans-54"/>
       <use x="63.623047" xlink:href="#DejaVuSans-48"/>
      </g>
     </g>
    </g>
    <g id="ytick_4">
     <g id="line2d_13">
      <path clip-path="url(#pda2108a781)" d="M 135 123.540324 
L 972 123.540324 
" style="fill:none;stroke:#ffffff;stroke-linecap:round;"/>
     </g>
     <g id="text_14">
      <!-- 65 -->
      <g style="fill:#262626;" transform="translate(111.5025 127.719465)scale(0.11 -0.11)">
       <use xlink:href="#DejaVuSans-54"/>
       <use x="63.623047" xlink:href="#DejaVuSans-53"/>
      </g>
     </g>
    </g>
    <g id="ytick_5">
     <g id="line2d_14">
      <path clip-path="url(#pda2108a781)" d="M 135 70.548467 
L 972 70.548467 
" style="fill:none;stroke:#ffffff;stroke-linecap:round;"/>
     </g>
     <g id="text_15">
      <!-- 70 -->
      <g style="fill:#262626;" transform="translate(111.5025 74.727608)scale(0.11 -0.11)">
       <use xlink:href="#DejaVuSans-55"/>
       <use x="63.623047" xlink:href="#DejaVuSans-48"/>
      </g>
     </g>
    </g>
    <g id="text_16">
     <!-- Baseline % of airport traffic -->
     <defs>
      <path d="M 19.671875 34.8125 
L 19.671875 8.109375 
L 35.5 8.109375 
Q 43.453125 8.109375 47.28125 11.40625 
Q 51.125 14.703125 51.125 21.484375 
Q 51.125 28.328125 47.28125 31.5625 
Q 43.453125 34.8125 35.5 34.8125 
z
M 19.671875 64.796875 
L 19.671875 42.828125 
L 34.28125 42.828125 
Q 41.5 42.828125 45.03125 45.53125 
Q 48.578125 48.25 48.578125 53.8125 
Q 48.578125 59.328125 45.03125 62.0625 
Q 41.5 64.796875 34.28125 64.796875 
z
M 9.8125 72.90625 
L 35.015625 72.90625 
Q 46.296875 72.90625 52.390625 68.21875 
Q 58.5 63.53125 58.5 54.890625 
Q 58.5 48.1875 55.375 44.234375 
Q 52.25 40.28125 46.1875 39.3125 
Q 53.46875 37.75 57.5 32.78125 
Q 61.53125 27.828125 61.53125 20.40625 
Q 61.53125 10.640625 54.890625 5.3125 
Q 48.25 0 35.984375 0 
L 9.8125 0 
z
" id="DejaVuSans-66"/>
      <path d="M 72.703125 32.078125 
Q 68.453125 32.078125 66.03125 28.46875 
Q 63.625 24.859375 63.625 18.40625 
Q 63.625 12.0625 66.03125 8.421875 
Q 68.453125 4.78125 72.703125 4.78125 
Q 76.859375 4.78125 79.265625 8.421875 
Q 81.6875 12.0625 81.6875 18.40625 
Q 81.6875 24.8125 79.265625 28.4375 
Q 76.859375 32.078125 72.703125 32.078125 
z
M 72.703125 38.28125 
Q 80.421875 38.28125 84.953125 32.90625 
Q 89.5 27.546875 89.5 18.40625 
Q 89.5 9.28125 84.9375 3.921875 
Q 80.375 -1.421875 72.703125 -1.421875 
Q 64.890625 -1.421875 60.34375 3.921875 
Q 55.8125 9.28125 55.8125 18.40625 
Q 55.8125 27.59375 60.375 32.9375 
Q 64.9375 38.28125 72.703125 38.28125 
z
M 22.3125 68.015625 
Q 18.109375 68.015625 15.6875 64.375 
Q 13.28125 60.75 13.28125 54.390625 
Q 13.28125 47.953125 15.671875 44.328125 
Q 18.0625 40.71875 22.3125 40.71875 
Q 26.5625 40.71875 28.96875 44.328125 
Q 31.390625 47.953125 31.390625 54.390625 
Q 31.390625 60.6875 28.953125 64.34375 
Q 26.515625 68.015625 22.3125 68.015625 
z
M 66.40625 74.21875 
L 74.21875 74.21875 
L 28.609375 -1.421875 
L 20.796875 -1.421875 
z
M 22.3125 74.21875 
Q 30.03125 74.21875 34.609375 68.875 
Q 39.203125 63.53125 39.203125 54.390625 
Q 39.203125 45.171875 34.640625 39.84375 
Q 30.078125 34.515625 22.3125 34.515625 
Q 14.546875 34.515625 10.03125 39.859375 
Q 5.515625 45.21875 5.515625 54.390625 
Q 5.515625 63.484375 10.046875 68.84375 
Q 14.59375 74.21875 22.3125 74.21875 
z
" id="DejaVuSans-37"/>
      <path d="M 18.109375 8.203125 
L 18.109375 -20.796875 
L 9.078125 -20.796875 
L 9.078125 54.6875 
L 18.109375 54.6875 
L 18.109375 46.390625 
Q 20.953125 51.265625 25.265625 53.625 
Q 29.59375 56 35.59375 56 
Q 45.5625 56 51.78125 48.09375 
Q 58.015625 40.1875 58.015625 27.296875 
Q 58.015625 14.40625 51.78125 6.484375 
Q 45.5625 -1.421875 35.59375 -1.421875 
Q 29.59375 -1.421875 25.265625 0.953125 
Q 20.953125 3.328125 18.109375 8.203125 
z
M 48.6875 27.296875 
Q 48.6875 37.203125 44.609375 42.84375 
Q 40.53125 48.484375 33.40625 48.484375 
Q 26.265625 48.484375 22.1875 42.84375 
Q 18.109375 37.203125 18.109375 27.296875 
Q 18.109375 17.390625 22.1875 11.75 
Q 26.265625 6.109375 33.40625 6.109375 
Q 40.53125 6.109375 44.609375 11.75 
Q 48.6875 17.390625 48.6875 27.296875 
z
" id="DejaVuSans-112"/>
      <path d="M 48.78125 52.59375 
L 48.78125 44.1875 
Q 44.96875 46.296875 41.140625 47.34375 
Q 37.3125 48.390625 33.40625 48.390625 
Q 24.65625 48.390625 19.8125 42.84375 
Q 14.984375 37.3125 14.984375 27.296875 
Q 14.984375 17.28125 19.8125 11.734375 
Q 24.65625 6.203125 33.40625 6.203125 
Q 37.3125 6.203125 41.140625 7.25 
Q 44.96875 8.296875 48.78125 10.40625 
L 48.78125 2.09375 
Q 45.015625 0.34375 40.984375 -0.53125 
Q 36.96875 -1.421875 32.421875 -1.421875 
Q 20.0625 -1.421875 12.78125 6.34375 
Q 5.515625 14.109375 5.515625 27.296875 
Q 5.515625 40.671875 12.859375 48.328125 
Q 20.21875 56 33.015625 56 
Q 37.15625 56 41.109375 55.140625 
Q 45.0625 54.296875 48.78125 52.59375 
z
" id="DejaVuSans-99"/>
     </defs>
     <g style="fill:#262626;" transform="translate(105.006875 261.44625)rotate(-90)scale(0.12 -0.12)">
      <use xlink:href="#DejaVuSans-66"/>
      <use x="68.603516" xlink:href="#DejaVuSans-97"/>
      <use x="129.882812" xlink:href="#DejaVuSans-115"/>
      <use x="181.982422" xlink:href="#DejaVuSans-101"/>
      <use x="243.505859" xlink:href="#DejaVuSans-108"/>
      <use x="271.289062" xlink:href="#DejaVuSans-105"/>
      <use x="299.072266" xlink:href="#DejaVuSans-110"/>
      <use x="362.451172" xlink:href="#DejaVuSans-101"/>
      <use x="423.974609" xlink:href="#DejaVuSans-32"/>
      <use x="455.761719" xlink:href="#DejaVuSans-37"/>
      <use x="550.78125" xlink:href="#DejaVuSans-32"/>
      <use x="582.568359" xlink:href="#DejaVuSans-111"/>
      <use x="643.75" xlink:href="#DejaVuSans-102"/>
      <use x="678.955078" xlink:href="#DejaVuSans-32"/>
      <use x="710.742188" xlink:href="#DejaVuSans-97"/>
      <use x="772.021484" xlink:href="#DejaVuSans-105"/>
      <use x="799.804688" xlink:href="#DejaVuSans-114"/>
      <use x="840.917969" xlink:href="#DejaVuSans-112"/>
      <use x="904.394531" xlink:href="#DejaVuSans-111"/>
      <use x="965.576172" xlink:href="#DejaVuSans-114"/>
      <use x="1006.689453" xlink:href="#DejaVuSans-116"/>
      <use x="1045.898438" xlink:href="#DejaVuSans-32"/>
      <use x="1077.685547" xlink:href="#DejaVuSans-116"/>
      <use x="1116.894531" xlink:href="#DejaVuSans-114"/>
      <use x="1158.007812" xlink:href="#DejaVuSans-97"/>
      <use x="1219.287109" xlink:href="#DejaVuSans-102"/>
      <use x="1254.492188" xlink:href="#DejaVuSans-102"/>
      <use x="1289.697266" xlink:href="#DejaVuSans-105"/>
      <use x="1317.480469" xlink:href="#DejaVuSans-99"/>
     </g>
    </g>
   </g>
   <g id="line2d_15">
    <defs>
     <path d="M 0 1.5 
C 0.397805 1.5 0.77937 1.341951 1.06066 1.06066 
C 1.341951 0.77937 1.5 0.397805 1.5 0 
C 1.5 -0.397805 1.341951 -0.77937 1.06066 -1.06066 
C 0.77937 -1.341951 0.397805 -1.5 0 -1.5 
C -0.397805 -1.5 -0.77937 -1.341951 -1.06066 -1.06066 
C -1.341951 -0.77937 -1.5 -0.397805 -1.5 0 
C -1.5 0.397805 -1.341951 0.77937 -1.06066 1.06066 
C -0.77937 1.341951 -0.397805 1.5 0 1.5 
z
" id="m92a8b9b779" style="stroke:#4c72b0;"/>
    </defs>
    <g clip-path="url(#pda2108a781)">
     <use style="fill:#4c72b0;stroke:#4c72b0;" x="173.045455" xlink:href="#m92a8b9b779" y="165.904843"/>
     <use style="fill:#4c72b0;stroke:#4c72b0;" x="178.383685" xlink:href="#m92a8b9b779" y="110.249679"/>
     <use style="fill:#4c72b0;stroke:#4c72b0;" x="184.297984" xlink:href="#m92a8b9b779" y="71.051803"/>
     <use style="fill:#4c72b0;stroke:#4c72b0;" x="189.981855" xlink:href="#m92a8b9b779" y="103.753395"/>
     <use style="fill:#4c72b0;stroke:#4c72b0;" x="195.051254" xlink:href="#m92a8b9b779" y="182.804268"/>
     <use style="fill:#4c72b0;stroke:#4c72b0;" x="201.464812" xlink:href="#m92a8b9b779" y="264.981231"/>
     <use style="fill:#4c72b0;stroke:#4c72b0;" x="206.726233" xlink:href="#m92a8b9b779" y="278.515367"/>
     <use style="fill:#4c72b0;stroke:#4c72b0;" x="212.79415" xlink:href="#m92a8b9b779" y="255.085127"/>
     <use style="fill:#4c72b0;stroke:#4c72b0;" x="221.665598" xlink:href="#m92a8b9b779" y="201.425044"/>
     <use style="fill:#4c72b0;stroke:#4c72b0;" x="228.54001" xlink:href="#m92a8b9b779" y="125.772194"/>
     <use style="fill:#4c72b0;stroke:#4c72b0;" x="234.79995" xlink:href="#m92a8b9b779" y="116.173708"/>
     <use style="fill:#4c72b0;stroke:#4c72b0;" x="243.671398" xlink:href="#m92a8b9b779" y="166.497526"/>
     <use style="fill:#4c72b0;stroke:#4c72b0;" x="251.544328" xlink:href="#m92a8b9b779" y="185.120109"/>
     <use style="fill:#4c72b0;stroke:#4c72b0;" x="257.765863" xlink:href="#m92a8b9b779" y="184.988952"/>
     <use style="fill:#4c72b0;stroke:#4c72b0;" x="273.895769" xlink:href="#m92a8b9b779" y="161.676581"/>
     <use style="fill:#4c72b0;stroke:#4c72b0;" x="283.880948" xlink:href="#m92a8b9b779" y="99.237512"/>
     <use style="fill:#4c72b0;stroke:#4c72b0;" x="296.285614" xlink:href="#m92a8b9b779" y="65.944212"/>
     <use style="fill:#4c72b0;stroke:#4c72b0;" x="303.966521" xlink:href="#m92a8b9b779" y="102.144767"/>
     <use style="fill:#4c72b0;stroke:#4c72b0;" x="324.35933" xlink:href="#m92a8b9b779" y="156.089876"/>
     <use style="fill:#4c72b0;stroke:#4c72b0;" x="328.122975" xlink:href="#m92a8b9b779" y="175.58752"/>
     <use style="fill:#4c72b0;stroke:#4c72b0;" x="352.433047" xlink:href="#m92a8b9b779" y="173.295621"/>
     <use style="fill:#4c72b0;stroke:#4c72b0;" x="371.328079" xlink:href="#m92a8b9b779" y="149.451557"/>
     <use style="fill:#4c72b0;stroke:#4c72b0;" x="390.607156" xlink:href="#m92a8b9b779" y="97.860772"/>
     <use style="fill:#4c72b0;stroke:#4c72b0;" x="403.242249" xlink:href="#m92a8b9b779" y="70.414062"/>
     <use style="fill:#4c72b0;stroke:#4c72b0;" x="417.221501" xlink:href="#m92a8b9b779" y="108.041218"/>
     <use style="fill:#4c72b0;stroke:#4c72b0;" x="437.537501" xlink:href="#m92a8b9b779" y="158.132249"/>
     <use style="fill:#4c72b0;stroke:#4c72b0;" x="448.021939" xlink:href="#m92a8b9b779" y="163.259741"/>
     <use style="fill:#4c72b0;stroke:#4c72b0;" x="474.713092" xlink:href="#m92a8b9b779" y="150.674858"/>
     <use style="fill:#4c72b0;stroke:#4c72b0;" x="486.810522" xlink:href="#m92a8b9b779" y="126.543873"/>
     <use style="fill:#4c72b0;stroke:#4c72b0;" x="512.387943" xlink:href="#m92a8b9b779" y="78.763116"/>
     <use style="fill:#4c72b0;stroke:#4c72b0;" x="548.641826" xlink:href="#m92a8b9b779" y="55.554545"/>
     <use style="fill:#4c72b0;stroke:#4c72b0;" x="571.070076" xlink:href="#m92a8b9b779" y="107.477165"/>
     <use style="fill:#4c72b0;stroke:#4c72b0;" x="599.182197" xlink:href="#m92a8b9b779" y="170.881272"/>
     <use style="fill:#4c72b0;stroke:#4c72b0;" x="604.827664" xlink:href="#m92a8b9b779" y="178.98473"/>
     <use style="fill:#4c72b0;stroke:#4c72b0;" x="644.0771" xlink:href="#m92a8b9b779" y="170.5439"/>
     <use style="fill:#4c72b0;stroke:#4c72b0;" x="670.729849" xlink:href="#m92a8b9b779" y="155.489641"/>
     <use style="fill:#4c72b0;stroke:#4c72b0;" x="692.121176" xlink:href="#m92a8b9b779" y="107.123984"/>
     <use style="fill:#4c72b0;stroke:#4c72b0;" x="707.751823" xlink:href="#m92a8b9b779" y="82.960088"/>
     <use style="fill:#4c72b0;stroke:#4c72b0;" x="735.057449" xlink:href="#m92a8b9b779" y="133.091559"/>
     <use style="fill:#4c72b0;stroke:#4c72b0;" x="784.061638" xlink:href="#m92a8b9b779" y="217.781003"/>
     <use style="fill:#4c72b0;stroke:#4c72b0;" x="818.203271" xlink:href="#m92a8b9b779" y="293.138741"/>
     <use style="fill:#4c72b0;stroke:#4c72b0;" x="841.245993" xlink:href="#m92a8b9b779" y="302.645455"/>
     <use style="fill:#4c72b0;stroke:#4c72b0;" x="841.245993" xlink:href="#m92a8b9b779" y="274.897906"/>
     <use style="fill:#4c72b0;stroke:#4c72b0;" x="903.538152" xlink:href="#m92a8b9b779" y="220.812361"/>
     <use style="fill:#4c72b0;stroke:#4c72b0;" x="933.954545" xlink:href="#m92a8b9b779" y="136.489261"/>
    </g>
   </g>
   <g id="line2d_16">
    <path clip-path="url(#pda2108a781)" d="M 173.045455 141.586873 
L 188.574212 142.46041 
L 204.102968 143.333947 
L 219.631725 144.207484 
L 235.160482 145.081022 
L 250.689239 145.954559 
L 266.217996 146.828096 
L 281.746753 147.701633 
L 297.27551 148.575171 
L 312.804267 149.448708 
L 328.333024 150.322245 
L 343.861781 151.195782 
L 359.390538 152.069319 
L 374.919295 152.942857 
L 390.448052 153.816394 
L 405.976809 154.689931 
L 421.505566 155.563468 
L 437.034323 156.437006 
L 452.56308 157.310543 
L 468.091837 158.18408 
L 483.620594 159.057617 
L 499.149351 159.931154 
L 514.678108 160.804692 
L 530.206865 161.678229 
L 545.735622 162.551766 
L 561.264378 163.425303 
L 576.793135 164.29884 
L 592.321892 165.172378 
L 607.850649 166.045915 
L 623.379406 166.919452 
L 638.908163 167.792989 
L 654.43692 168.666527 
L 669.965677 169.540064 
L 685.494434 170.413601 
L 701.023191 171.287138 
L 716.551948 172.160675 
L 732.080705 173.034213 
L 747.609462 173.90775 
L 763.138219 174.781287 
L 778.666976 175.654824 
L 794.195733 176.528362 
L 809.72449 177.401899 
L 825.253247 178.275436 
L 840.782004 179.148973 
L 856.310761 180.02251 
L 871.839518 180.896048 
L 887.368275 181.769585 
L 902.897032 182.643122 
L 918.425788 183.516659 
L 933.954545 184.390197 
" style="fill:none;stroke:#c44e52;stroke-dasharray:5.55,2.4;stroke-dashoffset:0;stroke-width:1.5;"/>
   </g>
   <g id="line2d_17">
    <path clip-path="url(#pda2108a781)" d="M 173.045455 171.08932 
L 179.970811 169.873946 
L 186.896168 168.658573 
L 193.821525 167.443199 
L 200.746882 166.227825 
L 207.672239 165.012451 
L 214.597596 163.797077 
L 221.522953 162.581704 
L 228.44831 161.36633 
L 235.373667 160.150956 
L 242.299024 158.935582 
L 249.224381 157.720208 
L 256.149737 156.504835 
L 263.075094 155.289461 
L 270.000451 154.074087 
L 276.925808 152.858713 
L 283.851165 151.64334 
L 290.776522 150.427966 
L 297.701879 149.212592 
L 304.627236 147.997218 
L 311.552593 146.781844 
L 318.47795 145.566471 
L 325.403307 144.351097 
L 332.328663 143.135723 
L 339.25402 141.920349 
L 346.179377 140.704976 
L 353.104734 139.489602 
L 360.030091 138.274228 
L 366.955448 137.058854 
L 373.880805 135.84348 
L 380.806162 134.628107 
L 387.731519 133.412733 
L 394.656876 132.197359 
L 401.582233 130.981985 
L 408.50759 129.766612 
L 415.432946 128.551238 
L 422.358303 127.335864 
L 429.28366 126.12049 
L 436.209017 124.905116 
L 443.134374 123.689743 
L 450.059731 122.474369 
L 456.985088 121.258995 
L 463.910445 120.043621 
L 470.835802 118.828248 
L 477.761159 117.612874 
L 484.686516 116.3975 
L 491.611872 115.182126 
L 498.537229 113.966752 
L 505.462586 112.751379 
L 512.387943 111.536005 
" style="fill:none;stroke:#55a868;stroke-dasharray:5.55,2.4;stroke-dashoffset:0;stroke-width:1.5;"/>
   </g>
   <g id="line2d_18">
    <path clip-path="url(#pda2108a781)" d="M 548.641826 109.375249 
L 556.505351 112.228102 
L 564.368876 115.080955 
L 572.232401 117.933808 
L 580.095926 120.786661 
L 587.959451 123.639514 
L 595.822975 126.492367 
L 603.6865 129.345221 
L 611.550025 132.198074 
L 619.41355 135.050927 
L 627.277075 137.90378 
L 635.1406 140.756633 
L 643.004125 143.609486 
L 650.86765 146.462339 
L 658.731174 149.315192 
L 666.594699 152.168045 
L 674.458224 155.020898 
L 682.321749 157.873751 
L 690.185274 160.726604 
L 698.048799 163.579458 
L 705.912324 166.432311 
L 713.775849 169.285164 
L 721.639374 172.138017 
L 729.502898 174.99087 
L 737.366423 177.843723 
L 745.229948 180.696576 
L 753.093473 183.549429 
L 760.956998 186.402282 
L 768.820523 189.255135 
L 776.684048 192.107988 
L 784.547573 194.960842 
L 792.411098 197.813695 
L 800.274622 200.666548 
L 808.138147 203.519401 
L 816.001672 206.372254 
L 823.865197 209.225107 
L 831.728722 212.07796 
L 839.592247 214.930813 
L 847.455772 217.783666 
L 855.319297 220.636519 
L 863.182821 223.489372 
L 871.046346 226.342225 
L 878.909871 229.195079 
L 886.773396 232.047932 
L 894.636921 234.900785 
L 902.500446 237.753638 
L 910.363971 240.606491 
L 918.227496 243.459344 
L 926.091021 246.312197 
L 933.954545 249.16505 
" style="fill:none;stroke:#8172b3;stroke-dasharray:5.55,2.4;stroke-dashoffset:0;stroke-width:1.5;"/>
   </g>
   <g id="patch_3">
    <path d="M 135 315 
L 135 43.2 
" style="fill:none;stroke:#ffffff;stroke-linecap:square;stroke-linejoin:miter;stroke-width:1.25;"/>
   </g>
   <g id="patch_4">
    <path d="M 972 315 
L 972 43.2 
" style="fill:none;stroke:#ffffff;stroke-linecap:square;stroke-linejoin:miter;stroke-width:1.25;"/>
   </g>
   <g id="patch_5">
    <path d="M 135 315 
L 972 315 
" style="fill:none;stroke:#ffffff;stroke-linecap:square;stroke-linejoin:miter;stroke-width:1.25;"/>
   </g>
   <g id="patch_6">
    <path d="M 135 43.2 
L 972 43.2 
" style="fill:none;stroke:#ffffff;stroke-linecap:square;stroke-linejoin:miter;stroke-width:1.25;"/>
   </g>
   <g id="legend_1">
    <g id="patch_7">
     <path d="M 835.771875 116.889687 
L 964.3 116.889687 
Q 966.5 116.889687 966.5 114.689687 
L 966.5 50.9 
Q 966.5 48.7 964.3 48.7 
L 835.771875 48.7 
Q 833.571875 48.7 833.571875 50.9 
L 833.571875 114.689687 
Q 833.571875 116.889687 835.771875 116.889687 
z
" style="fill:#eaeaf2;opacity:0.8;stroke:#cccccc;stroke-linejoin:miter;"/>
    </g>
    <g id="line2d_19"/>
    <g id="line2d_20">
     <g>
      <use style="fill:#4c72b0;stroke:#4c72b0;" x="848.971875" xlink:href="#m92a8b9b779" y="57.608281"/>
     </g>
    </g>
    <g id="text_17">
     <!-- Baseline_smooth -->
     <defs>
      <path d="M 50.984375 -16.609375 
L 50.984375 -23.578125 
L -0.984375 -23.578125 
L -0.984375 -16.609375 
z
" id="DejaVuSans-95"/>
      <path d="M 54.890625 33.015625 
L 54.890625 0 
L 45.90625 0 
L 45.90625 32.71875 
Q 45.90625 40.484375 42.875 44.328125 
Q 39.84375 48.1875 33.796875 48.1875 
Q 26.515625 48.1875 22.3125 43.546875 
Q 18.109375 38.921875 18.109375 30.90625 
L 18.109375 0 
L 9.078125 0 
L 9.078125 75.984375 
L 18.109375 75.984375 
L 18.109375 46.1875 
Q 21.34375 51.125 25.703125 53.5625 
Q 30.078125 56 35.796875 56 
Q 45.21875 56 50.046875 50.171875 
Q 54.890625 44.34375 54.890625 33.015625 
z
" id="DejaVuSans-104"/>
     </defs>
     <g style="fill:#262626;" transform="translate(868.771875 61.458281)scale(0.11 -0.11)">
      <use xlink:href="#DejaVuSans-66"/>
      <use x="68.603516" xlink:href="#DejaVuSans-97"/>
      <use x="129.882812" xlink:href="#DejaVuSans-115"/>
      <use x="181.982422" xlink:href="#DejaVuSans-101"/>
      <use x="243.505859" xlink:href="#DejaVuSans-108"/>
      <use x="271.289062" xlink:href="#DejaVuSans-105"/>
      <use x="299.072266" xlink:href="#DejaVuSans-110"/>
      <use x="362.451172" xlink:href="#DejaVuSans-101"/>
      <use x="423.974609" xlink:href="#DejaVuSans-95"/>
      <use x="473.974609" xlink:href="#DejaVuSans-115"/>
      <use x="526.074219" xlink:href="#DejaVuSans-109"/>
      <use x="623.486328" xlink:href="#DejaVuSans-111"/>
      <use x="684.667969" xlink:href="#DejaVuSans-111"/>
      <use x="745.849609" xlink:href="#DejaVuSans-116"/>
      <use x="785.058594" xlink:href="#DejaVuSans-104"/>
     </g>
    </g>
    <g id="line2d_21">
     <path d="M 837.971875 74.060156 
L 859.971875 74.060156 
" style="fill:none;stroke:#c44e52;stroke-dasharray:5.55,2.4;stroke-dashoffset:0;stroke-width:1.5;"/>
    </g>
    <g id="line2d_22"/>
    <g id="text_18">
     <!-- Entire Curve -->
     <defs>
      <path d="M 9.8125 72.90625 
L 55.90625 72.90625 
L 55.90625 64.59375 
L 19.671875 64.59375 
L 19.671875 43.015625 
L 54.390625 43.015625 
L 54.390625 34.71875 
L 19.671875 34.71875 
L 19.671875 8.296875 
L 56.78125 8.296875 
L 56.78125 0 
L 9.8125 0 
z
" id="DejaVuSans-69"/>
      <path d="M 8.5 21.578125 
L 8.5 54.6875 
L 17.484375 54.6875 
L 17.484375 21.921875 
Q 17.484375 14.15625 20.5 10.265625 
Q 23.53125 6.390625 29.59375 6.390625 
Q 36.859375 6.390625 41.078125 11.03125 
Q 45.3125 15.671875 45.3125 23.6875 
L 45.3125 54.6875 
L 54.296875 54.6875 
L 54.296875 0 
L 45.3125 0 
L 45.3125 8.40625 
Q 42.046875 3.421875 37.71875 1 
Q 33.40625 -1.421875 27.6875 -1.421875 
Q 18.265625 -1.421875 13.375 4.4375 
Q 8.5 10.296875 8.5 21.578125 
z
M 31.109375 56 
z
" id="DejaVuSans-117"/>
      <path d="M 2.984375 54.6875 
L 12.5 54.6875 
L 29.59375 8.796875 
L 46.6875 54.6875 
L 56.203125 54.6875 
L 35.6875 0 
L 23.484375 0 
z
" id="DejaVuSans-118"/>
     </defs>
     <g style="fill:#262626;" transform="translate(868.771875 77.910156)scale(0.11 -0.11)">
      <use xlink:href="#DejaVuSans-69"/>
      <use x="63.183594" xlink:href="#DejaVuSans-110"/>
      <use x="126.5625" xlink:href="#DejaVuSans-116"/>
      <use x="165.771484" xlink:href="#DejaVuSans-105"/>
      <use x="193.554688" xlink:href="#DejaVuSans-114"/>
      <use x="234.636719" xlink:href="#DejaVuSans-101"/>
      <use x="296.160156" xlink:href="#DejaVuSans-32"/>
      <use x="327.947266" xlink:href="#DejaVuSans-67"/>
      <use x="397.771484" xlink:href="#DejaVuSans-117"/>
      <use x="461.150391" xlink:href="#DejaVuSans-114"/>
      <use x="502.263672" xlink:href="#DejaVuSans-118"/>
      <use x="561.443359" xlink:href="#DejaVuSans-101"/>
     </g>
    </g>
    <g id="line2d_23">
     <path d="M 837.971875 90.206094 
L 859.971875 90.206094 
" style="fill:none;stroke:#55a868;stroke-dasharray:5.55,2.4;stroke-dashoffset:0;stroke-width:1.5;"/>
    </g>
    <g id="line2d_24"/>
    <g id="text_19">
     <!-- Head of Curve -->
     <defs>
      <path d="M 9.8125 72.90625 
L 19.671875 72.90625 
L 19.671875 43.015625 
L 55.515625 43.015625 
L 55.515625 72.90625 
L 65.375 72.90625 
L 65.375 0 
L 55.515625 0 
L 55.515625 34.71875 
L 19.671875 34.71875 
L 19.671875 0 
L 9.8125 0 
z
" id="DejaVuSans-72"/>
     </defs>
     <g style="fill:#262626;" transform="translate(868.771875 94.056094)scale(0.11 -0.11)">
      <use xlink:href="#DejaVuSans-72"/>
      <use x="75.195312" xlink:href="#DejaVuSans-101"/>
      <use x="136.71875" xlink:href="#DejaVuSans-97"/>
      <use x="197.998047" xlink:href="#DejaVuSans-100"/>
      <use x="261.474609" xlink:href="#DejaVuSans-32"/>
      <use x="293.261719" xlink:href="#DejaVuSans-111"/>
      <use x="354.443359" xlink:href="#DejaVuSans-102"/>
      <use x="389.648438" xlink:href="#DejaVuSans-32"/>
      <use x="421.435547" xlink:href="#DejaVuSans-67"/>
      <use x="491.259766" xlink:href="#DejaVuSans-117"/>
      <use x="554.638672" xlink:href="#DejaVuSans-114"/>
      <use x="595.751953" xlink:href="#DejaVuSans-118"/>
      <use x="654.931641" xlink:href="#DejaVuSans-101"/>
     </g>
    </g>
    <g id="line2d_25">
     <path d="M 837.971875 106.352031 
L 859.971875 106.352031 
" style="fill:none;stroke:#8172b3;stroke-dasharray:5.55,2.4;stroke-dashoffset:0;stroke-width:1.5;"/>
    </g>
    <g id="line2d_26"/>
    <g id="text_20">
     <!-- Tail of Curve -->
     <g style="fill:#262626;" transform="translate(868.771875 110.202031)scale(0.11 -0.11)">
      <use xlink:href="#DejaVuSans-84"/>
      <use x="60.833984" xlink:href="#DejaVuSans-97"/>
      <use x="122.113281" xlink:href="#DejaVuSans-105"/>
      <use x="149.896484" xlink:href="#DejaVuSans-108"/>
      <use x="177.679688" xlink:href="#DejaVuSans-32"/>
      <use x="209.466797" xlink:href="#DejaVuSans-111"/>
      <use x="270.648438" xlink:href="#DejaVuSans-102"/>
      <use x="305.853516" xlink:href="#DejaVuSans-32"/>
      <use x="337.640625" xlink:href="#DejaVuSans-67"/>
      <use x="407.464844" xlink:href="#DejaVuSans-117"/>
      <use x="470.84375" xlink:href="#DejaVuSans-114"/>
      <use x="511.957031" xlink:href="#DejaVuSans-118"/>
      <use x="571.136719" xlink:href="#DejaVuSans-101"/>
     </g>
    </g>
   </g>
  </g>
 </g>
 <defs>
  <clipPath id="pda2108a781">
   <rect height="271.8" width="837" x="135" y="43.2"/>
  </clipPath>
 </defs>
</svg>
