<?xml version="1.0" encoding="utf-8" standalone="no"?>
<!DOCTYPE svg PUBLIC "-//W3C//DTD SVG 1.1//EN"
  "http://www.w3.org/Graphics/SVG/1.1/DTD/svg11.dtd">
<!-- Created with matplotlib (https://matplotlib.org/) -->
<svg height="360pt" version="1.1" viewBox="0 0 1080 360" width="1080pt" xmlns="http://www.w3.org/2000/svg" xmlns:xlink="http://www.w3.org/1999/xlink">
 <defs>
  <style type="text/css">
*{stroke-linecap:butt;stroke-linejoin:round;}
  </style>
 </defs>
 <g id="figure_1">
  <g id="patch_1">
   <path d="M 0 360 
L 1080 360 
L 1080 0 
L 0 0 
z
" style="fill:#ffffff;"/>
  </g>
  <g id="axes_1">
   <g id="patch_2">
    <path d="M 135 315 
L 972 315 
L 972 43.2 
L 135 43.2 
z
" style="fill:#eaeaf2;"/>
   </g>
   <g id="matplotlib.axis_1">
    <g id="xtick_1">
     <g id="line2d_1">
      <path clip-path="url(#p02ed9c632a)" d="M 164.194284 315 
L 164.194284 43.2 
" style="fill:none;stroke:#ffffff;stroke-linecap:round;"/>
     </g>
     <g id="text_1">
      <!-- 0 -->
      <defs>
       <path d="M 31.78125 66.40625 
Q 24.171875 66.40625 20.328125 58.90625 
Q 16.5 51.421875 16.5 36.375 
Q 16.5 21.390625 20.328125 13.890625 
Q 24.171875 6.390625 31.78125 6.390625 
Q 39.453125 6.390625 43.28125 13.890625 
Q 47.125 21.390625 47.125 36.375 
Q 47.125 51.421875 43.28125 58.90625 
Q 39.453125 66.40625 31.78125 66.40625 
z
M 31.78125 74.21875 
Q 44.046875 74.21875 50.515625 64.515625 
Q 56.984375 54.828125 56.984375 36.375 
Q 56.984375 17.96875 50.515625 8.265625 
Q 44.046875 -1.421875 31.78125 -1.421875 
Q 19.53125 -1.421875 13.0625 8.265625 
Q 6.59375 17.96875 6.59375 36.375 
Q 6.59375 54.828125 13.0625 64.515625 
Q 19.53125 74.21875 31.78125 74.21875 
z
" id="DejaVuSans-48"/>
      </defs>
      <g style="fill:#262626;" transform="translate(160.694909 332.858281)scale(0.11 -0.11)">
       <use xlink:href="#DejaVuSans-48"/>
      </g>
     </g>
    </g>
    <g id="xtick_2">
     <g id="line2d_2">
      <path clip-path="url(#p02ed9c632a)" d="M 268.325701 315 
L 268.325701 43.2 
" style="fill:none;stroke:#ffffff;stroke-linecap:round;"/>
     </g>
     <g id="text_2">
      <!-- 5000 -->
      <defs>
       <path d="M 10.796875 72.90625 
L 49.515625 72.90625 
L 49.515625 64.59375 
L 19.828125 64.59375 
L 19.828125 46.734375 
Q 21.96875 47.46875 24.109375 47.828125 
Q 26.265625 48.1875 28.421875 48.1875 
Q 40.625 48.1875 47.75 41.5 
Q 54.890625 34.8125 54.890625 23.390625 
Q 54.890625 11.625 47.5625 5.09375 
Q 40.234375 -1.421875 26.90625 -1.421875 
Q 22.3125 -1.421875 17.546875 -0.640625 
Q 12.796875 0.140625 7.71875 1.703125 
L 7.71875 11.625 
Q 12.109375 9.234375 16.796875 8.0625 
Q 21.484375 6.890625 26.703125 6.890625 
Q 35.15625 6.890625 40.078125 11.328125 
Q 45.015625 15.765625 45.015625 23.390625 
Q 45.015625 31 40.078125 35.4375 
Q 35.15625 39.890625 26.703125 39.890625 
Q 22.75 39.890625 18.8125 39.015625 
Q 14.890625 38.140625 10.796875 36.28125 
z
" id="DejaVuSans-53"/>
      </defs>
      <g style="fill:#262626;" transform="translate(254.328201 332.858281)scale(0.11 -0.11)">
       <use xlink:href="#DejaVuSans-53"/>
       <use x="63.623047" xlink:href="#DejaVuSans-48"/>
       <use x="127.246094" xlink:href="#DejaVuSans-48"/>
       <use x="190.869141" xlink:href="#DejaVuSans-48"/>
      </g>
     </g>
    </g>
    <g id="xtick_3">
     <g id="line2d_3">
      <path clip-path="url(#p02ed9c632a)" d="M 372.457118 315 
L 372.457118 43.2 
" style="fill:none;stroke:#ffffff;stroke-linecap:round;"/>
     </g>
     <g id="text_3">
      <!-- 10000 -->
      <defs>
       <path d="M 12.40625 8.296875 
L 28.515625 8.296875 
L 28.515625 63.921875 
L 10.984375 60.40625 
L 10.984375 69.390625 
L 28.421875 72.90625 
L 38.28125 72.90625 
L 38.28125 8.296875 
L 54.390625 8.296875 
L 54.390625 0 
L 12.40625 0 
z
" id="DejaVuSans-49"/>
      </defs>
      <g style="fill:#262626;" transform="translate(354.960243 332.858281)scale(0.11 -0.11)">
       <use xlink:href="#DejaVuSans-49"/>
       <use x="63.623047" xlink:href="#DejaVuSans-48"/>
       <use x="127.246094" xlink:href="#DejaVuSans-48"/>
       <use x="190.869141" xlink:href="#DejaVuSans-48"/>
       <use x="254.492188" xlink:href="#DejaVuSans-48"/>
      </g>
     </g>
    </g>
    <g id="xtick_4">
     <g id="line2d_4">
      <path clip-path="url(#p02ed9c632a)" d="M 476.588535 315 
L 476.588535 43.2 
" style="fill:none;stroke:#ffffff;stroke-linecap:round;"/>
     </g>
     <g id="text_4">
      <!-- 15000 -->
      <g style="fill:#262626;" transform="translate(459.09166 332.858281)scale(0.11 -0.11)">
       <use xlink:href="#DejaVuSans-49"/>
       <use x="63.623047" xlink:href="#DejaVuSans-53"/>
       <use x="127.246094" xlink:href="#DejaVuSans-48"/>
       <use x="190.869141" xlink:href="#DejaVuSans-48"/>
       <use x="254.492188" xlink:href="#DejaVuSans-48"/>
      </g>
     </g>
    </g>
    <g id="xtick_5">
     <g id="line2d_5">
      <path clip-path="url(#p02ed9c632a)" d="M 580.719952 315 
L 580.719952 43.2 
" style="fill:none;stroke:#ffffff;stroke-linecap:round;"/>
     </g>
     <g id="text_5">
      <!-- 20000 -->
      <defs>
       <path d="M 19.1875 8.296875 
L 53.609375 8.296875 
L 53.609375 0 
L 7.328125 0 
L 7.328125 8.296875 
Q 12.9375 14.109375 22.625 23.890625 
Q 32.328125 33.6875 34.8125 36.53125 
Q 39.546875 41.84375 41.421875 45.53125 
Q 43.3125 49.21875 43.3125 52.78125 
Q 43.3125 58.59375 39.234375 62.25 
Q 35.15625 65.921875 28.609375 65.921875 
Q 23.96875 65.921875 18.8125 64.3125 
Q 13.671875 62.703125 7.8125 59.421875 
L 7.8125 69.390625 
Q 13.765625 71.78125 18.9375 73 
Q 24.125 74.21875 28.421875 74.21875 
Q 39.75 74.21875 46.484375 68.546875 
Q 53.21875 62.890625 53.21875 53.421875 
Q 53.21875 48.921875 51.53125 44.890625 
Q 49.859375 40.875 45.40625 35.40625 
Q 44.1875 33.984375 37.640625 27.21875 
Q 31.109375 20.453125 19.1875 8.296875 
z
" id="DejaVuSans-50"/>
      </defs>
      <g style="fill:#262626;" transform="translate(563.223077 332.858281)scale(0.11 -0.11)">
       <use xlink:href="#DejaVuSans-50"/>
       <use x="63.623047" xlink:href="#DejaVuSans-48"/>
       <use x="127.246094" xlink:href="#DejaVuSans-48"/>
       <use x="190.869141" xlink:href="#DejaVuSans-48"/>
       <use x="254.492188" xlink:href="#DejaVuSans-48"/>
      </g>
     </g>
    </g>
    <g id="xtick_6">
     <g id="line2d_6">
      <path clip-path="url(#p02ed9c632a)" d="M 684.85137 315 
L 684.85137 43.2 
" style="fill:none;stroke:#ffffff;stroke-linecap:round;"/>
     </g>
     <g id="text_6">
      <!-- 25000 -->
      <g style="fill:#262626;" transform="translate(667.354495 332.858281)scale(0.11 -0.11)">
       <use xlink:href="#DejaVuSans-50"/>
       <use x="63.623047" xlink:href="#DejaVuSans-53"/>
       <use x="127.246094" xlink:href="#DejaVuSans-48"/>
       <use x="190.869141" xlink:href="#DejaVuSans-48"/>
       <use x="254.492188" xlink:href="#DejaVuSans-48"/>
      </g>
     </g>
    </g>
    <g id="xtick_7">
     <g id="line2d_7">
      <path clip-path="url(#p02ed9c632a)" d="M 788.982787 315 
L 788.982787 43.2 
" style="fill:none;stroke:#ffffff;stroke-linecap:round;"/>
     </g>
     <g id="text_7">
      <!-- 30000 -->
      <defs>
       <path d="M 40.578125 39.3125 
Q 47.65625 37.796875 51.625 33 
Q 55.609375 28.21875 55.609375 21.1875 
Q 55.609375 10.40625 48.1875 4.484375 
Q 40.765625 -1.421875 27.09375 -1.421875 
Q 22.515625 -1.421875 17.65625 -0.515625 
Q 12.796875 0.390625 7.625 2.203125 
L 7.625 11.71875 
Q 11.71875 9.328125 16.59375 8.109375 
Q 21.484375 6.890625 26.8125 6.890625 
Q 36.078125 6.890625 40.9375 10.546875 
Q 45.796875 14.203125 45.796875 21.1875 
Q 45.796875 27.640625 41.28125 31.265625 
Q 36.765625 34.90625 28.71875 34.90625 
L 20.21875 34.90625 
L 20.21875 43.015625 
L 29.109375 43.015625 
Q 36.375 43.015625 40.234375 45.921875 
Q 44.09375 48.828125 44.09375 54.296875 
Q 44.09375 59.90625 40.109375 62.90625 
Q 36.140625 65.921875 28.71875 65.921875 
Q 24.65625 65.921875 20.015625 65.03125 
Q 15.375 64.15625 9.8125 62.3125 
L 9.8125 71.09375 
Q 15.4375 72.65625 20.34375 73.4375 
Q 25.25 74.21875 29.59375 74.21875 
Q 40.828125 74.21875 47.359375 69.109375 
Q 53.90625 64.015625 53.90625 55.328125 
Q 53.90625 49.265625 50.4375 45.09375 
Q 46.96875 40.921875 40.578125 39.3125 
z
" id="DejaVuSans-51"/>
      </defs>
      <g style="fill:#262626;" transform="translate(771.485912 332.858281)scale(0.11 -0.11)">
       <use xlink:href="#DejaVuSans-51"/>
       <use x="63.623047" xlink:href="#DejaVuSans-48"/>
       <use x="127.246094" xlink:href="#DejaVuSans-48"/>
       <use x="190.869141" xlink:href="#DejaVuSans-48"/>
       <use x="254.492188" xlink:href="#DejaVuSans-48"/>
      </g>
     </g>
    </g>
    <g id="xtick_8">
     <g id="line2d_8">
      <path clip-path="url(#p02ed9c632a)" d="M 893.114204 315 
L 893.114204 43.2 
" style="fill:none;stroke:#ffffff;stroke-linecap:round;"/>
     </g>
     <g id="text_8">
      <!-- 35000 -->
      <g style="fill:#262626;" transform="translate(875.617329 332.858281)scale(0.11 -0.11)">
       <use xlink:href="#DejaVuSans-51"/>
       <use x="63.623047" xlink:href="#DejaVuSans-53"/>
       <use x="127.246094" xlink:href="#DejaVuSans-48"/>
       <use x="190.869141" xlink:href="#DejaVuSans-48"/>
       <use x="254.492188" xlink:href="#DejaVuSans-48"/>
      </g>
     </g>
    </g>
    <g id="text_9">
     <!-- Total Confirmed Cases in BC -->
     <defs>
      <path d="M -0.296875 72.90625 
L 61.375 72.90625 
L 61.375 64.59375 
L 35.5 64.59375 
L 35.5 0 
L 25.59375 0 
L 25.59375 64.59375 
L -0.296875 64.59375 
z
" id="DejaVuSans-84"/>
      <path d="M 30.609375 48.390625 
Q 23.390625 48.390625 19.1875 42.75 
Q 14.984375 37.109375 14.984375 27.296875 
Q 14.984375 17.484375 19.15625 11.84375 
Q 23.34375 6.203125 30.609375 6.203125 
Q 37.796875 6.203125 41.984375 11.859375 
Q 46.1875 17.53125 46.1875 27.296875 
Q 46.1875 37.015625 41.984375 42.703125 
Q 37.796875 48.390625 30.609375 48.390625 
z
M 30.609375 56 
Q 42.328125 56 49.015625 48.375 
Q 55.71875 40.765625 55.71875 27.296875 
Q 55.71875 13.875 49.015625 6.21875 
Q 42.328125 -1.421875 30.609375 -1.421875 
Q 18.84375 -1.421875 12.171875 6.21875 
Q 5.515625 13.875 5.515625 27.296875 
Q 5.515625 40.765625 12.171875 48.375 
Q 18.84375 56 30.609375 56 
z
" id="DejaVuSans-111"/>
      <path d="M 18.3125 70.21875 
L 18.3125 54.6875 
L 36.8125 54.6875 
L 36.8125 47.703125 
L 18.3125 47.703125 
L 18.3125 18.015625 
Q 18.3125 11.328125 20.140625 9.421875 
Q 21.96875 7.515625 27.59375 7.515625 
L 36.8125 7.515625 
L 36.8125 0 
L 27.59375 0 
Q 17.1875 0 13.234375 3.875 
Q 9.28125 7.765625 9.28125 18.015625 
L 9.28125 47.703125 
L 2.6875 47.703125 
L 2.6875 54.6875 
L 9.28125 54.6875 
L 9.28125 70.21875 
z
" id="DejaVuSans-116"/>
      <path d="M 34.28125 27.484375 
Q 23.390625 27.484375 19.1875 25 
Q 14.984375 22.515625 14.984375 16.5 
Q 14.984375 11.71875 18.140625 8.90625 
Q 21.296875 6.109375 26.703125 6.109375 
Q 34.1875 6.109375 38.703125 11.40625 
Q 43.21875 16.703125 43.21875 25.484375 
L 43.21875 27.484375 
z
M 52.203125 31.203125 
L 52.203125 0 
L 43.21875 0 
L 43.21875 8.296875 
Q 40.140625 3.328125 35.546875 0.953125 
Q 30.953125 -1.421875 24.3125 -1.421875 
Q 15.921875 -1.421875 10.953125 3.296875 
Q 6 8.015625 6 15.921875 
Q 6 25.140625 12.171875 29.828125 
Q 18.359375 34.515625 30.609375 34.515625 
L 43.21875 34.515625 
L 43.21875 35.40625 
Q 43.21875 41.609375 39.140625 45 
Q 35.0625 48.390625 27.6875 48.390625 
Q 23 48.390625 18.546875 47.265625 
Q 14.109375 46.140625 10.015625 43.890625 
L 10.015625 52.203125 
Q 14.9375 54.109375 19.578125 55.046875 
Q 24.21875 56 28.609375 56 
Q 40.484375 56 46.34375 49.84375 
Q 52.203125 43.703125 52.203125 31.203125 
z
" id="DejaVuSans-97"/>
      <path d="M 9.421875 75.984375 
L 18.40625 75.984375 
L 18.40625 0 
L 9.421875 0 
z
" id="DejaVuSans-108"/>
      <path id="DejaVuSans-32"/>
      <path d="M 64.40625 67.28125 
L 64.40625 56.890625 
Q 59.421875 61.53125 53.78125 63.8125 
Q 48.140625 66.109375 41.796875 66.109375 
Q 29.296875 66.109375 22.65625 58.46875 
Q 16.015625 50.828125 16.015625 36.375 
Q 16.015625 21.96875 22.65625 14.328125 
Q 29.296875 6.6875 41.796875 6.6875 
Q 48.140625 6.6875 53.78125 8.984375 
Q 59.421875 11.28125 64.40625 15.921875 
L 64.40625 5.609375 
Q 59.234375 2.09375 53.4375 0.328125 
Q 47.65625 -1.421875 41.21875 -1.421875 
Q 24.65625 -1.421875 15.125 8.703125 
Q 5.609375 18.84375 5.609375 36.375 
Q 5.609375 53.953125 15.125 64.078125 
Q 24.65625 74.21875 41.21875 74.21875 
Q 47.75 74.21875 53.53125 72.484375 
Q 59.328125 70.75 64.40625 67.28125 
z
" id="DejaVuSans-67"/>
      <path d="M 54.890625 33.015625 
L 54.890625 0 
L 45.90625 0 
L 45.90625 32.71875 
Q 45.90625 40.484375 42.875 44.328125 
Q 39.84375 48.1875 33.796875 48.1875 
Q 26.515625 48.1875 22.3125 43.546875 
Q 18.109375 38.921875 18.109375 30.90625 
L 18.109375 0 
L 9.078125 0 
L 9.078125 54.6875 
L 18.109375 54.6875 
L 18.109375 46.1875 
Q 21.34375 51.125 25.703125 53.5625 
Q 30.078125 56 35.796875 56 
Q 45.21875 56 50.046875 50.171875 
Q 54.890625 44.34375 54.890625 33.015625 
z
" id="DejaVuSans-110"/>
      <path d="M 37.109375 75.984375 
L 37.109375 68.5 
L 28.515625 68.5 
Q 23.6875 68.5 21.796875 66.546875 
Q 19.921875 64.59375 19.921875 59.515625 
L 19.921875 54.6875 
L 34.71875 54.6875 
L 34.71875 47.703125 
L 19.921875 47.703125 
L 19.921875 0 
L 10.890625 0 
L 10.890625 47.703125 
L 2.296875 47.703125 
L 2.296875 54.6875 
L 10.890625 54.6875 
L 10.890625 58.5 
Q 10.890625 67.625 15.140625 71.796875 
Q 19.390625 75.984375 28.609375 75.984375 
z
" id="DejaVuSans-102"/>
      <path d="M 9.421875 54.6875 
L 18.40625 54.6875 
L 18.40625 0 
L 9.421875 0 
z
M 9.421875 75.984375 
L 18.40625 75.984375 
L 18.40625 64.59375 
L 9.421875 64.59375 
z
" id="DejaVuSans-105"/>
      <path d="M 41.109375 46.296875 
Q 39.59375 47.171875 37.8125 47.578125 
Q 36.03125 48 33.890625 48 
Q 26.265625 48 22.1875 43.046875 
Q 18.109375 38.09375 18.109375 28.8125 
L 18.109375 0 
L 9.078125 0 
L 9.078125 54.6875 
L 18.109375 54.6875 
L 18.109375 46.1875 
Q 20.953125 51.171875 25.484375 53.578125 
Q 30.03125 56 36.53125 56 
Q 37.453125 56 38.578125 55.875 
Q 39.703125 55.765625 41.0625 55.515625 
z
" id="DejaVuSans-114"/>
      <path d="M 52 44.1875 
Q 55.375 50.25 60.0625 53.125 
Q 64.75 56 71.09375 56 
Q 79.640625 56 84.28125 50.015625 
Q 88.921875 44.046875 88.921875 33.015625 
L 88.921875 0 
L 79.890625 0 
L 79.890625 32.71875 
Q 79.890625 40.578125 77.09375 44.375 
Q 74.3125 48.1875 68.609375 48.1875 
Q 61.625 48.1875 57.5625 43.546875 
Q 53.515625 38.921875 53.515625 30.90625 
L 53.515625 0 
L 44.484375 0 
L 44.484375 32.71875 
Q 44.484375 40.625 41.703125 44.40625 
Q 38.921875 48.1875 33.109375 48.1875 
Q 26.21875 48.1875 22.15625 43.53125 
Q 18.109375 38.875 18.109375 30.90625 
L 18.109375 0 
L 9.078125 0 
L 9.078125 54.6875 
L 18.109375 54.6875 
L 18.109375 46.1875 
Q 21.1875 51.21875 25.484375 53.609375 
Q 29.78125 56 35.6875 56 
Q 41.65625 56 45.828125 52.96875 
Q 50 49.953125 52 44.1875 
z
" id="DejaVuSans-109"/>
      <path d="M 56.203125 29.59375 
L 56.203125 25.203125 
L 14.890625 25.203125 
Q 15.484375 15.921875 20.484375 11.0625 
Q 25.484375 6.203125 34.421875 6.203125 
Q 39.59375 6.203125 44.453125 7.46875 
Q 49.3125 8.734375 54.109375 11.28125 
L 54.109375 2.78125 
Q 49.265625 0.734375 44.1875 -0.34375 
Q 39.109375 -1.421875 33.890625 -1.421875 
Q 20.796875 -1.421875 13.15625 6.1875 
Q 5.515625 13.8125 5.515625 26.8125 
Q 5.515625 40.234375 12.765625 48.109375 
Q 20.015625 56 32.328125 56 
Q 43.359375 56 49.78125 48.890625 
Q 56.203125 41.796875 56.203125 29.59375 
z
M 47.21875 32.234375 
Q 47.125 39.59375 43.09375 43.984375 
Q 39.0625 48.390625 32.421875 48.390625 
Q 24.90625 48.390625 20.390625 44.140625 
Q 15.875 39.890625 15.1875 32.171875 
z
" id="DejaVuSans-101"/>
      <path d="M 45.40625 46.390625 
L 45.40625 75.984375 
L 54.390625 75.984375 
L 54.390625 0 
L 45.40625 0 
L 45.40625 8.203125 
Q 42.578125 3.328125 38.25 0.953125 
Q 33.9375 -1.421875 27.875 -1.421875 
Q 17.96875 -1.421875 11.734375 6.484375 
Q 5.515625 14.40625 5.515625 27.296875 
Q 5.515625 40.1875 11.734375 48.09375 
Q 17.96875 56 27.875 56 
Q 33.9375 56 38.25 53.625 
Q 42.578125 51.265625 45.40625 46.390625 
z
M 14.796875 27.296875 
Q 14.796875 17.390625 18.875 11.75 
Q 22.953125 6.109375 30.078125 6.109375 
Q 37.203125 6.109375 41.296875 11.75 
Q 45.40625 17.390625 45.40625 27.296875 
Q 45.40625 37.203125 41.296875 42.84375 
Q 37.203125 48.484375 30.078125 48.484375 
Q 22.953125 48.484375 18.875 42.84375 
Q 14.796875 37.203125 14.796875 27.296875 
z
" id="DejaVuSans-100"/>
      <path d="M 44.28125 53.078125 
L 44.28125 44.578125 
Q 40.484375 46.53125 36.375 47.5 
Q 32.28125 48.484375 27.875 48.484375 
Q 21.1875 48.484375 17.84375 46.4375 
Q 14.5 44.390625 14.5 40.28125 
Q 14.5 37.15625 16.890625 35.375 
Q 19.28125 33.59375 26.515625 31.984375 
L 29.59375 31.296875 
Q 39.15625 29.25 43.1875 25.515625 
Q 47.21875 21.78125 47.21875 15.09375 
Q 47.21875 7.46875 41.1875 3.015625 
Q 35.15625 -1.421875 24.609375 -1.421875 
Q 20.21875 -1.421875 15.453125 -0.5625 
Q 10.6875 0.296875 5.421875 2 
L 5.421875 11.28125 
Q 10.40625 8.6875 15.234375 7.390625 
Q 20.0625 6.109375 24.8125 6.109375 
Q 31.15625 6.109375 34.5625 8.28125 
Q 37.984375 10.453125 37.984375 14.40625 
Q 37.984375 18.0625 35.515625 20.015625 
Q 33.0625 21.96875 24.703125 23.78125 
L 21.578125 24.515625 
Q 13.234375 26.265625 9.515625 29.90625 
Q 5.8125 33.546875 5.8125 39.890625 
Q 5.8125 47.609375 11.28125 51.796875 
Q 16.75 56 26.8125 56 
Q 31.78125 56 36.171875 55.265625 
Q 40.578125 54.546875 44.28125 53.078125 
z
" id="DejaVuSans-115"/>
      <path d="M 19.671875 34.8125 
L 19.671875 8.109375 
L 35.5 8.109375 
Q 43.453125 8.109375 47.28125 11.40625 
Q 51.125 14.703125 51.125 21.484375 
Q 51.125 28.328125 47.28125 31.5625 
Q 43.453125 34.8125 35.5 34.8125 
z
M 19.671875 64.796875 
L 19.671875 42.828125 
L 34.28125 42.828125 
Q 41.5 42.828125 45.03125 45.53125 
Q 48.578125 48.25 48.578125 53.8125 
Q 48.578125 59.328125 45.03125 62.0625 
Q 41.5 64.796875 34.28125 64.796875 
z
M 9.8125 72.90625 
L 35.015625 72.90625 
Q 46.296875 72.90625 52.390625 68.21875 
Q 58.5 63.53125 58.5 54.890625 
Q 58.5 48.1875 55.375 44.234375 
Q 52.25 40.28125 46.1875 39.3125 
Q 53.46875 37.75 57.5 32.78125 
Q 61.53125 27.828125 61.53125 20.40625 
Q 61.53125 10.640625 54.890625 5.3125 
Q 48.25 0 35.984375 0 
L 9.8125 0 
z
" id="DejaVuSans-66"/>
     </defs>
     <g style="fill:#262626;" transform="translate(468.01875 348.264063)scale(0.12 -0.12)">
      <use xlink:href="#DejaVuSans-84"/>
      <use x="60.818359" xlink:href="#DejaVuSans-111"/>
      <use x="122" xlink:href="#DejaVuSans-116"/>
      <use x="161.208984" xlink:href="#DejaVuSans-97"/>
      <use x="222.488281" xlink:href="#DejaVuSans-108"/>
      <use x="250.271484" xlink:href="#DejaVuSans-32"/>
      <use x="282.058594" xlink:href="#DejaVuSans-67"/>
      <use x="351.882812" xlink:href="#DejaVuSans-111"/>
      <use x="413.064453" xlink:href="#DejaVuSans-110"/>
      <use x="476.443359" xlink:href="#DejaVuSans-102"/>
      <use x="511.648438" xlink:href="#DejaVuSans-105"/>
      <use x="539.431641" xlink:href="#DejaVuSans-114"/>
      <use x="580.529297" xlink:href="#DejaVuSans-109"/>
      <use x="677.941406" xlink:href="#DejaVuSans-101"/>
      <use x="739.464844" xlink:href="#DejaVuSans-100"/>
      <use x="802.941406" xlink:href="#DejaVuSans-32"/>
      <use x="834.728516" xlink:href="#DejaVuSans-67"/>
      <use x="904.552734" xlink:href="#DejaVuSans-97"/>
      <use x="965.832031" xlink:href="#DejaVuSans-115"/>
      <use x="1017.931641" xlink:href="#DejaVuSans-101"/>
      <use x="1079.455078" xlink:href="#DejaVuSans-115"/>
      <use x="1131.554688" xlink:href="#DejaVuSans-32"/>
      <use x="1163.341797" xlink:href="#DejaVuSans-105"/>
      <use x="1191.125" xlink:href="#DejaVuSans-110"/>
      <use x="1254.503906" xlink:href="#DejaVuSans-32"/>
      <use x="1286.291016" xlink:href="#DejaVuSans-66"/>
      <use x="1354.878906" xlink:href="#DejaVuSans-67"/>
     </g>
    </g>
   </g>
   <g id="matplotlib.axis_2">
    <g id="ytick_1">
     <g id="line2d_9">
      <path clip-path="url(#p02ed9c632a)" d="M 135 305.150521 
L 972 305.150521 
" style="fill:none;stroke:#ffffff;stroke-linecap:round;"/>
     </g>
     <g id="text_10">
      <!-- 30 -->
      <g style="fill:#262626;" transform="translate(111.5025 309.329661)scale(0.11 -0.11)">
       <use xlink:href="#DejaVuSans-51"/>
       <use x="63.623047" xlink:href="#DejaVuSans-48"/>
      </g>
     </g>
    </g>
    <g id="ytick_2">
     <g id="line2d_10">
      <path clip-path="url(#p02ed9c632a)" d="M 135 274.086966 
L 972 274.086966 
" style="fill:none;stroke:#ffffff;stroke-linecap:round;"/>
     </g>
     <g id="text_11">
      <!-- 35 -->
      <g style="fill:#262626;" transform="translate(111.5025 278.266107)scale(0.11 -0.11)">
       <use xlink:href="#DejaVuSans-51"/>
       <use x="63.623047" xlink:href="#DejaVuSans-53"/>
      </g>
     </g>
    </g>
    <g id="ytick_3">
     <g id="line2d_11">
      <path clip-path="url(#p02ed9c632a)" d="M 135 243.023412 
L 972 243.023412 
" style="fill:none;stroke:#ffffff;stroke-linecap:round;"/>
     </g>
     <g id="text_12">
      <!-- 40 -->
      <defs>
       <path d="M 37.796875 64.3125 
L 12.890625 25.390625 
L 37.796875 25.390625 
z
M 35.203125 72.90625 
L 47.609375 72.90625 
L 47.609375 25.390625 
L 58.015625 25.390625 
L 58.015625 17.1875 
L 47.609375 17.1875 
L 47.609375 0 
L 37.796875 0 
L 37.796875 17.1875 
L 4.890625 17.1875 
L 4.890625 26.703125 
z
" id="DejaVuSans-52"/>
      </defs>
      <g style="fill:#262626;" transform="translate(111.5025 247.202553)scale(0.11 -0.11)">
       <use xlink:href="#DejaVuSans-52"/>
       <use x="63.623047" xlink:href="#DejaVuSans-48"/>
      </g>
     </g>
    </g>
    <g id="ytick_4">
     <g id="line2d_12">
      <path clip-path="url(#p02ed9c632a)" d="M 135 211.959858 
L 972 211.959858 
" style="fill:none;stroke:#ffffff;stroke-linecap:round;"/>
     </g>
     <g id="text_13">
      <!-- 45 -->
      <g style="fill:#262626;" transform="translate(111.5025 216.138998)scale(0.11 -0.11)">
       <use xlink:href="#DejaVuSans-52"/>
       <use x="63.623047" xlink:href="#DejaVuSans-53"/>
      </g>
     </g>
    </g>
    <g id="ytick_5">
     <g id="line2d_13">
      <path clip-path="url(#p02ed9c632a)" d="M 135 180.896304 
L 972 180.896304 
" style="fill:none;stroke:#ffffff;stroke-linecap:round;"/>
     </g>
     <g id="text_14">
      <!-- 50 -->
      <g style="fill:#262626;" transform="translate(111.5025 185.075444)scale(0.11 -0.11)">
       <use xlink:href="#DejaVuSans-53"/>
       <use x="63.623047" xlink:href="#DejaVuSans-48"/>
      </g>
     </g>
    </g>
    <g id="ytick_6">
     <g id="line2d_14">
      <path clip-path="url(#p02ed9c632a)" d="M 135 149.832749 
L 972 149.832749 
" style="fill:none;stroke:#ffffff;stroke-linecap:round;"/>
     </g>
     <g id="text_15">
      <!-- 55 -->
      <g style="fill:#262626;" transform="translate(111.5025 154.01189)scale(0.11 -0.11)">
       <use xlink:href="#DejaVuSans-53"/>
       <use x="63.623047" xlink:href="#DejaVuSans-53"/>
      </g>
     </g>
    </g>
    <g id="ytick_7">
     <g id="line2d_15">
      <path clip-path="url(#p02ed9c632a)" d="M 135 118.769195 
L 972 118.769195 
" style="fill:none;stroke:#ffffff;stroke-linecap:round;"/>
     </g>
     <g id="text_16">
      <!-- 60 -->
      <defs>
       <path d="M 33.015625 40.375 
Q 26.375 40.375 22.484375 35.828125 
Q 18.609375 31.296875 18.609375 23.390625 
Q 18.609375 15.53125 22.484375 10.953125 
Q 26.375 6.390625 33.015625 6.390625 
Q 39.65625 6.390625 43.53125 10.953125 
Q 47.40625 15.53125 47.40625 23.390625 
Q 47.40625 31.296875 43.53125 35.828125 
Q 39.65625 40.375 33.015625 40.375 
z
M 52.59375 71.296875 
L 52.59375 62.3125 
Q 48.875 64.0625 45.09375 64.984375 
Q 41.3125 65.921875 37.59375 65.921875 
Q 27.828125 65.921875 22.671875 59.328125 
Q 17.53125 52.734375 16.796875 39.40625 
Q 19.671875 43.65625 24.015625 45.921875 
Q 28.375 48.1875 33.59375 48.1875 
Q 44.578125 48.1875 50.953125 41.515625 
Q 57.328125 34.859375 57.328125 23.390625 
Q 57.328125 12.15625 50.6875 5.359375 
Q 44.046875 -1.421875 33.015625 -1.421875 
Q 20.359375 -1.421875 13.671875 8.265625 
Q 6.984375 17.96875 6.984375 36.375 
Q 6.984375 53.65625 15.1875 63.9375 
Q 23.390625 74.21875 37.203125 74.21875 
Q 40.921875 74.21875 44.703125 73.484375 
Q 48.484375 72.75 52.59375 71.296875 
z
" id="DejaVuSans-54"/>
      </defs>
      <g style="fill:#262626;" transform="translate(111.5025 122.948336)scale(0.11 -0.11)">
       <use xlink:href="#DejaVuSans-54"/>
       <use x="63.623047" xlink:href="#DejaVuSans-48"/>
      </g>
     </g>
    </g>
    <g id="ytick_8">
     <g id="line2d_16">
      <path clip-path="url(#p02ed9c632a)" d="M 135 87.705641 
L 972 87.705641 
" style="fill:none;stroke:#ffffff;stroke-linecap:round;"/>
     </g>
     <g id="text_17">
      <!-- 65 -->
      <g style="fill:#262626;" transform="translate(111.5025 91.884781)scale(0.11 -0.11)">
       <use xlink:href="#DejaVuSans-54"/>
       <use x="63.623047" xlink:href="#DejaVuSans-53"/>
      </g>
     </g>
    </g>
    <g id="ytick_9">
     <g id="line2d_17">
      <path clip-path="url(#p02ed9c632a)" d="M 135 56.642086 
L 972 56.642086 
" style="fill:none;stroke:#ffffff;stroke-linecap:round;"/>
     </g>
     <g id="text_18">
      <!-- 70 -->
      <defs>
       <path d="M 8.203125 72.90625 
L 55.078125 72.90625 
L 55.078125 68.703125 
L 28.609375 0 
L 18.3125 0 
L 43.21875 64.59375 
L 8.203125 64.59375 
z
" id="DejaVuSans-55"/>
      </defs>
      <g style="fill:#262626;" transform="translate(111.5025 60.821227)scale(0.11 -0.11)">
       <use xlink:href="#DejaVuSans-55"/>
       <use x="63.623047" xlink:href="#DejaVuSans-48"/>
      </g>
     </g>
    </g>
    <g id="text_19">
     <!-- Baseline % of airport traffic -->
     <defs>
      <path d="M 72.703125 32.078125 
Q 68.453125 32.078125 66.03125 28.46875 
Q 63.625 24.859375 63.625 18.40625 
Q 63.625 12.0625 66.03125 8.421875 
Q 68.453125 4.78125 72.703125 4.78125 
Q 76.859375 4.78125 79.265625 8.421875 
Q 81.6875 12.0625 81.6875 18.40625 
Q 81.6875 24.8125 79.265625 28.4375 
Q 76.859375 32.078125 72.703125 32.078125 
z
M 72.703125 38.28125 
Q 80.421875 38.28125 84.953125 32.90625 
Q 89.5 27.546875 89.5 18.40625 
Q 89.5 9.28125 84.9375 3.921875 
Q 80.375 -1.421875 72.703125 -1.421875 
Q 64.890625 -1.421875 60.34375 3.921875 
Q 55.8125 9.28125 55.8125 18.40625 
Q 55.8125 27.59375 60.375 32.9375 
Q 64.9375 38.28125 72.703125 38.28125 
z
M 22.3125 68.015625 
Q 18.109375 68.015625 15.6875 64.375 
Q 13.28125 60.75 13.28125 54.390625 
Q 13.28125 47.953125 15.671875 44.328125 
Q 18.0625 40.71875 22.3125 40.71875 
Q 26.5625 40.71875 28.96875 44.328125 
Q 31.390625 47.953125 31.390625 54.390625 
Q 31.390625 60.6875 28.953125 64.34375 
Q 26.515625 68.015625 22.3125 68.015625 
z
M 66.40625 74.21875 
L 74.21875 74.21875 
L 28.609375 -1.421875 
L 20.796875 -1.421875 
z
M 22.3125 74.21875 
Q 30.03125 74.21875 34.609375 68.875 
Q 39.203125 63.53125 39.203125 54.390625 
Q 39.203125 45.171875 34.640625 39.84375 
Q 30.078125 34.515625 22.3125 34.515625 
Q 14.546875 34.515625 10.03125 39.859375 
Q 5.515625 45.21875 5.515625 54.390625 
Q 5.515625 63.484375 10.046875 68.84375 
Q 14.59375 74.21875 22.3125 74.21875 
z
" id="DejaVuSans-37"/>
      <path d="M 18.109375 8.203125 
L 18.109375 -20.796875 
L 9.078125 -20.796875 
L 9.078125 54.6875 
L 18.109375 54.6875 
L 18.109375 46.390625 
Q 20.953125 51.265625 25.265625 53.625 
Q 29.59375 56 35.59375 56 
Q 45.5625 56 51.78125 48.09375 
Q 58.015625 40.1875 58.015625 27.296875 
Q 58.015625 14.40625 51.78125 6.484375 
Q 45.5625 -1.421875 35.59375 -1.421875 
Q 29.59375 -1.421875 25.265625 0.953125 
Q 20.953125 3.328125 18.109375 8.203125 
z
M 48.6875 27.296875 
Q 48.6875 37.203125 44.609375 42.84375 
Q 40.53125 48.484375 33.40625 48.484375 
Q 26.265625 48.484375 22.1875 42.84375 
Q 18.109375 37.203125 18.109375 27.296875 
Q 18.109375 17.390625 22.1875 11.75 
Q 26.265625 6.109375 33.40625 6.109375 
Q 40.53125 6.109375 44.609375 11.75 
Q 48.6875 17.390625 48.6875 27.296875 
z
" id="DejaVuSans-112"/>
      <path d="M 48.78125 52.59375 
L 48.78125 44.1875 
Q 44.96875 46.296875 41.140625 47.34375 
Q 37.3125 48.390625 33.40625 48.390625 
Q 24.65625 48.390625 19.8125 42.84375 
Q 14.984375 37.3125 14.984375 27.296875 
Q 14.984375 17.28125 19.8125 11.734375 
Q 24.65625 6.203125 33.40625 6.203125 
Q 37.3125 6.203125 41.140625 7.25 
Q 44.96875 8.296875 48.78125 10.40625 
L 48.78125 2.09375 
Q 45.015625 0.34375 40.984375 -0.53125 
Q 36.96875 -1.421875 32.421875 -1.421875 
Q 20.0625 -1.421875 12.78125 6.34375 
Q 5.515625 14.109375 5.515625 27.296875 
Q 5.515625 40.671875 12.859375 48.328125 
Q 20.21875 56 33.015625 56 
Q 37.15625 56 41.109375 55.140625 
Q 45.0625 54.296875 48.78125 52.59375 
z
" id="DejaVuSans-99"/>
     </defs>
     <g style="fill:#262626;" transform="translate(105.006875 261.44625)rotate(-90)scale(0.12 -0.12)">
      <use xlink:href="#DejaVuSans-66"/>
      <use x="68.603516" xlink:href="#DejaVuSans-97"/>
      <use x="129.882812" xlink:href="#DejaVuSans-115"/>
      <use x="181.982422" xlink:href="#DejaVuSans-101"/>
      <use x="243.505859" xlink:href="#DejaVuSans-108"/>
      <use x="271.289062" xlink:href="#DejaVuSans-105"/>
      <use x="299.072266" xlink:href="#DejaVuSans-110"/>
      <use x="362.451172" xlink:href="#DejaVuSans-101"/>
      <use x="423.974609" xlink:href="#DejaVuSans-32"/>
      <use x="455.761719" xlink:href="#DejaVuSans-37"/>
      <use x="550.78125" xlink:href="#DejaVuSans-32"/>
      <use x="582.568359" xlink:href="#DejaVuSans-111"/>
      <use x="643.75" xlink:href="#DejaVuSans-102"/>
      <use x="678.955078" xlink:href="#DejaVuSans-32"/>
      <use x="710.742188" xlink:href="#DejaVuSans-97"/>
      <use x="772.021484" xlink:href="#DejaVuSans-105"/>
      <use x="799.804688" xlink:href="#DejaVuSans-114"/>
      <use x="840.917969" xlink:href="#DejaVuSans-112"/>
      <use x="904.394531" xlink:href="#DejaVuSans-111"/>
      <use x="965.576172" xlink:href="#DejaVuSans-114"/>
      <use x="1006.689453" xlink:href="#DejaVuSans-116"/>
      <use x="1045.898438" xlink:href="#DejaVuSans-32"/>
      <use x="1077.685547" xlink:href="#DejaVuSans-116"/>
      <use x="1116.894531" xlink:href="#DejaVuSans-114"/>
      <use x="1158.007812" xlink:href="#DejaVuSans-97"/>
      <use x="1219.287109" xlink:href="#DejaVuSans-102"/>
      <use x="1254.492188" xlink:href="#DejaVuSans-102"/>
      <use x="1289.697266" xlink:href="#DejaVuSans-105"/>
      <use x="1317.480469" xlink:href="#DejaVuSans-99"/>
     </g>
    </g>
   </g>
   <g id="line2d_18">
    <defs>
     <path d="M 0 1.5 
C 0.397805 1.5 0.77937 1.341951 1.06066 1.06066 
C 1.341951 0.77937 1.5 0.397805 1.5 0 
C 1.5 -0.397805 1.341951 -0.77937 1.06066 -1.06066 
C 0.77937 -1.341951 0.397805 -1.5 0 -1.5 
C -0.397805 -1.5 -0.77937 -1.341951 -1.06066 -1.06066 
C -1.341951 -0.77937 -1.5 -0.397805 -1.5 0 
C -1.5 0.397805 -1.341951 0.77937 -1.06066 1.06066 
C -0.77937 1.341951 -0.397805 1.5 0 1.5 
z
" id="mbf0d28f6c8" style="stroke:#4c72b0;"/>
    </defs>
    <g clip-path="url(#p02ed9c632a)">
     <use style="fill:#4c72b0;stroke:#4c72b0;" x="173.045455" xlink:href="#mbf0d28f6c8" y="55.554545"/>
     <use style="fill:#4c72b0;stroke:#4c72b0;" x="174.669905" xlink:href="#mbf0d28f6c8" y="65.055959"/>
     <use style="fill:#4c72b0;stroke:#4c72b0;" x="176.440139" xlink:href="#mbf0d28f6c8" y="74.53243"/>
     <use style="fill:#4c72b0;stroke:#4c72b0;" x="178.522767" xlink:href="#mbf0d28f6c8" y="92.653837"/>
     <use style="fill:#4c72b0;stroke:#4c72b0;" x="182.063235" xlink:href="#mbf0d28f6c8" y="131.029458"/>
     <use style="fill:#4c72b0;stroke:#4c72b0;" x="184.89561" xlink:href="#mbf0d28f6c8" y="173.019459"/>
     <use style="fill:#4c72b0;stroke:#4c72b0;" x="188.019552" xlink:href="#mbf0d28f6c8" y="190.821118"/>
     <use style="fill:#4c72b0;stroke:#4c72b0;" x="192.413898" xlink:href="#mbf0d28f6c8" y="193.389042"/>
     <use style="fill:#4c72b0;stroke:#4c72b0;" x="199.723924" xlink:href="#mbf0d28f6c8" y="189.548849"/>
     <use style="fill:#4c72b0;stroke:#4c72b0;" x="205.138757" xlink:href="#mbf0d28f6c8" y="171.982308"/>
     <use style="fill:#4c72b0;stroke:#4c72b0;" x="214.010754" xlink:href="#mbf0d28f6c8" y="159.675986"/>
     <use style="fill:#4c72b0;stroke:#4c72b0;" x="222.362094" xlink:href="#mbf0d28f6c8" y="181.866676"/>
     <use style="fill:#4c72b0;stroke:#4c72b0;" x="231.983837" xlink:href="#mbf0d28f6c8" y="212.697263"/>
     <use style="fill:#4c72b0;stroke:#4c72b0;" x="239.793693" xlink:href="#mbf0d28f6c8" y="218.002381"/>
     <use style="fill:#4c72b0;stroke:#4c72b0;" x="254.871922" xlink:href="#mbf0d28f6c8" y="215.585116"/>
     <use style="fill:#4c72b0;stroke:#4c72b0;" x="254.726138" xlink:href="#mbf0d28f6c8" y="207.436755"/>
     <use style="fill:#4c72b0;stroke:#4c72b0;" x="262.6193" xlink:href="#mbf0d28f6c8" y="187.355274"/>
     <use style="fill:#4c72b0;stroke:#4c72b0;" x="274.073755" xlink:href="#mbf0d28f6c8" y="198.138458"/>
     <use style="fill:#4c72b0;stroke:#4c72b0;" x="284.13285" xlink:href="#mbf0d28f6c8" y="244.190038"/>
     <use style="fill:#4c72b0;stroke:#4c72b0;" x="294.087814" xlink:href="#mbf0d28f6c8" y="284.383192"/>
     <use style="fill:#4c72b0;stroke:#4c72b0;" x="302.647416" xlink:href="#mbf0d28f6c8" y="302.645455"/>
     <use style="fill:#4c72b0;stroke:#4c72b0;" x="310.998756" xlink:href="#mbf0d28f6c8" y="295.331126"/>
     <use style="fill:#4c72b0;stroke:#4c72b0;" x="319.766621" xlink:href="#mbf0d28f6c8" y="253.332203"/>
     <use style="fill:#4c72b0;stroke:#4c72b0;" x="329.825716" xlink:href="#mbf0d28f6c8" y="206.595424"/>
     <use style="fill:#4c72b0;stroke:#4c72b0;" x="340.1139" xlink:href="#mbf0d28f6c8" y="182.995976"/>
     <use style="fill:#4c72b0;stroke:#4c72b0;" x="369.124913" xlink:href="#mbf0d28f6c8" y="197.263894"/>
     <use style="fill:#4c72b0;stroke:#4c72b0;" x="381.953903" xlink:href="#mbf0d28f6c8" y="224.796106"/>
     <use style="fill:#4c72b0;stroke:#4c72b0;" x="393.554143" xlink:href="#mbf0d28f6c8" y="234.424539"/>
     <use style="fill:#4c72b0;stroke:#4c72b0;" x="404.966947" xlink:href="#mbf0d28f6c8" y="232.665508"/>
     <use style="fill:#4c72b0;stroke:#4c72b0;" x="415.421741" xlink:href="#mbf0d28f6c8" y="220.517852"/>
     <use style="fill:#4c72b0;stroke:#4c72b0;" x="429.000478" xlink:href="#mbf0d28f6c8" y="193.058299"/>
     <use style="fill:#4c72b0;stroke:#4c72b0;" x="449.88924" xlink:href="#mbf0d28f6c8" y="176.273322"/>
     <use style="fill:#4c72b0;stroke:#4c72b0;" x="457.178439" xlink:href="#mbf0d28f6c8" y="196.922921"/>
     <use style="fill:#4c72b0;stroke:#4c72b0;" x="467.216708" xlink:href="#mbf0d28f6c8" y="223.011553"/>
     <use style="fill:#4c72b0;stroke:#4c72b0;" x="476.838451" xlink:href="#mbf0d28f6c8" y="223.650722"/>
     <use style="fill:#4c72b0;stroke:#4c72b0;" x="488.417864" xlink:href="#mbf0d28f6c8" y="215.244293"/>
     <use style="fill:#4c72b0;stroke:#4c72b0;" x="496.79003" xlink:href="#mbf0d28f6c8" y="203.929696"/>
     <use style="fill:#4c72b0;stroke:#4c72b0;" x="507.82796" xlink:href="#mbf0d28f6c8" y="176.609653"/>
     <use style="fill:#4c72b0;stroke:#4c72b0;" x="517.782924" xlink:href="#mbf0d28f6c8" y="160.99615"/>
     <use style="fill:#4c72b0;stroke:#4c72b0;" x="526.467484" xlink:href="#mbf0d28f6c8" y="186.152948"/>
     <use style="fill:#4c72b0;stroke:#4c72b0;" x="536.568232" xlink:href="#mbf0d28f6c8" y="218.539754"/>
     <use style="fill:#4c72b0;stroke:#4c72b0;" x="545.752623" xlink:href="#mbf0d28f6c8" y="227.645003"/>
     <use style="fill:#4c72b0;stroke:#4c72b0;" x="551.021672" xlink:href="#mbf0d28f6c8" y="227.97265"/>
     <use style="fill:#4c72b0;stroke:#4c72b0;" x="561.913819" xlink:href="#mbf0d28f6c8" y="220.664232"/>
     <use style="fill:#4c72b0;stroke:#4c72b0;" x="569.64037" xlink:href="#mbf0d28f6c8" y="195.179361"/>
     <use style="fill:#4c72b0;stroke:#4c72b0;" x="578.845587" xlink:href="#mbf0d28f6c8" y="176.784839"/>
     <use style="fill:#4c72b0;stroke:#4c72b0;" x="588.80055" xlink:href="#mbf0d28f6c8" y="194.010419"/>
     <use style="fill:#4c72b0;stroke:#4c72b0;" x="597.922463" xlink:href="#mbf0d28f6c8" y="220.050086"/>
     <use style="fill:#4c72b0;stroke:#4c72b0;" x="604.628526" xlink:href="#mbf0d28f6c8" y="225.884785"/>
     <use style="fill:#4c72b0;stroke:#4c72b0;" x="611.313763" xlink:href="#mbf0d28f6c8" y="221.923102"/>
     <use style="fill:#4c72b0;stroke:#4c72b0;" x="618.561309" xlink:href="#mbf0d28f6c8" y="212.142601"/>
     <use style="fill:#4c72b0;stroke:#4c72b0;" x="625.663072" xlink:href="#mbf0d28f6c8" y="183.899861"/>
     <use style="fill:#4c72b0;stroke:#4c72b0;" x="633.118882" xlink:href="#mbf0d28f6c8" y="167.1891"/>
     <use style="fill:#4c72b0;stroke:#4c72b0;" x="640.387254" xlink:href="#mbf0d28f6c8" y="191.239726"/>
     <use style="fill:#4c72b0;stroke:#4c72b0;" x="648.571984" xlink:href="#mbf0d28f6c8" y="237.261457"/>
     <use style="fill:#4c72b0;stroke:#4c72b0;" x="656.631755" xlink:href="#mbf0d28f6c8" y="277.013942"/>
     <use style="fill:#4c72b0;stroke:#4c72b0;" x="663.483603" xlink:href="#mbf0d28f6c8" y="283.839759"/>
     <use style="fill:#4c72b0;stroke:#4c72b0;" x="669.981403" xlink:href="#mbf0d28f6c8" y="262.383414"/>
     <use style="fill:#4c72b0;stroke:#4c72b0;" x="679.74893" xlink:href="#mbf0d28f6c8" y="216.316764"/>
     <use style="fill:#4c72b0;stroke:#4c72b0;" x="688.954147" xlink:href="#mbf0d28f6c8" y="163.051041"/>
     <use style="fill:#4c72b0;stroke:#4c72b0;" x="697.243008" xlink:href="#mbf0d28f6c8" y="146.983739"/>
     <use style="fill:#4c72b0;stroke:#4c72b0;" x="707.447887" xlink:href="#mbf0d28f6c8" y="167.555983"/>
     <use style="fill:#4c72b0;stroke:#4c72b0;" x="717.340372" xlink:href="#mbf0d28f6c8" y="169.675387"/>
     <use style="fill:#4c72b0;stroke:#4c72b0;" x="724.358829" xlink:href="#mbf0d28f6c8" y="168.446008"/>
     <use style="fill:#4c72b0;stroke:#4c72b0;" x="732.793474" xlink:href="#mbf0d28f6c8" y="163.264663"/>
     <use style="fill:#4c72b0;stroke:#4c72b0;" x="739.499537" xlink:href="#mbf0d28f6c8" y="129.365299"/>
     <use style="fill:#4c72b0;stroke:#4c72b0;" x="746.143122" xlink:href="#mbf0d28f6c8" y="104.673025"/>
     <use style="fill:#4c72b0;stroke:#4c72b0;" x="753.99463" xlink:href="#mbf0d28f6c8" y="122.060028"/>
     <use style="fill:#4c72b0;stroke:#4c72b0;" x="761.908618" xlink:href="#mbf0d28f6c8" y="148.32965"/>
     <use style="fill:#4c72b0;stroke:#4c72b0;" x="768.635508" xlink:href="#mbf0d28f6c8" y="148.898852"/>
     <use style="fill:#4c72b0;stroke:#4c72b0;" x="776.278754" xlink:href="#mbf0d28f6c8" y="143.415077"/>
     <use style="fill:#4c72b0;stroke:#4c72b0;" x="785.754713" xlink:href="#mbf0d28f6c8" y="133.803967"/>
     <use style="fill:#4c72b0;stroke:#4c72b0;" x="794.376794" xlink:href="#mbf0d28f6c8" y="105.596475"/>
     <use style="fill:#4c72b0;stroke:#4c72b0;" x="801.541035" xlink:href="#mbf0d28f6c8" y="87.917426"/>
     <use style="fill:#4c72b0;stroke:#4c72b0;" x="808.684451" xlink:href="#mbf0d28f6c8" y="110.834619"/>
     <use style="fill:#4c72b0;stroke:#4c72b0;" x="817.285706" xlink:href="#mbf0d28f6c8" y="142.059055"/>
     <use style="fill:#4c72b0;stroke:#4c72b0;" x="822.721366" xlink:href="#mbf0d28f6c8" y="150.238808"/>
     <use style="fill:#4c72b0;stroke:#4c72b0;" x="832.634677" xlink:href="#mbf0d28f6c8" y="149.611353"/>
     <use style="fill:#4c72b0;stroke:#4c72b0;" x="838.861735" xlink:href="#mbf0d28f6c8" y="139.645865"/>
     <use style="fill:#4c72b0;stroke:#4c72b0;" x="844.755574" xlink:href="#mbf0d28f6c8" y="108.598667"/>
     <use style="fill:#4c72b0;stroke:#4c72b0;" x="850.128755" xlink:href="#mbf0d28f6c8" y="84.013155"/>
     <use style="fill:#4c72b0;stroke:#4c72b0;" x="855.064584" xlink:href="#mbf0d28f6c8" y="97.84278"/>
     <use style="fill:#4c72b0;stroke:#4c72b0;" x="859.333972" xlink:href="#mbf0d28f6c8" y="121.173931"/>
     <use style="fill:#4c72b0;stroke:#4c72b0;" x="864.478064" xlink:href="#mbf0d28f6c8" y="118.330109"/>
     <use style="fill:#4c72b0;stroke:#4c72b0;" x="868.247621" xlink:href="#mbf0d28f6c8" y="109.954495"/>
     <use style="fill:#4c72b0;stroke:#4c72b0;" x="871.996352" xlink:href="#mbf0d28f6c8" y="100.102826"/>
     <use style="fill:#4c72b0;stroke:#4c72b0;" x="875.911694" xlink:href="#mbf0d28f6c8" y="73.117334"/>
     <use style="fill:#4c72b0;stroke:#4c72b0;" x="880.243561" xlink:href="#mbf0d28f6c8" y="60.423042"/>
     <use style="fill:#4c72b0;stroke:#4c72b0;" x="884.242207" xlink:href="#mbf0d28f6c8" y="93.823975"/>
     <use style="fill:#4c72b0;stroke:#4c72b0;" x="888.532421" xlink:href="#mbf0d28f6c8" y="133.830492"/>
     <use style="fill:#4c72b0;stroke:#4c72b0;" x="894.03056" xlink:href="#mbf0d28f6c8" y="141.882494"/>
     <use style="fill:#4c72b0;stroke:#4c72b0;" x="897.633507" xlink:href="#mbf0d28f6c8" y="140.238213"/>
     <use style="fill:#4c72b0;stroke:#4c72b0;" x="901.81959" xlink:href="#mbf0d28f6c8" y="130.56844"/>
     <use style="fill:#4c72b0;stroke:#4c72b0;" x="906.797072" xlink:href="#mbf0d28f6c8" y="99.04867"/>
     <use style="fill:#4c72b0;stroke:#4c72b0;" x="911.045634" xlink:href="#mbf0d28f6c8" y="80.203102"/>
     <use style="fill:#4c72b0;stroke:#4c72b0;" x="914.898496" xlink:href="#mbf0d28f6c8" y="101.71"/>
     <use style="fill:#4c72b0;stroke:#4c72b0;" x="917.085256" xlink:href="#mbf0d28f6c8" y="129.09706"/>
     <use style="fill:#4c72b0;stroke:#4c72b0;" x="920.64655" xlink:href="#mbf0d28f6c8" y="138.749989"/>
     <use style="fill:#4c72b0;stroke:#4c72b0;" x="926.373778" xlink:href="#mbf0d28f6c8" y="140.317915"/>
     <use style="fill:#4c72b0;stroke:#4c72b0;" x="931.080518" xlink:href="#mbf0d28f6c8" y="134.123534"/>
     <use style="fill:#4c72b0;stroke:#4c72b0;" x="933.954545" xlink:href="#mbf0d28f6c8" y="119.099906"/>
    </g>
   </g>
   <g id="line2d_19">
    <path clip-path="url(#p02ed9c632a)" d="M 173.045455 212.731129 
L 188.574212 211.125647 
L 204.102968 209.520166 
L 219.631725 207.914684 
L 235.160482 206.309202 
L 250.689239 204.70372 
L 266.217996 203.098238 
L 281.746753 201.492757 
L 297.27551 199.887275 
L 312.804267 198.281793 
L 328.333024 196.676311 
L 343.861781 195.070829 
L 359.390538 193.465348 
L 374.919295 191.859866 
L 390.448052 190.254384 
L 405.976809 188.648902 
L 421.505566 187.04342 
L 437.034323 185.437939 
L 452.56308 183.832457 
L 468.091837 182.226975 
L 483.620594 180.621493 
L 499.149351 179.016011 
L 514.678108 177.41053 
L 530.206865 175.805048 
L 545.735622 174.199566 
L 561.264378 172.594084 
L 576.793135 170.988602 
L 592.321892 169.383121 
L 607.850649 167.777639 
L 623.379406 166.172157 
L 638.908163 164.566675 
L 654.43692 162.961193 
L 669.965677 161.355712 
L 685.494434 159.75023 
L 701.023191 158.144748 
L 716.551948 156.539266 
L 732.080705 154.933784 
L 747.609462 153.328303 
L 763.138219 151.722821 
L 778.666976 150.117339 
L 794.195733 148.511857 
L 809.72449 146.906375 
L 825.253247 145.300894 
L 840.782004 143.695412 
L 856.310761 142.08993 
L 871.839518 140.484448 
L 887.368275 138.878966 
L 902.897032 137.273485 
L 918.425788 135.668003 
L 933.954545 134.062521 
" style="fill:none;stroke:#c44e52;stroke-dasharray:5.55,2.4;stroke-dashoffset:0;stroke-width:1.5;"/>
   </g>
   <g id="line2d_20">
    <path clip-path="url(#p02ed9c632a)" d="M 173.045455 113.664146 
L 175.860828 117.304728 
L 178.676202 120.945311 
L 181.491575 124.585893 
L 184.306949 128.226475 
L 187.122322 131.867058 
L 189.937696 135.50764 
L 192.753069 139.148223 
L 195.568443 142.788805 
L 198.383816 146.429388 
L 201.19919 150.06997 
L 204.014563 153.710553 
L 206.829937 157.351135 
L 209.64531 160.991717 
L 212.460684 164.6323 
L 215.276057 168.272882 
L 218.09143 171.913465 
L 220.906804 175.554047 
L 223.722177 179.19463 
L 226.537551 182.835212 
L 229.352924 186.475795 
L 232.168298 190.116377 
L 234.983671 193.756959 
L 237.799045 197.397542 
L 240.614418 201.038124 
L 243.429792 204.678707 
L 246.245165 208.319289 
L 249.060539 211.959872 
L 251.875912 215.600454 
L 254.691286 219.241037 
L 257.506659 222.881619 
L 260.322033 226.522201 
L 263.137406 230.162784 
L 265.95278 233.803366 
L 268.768153 237.443949 
L 271.583527 241.084531 
L 274.3989 244.725114 
L 277.214274 248.365696 
L 280.029647 252.006279 
L 282.845021 255.646861 
L 285.660394 259.287443 
L 288.475768 262.928026 
L 291.291141 266.568608 
L 294.106515 270.209191 
L 296.921888 273.849773 
L 299.737262 277.490356 
L 302.552635 281.130938 
L 305.368009 284.771521 
L 308.183382 288.412103 
L 310.998756 292.052686 
" style="fill:none;stroke:#55a868;stroke-dasharray:5.55,2.4;stroke-dashoffset:0;stroke-width:1.5;"/>
   </g>
   <g id="patch_3">
    <path d="M 135 315 
L 135 43.2 
" style="fill:none;stroke:#ffffff;stroke-linecap:square;stroke-linejoin:miter;stroke-width:1.25;"/>
   </g>
   <g id="patch_4">
    <path d="M 972 315 
L 972 43.2 
" style="fill:none;stroke:#ffffff;stroke-linecap:square;stroke-linejoin:miter;stroke-width:1.25;"/>
   </g>
   <g id="patch_5">
    <path d="M 135 315 
L 972 315 
" style="fill:none;stroke:#ffffff;stroke-linecap:square;stroke-linejoin:miter;stroke-width:1.25;"/>
   </g>
   <g id="patch_6">
    <path d="M 135 43.2 
L 972 43.2 
" style="fill:none;stroke:#ffffff;stroke-linecap:square;stroke-linejoin:miter;stroke-width:1.25;"/>
   </g>
   <g id="legend_1">
    <g id="patch_7">
     <path d="M 142.7 309.5 
L 263.112188 309.5 
Q 265.312187 309.5 265.312187 307.3 
L 265.312187 259.962187 
Q 265.312187 257.762187 263.112188 257.762187 
L 142.7 257.762187 
Q 140.5 257.762187 140.5 259.962187 
L 140.5 307.3 
Q 140.5 309.5 142.7 309.5 
z
" style="fill:#eaeaf2;opacity:0.8;stroke:#cccccc;stroke-linejoin:miter;"/>
    </g>
    <g id="line2d_21"/>
    <g id="line2d_22">
     <g>
      <use style="fill:#4c72b0;stroke:#4c72b0;" x="155.9" xlink:href="#mbf0d28f6c8" y="266.670469"/>
     </g>
    </g>
    <g id="text_20">
     <!-- Presented Data -->
     <defs>
      <path d="M 19.671875 64.796875 
L 19.671875 37.40625 
L 32.078125 37.40625 
Q 38.96875 37.40625 42.71875 40.96875 
Q 46.484375 44.53125 46.484375 51.125 
Q 46.484375 57.671875 42.71875 61.234375 
Q 38.96875 64.796875 32.078125 64.796875 
z
M 9.8125 72.90625 
L 32.078125 72.90625 
Q 44.34375 72.90625 50.609375 67.359375 
Q 56.890625 61.8125 56.890625 51.125 
Q 56.890625 40.328125 50.609375 34.8125 
Q 44.34375 29.296875 32.078125 29.296875 
L 19.671875 29.296875 
L 19.671875 0 
L 9.8125 0 
z
" id="DejaVuSans-80"/>
      <path d="M 19.671875 64.796875 
L 19.671875 8.109375 
L 31.59375 8.109375 
Q 46.6875 8.109375 53.6875 14.9375 
Q 60.6875 21.78125 60.6875 36.53125 
Q 60.6875 51.171875 53.6875 57.984375 
Q 46.6875 64.796875 31.59375 64.796875 
z
M 9.8125 72.90625 
L 30.078125 72.90625 
Q 51.265625 72.90625 61.171875 64.09375 
Q 71.09375 55.28125 71.09375 36.53125 
Q 71.09375 17.671875 61.125 8.828125 
Q 51.171875 0 30.078125 0 
L 9.8125 0 
z
" id="DejaVuSans-68"/>
     </defs>
     <g style="fill:#262626;" transform="translate(175.7 270.520469)scale(0.11 -0.11)">
      <use xlink:href="#DejaVuSans-80"/>
      <use x="60.287109" xlink:href="#DejaVuSans-114"/>
      <use x="101.369141" xlink:href="#DejaVuSans-101"/>
      <use x="162.892578" xlink:href="#DejaVuSans-115"/>
      <use x="214.992188" xlink:href="#DejaVuSans-101"/>
      <use x="276.515625" xlink:href="#DejaVuSans-110"/>
      <use x="339.894531" xlink:href="#DejaVuSans-116"/>
      <use x="379.103516" xlink:href="#DejaVuSans-101"/>
      <use x="440.626953" xlink:href="#DejaVuSans-100"/>
      <use x="504.103516" xlink:href="#DejaVuSans-32"/>
      <use x="535.890625" xlink:href="#DejaVuSans-68"/>
      <use x="612.892578" xlink:href="#DejaVuSans-97"/>
      <use x="674.171875" xlink:href="#DejaVuSans-116"/>
      <use x="713.380859" xlink:href="#DejaVuSans-97"/>
     </g>
    </g>
    <g id="line2d_23">
     <path d="M 144.9 282.816406 
L 166.9 282.816406 
" style="fill:none;stroke:#c44e52;stroke-dasharray:5.55,2.4;stroke-dashoffset:0;stroke-width:1.5;"/>
    </g>
    <g id="line2d_24"/>
    <g id="text_21">
     <!-- Entire Curve -->
     <defs>
      <path d="M 9.8125 72.90625 
L 55.90625 72.90625 
L 55.90625 64.59375 
L 19.671875 64.59375 
L 19.671875 43.015625 
L 54.390625 43.015625 
L 54.390625 34.71875 
L 19.671875 34.71875 
L 19.671875 8.296875 
L 56.78125 8.296875 
L 56.78125 0 
L 9.8125 0 
z
" id="DejaVuSans-69"/>
      <path d="M 8.5 21.578125 
L 8.5 54.6875 
L 17.484375 54.6875 
L 17.484375 21.921875 
Q 17.484375 14.15625 20.5 10.265625 
Q 23.53125 6.390625 29.59375 6.390625 
Q 36.859375 6.390625 41.078125 11.03125 
Q 45.3125 15.671875 45.3125 23.6875 
L 45.3125 54.6875 
L 54.296875 54.6875 
L 54.296875 0 
L 45.3125 0 
L 45.3125 8.40625 
Q 42.046875 3.421875 37.71875 1 
Q 33.40625 -1.421875 27.6875 -1.421875 
Q 18.265625 -1.421875 13.375 4.4375 
Q 8.5 10.296875 8.5 21.578125 
z
M 31.109375 56 
z
" id="DejaVuSans-117"/>
      <path d="M 2.984375 54.6875 
L 12.5 54.6875 
L 29.59375 8.796875 
L 46.6875 54.6875 
L 56.203125 54.6875 
L 35.6875 0 
L 23.484375 0 
z
" id="DejaVuSans-118"/>
     </defs>
     <g style="fill:#262626;" transform="translate(175.7 286.666406)scale(0.11 -0.11)">
      <use xlink:href="#DejaVuSans-69"/>
      <use x="63.183594" xlink:href="#DejaVuSans-110"/>
      <use x="126.5625" xlink:href="#DejaVuSans-116"/>
      <use x="165.771484" xlink:href="#DejaVuSans-105"/>
      <use x="193.554688" xlink:href="#DejaVuSans-114"/>
      <use x="234.636719" xlink:href="#DejaVuSans-101"/>
      <use x="296.160156" xlink:href="#DejaVuSans-32"/>
      <use x="327.947266" xlink:href="#DejaVuSans-67"/>
      <use x="397.771484" xlink:href="#DejaVuSans-117"/>
      <use x="461.150391" xlink:href="#DejaVuSans-114"/>
      <use x="502.263672" xlink:href="#DejaVuSans-118"/>
      <use x="561.443359" xlink:href="#DejaVuSans-101"/>
     </g>
    </g>
    <g id="line2d_25">
     <path d="M 144.9 298.962344 
L 166.9 298.962344 
" style="fill:none;stroke:#55a868;stroke-dasharray:5.55,2.4;stroke-dashoffset:0;stroke-width:1.5;"/>
    </g>
    <g id="line2d_26"/>
    <g id="text_22">
     <!-- Head of Curve -->
     <defs>
      <path d="M 9.8125 72.90625 
L 19.671875 72.90625 
L 19.671875 43.015625 
L 55.515625 43.015625 
L 55.515625 72.90625 
L 65.375 72.90625 
L 65.375 0 
L 55.515625 0 
L 55.515625 34.71875 
L 19.671875 34.71875 
L 19.671875 0 
L 9.8125 0 
z
" id="DejaVuSans-72"/>
     </defs>
     <g style="fill:#262626;" transform="translate(175.7 302.812344)scale(0.11 -0.11)">
      <use xlink:href="#DejaVuSans-72"/>
      <use x="75.195312" xlink:href="#DejaVuSans-101"/>
      <use x="136.71875" xlink:href="#DejaVuSans-97"/>
      <use x="197.998047" xlink:href="#DejaVuSans-100"/>
      <use x="261.474609" xlink:href="#DejaVuSans-32"/>
      <use x="293.261719" xlink:href="#DejaVuSans-111"/>
      <use x="354.443359" xlink:href="#DejaVuSans-102"/>
      <use x="389.648438" xlink:href="#DejaVuSans-32"/>
      <use x="421.435547" xlink:href="#DejaVuSans-67"/>
      <use x="491.259766" xlink:href="#DejaVuSans-117"/>
      <use x="554.638672" xlink:href="#DejaVuSans-114"/>
      <use x="595.751953" xlink:href="#DejaVuSans-118"/>
      <use x="654.931641" xlink:href="#DejaVuSans-101"/>
     </g>
    </g>
   </g>
  </g>
 </g>
 <defs>
  <clipPath id="p02ed9c632a">
   <rect height="271.8" width="837" x="135" y="43.2"/>
  </clipPath>
 </defs>
</svg>
